<svg width="24" height="24" viewBox="0 0 24 24" fill="none" xmlns="http://www.w3.org/2000/svg">
<path d="M4.63595 1.13908C4.45313 1.27971 4.45313 1.28908 4.45313 5.15158V8.90627L4.31251 9.03752C4.18595 9.15471 1.28438 14.1235 1.13907 14.4797C1.04063 14.7141 1.0547 15.1547 1.1672 15.3938C1.3172 15.6938 1.44376 15.7922 2.46095 16.3781C3.4922 16.9735 3.7172 17.0531 4.10626 16.9688C4.33595 16.9172 4.65938 16.7297 4.7297 16.6078C4.76251 16.5469 5.20313 17.0625 5.92032 17.986C5.94845 18.0235 5.92501 18.1172 5.8547 18.2672C5.78907 18.3985 5.73751 18.6094 5.72813 18.7735C5.69532 19.3219 6.1172 19.875 6.68907 20.0297C6.88594 20.0813 6.89063 20.086 6.89063 20.2735C6.89063 20.386 6.94219 20.5688 7.01251 20.7094C7.23282 21.1547 7.67344 21.4219 8.18438 21.4219C8.40001 21.4219 8.43282 21.436 8.45626 21.5297C8.49376 21.6891 8.79376 22.0172 9.02813 22.1531C9.26251 22.2938 9.71251 22.35 9.98438 22.2797C10.1391 22.2375 10.1531 22.2469 10.4063 22.5C10.725 22.8281 11.025 22.9453 11.4375 22.9078C11.8547 22.8703 12.1688 22.6641 12.4688 22.2328C12.5391 22.1344 12.5391 22.1344 13.0922 22.4578C13.7063 22.8188 13.9547 22.8985 14.3063 22.861C14.8359 22.7953 15.3703 22.2516 15.375 21.7688C15.375 21.6281 15.3844 21.6188 15.6047 21.5906C16.0641 21.5297 16.4906 21.1219 16.6031 20.6391C16.6594 20.4 16.6688 20.3906 16.8234 20.3906C17.2219 20.3906 17.6109 20.1469 17.8453 19.7485C18 19.4813 18.0469 18.9563 17.9391 18.6985L17.8688 18.5297L18.0563 18.3563C18.4266 18.0047 18.5813 17.3719 18.3984 16.9453L18.3328 16.7813L18.7125 16.5891L19.0969 16.3969L19.2609 16.5797C19.575 16.9313 19.9406 17.0578 20.3625 16.9688C20.625 16.9172 22.3734 15.9375 22.6078 15.7172C22.8984 15.436 23.0156 14.85 22.8609 14.4703C22.7109 14.1188 19.8141 9.15471 19.6875 9.03752L19.5469 8.90627V5.15158C19.5469 1.28908 19.5469 1.27971 19.3641 1.13908C19.2563 1.05471 4.74376 1.05471 4.63595 1.13908ZM18.75 5.29689V8.71877L18.6094 8.74689C18.375 8.79846 16.5422 9.87189 16.3688 10.0641C16.2 10.2563 16.0594 10.6688 16.0875 10.8797C16.1063 11.0016 16.0922 11.0203 15.9422 11.0578C15.5297 11.1656 15.1266 11.2078 14.5359 11.2078C13.8891 11.2078 13.6313 11.1797 12.7594 11.0156C11.6016 10.7906 10.8609 10.9641 10.1109 11.625L9.93282 11.7797L8.91094 11.4141L7.88438 11.0531L7.90782 10.8985C7.94532 10.6735 7.80938 10.2656 7.63126 10.0641C7.45782 9.87189 5.62501 8.79846 5.39063 8.74689L5.25001 8.71877V5.29689V1.87502H12H18.75V5.29689ZM6.05157 10.0078C6.96094 10.5281 7.14844 10.6781 7.10626 10.8469C7.07344 10.9828 4.18595 15.9844 4.08751 16.0828C3.90938 16.261 3.84376 16.2375 2.90157 15.6985C2.40001 15.4125 1.96407 15.1453 1.93595 15.1031C1.90313 15.061 1.87501 14.9719 1.87501 14.9063C1.87501 14.7563 4.72501 9.77814 4.90313 9.61877C4.96876 9.56252 5.05782 9.51564 5.1047 9.51564C5.14688 9.51564 5.57345 9.73596 6.05157 10.0078ZM19.0969 9.61877C19.275 9.77814 22.125 14.7516 22.125 14.9016C22.125 14.9719 22.0969 15.061 22.0688 15.1031C22.0359 15.1453 21.6 15.4172 21.0984 15.6985C20.1563 16.2375 20.0906 16.261 19.9125 16.0828C19.8141 15.9844 16.9266 10.9828 16.8938 10.8469C16.875 10.7813 16.9078 10.7063 16.9781 10.6266C17.1047 10.4813 18.7781 9.51564 18.8953 9.51564C18.9422 9.51564 19.0313 9.56252 19.0969 9.61877ZM12.8203 11.8453C13.3781 11.9625 13.5234 11.9719 14.5078 11.9719C15.45 11.9766 15.6375 11.9625 16.0078 11.8735C16.2422 11.8172 16.4438 11.7891 16.4625 11.8031C16.5141 11.8547 18.7078 15.6656 18.6938 15.6797C18.6844 15.6844 18.45 15.8063 18.1734 15.9469L17.6625 16.2094L15.4781 14.9391C14.2734 14.2453 13.1719 13.6172 13.0313 13.5516C12.525 13.3219 11.8828 13.4156 11.0063 13.8563L10.6922 14.0156L10.3594 14.6672C10.1438 15.0891 9.97032 15.3703 9.86719 15.4641C9.68907 15.6188 9.24376 15.7781 9.17344 15.7078C9.14532 15.6797 9.14063 15.2578 9.16407 14.6438L9.19688 13.6266L9.39376 13.4156C9.73594 13.0406 10.7906 12.0891 11.0063 11.9672C11.4984 11.6766 11.8875 11.6531 12.8203 11.8453ZM8.44688 12.1031L9.28126 12.3985L8.85938 12.8203L8.43751 13.2469L8.39063 14.0625C8.31563 15.4547 8.32501 15.8438 8.45157 16.0828C8.63438 16.425 8.99532 16.5703 9.47813 16.4953C10.1906 16.3781 10.5656 16.0594 11.0203 15.1688L11.3203 14.5875L11.6531 14.4422C12.0938 14.2547 12.3891 14.1891 12.5766 14.2406C12.7547 14.2922 17.4141 16.9828 17.5688 17.1235C17.7188 17.2641 17.7094 17.536 17.5453 17.7141C17.3063 17.9719 17.2641 17.9625 16.2797 17.3906C15.7828 17.1094 15.3234 16.875 15.2625 16.875C14.9719 16.875 14.7703 17.2688 14.9484 17.4938C15 17.5594 15.4922 17.8735 16.0359 18.1922C16.5797 18.5063 17.0672 18.811 17.1141 18.8625C17.2734 19.0266 17.1891 19.4297 16.9734 19.5469C16.7719 19.65 16.6172 19.5891 15.5438 18.961C14.7094 18.4735 14.4188 18.3281 14.2922 18.3281C14.0859 18.3281 13.9781 18.4031 13.9266 18.5906C13.8469 18.8813 13.9313 18.9656 14.8172 19.4766C15.2672 19.7344 15.6797 19.9922 15.7406 20.0485C15.9047 20.2125 15.8813 20.4563 15.6844 20.6531C15.5906 20.7469 15.4781 20.8125 15.4125 20.8125C15.3516 20.8125 14.9531 20.611 14.5313 20.3625C13.3172 19.6547 13.2938 19.65 13.0594 19.8328C12.9094 19.95 12.8906 20.2313 13.0219 20.3813C13.0641 20.4375 13.3875 20.6438 13.7344 20.8406C14.5266 21.2906 14.5781 21.3375 14.5781 21.5766C14.5781 21.7219 14.5453 21.7922 14.4188 21.9188C14.325 22.0125 14.2125 22.0781 14.1469 22.0781C14.0906 22.0781 13.7953 21.9328 13.4953 21.7594C12.9891 21.4641 12.9563 21.436 12.9891 21.3281C13.0453 21.1313 13.0359 20.9344 12.9563 20.6672C12.8625 20.3531 12.4875 19.9594 12.1969 19.8703C12.0234 19.8188 12.0094 19.8047 12.0516 19.7016C12.1313 19.4906 12.0984 19.0688 11.9813 18.8203C11.8125 18.45 11.3391 18.0985 11.0109 18.0938C10.9031 18.0938 10.8844 18.0703 10.8609 17.911C10.8094 17.5219 10.5422 17.1563 10.1578 16.9641C9.89063 16.8235 9.41251 16.7906 9.16876 16.8938L8.98594 16.9688L8.83594 16.7906C8.75157 16.6922 8.56876 16.5516 8.43282 16.4766C8.21251 16.3547 8.13282 16.336 7.82813 16.336C7.29844 16.3406 7.00313 16.5328 6.61876 17.1422C6.54844 17.2547 6.47813 17.3391 6.46407 17.3297C6.44532 17.325 6.15938 16.9781 5.82188 16.5656L5.21251 15.811L6.36563 13.8094C6.99844 12.7125 7.54219 11.8125 7.56563 11.8125C7.59376 11.8125 7.99219 11.9438 8.44688 12.1031ZM8.16094 17.2781C8.33907 17.4516 8.36719 17.6016 8.25469 17.7938C8.04844 18.1453 7.26563 19.2094 7.19532 19.2375C7.00782 19.3078 6.83438 19.2656 6.67501 19.1063C6.49219 18.9235 6.47344 18.7922 6.60469 18.586C6.84844 18.1828 7.56563 17.2172 7.65469 17.1703C7.79532 17.086 8.01094 17.1328 8.16094 17.2781ZM9.95157 17.8125C10.1719 18.061 10.1484 18.1172 9.32344 19.2938C8.90626 19.8844 8.51251 20.4235 8.44688 20.4938C8.27813 20.6766 8.07188 20.6719 7.85157 20.4797C7.56563 20.2266 7.58907 20.175 8.44219 18.9563C9.37969 17.6203 9.38907 17.611 9.63282 17.6438C9.76407 17.6578 9.85782 17.7094 9.95157 17.8125ZM11.0625 18.9703C11.4375 19.2281 11.4094 19.3219 10.6406 20.4188C10.2797 20.9297 9.93751 21.3891 9.88594 21.4313C9.61407 21.661 9.06563 21.3188 9.16876 20.986C9.20626 20.8641 10.4297 19.1016 10.5656 18.9797C10.6828 18.8672 10.9125 18.8672 11.0625 18.9703ZM11.9813 20.6672C12.1641 20.7797 12.2672 21.0094 12.1969 21.1594C12.1078 21.3563 11.5828 22.0641 11.5078 22.0969C11.1984 22.2141 10.7719 21.886 10.8469 21.5906C10.875 21.4688 11.3578 20.7797 11.4938 20.6578C11.6156 20.5547 11.7984 20.5547 11.9813 20.6672Z" fill="white"/>
<path d="M8.22656 3.84844L7.73438 4.32656L7.52344 4.12969C7.37344 3.99375 7.275 3.9375 7.17188 3.9375C6.96563 3.9375 6.79688 4.12031 6.79688 4.34063C6.79688 4.5 6.83906 4.55625 7.18594 4.90781C7.54219 5.26406 7.59375 5.29688 7.75781 5.29688C7.93125 5.29688 7.97813 5.25938 8.61094 4.62656C9.25313 3.98438 9.28125 3.94688 9.28125 3.76875C9.28125 3.52031 9.13594 3.375 8.8875 3.375C8.72813 3.375 8.66719 3.41719 8.22656 3.84844Z" fill="white"/>
<path d="M10.7298 4.04531C10.5142 4.20938 10.4954 4.45781 10.6829 4.64531L10.8189 4.78125H13.8986H16.9736L17.0861 4.66406C17.2548 4.5 17.2501 4.21406 17.0814 4.08281C16.9595 3.98438 16.922 3.98438 13.8798 3.98438C11.5361 3.98906 10.7861 4.00313 10.7298 4.04531Z" fill="white"/>
<path d="M8.25469 7.89375L7.75781 8.38594L7.53281 8.17031C7.32656 7.97813 7.28906 7.95938 7.13438 7.98281C6.91875 8.02031 6.79688 8.16094 6.79688 8.38594C6.79688 8.53594 6.83906 8.60156 7.18594 8.94375C7.54219 9.29531 7.58906 9.32812 7.75781 9.32812C7.93594 9.32812 7.97813 9.29531 8.61563 8.65781C9.25781 8.01563 9.28125 7.98281 9.28125 7.79531C9.28125 7.64063 9.25781 7.57969 9.15938 7.50469C8.91094 7.3125 8.79844 7.35938 8.25469 7.89375Z" fill="white"/>
<path d="M10.6828 8.10469C10.6078 8.17969 10.5469 8.2875 10.5469 8.34375C10.5469 8.47969 10.6687 8.7 10.7578 8.7375C10.8 8.75156 12.2203 8.76562 13.9172 8.76562H17.0016L17.1 8.65781C17.2312 8.52188 17.2359 8.25469 17.1141 8.10469L17.025 7.99219L13.9219 7.97813L10.8234 7.96875L10.6828 8.10469Z" fill="white"/>
</svg>
