<svg width="16" height="16" viewBox="0 0 16 16" fill="none" xmlns="http://www.w3.org/2000/svg">
<g clip-path="url(#clip0_7682_99697)">
<path d="M12.4 0.0656281C12.4781 0.103127 12.5719 0.187503 12.6187 0.259377C12.6969 0.378128 12.7031 0.409378 12.7125 0.815628L12.7219 1.24375L13.3687 1.25625C13.9656 1.26875 14.0344 1.27813 14.2656 1.35313C14.675 1.49063 14.95 1.6625 15.2687 1.98125C15.5844 2.29688 15.7562 2.57188 15.9 2.98438L15.9844 3.23438V8.625V14.0156L15.9 14.2656C15.7562 14.6781 15.5844 14.9531 15.2687 15.2688C14.9531 15.5844 14.6781 15.7563 14.2656 15.9L14.0156 15.9844L11.2844 15.9938L8.55625 16.0031L8.41562 15.9344C8.33125 15.8938 8.24375 15.8188 8.19375 15.7406C8.12187 15.6313 8.10937 15.5813 8.10937 15.375C8.10937 15.1688 8.12187 15.1188 8.19375 15.0094C8.24375 14.9344 8.33125 14.8563 8.4125 14.8156C8.55 14.75 8.56875 14.75 10.9875 14.75C12.4406 14.75 13.5094 14.7375 13.6406 14.7188C14.2094 14.6375 14.6375 14.2094 14.7187 13.6406C14.7594 13.3438 14.7594 3.90625 14.7187 3.60938C14.6781 3.325 14.5594 3.08438 14.3625 2.8875C14.0656 2.59375 13.7594 2.50313 13.0687 2.5H12.7187V2.89688C12.7187 3.36563 12.6687 3.5125 12.4594 3.65C12.35 3.72188 12.3 3.73438 12.0937 3.73438C11.8875 3.73438 11.8375 3.72188 11.7281 3.65C11.5187 3.5125 11.4687 3.36563 11.4687 2.89688V2.5H10.0625H8.65625V2.89688C8.65625 3.36563 8.60625 3.5125 8.39687 3.65C8.2875 3.72188 8.2375 3.73438 8.03125 3.73438C7.825 3.73438 7.775 3.72188 7.66562 3.65C7.45625 3.5125 7.40625 3.36563 7.40625 2.89688V2.5H5.98437H4.5625V2.89688C4.5625 3.36563 4.5125 3.5125 4.30312 3.65C4.19375 3.72188 4.14375 3.73438 3.9375 3.73438C3.73125 3.73438 3.68125 3.72188 3.57187 3.65C3.3625 3.5125 3.3125 3.36563 3.3125 2.89688V2.5H2.94375C2.24062 2.50313 1.93437 2.59375 1.6375 2.8875C1.44062 3.08438 1.32187 3.325 1.28125 3.60938C1.26562 3.73438 1.25 4.60625 1.25 5.65313C1.25 7.45 1.25 7.48125 1.18437 7.61875C1.14375 7.7 1.06562 7.7875 0.990623 7.8375C0.881248 7.90938 0.831248 7.92188 0.624999 7.92188C0.418749 7.92188 0.368749 7.90938 0.259374 7.8375C0.181249 7.7875 0.106249 7.7 0.0656233 7.61563C-0.00312614 7.475 -0.00312614 7.47188 0.00624847 5.35625L0.015624 3.23438L0.0999985 2.98438C0.243749 2.57188 0.415624 2.29688 0.731249 1.98125C1.05 1.6625 1.325 1.49063 1.73437 1.35313C1.96562 1.275 2.03125 1.26875 2.64687 1.25625L3.3125 1.24375V0.850003C3.3125 0.384377 3.3625 0.237503 3.57187 0.100003C3.68125 0.0281277 3.73125 0.0156279 3.9375 0.0156279C4.14375 0.0156279 4.19375 0.0281277 4.30312 0.100003C4.5125 0.237503 4.5625 0.384377 4.5625 0.853127V1.25H5.98437H7.40625V0.853127C7.40625 0.384377 7.45625 0.237503 7.66562 0.100003C7.775 0.0281277 7.825 0.0156279 8.03125 0.0156279C8.2375 0.0156279 8.2875 0.0281277 8.39687 0.100003C8.60625 0.237503 8.65625 0.384377 8.65625 0.853127V1.25H10.0625H11.4687V0.853127C11.4687 0.384377 11.5187 0.237503 11.7281 0.100003C11.9031 -0.0156231 12.2094 -0.0312481 12.4 0.0656281Z" fill="#016DEA"/>
<path d="M12.4004 6.00311C12.5941 6.09999 12.6973 6.27186 12.7129 6.51874C12.7379 6.90624 12.5223 7.15624 12.1379 7.18124C11.7504 7.20624 11.5004 6.99061 11.4754 6.60624C11.4598 6.35311 11.5441 6.15936 11.7285 6.03749C11.9035 5.92186 12.2098 5.90624 12.4004 6.00311Z" fill="#016DEA"/>
<path d="M9.68164 6.00311C9.87539 6.09999 9.97851 6.27186 9.99414 6.51874C10.0191 6.90624 9.80351 7.15624 9.41914 7.18124C9.03164 7.20624 8.78164 6.99061 8.75664 6.60624C8.74101 6.35311 8.82539 6.15936 9.00976 6.03749C9.18476 5.92186 9.49101 5.90624 9.68164 6.00311Z" fill="#016DEA"/>
<path d="M6.96289 6.00311C7.15664 6.09999 7.25976 6.27186 7.27539 6.51874C7.30039 6.90624 7.08476 7.15624 6.70039 7.18124C6.31289 7.20624 6.06289 6.99061 6.03789 6.60624C6.02226 6.35311 6.10664 6.15936 6.29101 6.03749C6.46601 5.92186 6.77226 5.90624 6.96289 6.00311Z" fill="#016DEA"/>
<path d="M4.24414 6.00311C4.43789 6.09999 4.54101 6.27186 4.55664 6.51874C4.58164 6.90624 4.36601 7.15624 3.98164 7.18124C3.59414 7.20624 3.34414 6.99061 3.31914 6.60624C3.30351 6.35311 3.38789 6.15936 3.57226 6.03749C3.74726 5.92186 4.05351 5.90624 4.24414 6.00311Z" fill="#016DEA"/>
<path d="M4.47832 8.48437C5.24395 8.62812 5.95957 9.01875 6.50645 9.59062C6.96895 10.0687 7.28457 10.6281 7.4627 11.2812C7.5377 11.5562 7.54395 11.6281 7.54395 12.2187C7.54395 12.8094 7.5377 12.8812 7.4627 13.1562C7.2752 13.8437 6.95957 14.3906 6.45645 14.8937C5.95332 15.3969 5.40645 15.7125 4.71895 15.9C4.44395 15.975 4.37207 15.9812 3.78145 15.9812C3.19082 15.9812 3.11895 15.975 2.84395 15.9C2.15645 15.7125 1.60957 15.3969 1.10645 14.8937C0.60332 14.3906 0.287695 13.8437 0.100195 13.1562C0.0251956 12.8812 0.0189452 12.8094 0.0189452 12.2187C0.0189452 11.6281 0.0251956 11.5562 0.100195 11.2812C0.287695 10.5937 0.60332 10.0469 1.10645 9.54375C1.6127 9.04062 2.16582 8.71875 2.84395 8.54062C3.09395 8.475 3.2252 8.45937 3.6877 8.45C4.07832 8.44375 4.30332 8.45312 4.47832 8.48437ZM3.24395 9.76875C2.45645 9.95 1.7877 10.5031 1.4752 11.2375C1.2127 11.8594 1.2127 12.5781 1.4752 13.2C1.7877 13.9344 2.45645 14.4875 3.24395 14.6687C3.53145 14.7344 4.03145 14.7344 4.31895 14.6687C5.27207 14.4531 6.01582 13.7094 6.23145 12.7562C6.29707 12.4687 6.29707 11.9687 6.23145 11.6812C6.01582 10.7406 5.30332 10.0156 4.35957 9.77812C4.07207 9.70625 3.54082 9.70312 3.24395 9.76875Z" fill="#016DEA"/>
<path d="M3.31641 10.3781C3.23828 10.4156 3.14453 10.5 3.09766 10.5719L3.01328 10.6969L3.00391 11.5406C2.99453 12.3469 2.99766 12.3844 3.06328 12.5219C3.10391 12.6063 3.17891 12.6938 3.25703 12.7438C3.38203 12.8281 3.38828 12.8281 4.03516 12.8375C4.65391 12.8469 4.69766 12.8438 4.82891 12.7781C4.91641 12.7375 5.00391 12.6625 5.05391 12.5844C5.12578 12.475 5.13828 12.425 5.13828 12.2188C5.13828 12.0125 5.12578 11.9625 5.05391 11.8531C4.93516 11.675 4.75703 11.5938 4.47266 11.5938H4.24766V11.1813C4.24766 10.6938 4.20078 10.5531 3.98828 10.4125C3.81328 10.2969 3.50703 10.2813 3.31641 10.3781Z" fill="#016DEA"/>
<path d="M12.4004 8.72188C12.5941 8.81875 12.6973 8.99063 12.7129 9.2375C12.7379 9.625 12.5223 9.875 12.1379 9.9C11.7504 9.925 11.5004 9.70938 11.4754 9.325C11.4598 9.07188 11.5441 8.87813 11.7285 8.75625C11.9035 8.64063 12.2098 8.625 12.4004 8.72188Z" fill="#016DEA"/>
<path d="M9.68164 8.72188C9.87539 8.81875 9.97851 8.99063 9.99414 9.2375C10.0191 9.625 9.80351 9.875 9.41914 9.9C9.03164 9.925 8.78164 9.70938 8.75664 9.325C8.74101 9.07188 8.82539 8.87813 9.00976 8.75625C9.18476 8.64063 9.49101 8.625 9.68164 8.72188Z" fill="#016DEA"/>
<path d="M12.4004 11.4406C12.5941 11.5375 12.6973 11.7094 12.7129 11.9563C12.7379 12.3438 12.5223 12.5938 12.1379 12.6188C11.7504 12.6438 11.5004 12.4281 11.4754 12.0438C11.4598 11.7906 11.5441 11.5969 11.7285 11.475C11.9035 11.3594 12.2098 11.3438 12.4004 11.4406Z" fill="#016DEA"/>
<path d="M9.68164 11.4406C9.87539 11.5375 9.97851 11.7094 9.99414 11.9563C10.0191 12.3438 9.80351 12.5938 9.41914 12.6188C9.03164 12.6438 8.78164 12.4281 8.75664 12.0438C8.74101 11.7906 8.82539 11.5969 9.00976 11.475C9.18476 11.3594 9.49101 11.3438 9.68164 11.4406Z" fill="#016DEA"/>
</g>
<defs>
<clipPath id="clip0_7682_99697">
<rect width="16" height="16" fill="white" transform="matrix(-1 0 0 1 16 0)"/>
</clipPath>
</defs>
</svg>
