<svg width="30" height="30" viewBox="0 0 30 30" fill="none" xmlns="http://www.w3.org/2000/svg">
<circle cx="15" cy="15" r="14.5" fill="url(#paint0_linear_7601_156584)" stroke="#016DEA"/>
<path d="M11.6663 14.3334L14.333 8.33337C14.8634 8.33337 15.3721 8.54409 15.7472 8.91916C16.1223 9.29423 16.333 9.80294 16.333 10.3334V13H20.1063C20.2996 12.9979 20.4911 13.0377 20.6674 13.1169C20.8437 13.196 21.0008 13.3125 21.1276 13.4584C21.2544 13.6042 21.348 13.7759 21.4019 13.9615C21.4558 14.1472 21.4687 14.3423 21.4397 14.5334L20.5197 20.5334C20.4715 20.8513 20.31 21.1411 20.0649 21.3494C19.8199 21.5576 19.5079 21.6703 19.1863 21.6667H11.6663M11.6663 14.3334V21.6667M11.6663 14.3334H9.66634C9.31272 14.3334 8.97358 14.4739 8.72353 14.7239C8.47348 14.9739 8.33301 15.3131 8.33301 15.6667V20.3334C8.33301 20.687 8.47348 21.0261 8.72353 21.2762C8.97358 21.5262 9.31272 21.6667 9.66634 21.6667H11.6663" stroke="white" stroke-width="0.666667" stroke-linecap="round" stroke-linejoin="round"/>
<defs>
<linearGradient id="paint0_linear_7601_156584" x1="0.000604554" y1="15.0009" x2="30.0016" y2="15.0009" gradientUnits="userSpaceOnUse">
<stop stop-color="#016DEA"/>
<stop offset="0.334096" stop-color="#005FCD"/>
<stop offset="0.634882" stop-color="#0052B1"/>
<stop offset="1" stop-color="#003B7E"/>
</linearGradient>
</defs>
</svg>
