<svg width="24" height="24" viewBox="0 0 24 24" fill="none" xmlns="http://www.w3.org/2000/svg">
<g clip-path="url(#clip0_22_7123)">
<path d="M3.34107 13.6098H20.6589C20.9101 13.6098 21.1137 13.4062 21.1137 13.1551V2.5935C21.1137 2.34236 20.9101 2.13875 20.6589 2.13875H3.34107C3.08993 2.13875 2.88632 2.34236 2.88632 2.5935V13.1551C2.88632 13.4062 3.08988 13.6098 3.34107 13.6098ZM3.79583 3.04826H20.2042V12.7003H3.79583V3.04826ZM12.9127 17.8247H11.0876C9.59347 17.8247 8.37792 19.0402 8.37792 20.5344V23.1756C8.37792 23.4267 8.58154 23.6303 8.83267 23.6303H15.1674C15.4186 23.6303 15.6222 23.4267 15.6222 23.1756V20.5344C15.6222 19.0402 14.4067 17.8247 12.9127 17.8247ZM14.7127 22.7208H9.28743V20.5344C9.28743 19.5418 10.095 18.7342 11.0876 18.7342H12.9127C13.9052 18.7342 14.7127 19.5418 14.7127 20.5344V22.7208ZM10.308 0.824626C10.308 0.573489 10.5116 0.369873 10.7628 0.369873H13.2372C13.4884 0.369873 13.692 0.573489 13.692 0.824626C13.692 1.07576 13.4884 1.27938 13.2372 1.27938H10.7628C10.5116 1.27938 10.308 1.07576 10.308 0.824626ZM0 16.5125C0 16.2613 0.203616 16.0577 0.454753 16.0577H2.05526C2.05469 16.0482 2.05435 16.0386 2.05435 16.0289C2.05435 15.7778 2.25796 15.5741 2.5091 15.5741H4.98358C5.23472 15.5741 5.43834 15.7778 5.43834 16.0289C5.43834 16.0386 5.43805 16.0482 5.43743 16.0577H10.3088C10.3082 16.0482 10.3079 16.0386 10.3079 16.0289C10.3079 15.7778 10.5115 15.5741 10.7626 15.5741H13.2371C13.4883 15.5741 13.6919 15.7778 13.6919 16.0289C13.6919 16.0386 13.6916 16.0482 13.691 16.0577H18.5625C18.5619 16.0482 18.5615 16.0386 18.5615 16.0289C18.5615 15.7778 18.7652 15.5741 19.0163 15.5741H21.4908C21.7419 15.5741 21.9455 15.7778 21.9455 16.0289C21.9455 16.0386 21.9453 16.0482 21.9446 16.0577H23.545C23.7962 16.0577 23.9998 16.2613 23.9998 16.5125C23.9998 16.7636 23.7962 16.9672 23.545 16.9672H0.454753C0.203616 16.9672 0 16.7636 0 16.5125ZM4.65895 17.8247H2.83385C1.33976 17.8247 0.124204 19.0402 0.124204 20.5344V23.1756C0.124204 23.4267 0.32782 23.6303 0.578958 23.6303H6.91378C7.16492 23.6303 7.36854 23.4267 7.36854 23.1756V20.5344C7.36854 19.0402 6.15304 17.8247 4.65895 17.8247ZM6.45903 22.7208H1.03371V20.5344C1.03371 19.5418 1.84124 18.7342 2.83385 18.7342H4.65895C5.6515 18.7342 6.45903 19.5418 6.45903 20.5344V22.7208ZM21.1663 17.8247H19.3412C17.8471 17.8247 16.6315 19.0402 16.6315 20.5344V23.1756C16.6315 23.4267 16.8351 23.6303 17.0863 23.6303H23.4211C23.6722 23.6303 23.8759 23.4267 23.8759 23.1756V20.5344C23.8759 19.0402 22.6604 17.8247 21.1663 17.8247ZM22.9663 22.7208H17.541V20.5344C17.541 19.5418 18.3486 18.7342 19.3412 18.7342H21.1663C22.1588 18.7342 22.9663 19.5418 22.9663 20.5344V22.7208Z" fill="white"/>
</g>
<defs>
<clipPath id="clip0_22_7123">
<rect width="24" height="24" fill="white"/>
</clipPath>
</defs>
</svg>
