<svg width="16" height="16" viewBox="0 0 16 16" fill="none" xmlns="http://www.w3.org/2000/svg">
<g clip-path="url(#clip0_6496_193395)">
<path d="M7.81607 0.0593748C7.7817 0.09375 7.7192 0.2375 7.67545 0.38125C7.6317 0.521875 7.52545 0.85 7.44107 1.10938L7.29107 1.57812H6.51295C5.82857 1.57812 5.72232 1.58437 5.65045 1.63125C5.55045 1.69687 5.51295 1.84063 5.5692 1.95C5.59107 1.99375 5.88482 2.22812 6.2192 2.47187C6.55357 2.7125 6.8317 2.91562 6.83795 2.92188C6.8442 2.92813 6.74107 3.25937 6.61295 3.65937C6.4817 4.05937 6.37545 4.4125 6.37545 4.44375C6.37545 4.53125 6.5442 4.6875 6.63795 4.6875C6.72232 4.6875 6.8817 4.58438 7.54107 4.1C7.7817 3.925 7.98795 3.78125 8.00045 3.78125C8.01295 3.78125 8.2192 3.925 8.45982 4.1C9.1192 4.58438 9.27857 4.6875 9.36295 4.6875C9.4567 4.6875 9.62545 4.53125 9.62545 4.44375C9.62545 4.4125 9.5192 4.05625 9.38795 3.65625C9.25982 3.25625 9.16295 2.91875 9.17857 2.90625C9.19107 2.89375 9.47232 2.69062 9.80357 2.45312C10.2942 2.1 10.4098 2.00312 10.4379 1.91875C10.4786 1.79375 10.4161 1.64375 10.3067 1.60312C10.2661 1.59063 9.89107 1.57812 9.47232 1.57812H8.70982L8.55982 1.10938C8.47545 0.85 8.3692 0.521875 8.32545 0.38125C8.22857 0.0687499 8.17232 0 8.00045 0C7.9192 0 7.85357 0.0218749 7.81607 0.0593748ZM8.15045 1.59063C8.22232 1.80938 8.30982 2.01562 8.3442 2.04688C8.39732 2.09375 8.46607 2.1 8.89732 2.09687L9.38795 2.09063L9.01607 2.35938C8.50982 2.72187 8.51607 2.70938 8.68482 3.22187C8.7567 3.44375 8.81295 3.6375 8.8067 3.65312C8.80045 3.66875 8.6442 3.56562 8.4567 3.425C8.00357 3.09062 8.00357 3.09062 7.54107 3.43125C7.34732 3.57187 7.18795 3.675 7.18795 3.65625C7.18795 3.6375 7.24732 3.44062 7.3192 3.21875C7.48482 2.70625 7.49107 2.72187 6.98482 2.35938L6.61295 2.09063L7.10357 2.09687C7.53482 2.1 7.60357 2.09375 7.6567 2.04688C7.69107 2.01562 7.77857 1.80938 7.85045 1.59063C7.92232 1.36875 7.99107 1.1875 8.00045 1.1875C8.00982 1.1875 8.07857 1.36875 8.15045 1.59063Z" fill="#016DEA"/>
<path d="M1.80029 1.79065C1.71591 1.85315 1.69091 2.03753 1.68466 2.6094C1.68466 2.90003 1.67216 3.21565 1.66279 3.3094L1.64091 3.48128L0.906539 3.69378C0.381539 3.8469 0.156539 3.92503 0.119039 3.9719C0.040914 4.06253 0.047164 4.25628 0.125289 4.32815C0.159664 4.3594 0.509664 4.50003 0.900289 4.63753L1.60966 4.89065L1.59716 5.69378C1.58466 6.5594 1.58466 6.56878 1.74716 6.62815C1.92216 6.6969 1.97841 6.65003 2.46279 6.0219C2.71591 5.69378 2.93154 5.41565 2.94091 5.40003C2.95029 5.3844 3.27216 5.4844 3.65654 5.62503C4.32216 5.86253 4.46279 5.90003 4.57841 5.85628C4.65341 5.82503 4.72841 5.66253 4.70341 5.5719C4.69404 5.52815 4.50341 5.23128 4.28154 4.90628C4.05966 4.5844 3.86904 4.30003 3.85966 4.27503C3.84716 4.2469 4.02216 3.9969 4.31279 3.62503C4.70341 3.11878 4.78154 3.00315 4.78154 2.91565C4.78154 2.78128 4.66279 2.65628 4.54091 2.65628C4.49404 2.65628 4.13466 2.75003 3.74091 2.86565C3.35029 2.97815 3.02529 3.06565 3.01904 3.0594C3.01279 3.05315 2.82216 2.7719 2.59404 2.43753C2.36591 2.10315 2.15966 1.8094 2.13154 1.78753C2.06591 1.73753 1.87216 1.73753 1.80029 1.79065ZM2.49404 3.25315C2.65966 3.4969 2.76279 3.61878 2.82216 3.63753C2.88779 3.66253 2.99716 3.64065 3.34716 3.54065C3.71904 3.43128 3.77841 3.4219 3.74404 3.46878C3.72216 3.50315 3.60029 3.6594 3.47841 3.8219C3.35341 3.98128 3.24404 4.15628 3.23154 4.20628C3.21591 4.28753 3.25029 4.35628 3.47841 4.69378L3.74404 5.0844L3.32529 4.93128C3.09091 4.85003 2.87841 4.78128 2.85029 4.78128C2.75654 4.78128 2.66591 4.86878 2.39716 5.21878L2.13466 5.5594L2.15029 5.12815C2.15654 4.89065 2.15654 4.6594 2.14404 4.61253C2.11904 4.51253 2.07529 4.49065 1.58466 4.31253L1.18466 4.16878L1.61591 4.0469C2.14716 3.8969 2.18779 3.86565 2.18779 3.58753C2.18779 3.35315 2.22529 2.86878 2.24091 2.8844C2.24716 2.89065 2.35966 3.05628 2.49404 3.25315Z" fill="#016DEA"/>
<path d="M13.8688 1.78781C13.8438 1.80969 13.6344 2.10344 13.4062 2.43781C13.1781 2.77219 12.9875 3.05344 12.9813 3.05968C12.975 3.06594 12.65 2.97844 12.2594 2.86594C11.8656 2.75031 11.5062 2.65656 11.4594 2.65656C11.3375 2.65656 11.2188 2.78156 11.2188 2.91281C11.2188 3.00031 11.3 3.12218 11.6875 3.62218C11.975 3.99406 12.1531 4.24718 12.1406 4.27531C12.1313 4.30031 11.9406 4.58468 11.7188 4.90656C11.4969 5.23156 11.3062 5.52843 11.2969 5.57218C11.2719 5.66281 11.3469 5.82531 11.4219 5.85656C11.5375 5.90031 11.6781 5.86281 12.3438 5.62531C12.7281 5.48468 13.05 5.38468 13.0594 5.40031C13.0688 5.41593 13.2844 5.69406 13.5375 6.02218C14.025 6.65343 14.075 6.69718 14.2594 6.62843C14.4062 6.57218 14.4156 6.51906 14.4031 5.67531L14.3906 4.89093L15.1 4.63781C15.4906 4.50031 15.8406 4.35968 15.875 4.32843C15.9531 4.25656 15.9594 4.06281 15.8844 3.97218C15.8438 3.92531 15.6188 3.84718 15.0938 3.69406L14.3594 3.48156L14.3375 3.30968C14.3281 3.21593 14.3156 2.90031 14.3156 2.60968C14.3094 2.03781 14.2844 1.85344 14.2 1.79094C14.1281 1.73781 13.9313 1.73781 13.8688 1.78781ZM13.8094 3.52531C13.8125 3.87531 13.8344 3.89093 14.3844 4.04718L14.8156 4.16906L14.4156 4.31281C13.925 4.49093 13.8813 4.51281 13.8563 4.61281C13.8438 4.65968 13.8438 4.88781 13.85 5.12843L13.8656 5.55968L13.5969 5.20968C13.4469 5.01906 13.2875 4.84093 13.2438 4.81593C13.1531 4.76281 13.0938 4.77843 12.5094 4.99406L12.2531 5.08781L12.5188 4.69718C12.7531 4.35656 12.7844 4.29093 12.7688 4.20968C12.7563 4.15656 12.6469 3.98156 12.5219 3.82218C12.1687 3.36593 12.1844 3.40031 12.3625 3.45343C12.9781 3.64093 13.0969 3.66906 13.1781 3.63781C13.2375 3.61906 13.3406 3.49406 13.5156 3.23781L13.7656 2.86906L13.7844 3.06906C13.7969 3.17531 13.8063 3.38156 13.8094 3.52531Z" fill="#016DEA"/>
<path d="M7.62559 5.7847C6.15996 5.87533 4.76934 6.64095 3.87559 7.84408C2.74121 9.37533 2.55996 11.4628 3.40996 13.1597C3.91934 14.1785 4.70996 14.9753 5.70371 15.466C6.15996 15.691 6.40371 15.7785 6.89121 15.8941C7.24746 15.9785 7.30371 15.9847 8.00059 15.9816C8.64121 15.9816 8.77559 15.9722 9.04121 15.9128C9.50371 15.8097 9.88184 15.6753 10.2975 15.4691C11.7443 14.7441 12.7506 13.3941 13.0537 11.7722C13.1287 11.3722 13.1287 10.4097 13.0537 10.0097C12.785 8.56595 11.9912 7.37533 10.7725 6.58158C9.86309 5.98783 8.77871 5.71283 7.62559 5.7847ZM8.34121 6.31283C8.99746 6.3722 9.49121 6.5097 10.0443 6.7847C11.3443 7.44095 12.2506 8.6472 12.5193 10.0785C12.6068 10.5347 12.6006 11.341 12.5068 11.7691C12.4225 12.166 12.31 12.5035 12.1537 12.841C11.9475 13.2816 11.4287 14.0128 11.3881 13.916C11.3787 13.8972 11.2912 13.7503 11.1943 13.591C10.9756 13.2316 10.4662 12.7035 10.1131 12.4691C9.83809 12.2878 9.45371 12.0972 9.18184 12.0128L9.00371 11.9597L9.14121 11.8691C9.52559 11.616 9.86309 11.091 9.95371 10.616C10.0131 10.3035 10.0131 10.1191 9.95059 9.8222C9.79746 9.0722 9.23809 8.4847 8.49746 8.29408C8.23496 8.22533 7.76621 8.22533 7.50371 8.29408C6.91934 8.44408 6.41621 8.8722 6.17246 9.41595C5.99434 9.81908 5.95996 10.366 6.08184 10.7816C6.20059 11.191 6.54121 11.6628 6.85996 11.866L6.99746 11.9503L6.71934 12.0503C6.14746 12.2535 5.67871 12.566 5.24434 13.0316C5.03496 13.2535 4.69121 13.7378 4.61309 13.916C4.57246 14.0128 4.05371 13.2816 3.84746 12.841C3.69121 12.5035 3.57871 12.166 3.49434 11.7691C3.40059 11.341 3.39434 10.5347 3.48184 10.0785C3.86621 8.03158 5.55059 6.4972 7.61621 6.31595C7.76621 6.30033 7.91309 6.28783 7.93809 6.2847C7.96309 6.2847 8.14434 6.2972 8.34121 6.31283ZM8.21934 8.78158C9.00059 8.90345 9.57246 9.6847 9.44434 10.4472C9.29746 11.3035 8.46309 11.8535 7.64121 11.641C6.92559 11.4535 6.43809 10.7253 6.55684 10.0191C6.67246 9.3222 7.24746 8.80658 7.96934 8.75345C7.99434 8.75345 8.10684 8.76595 8.21934 8.78158ZM8.34434 12.3753C9.47246 12.5222 10.3943 13.1722 10.9037 14.1816L11.0006 14.3722L10.7256 14.5785C10.4225 14.8066 9.76621 15.1472 9.40371 15.2628C8.51309 15.5472 7.47559 15.5472 6.59434 15.2597C6.22559 15.141 5.57559 14.8035 5.27559 14.5785L5.00059 14.3722L5.12559 14.1285C5.72246 12.9378 7.05996 12.2097 8.34434 12.3753Z" fill="#016DEA"/>
</g>
<defs>
<clipPath id="clip0_6496_193395">
<rect width="16" height="16" fill="white"/>
</clipPath>
</defs>
</svg>
