<svg width="16" height="16" viewBox="0 0 16 16" fill="none" xmlns="http://www.w3.org/2000/svg">
<g clip-path="url(#clip0_4650_61638)">
<path d="M14.3505 0.610687H13.8018C13.816 0.565252 13.8307 0.519817 13.8307 0.469496C13.8307 0.210565 13.6196 0 13.3602 0C13.1008 0 12.8907 0.210565 12.8907 0.469496C12.8907 0.520305 12.9044 0.565252 12.9195 0.610687H11.1217C11.1358 0.565252 11.1505 0.519817 11.1505 0.469496C11.1505 0.210565 10.9394 0 10.68 0C10.4211 0 10.21 0.210565 10.21 0.469496C10.21 0.520305 10.2242 0.565252 10.2393 0.610687H8.44099C8.45516 0.565252 8.46933 0.519817 8.46933 0.469496C8.46884 0.210565 8.25876 0 7.99934 0C7.73992 0 7.52985 0.210565 7.52985 0.469496C7.52985 0.520305 7.54353 0.565252 7.55818 0.610687H5.75983C5.774 0.565252 5.78866 0.519817 5.78866 0.469496C5.78866 0.210565 5.57809 0 5.31916 0C5.05974 0 4.84918 0.210565 4.84918 0.469496C4.84918 0.520305 4.86286 0.565252 4.87751 0.610687H3.07965C3.09431 0.565252 3.10847 0.519817 3.10847 0.469496C3.10847 0.210565 2.8984 0 2.63898 0C2.37956 0 2.16899 0.210565 2.16899 0.469496C2.16899 0.520305 2.18267 0.565252 2.19733 0.610687H1.6482C0.906581 0.610687 0.304688 1.21307 0.304688 1.9542V14.6565C0.304688 15.3981 0.906581 16 1.6482 16H12.8335L15.694 13.1395V1.9542C15.694 1.21307 15.0921 0.610687 14.3505 0.610687ZM11.6713 2.08024L11.8496 2.66699C11.8696 2.73832 11.8946 2.82626 11.9087 2.88977H11.9165C11.9331 2.82626 11.9527 2.73588 11.9698 2.66699L12.1164 2.08024H12.5145L12.236 2.8673C12.0651 3.34217 11.9498 3.53221 11.8164 3.6524C11.6859 3.76476 11.5491 3.80434 11.4573 3.81606L11.3791 3.50046C11.4255 3.49264 11.4842 3.47066 11.5404 3.43695C11.596 3.40714 11.6571 3.34852 11.6933 3.28745C11.7055 3.27035 11.7133 3.25081 11.7133 3.2342C11.7133 3.22198 11.7104 3.20244 11.6962 3.17264L11.2585 2.07976L11.6713 2.08024ZM10.6702 2.08024L10.682 2.30058H10.6922C10.7533 2.12715 10.9004 2.05337 11.0147 2.05337C11.0489 2.05337 11.066 2.05337 11.0928 2.05826V2.40806C11.066 2.40318 11.0342 2.3978 10.9927 2.3978C10.8564 2.3978 10.7626 2.47108 10.7382 2.58638C10.7333 2.61081 10.7308 2.64012 10.7308 2.66992V3.27573H10.359V2.47402C10.359 2.29765 10.3542 2.18284 10.3493 2.07976L10.6702 2.08024ZM9.41418 2.30791C9.29205 2.30791 9.1616 2.34944 9.08392 2.39829L9.01455 2.1589C9.09809 2.11249 9.26176 2.05386 9.47867 2.05386C9.87733 2.05386 10.0044 2.28837 10.0044 2.57026V2.98553C10.0044 3.10082 10.0097 3.21075 10.0215 3.2767H9.68728L9.6653 3.1575H9.65797C9.5798 3.25227 9.45766 3.30406 9.3155 3.30406C9.07415 3.30406 8.92905 3.12818 8.92905 2.93716C8.92905 2.62644 9.2085 2.47744 9.63159 2.47988V2.46278C9.63208 2.3978 9.59739 2.30791 9.41418 2.30791ZM7.51861 2.08024H7.89284V2.72318C7.89284 2.89661 7.94902 3.00165 8.07898 3.00165C8.18157 3.00165 8.2402 2.93081 8.26463 2.87218C8.27489 2.8502 8.27586 2.82089 8.27586 2.79157V2.07976H8.65107V2.89173C8.65107 3.04806 8.65595 3.17508 8.66084 3.27524H8.3384L8.32179 3.10669H8.31446C8.26707 3.17948 8.15519 3.30211 7.93974 3.30211C7.69742 3.30211 7.5191 3.15017 7.5191 2.78131L7.51861 2.08024ZM6.34365 2.08024L6.36075 2.2444H6.36808C6.41742 2.16867 6.53956 2.05337 6.73742 2.05337C6.98169 2.05337 7.16539 2.2146 7.16539 2.56684V3.27573H6.79312V2.61374C6.79312 2.45985 6.73986 2.35432 6.60502 2.35432C6.50243 2.35432 6.44087 2.42565 6.41693 2.49356C6.40667 2.51554 6.40179 2.55267 6.40179 2.58638V3.27573H6.03049V2.4618C6.03049 2.31231 6.0256 2.18577 6.02023 2.08024H6.34365ZM5.08563 2.30791C4.96301 2.30791 4.83354 2.34944 4.75537 2.39829L4.68698 2.1589C4.77003 2.11249 4.9337 2.05386 5.1511 2.05386C5.54927 2.05386 5.67678 2.28837 5.67678 2.57026V2.98553C5.67678 3.10082 5.68215 3.21075 5.69388 3.2767H5.35873L5.33675 3.1575H5.32942C5.25125 3.25227 5.12863 3.30406 4.98695 3.30406C4.74463 3.30406 4.6005 3.12818 4.6005 2.93716C4.6005 2.62644 4.87898 2.47744 5.30255 2.47988V2.46278C5.30304 2.3978 5.26884 2.30791 5.08563 2.30791ZM3.51641 2.96256C3.56771 2.97966 3.63366 2.99237 3.70744 2.99237C3.86377 2.99237 3.96197 2.92153 3.96197 2.66455V1.62785H4.33376V2.66992C4.33376 3.13942 4.10902 3.30308 3.74701 3.30308C3.66151 3.30308 3.54915 3.28843 3.47586 3.264L3.51641 2.96256ZM14.9612 12.8357L14.8092 12.9876H13.6587C13.1203 12.9876 12.6816 13.4263 12.6816 13.9647V15.1152L12.5297 15.2672H1.6482C1.31159 15.2672 1.03751 14.9931 1.03751 14.6565V4.39695H14.9612V12.8357Z" fill="#016DEA"/>
<path d="M4.96875 2.89954C4.96875 2.99481 5.03226 3.04122 5.11531 3.04122C5.20814 3.04122 5.28435 2.98015 5.30878 2.90491C5.31415 2.88488 5.31611 2.8629 5.31611 2.84091V2.71096C5.11971 2.709 4.96875 2.75542 4.96875 2.89954Z" fill="#016DEA"/>
<path d="M9.29688 2.89954C9.29688 2.99481 9.36039 3.04122 9.44393 3.04122C9.53626 3.04122 9.61248 2.98015 9.63691 2.90491C9.64179 2.88488 9.64521 2.8629 9.64521 2.84091V2.71096C9.44881 2.709 9.29688 2.75542 9.29688 2.89954Z" fill="#016DEA"/>
<path d="M7.70624 11.9216C7.00371 11.9216 6.36469 11.6934 5.91082 11.4448L5.58594 12.7106C5.99681 12.949 6.70032 13.1444 7.42533 13.1762V14.2041H8.48548V13.1009C9.72933 12.8845 10.4109 12.0618 10.4109 11.0994C10.4109 10.1257 9.89201 9.53014 8.60517 9.0753C7.68475 8.72892 7.30661 8.50125 7.30661 8.1451C7.30661 7.84171 7.53281 7.5393 8.23632 7.5393C9.01507 7.5393 9.51192 7.78797 9.79382 7.90717L10.1075 6.68482C9.75131 6.51188 9.26276 6.36043 8.53873 6.32769V5.376H7.47907V6.40342C6.3212 6.6306 5.6514 7.37759 5.6514 8.32928C5.6514 9.37918 6.44041 9.92049 7.59876 10.3089C8.39852 10.58 8.74392 10.8395 8.74392 11.2513C8.74392 11.6837 8.32328 11.9216 7.70624 11.9216Z" fill="#016DEA"/>
</g>
<defs>
<clipPath id="clip0_4650_61638">
<rect width="16" height="16" fill="white"/>
</clipPath>
</defs>
</svg>
