<svg width="50" height="50" viewBox="0 0 50 50" fill="none" xmlns="http://www.w3.org/2000/svg">
<g clip-path="url(#clip0_6862_198013)">
<path d="M10.4002 1.07434C8.01742 1.59192 6.02523 2.66614 4.34554 4.34582C2.5975 6.09387 1.48421 8.22278 1.02523 10.6935C0.771323 12.0118 0.859214 14.463 1.20101 15.7325C2.33382 20.0392 5.49789 23.213 9.83382 24.3849C10.7225 24.629 10.9276 24.6486 12.7928 24.6486C14.658 24.6486 14.8631 24.629 15.7518 24.3849C20.0877 23.213 23.2127 20.0782 24.3944 15.7325C24.6287 14.8634 24.6483 14.6486 24.6483 12.7931C24.6483 10.9376 24.6287 10.7228 24.3944 9.85364C23.2127 5.50793 20.0584 2.34387 15.7518 1.20129C14.9315 0.986448 14.5506 0.947386 13.0369 0.918089C11.5721 0.888792 11.1327 0.918089 10.4002 1.07434ZM14.7362 2.50012C18.8768 3.24231 22.2948 6.65051 23.0858 10.84C23.2811 11.8654 23.2811 13.7208 23.0858 14.7462C22.2948 18.9357 18.9354 22.2853 14.7362 23.0958C13.6815 23.2911 11.9041 23.2911 10.8494 23.0958C6.65023 22.2853 3.29085 18.9357 2.49984 14.7462C2.30453 13.7111 2.30453 11.8654 2.49984 10.84C3.35921 6.27942 7.285 2.72473 11.8651 2.3634C12.9393 2.27551 13.6717 2.31457 14.7362 2.50012Z" fill="#016DEA"/>
<path d="M11.0847 3.7498C7.22725 4.50175 4.26826 7.57792 3.70186 11.4256C3.54561 12.49 3.64326 14.1795 3.90694 15.1756C4.74678 18.3299 7.25655 20.8396 10.4108 21.6795C11.3972 21.9432 13.0964 22.0408 14.1413 21.8846C17.7351 21.3572 20.7429 18.6814 21.6999 15.1365C22.0222 13.9451 22.0222 11.6502 21.6999 10.4685C20.821 7.24589 18.3601 4.76542 15.1765 3.90605C14.1901 3.63261 12.0808 3.55449 11.0847 3.7498ZM14.3366 5.23417C17.9011 5.9666 20.5085 9.15996 20.5085 12.7928C20.5085 17.0115 17.0124 20.5076 12.7937 20.5076C9.16084 20.5076 5.96748 17.9002 5.23506 14.3357C4.2585 9.60917 7.89131 5.12675 12.7253 5.08769C13.194 5.07792 13.9167 5.14628 14.3366 5.23417Z" fill="#016DEA"/>
<path d="M12.4414 6.87527C12.1191 7.01198 12.0117 7.24636 12.0117 7.79323C12.0117 8.04714 11.9629 8.12527 11.748 8.20339C10.2637 8.73073 9.49218 10.137 9.90233 11.5432C10.2246 12.6467 11.2207 13.3889 12.6172 13.5647C13.5058 13.6721 13.9746 13.9163 14.209 14.4143C14.3945 14.8147 14.3457 15.1956 14.043 15.5764C13.75 15.9475 13.3594 16.1135 12.7637 16.1135C12.2851 16.1135 12.168 16.0647 11.709 15.7229C11.3476 15.4495 11.084 15.3323 10.8691 15.3323C10.459 15.3323 10.1562 15.6253 10.1562 16.0354C10.1562 16.4358 10.8301 17.0901 11.582 17.3928C12.0996 17.6077 12.1094 17.6175 12.1094 18.0178C12.1094 18.6135 12.5293 18.926 13.0664 18.7405C13.3887 18.6331 13.5742 18.301 13.5742 17.8323C13.5742 17.5491 13.6133 17.5003 13.8476 17.4514C14.3262 17.3538 15.0683 16.7678 15.4004 16.221C15.8008 15.5471 15.8984 14.8635 15.6836 14.1116C15.3711 13.0667 14.1113 12.1096 13.0078 12.1096C12.4219 12.1096 11.9726 11.9339 11.6406 11.5921C11.0058 10.9378 11.2012 10.1565 12.1094 9.68777C12.7734 9.34597 13.4766 9.51198 14.2383 10.1663C14.6191 10.4983 14.9219 10.5276 15.2734 10.2444C15.6152 9.97097 15.6152 9.50222 15.2734 9.09206C15.0586 8.83816 14.1992 8.34011 13.6523 8.16433C13.5156 8.12527 13.4766 7.99831 13.4766 7.63698C13.4766 6.93386 13.0371 6.62136 12.4414 6.87527Z" fill="#016DEA"/>
<path d="M40.9375 12.8613C40.5859 13.1641 38.8672 16.2695 38.8672 16.5918C38.8672 17.002 39.1699 17.2852 39.5898 17.2852C40.0098 17.2852 40.0977 17.1777 41.2402 15.1758C42.1484 13.6035 42.2461 13.2422 41.8945 12.8906C41.6504 12.6465 41.2012 12.6367 40.9375 12.8613Z" fill="#016DEA"/>
<path d="M29.9121 13.2617C28.8281 13.6523 28.1543 14.3261 27.8711 15.3222C27.666 16.0058 27.7246 16.9922 28.0078 17.539L28.2129 17.9394L27.8613 18.5547C26.3281 21.3281 23.2715 24.7363 19.9512 27.373C19.0625 28.0859 18.916 28.164 18.5352 28.1738C18.1738 28.1738 17.7832 28.3691 15.8203 29.4922C13.9062 30.5957 13.418 30.9179 12.8418 31.4941C11.6699 32.6465 11.1328 33.9648 11.1328 35.664C11.1328 37.4121 11.6211 38.584 12.832 39.7949C14.0527 41.0058 15.2734 41.5039 16.9922 41.5039C18.0078 41.5039 18.8281 41.3281 19.6191 40.9179L20.166 40.6445L23.1934 44.7168C26.5137 49.1699 26.4746 49.1211 27.4707 49.1211C28.0859 49.1211 28.4082 48.9355 29.3457 48.0664C30.166 47.2949 30.3711 46.9433 30.3711 46.2793C30.3711 45.6543 30.3223 45.5664 28.8281 43.5644L27.8516 42.2558L28.3301 41.875C28.916 41.416 29.1016 41.1328 29.1699 40.6445C29.2578 40.0195 29.043 39.5801 27.9688 38.1445C27.4121 37.3926 26.9824 36.748 27.0215 36.709C27.1484 36.5918 29.2383 35.957 30.5176 35.6445C32.8516 35.0781 35.1172 34.7656 36.9629 34.7656C37.8809 34.7656 37.9785 34.7851 38.0371 34.9511C38.1348 35.2832 39.1211 36.1035 39.6094 36.2695C40.2637 36.4941 41.2793 36.4746 41.9434 36.2207C42.5879 35.9863 43.2422 35.3613 43.5547 34.6972C43.8379 34.1015 43.916 33.0371 43.7207 32.4219C43.6523 32.1777 42.8516 30.7129 41.9629 29.1601C41.0645 27.6172 40.332 26.3379 40.332 26.3183C40.332 26.2988 40.5469 26.0742 40.8203 25.8203C41.084 25.5762 41.4258 25.1172 41.5723 24.8144C41.8164 24.3262 41.8457 24.1601 41.8457 23.291C41.8457 22.4219 41.8164 22.2558 41.5723 21.7578C41.2207 21.0351 40.4102 20.2929 39.668 20.0195C38.9844 19.7558 37.8516 19.7265 37.2168 19.9609C36.9824 20.0488 36.7773 20.1172 36.7676 20.1172C36.748 20.1172 36.0254 18.8769 35.1465 17.3535C34.2773 15.8398 33.418 14.414 33.2324 14.1894C32.5293 13.3105 30.9863 12.8808 29.9121 13.2617ZM31.5039 14.7363C31.7285 14.834 32.0215 15.0683 32.1484 15.2441C32.2852 15.4297 34.6289 19.4433 37.3535 24.1699C42.7832 33.5742 42.6172 33.2324 42.1973 34.0527C41.6992 35.039 40.4785 35.2929 39.668 34.5898C39.4824 34.4238 37.4414 30.9765 34.4434 25.7812C31.7383 21.084 29.4434 17.0996 29.3555 16.9238C28.9453 16.1133 29.3262 15.1465 30.2246 14.7363C30.7227 14.5117 30.9961 14.5117 31.5039 14.7363ZM33.1445 26.4941C35.2734 30.1855 37.0117 33.2226 37.0117 33.2519C37.0117 33.2812 36.7773 33.3008 36.5039 33.3008C33.5059 33.3008 28.8379 34.3457 24.9609 35.8789L23.6523 36.3965L21.7188 33.0273C20.6445 31.1816 19.7754 29.6094 19.7754 29.5508C19.7754 29.4824 20.3223 28.9844 20.9961 28.4472C24.0234 26.0156 26.6797 23.1738 28.3984 20.5371C28.8965 19.7558 29.0723 19.5605 29.1602 19.6582C29.2188 19.7168 31.0156 22.7929 33.1445 26.4941ZM39.4336 21.5527C39.6582 21.6797 39.9707 21.9726 40.1172 22.1875C40.3418 22.539 40.3809 22.6953 40.3809 23.3008C40.3809 23.9355 40.3516 24.0429 40.0781 24.4336C39.9023 24.6582 39.707 24.8633 39.6289 24.8828C39.5508 24.8926 39.1211 24.248 38.4961 23.1738L37.5 21.4355L37.8613 21.3183C38.3398 21.1621 38.916 21.25 39.4336 21.5527ZM20.459 33.8183C21.6211 35.8496 22.5684 37.5195 22.5488 37.539C22.5293 37.5586 21.6504 38.0664 20.6055 38.6621C18.3691 39.9414 17.998 40.0781 16.748 40.0195C15.9375 39.9902 15.7617 39.9414 15.0977 39.6191C13.3789 38.7695 12.5293 37.3242 12.6172 35.4004C12.6465 34.5996 12.6953 34.414 13.0078 33.7793C13.5449 32.6953 14.1016 32.2168 16.2598 30.9668C17.666 30.1562 18.1445 29.9219 18.2227 30.0097C18.2812 30.0781 19.2871 31.7871 20.459 33.8183ZM26.6406 38.8574C27.2363 39.6777 27.7344 40.3808 27.7344 40.4297C27.7344 40.5078 26.9531 41.0547 26.9141 40.9961C26.6602 40.6933 24.5801 37.832 24.5508 37.7539C24.5117 37.6367 25.2539 37.2949 25.4395 37.3437C25.498 37.3535 26.0352 38.0371 26.6406 38.8574ZM26.2109 42.5488C27.6953 44.5508 28.9062 46.2402 28.9062 46.3183C28.9062 46.4941 27.6074 47.6562 27.4121 47.6562C27.2559 47.6562 21.4355 39.9609 21.5234 39.873C21.6992 39.6875 23.3984 38.789 23.4473 38.8476C23.4863 38.8867 24.7266 40.5469 26.2109 42.5488Z" fill="#016DEA"/>
<path d="M46.63 17.6855C45.5656 18.252 43.6906 19.375 43.5831 19.5117C43.3585 19.7852 43.4269 20.2734 43.7101 20.498C43.8566 20.6152 44.0617 20.7031 44.1691 20.7031C44.3839 20.7031 47.4015 19.0039 47.6749 18.7207C47.9484 18.457 47.8996 17.9297 47.5968 17.6855C47.2746 17.4316 47.1183 17.4316 46.63 17.6855Z" fill="#016DEA"/>
<path d="M44.2871 25.1465C44.1504 25.2734 44.043 25.498 44.043 25.6348C44.043 25.7715 44.1504 25.9961 44.2871 26.123C44.5215 26.3672 44.5215 26.3672 46.6309 26.3672C48.6035 26.3672 48.7402 26.3574 48.9258 26.1719C49.0527 26.0449 49.1211 25.8496 49.1211 25.5957C49.1211 24.9316 49.0039 24.9023 46.6016 24.9023C44.5215 24.9023 44.5215 24.9023 44.2871 25.1465Z" fill="#016DEA"/>
</g>
<defs>
<clipPath id="clip0_6862_198013">
<rect width="50" height="50" fill="white"/>
</clipPath>
</defs>
</svg>
