<svg width="17" height="17" viewBox="0 0 17 17" fill="none" xmlns="http://www.w3.org/2000/svg">
<g clip-path="url(#clip0_53_8189)">
<path d="M6.3921 0.571571C5.84523 0.759071 5.43585 1.17157 5.27023 1.71532C5.2171 1.88095 5.20773 2.00282 5.20773 2.47157V3.02782L3.60773 3.0372L2.0046 3.04657L1.7546 3.13407C1.3421 3.2747 1.0671 3.44657 0.751475 3.7622C0.43585 4.07782 0.263975 4.35282 0.120225 4.76532L0.0358495 5.01532L0.0264745 9.06845C0.0170995 13.4591 0.0139745 13.3185 0.18585 13.7497C0.301475 14.031 0.44835 14.2622 0.67335 14.506C1.0296 14.8935 1.43585 15.131 1.93897 15.2497C2.1921 15.3122 2.30147 15.3122 5.12023 15.306L8.03898 15.2966L8.15148 15.2216C8.33273 15.0966 8.40773 14.956 8.42023 14.7216C8.43585 14.4497 8.34835 14.2747 8.1296 14.1403L7.9796 14.0466L5.10148 14.031C2.73273 14.0185 2.2046 14.0091 2.11398 13.9716C1.77335 13.8341 1.47647 13.531 1.35147 13.1935C1.28897 13.0185 1.28585 12.956 1.27647 10.5372L1.2671 8.0622H4.3296H7.38898L7.40148 8.5997C7.41085 9.09345 7.4171 9.15282 7.48585 9.29032C7.53273 9.38407 7.6046 9.47157 7.68585 9.5247C7.79523 9.59657 7.84523 9.60907 8.05148 9.60907C8.32335 9.60907 8.44835 9.54657 8.58585 9.3497C8.65773 9.24345 8.66085 9.2122 8.67023 8.6497L8.6796 8.0622H11.7077H14.7327L14.7452 8.79032L14.7546 9.52157L14.8484 9.67157C14.9827 9.89032 15.1577 9.97782 15.4296 9.9622C15.6577 9.9497 15.7921 9.8747 15.9327 9.68095L16.0046 9.57782L16.014 7.42157C16.0202 5.54345 16.0171 5.23407 15.9734 5.01532C15.7984 4.15282 15.1765 3.45595 14.3077 3.14345L14.0359 3.04657L12.4359 3.0372L10.8327 3.02782V2.51532C10.8327 2.23407 10.8171 1.92782 10.7984 1.8372C10.6734 1.24032 10.1609 0.702822 9.5671 0.546572C9.41398 0.509071 9.1421 0.499697 7.98898 0.499697C6.63273 0.502821 6.5921 0.502821 6.3921 0.571571ZM9.33585 1.8372C9.52335 1.9497 9.55148 2.05282 9.55148 2.5747V3.03095H8.00148H6.45148L6.46398 2.56845C6.47335 2.2122 6.48898 2.0872 6.5296 2.00907C6.5921 1.89032 6.69523 1.81532 6.8421 1.77782C6.89523 1.76532 7.4546 1.75595 8.08273 1.75907C9.20773 1.76532 9.22335 1.76532 9.33585 1.8372ZM13.8734 4.3497C14.0765 4.42157 14.3421 4.60595 14.4577 4.7497C14.5109 4.81532 14.5921 4.95282 14.639 5.05282C14.7234 5.23407 14.7234 5.24032 14.7327 6.00595L14.7421 6.78095H8.0046H1.27022V6.19345C1.27022 5.87157 1.28585 5.50907 1.30147 5.39032C1.38272 4.83407 1.81085 4.39345 2.34835 4.31532C2.45148 4.2997 5.03898 4.29032 8.1296 4.29345C13.2859 4.29657 13.7359 4.30282 13.8734 4.3497Z" fill="white"/>
<path d="M11.708 9.69056C11.3923 9.72181 10.9298 9.86556 10.6548 10.0187C9.84234 10.4718 9.29546 11.3031 9.21109 12.2062C9.16421 12.7374 9.24546 13.2218 9.45796 13.6781C9.81109 14.4343 10.383 14.9343 11.208 15.2062C11.4548 15.2874 11.5111 15.2937 11.9892 15.2937C12.5861 15.2937 12.8236 15.2437 13.2548 15.0312L13.5017 14.9062L14.2548 15.6499C14.708 16.1031 15.0517 16.4156 15.1267 16.4499C15.2955 16.5281 15.5892 16.5093 15.7423 16.4062C15.9142 16.2906 15.9986 16.1468 16.0142 15.9374C16.0392 15.6124 16.0205 15.5874 15.1892 14.7499L14.4267 13.9812L14.5517 13.7343C14.7611 13.3093 14.8142 13.0624 14.8142 12.4843C14.8173 12.0218 14.8111 11.9624 14.7267 11.7031C14.3017 10.3593 13.1048 9.55931 11.708 9.69056ZM12.4423 11.0218C13.108 11.2281 13.5517 11.8156 13.5517 12.4906C13.5517 13.7093 12.1861 14.4499 11.1798 13.7781C10.3486 13.2218 10.2392 12.0781 10.9548 11.3937C11.3673 11.0031 11.9267 10.8624 12.4423 11.0218Z" fill="white"/>
</g>
<defs>
<clipPath id="clip0_53_8189">
<rect width="16" height="16" fill="white" transform="translate(0.0200195 0.5)"/>
</clipPath>
</defs>
</svg>
