<svg width="16" height="16" viewBox="0 0 16 16" fill="none" xmlns="http://www.w3.org/2000/svg">
<g clip-path="url(#clip0_6496_193554)">
<path d="M7.375 0.0473633C6.42813 0.259863 5.64063 0.906738 5.29063 1.75674C5.11563 2.18799 5.0875 2.34424 5.06563 3.09424C5.04688 3.76299 5.04375 3.80361 4.975 3.88799C4.86563 4.02861 4.8 4.29111 4.825 4.50986C4.87188 4.95674 5.16875 5.29736 5.60625 5.40986C5.72188 5.43799 5.75313 5.45986 5.76875 5.52861C5.825 5.77549 5.85938 5.88174 5.95 6.07861C6.075 6.34424 6.29375 6.64111 6.48438 6.79424L6.625 6.90986V7.21299V7.51611L5.2875 8.03174C3.61875 8.67549 3.53438 8.71611 3.2 9.05049C2.99375 9.25361 2.91563 9.35986 2.81563 9.56924C2.59063 10.038 2.59375 9.99111 2.59375 12.9255C2.59375 15.538 2.59375 15.5442 2.65938 15.6817C2.70625 15.7724 2.775 15.8505 2.86875 15.9099L3.0125 16.0005H4.28125H5.55313L5.61875 15.9286C5.70938 15.8317 5.70938 15.688 5.61563 15.6005C5.55 15.5411 5.50938 15.5317 5.24063 15.5317H4.9375V13.1755C4.9375 10.9192 4.93438 10.8161 4.87813 10.7474C4.8 10.6505 4.61875 10.6474 4.52188 10.7442L4.45313 10.8161L4.44375 13.1755L4.4375 15.5349L3.79375 15.5255C3.26563 15.5192 3.15 15.5067 3.125 15.4692C3.08125 15.4005 3.08438 10.3942 3.12813 10.1817C3.20313 9.81924 3.4875 9.40361 3.8 9.19736C3.95 9.09736 5.575 8.43799 5.66563 8.43799C5.6875 8.43799 5.87813 8.78486 6.09375 9.20986C6.35938 9.73486 6.5125 10.0005 6.56875 10.0442C6.6875 10.1317 6.92813 10.1286 7.05 10.0411L7.14375 9.97549L7.22813 10.1099L7.31563 10.2474L6.97188 12.2911C6.78125 13.413 6.625 14.388 6.625 14.4567C6.625 14.6161 6.67813 14.6942 7.0875 15.1411L7.42813 15.5161L6.91875 15.5255C6.4125 15.5317 6.40938 15.5349 6.34688 15.6161C6.2625 15.7192 6.2625 15.813 6.34688 15.9192L6.40938 16.0005H9.7H12.9875L13.1313 15.9099C13.225 15.8505 13.2938 15.7724 13.3406 15.6817C13.4031 15.5474 13.4063 15.5067 13.4063 14.3255C13.4031 13.3786 13.3969 13.0974 13.3625 13.0567C13.2563 12.9161 13.0094 12.9317 12.9406 13.0817C12.9188 13.1349 12.9063 13.513 12.9063 14.2911C12.9063 14.9474 12.8938 15.4411 12.875 15.4692C12.85 15.5067 12.7344 15.5192 12.2063 15.5255L11.5625 15.5349L11.5563 13.1755L11.5469 10.8161L11.4781 10.7442C11.3813 10.6474 11.2 10.6505 11.1219 10.7474C11.0656 10.8161 11.0625 10.9192 11.0625 13.1755V15.5317H9.80938H8.55625L8.81563 15.2474C9.3625 14.6474 9.375 14.6317 9.375 14.4505C9.375 14.388 9.21875 13.4161 9.02813 12.2942L8.68125 10.2505L8.76875 10.113L8.85625 9.97549L8.95 10.0411C9.07188 10.1286 9.3125 10.1317 9.43125 10.0442C9.4875 10.0005 9.64063 9.73486 9.90625 9.20986C10.1219 8.78486 10.3125 8.43799 10.3313 8.43799C10.4094 8.43799 11.9938 9.07236 12.1531 9.16611C12.4844 9.36299 12.7906 9.79736 12.8719 10.1817C12.8938 10.2817 12.9063 10.713 12.9063 11.263C12.9063 12.1442 12.9094 12.1817 12.9719 12.263C13.0625 12.3786 13.25 12.3786 13.3406 12.263C13.4031 12.1817 13.4063 12.1442 13.4063 11.2442C13.4063 10.1974 13.3813 9.98799 13.2063 9.60986C13.0219 9.21299 12.6313 8.82236 12.2281 8.63174C12.1281 8.58486 11.4438 8.31299 10.7125 8.03174L9.375 7.51611V7.19736V6.87549L9.51875 6.74424C9.81875 6.46924 10.0688 6.02861 10.1563 5.61924C10.1969 5.44424 10.1969 5.44424 10.3406 5.40674C10.825 5.28486 11.125 4.90986 11.125 4.42236C11.125 4.21299 11.0344 3.91299 10.9531 3.84424C10.9156 3.81299 10.9063 3.71299 10.9063 3.36299C10.9063 2.55986 10.8344 2.14736 10.625 1.69736C10.3281 1.06299 9.93438 0.644238 9.33438 0.328613C8.88438 0.0911131 8.62188 0.0254879 8.0625 0.0129881C7.71563 0.00361347 7.52188 0.0129881 7.375 0.0473633ZM8.55 0.562988C9.2875 0.753613 9.85313 1.22549 10.1688 1.91299C10.3219 2.24424 10.375 2.50674 10.3969 3.00049L10.4156 3.43799H10.3313C10.2781 3.43799 10.2406 3.41611 10.2313 3.38174C10.1813 3.21924 10.1 3.10674 9.8 2.78174C9.28125 2.21924 9.22188 2.20674 8.66563 2.51611C7.94375 2.91611 7.30313 3.08799 6.46875 3.10674C5.9875 3.11924 5.89063 3.15049 5.79688 3.32236C5.75625 3.40049 5.7125 3.43486 5.65 3.44424L5.5625 3.45986V3.05674C5.5625 2.55049 5.62188 2.25674 5.79375 1.89111C6.11875 1.20049 6.73438 0.706738 7.45313 0.547363C7.75 0.481738 8.25938 0.487988 8.55 0.562988ZM9.44688 3.15361L9.71875 3.45049V4.35674C9.71875 5.01611 9.70625 5.32236 9.675 5.47236C9.5375 6.12236 9.02188 6.64424 8.36563 6.79736C7.82188 6.92549 7.22188 6.76611 6.80625 6.38174C6.56875 6.15986 6.43125 5.95049 6.325 5.63486C6.24063 5.39736 6.24063 5.36611 6.225 4.50049L6.2125 3.60986L6.56563 3.60361C7.35 3.59424 8.15938 3.37549 8.85938 2.98486C8.99688 2.90986 9.125 2.85049 9.14063 2.85361C9.15938 2.85674 9.29688 2.99111 9.44688 3.15361ZM5.75 4.43799V4.93799L5.67188 4.90674C5.525 4.85049 5.44063 4.77549 5.375 4.64424C5.3 4.48174 5.29688 4.38174 5.36563 4.23486C5.4125 4.13486 5.65313 3.93799 5.725 3.93799C5.7375 3.93799 5.75 4.16299 5.75 4.43799ZM10.4063 4.00674C10.4625 4.04736 10.5344 4.12861 10.5656 4.18799C10.6844 4.40674 10.6125 4.69424 10.4063 4.83486C10.2219 4.96299 10.2188 4.95674 10.2188 4.42236C10.2188 3.88799 10.2219 3.88174 10.4063 4.00674ZM7.41563 7.27236C7.68438 7.34424 8.29375 7.34736 8.54688 7.27549C8.65 7.24424 8.76563 7.21299 8.80625 7.20049C8.87188 7.18174 8.875 7.18799 8.875 7.37549V7.57236L8.45 8.10049C8.2125 8.39111 8.00938 8.62236 7.99375 8.61924C7.975 8.61299 7.775 8.37549 7.54375 8.09424L7.125 7.57861V7.37861C7.125 7.21299 7.13438 7.18486 7.17188 7.20049C7.2 7.20986 7.30938 7.24111 7.41563 7.27236ZM7.22813 8.51299C7.45 8.78486 7.61875 9.01611 7.60313 9.02861C7.51875 9.10361 6.8375 9.56924 6.83125 9.55986C6.825 9.55361 6.67188 9.25049 6.49063 8.88799L6.1625 8.23174L6.44688 8.11924C6.60625 8.05674 6.75313 8.00674 6.77813 8.00986C6.80313 8.01299 7.00625 8.23799 7.22813 8.51299ZM9.525 8.11299C9.68125 8.17236 9.8125 8.22861 9.8125 8.23799C9.8125 8.24424 9.66563 8.54736 9.48438 8.90674L9.15625 9.56611L9.00625 9.46299C8.65313 9.22236 8.39063 9.02549 8.39063 9.00361C8.39063 8.96611 9.16875 8.00361 9.20313 8.00361C9.22188 8.00049 9.36563 8.05049 9.525 8.11299ZM8.20625 9.51924C8.31563 9.59736 8.4125 9.67236 8.41875 9.68486C8.42813 9.69736 8.4 9.75986 8.35625 9.82236L8.27813 9.93799H8H7.71875L7.63438 9.80986C7.56563 9.70361 7.55938 9.67861 7.59688 9.65674C7.61875 9.64111 7.71875 9.57236 7.8125 9.50361C7.90625 9.43486 7.9875 9.37861 7.99375 9.37549C8 9.37549 8.09375 9.44111 8.20625 9.51924ZM8.52813 12.3505C8.70625 13.4036 8.85625 14.3005 8.86563 14.3442C8.875 14.4099 8.80313 14.5036 8.45 14.8911C8.21563 15.1474 8.0125 15.3599 8 15.3599C7.97813 15.3599 7.475 14.8192 7.17813 14.4786C7.12188 14.413 7.12813 14.363 7.45 12.4599C7.63125 11.388 7.78125 10.4942 7.78125 10.4724C7.78125 10.4505 7.85313 10.438 7.99375 10.438H8.20625L8.52813 12.3505Z" fill="#016DEA"/>
</g>
<defs>
<clipPath id="clip0_6496_193554">
<rect width="16" height="16" fill="white"/>
</clipPath>
</defs>
</svg>
