<svg width="24" height="24" viewBox="0 0 24 24" fill="none" xmlns="http://www.w3.org/2000/svg">
<g clip-path="url(#clip0_22_7304)">
<path d="M5.9531 0.445309C5.34373 0.581247 4.85623 0.815622 4.27029 1.26093C4.07341 1.40625 3.81091 1.56562 3.67966 1.61718C3.3281 1.74375 3.00466 1.96875 2.73279 2.26406C2.26404 2.77968 2.0531 3.46406 2.14685 4.14843C2.19373 4.4625 2.25935 4.64062 2.55466 5.24062C2.74685 5.63437 2.90623 5.96719 2.90623 5.98125C2.90623 5.99062 2.84998 6 2.77966 6C2.57341 6.00469 2.2406 6.20156 2.07654 6.41719C1.74373 6.84844 1.74373 7.40156 2.07654 7.83281C2.25935 8.07187 2.5781 8.24531 2.84529 8.25H3.03748L3.1406 8.5875C3.4031 9.44531 3.94685 10.1766 4.70154 10.6781L4.87966 10.7953L4.8656 11.2594L4.85154 11.7281L3.08435 12.4641C2.10935 12.8719 1.2281 13.2656 1.12498 13.3359C0.890602 13.4953 0.703102 13.7297 0.529665 14.0672L0.398415 14.3203L0.384352 17.1891C0.37029 20.0203 0.374977 20.0625 0.468727 20.1562C0.55779 20.2453 0.618727 20.25 1.96873 20.25H3.37498V21.8437C3.37498 23.3766 3.37966 23.4422 3.46873 23.5312C3.56248 23.625 3.62342 23.625 12 23.625C20.3765 23.625 20.4375 23.625 20.5312 23.5312C20.6203 23.4422 20.625 23.3766 20.625 21.8437V20.25H22.0312C23.3812 20.25 23.4422 20.2453 23.5312 20.1562C23.625 20.0625 23.6297 20.0203 23.6156 17.1891L23.6015 14.3203L23.4609 14.0437C23.3062 13.7391 22.9594 13.3594 22.7203 13.2328C22.6359 13.1906 21.8015 12.8344 20.8594 12.4406L19.1484 11.7281L19.1344 11.2687L19.125 10.8047L19.5094 10.5234C20.1422 10.0594 20.6203 9.37031 20.8594 8.5875L20.9625 8.25H21.1547C21.4125 8.25 21.7828 8.03437 21.9515 7.79531C22.2281 7.39687 22.2234 6.825 21.9375 6.43125C21.7969 6.23906 21.3937 6 21.2015 6C21.1406 6 21.0937 5.98594 21.0937 5.96719C21.0937 5.94844 21.1875 5.70937 21.3047 5.4375C21.614 4.69687 21.6703 4.43437 21.6469 3.82031C21.614 3.00937 21.3469 2.38125 20.8125 1.82812C20.475 1.48125 20.1844 1.29843 19.3594 0.928122C18.2953 0.445309 18.1078 0.398434 17.2734 0.398434C16.7437 0.398434 16.4953 0.421872 16.2656 0.482809C15.8109 0.609372 15.2625 0.890622 14.8125 1.22812C14.5922 1.39218 14.3109 1.56562 14.1797 1.61718C13.8281 1.74375 13.5047 1.96875 13.2328 2.26406C12.7125 2.83593 12.5203 3.58125 12.689 4.40625L12.7125 4.52343H12.0609C11.7047 4.52343 11.3531 4.5375 11.2734 4.55625L11.1328 4.58437V3.94687C11.1281 3.375 11.114 3.26718 11.0062 2.9625C10.8281 2.47031 10.6172 2.1375 10.2469 1.76718C9.96091 1.48125 9.84373 1.40625 9.16404 1.07343C8.74685 0.871872 8.2031 0.637497 7.96404 0.557809C7.57029 0.421872 7.4531 0.407809 6.8906 0.393747C6.45466 0.379684 6.16404 0.398434 5.9531 0.445309ZM7.44373 1.24218C7.78123 1.32187 9.00466 1.85625 9.33279 2.06718C9.79216 2.3625 10.1203 2.81718 10.289 3.39843C10.439 3.90468 10.3078 4.82343 10.0594 4.99687C10.0078 5.03437 9.78279 5.19843 9.56248 5.35781C9.34216 5.52187 9.06091 5.69062 8.92966 5.74219C7.83279 6.15 7.18591 7.29844 7.42029 8.41875C7.46716 8.63437 7.60779 8.98125 7.82341 9.4125C8.00623 9.77812 8.15623 10.0875 8.15623 10.1016C8.15623 10.1156 8.02966 10.125 7.87498 10.125C7.19998 10.125 6.74998 10.575 6.74998 11.25C6.74998 11.6109 6.8531 11.8594 7.08279 12.0797C7.31248 12.3 7.53748 12.375 7.9406 12.375H8.28748L8.3906 12.7125C8.63435 13.5187 9.17341 14.2547 9.85779 14.7281L10.1297 14.9109L10.1156 15.3656L10.1015 15.8203L7.31248 16.5937C5.3531 17.1375 4.4531 17.4094 4.29373 17.5031C3.96091 17.6953 3.71248 17.9719 3.54841 18.3187C3.42185 18.5859 3.39373 18.6984 3.38435 19.0641L3.3656 19.5H2.2406H1.12029L1.13435 17.0719C1.14841 14.4094 1.14373 14.4562 1.44373 14.1422C1.61716 13.9547 1.7156 13.9125 3.72654 13.0734C4.70623 12.6656 5.53591 12.2953 5.56873 12.2484C5.62966 12.1641 5.6531 10.4906 5.59685 10.3406C5.5781 10.2984 5.41873 10.1672 5.23123 10.05C4.4531 9.54844 3.98435 8.87344 3.82029 8.00625C3.7406 7.57031 3.6656 7.5 3.31873 7.5C2.82185 7.5 2.61091 7.33125 2.6906 7.00312C2.73279 6.84844 2.96716 6.75 3.30466 6.75C3.67966 6.75 3.74998 6.66562 3.74998 6.21094C3.74998 5.86406 3.7406 5.84531 3.39841 5.15156C2.95779 4.275 2.8781 3.98906 2.9531 3.58593C3.06091 3.00468 3.43591 2.56875 3.99841 2.36718C4.17654 2.30156 4.46248 2.13281 4.7156 1.94062C5.1656 1.60312 5.63435 1.35468 6.04685 1.24687C6.38435 1.15781 7.07341 1.15312 7.44373 1.24218ZM17.9437 1.24218C18.2812 1.32187 19.5047 1.85625 19.8328 2.06718C20.4562 2.46562 20.8594 3.20156 20.8594 3.9375C20.8594 4.34062 20.775 4.64062 20.489 5.29218C20.2172 5.90625 20.1797 6.05625 20.2265 6.35625C20.2687 6.66094 20.3765 6.75 20.6953 6.75C21.0328 6.75 21.2672 6.84844 21.3094 7.00312C21.389 7.33125 21.1781 7.5 20.6812 7.5C20.3297 7.5 20.264 7.56562 20.1703 8.025C19.9875 8.91562 19.5656 9.525 18.7687 10.05C18.525 10.2094 18.389 10.3312 18.3703 10.4062C18.314 10.6031 18.3234 11.9719 18.3797 12.1359C18.4078 12.2156 18.4875 12.3141 18.5578 12.3469C18.6234 12.3844 19.4297 12.7219 20.3437 13.1016C22.2328 13.8891 22.3828 13.9547 22.5562 14.1422C22.8562 14.4562 22.8515 14.4094 22.8656 17.0719L22.8797 19.5H21.7594H20.6344L20.6156 19.0687C20.6062 18.6984 20.5781 18.5859 20.4515 18.3187C20.2875 17.9719 19.9734 17.6344 19.6687 17.4703C19.5609 17.4187 18.2203 17.0203 16.6875 16.5937L13.8984 15.8156L13.8844 15.3656L13.8703 14.9109L14.1422 14.7281C14.8265 14.2547 15.3656 13.5187 15.6094 12.7125L15.7125 12.375H16.0594C16.4625 12.375 16.6875 12.3 16.9172 12.0797C17.1469 11.8594 17.25 11.6109 17.25 11.25C17.25 10.575 16.8 10.125 16.125 10.125C15.9703 10.125 15.8437 10.1109 15.8437 10.0922C15.8437 10.0734 15.9375 9.83437 16.0547 9.5625C16.364 8.82187 16.4203 8.55937 16.3969 7.94531C16.364 7.13437 16.0969 6.50625 15.5625 5.95312C15.239 5.62031 14.9297 5.41875 14.2828 5.12812C13.7953 4.9125 13.7672 4.89375 13.6594 4.67812C13.4578 4.27968 13.3875 3.92343 13.4531 3.58593C13.5609 3.00468 13.9359 2.56875 14.4984 2.36718C14.6765 2.30156 14.9625 2.13281 15.2156 1.94062C15.6656 1.60312 16.1344 1.35468 16.5469 1.24687C16.8844 1.15781 17.5734 1.15312 17.9437 1.24218ZM12.7547 5.38593C13.1484 5.48906 14.3297 6.01406 14.6344 6.225C15.2344 6.6375 15.6094 7.34531 15.6094 8.0625C15.6094 8.38125 15.5156 8.82187 15.4031 9.0375C15.3375 9.15937 15.3375 9.15937 15.1265 8.73281C15.0094 8.49844 14.8781 8.29687 14.8359 8.27812C14.6156 8.19375 14.4562 8.25 14.0156 8.57812C13.2422 9.14531 12.75 9.32812 12 9.32812C11.25 9.32812 10.7578 9.14531 9.98435 8.57812C9.53435 8.24531 9.35154 8.18437 9.14998 8.29219C9.10779 8.31562 8.97654 8.52656 8.85935 8.76094C8.74685 8.99531 8.63904 9.1875 8.62498 9.1875C8.56873 9.1875 8.25466 8.47031 8.2031 8.22656C8.0906 7.725 8.33435 7.09687 8.7656 6.75469C9.08904 6.50156 9.38904 6.40781 9.83435 6.42656C10.3828 6.45469 10.8281 6.70781 11.2031 7.20937L11.3203 7.36406L11.639 7.14844C11.8125 7.03125 11.9531 6.91875 11.9531 6.9C11.9531 6.82969 11.5312 6.3375 11.3344 6.17344C11.2219 6.07969 10.9828 5.93437 10.8094 5.85469L10.4859 5.70469L10.7109 5.59218C11.2734 5.30156 12.1078 5.22187 12.7547 5.38593ZM10.3359 9.75469C10.8844 10.0219 11.339 10.125 12 10.125C12.8484 10.125 13.6265 9.88125 14.2359 9.41719L14.4844 9.23437L14.7469 9.75937L15.014 10.2891L14.9859 11.1797C14.9672 11.7703 14.9297 12.1641 14.8828 12.3516C14.6531 13.1906 14.0625 13.9125 13.289 14.2922C11.8312 15.0047 10.0594 14.3859 9.33279 12.9141C9.09841 12.4359 9.04216 12.15 9.01404 11.1797L8.98591 10.2891L9.2531 9.75937L9.5156 9.22969L9.7406 9.39844C9.85779 9.49219 10.1297 9.65156 10.3359 9.75469ZM8.24998 11.25V11.625H8.08591C7.83279 11.625 7.6031 11.5125 7.5656 11.3719C7.4906 11.0719 7.68748 10.8797 8.07654 10.875H8.24998V11.25ZM16.2422 10.9406C16.4156 11.0156 16.4859 11.1656 16.4344 11.3719C16.3969 11.5125 16.1672 11.625 15.914 11.625H15.75V11.25V10.875H15.914C16.0078 10.875 16.1531 10.9031 16.2422 10.9406ZM11.25 15.3234C11.6672 15.4172 12.6234 15.3797 13.0453 15.2531C13.1156 15.2297 13.125 15.2672 13.125 15.5719V15.9141L12.5625 16.4766L12 17.0391L11.4375 16.4766L10.875 15.9141V15.5719C10.875 15.2672 10.8844 15.2297 10.9594 15.2531C11.0015 15.2672 11.1328 15.3 11.25 15.3234ZM11.0859 17.2969C11.7844 17.9859 11.7984 18 12 18C12.2015 18 12.2156 17.9859 12.9187 17.2875L13.6359 16.5797L16.0406 17.2453C17.3625 17.6109 18.6281 17.9672 18.8578 18.0328C19.3359 18.1734 19.575 18.3562 19.7437 18.6937C19.8515 18.9141 19.8515 18.9281 19.8656 20.8922L19.8797 22.875H18.7547H17.625V21.375V19.875H17.25H16.875V21.375V22.875H12H7.12498V21.375V19.875H6.74998H6.37498V21.375V22.875H5.24529H4.12029L4.13435 20.8969C4.14841 18.9281 4.14841 18.9141 4.25623 18.6937C4.42498 18.3469 4.66873 18.1734 5.17029 18.0281C6.05154 17.7703 10.2469 16.6031 10.3125 16.5984C10.35 16.5984 10.6969 16.9078 11.0859 17.2969Z" fill="white"/>
</g>
<defs>
<clipPath id="clip0_22_7304">
<rect width="24" height="24" fill="white"/>
</clipPath>
</defs>
</svg>
