<svg width="16" height="16" viewBox="0 0 16 16" fill="none" xmlns="http://www.w3.org/2000/svg">
<path d="M12.6667 2.66666H3.33333C2.59695 2.66666 2 3.26362 2 4V13.3333C2 14.0697 2.59695 14.6667 3.33333 14.6667H12.6667C13.403 14.6667 14 14.0697 14 13.3333V4C14 3.26362 13.403 2.66666 12.6667 2.66666Z" stroke="#016DEA" stroke-linecap="round" stroke-linejoin="round"/>
<path d="M10.667 1.33334V4" stroke="#016DEA" stroke-width="2" stroke-linecap="round" stroke-linejoin="round"/>
<path d="M5.33301 1.33334V4" stroke="#016DEA" stroke-width="2" stroke-linecap="round" stroke-linejoin="round"/>
<path d="M2 6.66666H14" stroke="#016DEA" stroke-linecap="round" stroke-linejoin="round"/>
<path d="M4 9L7 9" stroke="#016DEA" stroke-linecap="round" stroke-linejoin="round"/>
<path d="M4 10.3333L7 10.3333" stroke="#016DEA" stroke-linecap="round" stroke-linejoin="round"/>
<path d="M4 11.6667L7 11.6667" stroke="#016DEA" stroke-linecap="round" stroke-linejoin="round"/>
<path d="M10.4769 8.5L11.0877 9.73752L12.4537 9.93718L11.4653 10.8999L11.6986 12.26L10.4769 11.6175L9.25516 12.26L9.48843 10.8999L8.5 9.93718L9.86601 9.73752L10.4769 8.5Z" fill="#016DEA"/>
</svg>
