<svg width="16" height="17" viewBox="0 0 16 17" fill="none" xmlns="http://www.w3.org/2000/svg">
<g clip-path="url(#clip0_8969_118336)">
<path d="M9.15237 14.5C9.03516 14.7021 8.86693 14.8698 8.66452 14.9864C8.46211 15.1029 8.23262 15.1643 7.99904 15.1643C7.76545 15.1643 7.53596 15.1029 7.33355 14.9864C7.13114 14.8698 6.96291 14.7021 6.8457 14.5" stroke="#AAA9AD" stroke-linecap="round" stroke-linejoin="round"/>
<path d="M12.4196 9.16658C12.123 8.08086 11.9816 6.95861 11.9996 5.83325" stroke="#AAA9AD" stroke-linecap="round" stroke-linejoin="round"/>
<path d="M4.17333 4.67334C4.05751 5.04908 3.99907 5.44015 4 5.83334C4 10.5 2 11.8333 2 11.8333H11.3333" stroke="#AAA9AD" stroke-linecap="round" stroke-linejoin="round"/>
<path d="M11.9993 5.83333C12.0004 5.1087 11.8046 4.3974 11.4329 3.77539C11.0611 3.15338 10.5274 2.64403 9.88871 2.30175C9.25002 1.95948 8.53035 1.79712 7.80656 1.83204C7.08278 1.86696 6.38208 2.09783 5.7793 2.5" stroke="#AAA9AD" stroke-linecap="round" stroke-linejoin="round"/>
<path d="M0.666016 1.16675L15.3327 15.8334" stroke="#AAA9AD" stroke-linecap="round" stroke-linejoin="round"/>
</g>
<defs>
<clipPath id="clip0_8969_118336">
<rect width="16" height="16" fill="white" transform="translate(0 0.5)"/>
</clipPath>
</defs>
</svg>
