<svg width="50" height="50" viewBox="0 0 50 50" fill="none" xmlns="http://www.w3.org/2000/svg">
<g clip-path="url(#clip0_6862_197920)">
<path d="M17.0321 0.859367C16.1728 2.0703 16.2509 3.35937 17.1884 4.29687C17.8525 4.96093 18.4775 5.07812 21.8759 5.07812C25.4696 5.07812 25.7821 5.15624 25.7821 5.8203C25.7821 6.24999 25.4306 6.71874 25.0009 6.83593C23.9853 7.14843 23.0478 8.98437 23.0478 10.625C23.0478 11.6406 22.7743 12.1094 21.7196 12.8125C18.4775 15.0391 17.1884 18.5547 17.1884 25.2734V29.6875H11.915C6.79777 29.6875 6.56339 29.7266 5.66495 30.6641C4.92276 31.3672 4.68839 32.0312 4.68839 33.3984C4.68839 34.6484 4.33683 35.7812 3.43839 37.3828C2.42276 39.1406 2.18839 40.0391 2.18839 41.9531C2.14933 44.9609 3.39933 47.6562 5.39152 49.0234L6.83683 50H25.8603H44.8837L45.4696 49.1406C45.8603 48.5547 46.0946 47.3828 46.0946 45.8203C46.0946 44.4922 46.6415 37.6172 47.2665 30.5859C48.7509 14.6484 49.1415 15.8594 42.2665 15.7031L37.54 15.5859L36.7196 14.4531C36.2509 13.8281 35.3915 13.0078 34.7665 12.6172C33.829 12.0703 33.5946 11.6797 33.5946 10.625C33.5946 8.98437 32.6571 7.14843 31.6415 6.83593C30.7431 6.56249 30.5868 5.15624 31.4071 4.84374C32.4228 4.45312 32.9306 2.53905 32.3446 1.28905L31.8368 0.195305L24.7275 0.0781174C17.7743 -7.62939e-06 17.6181 -7.62939e-06 17.0321 0.859367ZM33.2431 14.2187L34.9618 15.3906L33.6728 15.7031C31.4462 16.2891 31.4462 16.5625 32.7743 31.0937C33.4384 38.3594 33.9853 45.1562 33.9853 46.1719V48.0469H29.8837H25.7431L26.6415 46.875C28.4384 44.4141 27.9306 38.0859 25.7821 36.1328C25.1571 35.5859 25.0009 34.9219 25.0009 33.2031C25.0009 30.4687 24.5712 30 21.6415 29.7656L19.5321 29.6094V24.5312C19.5321 19.7266 19.6103 19.3359 20.5868 17.5C21.5243 15.7812 23.5946 13.9062 25.3915 13.1641C25.704 13.0078 27.2275 12.9687 28.7509 13.0078C31.0556 13.0859 31.7978 13.2812 33.2431 14.2187ZM46.0165 18.8281L46.1337 19.9219H40.04C33.6728 19.9219 33.1259 19.7656 33.7509 18.1641C33.9462 17.6562 34.8837 17.5781 39.9228 17.6562L45.8993 17.7734L46.0165 18.8281ZM45.8603 23.125C45.665 24.7266 44.1415 41.5234 44.1415 42.3828C44.1415 42.8516 43.4775 42.9687 40.079 42.9687H36.0165L35.7821 41.0937C35.665 40.0781 35.2743 36.1719 34.9618 32.4219C34.6493 28.6719 34.2587 24.7656 34.1415 23.7109L33.9071 21.875H39.9618H46.0556L45.8603 23.125ZM23.0478 33.3984V34.7656H17.4228C12.6571 34.7656 11.7587 34.8437 11.5634 35.3906C11.4462 35.7422 11.4071 36.1719 11.5634 36.3672C11.6806 36.5625 14.454 36.7187 17.7353 36.7187H23.7118L24.7275 38.6328C26.0165 40.9766 26.0946 43.3984 24.9618 45.3125C23.3603 48.0078 23.2821 48.0469 15.0009 48.0469C7.93058 48.0469 7.46183 48.0078 6.4462 47.1875C4.18058 45.4297 3.6337 41.6016 5.1962 38.6328C6.01652 37.1484 6.32902 36.875 7.65714 36.7187C8.86808 36.5625 9.18058 36.3672 9.18058 35.7422C9.18058 35.1953 8.86808 34.9219 8.12589 34.8437C7.14933 34.7266 7.03214 34.5312 7.03214 33.3594V32.0312H15.04H23.0478V33.3984Z" fill="#016DEA"/>
<path d="M8.47656 40.0783C8.32031 40.2345 8.20312 40.7033 8.20312 41.0939C8.20312 41.758 8.59375 41.797 14.9609 41.7189C21.3672 41.6017 21.6797 41.5626 21.6797 40.8205C21.6797 40.0783 21.3672 40.0392 15.1953 39.922C11.6406 39.883 8.63281 39.9611 8.47656 40.0783Z" fill="#016DEA"/>
</g>
<defs>
<clipPath id="clip0_6862_197920">
<rect width="50" height="50" fill="white"/>
</clipPath>
</defs>
</svg>
