<svg width="24" height="24" viewBox="0 0 24 24" fill="none" xmlns="http://www.w3.org/2000/svg">
<path d="M11.5 15H8C6.93913 15 5.92172 15.4214 5.17157 16.1716C4.42143 16.9217 4 17.9391 4 19V21" stroke="white" stroke-linecap="round" stroke-linejoin="round"/>
<path d="M19.2222 13.8H13.7778C13.3482 13.8 13 14.1582 13 14.6V20.2C13 20.6419 13.3482 21 13.7778 21H19.2222C19.6518 21 20 20.6419 20 20.2V14.6C20 14.1582 19.6518 13.8 19.2222 13.8Z" stroke="white" stroke-linecap="round" stroke-linejoin="round"/>
<path d="M18.0554 13V14.6" stroke="white" stroke-linecap="round" stroke-linejoin="round"/>
<path d="M14.9446 13V14.6" stroke="white" stroke-linecap="round" stroke-linejoin="round"/>
<path d="M13 16.2002H20" stroke="white" stroke-linecap="round" stroke-linejoin="round"/>
<path d="M12 11C14.2091 11 16 9.20914 16 7C16 4.79086 14.2091 3 12 3C9.79086 3 8 4.79086 8 7C8 9.20914 9.79086 11 12 11Z" stroke="white" stroke-linecap="round" stroke-linejoin="round"/>
</svg>
