<svg width="16" height="16" viewBox="0 0 16 16" fill="none" xmlns="http://www.w3.org/2000/svg">
<g clip-path="url(#clip0_6496_193233)">
<path d="M7.20312 0.0216341C5.575 0.215384 4.22813 0.759134 3.01562 1.71226C2.7 1.96226 2.03125 2.62476 1.76562 2.95601C1.03438 3.85913 0.49375 4.94976 0.21875 6.06851C0.040625 6.79351 0.015625 7.03413 0.015625 7.98413C0.015625 8.90288 0.034375 9.09976 0.178125 9.74976C0.7375 12.2904 2.5875 14.4779 4.99062 15.4341C5.99688 15.8341 6.88125 15.9998 8 15.9998C8.98125 15.9998 9.675 15.8904 10.5906 15.5873C11.15 15.3998 11.9187 15.0279 12.3906 14.7123C13.3688 14.056 14.2719 13.1248 14.8594 12.156C15.5719 10.9873 16 9.50601 16 8.21851C16 7.79038 15.9719 7.70913 15.7937 7.59038C15.6719 7.50913 15.4 7.50913 15.2688 7.59038C15.0906 7.70288 15.0594 7.79663 15.0281 8.33726C15.0156 8.60601 14.9812 8.96226 14.9531 9.12476C14.7656 10.256 14.3125 11.3154 13.6156 12.2466C13.3281 12.631 12.6313 13.3279 12.2469 13.6154C11.2406 14.3685 10.0375 14.8529 8.81563 14.9998C8.44063 15.0435 7.55938 15.0435 7.19688 14.9998C5.94375 14.8466 4.76562 14.3716 3.75312 13.6154C3.36875 13.3279 2.67188 12.631 2.38438 12.2466C1.61875 11.2248 1.14375 10.0341 0.996875 8.77476C0.9375 8.25288 0.975 7.22788 1.075 6.70913C1.56875 4.12476 3.44062 2.03413 5.95 1.26226C6.62813 1.05288 7.2375 0.965384 7.99688 0.965384C8.84062 0.965384 9.45625 1.06538 10.2594 1.33413C10.8906 1.54351 12.0969 2.17476 12.0094 2.24976C11.9969 2.26226 11.8562 2.28726 11.6969 2.30601C11.5406 2.32476 11.3656 2.36226 11.3125 2.39038C11.0281 2.53726 11.0156 3.05288 11.2937 3.22163C11.4281 3.30288 11.5656 3.29663 12.5563 3.17163C13.4812 3.05601 13.5563 3.03413 13.6687 2.84038C13.7438 2.71538 13.7406 2.58101 13.6469 1.54351C13.5844 0.868509 13.5656 0.743509 13.5063 0.649759C13.325 0.359134 12.8719 0.368509 12.6844 0.662259C12.625 0.756009 12.6219 0.796634 12.6375 1.11538L12.6562 1.46851L12.3531 1.26851C11.3594 0.618509 10.2 0.196634 9 0.0466337C8.64688 0.00288391 7.4875 -0.0127411 7.20312 0.0216341Z" fill="#016DEA"/>
<path d="M3.75356 5.84976C3.67544 5.89039 3.58794 5.95601 3.55669 5.99976C3.52544 6.04351 3.19731 6.87164 2.82544 7.84351C2.10044 9.73726 2.07856 9.81851 2.20669 9.99039C2.31294 10.131 2.42544 10.1966 2.59106 10.2123C2.77856 10.2279 2.91606 10.181 2.99731 10.0654C3.03169 10.0185 3.10981 9.84664 3.17231 9.67789L3.29106 9.37476H4.00044H4.71294L4.79731 9.59976C5.00356 10.1498 5.07856 10.231 5.38481 10.2091C5.57544 10.1966 5.68169 10.1404 5.79419 9.99039C5.92231 9.81851 5.89731 9.73101 5.20669 7.90601C4.85356 6.96851 4.53481 6.14351 4.49731 6.06851C4.36606 5.81226 4.01919 5.70914 3.75356 5.84976ZM4.18481 7.96851C4.27231 8.19976 4.33794 8.39351 4.33169 8.39664C4.32544 8.40289 4.17231 8.40289 3.99419 8.39976L3.66606 8.39039L3.80044 8.03101C3.95981 7.60914 3.99731 7.51851 4.01294 7.53414C4.02231 7.54039 4.09731 7.73726 4.18481 7.96851Z" fill="#016DEA"/>
<path d="M8.00662 5.8435C7.20974 6.056 6.57849 6.7185 6.40349 7.52163C6.34724 7.77788 6.35349 8.28725 6.41912 8.531C6.54099 8.99975 6.82849 9.44975 7.19099 9.73413C7.58162 10.0373 7.96287 10.1779 8.46912 10.2091C9.06287 10.2404 9.57849 10.0498 9.95662 9.64975C10.3316 9.25288 10.5222 8.78725 10.5535 8.18725C10.5691 7.87788 10.566 7.85288 10.4972 7.75288C10.3347 7.5185 10.3254 7.51538 9.56287 7.51538C8.91912 7.51538 8.87537 7.5185 8.79099 7.581C8.49412 7.79975 8.48787 8.20288 8.77849 8.39663C8.87224 8.45913 8.92224 8.4685 9.20974 8.4685C9.53474 8.4685 9.53474 8.4685 9.51287 8.53725C9.38787 8.9435 9.05974 9.21225 8.65662 9.2435C8.02849 9.28725 7.46287 8.82788 7.34099 8.17788C7.24724 7.6685 7.55662 7.10288 8.05349 6.86538C8.25037 6.77163 8.29099 6.76538 8.59412 6.76538C8.91912 6.76538 8.92537 6.76538 9.18787 6.90288C9.41912 7.02163 9.47224 7.03725 9.60349 7.02163C9.68787 7.01538 9.79412 6.981 9.83787 6.94663C10.0222 6.81225 10.0847 6.52163 9.97537 6.31225C9.90037 6.17475 9.61599 5.99663 9.28787 5.88413C8.95662 5.77163 8.35037 5.74975 8.00662 5.8435Z" fill="#016DEA"/>
<path d="M11.8156 5.81226C11.6719 5.84663 11.5562 5.93726 11.4938 6.06538C11.4406 6.16226 11.4375 6.32163 11.4375 8.01226C11.4375 9.84351 11.4375 9.84976 11.5063 9.97163C11.55 10.0498 11.6219 10.1154 11.7031 10.156C11.8219 10.2123 11.8969 10.2185 12.6594 10.2185C13.5812 10.2185 13.6344 10.2091 13.7719 10.0029C13.925 9.77476 13.8375 9.42788 13.5938 9.30601C13.5031 9.25913 13.3969 9.24976 12.9469 9.24976H12.4062V8.87788V8.50601L12.9188 8.49351C13.3813 8.48413 13.4406 8.47788 13.5187 8.41851C13.6594 8.31538 13.7281 8.19976 13.7406 8.04038C13.7563 7.85601 13.6844 7.70288 13.5344 7.60288C13.4344 7.53413 13.3969 7.53101 12.9188 7.53101H12.4062V7.14038V6.74976H12.9563C13.575 6.74976 13.6719 6.72476 13.7812 6.54663C13.8625 6.41538 13.8656 6.15601 13.7906 6.02476C13.7594 5.97476 13.6844 5.90288 13.625 5.86538C13.5219 5.79976 13.4781 5.79663 12.7188 5.79038C12.2812 5.78726 11.875 5.79663 11.8156 5.81226Z" fill="#016DEA"/>
</g>
<defs>
<clipPath id="clip0_6496_193233">
<rect width="16" height="16" fill="white"/>
</clipPath>
</defs>
</svg>
