<svg width="16" height="16" viewBox="0 0 16 16" fill="none" xmlns="http://www.w3.org/2000/svg">
<g clip-path="url(#clip0_6513_194325)">
<path d="M3.725 0.0504885C3.59063 0.119238 3.47813 0.256738 3.4375 0.400488C3.42188 0.462988 3.40625 0.778613 3.40625 1.09736V1.68174L2.4 1.69424C1.45 1.70674 1.37813 1.71299 1.1875 1.77861C0.915625 1.87236 0.7375 1.97861 0.534375 2.16924C0.315625 2.37549 0.178125 2.59424 0.078125 2.88486L0 3.12236V8.85049C0 14.0317 0.00625 14.6005 0.05 14.7536C0.225 15.3349 0.665625 15.7755 1.24688 15.9505C1.40313 15.9942 2.0375 16.0005 8 16.0005C13.9625 16.0005 14.5969 15.9942 14.7531 15.9505C15.3344 15.7755 15.775 15.3349 15.95 14.7536C15.9938 14.6005 16 14.0317 16 8.85049V3.12236L15.9219 2.88486C15.7406 2.35049 15.3562 1.96924 14.8125 1.77861C14.6219 1.71299 14.55 1.70674 13.6031 1.69424L12.5969 1.68174L12.5875 1.03486C12.5781 0.316113 12.5656 0.262988 12.3531 0.103613C12.25 0.0254879 12.2125 0.0161133 12 0.0161133C11.7875 0.0161133 11.75 0.0254879 11.6469 0.103613C11.4344 0.262988 11.4219 0.312988 11.4125 1.03799L11.4031 1.68799H8H4.59688L4.5875 1.03799C4.57812 0.316113 4.56563 0.262988 4.35625 0.103613C4.20937 -0.0057621 3.89062 -0.0338879 3.725 0.0504885ZM3.40625 3.45986C3.40625 3.78486 3.42188 4.10049 3.4375 4.16299C3.525 4.46924 3.84375 4.64736 4.15938 4.56299C4.33125 4.51611 4.5125 4.33799 4.55938 4.17236C4.57812 4.10049 4.59375 3.79111 4.59375 3.45986V2.87549H8H11.4062V3.45986C11.4062 3.79111 11.4219 4.10049 11.4406 4.17236C11.4875 4.33799 11.6687 4.51611 11.8406 4.56299C12.1562 4.64736 12.475 4.46924 12.5625 4.16299C12.5781 4.10049 12.5938 3.78486 12.5938 3.45986V2.87549H13.4938C14.525 2.87549 14.5813 2.88799 14.7406 3.12861L14.8281 3.26299L14.8375 4.47549L14.8469 5.68799H8H1.15313L1.1625 4.47549L1.17188 3.26299L1.25937 3.12861C1.41875 2.88799 1.475 2.87549 2.50938 2.87549H3.40625V3.45986ZM14.8375 10.6661L14.8281 14.4567L14.7438 14.5849C14.6938 14.6599 14.6062 14.738 14.525 14.7786L14.3875 14.8442H8H1.6125L1.475 14.7786C1.39375 14.738 1.30625 14.6599 1.25625 14.5849L1.17188 14.4567L1.1625 10.6661L1.15625 6.87549H8H14.8438L14.8375 10.6661Z" fill="#016DEA"/>
<path d="M11.1718 8.04401C11.1218 8.06901 10.128 9.03776 8.96867 10.2003L6.8593 12.3128L5.89055 11.344C4.8968 10.3534 4.8093 10.2815 4.57805 10.2815C4.45305 10.2815 4.26555 10.3503 4.17805 10.4315C4.01555 10.5784 3.95305 10.894 4.04367 11.1034C4.09992 11.2315 6.51867 13.644 6.6343 13.6878C6.7593 13.7315 6.9843 13.7284 7.10305 13.6753C7.1593 13.6503 8.20305 12.6315 9.5843 11.2471C12.1874 8.63464 12.0312 8.81589 11.9905 8.48151C11.9718 8.31589 11.8499 8.14714 11.6874 8.05964C11.5593 7.99089 11.3093 7.98464 11.1718 8.04401Z" fill="#016DEA"/>
</g>
<defs>
<clipPath id="clip0_6513_194325">
<rect width="16" height="16" fill="white"/>
</clipPath>
</defs>
</svg>
