<svg width="24" height="24" viewBox="0 0 24 24" fill="none" xmlns="http://www.w3.org/2000/svg">
<path d="M6.25781 0.0890369C5.81719 0.206224 5.55937 0.304662 5.25 0.478099C4.22344 1.05466 3.49687 2.04841 3.2625 3.19685C3.19687 3.51091 3.1875 4.09216 3.1875 7.55622V11.5547L3.29531 11.7422C3.54844 12.1922 4.17656 12.2765 4.56562 11.9156C4.8375 11.6578 4.82812 11.8265 4.82812 7.6031C4.82812 3.38904 4.82344 3.4781 5.09062 2.92966C5.35781 2.3906 5.91562 1.91716 6.50625 1.73435C6.79687 1.64529 6.95156 1.6406 12 1.6406C17.0484 1.6406 17.2031 1.64529 17.4937 1.73435C18.0844 1.91716 18.6422 2.3906 18.9094 2.92966C19.1672 3.45466 19.1719 3.52966 19.1719 6.07029C19.1719 8.25466 19.1812 8.4281 19.2609 8.60622C19.3922 8.89216 19.5984 9.01872 19.9687 9.03747C20.2266 9.05154 20.2969 9.03747 20.4328 8.94372C20.5219 8.88747 20.6391 8.77497 20.6906 8.70466C20.7891 8.57341 20.7891 8.53591 20.7891 5.93904C20.7891 3.33279 20.7891 3.29997 20.6812 2.93435C20.2687 1.50466 19.1578 0.431224 17.7516 0.0937244C17.3812 0.00466196 17.1844 -2.55361e-05 11.9766 0.00466196C6.94219 0.00466196 6.5625 0.014037 6.25781 0.0890369Z" fill="white"/>
<path d="M8.78887 3.60923C7.8748 3.77329 7.13418 4.4436 6.87168 5.33892C6.77324 5.67173 6.77324 6.32798 6.87168 6.66079C7.10137 7.43423 7.67793 8.03892 8.44199 8.30142C8.86387 8.44673 9.51543 8.44673 9.94668 8.30142C10.5936 8.08579 11.0857 7.65454 11.3811 7.04048C12.0045 5.73267 11.3436 4.15767 9.97012 3.70767C9.62793 3.59517 9.11699 3.55298 8.78887 3.60923ZM9.57168 5.32485C9.73574 5.40923 9.87637 5.59673 9.94668 5.81704C10.0967 6.33267 9.55762 6.88579 9.0373 6.74985C8.42793 6.5811 8.23574 5.8686 8.68574 5.44673C8.92949 5.21704 9.26699 5.17017 9.57168 5.32485Z" fill="white"/>
<path d="M15.1359 9.55775C14.2125 9.75932 13.1344 10.4531 12.9141 10.9874C12.7219 11.4421 13.05 12.014 13.5375 12.0796C13.8656 12.1218 14.0437 12.0609 14.3391 11.7937C15.0562 11.1609 15.9234 10.964 16.7578 11.2499C17.1891 11.3999 17.4516 11.6015 18.3281 12.4546L19.1391 13.2468L19.0406 13.5421C18.7641 14.3624 18.0094 15.0046 17.1562 15.1406C16.9875 15.164 16.3687 15.1874 15.7734 15.1874H14.7L13.0078 13.5093C11.6766 12.1781 11.2453 11.7796 10.9687 11.6109C10.3031 11.2031 9.63281 11.0156 8.83594 11.0156C8.00625 11.0156 7.24219 11.2406 6.60469 11.6765C6.23437 11.9296 4.03125 14.0812 3.90937 14.3062C3.87187 14.3765 3.84375 14.5546 3.84375 14.7093C3.84375 15.0562 3.975 15.2671 4.4625 15.7312C4.96406 16.2093 5.475 16.4953 6.1875 16.7015C6.53906 16.8046 6.55312 16.8046 11.8078 16.8187C17.6062 16.8328 17.5266 16.8374 18.2719 16.5468C19.1484 16.2093 19.9594 15.4734 20.3906 14.6249C20.7 14.0203 20.8641 13.2046 20.7703 12.764C20.7094 12.4921 20.7047 12.4874 19.6734 11.4562C18.3422 10.1296 17.9672 9.86713 17.0531 9.60932C16.5516 9.464 15.6703 9.44057 15.1359 9.55775ZM9.44531 12.7593C9.54844 12.7828 9.78281 12.8812 9.96094 12.9749C10.2375 13.1156 10.4578 13.3124 11.3203 14.1656L12.3516 15.1874L9.5625 15.1781C6.81562 15.164 6.76875 15.164 6.50156 15.0609C6.35156 15.0046 6.13125 14.9015 6.01406 14.8312L5.80312 14.7093L6.52031 13.9828C6.91875 13.5796 7.36406 13.1765 7.51406 13.0734C8.08125 12.7031 8.775 12.5859 9.44531 12.7593Z" fill="white"/>
<path d="M4.47194 18.8859C3.99851 19.1718 3.91413 19.8 4.29382 20.1843C4.58913 20.475 4.96413 20.4843 5.26413 20.2078C5.46101 20.0297 5.53132 19.8656 5.53132 19.5797C5.53132 19.0031 4.93132 18.6047 4.47194 18.8859Z" fill="white"/>
<path d="M6.83906 18.9047C6.58594 19.0734 6.46875 19.289 6.46875 19.5797C6.46875 19.7203 6.49687 19.889 6.53437 19.9594C6.62812 20.1375 6.83906 20.3203 7.02656 20.3859C7.24219 20.4562 19.1109 20.4609 19.3734 20.3859C19.7531 20.2828 20.0109 19.8328 19.9219 19.4344C19.8703 19.2094 19.7531 19.0453 19.5469 18.9L19.3922 18.7969H13.1953H6.99844L6.83906 18.9047Z" fill="white"/>
<path d="M4.43916 22.425C4.20479 22.5094 4.08291 22.6219 3.97979 22.8516C3.80635 23.2266 3.92354 23.6625 4.25166 23.8781L4.43448 24L9.6376 23.9906L14.836 23.9766L14.986 23.8641C15.436 23.5266 15.3985 22.7906 14.9157 22.4906L14.7423 22.3828L9.67979 22.3734C5.49385 22.3641 4.58448 22.3734 4.43916 22.425Z" fill="white"/>
<path d="M16.4391 22.425C16.2047 22.5094 16.0829 22.6219 15.9797 22.8516C15.811 23.2219 15.9141 23.6344 16.2329 23.8641L16.4204 24H18.0001C19.561 24 19.5797 24 19.7391 23.8922C20.1141 23.6438 20.2172 23.0625 19.9501 22.7156C19.7016 22.3875 19.6922 22.3828 18.0704 22.3734C16.9266 22.3641 16.5797 22.3734 16.4391 22.425Z" fill="white"/>
</svg>
