<svg width="24" height="24" viewBox="0 0 24 24" fill="none" xmlns="http://www.w3.org/2000/svg">
<g clip-path="url(#clip0_22_7134)">
<path d="M13.0486 0H10.9514C5.18755 0 0.498413 4.68914 0.498413 10.4529V10.8758V14.0133V16.0969C0.498413 16.4205 0.760697 16.6826 1.08413 16.6826H1.31842H1.96329V17.0951C1.96329 17.4186 2.22558 17.6808 2.54901 17.6808H3.61197C4.66286 17.6808 5.51778 16.8259 5.51778 15.775V11.1976C5.51778 10.1467 4.66286 9.29182 3.61197 9.29182H2.54901C2.22558 9.29182 1.96329 9.55399 1.96329 9.87754V10.2901H1.67395C1.76145 5.24744 5.88807 1.17143 10.9514 1.17143H13.0486C18.1118 1.17143 22.2385 5.24744 22.326 10.2902H22.0366V9.87754C22.0366 9.55399 21.7744 9.29182 21.4509 9.29182H20.3881C19.3372 9.29182 18.4823 10.1467 18.4823 11.1976V15.7752C18.4823 16.8261 19.3372 17.681 20.3881 17.681H21.4509C21.6132 17.681 21.76 17.615 21.866 17.5084V18.7726C21.866 20.4682 20.4865 21.8476 18.791 21.8476H15.3084C15.0759 21.2733 14.5131 20.8665 13.8563 20.8665H12.2748C11.4109 20.8665 10.7081 21.5694 10.7081 22.4333C10.7081 23.2973 11.4109 24.0001 12.2748 24.0001H13.8563C14.5131 24.0001 15.0759 23.5934 15.3084 23.019H18.791C21.1324 23.019 23.0374 21.1141 23.0374 18.7726V16.6699C23.3025 16.6139 23.5015 16.3789 23.5015 16.0972V14.0135V10.876V10.4531C23.5015 4.68914 18.8124 0 13.0486 0Z" fill="white"/>
</g>
<defs>
<clipPath id="clip0_22_7134">
<rect width="24" height="24" fill="white"/>
</clipPath>
</defs>
</svg>
