<svg width="16" height="16" viewBox="0 0 16 16" fill="none" xmlns="http://www.w3.org/2000/svg">
<path d="M7.39111 1.03436C5.82548 1.34686 4.70673 2.63123 4.63486 4.20623C4.59111 5.16873 4.90673 6.01248 5.57236 6.70935C6.56923 7.74998 8.12548 8.03748 9.42548 7.42498C9.79736 7.24685 10.0567 7.07185 10.338 6.79998C10.7536 6.39998 11.0192 5.97811 11.2005 5.43748C11.7536 3.78123 10.9411 1.95311 9.35048 1.26561C8.90048 1.06873 8.66611 1.02498 8.07861 1.01248C7.78798 1.00936 7.47861 1.01873 7.39111 1.03436ZM8.35361 1.54686C8.93798 1.59686 9.57861 1.92186 10.0349 2.39373C10.5536 2.93748 10.8005 3.51248 10.8349 4.24998C10.8849 5.41248 10.2192 6.48123 9.13798 6.97185C8.45673 7.28123 7.54423 7.28123 6.86298 6.97185C6.19423 6.66873 5.65361 6.11248 5.37548 5.44686C5.08173 4.74061 5.09111 3.90623 5.40361 3.20936C5.65986 2.64061 6.17861 2.09686 6.73486 1.81873C7.11611 1.62811 7.75361 1.48436 8.06298 1.51873C8.10673 1.52498 8.23798 1.53748 8.35361 1.54686Z" fill="#016DEA"/>
<path d="M7.81332 2.40622C7.76332 2.45622 7.75082 2.50934 7.75082 2.68747V2.90622L7.64457 2.94997C7.47582 3.01872 7.26645 3.23434 7.18832 3.41247C7.13207 3.54372 7.1227 3.61559 7.13207 3.80934C7.15707 4.29059 7.43207 4.58434 7.91957 4.65309C8.24145 4.69997 8.34457 4.78747 8.34457 5.02184C8.34457 5.20309 8.2227 5.34059 8.0477 5.36247C7.89145 5.38122 7.78832 5.32809 7.6977 5.18747C7.57895 4.99684 7.54145 4.96872 7.40707 4.96872C6.97895 4.96872 7.13832 5.60934 7.6227 5.82809C7.75082 5.88434 7.75082 5.88434 7.75082 6.05934C7.75082 6.26559 7.80395 6.36247 7.93832 6.39059C8.13832 6.43434 8.27582 6.27497 8.27895 5.99372C8.28207 5.89059 8.29457 5.86872 8.40707 5.81247C8.70082 5.66247 8.85082 5.41872 8.86957 5.05934C8.8852 4.76247 8.80707 4.55934 8.60395 4.37184C8.4352 4.21559 8.31645 4.16559 8.04145 4.12497C7.86332 4.10309 7.81332 4.08122 7.74457 3.99997C7.61957 3.86247 7.6227 3.65622 7.7477 3.53122C7.91332 3.36247 8.08207 3.36872 8.27895 3.54684C8.3727 3.63434 8.42582 3.65622 8.5227 3.65622C8.6852 3.65622 8.76645 3.57184 8.76645 3.39997C8.76645 3.28747 8.7477 3.25622 8.60082 3.12184C8.50707 3.03747 8.40082 2.95934 8.35707 2.94997C8.29145 2.93434 8.28207 2.91247 8.28207 2.78434C8.28207 2.58747 8.22895 2.41247 8.15707 2.37497C8.05707 2.32184 7.88207 2.33747 7.81332 2.40622Z" fill="#016DEA"/>
<path d="M2.325 2.725C2.2875 2.74062 2.24062 2.79063 2.22187 2.83125C2.19687 2.8875 2.1875 3.5 2.1875 4.88437V6.85937L1.88437 6.55937C1.34062 6.02812 1.2625 5.98437 1.08125 6.12812C1.01562 6.17812 1 6.21875 1 6.325C1 6.45937 1 6.4625 1.65 7.0875C2.00937 7.42812 2.33125 7.72187 2.37187 7.73437C2.49375 7.77187 2.59062 7.72187 2.80625 7.51875C2.92187 7.40937 3.20625 7.15625 3.4375 6.95625C3.66875 6.75312 3.89062 6.55312 3.93125 6.5125C4.08437 6.34062 3.96875 6.0625 3.74062 6.0625C3.65 6.0625 3.57187 6.11875 3.18437 6.45625L2.73437 6.85L2.71875 4.84375L2.70312 2.8375L2.61562 2.7625C2.52187 2.68437 2.43437 2.67188 2.325 2.725Z" fill="#016DEA"/>
<path d="M13.2781 2.7781L13.1875 2.86873V4.86248V6.8531L12.7844 6.45935C12.4156 6.09685 12.3719 6.06248 12.2687 6.06248C12.1094 6.06248 12 6.17498 12 6.33435C12 6.44685 12.0312 6.48123 12.6125 7.04685C12.95 7.37185 13.2656 7.6656 13.3156 7.69998C13.4344 7.77498 13.5875 7.74685 13.6906 7.63748C13.7312 7.5906 14.0437 7.30935 14.3844 7.00935L15 6.4656V6.3281C15 6.21873 14.9844 6.1781 14.9187 6.1281C14.8187 6.04998 14.6969 6.04373 14.5937 6.1156C14.55 6.14373 14.3437 6.32185 14.1344 6.50623C13.9281 6.6906 13.7469 6.84373 13.7375 6.84373C13.7281 6.84373 13.7187 5.9531 13.7187 4.86248C13.7187 3.77185 13.7094 2.85623 13.7 2.8281C13.675 2.76873 13.5281 2.68748 13.4375 2.68748C13.4 2.68748 13.3281 2.7281 13.2781 2.7781Z" fill="#016DEA"/>
<path d="M5.875 8.67186C5.72812 8.70311 5.34062 8.88123 4.47812 9.30936L3.28437 9.90311L3.19687 9.77186C3.06875 9.58436 2.875 9.48436 2.6375 9.48748C2.45312 9.48748 2.425 9.49998 1.8875 9.81248C1.58125 9.98748 1.28125 10.1687 1.225 10.2094C1.075 10.3219 1 10.4937 1 10.725V10.9219L2.09687 12.8281C2.70312 13.8781 3.225 14.7687 3.2625 14.8062C3.39062 14.95 3.55312 15.0062 3.77812 14.9937C3.975 14.9812 4.0125 14.9656 4.54687 14.6594C4.85625 14.4812 5.15 14.2969 5.2 14.2531C5.40937 14.0625 5.45937 13.7594 5.32812 13.475L5.25312 13.3125L5.40625 13.2344C5.50312 13.1875 5.6125 13.1562 5.7 13.1562C5.7875 13.1562 6.31875 13.3031 7.17187 13.5625C8.68125 14.025 8.82187 14.0625 9.0625 14.0625C9.27187 14.0625 9.58437 13.9906 9.74687 13.9062C9.81562 13.875 10.9594 13.1219 12.2906 12.2375C13.8562 11.2 14.7375 10.5937 14.7875 10.5281C14.9406 10.3219 14.9781 10.2125 14.9937 9.92811C15.0062 9.67186 15.0031 9.64373 14.9094 9.45623C14.7 9.03123 14.2406 8.80623 13.775 8.90311C13.6375 8.93436 13.2812 9.12811 12.0594 9.84686C11.2094 10.3469 10.475 10.7812 10.4219 10.8125L10.3281 10.8687L10.3187 10.6812C10.3062 10.3437 10.1344 10.0719 9.8375 9.91873C9.52187 9.75623 6.8875 8.71248 6.69375 8.66873C6.43437 8.61561 6.14062 8.61561 5.875 8.67186ZM6.55312 9.18436C6.75312 9.22498 9.55937 10.3594 9.66875 10.4469C9.78125 10.5375 9.82187 10.7219 9.77187 10.925C9.73437 11.0687 9.72812 11.0781 9.6375 11.0719C9.5875 11.0656 9.0375 10.9219 8.41875 10.75C7.80312 10.5781 7.25937 10.4375 7.21562 10.4375C6.975 10.4375 6.89062 10.7844 7.1 10.9156C7.14062 10.9406 7.69375 11.1062 8.32812 11.2844C9.40312 11.5844 9.50312 11.6062 9.75 11.6031C9.92812 11.6 10.0719 11.5781 10.1875 11.5375C10.2812 11.5031 11.1375 11.0187 12.0906 10.4562C13.0406 9.89686 13.8656 9.43123 13.925 9.41873C14.075 9.39061 14.2312 9.45623 14.3594 9.59998C14.4719 9.72186 14.475 9.73436 14.4625 9.90936C14.4531 10.0312 14.4281 10.1125 14.3875 10.1594C14.3 10.2594 9.67187 13.3406 9.46875 13.4344C9.33437 13.4969 9.24687 13.5156 9.0625 13.5156C8.85 13.5156 8.7 13.475 7.375 13.0687L5.92187 12.6187L5.65625 12.6312C5.44375 12.6406 5.35312 12.6625 5.20312 12.7344C5.1 12.7844 5.00312 12.825 4.99062 12.825C4.97812 12.8281 4.65 12.2719 4.2625 11.5937L3.5625 10.3594L4.69375 9.79373C5.31875 9.48436 5.89062 9.21561 5.96875 9.19686C6.15312 9.15311 6.3625 9.14998 6.55312 9.18436ZM2.725 10.0531C2.75312 10.0844 3.24687 10.9312 3.825 11.9344C4.48125 13.0719 4.87187 13.7781 4.85937 13.8094C4.84062 13.8719 3.81875 14.4687 3.73125 14.4687C3.68125 14.4687 3.4375 14.0687 2.6 12.6156C2.0125 11.5969 1.53125 10.7406 1.53125 10.7125C1.53125 10.6844 1.55 10.6469 1.57187 10.6281C1.62812 10.5844 2.63437 9.99998 2.65937 9.99998C2.66875 9.99998 2.7 10.025 2.725 10.0531Z" fill="#016DEA"/>
<path d="M2.31185 10.6281C2.15248 10.6625 2.06498 10.8156 2.1056 10.9844C2.13998 11.1188 2.23373 11.1875 2.38685 11.1875C2.50248 11.1875 2.53685 11.1719 2.6056 11.0906C2.79935 10.8625 2.61185 10.5625 2.31185 10.6281Z" fill="#016DEA"/>
<path d="M2.67187 11.4125C2.56875 11.4687 2.53125 11.5375 2.53125 11.675C2.53125 12 2.99062 12.0781 3.09375 11.7687C3.13437 11.6406 3.075 11.4625 2.975 11.4093C2.89375 11.3656 2.75312 11.3656 2.67187 11.4125Z" fill="#016DEA"/>
</svg>
