<svg width="16" height="16" viewBox="0 0 16 16" fill="none" xmlns="http://www.w3.org/2000/svg">
<path d="M7.33333 12.6667C10.2789 12.6667 12.6667 10.2789 12.6667 7.33333C12.6667 4.38781 10.2789 2 7.33333 2C4.38781 2 2 4.38781 2 7.33333C2 10.2789 4.38781 12.6667 7.33333 12.6667Z" stroke="#016DEA" stroke-linecap="round" stroke-linejoin="round"/>
<path d="M13.9996 14L11.0996 11.1" stroke="#016DEA" stroke-linecap="round" stroke-linejoin="round"/>
<path d="M9.59991 9.40008V8.86671C9.59991 8.5838 9.48752 8.31247 9.28747 8.11242C9.08742 7.91237 8.8161 7.79999 8.53318 7.79999H6.39973C6.11682 7.79999 5.84549 7.91237 5.64544 8.11242C5.44539 8.31247 5.33301 8.5838 5.33301 8.86671V9.40008" stroke="#016DEA" stroke-linecap="round" stroke-linejoin="round"/>
<path d="M7.46712 6.73306C8.05625 6.73306 8.53384 6.25547 8.53384 5.66633C8.53384 5.0772 8.05625 4.59961 7.46712 4.59961C6.87798 4.59961 6.40039 5.0772 6.40039 5.66633C6.40039 6.25547 6.87798 6.73306 7.46712 6.73306Z" stroke="#016DEA" stroke-linecap="round" stroke-linejoin="round"/>
</svg>
