<svg width="16" height="16" viewBox="0 0 16 16" fill="none" xmlns="http://www.w3.org/2000/svg">
<g clip-path="url(#clip0_4633_53891)">
<path d="M9.14258 13.5715L10.8569 15.2858L15.4443 10.7144" stroke="#016DEA" stroke-width="0.571429" stroke-linecap="round" stroke-linejoin="round"/>
<path d="M8.32651 8.75368C8.26414 8.6745 8.03417 8.37077 7.81098 7.92683L7.79851 7.90189C7.79715 7.89944 7.79607 7.89673 7.79471 7.89429C7.76515 7.8349 7.73614 7.77199 7.70685 7.7069L7.69329 7.67626C7.6781 7.64182 7.66292 7.60629 7.64773 7.56914C7.64258 7.55639 7.63742 7.54365 7.63227 7.53063C7.6179 7.49483 7.60353 7.4585 7.58807 7.41673C7.56014 7.34297 7.53464 7.26595 7.50969 7.18704L7.49017 7.12304C7.46468 7.03897 7.44108 6.953 7.42048 6.86433C7.41993 6.86243 7.41939 6.8608 7.41912 6.8589L7.41451 6.83911L7.39471 6.75151L7.30197 6.69158C7.14468 6.59016 7.05085 6.42039 7.05085 6.23734V5.1526C7.05085 5.00046 7.11539 4.85836 7.23254 4.7526L7.32203 4.67178V2.9831V2.8871L7.31471 2.88141C7.30522 2.68588 7.31715 2.08548 7.75485 1.58595C8.2042 1.07341 8.97112 0.813613 10.0339 0.813613C11.0929 0.813613 11.8582 1.07151 12.3081 1.58053C12.8361 2.17741 12.749 2.94107 12.7482 2.94758L12.7458 4.67178L12.8353 4.7526C12.9524 4.85836 13.0169 5.00046 13.0169 5.1526V6.23734C13.0169 6.47409 12.8621 6.68127 12.6313 6.75233C12.4884 6.79626 12.4081 6.94839 12.4523 7.09131C12.4963 7.23422 12.6476 7.31395 12.7913 7.27029C13.2507 7.12873 13.5593 6.71355 13.5593 6.23734V5.1526C13.5593 4.89144 13.462 4.63816 13.2881 4.44073V2.99829C13.3036 2.84914 13.363 1.96127 12.7208 1.2288C12.1638 0.593139 11.2599 0.27124 10.0339 0.27124C8.80786 0.27124 7.904 0.59341 7.34698 1.22853C6.95783 1.67246 6.82712 2.17253 6.78725 2.53158C6.32217 2.29104 5.77464 2.16955 5.15254 2.16955C2.33519 2.16955 2.17139 4.5709 2.16949 4.61022V5.85199C1.99376 6.04372 1.89831 6.26446 1.89831 6.48385V7.42053C1.89831 7.71314 2.02929 7.98595 2.25383 8.17036C2.47729 9.01375 3.0278 9.65104 3.24203 9.87477V10.6186C3.24203 10.8321 3.12569 11.0279 2.92447 11.138L1.12081 12.2696C0.429288 12.6463 0 13.3695 0 14.1568V15.1865H3.79661H4.33898H7.32203C7.472 15.1865 7.59322 15.0653 7.59322 14.9153C7.59322 14.7653 7.472 14.6441 7.32203 14.6441H4.33898V14.0372C4.33898 13.34 4.71919 12.6992 5.33098 12.3656L7.75078 11.046C8.15539 10.825 8.40678 10.4011 8.40678 9.94039V8.8505L8.34386 8.77511C8.34305 8.77456 8.33627 8.76589 8.32651 8.75368ZM7.86441 9.94039C7.86441 10.2029 7.72122 10.4437 7.49098 10.5695L6.77342 10.9609L6.59742 11.0569L5.07146 11.8891C4.28502 12.3182 3.79661 13.1409 3.79661 14.0369V14.6441H0.542373V14.1568C0.542373 13.5683 0.863458 13.0276 1.39444 12.7377L3.1981 11.606C3.55959 11.4089 3.78414 11.0308 3.78414 10.6186L3.78386 9.64507L3.69844 9.56453C3.69112 9.55802 2.96949 8.87138 2.75769 7.94934L2.73302 7.84195L2.64027 7.78229C2.51525 7.70148 2.44068 7.56616 2.44068 7.42053V6.48385C2.44068 6.3865 2.50685 6.27016 2.62264 6.16548L2.71186 6.08466L2.71132 4.62595C2.71647 4.54785 2.85722 2.71192 5.15254 2.71192C5.80176 2.71192 6.3482 2.86188 6.77966 3.15775V4.44073C6.60583 4.63816 6.50847 4.89144 6.50847 5.1526V6.23734C6.50847 6.43151 6.5657 6.61511 6.66061 6.77755C6.72705 6.89117 6.80895 6.99585 6.91444 7.08046C6.91634 7.08751 6.91851 7.09402 6.92041 7.1008C6.93614 7.16073 6.95241 7.21985 6.96976 7.2768L6.99227 7.35056C6.99661 7.36412 7.00149 7.37822 7.00583 7.39178C7.01478 7.41944 7.02346 7.44683 7.03295 7.47395C7.04922 7.52195 7.06658 7.57131 7.08664 7.625C7.09478 7.64643 7.10346 7.66514 7.11159 7.68602C7.13464 7.74514 7.15797 7.80236 7.18237 7.85877C7.18698 7.86934 7.19132 7.88155 7.19593 7.89212L7.2122 7.929C7.21953 7.94555 7.22712 7.96019 7.23444 7.97646C7.25993 8.03205 7.28515 8.08629 7.31091 8.13863C7.3158 8.14839 7.32041 8.15951 7.32529 8.16928L7.34563 8.20887C7.35078 8.2189 7.35566 8.22677 7.36081 8.23653C7.40475 8.32114 7.44786 8.40033 7.49071 8.47436C7.49641 8.48439 7.5021 8.49443 7.5078 8.50446C7.55417 8.58365 7.59864 8.65633 7.64095 8.72168C7.64285 8.72466 7.64502 8.72792 7.64692 8.73117C7.73641 8.86921 7.81397 8.97741 7.86441 9.04331V9.94039Z" fill="#016DEA"/>
</g>
<defs>
<clipPath id="clip0_4633_53891">
<rect width="16" height="16" fill="white"/>
</clipPath>
</defs>
</svg>
