<svg width="12" height="12" viewBox="0 0 12 12" fill="none" xmlns="http://www.w3.org/2000/svg">
<g clip-path="url(#clip0_4630_55628)">
<g clip-path="url(#clip1_4630_55628)">
<path d="M11.1034 9.31L9.1488 8.4634C9.1028 8.4404 9.0518 8.3842 9.008 8.3092L10.313 8.3082C10.3358 8.3104 10.8738 8.3596 11.3052 8.1742C11.4686 8.1038 11.5902 7.9648 11.639 7.7928C11.6882 7.6192 11.657 7.4354 11.5538 7.2882C11.1808 6.7574 10.3102 5.3704 10.283 3.9636C10.2824 3.9394 10.2036 1.547 7.841 1.5276C7.4932 1.5304 7.1716 1.5894 6.879 1.6982C6.8152 1.5356 6.7212 1.366 6.5814 1.2064C6.1708 0.7376 5.5042 0.5 4.6 0.5C3.6958 0.5 3.0292 0.7376 2.6184 1.206C2.1448 1.7462 2.1888 2.4012 2.2 2.511V3.5748C2.072 3.7206 2 3.9072 2 4.0998V4.8998C2 5.1432 2.1106 5.3702 2.2994 5.5216C2.4826 6.247 2.866 6.7936 3 6.969V7.6308C3 7.8244 2.8944 8.002 2.7246 8.0948L0.9404 9.068C0.3602 9.3848 0 9.9916 0 10.6524V11.5H8.8H9.2H12V10.7606C12 10.1422 11.6564 9.5866 11.1034 9.31ZM8.8 11.1H0.4V10.6524C0.4 10.1382 0.6804 9.6656 1.1318 9.4196L2.916 8.4464C3.2146 8.2834 3.4 7.9708 3.4 7.631V6.8272L3.3534 6.7716C3.3486 6.7658 2.8584 6.1728 2.6714 5.3586L2.6532 5.2794L2.585 5.2354C2.4692 5.1606 2.4 5.0352 2.4 4.9V4.1C2.4 3.9878 2.4476 3.8832 2.534 3.805L2.6 3.7456V2.5L2.5982 2.4738C2.5976 2.4684 2.5296 1.914 2.9192 1.4696C3.2506 1.0916 3.8162 0.9 4.6 0.9C5.381 0.9 5.9454 1.0902 6.2772 1.4656C6.4422 1.652 6.5252 1.8602 6.5666 2.039C6.5698 2.053 6.5728 2.0668 6.5756 2.0806C6.5784 2.0948 6.5814 2.109 6.5836 2.1226C6.5862 2.1382 6.5884 2.153 6.5906 2.1678C6.5922 2.1784 6.5938 2.1892 6.595 2.1994C6.598 2.2242 6.6004 2.2482 6.602 2.2704C6.6022 2.2722 6.6022 2.2738 6.6022 2.2756C6.6036 2.2972 6.6046 2.3176 6.6052 2.3362C6.6052 2.3398 6.6052 2.3428 6.6054 2.3464C6.6058 2.363 6.6058 2.3788 6.6056 2.3926C6.6056 2.3946 6.6056 2.3966 6.6056 2.3986C6.6048 2.4456 6.6016 2.4736 6.6016 2.4742L6.6 3.7456L6.666 3.8052C6.7524 3.8832 6.8 3.9878 6.8 4.1V4.9C6.8 5.0746 6.6856 5.2274 6.5156 5.2798L6.416 5.3104L6.384 5.4094C6.2502 5.8256 6.0596 6.21 5.8172 6.552C5.7578 6.6362 5.7 6.7108 5.6498 6.7678L5.6 6.8246V7.6496C5.6 7.7002 5.605 7.7498 5.6128 7.7986C5.6144 7.809 5.6172 7.819 5.6192 7.8294C5.627 7.8696 5.6374 7.909 5.6502 7.9474C5.6532 7.9564 5.6564 7.965 5.6598 7.974C5.6754 8.0158 5.6936 8.0562 5.7148 8.095C5.7172 8.0994 5.7194 8.104 5.7218 8.1084C5.7508 8.1596 5.7842 8.2082 5.8226 8.253L5.8682 8.3092H5.876C5.9446 8.3768 6.0234 8.4356 6.113 8.4804L8.0236 9.4356C8.5026 9.6748 8.8 10.156 8.8 10.6914V11.1ZM11.6 11.1H9.2V10.6914C9.2 10.0036 8.8178 9.3854 8.2028 9.0778L6.8312 8.3918C6.865 8.3146 6.8694 8.2262 6.8398 8.141C6.7908 8 6.6628 7.909 6.5138 7.909H6.0704C6.0612 7.8928 6.0552 7.875 6.0478 7.8578C6.0378 7.8348 6.026 7.8122 6.0194 7.788C6.0072 7.7436 6 7.6972 6 7.6496V6.9734C6.0458 6.9174 6.094 6.8536 6.1438 6.7832C6.3916 6.4332 6.5902 6.0436 6.7346 5.6234C7.0168 5.494 7.2 5.215 7.2 4.9V4.1C7.2 3.9074 7.128 3.7208 7 3.575V2.5112C7.0052 2.4612 7.0164 2.2974 6.9832 2.0834C7.2408 1.9822 7.5294 1.93 7.8412 1.9274C9.8094 1.9436 9.8812 3.8896 9.8832 3.9716C9.9126 5.4882 10.8324 6.957 11.2266 7.518C11.2604 7.566 11.2706 7.6264 11.2544 7.6834C11.2452 7.7162 11.2188 7.7758 11.1474 7.8064C10.8114 7.951 10.3556 7.91 10.3322 7.909H8.9556C8.827 7.909 8.7098 7.9744 8.642 8.0838C8.5744 8.1928 8.568 8.326 8.6248 8.4404C8.6874 8.5666 8.798 8.7352 8.9798 8.8258L10.9292 9.6702C11.343 9.8792 11.6 10.2964 11.6 10.7606V11.1Z" fill="#016DEA"/>
</g>
</g>
<defs>
<clipPath id="clip0_4630_55628">
<rect width="12" height="12" fill="white"/>
</clipPath>
<clipPath id="clip1_4630_55628">
<rect width="12" height="12" fill="white"/>
</clipPath>
</defs>
</svg>
