<svg width="24" height="24" viewBox="0 0 24 24" fill="none" xmlns="http://www.w3.org/2000/svg">
<path d="M15 14H8C6.93913 14 5.92172 14.4214 5.17157 15.1716C4.42143 15.9217 4 16.9391 4 18V22.5" stroke="white" stroke-linecap="round" stroke-linejoin="round"/>
<path d="M18.0519 14.3342C18.1579 14.2283 18.2837 14.1442 18.4221 14.0869C18.5606 14.0295 18.709 14 18.8588 14C19.0087 14 19.1571 14.0295 19.2955 14.0869C19.434 14.1442 19.5598 14.2283 19.6658 14.3342C19.7717 14.4402 19.8558 14.566 19.9131 14.7045C19.9705 14.8429 20 14.9913 20 15.1412C20 15.291 19.9705 15.4394 19.9131 15.5779C19.8558 15.7163 19.7717 15.8421 19.6658 15.9481L14.219 21.3948L12 22L12.6052 19.781L18.0519 14.3342Z" stroke="white" stroke-linecap="round" stroke-linejoin="round"/>
<path d="M12 11C14.2091 11 16 9.20914 16 7C16 4.79086 14.2091 3 12 3C9.79086 3 8 4.79086 8 7C8 9.20914 9.79086 11 12 11Z" stroke="white" stroke-linecap="round" stroke-linejoin="round"/>
</svg>
