<svg width="24" height="24" viewBox="0 0 24 24" fill="none" xmlns="http://www.w3.org/2000/svg">
<g clip-path="url(#clip0_5004_176556)">
<path d="M2.18047 0.0891604C1.16797 0.379786 0.333594 1.22822 0.0757812 2.23135C-0.0226562 2.61104 -0.0226562 3.38916 0.0757812 3.76885C0.342969 4.8001 1.23828 5.69072 2.25547 5.92979C2.63984 6.01885 3.36172 6.01885 3.74609 5.92979C4.52422 5.74697 5.28828 5.14697 5.65859 4.42979C5.91641 3.92822 6.00078 3.58135 6.00078 3.0001C6.00078 2.41885 5.91641 2.07197 5.65859 1.57041C5.29297 0.862598 4.55234 0.27666 3.76953 0.075098C3.37578 -0.0280271 2.55547 -0.018652 2.18047 0.0891604ZM3.70391 1.16729C4.49141 1.47197 5.01641 2.28291 4.96016 3.10791C4.89922 3.95635 4.36016 4.63604 3.54922 4.88447C2.75703 5.12354 1.87578 4.80947 1.39297 4.1251C0.638281 3.04229 1.14922 1.5376 2.41484 1.1251C2.78047 1.00322 3.33359 1.02197 3.70391 1.16729Z" fill="#AAA9AD"/>
<path d="M8.98594 0.0656247C8.53125 0.229687 8.175 0.614062 8.04375 1.08281C7.98281 1.29375 7.96875 1.64062 7.96875 3C7.96875 4.85625 7.9875 5.00625 8.27812 5.40469C8.45625 5.64844 8.77969 5.87812 9.04687 5.95312C9.15 5.98125 11.7094 6 16.0172 6C22.7766 6 22.8281 6 23.0812 5.90156C23.3953 5.78437 23.7047 5.49844 23.8594 5.17969L23.9766 4.94531L23.9906 3.06562C24.0047 1.24687 24 1.17656 23.9016 0.91875C23.7703 0.567187 23.4375 0.229687 23.0859 0.0984373C22.8234 0 22.8047 0 15.9937 0C10.3734 0.00468731 9.13125 0.0140624 8.98594 0.0656247ZM22.7297 1.09687C22.8 1.13437 22.8797 1.21875 22.9125 1.28906C22.9922 1.4625 22.9922 4.5375 22.9125 4.71094C22.7906 4.98281 23.175 4.96875 15.9703 4.96875C9.36094 4.96875 9.34219 4.96875 9.22031 4.875C9.15 4.81875 9.075 4.69687 9.04687 4.60312C9.01875 4.5 9 3.83437 9 3C9 2.16562 9.01875 1.5 9.04687 1.39687C9.075 1.30312 9.15 1.18125 9.22031 1.125C9.34219 1.03125 9.36094 1.03125 15.9703 1.03125C21.6141 1.03125 22.6172 1.04062 22.7297 1.09687Z" fill="#AAA9AD"/>
<path d="M1.05937 8.0438C0.61875 8.17974 0.295312 8.47036 0.0984375 8.9063C0.0046875 9.10786 0 9.2063 0 11.4704C0 13.7344 0.0046875 13.8329 0.0984375 14.0813C0.215625 14.3954 0.501562 14.7047 0.820312 14.8594L1.05469 14.9766L5.4375 14.9907C10.4625 15.0047 10.0875 15.0329 10.5516 14.5782C10.7437 14.3907 10.8422 14.2454 10.9172 14.0438C11.0156 13.7719 11.0203 13.7251 11.0062 11.4188C10.9922 9.07036 10.9922 9.07036 10.8844 8.85005C10.7344 8.54536 10.4437 8.26411 10.1344 8.1188L9.86719 7.99224L5.57812 7.98286C1.84219 7.97349 1.26094 7.98286 1.05937 8.0438ZM9.74062 9.0938C9.98437 9.25786 9.98906 9.29536 9.975 11.5782L9.96094 13.6969L9.80625 13.8329L9.65625 13.9688H5.52656C1.04531 13.9688 1.20937 13.9782 1.0875 13.711C1.04531 13.6219 1.03125 13.0126 1.03125 11.4657C1.03125 9.38911 1.03125 9.33755 1.12969 9.21568C1.18125 9.15005 1.29375 9.07505 1.37344 9.05161C1.4625 9.02349 3.18281 9.00943 5.57812 9.01411C9.08437 9.02349 9.64687 9.03286 9.74062 9.0938Z" fill="#AAA9AD"/>
<path d="M13.2327 8.05781C13.153 8.10938 13.0592 8.19375 13.0358 8.24531C12.9233 8.45625 13.0217 8.85 13.2139 8.95313C13.2749 8.98594 15.0327 9 18.5155 9H23.728L23.8639 8.86406C23.9764 8.74688 23.9999 8.68594 23.9999 8.49844C23.9999 8.30156 23.9764 8.24531 23.8545 8.12813L23.7139 7.99219L18.5483 7.97813C13.4999 7.96875 13.378 7.96875 13.2327 8.05781Z" fill="#AAA9AD"/>
<path d="M13.2327 11.0578C13.153 11.1094 13.0592 11.1938 13.0358 11.2453C12.9233 11.4563 13.0217 11.85 13.2139 11.9531C13.2749 11.9859 15.0327 12 18.5155 12H23.728L23.8639 11.8641C23.9764 11.7469 23.9999 11.6859 23.9999 11.4984C23.9999 11.3016 23.9764 11.2453 23.8545 11.1281L23.7139 10.9922L18.5483 10.9781C13.4999 10.9688 13.378 10.9688 13.2327 11.0578Z" fill="#AAA9AD"/>
<path d="M13.2327 14.0578C13.153 14.1094 13.0592 14.1938 13.0358 14.2453C12.9233 14.4563 13.0217 14.85 13.2139 14.9531C13.2749 14.9859 15.0327 15 18.5155 15H23.728L23.8639 14.8641C23.9764 14.7469 23.9999 14.6859 23.9999 14.4984C23.9999 14.3016 23.9764 14.2453 23.8545 14.1281L23.7139 13.9922L18.5483 13.9781C13.4999 13.9688 13.378 13.9688 13.2327 14.0578Z" fill="#AAA9AD"/>
<path d="M1.05937 17.0438C0.61875 17.1797 0.295312 17.4704 0.0984375 17.9063C0.0046875 18.1079 0 18.2063 0 20.4704C0 22.7344 0.0046875 22.8329 0.0984375 23.0813C0.215625 23.3954 0.501562 23.7047 0.820312 23.8594L1.05469 23.9766L5.4375 23.9907C10.4625 24.0047 10.0875 24.0329 10.5516 23.5782C10.7437 23.3907 10.8422 23.2454 10.9172 23.0438C11.0156 22.7719 11.0203 22.7251 11.0062 20.4188C10.9922 18.0704 10.9922 18.0704 10.8844 17.8501C10.7344 17.5454 10.4437 17.2641 10.1344 17.1188L9.86719 16.9922L5.57812 16.9829C1.84219 16.9735 1.26094 16.9829 1.05937 17.0438ZM9.74062 18.0938C9.98437 18.2579 9.98906 18.2954 9.975 20.5782L9.96094 22.6969L9.80625 22.8329L9.65625 22.9688H5.52656C1.04531 22.9688 1.20937 22.9782 1.0875 22.711C1.04531 22.6219 1.03125 22.0126 1.03125 20.4657C1.03125 18.3891 1.03125 18.3376 1.12969 18.2157C1.18125 18.1501 1.29375 18.0751 1.37344 18.0516C1.4625 18.0235 3.18281 18.0094 5.57812 18.0141C9.08437 18.0235 9.64687 18.0329 9.74062 18.0938Z" fill="#AAA9AD"/>
<path d="M13.2327 17.0578C13.153 17.1094 13.0592 17.1938 13.0358 17.2453C12.9233 17.4563 13.0217 17.85 13.2139 17.9531C13.2749 17.9859 15.0327 18 18.5155 18H23.728L23.8639 17.8641C23.9764 17.7469 23.9999 17.6859 23.9999 17.4984C23.9999 17.3016 23.9764 17.2453 23.8545 17.1281L23.7139 16.9922L18.5483 16.9781C13.4999 16.9688 13.378 16.9688 13.2327 17.0578Z" fill="#AAA9AD"/>
<path d="M13.2327 20.0578C13.153 20.1094 13.0592 20.1938 13.0358 20.2453C12.9233 20.4563 13.0217 20.85 13.2139 20.9531C13.2749 20.9859 15.0327 21 18.5155 21H23.728L23.8639 20.8641C23.9764 20.7469 23.9999 20.6859 23.9999 20.4984C23.9999 20.3016 23.9764 20.2453 23.8545 20.1281L23.7139 19.9922L18.5483 19.9781C13.4999 19.9688 13.378 19.9688 13.2327 20.0578Z" fill="#AAA9AD"/>
<path d="M13.2327 23.0578C13.153 23.1094 13.0592 23.1938 13.0358 23.2453C12.9233 23.4563 13.0217 23.85 13.2139 23.9531C13.2749 23.9859 15.0327 24 18.5155 24H23.728L23.8639 23.8641C23.9764 23.7469 23.9999 23.6859 23.9999 23.4984C23.9999 23.3016 23.9764 23.2453 23.8545 23.1281L23.7139 22.9922L18.5483 22.9781C13.4999 22.9688 13.378 22.9688 13.2327 23.0578Z" fill="#AAA9AD"/>
</g>
<defs>
<clipPath id="clip0_5004_176556">
<rect width="24" height="24" fill="white"/>
</clipPath>
</defs>
</svg>
