<svg width="50" height="50" viewBox="0 0 50 50" fill="none" xmlns="http://www.w3.org/2000/svg">
<g clip-path="url(#clip0_6862_198005)">
<path d="M6.96057 28.3539H43.0394C43.5626 28.3539 43.9868 27.9297 43.9868 27.4065V5.40319C43.9868 4.87999 43.5626 4.45579 43.0394 4.45579H6.96057C6.43736 4.45579 6.01316 4.87999 6.01316 5.40319V27.4065C6.01316 27.9297 6.43725 28.3539 6.96057 28.3539ZM7.90797 6.35059H42.092V26.4591H7.90797V6.35059ZM26.9014 37.1348H23.0991C19.9864 37.1348 17.454 39.6672 17.454 42.78V48.2825C17.454 48.8057 17.8782 49.2299 18.4014 49.2299H31.5988C32.122 49.2299 32.5462 48.8057 32.5462 48.2825V42.78C32.5462 39.6672 30.014 37.1348 26.9014 37.1348ZM30.6514 47.3351H19.3488V42.78C19.3488 40.7121 21.0312 39.0296 23.0991 39.0296H26.9014C28.9692 39.0296 30.6514 40.7121 30.6514 42.78V47.3351ZM21.475 1.71803C21.475 1.19483 21.8992 0.77063 22.4224 0.77063H27.5776C28.1008 0.77063 28.525 1.19483 28.525 1.71803C28.525 2.24124 28.1008 2.66543 27.5776 2.66543H22.4224C21.8991 2.66543 21.475 2.24124 21.475 1.71803ZM0 34.401C0 33.8778 0.424199 33.4536 0.947403 33.4536H4.28179C4.2806 33.4337 4.27989 33.4137 4.27989 33.3936C4.27989 32.8704 4.70409 32.4462 5.22729 32.4462H10.3825C10.9057 32.4462 11.3299 32.8704 11.3299 33.3936C11.3299 33.4137 11.3293 33.4337 11.328 33.4536H21.4767C21.4755 33.4337 21.4748 33.4137 21.4748 33.3936C21.4748 32.8704 21.899 32.4462 22.4222 32.4462H27.5774C28.1006 32.4462 28.5248 32.8704 28.5248 33.3936C28.5248 33.4137 28.5242 33.4337 28.5229 33.4536H38.6718C38.6706 33.4337 38.6699 33.4137 38.6699 33.3936C38.6699 32.8704 39.0941 32.4462 39.6173 32.4462H44.7725C45.2957 32.4462 45.7199 32.8704 45.7199 33.3936C45.7199 33.4137 45.7193 33.4337 45.718 33.4536H49.0521C49.5753 33.4536 49.9995 33.8778 49.9995 34.401C49.9995 34.9242 49.5753 35.3484 49.0521 35.3484H0.947403C0.424199 35.3484 0 34.9242 0 34.401ZM9.70614 37.1348H5.90386C2.79117 37.1348 0.258759 39.6672 0.258759 42.78V48.2825C0.258759 48.8057 0.682959 49.2299 1.20616 49.2299H14.4037C14.9269 49.2299 15.3511 48.8057 15.3511 48.2825V42.78C15.3511 39.6672 12.8188 37.1348 9.70614 37.1348ZM13.4563 47.3351H2.15356V42.78C2.15356 40.7121 3.83591 39.0296 5.90386 39.0296H9.70614C11.774 39.0296 13.4563 40.7121 13.4563 42.78V47.3351ZM44.0964 37.1348H40.2941C37.1814 37.1348 34.649 39.6672 34.649 42.78V48.2825C34.649 48.8057 35.0732 49.2299 35.5964 49.2299H48.794C49.3172 49.2299 49.7414 48.8057 49.7414 48.2825V42.78C49.7414 39.6672 47.2091 37.1348 44.0964 37.1348ZM47.8466 47.3351H36.5438V42.78C36.5438 40.7121 38.2262 39.0296 40.2941 39.0296H44.0964C46.1642 39.0296 47.8466 40.7121 47.8466 42.78V47.3351Z" fill="#016DEA"/>
</g>
<defs>
<clipPath id="clip0_6862_198005">
<rect width="50" height="50" fill="white"/>
</clipPath>
</defs>
</svg>
