<svg width="24" height="24" viewBox="0 0 24 24" fill="none" xmlns="http://www.w3.org/2000/svg">
<path d="M5.2966 0.848683C4.15285 1.14868 3.18722 1.99243 2.74191 3.08462C2.47003 3.75025 2.47941 3.44556 2.49347 11.3674L2.50753 18.6331L2.66222 19.0784C2.8591 19.6502 3.11691 20.0815 3.50128 20.4893C4.01691 21.0331 4.63097 21.3893 5.36222 21.5627C5.71378 21.6471 5.92941 21.6565 8.39035 21.6565C10.9497 21.6565 11.0435 21.6518 11.1935 21.5627C11.3763 21.4502 11.5169 21.2346 11.5544 21.0002C11.606 20.7049 11.3903 20.3159 11.1091 20.1846C11.0294 20.1518 10.1857 20.1237 8.34347 20.1096L5.69503 20.0862L5.32941 19.9127C4.70128 19.6127 4.27472 19.0971 4.10128 18.4362C3.99347 18.0331 3.99347 4.37368 4.10128 3.97056C4.30753 3.18306 4.89816 2.569 5.65753 2.36275C5.95753 2.27837 6.23878 2.27368 11.0153 2.27368C15.7638 2.27368 16.0685 2.27837 16.3357 2.35806C17.0294 2.569 17.5357 3.04712 17.8263 3.75962C17.9294 4.00337 17.9294 4.05962 17.9528 7.31274L17.9763 10.6174L18.0841 10.7721C18.431 11.2502 19.1763 11.194 19.4247 10.669C19.495 10.5143 19.5044 10.2143 19.4903 7.16275C19.4716 3.83931 19.4716 3.82056 19.3685 3.469C18.9607 2.14712 17.9622 1.17681 16.6685 0.843995C16.3075 0.750245 16.1669 0.750245 10.9732 0.754933C5.84035 0.754933 5.6341 0.75962 5.2966 0.848683Z" fill="white"/>
<path d="M6.64666 4.54717C6.32791 4.71592 6.17791 5.17061 6.31853 5.53623C6.38416 5.70498 6.67478 5.94404 6.85291 5.97686C6.93728 5.99092 8.85916 5.99561 11.1185 5.99092C15.2013 5.97686 15.2295 5.97686 15.3607 5.87842C15.5904 5.70967 15.7029 5.49404 15.7029 5.23623C15.7029 4.94092 15.5623 4.68311 15.3279 4.55186C15.1498 4.45342 15.1451 4.45342 10.9873 4.45342C6.96541 4.45811 6.81541 4.46279 6.64666 4.54717Z" fill="white"/>
<path d="M6.64666 8.53154C6.32791 8.70029 6.17791 9.15498 6.31853 9.52061C6.38416 9.68936 6.67478 9.92842 6.85291 9.96123C6.93728 9.97529 8.85916 9.97998 11.1185 9.97529C15.2013 9.96123 15.2295 9.96123 15.3607 9.86279C15.5904 9.69404 15.7029 9.47842 15.7029 9.22061C15.7029 8.90654 15.5576 8.65342 15.3045 8.53154C15.117 8.43779 15.0185 8.43779 10.9638 8.43779C6.96541 8.44248 6.81541 8.44717 6.64666 8.53154Z" fill="white"/>
<path d="M16.2935 11.6534C15.3935 11.869 14.6763 12.5628 14.4091 13.4768C14.3107 13.819 14.2966 14.4518 14.3857 14.8128C14.5638 15.53 15.1076 16.205 15.7591 16.5143C16.7951 17.0112 17.9482 16.8237 18.7498 16.0362C19.6545 15.1456 19.7857 13.7487 19.0591 12.6893C18.4685 11.8268 17.3341 11.4003 16.2935 11.6534ZM17.381 13.2471C17.8404 13.4768 18.0748 13.9737 17.9341 14.4471C17.7935 14.93 17.4045 15.2346 16.931 15.2346C16.4435 15.2346 16.0498 14.93 15.9091 14.4471C15.7685 13.9737 15.9935 13.4768 16.4576 13.2471C16.781 13.0878 17.0576 13.0878 17.381 13.2471Z" fill="white"/>
<path d="M6.67468 12.5112C6.42155 12.6284 6.27624 12.8627 6.27624 13.158C6.27155 13.2799 6.29499 13.4393 6.31843 13.5049C6.38405 13.6737 6.67468 13.9127 6.8528 13.9455C6.93718 13.9596 7.88874 13.969 8.96218 13.9596C10.8606 13.9455 10.9169 13.9409 11.0481 13.8471C11.5122 13.5002 11.5122 12.8909 11.0481 12.544C10.9169 12.4502 10.8606 12.4455 8.89186 12.4362C6.99811 12.4221 6.8528 12.4268 6.67468 12.5112Z" fill="white"/>
<path d="M16.0732 17.9768C14.8404 18.2112 13.7904 18.9096 13.0779 19.9737C12.6279 20.6487 12.3279 21.5909 12.3279 22.3502C12.3279 22.9502 12.581 23.2502 13.0873 23.2502C13.2794 23.2502 13.3873 23.2221 13.4998 23.1471C13.7763 22.9549 13.8373 22.8284 13.8794 22.3502C13.9263 21.8252 14.0154 21.5065 14.2404 21.0706C14.4701 20.6206 15.0466 20.0487 15.5013 19.8143C16.7201 19.1815 18.0841 19.3924 19.0544 20.3674C19.6357 20.944 19.8888 21.5018 19.9638 22.3502C20.006 22.8284 20.0669 22.9549 20.3435 23.1424C20.456 23.2221 20.5638 23.2502 20.756 23.2502C21.0748 23.2502 21.2669 23.1377 21.4169 22.8706C21.5201 22.6877 21.5248 22.6409 21.5013 22.2002C21.3841 20.2221 20.006 18.5534 18.056 18.0424C17.5779 17.9159 16.5748 17.8831 16.0732 17.9768Z" fill="white"/>
</svg>
