<svg width="17" height="17" viewBox="0 0 17 17" fill="none" xmlns="http://www.w3.org/2000/svg">
<path d="M6.42004 2.05937C5.82317 2.25 5.34504 2.75313 5.21692 3.32187L5.18254 3.48438L4.72942 3.50313C4.42004 3.51562 4.23567 3.5375 4.13879 3.575C3.71067 3.7375 3.34504 4.12813 3.22004 4.55937C3.17629 4.7125 3.17004 5.21562 3.17004 9.25312C3.17004 13.6031 3.17317 13.7844 3.22942 13.9656C3.37317 14.425 3.76692 14.8156 4.22942 14.95C4.37629 14.9937 4.64192 15 6.12004 15C7.78254 15 7.84504 14.9969 7.94504 14.9375C8.24192 14.7562 8.25442 14.2625 7.96067 14.0719C7.88254 14.0188 7.74817 14.0156 6.21692 14C4.63254 13.9844 4.55754 13.9812 4.45442 13.9219C4.31692 13.8406 4.23567 13.7281 4.20129 13.575C4.16379 13.4125 4.16379 5.0875 4.20129 4.925C4.23567 4.77187 4.31692 4.65938 4.45442 4.57812C4.53879 4.53125 4.63254 4.51562 4.93879 4.50625L5.32004 4.49375L5.38567 4.62187C5.56692 4.975 6.04504 5.34062 6.47004 5.45312C6.73567 5.52187 9.60129 5.52187 9.86692 5.45312C10.2857 5.34375 10.6825 5.05 10.9138 4.67812L11.0263 4.49375L11.4044 4.50625C11.7075 4.51562 11.8044 4.53125 11.8857 4.57812C12.0232 4.65938 12.1044 4.77187 12.1388 4.925C12.1544 4.99062 12.17 5.6375 12.17 6.35938C12.17 7.6125 12.1732 7.675 12.2325 7.775C12.3263 7.925 12.4669 8 12.67 8C12.8732 8 13.0138 7.925 13.1075 7.775C13.1669 7.675 13.17 7.6125 13.17 6.19687C13.17 4.84062 13.1669 4.70937 13.1107 4.53438C12.9669 4.075 12.5732 3.68437 12.1107 3.55C11.995 3.51562 11.8138 3.5 11.5544 3.5H11.17V3.42188C11.17 3.29688 11.0263 2.94063 10.9013 2.75937C10.6669 2.41875 10.2888 2.14687 9.90442 2.04688C9.74817 2.00937 9.46379 2 8.15442 2.00313C6.74817 2.00313 6.57317 2.00937 6.42004 2.05937ZM9.71692 3.08125C9.99192 3.23125 10.1388 3.4625 10.1388 3.75C10.1388 3.96562 10.0607 4.1375 9.89817 4.28438C9.67629 4.48438 9.67629 4.48438 8.15442 4.48438C6.82317 4.48438 6.77629 4.48125 6.63879 4.41875C5.97629 4.10938 6.09192 3.15625 6.81067 3.02812C6.87942 3.01562 7.53254 3.00937 8.26379 3.00937C9.55754 3.01562 9.59504 3.01875 9.71692 3.08125Z" fill="white"/>
<path d="M5.39504 6.5625C5.24504 6.65625 5.17004 6.79688 5.17004 7C5.17004 7.20312 5.24504 7.34375 5.39504 7.4375C5.49504 7.49687 5.55754 7.5 8.17004 7.5C10.7825 7.5 10.845 7.49687 10.945 7.4375C11.095 7.34375 11.17 7.20312 11.17 7C11.17 6.79688 11.095 6.65625 10.945 6.5625C10.845 6.50313 10.7825 6.5 8.17004 6.5C5.55754 6.5 5.49504 6.50313 5.39504 6.5625Z" fill="white"/>
<path d="M5.39504 8.5625C5.24504 8.65625 5.17004 8.79688 5.17004 9C5.17004 9.20312 5.24504 9.34375 5.39504 9.4375C5.49504 9.49687 5.55754 9.5 7.42004 9.5C9.28254 9.5 9.34504 9.49687 9.44504 9.4375C9.59504 9.34375 9.67004 9.20312 9.67004 9C9.67004 8.79688 9.59504 8.65625 9.44504 8.5625C9.34504 8.50313 9.28254 8.5 7.42004 8.5C5.55754 8.5 5.49504 8.50313 5.39504 8.5625Z" fill="white"/>
<path d="M11.2325 9.05977C10.5981 9.19727 10.0981 9.47227 9.62002 9.95039C9.13252 10.4379 8.86377 10.9316 8.72627 11.5941C8.63564 12.0254 8.66064 12.741 8.77627 13.1348C8.94814 13.716 9.22314 14.1723 9.64502 14.5816C10.0575 14.9848 10.4731 15.2254 11.0356 15.3941C11.4294 15.5098 12.145 15.5348 12.5763 15.4441C13.2388 15.3066 13.7325 15.0379 14.22 14.5504C14.87 13.9004 15.17 13.1754 15.17 12.2504C15.17 11.3254 14.87 10.6004 14.22 9.95039C13.7356 9.46602 13.2356 9.19414 12.5919 9.05977C12.22 8.98164 11.6013 8.98164 11.2325 9.05977ZM12.37 10.066C13.1138 10.2098 13.7794 10.8066 14.0356 11.5598C14.145 11.8785 14.17 12.3879 14.0919 12.7348C13.9169 13.5285 13.2606 14.2035 12.4606 14.4098C11.0763 14.766 9.69814 13.6973 9.70127 12.266C9.70127 12.0941 9.72314 11.866 9.74814 11.7566C10.0263 10.5785 11.1794 9.83477 12.37 10.066Z" fill="white"/>
<path d="M12.9669 10.991C12.9325 10.9972 12.87 11.0097 12.8263 11.0191C12.7825 11.0285 12.495 11.291 12.1325 11.6504L11.5107 12.2629L11.2825 12.0316C11.0263 11.7754 10.97 11.7441 10.7513 11.7472C10.3982 11.7472 10.1638 12.1097 10.2982 12.4597C10.3357 12.5597 11.1044 13.3472 11.2575 13.4441C11.4138 13.541 11.6669 13.5347 11.82 13.4285C12.0325 13.2785 13.445 11.8347 13.4982 11.7097C13.5857 11.4972 13.5388 11.2785 13.37 11.1191C13.2794 11.0347 13.0825 10.9722 12.9669 10.991Z" fill="white"/>
<path d="M5.39504 10.5625C5.24504 10.6562 5.17004 10.7969 5.17004 11C5.17004 11.2031 5.24504 11.3438 5.39504 11.4375C5.49192 11.4969 5.55442 11.5 6.67004 11.5C7.78567 11.5 7.84817 11.4969 7.94504 11.4375C8.09504 11.3438 8.17004 11.2031 8.17004 11C8.17004 10.7969 8.09504 10.6562 7.94504 10.5625C7.84817 10.5031 7.78567 10.5 6.67004 10.5C5.55442 10.5 5.49192 10.5031 5.39504 10.5625Z" fill="white"/>
</svg>
