<svg width="29" height="30" viewBox="0 0 29 30" fill="none" xmlns="http://www.w3.org/2000/svg">
<g clip-path="url(#clip0_4705_69252)">
<path d="M22.7995 22.8136V26.0536C22.8007 26.3544 22.7391 26.6521 22.6186 26.9277C22.4981 27.2033 22.3214 27.4507 22.0997 27.654C21.8781 27.8573 21.6164 28.0122 21.3315 28.1085C21.0466 28.2049 20.7446 28.2407 20.4451 28.2136C17.1217 27.8525 13.9294 26.7169 11.1247 24.898C8.51521 23.2398 6.30284 21.0275 4.64468 18.418C2.81946 15.6005 1.68358 12.3927 1.32908 9.05439C1.30209 8.75574 1.33758 8.45474 1.4333 8.17055C1.52901 7.88636 1.68286 7.62522 1.88503 7.40375C2.0872 7.18227 2.33327 7.00532 2.60757 6.88416C2.88188 6.763 3.17841 6.70028 3.47828 6.69999H6.71828C7.24241 6.69484 7.75053 6.88044 8.14794 7.22221C8.54535 7.56398 8.80492 8.0386 8.87828 8.55759C9.01503 9.59447 9.26864 10.6125 9.63428 11.5924C9.77959 11.979 9.81103 12.3991 9.7249 12.8029C9.63876 13.2068 9.43865 13.5776 9.14828 13.8712L7.77668 15.2428C9.31412 17.9466 11.5528 20.1854 14.2567 21.7228L15.6283 20.3512C15.9219 20.0608 16.2926 19.8607 16.6965 19.7746C17.1004 19.6884 17.5205 19.7199 17.9071 19.8652C18.8869 20.2308 19.905 20.4844 20.9419 20.6212C21.4665 20.6952 21.9456 20.9595 22.2881 21.3637C22.6306 21.7679 22.8126 22.2839 22.7995 22.8136Z" stroke="#016DEA" stroke-width="1.5" stroke-linecap="round" stroke-linejoin="round"/>
</g>
<circle cx="24" cy="5.5" r="5" fill="#FA0101"/>
<path d="M25.5 4L22.5 7" stroke="white" stroke-linecap="round" stroke-linejoin="round"/>
<path d="M22.5 4L25.5 7" stroke="white" stroke-linecap="round" stroke-linejoin="round"/>
<defs>
<clipPath id="clip0_4705_69252">
<rect width="24" height="24" fill="white" transform="translate(0 5.5)"/>
</clipPath>
</defs>
</svg>
