<svg width="29" height="30" viewBox="0 0 29 30" fill="none" xmlns="http://www.w3.org/2000/svg">
<g clip-path="url(#clip0_4705_69456)">
<path d="M11.9997 20.1667C12.5574 20.1667 13.1026 20.0013 13.5664 19.6914C14.0301 19.3816 14.3916 18.9411 14.605 18.4258C14.8185 17.9106 14.8743 17.3435 14.7655 16.7965C14.6567 16.2495 14.3881 15.747 13.9937 15.3526C13.5993 14.9582 13.0969 14.6897 12.5498 14.5809C12.0028 14.472 11.4358 14.5279 10.9205 14.7413C10.4052 14.9548 9.96481 15.3162 9.65494 15.78C9.34508 16.2437 9.17969 16.7889 9.17969 17.3467C9.17969 18.0946 9.47679 18.8119 10.0056 19.3407C10.5345 19.8696 11.2518 20.1667 11.9997 20.1667ZM11.9997 15.5933C12.3465 15.5933 12.6855 15.6962 12.9738 15.8888C13.2621 16.0815 13.4869 16.3553 13.6196 16.6757C13.7523 16.9961 13.787 17.3486 13.7193 17.6887C13.6517 18.0288 13.4847 18.3413 13.2395 18.5865C12.9943 18.8317 12.6819 18.9987 12.3417 19.0663C12.0016 19.134 11.6491 19.0992 11.3287 18.9665C11.0083 18.8338 10.7345 18.6091 10.5418 18.3208C10.3492 18.0324 10.2464 17.6935 10.2464 17.3467C10.2464 16.8817 10.4311 16.4357 10.7599 16.1069C11.0887 15.7781 11.5347 15.5933 11.9997 15.5933Z" fill="#016DEA"/>
<path d="M14.6673 8.16668C14.6673 7.81305 14.5268 7.47392 14.2768 7.22387C14.0267 6.97382 13.6876 6.83334 13.334 6.83334H10.6673C10.3137 6.83334 9.97456 6.97382 9.72451 7.22387C9.47446 7.47392 9.33398 7.81305 9.33398 8.16668V12.8333H14.6673V8.16668ZM13.334 11.5H10.6673V8.16668H13.334V11.5Z" fill="#016DEA"/>
<path d="M17.3327 25.5V23.9667C17.3347 23.789 17.2732 23.6164 17.1594 23.48C16.5124 22.7592 15.7148 22.1897 14.823 21.8118C13.9312 21.4339 12.9672 21.2569 11.9994 21.2933C11.03 21.2594 10.065 21.4395 9.17315 21.8209C8.28129 22.2023 7.48446 22.7756 6.83937 23.5C6.72604 23.6367 6.66465 23.8091 6.66604 23.9867V25.5H7.73271V24.08C8.27971 23.5051 8.94357 23.0541 9.67956 22.7574C10.4156 22.4607 11.2066 22.3252 11.9994 22.36C12.7927 22.3261 13.584 22.4626 14.32 22.7605C15.056 23.0583 15.7196 23.5106 16.266 24.0867V25.5H17.3327Z" fill="#016DEA"/>
<path d="M18.6667 9.5H16V10.8333H18.6667V26.8333H5.33333V10.8333H8V9.5H5.33333C4.97971 9.5 4.64057 9.64048 4.39052 9.89052C4.14048 10.1406 4 10.4797 4 10.8333V26.8333C4 27.187 4.14048 27.5261 4.39052 27.7761C4.64057 28.0262 4.97971 28.1667 5.33333 28.1667H18.6667C19.0203 28.1667 19.3594 28.0262 19.6095 27.7761C19.8595 27.5261 20 27.187 20 26.8333V10.8333C20 10.4797 19.8595 10.1406 19.6095 9.89052C19.3594 9.64048 19.0203 9.5 18.6667 9.5Z" fill="#016DEA"/>
</g>
<circle cx="24" cy="5.5" r="5" fill="#FA0101"/>
<path d="M25.5 4L22.5 7" stroke="white" stroke-linecap="round" stroke-linejoin="round"/>
<path d="M22.5 4L25.5 7" stroke="white" stroke-linecap="round" stroke-linejoin="round"/>
<defs>
<clipPath id="clip0_4705_69456">
<rect width="24" height="24" fill="white" transform="translate(0 5.5)"/>
</clipPath>
</defs>
</svg>
