<svg width="17" height="19" viewBox="0 0 17 19" fill="none" xmlns="http://www.w3.org/2000/svg">
<g clip-path="url(#clip0_6857_199548)">
<path d="M11.7693 0.851868C11.595 2.80928 12.748 4.48986 14.5992 4.9438C14.9678 5.03421 15.3593 5.03701 15.7405 5.07429C15.8803 5.08874 16.0201 5.09386 16.1656 5.10412V8.82647C14.6136 8.93133 13.1539 8.64005 11.766 7.85568V8.07799C11.766 9.74645 11.7931 11.4158 11.7632 13.0838C11.7274 15.0739 10.8451 16.6421 9.19995 17.7444C6.12681 19.8015 1.95752 18.5031 0.564028 15.0823C-0.332188 12.8844 0.324943 10.2283 2.13462 8.68758C3.39622 7.61287 4.85356 7.1636 6.49732 7.27778C6.52622 7.27778 6.55558 7.28337 6.58401 7.28757L7.28309 7.38544V11.3515C7.07336 11.2826 6.86784 11.2117 6.66137 11.1479C5.54285 10.7909 4.43458 11.3343 4.10555 12.4146C3.87579 13.1701 4.05009 13.8486 4.6224 14.3925C5.20357 14.9448 5.90078 15.0972 6.65718 14.8194C7.39727 14.5477 7.82231 14.001 7.92997 13.2167C7.94683 13.0841 7.95461 12.9505 7.95327 12.8168C7.95482 8.82833 7.95715 4.84002 7.96026 0.851868H11.7693ZM9.00561 1.89815V2.14609C9.00561 5.72226 9.00452 9.29842 9.00235 12.8746C9.00578 13.0837 8.99019 13.2928 8.95574 13.4991C8.65188 15.1368 7.18009 16.1915 5.5312 15.9612C4.16334 15.7702 3.08397 14.6311 2.96233 13.2502C2.84115 11.8777 3.69076 10.5616 5.00503 10.1445C5.39092 10.0219 5.8085 9.99765 6.22655 9.92542V8.32313C5.74553 8.29649 5.26319 8.34029 4.79484 8.45316C2.37557 9.00776 0.768158 11.5631 1.32556 13.9782C2.03442 17.0513 5.4846 18.6145 8.25154 17.0858C9.85849 16.2003 10.7016 14.8022 10.716 12.9594C10.7342 10.6567 10.7104 8.35389 10.7053 6.05113C10.7053 5.98123 10.7123 5.91132 10.7193 5.78642C12.0056 6.92172 13.3977 7.70142 15.1137 7.77506V6.15133C14.6434 6.0255 14.1769 5.95373 13.7528 5.77849C12.0671 5.08361 11.0637 3.82621 10.7514 2.02585C10.7431 1.97925 10.6755 1.90374 10.6345 1.90328C10.0994 1.89536 9.56394 1.89815 9.00561 1.89815Z" fill="white"/>
</g>
<defs>
<clipPath id="clip0_6857_199548">
<rect width="16" height="17.8768" fill="white" transform="translate(0.166016 0.851868)"/>
</clipPath>
</defs>
</svg>
