<svg width="41" height="40" viewBox="0 0 41 40" fill="none" xmlns="http://www.w3.org/2000/svg">
<rect x="0.5" width="40" height="40" rx="20" fill="#F4F4F4"/>
<g clip-path="url(#clip0_8128_140672)">
<path d="M14.4281 12.15C14.3844 12.1969 14.375 12.2812 14.375 12.6156V13.025L13.775 13.0375C13.275 13.0469 13.1469 13.0594 13.0312 13.1094C12.7 13.2469 12.4719 13.475 12.3375 13.8062L12.2656 13.9844V20.25C12.2656 26.2406 12.2688 26.525 12.3219 26.7C12.5063 27.3 12.9125 27.725 13.475 27.9094L13.7031 27.9844H20C26.025 27.9844 26.3063 27.9812 26.4844 27.9281C26.9719 27.7781 27.35 27.4625 27.5594 27.0281C27.6281 26.8813 27.7 26.675 27.7188 26.5625C27.7406 26.4187 27.75 24.5312 27.7438 20.1562L27.7344 13.9531L27.6594 13.7656C27.5563 13.5062 27.2719 13.225 27.0156 13.125C26.85 13.0594 26.7656 13.05 26.2594 13.0375L25.6875 13.025V12.6125C25.6875 12.25 25.6813 12.1906 25.6313 12.1469C25.5531 12.075 25.3875 12.0813 25.3125 12.1562C25.2563 12.2125 25.25 12.2594 25.25 12.625V13.0312H23.6562H22.0625V12.6156C22.0625 12.1406 22.0406 12.0938 21.8344 12.0938C21.6531 12.0938 21.625 12.1625 21.625 12.6312V13.0312H20.0312H18.4375V12.6312C18.4375 12.1594 18.4125 12.0938 18.2219 12.0938C18.0219 12.0938 18 12.1438 18 12.6187V13.0312H16.4062H14.8125V12.625C14.8125 12.2594 14.8063 12.2125 14.75 12.1562C14.6688 12.075 14.4969 12.075 14.4281 12.15ZM14.375 13.8062V14.1469L14.2531 14.1812C14.1 14.2281 13.8656 14.4344 13.7594 14.6156C13.6406 14.8187 13.6219 15.1625 13.7188 15.4125C13.8062 15.6438 14.0594 15.8844 14.2875 15.9531C14.7531 16.0906 15.2219 15.8938 15.4281 15.475C15.5406 15.2469 15.5469 14.9094 15.4438 14.6812C15.3563 14.4844 15.1406 14.2719 14.9594 14.2031L14.8125 14.1469V13.8094V13.4688H16.4062H18V13.8031V14.1406L17.8281 14.2156C17.1188 14.5219 17.1 15.5344 17.7938 15.9C17.9313 15.9719 17.9906 15.9844 18.2188 15.9844C18.5094 15.9844 18.6438 15.9344 18.8563 15.7469C19.1406 15.4969 19.2281 15.0094 19.0531 14.65C18.9531 14.4437 18.7719 14.275 18.5719 14.2L18.4375 14.1469V13.8094V13.4688H20.0312H21.625V13.8062V14.1469L21.5031 14.1812C21.35 14.2281 21.1156 14.4344 21.0094 14.6156C20.8906 14.8187 20.8719 15.1625 20.9688 15.4125C21.0594 15.6531 21.3094 15.8844 21.5563 15.9563C22.0156 16.0906 22.5031 15.8719 22.6969 15.4406C22.7875 15.2437 22.7844 14.8875 22.6938 14.6812C22.6062 14.4875 22.3906 14.2719 22.2094 14.2031L22.0625 14.1469V13.8094V13.4688H23.6562H25.25V13.8031V14.1406L25.0781 14.2156C24.5188 14.4563 24.35 15.2094 24.7531 15.6687C25.2 16.1781 26.0094 16.075 26.3031 15.475C26.4281 15.2219 26.4281 14.9031 26.3031 14.65C26.2031 14.4437 26.0219 14.275 25.8219 14.2L25.6875 14.1469V13.8031V13.4625L26.2125 13.475C26.7937 13.4906 26.8844 13.5156 27.0844 13.725C27.2969 13.9469 27.2969 13.9344 27.3063 15.4125L27.3156 16.75H20.0188H12.7188V15.4125V14.075L12.8063 13.9062C12.9094 13.7031 13.0688 13.5687 13.2719 13.5125C13.3625 13.4906 13.6156 13.4719 13.9 13.4719L14.375 13.4688V13.8062ZM14.4281 15.225C14.5 15.3031 14.6688 15.2969 14.75 15.2125C14.8031 15.1562 14.8125 15.1031 14.8125 14.9C14.8125 14.7656 14.825 14.6562 14.8375 14.6562C14.8531 14.6562 14.8937 14.6875 14.9281 14.725C15.125 14.9437 15.1063 15.2625 14.8906 15.4344C14.6844 15.5938 14.4313 15.5813 14.2531 15.4031C14.0531 15.2031 14.0562 14.9187 14.2594 14.7156L14.3594 14.6125L14.3688 14.8906C14.375 15.0938 14.3906 15.1844 14.4281 15.225ZM18.0656 15.225C18.1531 15.3 18.2969 15.2969 18.375 15.2188C18.4281 15.1656 18.4375 15.1156 18.4375 14.9062C18.4375 14.7688 18.45 14.6562 18.4625 14.6562C18.4969 14.6562 18.6063 14.7781 18.6531 14.8656C18.7 14.9594 18.6969 15.175 18.6438 15.275C18.4844 15.5781 18.1156 15.6375 17.8812 15.3969C17.6844 15.1937 17.6813 14.95 17.8719 14.7406L17.9844 14.6156L17.9938 14.8938C18 15.1312 18.0094 15.1812 18.0656 15.225ZM21.7 15.2375C21.7875 15.3 21.9281 15.2906 22 15.2188C22.0531 15.1656 22.0625 15.1156 22.0625 14.9062C22.0625 14.7688 22.075 14.6562 22.0906 14.6562C22.1062 14.6562 22.1562 14.7 22.2 14.75C22.3562 14.9375 22.3438 15.225 22.175 15.3938C21.9781 15.5906 21.6938 15.5938 21.5031 15.4031C21.3031 15.2031 21.3063 14.9 21.5094 14.7094L21.6094 14.6156L21.625 14.9031C21.6375 15.1438 21.65 15.2 21.7 15.2375ZM25.325 15.2375C25.4094 15.2969 25.5594 15.2937 25.6313 15.2281C25.6781 15.1875 25.6875 15.1312 25.6875 14.9156C25.6875 14.775 25.7 14.6562 25.7125 14.6562C25.7469 14.6562 25.8562 14.7781 25.9031 14.8656C25.9219 14.9031 25.9375 14.9937 25.9375 15.0687C25.9375 15.475 25.4438 15.6937 25.15 15.4156C24.9344 15.2125 24.9219 14.9594 25.1219 14.7406L25.2344 14.6156L25.25 14.9031C25.2625 15.1438 25.275 15.2 25.325 15.2375ZM27.3125 21.7094C27.3125 24.4969 27.3 26.2844 27.2812 26.4156C27.2156 26.8562 26.9438 27.225 26.5406 27.4156L26.3281 27.5156H20H13.6719L13.5 27.4344C13.1469 27.2656 12.8875 26.9781 12.7812 26.6344C12.7188 26.4344 12.7188 26.3531 12.7188 21.825V17.2188H20.0156H27.3125V21.7094Z" fill="#AAA9AD"/>
<path d="M14.9375 18.7687C14.5938 18.8625 14.3156 19.1 14.1625 19.4312C14.0781 19.6094 14.0781 19.6125 14.0781 20.3594V21.1094L14.1688 21.2969C14.2875 21.5344 14.4969 21.7437 14.7344 21.8625L14.9219 21.9531H15.6875H16.4531L16.6438 21.8531C16.8844 21.7281 17.1281 21.4625 17.225 21.225C17.2938 21.0562 17.2969 21.0062 17.2969 20.3438V19.6406L17.2 19.4344C17.0625 19.1437 16.9094 18.9906 16.6313 18.85L16.3938 18.7344L15.7531 18.7281C15.2563 18.7219 15.0688 18.7313 14.9375 18.7687ZM16.4188 19.2313C16.575 19.3094 16.7219 19.4562 16.8 19.6125C16.8531 19.7219 16.8594 19.8031 16.8594 20.3594C16.8594 21.0656 16.8406 21.1375 16.6063 21.3438C16.4063 21.5187 16.3438 21.5312 15.6813 21.5312C15.0063 21.5312 14.9219 21.5094 14.7219 21.3094C14.5219 21.1094 14.5 21.0219 14.5 20.3594C14.5 19.8 14.5063 19.7562 14.575 19.6063C14.6156 19.5187 14.7031 19.4031 14.7688 19.35C14.9781 19.1781 15.075 19.1594 15.7188 19.1656C16.2188 19.1719 16.3125 19.1812 16.4188 19.2313Z" fill="#AAA9AD"/>
<path d="M19.25 18.7687C18.9219 18.8563 18.6156 19.125 18.4625 19.4562C18.3938 19.6031 18.3906 19.6469 18.3906 20.3438V21.0781L18.4875 21.2812C18.6031 21.5281 18.8219 21.75 19.0594 21.8687L19.2344 21.9531H20H20.7656L20.9406 21.8687C21.1781 21.75 21.3969 21.5281 21.5125 21.2812L21.6094 21.0781V20.3438C21.6094 19.6437 21.6063 19.6031 21.5375 19.4531C21.3813 19.1156 21.0781 18.8563 20.7344 18.7656C20.4844 18.7031 19.4969 18.7031 19.25 18.7687ZM20.6594 19.2031C20.8469 19.2687 20.9844 19.3844 21.0844 19.5562C21.1688 19.7 21.1719 19.7156 21.1813 20.2781C21.1938 20.95 21.1719 21.0625 20.9906 21.2719C20.7781 21.5094 20.7063 21.5312 20 21.5312C19.2938 21.5312 19.2219 21.5094 19.0094 21.2719C18.8281 21.0625 18.8063 20.95 18.8188 20.2781C18.8281 19.7156 18.8313 19.7 18.9156 19.5562C19.0125 19.3875 19.1531 19.2719 19.3313 19.2062C19.5094 19.1406 20.475 19.1375 20.6594 19.2031Z" fill="#AAA9AD"/>
<path d="M23.6125 18.7531C23.2844 18.8344 22.9531 19.0969 22.8156 19.3906C22.7094 19.6187 22.6875 19.7687 22.6875 20.3594C22.6875 21.1125 22.7375 21.2937 23.025 21.6031C23.1063 21.6875 23.2563 21.8 23.3594 21.8562L23.5469 21.9531H24.3125H25.0781L25.2656 21.8625C25.5031 21.7437 25.7125 21.5344 25.8312 21.2969L25.9219 21.1094V20.3594V19.6094L25.8188 19.4C25.6906 19.1406 25.4469 18.9062 25.1938 18.8094C25.0312 18.7437 24.9562 18.7375 24.375 18.7313C24.0219 18.725 23.6813 18.7344 23.6125 18.7531ZM24.9719 19.2031C25.1688 19.2719 25.3406 19.4219 25.425 19.6063C25.4938 19.7562 25.5 19.8 25.5 20.3594C25.5 21.0219 25.4781 21.1094 25.2781 21.3094C25.0781 21.5094 24.9938 21.5312 24.3188 21.5312C23.6562 21.5312 23.5938 21.5187 23.3938 21.3438C23.1688 21.1438 23.1438 21.0562 23.1312 20.4219C23.1219 20.0531 23.1312 19.8187 23.1562 19.7375C23.2344 19.4781 23.4438 19.2625 23.6906 19.1906C23.8719 19.1406 24.8125 19.15 24.9719 19.2031Z" fill="#AAA9AD"/>
<path d="M14.9 22.8406C14.8031 22.8719 14.675 22.9281 14.6156 22.9656C14.4531 23.0656 14.2531 23.2969 14.1625 23.4938C14.0781 23.6719 14.0781 23.675 14.0781 24.4219V25.1719L14.1688 25.3594C14.2875 25.5969 14.4969 25.8063 14.7344 25.925L14.9219 26.0156H15.6719H16.4219L16.6313 25.9125C16.8875 25.7875 17.1219 25.5406 17.225 25.2875C17.2938 25.1188 17.2969 25.0688 17.2969 24.4219C17.2969 23.8219 17.2906 23.7125 17.2375 23.575C17.1188 23.2531 16.8719 23 16.5375 22.8625C16.4094 22.8094 16.3031 22.8 15.7344 22.7906C15.1625 22.7844 15.0563 22.7906 14.9 22.8406ZM16.3531 23.2688C16.5531 23.3375 16.7625 23.55 16.8281 23.75C16.8719 23.8781 16.8781 24.0094 16.8688 24.475C16.8594 25.1031 16.8344 25.1938 16.6344 25.3813C16.4406 25.5656 16.3219 25.5938 15.6719 25.5938C15 25.5938 14.9219 25.5719 14.7125 25.3563C14.5156 25.15 14.5 25.075 14.5 24.4156C14.5 23.7719 14.5281 23.6531 14.7125 23.4594C14.9063 23.2563 15.0281 23.225 15.675 23.2219C16.0875 23.2188 16.2406 23.2313 16.3531 23.2688Z" fill="#AAA9AD"/>
<path d="M19.25 22.8312C18.9188 22.9219 18.625 23.1719 18.4719 23.4969C18.3906 23.6719 18.3906 23.6781 18.3906 24.4062V25.1406L18.4875 25.3438C18.6063 25.5906 18.7969 25.7875 19.0469 25.9187L19.2344 26.0156H20H20.7656L20.9531 25.9187C21.2031 25.7875 21.3938 25.5906 21.5125 25.3438L21.6094 25.1406V24.4062C21.6094 23.6781 21.6094 23.6719 21.5281 23.4969C21.3719 23.1656 21.0813 22.9188 20.7344 22.8281C20.4844 22.7625 19.4969 22.7656 19.25 22.8312ZM20.6594 23.2656C20.8563 23.3344 21.0125 23.4719 21.1063 23.6625C21.1844 23.8187 21.1875 23.8438 21.1875 24.4031C21.1875 24.9469 21.1813 24.9937 21.1125 25.1406C21.0344 25.3125 20.8594 25.4844 20.7 25.55C20.5531 25.6125 19.4469 25.6125 19.3 25.55C19.1406 25.4844 18.9656 25.3125 18.8875 25.1406C18.8188 24.9937 18.8125 24.9469 18.8125 24.4031C18.8125 23.8438 18.8156 23.8187 18.8938 23.6625C18.9844 23.4781 19.1438 23.3344 19.3281 23.2687C19.5125 23.2031 20.4688 23.2 20.6594 23.2656Z" fill="#AAA9AD"/>
<path d="M23.5933 22.8219C23.1308 22.9531 22.8152 23.2906 22.7152 23.75C22.6965 23.8406 22.6871 24.1531 22.6933 24.5063C22.7027 25.0469 22.7121 25.1281 22.7777 25.2875C22.8746 25.5406 23.109 25.7875 23.3683 25.9125L23.5777 26.0156H24.3277H25.0777L25.259 25.9281C25.4902 25.8125 25.7183 25.5844 25.834 25.3531L25.9215 25.1719V24.4219V23.6719L25.8183 23.4625C25.6933 23.2031 25.4465 22.9688 25.1933 22.8719C25.0308 22.8062 24.959 22.7969 24.3746 22.7906C23.9277 22.7844 23.6902 22.7938 23.5933 22.8219ZM25.0777 23.3031C25.2402 23.3906 25.3558 23.5156 25.434 23.6875C25.4902 23.8125 25.4996 23.8937 25.4996 24.4156C25.4996 25.075 25.484 25.15 25.2871 25.3562C25.0808 25.5719 24.9996 25.5938 24.3465 25.5938C23.7027 25.5938 23.5902 25.5719 23.4058 25.4125C23.1683 25.2094 23.1402 25.125 23.1308 24.475C23.1183 23.7969 23.1465 23.6719 23.3621 23.4562C23.5746 23.2406 23.6683 23.2188 24.359 23.2281C24.8996 23.2344 24.9652 23.2406 25.0777 23.3031Z" fill="#AAA9AD"/>
</g>
<defs>
<clipPath id="clip0_8128_140672">
<rect width="16" height="16" fill="white" transform="translate(12 12)"/>
</clipPath>
</defs>
</svg>
