<svg width="16" height="16" viewBox="0 0 16 16" fill="none" xmlns="http://www.w3.org/2000/svg">
<path d="M7.28125 0.537477C6.70625 0.553102 5.84687 0.565601 5.375 0.565601C4.45 0.565601 4.225 0.587477 3.98437 0.706226C3.775 0.812476 3.54062 1.04373 3.45 1.23435C3.31563 1.5156 3.36875 1.89998 3.57187 2.12185C3.75 2.3156 4.07187 2.43748 4.4 2.43748C4.57812 2.43748 4.59687 2.44373 4.57812 2.4906C4.5125 2.6656 4.4625 3.19998 4.47812 3.5781C4.5125 4.4031 4.74687 5.13123 5.2 5.80935C5.57812 6.37185 5.97812 6.7406 6.61875 7.1156C7.14375 7.42185 7.28125 7.56248 7.28125 7.8031C7.28125 7.95935 7.1375 8.20623 6.9625 8.34998C6.89062 8.40935 6.70937 8.53435 6.5625 8.62498C5.80312 9.09998 5.2875 9.66248 4.92187 10.4219C4.6125 11.0625 4.5 11.5281 4.47812 12.2562C4.4625 12.7687 4.50937 13.2625 4.59687 13.4937C4.6125 13.5375 4.62187 13.575 4.61562 13.5812C4.6125 13.5875 4.50937 13.6062 4.39062 13.625C3.8125 13.7125 3.375 14.1437 3.375 14.6187C3.375 14.85 3.4375 15.0031 3.60937 15.175C3.71875 15.2906 3.81875 15.3562 3.95312 15.4031L4.14062 15.4719L7.85937 15.4781C11.2969 15.4844 11.5937 15.4812 11.7719 15.4312C12.0375 15.3562 12.1969 15.2719 12.3469 15.1219C12.7031 14.7656 12.7219 14.2812 12.3906 13.9531C12.225 13.7875 11.9844 13.6812 11.6781 13.6375C11.5062 13.6156 11.5125 13.6625 11.6156 13.2187C11.7 12.8531 11.6906 11.9312 11.6 11.5094C11.5062 11.0781 11.3719 10.7062 11.1656 10.3094C10.8187 9.63435 10.3469 9.12498 9.64687 8.66873C9.09375 8.30623 8.95 8.16248 8.875 7.89998C8.8 7.64373 8.95 7.45935 9.50937 7.1281C9.9125 6.88748 10.0875 6.75935 10.3094 6.5531C10.9875 5.9156 11.4125 5.14685 11.5969 4.2281C11.6781 3.80935 11.6875 3.11873 11.6125 2.72185C11.5875 2.57498 11.5719 2.44685 11.5781 2.43435C11.5875 2.42185 11.6531 2.4031 11.7281 2.39373C12.0844 2.3406 12.4719 2.03748 12.575 1.7281C12.75 1.21873 12.4812 0.796851 11.8844 0.640601C11.5156 0.543727 9.04375 0.487476 7.28125 0.537477ZM11.3594 1.05935C11.9094 1.10935 12.1375 1.22185 12.1375 1.44998C12.1375 1.58435 12.0062 1.76248 11.8437 1.84373C11.6062 1.9656 11.4187 1.97185 7.75 1.96248L4.20312 1.9531L4.075 1.88435C3.90625 1.79373 3.825 1.63435 3.875 1.48748C3.91875 1.3531 4.075 1.20623 4.25937 1.12498C4.40312 1.06248 4.46562 1.05935 5.76875 1.04685C6.51875 1.0406 7.14062 1.02498 7.15 1.0156C7.18125 0.984351 10.9469 1.02498 11.3594 1.05935ZM11.1125 2.69373C11.1812 2.99685 11.2 3.90623 11.1375 3.96873C11.1125 3.99373 11.0125 3.98748 10.7625 3.9406C9.00937 3.6156 7.28437 3.60935 5.47187 3.92185C5.225 3.9656 5.0125 3.99373 5.00312 3.98435C4.99375 3.97185 4.98125 3.7781 4.975 3.5531C4.9625 3.16248 4.99375 2.82185 5.06562 2.5531L5.09687 2.43748H8.075H11.0531L11.1125 2.69373ZM9.20937 4.22185C9.98125 4.28435 11 4.4531 11 4.5156C11 4.67185 10.7062 5.28123 10.475 5.60935C10.1344 6.09373 9.81562 6.37498 9.20312 6.73435C8.60625 7.08435 8.40937 7.32185 8.38125 7.72498C8.35625 8.06248 8.48437 8.35935 8.775 8.64373C8.8375 8.70623 9.0875 8.88748 9.32812 9.04685C9.56875 9.20623 9.85937 9.42498 9.975 9.53123C10.3812 9.89998 10.7781 10.5156 10.9812 11.0906C11.0281 11.2187 11.0594 11.325 11.0562 11.3312C11.05 11.3344 10.9187 11.2781 10.7656 11.2C10.3531 10.9969 10.0656 10.9312 9.59375 10.9312C9.09062 10.9312 8.84375 11 8.07812 11.3656C7.76875 11.5125 7.45937 11.6531 7.39062 11.6781C6.9625 11.8312 6.3875 11.8594 5.95312 11.75C5.67812 11.6812 5.13125 11.4281 5.10312 11.3562C5.08125 11.3 5.22187 10.9 5.35 10.6406C5.7 9.94373 6.17812 9.4406 6.91875 8.98435C7.39062 8.69373 7.64375 8.39998 7.7375 8.03123C7.86875 7.51248 7.64375 7.14685 6.91875 6.72185C6.73125 6.60935 6.5 6.46248 6.40625 6.38748C6.03125 6.09998 5.6125 5.59373 5.39687 5.1656C5.30625 4.99373 5.125 4.54685 5.125 4.5031C5.125 4.45623 6.45937 4.24685 7.01562 4.20935C7.4 4.18435 8.84687 4.1906 9.20937 4.22185ZM10.0812 11.4687C10.4125 11.5531 10.7281 11.7156 10.9781 11.9312C11.2156 12.1375 11.2375 12.2031 11.2031 12.6031C11.1812 12.875 11.0906 13.3687 11.0375 13.5031L11.0062 13.5844L9.47812 13.5687C8.5375 13.5594 7.42187 13.5687 6.56875 13.5937C5.66875 13.6219 5.175 13.625 5.15625 13.6062C5.1375 13.5875 5.0875 13.4344 5.04687 13.2625C4.95625 12.9187 4.91562 12.4094 4.95 12.0875L4.97187 11.8812L5.22187 12.0031C5.7375 12.2625 6.45625 12.3687 7.02187 12.2687C7.42187 12.2 7.6125 12.1312 8.28437 11.8094C8.60312 11.6562 8.96875 11.5031 9.09687 11.4687C9.40312 11.3906 9.76562 11.3906 10.0812 11.4687ZM11.1906 14.0906C11.5844 14.1125 11.7094 14.1312 11.8594 14.1937C12.1906 14.325 12.2344 14.5531 11.9719 14.7906C11.7437 14.9937 11.975 14.9844 7.89062 14.9844C4.2125 14.9844 4.17187 14.9844 4.0625 14.9219C4.00312 14.8875 3.92812 14.8031 3.89375 14.7375C3.83437 14.6187 3.83437 14.6156 3.9 14.4844C3.93437 14.4094 4.01562 14.3125 4.075 14.2656C4.275 14.1125 4.39687 14.0969 5.3375 14.0969C5.8125 14.0969 6.54062 14.0812 6.95312 14.0656C7.78437 14.0344 10.4281 14.05 11.1906 14.0906Z" fill="#016DEA"/>
</svg>
