<svg width="50" height="50" viewBox="0 0 50 50" fill="none" xmlns="http://www.w3.org/2000/svg">
<g clip-path="url(#clip0_6862_198011)">
<path d="M27.1852 0H22.816C10.8081 0 1.03906 9.76903 1.03906 21.777V22.658V29.1943V33.5352C1.03906 34.2093 1.58549 34.7555 2.25931 34.7555H2.7474H4.09089V35.6148C4.09089 36.2888 4.63732 36.835 5.31114 36.835H7.52564C9.715 36.835 11.4961 35.054 11.4961 32.8646V23.3284C11.4961 21.139 9.715 19.358 7.52564 19.358H5.31114C4.63732 19.358 4.09089 19.9041 4.09089 20.5782V21.4377H3.48809C3.6704 10.9322 12.2675 2.44049 22.816 2.44049H27.1852C37.7335 2.44049 46.3309 10.9322 46.5132 21.438H45.9104V20.5782C45.9104 19.9041 45.364 19.358 44.6901 19.358H42.4759C40.2865 19.358 38.5054 21.139 38.5054 23.3284V32.8651C38.5054 35.0545 40.2865 36.8355 42.4759 36.8355H44.6901C45.0281 36.8355 45.3339 36.6979 45.5548 36.4758V39.1096C45.5548 42.6422 42.6809 45.5159 39.1485 45.5159H31.8932C31.4088 44.3193 30.2363 43.4719 28.868 43.4719H25.5733C23.7734 43.4719 22.3091 44.9362 22.3091 46.7361C22.3091 48.536 23.7734 50.0003 25.5733 50.0003H28.868C30.2363 50.0003 31.4088 49.1529 31.8932 47.9563H39.1485C44.0266 47.9563 47.9953 43.9876 47.9953 39.1096V34.7289C48.5476 34.6122 48.9622 34.1227 48.9622 33.5357V29.1948V22.6582V21.7772C48.9622 9.76903 39.1932 0 27.1852 0Z" fill="#016DEA"/>
</g>
<defs>
<clipPath id="clip0_6862_198011">
<rect width="50" height="50" fill="white"/>
</clipPath>
</defs>
</svg>
