<svg width="16" height="17" viewBox="0 0 16 17" fill="none" xmlns="http://www.w3.org/2000/svg">
<g clip-path="url(#clip0_53_6952)">
<path d="M7.77212 0.562499C7.72524 0.599999 7.67524 0.681249 7.65649 0.743749C7.63774 0.815624 7.62524 1.39687 7.62524 2.25937C7.62524 3.75312 7.62837 3.7875 7.78149 3.92187C7.82837 3.96562 7.89399 3.98438 8.00024 3.98438C8.10649 3.98438 8.17212 3.96562 8.21899 3.92187C8.37212 3.7875 8.37524 3.75312 8.37524 2.25937C8.37524 1.39687 8.36274 0.815624 8.34399 0.743749C8.29712 0.581249 8.18149 0.499999 8.00024 0.499999C7.89712 0.499999 7.82837 0.518749 7.77212 0.562499Z" fill="white"/>
<path d="M6.24401 2.1092C5.38464 2.3467 4.48776 2.8092 3.80339 3.36858C3.50026 3.61858 2.93151 4.2092 2.70963 4.50608C2.29401 5.06233 1.93463 5.74983 1.72213 6.39045C1.54713 6.91858 1.50963 7.1217 1.56276 7.24983C1.65338 7.46858 1.95338 7.54045 2.12526 7.38108C2.20026 7.31233 2.24088 7.2217 2.32838 6.90608C2.90338 4.88733 4.47839 3.34045 6.51589 2.79358C6.83776 2.7092 6.93464 2.6342 6.95964 2.4467C6.99089 2.2217 6.82214 2.02795 6.60339 2.0342C6.55651 2.0342 6.39401 2.06858 6.24401 2.1092Z" fill="white"/>
<path d="M9.21274 2.08108C9.02212 2.1842 8.97212 2.46545 9.11899 2.62483C9.18774 2.69983 9.27837 2.74045 9.59399 2.82795C10.5846 3.11233 11.4065 3.59358 12.144 4.32795C12.894 5.0717 13.3846 5.90608 13.6721 6.90608C13.7596 7.2217 13.8002 7.31233 13.8752 7.38108C14.0471 7.54045 14.3471 7.46858 14.4377 7.24983C14.4909 7.1217 14.4534 6.91858 14.2784 6.39045C14.0659 5.74983 13.7065 5.06233 13.2909 4.50608C13.069 4.2092 12.5002 3.61858 12.1971 3.36858C11.5065 2.80295 10.6002 2.34045 9.74087 2.1092C9.40962 2.01858 9.33149 2.01545 9.21274 2.08108Z" fill="white"/>
<path d="M7.77525 5.38441C7.60962 5.43129 7.44399 5.55004 7.33462 5.69691C7.29087 5.75316 7.14399 6.00629 7.00024 6.26566C6.85962 6.52191 6.72212 6.75629 6.69399 6.78441C6.65962 6.81879 6.42524 6.87816 6.03149 6.95316C5.36899 7.07816 5.18774 7.14691 5.04399 7.33441C4.91899 7.49691 4.87524 7.63754 4.87524 7.87191C4.87524 8.17191 4.95649 8.30941 5.46274 8.84379C5.78149 9.18441 5.87524 9.30316 5.87524 9.36879C5.87524 9.41566 5.84712 9.67191 5.81274 9.93754C5.77837 10.2032 5.75024 10.4938 5.75024 10.5813C5.75024 10.9219 5.92524 11.1907 6.24712 11.3375C6.38774 11.4032 6.44712 11.4125 6.62212 11.4C6.80024 11.3844 6.90962 11.3438 7.41587 11.1094L8.00025 10.8344L8.58775 11.1094C9.09087 11.3438 9.20025 11.3844 9.37837 11.4C9.55337 11.4125 9.61275 11.4032 9.75337 11.3375C10.0534 11.2 10.2221 10.9657 10.244 10.6563C10.2502 10.5625 10.2252 10.25 10.1909 9.96254C10.1534 9.67504 10.1252 9.40629 10.1252 9.36254C10.1252 9.30629 10.2377 9.16566 10.5409 8.84379C11.044 8.30941 11.1252 8.17191 11.1252 7.87191C11.1252 7.63754 11.0815 7.49691 10.9565 7.33441C10.8127 7.14691 10.6315 7.07816 9.969 6.95004C9.63462 6.88754 9.34087 6.82191 9.32212 6.80629C9.30025 6.78754 9.15337 6.54066 8.994 6.25629C8.83462 5.96879 8.65962 5.68441 8.60025 5.61879C8.40337 5.40004 8.06587 5.30629 7.77525 5.38441ZM8.37212 6.65004C8.53775 6.94691 8.70962 7.23441 8.75337 7.29066C8.88462 7.45316 9.06587 7.51879 9.719 7.64379C10.3315 7.75941 10.4065 7.78441 10.4065 7.86254C10.4065 7.88754 10.2096 8.11566 9.97212 8.37191C9.3315 9.05629 9.34087 9.02816 9.45337 9.94379C9.52525 10.5313 9.52837 10.6094 9.48775 10.65C9.44712 10.6907 9.37525 10.6657 8.85337 10.4188L8.26587 10.1407H8.00025H7.73462L7.14712 10.4188C6.62524 10.6657 6.55337 10.6938 6.51274 10.65C6.47212 10.6094 6.47524 10.5313 6.54712 9.94379C6.65962 9.02816 6.66899 9.05629 6.02837 8.37191C5.79087 8.11566 5.59399 7.88754 5.59399 7.86254C5.59399 7.78441 5.66587 7.75941 6.21899 7.65629C6.51899 7.60004 6.83149 7.53441 6.91274 7.50941C7.11274 7.45316 7.29399 7.26254 7.48149 6.92191C7.9065 6.14691 7.94087 6.09066 8.0065 6.10004C8.05337 6.10629 8.15337 6.25316 8.37212 6.65004Z" fill="white"/>
<path d="M0.228369 8.15937C0.0814942 8.20312 0.000244141 8.32187 0.000244141 8.5C0.000244141 8.68125 0.0814942 8.79687 0.243994 8.84375C0.315869 8.8625 0.897119 8.875 1.75962 8.875C3.25337 8.875 3.28774 8.87187 3.42212 8.71875C3.46587 8.67187 3.48462 8.60625 3.48462 8.5C3.48462 8.39375 3.46587 8.32812 3.42212 8.28125C3.28462 8.12812 3.25337 8.125 1.74399 8.12812C0.965869 8.12812 0.284619 8.14375 0.228369 8.15937Z" fill="white"/>
<path d="M12.7346 8.16875C12.5784 8.2375 12.5159 8.33125 12.5159 8.5C12.5159 8.60625 12.5346 8.67187 12.5784 8.71875C12.7127 8.87187 12.7471 8.875 14.2409 8.875C15.1034 8.875 15.6846 8.8625 15.7565 8.84375C15.919 8.79687 16.0002 8.68125 16.0002 8.5C16.0002 8.31875 15.919 8.20312 15.7565 8.15625C15.5721 8.10625 12.8534 8.11562 12.7346 8.16875Z" fill="white"/>
<path d="M1.70062 9.59066C1.55374 9.68128 1.51312 9.80941 1.55999 10.0438C1.70999 10.7782 2.17874 11.7844 2.70999 12.4938C2.93187 12.7907 3.50062 13.3813 3.80374 13.6313C4.53499 14.2313 5.64124 14.775 6.46312 14.9407C6.64437 14.9782 6.67249 14.9782 6.77562 14.9219C6.92249 14.8407 6.97562 14.7375 6.95999 14.5657C6.93812 14.3594 6.85687 14.3 6.40687 14.1719C5.54749 13.925 4.78499 13.5094 4.12562 12.9313C3.25687 12.1657 2.64437 11.2 2.32874 10.0938C2.24124 9.77816 2.20062 9.68753 2.12562 9.61566C2.00999 9.51253 1.84437 9.50316 1.70062 9.59066Z" fill="white"/>
<path d="M13.8753 9.61543C13.8003 9.68731 13.7596 9.77793 13.6721 10.0936C13.3846 11.1029 12.9003 11.9186 12.144 12.6717C11.4065 13.4061 10.5846 13.8873 9.59402 14.1717C9.27215 14.2623 9.18777 14.2998 9.11277 14.3811C9.03465 14.4654 9.02527 14.4936 9.0409 14.6342C9.05652 14.8061 9.14715 14.9186 9.3034 14.9561C9.57215 15.0248 10.8003 14.5623 11.494 14.1311C12.0596 13.7811 12.7065 13.2123 13.1315 12.6967C13.6034 12.1217 14.044 11.3217 14.2753 10.6217C14.4534 10.0779 14.4909 9.87793 14.4378 9.74981C14.3471 9.53106 14.0471 9.45918 13.8753 9.61543Z" fill="white"/>
<path d="M7.84754 13.0375C7.80691 13.0594 7.74129 13.1187 7.70691 13.1656C7.64441 13.2531 7.64129 13.2906 7.63191 14.65C7.62566 15.4187 7.63191 16.1094 7.64129 16.1844C7.67254 16.3906 7.79441 16.5 7.99441 16.5C8.18504 16.5 8.29754 16.4219 8.34441 16.2562C8.36316 16.1844 8.37566 15.6031 8.37566 14.7406C8.37566 13.2562 8.37254 13.2125 8.22566 13.0844C8.14441 13.0094 7.94441 12.9844 7.84754 13.0375Z" fill="white"/>
</g>
<defs>
<clipPath id="clip0_53_6952">
<rect width="16" height="16" fill="white" transform="translate(0 0.5)"/>
</clipPath>
</defs>
</svg>
