<svg width="17" height="17" viewBox="0 0 17 17" fill="none" xmlns="http://www.w3.org/2000/svg">
<g clip-path="url(#clip0_53_8047)">
<path d="M13.0673 1.22728H12.7037C12.5026 1.22728 12.34 1.39019 12.34 1.59091C12.34 1.79163 12.5026 1.95453 12.7037 1.95453H13.0673C13.268 1.95453 13.4309 2.11781 13.4309 2.31816V12.5C13.4309 12.7004 13.268 12.8636 13.0673 12.8636H3.61273C3.41201 12.8636 3.2491 12.7003 3.2491 12.5V2.31819C3.2491 2.11781 3.41201 1.95456 3.61273 1.95456H5.06726V2.41928C4.85088 2.54547 4.70363 2.77747 4.70363 3.04547C4.70363 3.44656 5.02982 3.77275 5.43091 3.77275C5.83201 3.77275 6.15819 3.44656 6.15819 3.04547C6.15819 2.77747 6.01091 2.54547 5.79457 2.41928V0.863656C5.79454 0.662906 5.63201 0.5 5.43091 0.5C5.22982 0.5 5.06729 0.662906 5.06729 0.863625V1.22725H3.61276C3.01129 1.22725 2.52185 1.71672 2.52185 2.31816V12.5V15.4091C2.52185 16.0106 3.01132 16.5 3.61276 16.5H13.0673C13.6688 16.5 14.1582 16.0105 14.1582 15.4091V12.5V2.31819C14.1582 1.71672 13.6687 1.22728 13.0673 1.22728ZM13.4309 15.4091C13.4309 15.6095 13.268 15.7727 13.0673 15.7727H3.61273C3.41201 15.7727 3.2491 15.6094 3.2491 15.4091V14.9786C3.36329 15.0193 3.48473 15.0455 3.61273 15.0455H13.0673C13.1953 15.0455 13.3167 15.0193 13.4309 14.9786V15.4091H13.4309ZM13.4309 13.9545C13.4309 14.1549 13.268 14.3182 13.0673 14.3182H3.61273C3.41201 14.3182 3.2491 14.1549 3.2491 13.9545V13.524C3.36329 13.5647 3.48473 13.5909 3.61273 13.5909H13.0673C13.1953 13.5909 13.3167 13.5647 13.4309 13.524V13.9545H13.4309Z" fill="white"/>
<path d="M11.6127 2.41928V0.863656C11.6127 0.662906 11.4502 0.5 11.2491 0.5C11.048 0.5 10.8854 0.662906 10.8854 0.863625V1.22725H9.79453C9.59344 1.22725 9.43091 1.39016 9.43091 1.59088C9.43091 1.79159 9.59344 1.9545 9.79453 1.9545H10.8854V2.41922C10.6691 2.54541 10.5218 2.77741 10.5218 3.04541C10.5218 3.4465 10.848 3.77269 11.2491 3.77269C11.6502 3.77269 11.9764 3.4465 11.9764 3.04541C11.9763 2.77747 11.8291 2.54547 11.6127 2.41928Z" fill="white"/>
<path d="M8.70363 2.41928V0.863656C8.70363 0.662906 8.5411 0.5 8.34001 0.5C8.13891 0.5 7.97638 0.662906 7.97638 0.863625V1.22725H6.88548C6.68438 1.22725 6.52185 1.39016 6.52185 1.59088C6.52185 1.79159 6.68438 1.9545 6.88548 1.9545H7.97638V2.41922C7.76001 2.54541 7.61276 2.77741 7.61276 3.04541C7.61276 3.4465 7.93894 3.77269 8.34004 3.77269C8.74113 3.77269 9.06732 3.4465 9.06732 3.04541C9.06729 2.77747 8.92001 2.54547 8.70363 2.41928Z" fill="white"/>
<path d="M8.33997 5.59082H4.70359C4.5025 5.59082 4.33997 5.75373 4.33997 5.95445C4.33997 6.15516 4.5025 6.31807 4.70359 6.31807H8.33997C8.54106 6.31807 8.70359 6.15516 8.70359 5.95445C8.70359 5.75373 8.54106 5.59082 8.33997 5.59082Z" fill="white"/>
<path d="M10.8854 7.0459H7.61265C7.41155 7.0459 7.24902 7.2088 7.24902 7.40952C7.24902 7.61024 7.41155 7.77315 7.61265 7.77315H10.8854C11.0865 7.77315 11.249 7.61024 11.249 7.40952C11.249 7.2088 11.0865 7.0459 10.8854 7.0459Z" fill="white"/>
<path d="M9.7945 9.9541H4.70359C4.5025 9.9541 4.33997 10.117 4.33997 10.3177C4.33997 10.5184 4.5025 10.6814 4.70359 10.6814H9.7945C9.99559 10.6814 10.1581 10.5184 10.1581 10.3177C10.1581 10.117 9.99559 9.9541 9.7945 9.9541Z" fill="white"/>
<path d="M11.9763 5.59082H9.79453C9.59344 5.59082 9.43091 5.75373 9.43091 5.95445C9.43091 6.15516 9.59344 6.31807 9.79453 6.31807H11.9763C12.1774 6.31807 12.34 6.15516 12.34 5.95445C12.34 5.75373 12.1774 5.59082 11.9763 5.59082Z" fill="white"/>
<path d="M7.97634 8.5H4.70359C4.5025 8.5 4.33997 8.66291 4.33997 8.86362C4.33997 9.06434 4.5025 9.22725 4.70359 9.22725H7.97631C8.1774 9.22725 8.33993 9.06434 8.33993 8.86362C8.33993 8.66291 8.17743 8.5 7.97634 8.5Z" fill="white"/>
<path d="M6.15812 7.0459H4.70359C4.5025 7.0459 4.33997 7.2088 4.33997 7.40952C4.33997 7.61024 4.5025 7.77315 4.70359 7.77315H6.15812C6.35922 7.77315 6.52175 7.61024 6.52175 7.40952C6.52175 7.2088 6.35922 7.0459 6.15812 7.0459Z" fill="white"/>
<path d="M11.9764 8.5H9.43089C9.22979 8.5 9.06726 8.66291 9.06726 8.86362C9.06726 9.06434 9.22979 9.22725 9.43089 9.22725H11.9764C12.1774 9.22725 12.34 9.06434 12.34 8.86362C12.34 8.66291 12.1774 8.5 11.9764 8.5Z" fill="white"/>
</g>
<defs>
<clipPath id="clip0_53_8047">
<rect width="16" height="16" fill="white" transform="translate(0.339966 0.5)"/>
</clipPath>
</defs>
</svg>
