<svg width="16" height="16" viewBox="0 0 16 16" fill="none" xmlns="http://www.w3.org/2000/svg">
<path d="M11.4707 7.99081H12.7266V11.0872H11.4707V7.99081Z" fill="#016DEA" stroke="white" stroke-width="0.25"/>
<path d="M14.2326 3.6828V3.8078H14.3576C15.107 3.8078 15.7385 4.48955 15.7385 5.356V13.722C15.7385 14.5885 15.107 15.2702 14.3576 15.2702H3.06351C2.63702 15.2702 2.10249 15.1124 1.67619 14.737C1.25352 14.3649 0.929688 13.7724 0.929688 12.8854V2.8462C0.929688 1.51878 1.89924 0.461395 3.06351 0.461395H12.8517C13.6011 0.461395 14.2326 1.14315 14.2326 2.0096V3.6828ZM12.9767 2.0096V1.8846H12.8517H3.06351C2.56671 1.8846 2.18557 2.329 2.18557 2.8462C2.18557 3.3634 2.56671 3.8078 3.06351 3.8078H12.8517H12.9767V3.6828V2.0096ZM14.3576 13.847H14.4826V13.722V5.356V5.231H14.3576H3.06351C2.81697 5.231 2.5821 5.17518 2.35698 5.08517L2.18557 5.01663V5.20123V12.8854C2.18557 13.2492 2.29866 13.495 2.48063 13.6481C2.65805 13.7974 2.88105 13.8415 3.06894 13.847L3.06894 13.847H3.07255H14.3576Z" fill="#016DEA" stroke="white" stroke-width="0.25"/>
</svg>
