<svg width="24" height="24" viewBox="0 0 24 24" fill="none" xmlns="http://www.w3.org/2000/svg">
<path fill-rule="evenodd" clip-rule="evenodd" d="M1.70544 17.8525V6.388C1.70544 5.553 2.38344 4.875 3.21844 4.875H20.5434C21.3774 4.875 22.0574 5.552 22.0574 6.388V17.8525C22.0574 18.688 21.3784 19.3655 20.5434 19.3655H3.21844C2.38344 19.3655 1.70544 18.688 1.70544 17.8525ZM21.0994 17.8525V6.388C21.0994 6.0825 20.8509 5.833 20.5434 5.833H3.21844C2.91194 5.833 2.66294 6.0815 2.66294 6.388V17.8525C2.66294 18.1585 2.91194 18.408 3.21844 18.408H20.5434C20.8499 18.408 21.0994 18.1585 21.0994 17.8525Z" fill="white"/>
<path fill-rule="evenodd" clip-rule="evenodd" d="M3.38647 6.79446C3.38647 6.54096 3.59297 6.33496 3.84647 6.33496C4.09947 6.33496 4.30497 6.54096 4.30497 6.79446C4.30497 7.04646 4.09947 7.25296 3.84647 7.25296C3.59297 7.25296 3.38647 7.04646 3.38647 6.79446ZM4.68647 6.79446C4.68647 6.54096 4.89247 6.33496 5.14497 6.33496C5.39847 6.33496 5.60497 6.54096 5.60497 6.79446C5.60497 7.04646 5.39847 7.25296 5.14497 7.25296C4.89247 7.25296 4.68647 7.04646 4.68647 6.79446ZM5.98597 6.79446C5.98597 6.54096 6.19247 6.33496 6.44447 6.33496C6.69797 6.33496 6.90397 6.54096 6.90397 6.79446C6.90397 7.04646 6.69797 7.25296 6.44447 7.25296C6.19247 7.25296 5.98597 7.04646 5.98597 6.79446Z" fill="white"/>
<path fill-rule="evenodd" clip-rule="evenodd" d="M16.5895 11.1984L16.513 10.8714C16.427 10.8459 16.345 10.8119 16.267 10.7709L15.948 10.9684C15.865 11.0204 15.7685 11.0364 15.698 10.9684L15.553 10.8214C15.484 10.7534 15.504 10.6609 15.553 10.5729L15.75 10.2524C15.697 10.1534 15.6555 10.0459 15.63 9.93193L15.3235 9.85893C15.228 9.83743 15.147 9.77993 15.147 9.68293V9.47693C15.147 9.37993 15.228 9.32893 15.3235 9.29993L15.6755 9.21843L15.7755 9.00893C15.718 8.91643 15.6605 8.82243 15.6045 8.72993C15.551 8.64693 15.535 8.54893 15.6045 8.48093L15.75 8.33493C15.818 8.26593 15.912 8.28743 15.999 8.33493L16.298 8.52043L16.5 8.43743C16.5275 8.32693 16.5575 8.21593 16.5895 8.10643C16.618 8.01093 16.668 7.92993 16.7665 7.92993H16.9725C17.0695 7.92993 17.1265 8.01093 17.149 8.10643L17.232 8.43643L17.4755 8.53693C17.5635 8.48493 17.6505 8.43543 17.739 8.38643C17.827 8.33843 17.9195 8.31743 17.9875 8.38643L18.1345 8.53193C18.2035 8.59993 18.1865 8.69793 18.1345 8.78093L17.98 9.03943L18.058 9.20443C18.1855 9.23643 18.307 9.26843 18.415 9.29993C18.511 9.32793 18.592 9.37893 18.592 9.47693V9.68293C18.592 9.77993 18.511 9.83643 18.415 9.85893L18.106 9.93743L18.009 10.2139C18.0695 10.3154 18.128 10.4184 18.1855 10.5219C18.2345 10.6089 18.255 10.7014 18.1855 10.7709L18.0395 10.9164C17.9705 10.9854 17.8735 10.9684 17.791 10.9164L17.509 10.7494C17.4205 10.8014 17.3255 10.8419 17.226 10.8714L17.149 11.1984C17.1265 11.2939 17.0705 11.3749 16.9725 11.3749H16.7665C16.669 11.3749 16.618 11.2939 16.5895 11.1984ZM17.5 9.65243C17.5 9.30443 17.217 9.02143 16.869 9.02143C16.5215 9.02143 16.2385 9.30443 16.2385 9.65243C16.2385 10.0004 16.5215 10.2829 16.869 10.2829C17.217 10.2829 17.5 10.0004 17.5 9.65243Z" fill="white"/>
<path fill-rule="evenodd" clip-rule="evenodd" d="M15.3059 16.185C15.3059 16.0395 15.4254 15.9195 15.5724 15.9195H18.1319C18.2784 15.9195 18.3984 16.0395 18.3984 16.185C18.3984 16.332 18.2784 16.4515 18.1319 16.4515H15.5724C15.4254 16.4515 15.3059 16.332 15.3059 16.185ZM15.2944 15.221C15.2944 15.0755 15.4134 14.955 15.5604 14.955H19.1909C19.3369 14.955 19.4569 15.0755 19.4569 15.221C19.4569 15.3685 19.3369 15.4875 19.1909 15.4875H15.5604C15.4134 15.4875 15.2944 15.3685 15.2944 15.221ZM15.3059 14.031C15.3059 13.885 15.4254 13.7645 15.5724 13.7645H18.1319C18.2784 13.7645 18.3984 13.885 18.3984 14.031C18.3984 14.1775 18.2784 14.2965 18.1319 14.2965H15.5724C15.4254 14.2965 15.3059 14.1775 15.3059 14.031ZM15.2944 13.0665C15.2944 12.921 15.4134 12.801 15.5604 12.801H19.1909C19.3369 12.801 19.4569 12.921 19.4569 13.0665C19.4569 13.2135 19.3369 13.3325 19.1909 13.3325H15.5604C15.4134 13.3325 15.2944 13.2135 15.2944 13.0665Z" fill="white"/>
<path fill-rule="evenodd" clip-rule="evenodd" d="M3.65894 16.1849C3.65894 16.0394 3.77844 15.9194 3.92494 15.9194H12.4079C12.5539 15.9194 12.6739 16.0394 12.6739 16.1849C12.6739 16.3319 12.5539 16.4514 12.4079 16.4514H3.92494C3.77844 16.4514 3.65894 16.3319 3.65894 16.1849Z" fill="white"/>
<path fill-rule="evenodd" clip-rule="evenodd" d="M6.22945 15.043C6.82245 15.043 7.30595 15.5265 7.30595 16.1195C7.30595 16.7125 6.82245 17.196 6.22945 17.196C5.63645 17.196 5.15295 16.7125 5.15295 16.1195C5.15295 15.5265 5.63645 15.043 6.22945 15.043Z" fill="white"/>
<path fill-rule="evenodd" clip-rule="evenodd" d="M3.63599 13.4V8.76196H12.6955V13.4H3.63599ZM12.163 12.868V9.29396H4.16749V12.868H12.163Z" fill="white"/>
<path fill-rule="evenodd" clip-rule="evenodd" d="M5.15198 12.3559V11.3739H6.13598V12.3559H5.15198ZM6.83398 12.3559V11.3739H7.81598V12.3559H6.83398ZM8.51648 12.3559V11.3739H9.49698V12.3559H8.51648ZM10.197 12.3559V11.3739H11.1815V12.3559H10.197ZM5.15198 10.7874V9.80444H6.13598V10.7874H5.15198ZM6.83398 10.7874V9.80444H7.81598V10.7874H6.83398ZM8.51648 10.7874V9.80444H9.49698V10.7874H8.51648ZM10.197 10.7874V9.80444H11.1815V10.7874H10.197Z" fill="white"/>
</svg>
