<svg width="16" height="16" viewBox="0 0 16 16" fill="none" xmlns="http://www.w3.org/2000/svg">
<g clip-path="url(#clip0_4746_78622)">
<path d="M3.15839 3.37843H11.3121C11.563 3.37843 11.7664 3.17503 11.7664 2.92414C11.7664 2.67325 11.563 2.46985 11.3121 2.46985H3.15839C2.9075 2.46985 2.7041 2.67325 2.7041 2.92414C2.7041 3.17503 2.9075 3.37843 3.15839 3.37843Z" fill="#016DEA"/>
<path d="M6.96571 10.0837H3.15839C2.9075 10.0837 2.7041 10.2871 2.7041 10.538C2.7041 10.7889 2.9075 10.9923 3.15839 10.9923H6.96571C7.2166 10.9923 7.42 10.7889 7.42 10.538C7.42 10.2871 7.2166 10.0837 6.96571 10.0837Z" fill="#016DEA"/>
<path d="M6.96571 12.6216H3.15839C2.9075 12.6216 2.7041 12.825 2.7041 13.0759C2.7041 13.3268 2.9075 13.5302 3.15839 13.5302H6.96571C7.2166 13.5302 7.42 13.3268 7.42 13.0759C7.42 12.825 7.2166 12.6216 6.96571 12.6216Z" fill="#016DEA"/>
<path d="M13.439 3.32989V1.53223C13.439 0.687372 12.7516 0 11.9068 0H2.56348C1.71862 0 1.03125 0.687372 1.03125 1.53223V14.4678C1.03125 15.3126 1.71862 16 2.56348 16H11.9068C12.7516 16 13.439 15.3126 13.439 14.4678V9.25069L14.8791 5.29406C15.2372 4.30995 14.4767 3.28337 13.439 3.32989ZM12.5305 14.4678C12.5305 14.8116 12.2507 15.0914 11.9068 15.0914H2.56348C2.21961 15.0914 1.93983 14.8116 1.93983 14.4678V1.53223C1.93983 1.18836 2.21961 0.908582 2.56348 0.908582H11.9068C12.2507 0.908582 12.5304 1.18836 12.5304 1.53223V3.69775C12.1697 4.01678 12.1272 4.28917 11.7473 5.33283C11.6916 5.14493 11.5179 5.00774 11.3119 5.00774H3.1583C2.90741 5.00774 2.70401 5.21114 2.70401 5.46203C2.70401 5.71292 2.90741 5.91632 3.1583 5.91632H11.312C11.4046 5.91632 11.4906 5.88846 11.5624 5.84091L10.9419 7.54571H3.1583C2.90741 7.54571 2.70401 7.74911 2.70401 8C2.70401 8.25089 2.90741 8.45429 3.1583 8.45429H10.6112L9.62383 11.1672C9.59287 11.2522 9.58803 11.3446 9.60995 11.4324L10.0472 13.1858C10.1251 13.498 10.495 13.6322 10.755 13.4434L12.217 12.3812C12.3608 12.2767 12.3731 12.1794 12.5305 11.7469V14.4678ZM14.0253 4.98333L12.5578 9.01519V9.01525L11.5705 11.7279L10.7657 12.3125L10.5251 11.3473L12.9799 4.60287C13.0844 4.31564 13.4044 4.16542 13.6929 4.27039C13.9817 4.37549 14.1305 4.6944 14.0253 4.98333Z" fill="#016DEA"/>
</g>
<defs>
<clipPath id="clip0_4746_78622">
<rect width="16" height="16" fill="white"/>
</clipPath>
</defs>
</svg>
