<svg width="50" height="50" viewBox="0 0 50 50" fill="none" xmlns="http://www.w3.org/2000/svg">
<g clip-path="url(#clip0_6857_202780)">
<path d="M10.4388 5.80192C10.899 5.80192 11.2721 5.42882 11.2721 4.96859C11.2721 4.50835 10.899 4.13525 10.4388 4.13525C9.97856 4.13525 9.60547 4.50835 9.60547 4.96859C9.60547 5.42882 9.97856 5.80192 10.4388 5.80192Z" fill="#016DEA"/>
<path d="M7.9388 8.30204C8.39904 8.30204 8.77214 7.92895 8.77214 7.46871C8.77214 7.00847 8.39904 6.63538 7.9388 6.63538C7.47856 6.63538 7.10547 7.00847 7.10547 7.46871C7.10547 7.92895 7.47856 8.30204 7.9388 8.30204Z" fill="#016DEA"/>
<path d="M27.9388 8.30217C28.399 8.30217 28.7721 7.92907 28.7721 7.46883C28.7721 7.00859 28.399 6.6355 27.9388 6.6355C27.4786 6.6355 27.1055 7.00859 27.1055 7.46883C27.1055 7.92907 27.4786 8.30217 27.9388 8.30217Z" fill="#016DEA"/>
<path d="M30.4388 5.80192C30.899 5.80192 31.2721 5.42882 31.2721 4.96859C31.2721 4.50835 30.899 4.13525 30.4388 4.13525C29.9786 4.13525 29.6055 4.50835 29.6055 4.96859C29.6055 5.42882 29.9786 5.80192 30.4388 5.80192Z" fill="#016DEA"/>
<path d="M32.9388 8.30204C33.399 8.30204 33.7721 7.92895 33.7721 7.46871C33.7721 7.00847 33.399 6.63538 32.9388 6.63538C32.4786 6.63538 32.1055 7.00847 32.1055 7.46871C32.1055 7.92895 32.4786 8.30204 32.9388 8.30204Z" fill="#016DEA"/>
<path d="M22.9388 13.3022C23.399 13.3022 23.7721 12.9291 23.7721 12.4688C23.7721 12.0086 23.399 11.6355 22.9388 11.6355C22.4786 11.6355 22.1055 12.0086 22.1055 12.4688C22.1055 12.9291 22.4786 13.3022 22.9388 13.3022Z" fill="#016DEA"/>
<path d="M17.9388 13.302C18.399 13.302 18.7721 12.9289 18.7721 12.4687C18.7721 12.0085 18.399 11.6354 17.9388 11.6354C17.4786 11.6354 17.1055 12.0085 17.1055 12.4687C17.1055 12.9289 17.4786 13.302 17.9388 13.302Z" fill="#016DEA"/>
<path d="M42.9388 13.302C43.399 13.302 43.7721 12.9289 43.7721 12.4687C43.7721 12.0085 43.399 11.6354 42.9388 11.6354C42.4786 11.6354 42.1055 12.0085 42.1055 12.4687C42.1055 12.9289 42.4786 13.302 42.9388 13.302Z" fill="#016DEA"/>
<path d="M20.4388 15.8019C20.899 15.8019 21.2721 15.4288 21.2721 14.9686C21.2721 14.5083 20.899 14.1353 20.4388 14.1353C19.9786 14.1353 19.6055 14.5083 19.6055 14.9686C19.6055 15.4288 19.9786 15.8019 20.4388 15.8019Z" fill="#016DEA"/>
<path d="M22.9388 18.3019C23.399 18.3019 23.7721 17.9288 23.7721 17.4686C23.7721 17.0083 23.399 16.6353 22.9388 16.6353C22.4786 16.6353 22.1055 17.0083 22.1055 17.4686C22.1055 17.9288 22.4786 18.3019 22.9388 18.3019Z" fill="#016DEA"/>
<path d="M15.4388 15.8019C15.899 15.8019 16.2721 15.4288 16.2721 14.9686C16.2721 14.5083 15.899 14.1353 15.4388 14.1353C14.9786 14.1353 14.6055 14.5083 14.6055 14.9686C14.6055 15.4288 14.9786 15.8019 15.4388 15.8019Z" fill="#016DEA"/>
<path d="M17.9388 18.3019C18.399 18.3019 18.7721 17.9288 18.7721 17.4686C18.7721 17.0083 18.399 16.6353 17.9388 16.6353C17.4786 16.6353 17.1055 17.0083 17.1055 17.4686C17.1055 17.9288 17.4786 18.3019 17.9388 18.3019Z" fill="#016DEA"/>
<path d="M45.4388 15.8019C45.899 15.8019 46.2721 15.4288 46.2721 14.9686C46.2721 14.5083 45.899 14.1353 45.4388 14.1353C44.9786 14.1353 44.6055 14.5083 44.6055 14.9686C44.6055 15.4288 44.9786 15.8019 45.4388 15.8019Z" fill="#016DEA"/>
<path d="M40.4388 15.8019C40.899 15.8019 41.2721 15.4288 41.2721 14.9686C41.2721 14.5083 40.899 14.1353 40.4388 14.1353C39.9786 14.1353 39.6055 14.5083 39.6055 14.9686C39.6055 15.4288 39.9786 15.8019 40.4388 15.8019Z" fill="#016DEA"/>
<path d="M42.9388 18.3019C43.399 18.3019 43.7721 17.9288 43.7721 17.4686C43.7721 17.0083 43.399 16.6353 42.9388 16.6353C42.4786 16.6353 42.1055 17.0083 42.1055 17.4686C42.1055 17.9288 42.4786 18.3019 42.9388 18.3019Z" fill="#016DEA"/>
<path d="M49.6048 10.0888C49.6048 9.96047 49.5782 9.8388 49.5307 9.72797C49.5273 9.64713 49.514 9.56547 49.4915 9.4863L46.0573 1.9963C45.5007 0.782967 44.2773 -0.000366211 42.9415 -0.000366211H36.134H34.4398H26.2715H24.6048H16.4365H14.7423H7.93482C6.59982 -0.000366211 5.37732 0.782967 4.81982 1.99547L1.43398 9.3488L1.38898 9.4688C1.35648 9.58297 1.35065 9.70047 1.35732 9.81713C1.30232 9.94547 1.27148 10.0871 1.27148 10.2355V15.833C1.27148 17.0005 1.57482 18.098 2.10482 19.053V25.1788C1.72232 25.598 1.43815 26.1221 1.32982 26.7038C1.23815 27.2013 1.26732 27.728 1.41565 28.228C1.49648 28.5013 1.43232 28.833 1.24232 29.1138C0.369818 30.4038 0.192318 32.203 0.802318 33.5905C0.893984 33.8005 1.00898 33.998 1.14398 34.1805C1.33648 34.4396 1.40482 34.7838 1.32732 35.1005C1.28398 35.2713 1.25482 35.4471 1.23898 35.6221C1.17065 36.3688 1.32482 37.0938 1.44732 37.6755C1.57648 38.288 1.77232 39.2146 2.45898 39.8046C2.82565 40.1205 3.27565 40.2846 3.77232 40.3121V43.333H1.33065L0.908151 43.3505L0.396484 43.9796L1.39982 49.9996H6.12149H7.81065H30.4382H45.4382H48.7715V19.053C49.3015 18.0971 49.6048 17.0005 49.6048 15.833V10.0888ZM47.304 18.2638C47.2765 18.3138 47.2448 18.3613 47.2157 18.4096C47.1048 18.593 46.984 18.768 46.854 18.933C46.8515 18.9355 46.8498 18.9388 46.8473 18.9413C46.719 19.1038 46.5807 19.2563 46.4357 19.3996C46.4048 19.4296 46.3715 19.4571 46.3398 19.4863C46.2907 19.5321 46.239 19.573 46.1882 19.6163C46.0548 19.333 45.7715 19.1338 45.4382 19.1338C44.9782 19.1338 44.6048 19.5071 44.6048 19.9671C44.6048 20.1605 44.6815 20.3296 44.7915 20.4713C44.7457 20.4896 44.699 20.5055 44.6532 20.5221C44.5457 20.5613 44.4382 20.5988 44.3282 20.6305C44.2515 20.653 44.174 20.6713 44.0965 20.6905C43.9748 20.7196 43.8515 20.743 43.7265 20.763C43.6607 20.7738 43.5948 20.7855 43.5282 20.793C43.334 20.818 43.1373 20.833 42.9382 20.833C42.2832 20.833 41.659 20.703 41.0848 20.473C41.1948 20.3313 41.2715 20.1621 41.2715 19.9688C41.2715 19.5088 40.8982 19.1355 40.4382 19.1355C40.1023 19.1355 39.8173 19.3363 39.6848 19.6221C39.1898 19.1963 38.7798 18.6755 38.4815 18.0888C38.6557 17.9363 38.7715 17.7188 38.7715 17.4688C38.7715 17.0346 38.4357 16.6888 38.0107 16.6505C37.9665 16.3838 37.9382 16.1121 37.9382 15.8338V13.303C38.3982 13.303 38.7715 12.9296 38.7715 12.4696C38.7715 12.0096 38.3982 11.6363 37.9382 11.6363V10.833H38.1032H47.9382V11.6355C47.4782 11.6355 47.1048 12.0088 47.1048 12.4688C47.1048 12.9288 47.4782 13.3021 47.9382 13.3021V15.833C47.9382 16.1121 47.9098 16.3838 47.8657 16.6496C47.4415 16.688 47.1048 17.0338 47.1048 17.468C47.1048 17.718 47.2198 17.9355 47.3948 18.088C47.374 18.128 47.3573 18.1705 47.3357 18.2105L47.304 18.2638ZM20.4382 19.1355C19.9782 19.1355 19.6048 19.5088 19.6048 19.9688C19.6048 20.3846 19.9148 20.7146 20.3132 20.7771C20.0815 20.8096 19.8465 20.833 19.6048 20.833C16.8473 20.833 14.6048 18.5905 14.6048 15.833V14.9688V10.833H24.6048V15.833C24.6048 18.153 23.0148 20.103 20.869 20.6646C21.1057 20.518 21.2715 20.2671 21.2715 19.9688C21.2715 19.508 20.899 19.1355 20.4382 19.1355ZM7.34899 20.7946C7.28232 20.7863 7.21649 20.7746 7.15065 20.7646C7.02565 20.7446 6.90232 20.7213 6.78065 20.6921C6.70315 20.6738 6.62565 20.6546 6.54899 20.6321C6.43899 20.6005 6.33065 20.5621 6.22399 20.523C6.14899 20.4955 6.07315 20.4721 6.00065 20.4413C5.84315 20.3746 5.68982 20.2996 5.54065 20.218C5.46482 20.1763 5.39232 20.1288 5.31899 20.083C5.22899 20.0271 5.13982 19.9696 5.05315 19.908C4.98732 19.8613 4.92315 19.813 4.85982 19.763C4.74899 19.6755 4.64149 19.5838 4.53815 19.4863C4.50732 19.4571 4.47399 19.4305 4.44398 19.4005C4.29899 19.2571 4.16065 19.1046 4.03149 18.9421C4.02899 18.9396 4.02732 18.9363 4.02482 18.9338C3.89482 18.7688 3.77399 18.5938 3.66315 18.4105C3.63399 18.3621 3.60232 18.3146 3.57482 18.2646L3.54315 18.2113C3.15732 17.503 2.93815 16.693 2.93815 15.833V10.833H12.7732H12.9382V15.833C12.9382 18.5905 10.6957 20.833 7.93815 20.833C7.73899 20.833 7.54315 20.818 7.34899 20.7946ZM26.2715 10.833H36.2715V15.833C36.2715 18.5905 34.029 20.833 31.2715 20.833C28.514 20.833 26.2715 18.5905 26.2715 15.833V10.833ZM42.9415 1.6663C43.6273 1.6663 44.2565 2.0688 44.5432 2.69213L47.5198 9.1663H37.9382H37.8007L37.119 5.4163L36.4373 1.6663H42.9415ZM26.2715 1.6663H27.784C27.3998 1.74047 27.1048 2.06297 27.1048 2.4688C27.1048 2.9288 27.4782 3.30213 27.9382 3.30213C28.3982 3.30213 28.7715 2.9288 28.7715 2.4688C28.7715 2.06297 28.4757 1.74047 28.0923 1.6663H32.7848C32.4007 1.74047 32.1057 2.06297 32.1057 2.4688C32.1057 2.9288 32.479 3.30213 32.939 3.30213C33.399 3.30213 33.7723 2.9288 33.7723 2.4688C33.7723 2.06297 33.4765 1.74047 33.0932 1.6663H34.744L35.2015 4.18297C34.8598 4.28713 34.6065 4.59213 34.6065 4.96797C34.6065 5.42797 34.9798 5.8013 35.4398 5.8013C35.459 5.8013 35.4748 5.7913 35.494 5.79047L36.1065 9.1663H26.2715V1.6663ZM16.134 1.6663H24.6048V9.1663H14.7707L15.4523 5.4163L16.134 1.6663ZM4.97482 5.64297C5.10899 5.73547 5.26315 5.80213 5.43815 5.80213C5.89815 5.80213 6.27149 5.4288 6.27149 4.9688C6.27149 4.58297 6.00482 4.27297 5.64899 4.17797L6.33399 2.6913C6.57065 2.17547 7.04649 1.8263 7.59149 1.7163C7.30565 1.8488 7.10482 2.1338 7.10482 2.4688C7.10482 2.9288 7.47815 3.30213 7.93815 3.30213C8.39815 3.30213 8.77149 2.9288 8.77149 2.4688C8.77149 2.06297 8.47565 1.74047 8.09232 1.6663H12.7848C12.4007 1.74047 12.1057 2.06297 12.1057 2.4688C12.1057 2.9288 12.479 3.30213 12.939 3.30213C13.399 3.30213 13.7723 2.9288 13.7723 2.4688C13.7723 2.06297 13.4765 1.74047 13.0932 1.6663H14.4407L13.759 5.4163L13.4965 6.85797C13.3482 6.72297 13.1557 6.63547 12.939 6.63547C12.479 6.63547 12.1057 7.0088 12.1057 7.4688C12.1057 7.9288 12.479 8.30213 12.939 8.30213C13.0473 8.30213 13.1498 8.27797 13.2448 8.24047L13.0757 9.1663H12.9382H3.35232L4.97482 5.64297ZM3.07732 37.3305C2.97232 36.833 2.85232 36.2696 2.89815 35.7738C2.90648 35.6846 2.92065 35.593 2.94398 35.503C3.14148 34.7071 2.96815 33.8405 2.48065 33.1863C2.42232 33.1063 2.36815 33.0146 2.32732 32.9213C1.94565 32.0513 2.06648 30.8696 2.62232 30.048C3.09482 29.3471 3.23649 28.5113 3.01232 27.7563C2.93982 27.5105 2.92482 27.2446 2.96815 27.008C3.02648 26.693 3.18899 26.4071 3.40482 26.2096L3.45982 26.1655C3.54149 26.1005 3.60982 26.0555 3.66899 26.0271L4.42399 25.4105C4.48399 25.3488 4.55732 25.3071 4.63482 25.273C4.65315 25.2646 4.67148 25.258 4.68982 25.2513C4.84399 25.1971 5.01149 25.183 5.15232 25.1863C5.23732 25.1888 5.31982 25.1955 5.37315 25.2021C5.67482 25.2446 5.94982 25.3463 6.18232 25.4905L6.36565 25.6421C6.45315 25.7146 6.52399 25.7838 6.58482 25.8521C6.64482 25.9255 6.70565 25.9988 6.74899 26.0813C6.87732 26.3288 6.91732 26.6646 6.85482 26.9588C6.69482 27.7071 6.88649 28.5038 7.36899 29.0896C7.46732 29.2096 7.54232 29.3688 7.57399 29.5271C7.59482 29.6305 7.60482 29.7396 7.60482 29.8555C7.60399 30.2038 7.50982 30.6113 7.31898 31.0921C7.15815 31.4996 6.97399 31.8471 6.77315 32.1238C6.36482 32.6863 6.21732 33.4221 6.34232 34.158C6.38399 34.403 6.45565 34.6488 6.55899 34.888C6.65732 35.1138 6.71399 35.3721 6.72899 35.6321C6.74399 35.893 6.71565 36.1563 6.64399 36.3938C6.60399 36.5271 6.55315 36.653 6.49565 36.773C6.38065 37.0121 6.22815 37.2396 6.03899 37.4538C6.03065 37.463 6.02232 37.4705 6.01399 37.4796C5.92899 37.5738 5.83649 37.6663 5.73732 37.7555C5.40815 38.0505 5.06399 38.2613 4.81065 38.393C4.80732 38.3946 4.80315 38.3963 4.79982 38.398C4.67148 38.463 4.53399 38.5188 4.39565 38.5638C4.06649 38.6713 3.73565 38.7038 3.54398 38.5413C3.28565 38.3171 3.16065 37.7238 3.07732 37.3305ZM6.39899 48.333H2.81065L2.25565 44.9996H3.77149H6.95399L6.39899 48.333ZM5.43815 43.333V39.9413C5.48482 39.9196 5.53065 39.8963 5.57649 39.873C6.04315 39.6321 6.45899 39.343 6.82232 39.0205L6.82399 39.0221C6.83149 39.0155 6.83649 39.0088 6.84399 39.0021C7.00399 38.8588 7.15399 38.7096 7.29148 38.553C7.31232 38.5288 7.32982 38.503 7.35065 38.4788C7.45565 38.3538 7.55482 38.2255 7.64482 38.0938C7.68565 38.0346 7.72232 37.9746 7.75982 37.9146C7.82732 37.8063 7.88899 37.6946 7.94649 37.5821C7.97649 37.523 8.00815 37.4638 8.03565 37.403C8.11399 37.2313 8.18315 37.0563 8.23815 36.8763C8.30232 36.6638 8.34732 36.443 8.37232 36.218C8.39732 35.993 8.40399 35.7638 8.39065 35.5363C8.36482 35.0813 8.26315 34.6305 8.08815 34.2255C7.91065 33.8155 7.92399 33.3746 8.12149 33.103C8.20315 32.9905 8.27565 32.858 8.35149 32.7321C8.53982 32.423 8.71649 32.0888 8.86732 31.7071C9.24399 30.7571 9.35565 29.938 9.20732 29.1996C9.12065 28.7671 8.92899 28.3621 8.65315 28.0288C8.49899 27.8413 8.43065 27.5521 8.48315 27.308C8.52982 27.0896 8.54315 26.8671 8.54065 26.6446C8.53982 26.5871 8.53732 26.5313 8.53315 26.4738C8.52065 26.278 8.49149 26.0855 8.44232 25.898C8.43649 25.8771 8.43815 25.8546 8.43232 25.8338H27.1023V43.3338H8.92232H7.93399L5.43815 43.333ZM32.1048 48.333V25.833H43.7715V48.333H32.1048ZM47.1048 48.333H45.4382V24.1663H30.4382V48.333H8.08899L8.64482 44.9996H28.7723V24.1663H7.19732C6.74065 23.8521 6.19899 23.6355 5.60815 23.5513C5.39065 23.5205 5.18232 23.5155 4.97899 23.523C4.92482 23.5246 4.87232 23.5305 4.81899 23.5346C4.66232 23.548 4.51149 23.5721 4.36732 23.608C4.32482 23.6188 4.28149 23.6263 4.23982 23.638C4.07399 23.688 3.91482 23.748 3.77149 23.8263V21.0388C4.24982 21.4246 4.77982 21.7355 5.34399 21.9738C5.34649 21.9746 5.34815 21.9755 5.35065 21.9763C5.53482 22.0538 5.72315 22.123 5.91482 22.183C5.94732 22.193 5.97982 22.203 6.01232 22.213C6.17482 22.2621 6.33982 22.3038 6.50732 22.3405C6.55732 22.3513 6.60732 22.363 6.65732 22.373C6.81399 22.403 6.97315 22.4271 7.13399 22.4463C7.18899 22.453 7.24315 22.4621 7.29815 22.4671C7.50982 22.4871 7.72315 22.4996 7.93815 22.4996C8.21982 22.4996 8.49565 22.4763 8.76815 22.4421C8.84649 22.4321 8.92399 22.4188 9.00149 22.4063C9.20732 22.373 9.40899 22.3305 9.60815 22.2788C9.67732 22.2613 9.74649 22.2455 9.81482 22.2255C10.0707 22.1505 10.3207 22.063 10.5632 21.9588C10.6007 21.943 10.6348 21.923 10.6715 21.9063C10.8773 21.813 11.0773 21.7096 11.2723 21.5963C11.3398 21.5571 11.4048 21.5171 11.4707 21.4755C11.6473 21.3646 11.8173 21.2463 11.9823 21.1196C12.0282 21.0846 12.0765 21.0521 12.1215 21.0155C12.324 20.8521 12.5165 20.6771 12.6982 20.4913C12.739 20.4496 12.7765 20.4046 12.8165 20.3613C12.9573 20.2096 13.0907 20.0521 13.2173 19.8888C13.2648 19.8271 13.3115 19.7655 13.3565 19.7021C13.4873 19.5196 13.609 19.3313 13.7207 19.1363C13.7365 19.1088 13.7565 19.0838 13.7723 19.0563C13.7882 19.0838 13.8082 19.1088 13.824 19.1363C13.9357 19.3313 14.0582 19.5196 14.1882 19.7021C14.2332 19.7655 14.2798 19.8271 14.3273 19.8888C14.454 20.053 14.5873 20.2105 14.7282 20.3613C14.7682 20.4046 14.8048 20.4496 14.8465 20.4913C15.0282 20.6771 15.2207 20.8521 15.4232 21.0155C15.4682 21.0521 15.5165 21.0846 15.5623 21.1196C15.7273 21.2463 15.8973 21.3646 16.074 21.4755C16.1398 21.5163 16.2048 21.5571 16.2723 21.5963C16.4665 21.7088 16.6665 21.813 16.8732 21.9063C16.9098 21.923 16.9448 21.943 16.9815 21.9588C17.2232 22.063 17.474 22.1505 17.7298 22.2255C17.7982 22.2455 17.8673 22.2605 17.9365 22.2788C18.1357 22.3305 18.3373 22.373 18.5432 22.4063C18.6207 22.4188 18.6982 22.4321 18.7765 22.4421C19.0482 22.4763 19.324 22.4996 19.6048 22.4996C19.8857 22.4996 20.1623 22.4763 20.4348 22.4421C20.5132 22.4321 20.5907 22.4188 20.6682 22.4063C20.874 22.373 21.0757 22.3305 21.2748 22.2788C21.344 22.2613 21.4132 22.2455 21.4815 22.2255C21.7373 22.1505 21.9873 22.063 22.2298 21.9588C22.2673 21.943 22.3015 21.923 22.3382 21.9063C22.544 21.813 22.744 21.7096 22.939 21.5963C23.0065 21.5571 23.0715 21.5171 23.1373 21.4755C23.314 21.3646 23.484 21.2463 23.649 21.1196C23.6948 21.0846 23.7432 21.0521 23.7882 21.0155C23.9907 20.8521 24.1832 20.6771 24.3648 20.4913C24.4057 20.4496 24.4432 20.4046 24.4832 20.3613C24.624 20.2096 24.7573 20.0521 24.884 19.8888C24.9315 19.8271 24.9782 19.7655 25.0232 19.7021C25.154 19.5196 25.2757 19.3313 25.3873 19.1363C25.4032 19.1088 25.4232 19.0838 25.439 19.0563C25.4548 19.0838 25.4748 19.1088 25.4907 19.1363C25.6023 19.3313 25.7248 19.5196 25.8548 19.7021C25.8998 19.7655 25.9465 19.8271 25.994 19.8888C26.1207 20.053 26.254 20.2105 26.3948 20.3613C26.4348 20.4046 26.4715 20.4496 26.5132 20.4913C26.6948 20.6771 26.8873 20.8521 27.0898 21.0155C27.1348 21.0521 27.1832 21.0846 27.229 21.1196C27.394 21.2463 27.564 21.3646 27.7407 21.4755C27.8065 21.5163 27.8715 21.5571 27.939 21.5963C28.1332 21.7088 28.3332 21.813 28.5398 21.9063C28.5765 21.923 28.6115 21.943 28.6482 21.9588C28.8898 22.063 29.1407 22.1505 29.3965 22.2255C29.4648 22.2455 29.534 22.2605 29.6032 22.2788C29.8023 22.3305 30.004 22.373 30.2098 22.4063C30.2873 22.4188 30.3648 22.4321 30.4432 22.4421C30.7148 22.4763 30.9907 22.4996 31.2715 22.4996C31.5523 22.4996 31.829 22.4763 32.1015 22.4421C32.1798 22.4321 32.2573 22.4188 32.3348 22.4063C32.5407 22.373 32.7423 22.3305 32.9415 22.2788C33.0107 22.2613 33.0798 22.2455 33.1482 22.2255C33.404 22.1505 33.654 22.063 33.8965 21.9588C33.934 21.943 33.9682 21.923 34.0048 21.9063C34.2107 21.813 34.4107 21.7096 34.6057 21.5963C34.6732 21.5571 34.7382 21.5171 34.804 21.4755C34.9807 21.3646 35.1507 21.2463 35.3157 21.1196C35.3615 21.0846 35.4098 21.0521 35.4548 21.0155C35.6573 20.8521 35.8498 20.6771 36.0315 20.4913C36.0723 20.4496 36.1098 20.4046 36.1498 20.3613C36.2907 20.2096 36.424 20.0521 36.5507 19.8888C36.5982 19.8271 36.6448 19.7655 36.6898 19.7021C36.8207 19.5196 36.9423 19.3313 37.054 19.1363C37.0698 19.1088 37.0898 19.0838 37.1057 19.0563C37.1215 19.0838 37.1415 19.1088 37.1573 19.1363C37.269 19.3313 37.3915 19.5196 37.5215 19.7021C37.5665 19.7655 37.6132 19.8271 37.6607 19.8888C37.7873 20.053 37.9207 20.2105 38.0615 20.3613C38.1015 20.4046 38.1382 20.4496 38.1798 20.4913C38.3615 20.6771 38.554 20.8521 38.7565 21.0155C38.8015 21.0521 38.8498 21.0846 38.8957 21.1196C39.0607 21.2463 39.2307 21.3646 39.4073 21.4755C39.4732 21.5163 39.5382 21.5571 39.6057 21.5963C39.7998 21.7088 39.9998 21.813 40.2065 21.9063C40.2432 21.923 40.2782 21.943 40.3148 21.9588C40.5565 22.063 40.8073 22.1505 41.0632 22.2255C41.1315 22.2455 41.2007 22.2605 41.2698 22.2788C41.469 22.3305 41.6707 22.373 41.8765 22.4063C41.954 22.4188 42.0315 22.4321 42.1098 22.4421C42.3815 22.4763 42.6573 22.4996 42.9382 22.4996C43.154 22.4996 43.3665 22.4871 43.5782 22.4671C43.6332 22.4621 43.6873 22.453 43.7423 22.4463C43.9023 22.4271 44.0615 22.4038 44.219 22.373C44.2698 22.363 44.319 22.3513 44.369 22.3405C44.5365 22.3038 44.7015 22.2613 44.864 22.213C44.8965 22.203 44.929 22.1938 44.9615 22.183C45.1532 22.1221 45.3415 22.0538 45.5257 21.9763C45.5282 21.9755 45.5298 21.9746 45.5323 21.9738C46.0965 21.7355 46.6265 21.4246 47.1048 21.0388V48.333Z" fill="#016DEA"/>
<path d="M41.2708 35.833C40.81 35.833 40.4375 36.2055 40.4375 36.6663V39.1663C40.4375 39.6272 40.81 39.9997 41.2708 39.9997C41.7317 39.9997 42.1042 39.6272 42.1042 39.1663V36.6663C42.1042 36.2055 41.7317 35.833 41.2708 35.833Z" fill="#016DEA"/>
<path d="M15.439 32.4997C15.6523 32.4997 15.8657 32.4181 16.0282 32.2556L19.3615 28.9222C19.6873 28.5964 19.6873 28.0697 19.3615 27.7439C19.0357 27.4181 18.509 27.4181 18.1832 27.7439L14.8498 31.0772C14.524 31.4031 14.524 31.9297 14.8498 32.2556C15.0132 32.4181 15.2265 32.4997 15.439 32.4997Z" fill="#016DEA"/>
<path d="M15.439 36.6664C15.6523 36.6664 15.8657 36.5848 16.0282 36.4223L17.6948 34.7556C18.0207 34.4298 18.0207 33.9031 17.6948 33.5773C17.369 33.2514 16.8423 33.2514 16.5165 33.5773L14.8498 35.2439C14.524 35.5698 14.524 36.0964 14.8498 36.4223C15.0132 36.5848 15.2265 36.6664 15.439 36.6664Z" fill="#016DEA"/>
<path d="M18.1792 31.908C18.0283 32.0655 17.9375 32.283 17.9375 32.4997C17.9375 32.7163 18.0283 32.933 18.1792 33.083C18.3367 33.2405 18.545 33.333 18.7708 33.333C18.9875 33.333 19.2042 33.2413 19.3625 33.0913C19.5125 32.933 19.6042 32.7163 19.6042 32.4997C19.6042 32.283 19.5125 32.0655 19.3625 31.908C19.0542 31.5997 18.4883 31.5997 18.1792 31.908Z" fill="#016DEA"/>
<path d="M19.8492 31.4222C20.0126 31.5847 20.2259 31.6664 20.4384 31.6664C20.6509 31.6664 20.8651 31.5847 21.0276 31.4222L23.5276 28.9222C23.8534 28.5964 23.8534 28.0697 23.5276 27.7439C23.2017 27.4181 22.6751 27.4181 22.3492 27.7439L19.8492 30.2439C19.5242 30.5697 19.5242 31.0964 19.8492 31.4222Z" fill="#016DEA"/>
<path d="M15.439 40.8329C15.6523 40.8329 15.8657 40.7512 16.0282 40.5887L23.5282 33.0887C23.854 32.7629 23.854 32.2362 23.5282 31.9104C23.2023 31.5846 22.6757 31.5846 22.3498 31.9104L14.8498 39.4104C14.524 39.7362 14.524 40.2629 14.8498 40.5887C15.0132 40.7512 15.2265 40.8329 15.439 40.8329Z" fill="#016DEA"/>
<path d="M24.0132 31.4247C24.1707 31.5747 24.3882 31.6664 24.6048 31.6664C24.8215 31.6664 25.0382 31.5747 25.1965 31.4247C25.3465 31.2664 25.4382 31.0497 25.4382 30.833C25.4382 30.6164 25.3465 30.3989 25.1965 30.2414C24.8882 29.933 24.3215 29.933 24.0132 30.2414C23.8623 30.3989 23.7715 30.6164 23.7715 30.833C23.7715 31.0497 23.8632 31.2664 24.0132 31.4247Z" fill="#016DEA"/>
</g>
<defs>
<clipPath id="clip0_6857_202780">
<rect width="50" height="50" fill="white"/>
</clipPath>
</defs>
</svg>
