<svg width="24" height="24" viewBox="0 0 24 24" fill="none" xmlns="http://www.w3.org/2000/svg">
<mask id="path-1-inside-1_22_7019" fill="white">
<path d="M4.125 24H19.875C20.4953 24 21 23.4953 21 22.875V1.125C21 0.50475 20.4953 0 19.875 0H4.125C3.50475 0 3 0.50475 3 1.125V22.875C3 23.4953 3.50475 24 4.125 24ZM3.75 1.125C3.75 0.918 3.918 0.75 4.125 0.75H19.875C20.082 0.75 20.25 0.918 20.25 1.125V22.875C20.25 23.082 20.082 23.25 19.875 23.25H4.125C3.918 23.25 3.75 23.082 3.75 22.875V1.125Z"/>
</mask>
<path d="M4.125 25H19.875V23H4.125V25ZM19.875 25C21.0475 25 22 24.0475 22 22.875H20C20 22.943 19.943 23 19.875 23V25ZM22 22.875V1.125H20V22.875H22ZM22 1.125C22 -0.0475348 21.0475 -1 19.875 -1V1C19.943 1 20 1.05703 20 1.125H22ZM19.875 -1H4.125V1H19.875V-1ZM4.125 -1C2.95247 -1 2 -0.0475348 2 1.125H4C4 1.05703 4.05703 1 4.125 1V-1ZM2 1.125V22.875H4V1.125H2ZM2 22.875C2 24.0475 2.95247 25 4.125 25V23C4.05703 23 4 22.943 4 22.875H2ZM4.75 1.125C4.75 1.47028 4.47028 1.75 4.125 1.75V-0.25C3.36572 -0.25 2.75 0.365715 2.75 1.125H4.75ZM4.125 1.75H19.875V-0.25H4.125V1.75ZM19.875 1.75C19.5297 1.75 19.25 1.47028 19.25 1.125H21.25C21.25 0.365715 20.6343 -0.25 19.875 -0.25V1.75ZM19.25 1.125V22.875H21.25V1.125H19.25ZM19.25 22.875C19.25 22.5297 19.5297 22.25 19.875 22.25V24.25C20.6343 24.25 21.25 23.6343 21.25 22.875H19.25ZM19.875 22.25H4.125V24.25H19.875V22.25ZM4.125 22.25C4.47028 22.25 4.75 22.5297 4.75 22.875H2.75C2.75 23.6343 3.36572 24.25 4.125 24.25V22.25ZM4.75 22.875V1.125H2.75V22.875H4.75Z" fill="white" mask="url(#path-1-inside-1_22_7019)"/>
<mask id="path-3-inside-2_22_7019" fill="white">
<path d="M12 18.2542C11.1727 18.2542 10.5 18.9269 10.5 19.7542C10.5 20.5814 11.1727 21.2542 12 21.2542C12.8273 21.2542 13.5 20.5814 13.5 19.7542C13.5 18.9269 12.8273 18.2542 12 18.2542ZM12 20.5042C11.5868 20.5042 11.25 20.1674 11.25 19.7542C11.25 19.3409 11.5868 19.0042 12 19.0042C12.4132 19.0042 12.75 19.3409 12.75 19.7542C12.75 20.1674 12.4132 20.5042 12 20.5042Z"/>
</mask>
<path d="M12 17.2542C10.6205 17.2542 9.5 18.3746 9.5 19.7542H11.5C11.5 19.4792 11.725 19.2542 12 19.2542V17.2542ZM9.5 19.7542C9.5 21.1337 10.6205 22.2542 12 22.2542V20.2542C11.725 20.2542 11.5 20.0291 11.5 19.7542H9.5ZM12 22.2542C13.3795 22.2542 14.5 21.1337 14.5 19.7542H12.5C12.5 20.0291 12.275 20.2542 12 20.2542V22.2542ZM14.5 19.7542C14.5 18.3746 13.3795 17.2542 12 17.2542V19.2542C12.275 19.2542 12.5 19.4792 12.5 19.7542H14.5ZM12 19.5042C12.139 19.5042 12.25 19.6151 12.25 19.7542H10.25C10.25 20.7197 11.0345 21.5042 12 21.5042V19.5042ZM12.25 19.7542C12.25 19.8932 12.139 20.0042 12 20.0042V18.0042C11.0345 18.0042 10.25 18.7886 10.25 19.7542H12.25ZM12 20.0042C11.861 20.0042 11.75 19.8932 11.75 19.7542H13.75C13.75 18.7886 12.9655 18.0042 12 18.0042V20.0042ZM11.75 19.7542C11.75 19.6151 11.861 19.5042 12 19.5042V21.5042C12.9655 21.5042 13.75 20.7197 13.75 19.7542H11.75Z" fill="white" mask="url(#path-3-inside-2_22_7019)"/>
<line x1="6.11011" y1="6.18994" x2="18.0101" y2="6.18994" stroke="white" stroke-linecap="round"/>
<line x1="9.80005" y1="3.28003" x2="14.2" y2="3.28003" stroke="white" stroke-linecap="round"/>
<line x1="6.11011" y1="9.18994" x2="18.0101" y2="9.18994" stroke="white" stroke-linecap="round"/>
<line x1="6.11011" y1="12.1899" x2="12.6101" y2="12.1899" stroke="white" stroke-linecap="round"/>
<line x1="6.11011" y1="15.1899" x2="12.6101" y2="15.1899" stroke="white" stroke-linecap="round"/>
</svg>
