<svg width="21" height="21" viewBox="0 0 21 21" fill="none" xmlns="http://www.w3.org/2000/svg">
<path fill-rule="evenodd" clip-rule="evenodd" d="M18.4631 6.21579C18.4761 6.39079 18.4761 6.56479 18.4761 6.73879C18.4761 12.0638 14.4231 18.1998 7.01608 18.1998C4.73408 18.1998 2.61408 17.5388 0.830078 16.3908C1.15408 16.4278 1.46608 16.4408 1.80308 16.4408C3.68608 16.4408 5.41908 15.8048 6.80408 14.7198C5.03308 14.6828 3.54908 13.5228 3.03708 11.9268C3.28608 11.9638 3.53608 11.9888 3.79808 11.9888C4.15908 11.9888 4.52208 11.9388 4.85908 11.8518C3.01208 11.4778 1.62908 9.85679 1.62908 7.89879V7.84879C2.16608 8.14779 2.78908 8.33479 3.44908 8.35979C2.36408 7.63779 1.65308 6.40279 1.65308 5.00579C1.65308 4.25779 1.85208 3.57179 2.20108 2.97379C4.18408 5.41679 7.16508 7.01379 10.5071 7.18879C10.4451 6.88879 10.4071 6.57779 10.4071 6.26579C10.4071 4.04579 12.2031 2.23779 14.4351 2.23779C15.5951 2.23779 16.6421 2.72379 17.3781 3.50979C18.2881 3.33479 19.1601 2.99779 19.9341 2.53679C19.6351 3.47179 18.9981 4.25779 18.1631 4.75679C18.9741 4.66879 19.7601 4.44479 20.4821 4.13279C19.9341 4.93079 19.2491 5.64179 18.4631 6.21579Z" fill="white"/>
</svg>
