<svg width="16" height="16" viewBox="0 0 16 16" fill="none" xmlns="http://www.w3.org/2000/svg">
<path d="M10.5132 0L10.4929 0.224969C10.437 0.844687 10.153 1.41872 9.6932 1.84141C9.23067 2.26669 8.62958 2.50087 8.0007 2.50087C7.3718 2.50087 6.77073 2.26669 6.3082 1.84141C5.84845 1.41869 5.56445 0.844625 5.50852 0.224969L5.48817 0H3.50195V16H12.4994V0H10.5132ZM12.005 4.75172H11.752V5.24609H12.005V15.5056H3.99633V5.24606H4.24933V4.75169H3.99633V0.494375H5.04502C5.15455 1.14991 5.4792 1.75084 5.97358 2.20534C6.52764 2.71475 7.24752 2.99528 8.0007 2.99528C8.75389 2.99528 9.47377 2.71475 10.0278 2.20534C10.5222 1.75084 10.8468 1.14991 10.9564 0.494375H12.0051V4.75172H12.005Z" fill="#016DEA"/>
<path d="M5.24823 4.75183H4.74805V5.24621H5.24823V4.75183Z" fill="#016DEA"/>
<path d="M6.25016 4.75183H5.75V5.24621H6.25016V4.75183Z" fill="#016DEA"/>
<path d="M7.25019 4.75183H6.75V5.24621H7.25019V4.75183Z" fill="#016DEA"/>
<path d="M8.25016 4.75183H7.75V5.24621H8.25016V4.75183Z" fill="#016DEA"/>
<path d="M9.25019 4.75183H8.75V5.24621H9.25019V4.75183Z" fill="#016DEA"/>
<path d="M10.2502 4.75183H9.75V5.24621H10.2502V4.75183Z" fill="#016DEA"/>
<path d="M11.2521 4.75183H10.752V5.24621H11.2521V4.75183Z" fill="#016DEA"/>
<path d="M4.75195 6.0022V10.7481H11.2485V6.0022H4.75195ZM10.7541 10.2537H5.24633V6.49657H10.7541V10.2537Z" fill="#016DEA"/>
<path d="M10.2517 11.2541H5.75V11.7485H10.2517V11.2541Z" fill="#016DEA"/>
<path d="M10.2517 12.2543H5.75V12.7487H10.2517V12.2543Z" fill="#016DEA"/>
<path d="M7.50072 13.2549H5.75V13.7493H7.50072V13.2549Z" fill="#016DEA"/>
<path d="M6.50028 14.2552H5.75V14.7496H6.50028V14.2552Z" fill="#016DEA"/>
<path d="M7.75028 14.2552H7V14.7496H7.75028V14.2552Z" fill="#016DEA"/>
<path d="M9.00028 14.2552H8.25V14.7496H9.00028V14.2552Z" fill="#016DEA"/>
<path d="M10.2503 14.2552H9.5V14.7496H10.2503V14.2552Z" fill="#016DEA"/>
</svg>
