<svg width="24" height="24" viewBox="0 0 24 24" fill="none" xmlns="http://www.w3.org/2000/svg">
<g clip-path="url(#clip0_22_6811)">
<path d="M5.05312 0.0750005C4.35 0.225 3.65625 0.61875 3.13594 1.15781C2.41406 1.90781 2.0625 2.77969 2.0625 3.84375C2.0625 4.90781 2.41406 5.77969 3.13594 6.52969C3.87656 7.29844 4.80937 7.6875 5.90625 7.6875C6.97031 7.6875 7.84219 7.33594 8.59219 6.61406C9.36094 5.87344 9.75 4.94063 9.75 3.84375C9.75 2.74688 9.36094 1.81406 8.59219 1.07344C8.05781 0.553125 7.425 0.215625 6.72656 0.070313C6.29531 -0.0187495 5.475 -0.014062 5.05312 0.0750005ZM6.60937 1.05469C7.60312 1.31719 8.43281 2.14688 8.69531 3.14063C8.78437 3.47344 8.78437 4.21406 8.69531 4.54688C8.43281 5.54063 7.60312 6.37031 6.60937 6.63281C6.46875 6.67031 6.15 6.70313 5.90625 6.70313C5.6625 6.70313 5.34375 6.67031 5.20312 6.63281C4.20937 6.37031 3.37969 5.54063 3.11719 4.54688C3.02812 4.21406 3.02812 3.47344 3.11719 3.14063C3.37969 2.15625 4.20469 1.32656 5.17969 1.05469C5.49844 0.970313 6.29062 0.970313 6.60937 1.05469Z" fill="white"/>
<path d="M7.07805 2.58282C7.01242 2.60626 6.6093 2.98126 6.17805 3.40782L5.39523 4.19063L5.06711 3.87657C4.76711 3.58595 4.72961 3.56251 4.53742 3.56251C4.21398 3.56251 3.98898 3.8297 4.0593 4.14376C4.0968 4.32657 4.96867 5.23126 5.19836 5.3297C5.49836 5.45626 5.57336 5.4047 6.64211 4.34532C7.18586 3.80626 7.6593 3.3047 7.68742 3.2297C7.85148 2.84063 7.46242 2.43282 7.07805 2.58282Z" fill="white"/>
<path d="M10.7484 0.084374C10.5938 0.206249 10.5281 0.431249 10.5938 0.628124C10.7016 0.956249 10.3406 0.932812 15.7594 0.946874C21.0563 0.960937 20.775 0.946874 20.9156 1.21406C20.9672 1.30781 20.9766 3.29062 20.9766 12C20.9766 23.5453 20.9906 22.8328 20.7281 22.9734C20.5547 23.0672 3.45 23.0719 3.27656 22.9781C3.00938 22.8375 3.02344 23.2547 3 16.2516L2.97656 9.7875L2.84531 9.675C2.65313 9.51094 2.38125 9.52031 2.19844 9.69844L2.0625 9.83437V16.3922V22.9453L2.175 23.1844C2.31563 23.4891 2.57344 23.7469 2.87813 23.8875L3.11719 24H12H20.8828L21.1219 23.8875C21.4266 23.7469 21.6844 23.4891 21.825 23.1844L21.9375 22.9453V12V1.05469L21.825 0.815624C21.6844 0.510937 21.4266 0.253124 21.1219 0.112499L20.8828 -9.53674e-07H15.8672C11.1891 -9.53674e-07 10.8469 0.00937405 10.7484 0.084374Z" fill="white"/>
<path d="M11.0625 1.92188C10.95 1.94531 10.8187 2.00625 10.7719 2.05313C10.6547 2.17031 10.6125 2.44688 10.6875 2.625C10.7906 2.87344 10.9031 2.89688 11.7422 2.87344C12.3281 2.85469 12.5859 2.86406 12.9141 2.925C15.1125 3.3375 16.7719 5.00156 17.1797 7.19531C17.2875 7.75313 17.2547 8.85938 17.1187 9.375C16.9453 10.0313 16.65 10.6594 16.2656 11.1844L16.05 11.4797L15.9187 11.2641C15.4828 10.575 14.7187 9.93281 13.9406 9.58594C13.8 9.525 13.6875 9.45469 13.6875 9.43125C13.6875 9.40781 13.7297 9.35156 13.7812 9.30469C13.9172 9.17813 14.1328 8.775 14.2219 8.475C14.3344 8.08594 14.325 7.04063 14.2078 6.69844C14.0625 6.2625 13.9219 6.0375 13.6219 5.7375C13.1672 5.28281 12.6375 5.0625 12 5.0625C11.3625 5.0625 10.8328 5.28281 10.3781 5.7375C10.0781 6.0375 9.93749 6.2625 9.79218 6.69844C9.67499 7.04063 9.66562 8.08594 9.77812 8.475C9.86718 8.775 10.0828 9.17813 10.2187 9.30469C10.2703 9.35156 10.3125 9.40781 10.3125 9.43125C10.3125 9.45469 10.2 9.525 10.0594 9.58594C9.28124 9.93281 8.51718 10.575 8.08124 11.2641L7.94999 11.4797L7.72968 11.1797C7.31718 10.6078 6.95624 9.7875 6.82031 9.09375C6.74062 8.70938 6.51093 8.52656 6.19687 8.60625C6.07968 8.63438 5.99062 8.7 5.91562 8.8125C5.78906 9 5.79843 9.11719 5.95781 9.73125C6.24843 10.8328 6.81562 11.7891 7.67812 12.6141C8.50781 13.4156 9.37031 13.8891 10.5234 14.1844C11.0016 14.3109 11.1 14.3203 11.9531 14.3203C12.9094 14.3203 13.3078 14.2688 13.9453 14.0531C15.8156 13.4344 17.325 11.925 17.9437 10.0547C18.1547 9.42656 18.2109 9.01406 18.2109 8.10938C18.2109 7.44375 18.1922 7.14844 18.1266 6.84375C17.8594 5.61094 17.3062 4.59844 16.4109 3.69844C15.5297 2.81719 14.5266 2.26406 13.3125 1.99219C12.9047 1.89844 11.4 1.85625 11.0625 1.92188ZM12.4359 6.12188C12.7406 6.225 13.0875 6.54844 13.2187 6.85313C13.3125 7.05938 13.3312 7.18125 13.3312 7.59375C13.3312 8.16563 13.2422 8.42813 12.9469 8.7375C12.2906 9.42188 11.175 9.21094 10.7766 8.32031C10.6875 8.12344 10.6687 8.00156 10.6687 7.59375C10.6687 6.97969 10.7719 6.7125 11.1187 6.39844C11.4937 6.06094 11.9672 5.9625 12.4359 6.12188ZM12.8719 10.2656C13.8375 10.5094 14.6766 11.1281 15.1828 11.9672C15.2437 12.0656 15.2812 12.1734 15.2672 12.2063C15.2297 12.3047 14.6297 12.6844 14.1891 12.8906C13.9687 12.9938 13.5844 13.1344 13.3312 13.2047C12.9047 13.3219 12.7969 13.3359 12.0234 13.3359C11.3766 13.3359 11.1 13.3172 10.8375 13.2516C10.1812 13.0922 9.62812 12.8484 9.03749 12.4547L8.67656 12.2156L8.79843 12C9.28593 11.1609 10.1391 10.5188 11.1094 10.2703C11.6016 10.1391 12.375 10.1391 12.8719 10.2656Z" fill="white"/>
<path d="M2.18437 7.95C2.08594 8.04844 2.0625 8.11875 2.0625 8.29688C2.0625 8.60625 2.22187 8.76562 2.53125 8.76562C2.84062 8.76562 3 8.60625 3 8.29688C3 7.9875 2.84062 7.82813 2.53125 7.82813C2.35312 7.82813 2.28281 7.85156 2.18437 7.95Z" fill="white"/>
<path d="M7.37351 16.1155C7.12976 16.303 7.13913 16.7343 7.38288 16.8937C7.55632 17.0062 7.84694 16.9874 8.00163 16.8562C8.11413 16.7577 8.13288 16.7062 8.13288 16.4999C8.13288 16.2937 8.11413 16.2421 8.00163 16.1437C7.84226 16.0077 7.52819 15.9937 7.37351 16.1155Z" fill="white"/>
<path d="M9.34219 16.1438C9.22969 16.2422 9.21094 16.2938 9.21094 16.5C9.21094 16.7063 9.22969 16.7579 9.34219 16.8563L9.47344 16.9688H12.9891C16.8891 16.9688 16.6734 16.9875 16.7812 16.6594C16.8234 16.5422 16.8234 16.4579 16.7812 16.3407C16.6734 16.0125 16.8891 16.0313 12.9891 16.0313H9.47344L9.34219 16.1438Z" fill="white"/>
<path d="M7.37351 18.7405C7.12976 18.928 7.13913 19.3593 7.38288 19.5187C7.55632 19.6312 7.84694 19.6124 8.00163 19.4812C8.11413 19.3827 8.13288 19.3312 8.13288 19.1249C8.13288 18.9187 8.11413 18.8671 8.00163 18.7687C7.84226 18.6327 7.52819 18.6187 7.37351 18.7405Z" fill="white"/>
<path d="M9.34219 18.7688C9.22969 18.8672 9.21094 18.9188 9.21094 19.125C9.21094 19.3313 9.22969 19.3829 9.34219 19.4813L9.47344 19.5938H12.9891C16.8891 19.5938 16.6734 19.6125 16.7812 19.2844C16.8234 19.1672 16.8234 19.0829 16.7812 18.9657C16.6734 18.6375 16.8891 18.6563 12.9891 18.6563H9.47344L9.34219 18.7688Z" fill="white"/>
</g>
<defs>
<clipPath id="clip0_22_6811">
<rect width="24" height="24" fill="white"/>
</clipPath>
</defs>
</svg>
