<svg width="16" height="14" viewBox="0 0 16 14" fill="none" xmlns="http://www.w3.org/2000/svg">
<path d="M9.64734 6.81879L9.63182 6.52096L9.63182 6.52092L9.63128 6.52095L9.63128 6.52098L9.64734 6.81879ZM9.64734 6.81879C9.48247 6.82738 9.3423 6.7015 9.33344 6.53704C9.33344 6.53702 9.33343 6.537 9.33343 6.53697L9.2993 5.90255L9.92915 6.50492C9.92915 6.50495 9.92916 6.50497 9.92916 6.505C9.93798 6.66946 9.8118 6.80992 9.64734 6.81879Z" stroke="#016DEA" stroke-width="2"/>
<mask id="path-2-inside-1_4625_54694" fill="white">
<path d="M2.8432 1.4274C2.67843 1.4274 2.54492 1.56095 2.54492 1.72568V3.12257C2.54492 4.47123 3.64215 5.56845 4.9908 5.56845C6.33946 5.56845 7.43668 4.47123 7.43668 3.12257V1.72568C7.43668 1.56095 7.30317 1.4274 7.13841 1.4274C6.97364 1.4274 6.84013 1.56095 6.84013 1.72568V3.12257C6.84013 4.14229 6.01056 4.9719 4.9908 4.9719C3.97105 4.9719 3.14148 4.14229 3.14148 3.12257V1.72568C3.14148 1.56095 3.00797 1.4274 2.8432 1.4274Z"/>
</mask>
<path d="M2.8432 -0.572601C1.57369 -0.572601 0.544922 0.456552 0.544922 1.72568H4.54492C4.54492 2.66534 3.78317 3.4274 2.8432 3.4274V-0.572601ZM0.544922 1.72568V3.12257H4.54492V1.72568H0.544922ZM0.544922 3.12257C0.544922 5.5758 2.53758 7.56845 4.9908 7.56845V3.56845C4.74672 3.56845 4.54492 3.36666 4.54492 3.12257H0.544922ZM4.9908 7.56845C7.44403 7.56845 9.43668 5.5758 9.43668 3.12257H5.43668C5.43668 3.36666 5.23489 3.56845 4.9908 3.56845V7.56845ZM9.43668 3.12257V1.72568H5.43668V3.12257H9.43668ZM9.43668 1.72568C9.43668 0.456553 8.40792 -0.572601 7.13841 -0.572601V3.4274C6.19843 3.4274 5.43668 2.66534 5.43668 1.72568H9.43668ZM7.13841 -0.572601C5.86889 -0.572601 4.84013 0.456553 4.84013 1.72568H8.84013C8.84013 2.66534 8.07838 3.4274 7.13841 3.4274V-0.572601ZM4.84013 1.72568V3.12257H8.84013V1.72568H4.84013ZM4.84013 3.12257C4.84013 3.03774 4.90596 2.9719 4.9908 2.9719V6.9719C7.11515 6.9719 8.84013 5.24683 8.84013 3.12257H4.84013ZM4.9908 2.9719C5.07565 2.9719 5.14148 3.03774 5.14148 3.12257H1.14148C1.14148 5.24683 2.86645 6.9719 4.9908 6.9719V2.9719ZM5.14148 3.12257V1.72568H1.14148V3.12257H5.14148ZM5.14148 1.72568C5.14148 0.456553 4.11271 -0.572601 2.8432 -0.572601V3.4274C1.90322 3.4274 1.14148 2.66534 1.14148 1.72568H5.14148Z" fill="#016DEA" mask="url(#path-2-inside-1_4625_54694)"/>
<mask id="path-4-inside-2_4625_54694" fill="white">
<path d="M15.7023 7.1789H14.8744L14.6995 3.88221C14.6911 3.72385 14.5602 3.59972 14.4016 3.59972H13.9244V3.29568C13.9244 2.7068 13.4454 2.22772 12.8565 2.22772C12.2676 2.22772 11.7885 2.7068 11.7885 3.29568V3.59972H11.3984C11.2398 3.59972 11.109 3.72385 11.1006 3.88221L10.9257 7.1789H6.03851C5.87374 7.1789 5.74023 7.31245 5.74023 7.47718V13.3828C5.74023 13.5475 5.87374 13.6811 6.03851 13.6811H15.7022C15.867 13.6811 16.0005 13.5475 16.0005 13.3828V7.47718C16.0006 7.31245 15.867 7.1789 15.7023 7.1789ZM12.385 3.29572C12.385 3.03578 12.5965 2.82432 12.8564 2.82432C13.1163 2.82432 13.3278 3.03578 13.3278 3.29572V3.59976H12.385L12.385 3.29572ZM11.6813 4.19632H14.1187L14.277 7.1789H11.523L11.6813 4.19632ZM15.404 7.77546V8.67021H6.33679V7.77546H15.404ZM6.33679 13.0845V9.26681H15.404V13.0845H6.33679Z"/>
</mask>
<path d="M14.8744 7.1789L12.8772 7.28489L12.9778 9.1789H14.8744V7.1789ZM14.6995 3.88221L12.7023 3.98804L12.7023 3.9882L14.6995 3.88221ZM13.9244 3.59972H11.9244V5.59972H13.9244V3.59972ZM11.7885 3.59972V5.59972H13.7885V3.59972H11.7885ZM11.1006 3.88221L13.0978 3.98818L13.0978 3.98804L11.1006 3.88221ZM10.9257 7.1789V9.1789H12.8224L12.9229 7.28486L10.9257 7.1789ZM16.0005 7.47718L14.0005 7.4767V7.47718H16.0005ZM12.385 3.29572H10.385L10.385 3.29597L12.385 3.29572ZM13.3278 3.59976V5.59976H15.3278V3.59976H13.3278ZM12.385 3.59976L10.385 3.60002L10.3853 5.59976H12.385V3.59976ZM11.6813 4.19632V2.19632H9.78459L9.68407 4.09033L11.6813 4.19632ZM14.1187 4.19632L16.1159 4.09033L16.0154 2.19632H14.1187V4.19632ZM14.277 7.1789V9.1789H16.386L16.2742 7.07291L14.277 7.1789ZM11.523 7.1789L9.52578 7.07291L9.41402 9.1789H11.523V7.1789ZM15.404 7.77546H17.404V5.77546H15.404V7.77546ZM15.404 8.67021V10.6702H17.404V8.67021H15.404ZM6.33679 8.67021H4.33679V10.6702H6.33679V8.67021ZM6.33679 7.77546V5.77546H4.33679V7.77546H6.33679ZM6.33679 13.0845H4.33679V15.0845H6.33679V13.0845ZM6.33679 9.26681V7.26681H4.33679V9.26681H6.33679ZM15.404 9.26681H17.404V7.26681H15.404V9.26681ZM15.404 13.0845V15.0845H17.404V13.0845H15.404ZM15.7023 5.1789H14.8744V9.1789H15.7023V5.1789ZM16.8716 7.07291L16.6967 3.77622L12.7023 3.9882L12.8772 7.28489L16.8716 7.07291ZM16.6967 3.77638C16.632 2.55609 15.6237 1.59972 14.4016 1.59972V5.59972C13.4967 5.59972 12.7502 4.89161 12.7023 3.98804L16.6967 3.77638ZM14.4016 1.59972H13.9244V5.59972H14.4016V1.59972ZM15.9244 3.59972V3.29568H11.9244V3.59972H15.9244ZM15.9244 3.29568C15.9244 1.60223 14.5499 0.227722 12.8565 0.227722V4.22772C12.3408 4.22772 11.9244 3.81137 11.9244 3.29568H15.9244ZM12.8565 0.227722C11.1631 0.227722 9.78848 1.60213 9.78848 3.29568H13.7885C13.7885 3.81146 13.3721 4.22772 12.8565 4.22772V0.227722ZM9.78848 3.29568V3.59972H13.7885V3.29568H9.78848ZM11.7885 1.59972H11.3984V5.59972H11.7885V1.59972ZM11.3984 1.59972C10.1764 1.59972 9.16804 2.55608 9.10337 3.77638L13.0978 3.98804C13.0499 4.89162 12.3033 5.59972 11.3984 5.59972V1.59972ZM9.10338 3.77625L8.92847 7.07294L12.9229 7.28486L13.0978 3.98818L9.10338 3.77625ZM10.9257 5.1789H6.03851V9.1789H10.9257V5.1789ZM6.03851 5.1789C4.769 5.1789 3.74023 6.20805 3.74023 7.47718H7.74023C7.74023 8.41685 6.97849 9.1789 6.03851 9.1789V5.1789ZM3.74023 7.47718V13.3828H7.74023V7.47718H3.74023ZM3.74023 13.3828C3.74023 14.6519 4.769 15.6811 6.03851 15.6811V11.6811C6.97849 11.6811 7.74023 12.4431 7.74023 13.3828H3.74023ZM6.03851 15.6811H15.7022V11.6811H6.03851V15.6811ZM15.7022 15.6811C16.9718 15.6811 18.0005 14.6519 18.0005 13.3828H14.0005C14.0005 12.4431 14.7623 11.6811 15.7022 11.6811V15.6811ZM18.0005 13.3828V7.47718H14.0005V13.3828H18.0005ZM18.0005 7.47766C18.0008 6.20789 16.9715 5.1789 15.7023 5.1789V9.1789C14.7625 9.1789 14.0003 8.41702 14.0005 7.4767L18.0005 7.47766ZM14.385 3.29572C14.385 4.14046 13.7009 4.82432 12.8564 4.82432V0.824319C11.492 0.824319 10.385 1.9311 10.385 3.29572H14.385ZM12.8564 4.82432C12.0119 4.82432 11.3278 4.14046 11.3278 3.29572H15.3278C15.3278 1.9311 14.2208 0.824319 12.8564 0.824319V4.82432ZM11.3278 3.29572V3.59976H15.3278V3.29572H11.3278ZM13.3278 1.59976H12.385V5.59976H13.3278V1.59976ZM14.385 3.59951L14.385 3.29546L10.385 3.29597L10.385 3.60002L14.385 3.59951ZM11.6813 6.19632H14.1187V2.19632H11.6813V6.19632ZM12.1215 4.30231L12.2798 7.28489L16.2742 7.07291L16.1159 4.09033L12.1215 4.30231ZM14.277 5.1789H11.523V9.1789H14.277V5.1789ZM13.5202 7.28489L13.6784 4.30231L9.68407 4.09033L9.52578 7.07291L13.5202 7.28489ZM13.404 7.77546V8.67021H17.404V7.77546H13.404ZM15.404 6.67021H6.33679V10.6702H15.404V6.67021ZM8.33679 8.67021V7.77546H4.33679V8.67021H8.33679ZM6.33679 9.77546H15.404V5.77546H6.33679V9.77546ZM8.33679 13.0845V9.26681H4.33679V13.0845H8.33679ZM6.33679 11.2668H15.404V7.26681H6.33679V11.2668ZM13.404 9.26681V13.0845H17.404V9.26681H13.404ZM15.404 11.0845H6.33679V15.0845H15.404V11.0845Z" fill="#016DEA" mask="url(#path-4-inside-2_4625_54694)"/>
</svg>
