<svg width="24" height="24" viewBox="0 0 24 24" fill="none" xmlns="http://www.w3.org/2000/svg">
<path d="M3.65625 1.32181C3.54375 1.38275 3.40781 1.49056 3.35625 1.56087L3.25781 1.69212V9.5765V17.4609L3.38437 17.7281C3.54844 18.0843 3.82969 18.3749 4.18125 18.5671L4.47656 18.7265L6.85312 18.7406L9.22969 18.7546L9.24375 20.0999L9.25781 21.4452L9.40312 21.7499C9.64219 22.2515 10.0641 22.5937 10.5891 22.7156C10.9406 22.7999 18.9797 22.8093 19.3687 22.7296C19.9172 22.6124 20.3484 22.2656 20.5969 21.7499L20.7422 21.4452V18.4921V15.539L20.6156 15.2718C20.4516 14.9156 20.1703 14.6249 19.8187 14.4327L19.5234 14.2734L17.4375 14.2593L15.3516 14.2452L14.9062 13.8046C14.6625 13.5609 14.3812 13.3312 14.2875 13.289C14.1422 13.2327 13.8469 13.2187 12.4969 13.2187C11.4797 13.2187 10.7859 13.2374 10.6312 13.2702C10.0828 13.3874 9.65156 13.7343 9.40312 14.2499L9.25781 14.5546L9.24375 15.9046L9.22969 17.2546L7.08281 17.2406C5.34844 17.2312 4.92187 17.2124 4.86094 17.1609C4.78594 17.1046 4.78125 16.6781 4.78125 11.9249V6.74993H7.00312H9.22969L9.24375 8.09525L9.25781 9.44524L9.40312 9.74993C9.64219 10.2515 10.0641 10.5937 10.5891 10.7156C10.9406 10.7999 18.9797 10.8093 19.3687 10.7296C19.9172 10.6124 20.3484 10.2656 20.5969 9.74993L20.7422 9.44524V6.49212V3.539L20.6156 3.27181C20.4516 2.91556 20.1703 2.62493 19.8187 2.43275L19.5234 2.27337L17.4375 2.25931L15.3516 2.24525L14.9062 1.80462C14.6625 1.56087 14.3812 1.33118 14.2875 1.289C14.1422 1.23275 13.8469 1.21868 12.4969 1.21868C11.4797 1.21868 10.7859 1.23743 10.6312 1.27025C10.0828 1.38743 9.65156 1.73431 9.40312 2.24993L9.25781 2.55462L9.24375 3.89993L9.22969 5.24993H7.00312H4.78125V3.54837C4.78125 1.85618 4.78125 1.84212 4.67344 1.64056C4.55156 1.40618 4.25156 1.21868 4.0125 1.21868C3.92812 1.21868 3.76875 1.26556 3.65625 1.32181ZM14.0859 3.19212C14.3203 3.4265 14.55 3.64212 14.6016 3.67025C14.6672 3.71243 15.3234 3.73118 16.8797 3.74993C18.6375 3.76868 19.0781 3.78743 19.1391 3.839C19.2094 3.89525 19.2187 4.139 19.2187 6.48275C19.2187 8.81712 19.2094 9.07024 19.1391 9.14993C19.0687 9.22962 18.8766 9.23431 15.0094 9.23431C11.3016 9.23431 10.9453 9.22962 10.8656 9.15462C10.7859 9.08431 10.7812 8.92493 10.7812 6.00931C10.7812 3.21556 10.7906 2.92962 10.8609 2.84993C10.9312 2.77025 11.0391 2.76556 12.3 2.76556H13.6641L14.0859 3.19212ZM14.0859 15.1921C14.3203 15.4265 14.55 15.6421 14.6016 15.6702C14.6672 15.7124 15.3234 15.7312 16.8797 15.7499C18.6375 15.7687 19.0781 15.7874 19.1391 15.839C19.2094 15.8952 19.2187 16.139 19.2187 18.4827C19.2187 20.8171 19.2094 21.0702 19.1391 21.1499C19.0687 21.2296 18.8766 21.2343 15.0094 21.2343C11.3016 21.2343 10.9453 21.2296 10.8656 21.1546C10.7859 21.0843 10.7812 20.9249 10.7812 18.0093C10.7812 15.2156 10.7906 14.9296 10.8609 14.8499C10.9312 14.7702 11.0391 14.7656 12.3 14.7656H13.6641L14.0859 15.1921Z" fill="white"/>
</svg>
