<svg width="16" height="16" viewBox="0 0 16 16" fill="none" xmlns="http://www.w3.org/2000/svg">
<g clip-path="url(#clip0_4615_56927)">
<path d="M10.0057 5.13089C8.89982 4.49285 7.11333 4.49285 6.01395 5.13089C4.91457 5.76892 4.92111 6.80613 6.02704 7.44416C7.13296 8.0822 8.91945 8.0822 10.0188 7.44416C11.1182 6.80286 11.1117 5.76892 10.0057 5.13089ZM9.49859 6.13538C9.4037 6.16483 9.30881 6.19755 9.21393 6.22699C9.15503 6.24335 9.11904 6.24662 9.09286 6.23354C9.07978 6.22372 9.06669 6.21063 9.0536 6.191C8.99143 6.08957 8.89655 6.00123 8.76894 5.92924C8.75258 5.91943 8.73295 5.90961 8.71332 5.8998C8.67078 5.87689 8.63152 5.86053 8.57917 5.84745C8.39594 5.80491 8.23234 5.87362 8.25524 5.98814C8.26506 6.04704 8.29778 6.09939 8.33704 6.15501C8.40248 6.24662 8.47446 6.33824 8.52027 6.4364C8.67405 6.74396 8.34031 7.04826 7.80371 7.0777C7.61067 7.08752 7.42744 7.06462 7.25729 7.00899C7.18204 6.98609 7.12642 6.98609 7.07079 7.02535C7.01517 7.06134 6.953 7.09406 6.89411 7.12678C6.84175 7.15623 6.78613 7.1595 6.73378 7.13005C6.69452 7.11042 6.65852 7.08752 6.61926 7.06789C6.59309 7.05153 6.56691 7.03844 6.54073 7.02208C6.48511 6.98936 6.49165 6.95664 6.54401 6.92392C6.58654 6.89775 6.62908 6.87484 6.66834 6.84867C6.76323 6.79304 6.76323 6.78977 6.6847 6.7276C6.58654 6.64908 6.4982 6.56728 6.44257 6.47566C6.40004 6.40368 6.40985 6.38732 6.52437 6.34806C6.60944 6.32188 6.69124 6.29243 6.77632 6.26626C6.83848 6.24662 6.87447 6.24335 6.90065 6.25644C6.91701 6.26626 6.92683 6.27934 6.93991 6.30225C6.99554 6.40695 7.09042 6.49857 7.20494 6.58691C7.22457 6.60327 7.24748 6.61636 7.26711 6.62944C7.32928 6.66544 7.40126 6.69161 7.48306 6.71124C7.69574 6.76032 7.88551 6.67525 7.86588 6.5411C7.85933 6.49529 7.83643 6.45603 7.80698 6.4135C7.735 6.30552 7.64011 6.20409 7.59103 6.08957C7.51251 5.90634 7.5485 5.73947 7.80044 5.60859C8.08837 5.46135 8.40903 5.45154 8.74931 5.54315C8.89 5.58242 8.88673 5.58242 8.99471 5.52025C9.0307 5.49735 9.06669 5.47771 9.10268 5.45808C9.18448 5.41227 9.21393 5.41227 9.29573 5.45808C9.3219 5.47117 9.34481 5.48753 9.37098 5.50062C9.5444 5.59878 9.5444 5.59878 9.37425 5.70021C9.25319 5.76892 9.25319 5.76892 9.35462 5.85072C9.43315 5.91288 9.49532 5.97832 9.54112 6.05031C9.57712 6.0863 9.56403 6.11575 9.49859 6.13538ZM11.4814 8.28833C11.1771 8.46502 10.683 8.46502 10.3755 8.28833C10.0712 8.11164 10.0679 7.82371 10.3722 7.64703C10.6765 7.47034 11.1706 7.47034 11.4781 7.64703C11.7857 7.82371 11.789 8.11164 11.4814 8.28833ZM5.6573 4.92475C5.35301 5.10144 4.85894 5.10144 4.55138 4.92475C4.24382 4.74807 4.24382 4.46013 4.54811 4.28345C4.8524 4.10676 5.34647 4.10676 5.65403 4.28345C5.95832 4.46013 5.9616 4.74807 5.6573 4.92475ZM15.6204 6.91738L6.90065 1.88183C6.39677 1.59062 5.57878 1.59062 5.07817 1.88183L0.40253 4.59756C-0.09808 4.88876 -0.094808 5.36319 0.409074 5.6544L9.12886 10.69C9.63274 10.9812 10.4507 10.9812 10.9513 10.69L15.6237 7.97422C16.1276 7.68302 16.1243 7.20858 15.6204 6.91738ZM11.0462 9.73127C10.9906 9.67892 10.9252 9.62984 10.8466 9.58403C10.3362 9.28955 9.5084 9.28955 9.00125 9.58403C8.96199 9.60693 8.92927 9.62984 8.89328 9.65601L2.12358 5.74601C2.18902 5.71984 2.25119 5.69039 2.31009 5.65767C2.81724 5.36319 2.81397 4.88549 2.30354 4.59101C2.24792 4.55829 2.18902 4.52884 2.12686 4.50594L4.91784 2.88305C4.96038 2.91904 5.00946 2.95176 5.06508 2.98448C5.5755 3.27895 6.40331 3.27895 6.91047 2.98448C6.96936 2.95176 7.01844 2.91577 7.06425 2.8765L13.8568 6.79631C13.7652 6.82903 13.6834 6.86503 13.6049 6.91083C13.0977 7.20531 13.0977 7.68629 13.6114 7.98077C13.69 8.02657 13.7783 8.06256 13.8699 8.09528L11.0462 9.73127ZM0.180037 6.66216C0.40253 6.54765 0.746087 6.56401 0.958764 6.68834L10.0745 11.9497L15.002 9.08342C15.2147 8.95908 15.5648 8.95908 15.7808 9.08342C15.9967 9.20775 15.9967 9.41061 15.784 9.53495L10.5456 12.5779C10.2904 12.7284 9.87159 12.7284 9.61311 12.5779L9.42988 12.4732L9.30227 12.3979L0.163677 7.12351C-0.0588165 6.9959 -0.0555445 6.78323 0.180037 6.66216ZM15.7906 11.1807L10.5522 14.2237C10.2969 14.3742 9.87814 14.3742 9.61965 14.2237L9.43969 14.119L9.30882 14.0437L0.170221 8.76931C-0.0522725 8.6417 -0.0457286 8.42902 0.189853 8.30796C0.409074 8.19344 0.755902 8.2098 0.96858 8.33414L10.081 13.5955L15.0086 10.7325C15.2245 10.6082 15.5714 10.6082 15.7873 10.7325C16.0033 10.8536 16.0065 11.0564 15.7906 11.1807Z" fill="#016DEA"/>
</g>
<defs>
<clipPath id="clip0_4615_56927">
<rect width="16" height="16" fill="white"/>
</clipPath>
</defs>
</svg>
