<svg width="24" height="24" viewBox="0 0 24 24" fill="none" xmlns="http://www.w3.org/2000/svg">
<path d="M11.2406 0.557813C10.4953 0.801563 10.0125 1.35938 9.81563 2.18906C9.69844 2.68594 9.74532 3.61406 9.90938 4.10156C10.0688 4.56563 10.2938 4.94531 10.5656 5.19375L10.7719 5.38594L10.5563 5.41406C9.39375 5.56875 8.37657 6.30469 7.89375 7.34531C7.64063 7.87969 7.58906 8.175 7.56094 9.17344L7.53281 10.0781H5.41406C3.9375 10.0781 3.24844 10.0922 3.13594 10.1344C2.89219 10.2141 2.64844 10.4063 2.48438 10.65C2.35781 10.8328 2.325 10.9313 2.30625 11.1984C2.29219 11.4 2.30625 11.6156 2.34375 11.7422C2.42344 12.0234 2.72344 12.3609 3.02344 12.4969L3.25781 12.6094H12H20.7422L20.9766 12.4969C21.2719 12.3609 21.5766 12.0234 21.6563 11.7422C21.7313 11.4797 21.6984 10.9969 21.5906 10.7766C21.4875 10.5563 21.2297 10.2984 21.0047 10.1859C20.85 10.1109 20.6531 10.1016 18.6516 10.0875L16.4672 10.0734L16.4391 9.17344C16.4109 8.14688 16.3547 7.85156 16.0781 7.28906C15.5859 6.28125 14.5828 5.56406 13.4438 5.41406L13.2281 5.38594L13.4344 5.19375C13.7063 4.94531 13.9313 4.56563 14.0906 4.10156C14.2547 3.61406 14.3016 2.68594 14.1844 2.18906C14.0156 1.4625 13.5984 0.923438 12.9984 0.646876C12.7031 0.510938 12.6328 0.496876 12.0938 0.482813C11.6156 0.473438 11.4563 0.482813 11.2406 0.557813ZM12.7734 1.22813C13.3359 1.51875 13.5938 2.00156 13.6313 2.83594C13.6734 3.87188 13.3031 4.66406 12.6141 5.00156C12.3984 5.10938 12.2906 5.13281 12 5.12813C11.2078 5.12344 10.6734 4.62656 10.425 3.65625C10.3172 3.225 10.3547 2.42344 10.5 2.04375C10.6641 1.60781 11.0297 1.26563 11.4844 1.12031C11.55 1.09688 11.8125 1.0875 12.0703 1.09219C12.4688 1.10625 12.5766 1.125 12.7734 1.22813ZM13.7953 6.10781C14.5219 6.35625 15.1641 6.87656 15.4781 7.48125C15.7641 8.025 15.8063 8.22656 15.8297 9.19688L15.8578 10.0781H15.2859H14.7188V9.30938C14.7188 8.56406 14.7141 8.53594 14.6156 8.46563C14.4656 8.3625 14.3578 8.37188 14.2266 8.50781C14.1141 8.62031 14.1094 8.63906 14.1094 9.35156V10.0781H12H9.89063V9.35156C9.89063 8.63906 9.88594 8.62031 9.77344 8.50781C9.64219 8.37188 9.53438 8.3625 9.38438 8.46563C9.28594 8.53594 9.28125 8.56406 9.28125 9.30938V10.0781H8.71407H8.14219L8.17032 9.19688C8.19375 8.23125 8.23594 8.025 8.5125 7.5C8.81719 6.91875 9.35157 6.44531 9.98438 6.19219C10.4203 6.02344 10.6172 6.00469 12.1172 6.01875C13.3125 6.02813 13.6078 6.04688 13.7953 6.10781ZM20.7844 10.7766C21.1875 11.0438 21.2063 11.5969 20.8219 11.8828C20.6953 11.9766 20.6203 11.9766 12 11.9766C3.37969 11.9766 3.30469 11.9766 3.17813 11.8828C2.79375 11.5969 2.8125 11.0438 3.21563 10.7766C3.34688 10.6922 3.60469 10.6875 12 10.6875C20.3953 10.6875 20.6531 10.6922 20.7844 10.7766Z" fill="white"/>
<path d="M5.57347 13.275C4.98284 13.4859 4.51878 13.95 4.30784 14.5547C4.22816 14.7891 4.21409 14.9156 4.22816 15.3047C4.24222 15.7125 4.26566 15.8156 4.39222 16.0875C4.48128 16.275 4.64534 16.5094 4.80003 16.6687C4.94534 16.8187 5.06253 16.9453 5.06253 16.9547C5.06253 16.9641 5.02503 16.9687 4.97816 16.9687C4.83753 16.9687 4.26097 17.2687 3.95159 17.5031C3.25316 18.0328 2.77034 19.0312 2.82659 19.8281C2.85941 20.3297 3.11722 20.7281 3.57191 20.9812L3.82034 21.1172L5.78909 21.1312L7.75784 21.1453V21.7172C7.75784 22.2375 7.76722 22.3125 7.88441 22.5562C8.03441 22.8797 8.34378 23.1984 8.68128 23.3766L8.92972 23.5078H12H15.0703L15.3188 23.3766C15.6375 23.2078 15.9422 22.9031 16.111 22.5844C16.2328 22.35 16.2422 22.3031 16.2422 21.7406V21.1453L18.211 21.1312L20.1797 21.1172L20.4188 20.9906C20.8641 20.7562 21.1407 20.3297 21.1735 19.8281C21.2297 19.0406 20.761 18.0609 20.0719 17.5172C19.7813 17.2875 19.1672 16.9687 19.0219 16.9687C18.975 16.9687 18.9375 16.9641 18.9375 16.9547C18.9375 16.9453 19.0547 16.8187 19.2 16.6687C19.3547 16.5094 19.5188 16.275 19.6078 16.0875C19.7344 15.8156 19.7578 15.7125 19.7719 15.3047C19.786 14.9156 19.7719 14.7891 19.6922 14.5547C19.3172 13.4859 18.1922 12.9281 17.0953 13.2656C16.4907 13.4531 15.9516 13.9969 15.7735 14.5969C15.6844 14.8828 15.675 15.4734 15.75 15.7594C15.8391 16.0875 16.0735 16.4859 16.3172 16.7109C16.5703 16.95 16.5844 16.9687 16.4672 16.9687C16.3313 16.9687 15.6422 17.3297 15.4125 17.5219C15.0844 17.7984 14.7797 18.1734 14.6157 18.5062L14.4703 18.7969L14.325 18.7125C14.1375 18.6047 13.725 18.4406 13.4625 18.375L13.2563 18.3234L13.4719 18.1781C14.0766 17.7797 14.5313 16.9172 14.5313 16.1719C14.5313 14.7375 13.4063 13.5937 12 13.5937C10.5282 13.5937 9.36097 14.8641 9.48284 16.3312C9.54847 17.0812 9.95159 17.7984 10.5282 18.1781L10.7438 18.3234L10.5375 18.375C10.2703 18.4453 10.1063 18.5062 9.79691 18.6609L9.53441 18.7875L9.38441 18.4969C9.21097 18.1594 8.90628 17.7891 8.58753 17.5219C8.35784 17.3297 7.66878 16.9687 7.53284 16.9687C7.41566 16.9687 7.42972 16.95 7.68753 16.7062C7.98284 16.4297 8.23597 15.9375 8.29222 15.5156C8.41409 14.6062 7.95941 13.7484 7.14847 13.3594C6.85784 13.2187 6.76878 13.2 6.35159 13.1859C5.95316 13.1719 5.83597 13.1859 5.57347 13.275ZM6.93284 13.9453C7.75784 14.3953 7.95003 15.4781 7.33128 16.1672C6.75472 16.8094 5.85472 16.8328 5.24534 16.2234C4.93597 15.9141 4.82816 15.6422 4.82816 15.1922C4.82816 14.5781 5.19847 14.0719 5.80784 13.8422C6.09378 13.7344 6.63753 13.7859 6.93284 13.9453ZM18.361 13.9125C18.6703 14.0719 18.8719 14.2781 19.0313 14.5875C19.1438 14.8219 19.1719 14.9344 19.1719 15.1875C19.1719 15.6422 19.0641 15.9141 18.7547 16.2234C18.1453 16.8328 17.2453 16.8094 16.6688 16.1672C15.9844 15.4031 16.2985 14.2125 17.2828 13.8469C17.5407 13.7484 18.1125 13.7859 18.361 13.9125ZM12.8203 14.4094C13.6125 14.8031 14.0625 15.6937 13.875 16.5047C13.6453 17.4984 12.6563 18.1875 11.7188 18.0094C10.9078 17.8594 10.3078 17.2922 10.125 16.5047C9.94691 15.7312 10.3735 14.8359 11.1047 14.4422C11.475 14.2453 11.6766 14.2031 12.1125 14.2266C12.4219 14.2406 12.5391 14.2687 12.8203 14.4094ZM7.05941 17.4891C7.85159 17.6344 8.54066 18.1641 8.87816 18.8859L8.99534 19.1391L8.75628 19.4016C8.50784 19.6734 8.09066 20.2781 8.03909 20.4375C8.01097 20.5266 7.95003 20.5312 6.04222 20.5312C3.85316 20.5312 3.87659 20.5359 3.61878 20.2219C3.43128 19.9969 3.39378 19.8 3.45941 19.4344C3.63284 18.5062 4.41566 17.7141 5.35784 17.5078C5.71409 17.4328 6.67972 17.4187 7.05941 17.4891ZM18.6235 17.5078C19.5844 17.7094 20.3672 18.4922 20.5407 19.4344C20.6063 19.8 20.5688 19.9969 20.3813 20.2219C20.1235 20.5359 20.1469 20.5312 17.9578 20.5312C16.05 20.5312 15.9891 20.5266 15.961 20.4375C15.9094 20.2781 15.4922 19.6734 15.2438 19.4016L15.0047 19.1391L15.1219 18.8859C15.3703 18.3562 15.8625 17.8687 16.3828 17.6484C16.875 17.4422 17.9766 17.3719 18.6235 17.5078ZM13.2657 18.9609C13.6641 19.0594 14.161 19.3031 14.4938 19.5703C15.4313 20.3109 15.9422 21.7734 15.4875 22.4156C15.286 22.7016 15.0282 22.8656 14.6953 22.9219C14.325 22.9828 9.67503 22.9828 9.30472 22.9219C8.97191 22.8656 8.71409 22.7016 8.50784 22.4109C8.37191 22.2187 8.36722 22.1906 8.37191 21.7594C8.37659 21.2531 8.47972 20.8969 8.77034 20.4047C8.97191 20.0625 9.51097 19.5234 9.85316 19.3219C10.2141 19.1062 10.7157 18.9422 11.1469 18.8906C11.6532 18.8344 12.8953 18.8766 13.2657 18.9609Z" fill="white"/>
</svg>
