<svg width="24" height="24" viewBox="0 0 24 24" fill="none" xmlns="http://www.w3.org/2000/svg">
<g clip-path="url(#clip0_22_6964)">
<path d="M5.00999 2.78511C5.2309 2.78511 5.40999 2.60602 5.40999 2.38511C5.40999 2.16419 5.2309 1.98511 5.00999 1.98511C4.78907 1.98511 4.60999 2.16419 4.60999 2.38511C4.60999 2.60602 4.78907 2.78511 5.00999 2.78511Z" fill="white"/>
<path d="M3.80991 3.9853C4.03083 3.9853 4.20991 3.80622 4.20991 3.5853C4.20991 3.36439 4.03083 3.1853 3.80991 3.1853C3.589 3.1853 3.40991 3.36439 3.40991 3.5853C3.40991 3.80622 3.589 3.9853 3.80991 3.9853Z" fill="white"/>
<path d="M13.4099 3.9853C13.6308 3.9853 13.8099 3.80622 13.8099 3.5853C13.8099 3.36439 13.6308 3.1853 13.4099 3.1853C13.189 3.1853 13.0099 3.36439 13.0099 3.5853C13.0099 3.80622 13.189 3.9853 13.4099 3.9853Z" fill="white"/>
<path d="M14.61 2.78511C14.8309 2.78511 15.01 2.60602 15.01 2.38511C15.01 2.16419 14.8309 1.98511 14.61 1.98511C14.389 1.98511 14.21 2.16419 14.21 2.38511C14.21 2.60602 14.389 2.78511 14.61 2.78511Z" fill="white"/>
<path d="M15.8099 3.9853C16.0308 3.9853 16.2099 3.80622 16.2099 3.5853C16.2099 3.36439 16.0308 3.1853 15.8099 3.1853C15.589 3.1853 15.4099 3.36439 15.4099 3.5853C15.4099 3.80622 15.589 3.9853 15.8099 3.9853Z" fill="white"/>
<path d="M11.01 6.3852C11.2309 6.3852 11.41 6.20612 11.41 5.9852C11.41 5.76429 11.2309 5.58521 11.01 5.58521C10.7891 5.58521 10.61 5.76429 10.61 5.9852C10.61 6.20612 10.7891 6.3852 11.01 6.3852Z" fill="white"/>
<path d="M8.60996 6.3852C8.83087 6.3852 9.00996 6.20612 9.00996 5.9852C9.00996 5.76429 8.83087 5.58521 8.60996 5.58521C8.38905 5.58521 8.20996 5.76429 8.20996 5.9852C8.20996 6.20612 8.38905 6.3852 8.60996 6.3852Z" fill="white"/>
<path d="M20.61 6.3852C20.8309 6.3852 21.01 6.20612 21.01 5.9852C21.01 5.76429 20.8309 5.58521 20.61 5.58521C20.389 5.58521 20.21 5.76429 20.21 5.9852C20.21 6.20612 20.389 6.3852 20.61 6.3852Z" fill="white"/>
<path d="M9.80991 7.58516C10.0308 7.58516 10.2099 7.40607 10.2099 7.18516C10.2099 6.96424 10.0308 6.78516 9.80991 6.78516C9.589 6.78516 9.40991 6.96424 9.40991 7.18516C9.40991 7.40607 9.589 7.58516 9.80991 7.58516Z" fill="white"/>
<path d="M11.01 8.78511C11.2309 8.78511 11.41 8.60602 11.41 8.38511C11.41 8.16419 11.2309 7.98511 11.01 7.98511C10.7891 7.98511 10.61 8.16419 10.61 8.38511C10.61 8.60602 10.7891 8.78511 11.01 8.78511Z" fill="white"/>
<path d="M7.40989 7.58516C7.6308 7.58516 7.80989 7.40607 7.80989 7.18516C7.80989 6.96424 7.6308 6.78516 7.40989 6.78516C7.18897 6.78516 7.00989 6.96424 7.00989 7.18516C7.00989 7.40607 7.18897 7.58516 7.40989 7.58516Z" fill="white"/>
<path d="M8.60996 8.78511C8.83087 8.78511 9.00996 8.60602 9.00996 8.38511C9.00996 8.16419 8.83087 7.98511 8.60996 7.98511C8.38905 7.98511 8.20996 8.16419 8.20996 8.38511C8.20996 8.60602 8.38905 8.78511 8.60996 8.78511Z" fill="white"/>
<path d="M21.8099 7.58516C22.0308 7.58516 22.2099 7.40607 22.2099 7.18516C22.2099 6.96424 22.0308 6.78516 21.8099 6.78516C21.589 6.78516 21.4099 6.96424 21.4099 7.18516C21.4099 7.40607 21.589 7.58516 21.8099 7.58516Z" fill="white"/>
<path d="M19.4099 7.58516C19.6308 7.58516 19.8099 7.40607 19.8099 7.18516C19.8099 6.96424 19.6308 6.78516 19.4099 6.78516C19.189 6.78516 19.0099 6.96424 19.0099 7.18516C19.0099 7.40607 19.189 7.58516 19.4099 7.58516Z" fill="white"/>
<path d="M20.61 8.78511C20.8309 8.78511 21.01 8.60602 21.01 8.38511C21.01 8.16419 20.8309 7.98511 20.61 7.98511C20.389 7.98511 20.21 8.16419 20.21 8.38511C20.21 8.60602 20.389 8.78511 20.61 8.78511Z" fill="white"/>
<path d="M23.8099 4.8428C23.8099 4.7812 23.7971 4.7228 23.7743 4.6696C23.7727 4.6308 23.7663 4.5916 23.7555 4.5536L22.1071 0.9584C21.8399 0.376 21.2527 0 20.6115 0H17.3439H16.5307H12.6099H11.8099H7.88914H7.07594H3.80834C3.16754 0 2.58074 0.376 2.31314 0.958L0.687941 4.4876L0.666341 4.5452C0.650741 4.6 0.647941 4.6564 0.651141 4.7124C0.624741 4.774 0.609941 4.842 0.609941 4.9132V7.6C0.609941 8.1604 0.755542 8.6872 1.00994 9.1456V12.086C0.826342 12.2872 0.689941 12.5388 0.637941 12.818C0.593941 13.0568 0.607941 13.3096 0.679141 13.5496C0.717941 13.6808 0.687141 13.84 0.595941 13.9748C0.177141 14.594 0.0919414 15.4576 0.384741 16.1236C0.428741 16.2244 0.483941 16.3192 0.548741 16.4068C0.641141 16.5312 0.673941 16.6964 0.636741 16.8484C0.615941 16.9304 0.601941 17.0148 0.594341 17.0988C0.561541 17.4572 0.635541 17.8052 0.694341 18.0844C0.756341 18.3784 0.850342 18.8232 1.17994 19.1064C1.35594 19.258 1.57194 19.3368 1.81034 19.35V20.8H0.638341L0.435541 20.8084L0.189941 21.1104L0.671541 24H2.93794H3.74874H14.6099H21.8099H23.4099V9.1456C23.6643 8.6868 23.8099 8.1604 23.8099 7.6V4.8428ZM22.7055 8.7668C22.6923 8.7908 22.6771 8.8136 22.6631 8.8368C22.6099 8.9248 22.5519 9.0088 22.4895 9.088C22.4883 9.0892 22.4875 9.0908 22.4863 9.092C22.4247 9.17 22.3583 9.2432 22.2887 9.312C22.2739 9.3264 22.2579 9.3396 22.2427 9.3536C22.2191 9.3756 22.1943 9.3952 22.1699 9.416C22.1059 9.28 21.9699 9.1844 21.8099 9.1844C21.5891 9.1844 21.4099 9.3636 21.4099 9.5844C21.4099 9.6772 21.4467 9.7584 21.4995 9.8264C21.4775 9.8352 21.4551 9.8428 21.4331 9.8508C21.3815 9.8696 21.3299 9.8876 21.2771 9.9028C21.2403 9.9136 21.2031 9.9224 21.1659 9.9316C21.1075 9.9456 21.0483 9.9568 20.9883 9.9664C20.9567 9.9716 20.9251 9.9772 20.8931 9.9808C20.7999 9.9928 20.7055 10 20.6099 10C20.2955 10 19.9959 9.9376 19.7203 9.8272C19.7731 9.7592 19.8099 9.678 19.8099 9.5852C19.8099 9.3644 19.6307 9.1852 19.4099 9.1852C19.2487 9.1852 19.1119 9.2816 19.0483 9.4188C18.8107 9.2144 18.6139 8.9644 18.4707 8.6828C18.5543 8.6096 18.6099 8.5052 18.6099 8.3852C18.6099 8.1768 18.4487 8.0108 18.2447 7.9924C18.2235 7.8644 18.2099 7.734 18.2099 7.6004V6.3856C18.4307 6.3856 18.6099 6.2064 18.6099 5.9856C18.6099 5.7648 18.4307 5.5856 18.2099 5.5856V5.2H18.2891H23.0099V5.5852C22.7891 5.5852 22.6099 5.7644 22.6099 5.9852C22.6099 6.206 22.7891 6.3852 23.0099 6.3852V7.6C23.0099 7.734 22.9963 7.8644 22.9751 7.992C22.7715 8.0104 22.6099 8.1764 22.6099 8.3848C22.6099 8.5048 22.6651 8.6092 22.7491 8.6824C22.7391 8.7016 22.7311 8.722 22.7207 8.7412L22.7055 8.7668ZM9.80994 9.1852C9.58914 9.1852 9.40994 9.3644 9.40994 9.5852C9.40994 9.7848 9.55874 9.9432 9.74994 9.9732C9.63874 9.9888 9.52594 10 9.40994 10C8.08634 10 7.00994 8.9236 7.00994 7.6V7.1852V5.2H11.8099V7.6C11.8099 8.7136 11.0467 9.6496 10.0167 9.9192C10.1303 9.8488 10.2099 9.7284 10.2099 9.5852C10.2099 9.364 10.0311 9.1852 9.80994 9.1852ZM3.52714 9.9816C3.49514 9.9776 3.46354 9.972 3.43194 9.9672C3.37194 9.9576 3.31274 9.9464 3.25434 9.9324C3.21714 9.9236 3.17994 9.9144 3.14314 9.9036C3.09034 9.8884 3.03834 9.87 2.98714 9.8512C2.95114 9.838 2.91474 9.8268 2.87994 9.812C2.80434 9.78 2.73074 9.744 2.65914 9.7048C2.62274 9.6848 2.58794 9.662 2.55274 9.64C2.50954 9.6132 2.46674 9.5856 2.42514 9.556C2.39354 9.5336 2.36274 9.5104 2.33234 9.4864C2.27914 9.4444 2.22754 9.4004 2.17794 9.3536C2.16314 9.3396 2.14714 9.3268 2.13274 9.3124C2.06314 9.2436 1.99674 9.1704 1.93474 9.0924C1.93354 9.0912 1.93274 9.0896 1.93154 9.0884C1.86914 9.0092 1.81114 8.9252 1.75794 8.8372C1.74394 8.814 1.72874 8.7912 1.71554 8.7672L1.70034 8.7416C1.51514 8.4016 1.40994 8.0128 1.40994 7.6V5.2H6.13074H6.20994V7.6C6.20994 8.9236 5.13354 10 3.80994 10C3.71434 10 3.62034 9.9928 3.52714 9.9816ZM12.6099 5.2H17.4099V7.6C17.4099 8.9236 16.3335 10 15.0099 10C13.6863 10 12.6099 8.9236 12.6099 7.6V5.2ZM20.6115 0.8C20.9407 0.8 21.2427 0.9932 21.3803 1.2924L22.8091 4.4H18.2099H18.1439L17.8167 2.6L17.4895 0.8H20.6115ZM12.6099 0.8H13.3359C13.1515 0.8356 13.0099 0.9904 13.0099 1.1852C13.0099 1.406 13.1891 1.5852 13.4099 1.5852C13.6307 1.5852 13.8099 1.406 13.8099 1.1852C13.8099 0.9904 13.6679 0.8356 13.4839 0.8H15.7363C15.5519 0.8356 15.4103 0.9904 15.4103 1.1852C15.4103 1.406 15.5895 1.5852 15.8103 1.5852C16.0311 1.5852 16.2103 1.406 16.2103 1.1852C16.2103 0.9904 16.0683 0.8356 15.8843 0.8H16.6767L16.8963 2.008C16.7323 2.058 16.6107 2.2044 16.6107 2.3848C16.6107 2.6056 16.7899 2.7848 17.0107 2.7848C17.0199 2.7848 17.0275 2.78 17.0367 2.7796L17.3307 4.4H12.6099V0.8ZM7.74394 0.8H11.8099V4.4H7.08954L7.41674 2.6L7.74394 0.8ZM2.38754 2.7088C2.45194 2.7532 2.52594 2.7852 2.60994 2.7852C2.83074 2.7852 3.00994 2.606 3.00994 2.3852C3.00994 2.2 2.88194 2.0512 2.71114 2.0056L3.03994 1.292C3.15354 1.0444 3.38194 0.8768 3.64354 0.824C3.50634 0.8876 3.40994 1.0244 3.40994 1.1852C3.40994 1.406 3.58914 1.5852 3.80994 1.5852C4.03074 1.5852 4.20994 1.406 4.20994 1.1852C4.20994 0.9904 4.06794 0.8356 3.88394 0.8H6.13634C5.95194 0.8356 5.81034 0.9904 5.81034 1.1852C5.81034 1.406 5.98954 1.5852 6.21034 1.5852C6.43114 1.5852 6.61034 1.406 6.61034 1.1852C6.61034 0.9904 6.46834 0.8356 6.28434 0.8H6.93114L6.60394 2.6L6.47794 3.292C6.40674 3.2272 6.31434 3.1852 6.21034 3.1852C5.98954 3.1852 5.81034 3.3644 5.81034 3.5852C5.81034 3.806 5.98954 3.9852 6.21034 3.9852C6.26234 3.9852 6.31154 3.9736 6.35714 3.9556L6.27594 4.4H6.20994H1.60874L2.38754 2.7088ZM1.47674 17.9188C1.42634 17.68 1.36874 17.4096 1.39074 17.1716C1.39474 17.1288 1.40154 17.0848 1.41274 17.0416C1.50754 16.6596 1.42434 16.2436 1.19034 15.9296C1.16234 15.8912 1.13634 15.8472 1.11674 15.8024C0.933542 15.3848 0.991541 14.8176 1.25834 14.4232C1.48514 14.0868 1.55314 13.6856 1.44554 13.3232C1.41074 13.2052 1.40354 13.0776 1.42434 12.964C1.45234 12.8128 1.53034 12.6756 1.63394 12.5808L1.66034 12.5596C1.69954 12.5284 1.73234 12.5068 1.76074 12.4932L2.12314 12.1972C2.15194 12.1676 2.18714 12.1476 2.22434 12.1312C2.23314 12.1272 2.24194 12.124 2.25074 12.1208C2.32474 12.0948 2.40514 12.088 2.47274 12.0896C2.51354 12.0908 2.55314 12.094 2.57874 12.0972C2.72354 12.1176 2.85554 12.1664 2.96714 12.2356L3.05514 12.3084C3.09714 12.3432 3.13114 12.3764 3.16034 12.4092C3.18914 12.4444 3.21834 12.4796 3.23914 12.5192C3.30074 12.638 3.31994 12.7992 3.28994 12.9404C3.21314 13.2996 3.30514 13.682 3.53674 13.9632C3.58394 14.0208 3.61994 14.0972 3.63514 14.1732C3.64514 14.2228 3.64994 14.2752 3.64994 14.3308C3.64954 14.498 3.60434 14.6936 3.51274 14.9244C3.43554 15.12 3.34714 15.2868 3.25074 15.4196C3.05474 15.6896 2.98394 16.0428 3.04394 16.396C3.06394 16.5136 3.09834 16.6316 3.14794 16.7464C3.19514 16.8548 3.22234 16.9788 3.22954 17.1036C3.23674 17.2288 3.22314 17.3552 3.18874 17.4692C3.16954 17.5332 3.14514 17.5936 3.11754 17.6512C3.06234 17.766 2.98914 17.8752 2.89834 17.978C2.89434 17.9824 2.89034 17.986 2.88634 17.9904C2.84554 18.0356 2.80114 18.08 2.75354 18.1228C2.59554 18.2644 2.43034 18.3656 2.30874 18.4288C2.30714 18.4296 2.30514 18.4304 2.30354 18.4312C2.24194 18.4624 2.17594 18.4892 2.10954 18.5108C1.95154 18.5624 1.79274 18.578 1.70074 18.5C1.57674 18.3924 1.51674 18.1076 1.47674 17.9188ZM3.07114 23.2H1.34874L1.08234 21.6H1.80994H3.33754L3.07114 23.2ZM2.60994 20.8V19.172C2.63234 19.1616 2.65434 19.1504 2.67634 19.1392C2.90034 19.0236 3.09994 18.8848 3.27434 18.73L3.27514 18.7308C3.27874 18.7276 3.28114 18.7244 3.28474 18.7212C3.36154 18.6524 3.43354 18.5808 3.49954 18.5056C3.50954 18.494 3.51794 18.4816 3.52794 18.47C3.57834 18.41 3.62594 18.3484 3.66914 18.2852C3.68874 18.2568 3.70634 18.228 3.72434 18.1992C3.75674 18.1472 3.78634 18.0936 3.81394 18.0396C3.82834 18.0112 3.84354 17.9828 3.85674 17.9536C3.89434 17.8712 3.92754 17.7872 3.95394 17.7008C3.98474 17.5988 4.00634 17.4928 4.01834 17.3848C4.03034 17.2768 4.03354 17.1668 4.02714 17.0576C4.01474 16.8392 3.96594 16.6228 3.88194 16.4284C3.79674 16.2316 3.80314 16.02 3.89794 15.8896C3.93714 15.8356 3.97194 15.772 4.00834 15.7116C4.09874 15.5632 4.18354 15.4028 4.25594 15.2196C4.43674 14.7636 4.49034 14.3704 4.41914 14.016C4.37754 13.8084 4.28554 13.614 4.15314 13.454C4.07914 13.364 4.04634 13.2252 4.07154 13.108C4.09394 13.0032 4.10034 12.8964 4.09914 12.7896C4.09874 12.762 4.09754 12.7352 4.09554 12.7076C4.08954 12.6136 4.07554 12.5212 4.05194 12.4312C4.04914 12.4212 4.04994 12.4104 4.04714 12.4004H13.0087V20.8004H4.28234H3.80794L2.60994 20.8ZM15.4099 23.2V12.4H21.0099V23.2H15.4099ZM22.6099 23.2H21.8099V11.6H14.6099V23.2H3.88234L4.14914 21.6H13.8103V11.6H3.45434C3.23514 11.4492 2.97514 11.3452 2.69154 11.3048C2.58714 11.29 2.48714 11.2876 2.38954 11.2912C2.36354 11.292 2.33834 11.2948 2.31274 11.2968C2.23754 11.3032 2.16514 11.3148 2.09594 11.332C2.07554 11.3372 2.05474 11.3408 2.03474 11.3464C1.95514 11.3704 1.87874 11.3992 1.80994 11.4368V10.0988C2.03954 10.284 2.29394 10.4332 2.56474 10.5476C2.56594 10.548 2.56674 10.5484 2.56794 10.5488C2.65634 10.586 2.74674 10.6192 2.83874 10.648C2.85434 10.6528 2.86994 10.6576 2.88554 10.6624C2.96354 10.686 3.04274 10.706 3.12314 10.7236C3.14714 10.7288 3.17114 10.7344 3.19514 10.7392C3.27034 10.7536 3.34674 10.7652 3.42394 10.7744C3.45034 10.7776 3.47634 10.782 3.50274 10.7844C3.60434 10.794 3.70674 10.8 3.80994 10.8C3.94514 10.8 4.07754 10.7888 4.20834 10.7724C4.24594 10.7676 4.28314 10.7612 4.32034 10.7552C4.41914 10.7392 4.51594 10.7188 4.61154 10.694C4.64474 10.6856 4.67794 10.678 4.71074 10.6684C4.83354 10.6324 4.95354 10.5904 5.06994 10.5404C5.08794 10.5328 5.10434 10.5232 5.12194 10.5152C5.22074 10.4704 5.31674 10.4208 5.41034 10.3664C5.44274 10.3476 5.47394 10.3284 5.50554 10.3084C5.59034 10.2552 5.67194 10.1984 5.75114 10.1376C5.77314 10.1208 5.79634 10.1052 5.81794 10.0876C5.91514 10.0092 6.00754 9.9252 6.09474 9.836C6.11434 9.816 6.13234 9.7944 6.15154 9.7736C6.21914 9.7008 6.28314 9.6252 6.34394 9.5468C6.36674 9.5172 6.38914 9.4876 6.41074 9.4572C6.47354 9.3696 6.53194 9.2792 6.58554 9.1856C6.59314 9.1724 6.60274 9.1604 6.61034 9.1472C6.61794 9.1604 6.62754 9.1724 6.63514 9.1856C6.68874 9.2792 6.74754 9.3696 6.80994 9.4572C6.83154 9.4876 6.85394 9.5172 6.87674 9.5468C6.93754 9.6256 7.00154 9.7012 7.06914 9.7736C7.08834 9.7944 7.10594 9.816 7.12594 9.836C7.21314 9.9252 7.30554 10.0092 7.40274 10.0876C7.42434 10.1052 7.44754 10.1208 7.46954 10.1376C7.54874 10.1984 7.63034 10.2552 7.71514 10.3084C7.74674 10.328 7.77794 10.3476 7.81034 10.3664C7.90354 10.4204 7.99954 10.4704 8.09874 10.5152C8.11634 10.5232 8.13314 10.5328 8.15074 10.5404C8.26674 10.5904 8.38714 10.6324 8.50994 10.6684C8.54274 10.678 8.57594 10.6852 8.60914 10.694C8.70474 10.7188 8.80154 10.7392 8.90034 10.7552C8.93754 10.7612 8.97474 10.7676 9.01234 10.7724C9.14274 10.7888 9.27514 10.8 9.40994 10.8C9.54474 10.8 9.67754 10.7888 9.80834 10.7724C9.84594 10.7676 9.88314 10.7612 9.92034 10.7552C10.0191 10.7392 10.1159 10.7188 10.2115 10.694C10.2447 10.6856 10.2779 10.678 10.3107 10.6684C10.4335 10.6324 10.5535 10.5904 10.6699 10.5404C10.6879 10.5328 10.7043 10.5232 10.7219 10.5152C10.8207 10.4704 10.9167 10.4208 11.0103 10.3664C11.0427 10.3476 11.0739 10.3284 11.1055 10.3084C11.1903 10.2552 11.2719 10.1984 11.3511 10.1376C11.3731 10.1208 11.3963 10.1052 11.4179 10.0876C11.5151 10.0092 11.6075 9.9252 11.6947 9.836C11.7143 9.816 11.7323 9.7944 11.7515 9.7736C11.8191 9.7008 11.8831 9.6252 11.9439 9.5468C11.9667 9.5172 11.9891 9.4876 12.0107 9.4572C12.0735 9.3696 12.1319 9.2792 12.1855 9.1856C12.1931 9.1724 12.2027 9.1604 12.2103 9.1472C12.2179 9.1604 12.2275 9.1724 12.2351 9.1856C12.2887 9.2792 12.3475 9.3696 12.4099 9.4572C12.4315 9.4876 12.4539 9.5172 12.4767 9.5468C12.5375 9.6256 12.6015 9.7012 12.6691 9.7736C12.6883 9.7944 12.7059 9.816 12.7259 9.836C12.8131 9.9252 12.9055 10.0092 13.0027 10.0876C13.0243 10.1052 13.0475 10.1208 13.0695 10.1376C13.1487 10.1984 13.2303 10.2552 13.3151 10.3084C13.3467 10.328 13.3779 10.3476 13.4103 10.3664C13.5035 10.4204 13.5995 10.4704 13.6987 10.5152C13.7163 10.5232 13.7331 10.5328 13.7507 10.5404C13.8667 10.5904 13.9871 10.6324 14.1099 10.6684C14.1427 10.678 14.1759 10.6852 14.2091 10.694C14.3047 10.7188 14.4015 10.7392 14.5003 10.7552C14.5375 10.7612 14.5747 10.7676 14.6123 10.7724C14.7427 10.7888 14.8751 10.8 15.0099 10.8C15.1447 10.8 15.2775 10.7888 15.4083 10.7724C15.4459 10.7676 15.4831 10.7612 15.5203 10.7552C15.6191 10.7392 15.7159 10.7188 15.8115 10.694C15.8447 10.6856 15.8779 10.678 15.9107 10.6684C16.0335 10.6324 16.1535 10.5904 16.2699 10.5404C16.2879 10.5328 16.3043 10.5232 16.3219 10.5152C16.4207 10.4704 16.5167 10.4208 16.6103 10.3664C16.6427 10.3476 16.6739 10.3284 16.7055 10.3084C16.7903 10.2552 16.8719 10.1984 16.9511 10.1376C16.9731 10.1208 16.9963 10.1052 17.0179 10.0876C17.1151 10.0092 17.2075 9.9252 17.2947 9.836C17.3143 9.816 17.3323 9.7944 17.3515 9.7736C17.4191 9.7008 17.4831 9.6252 17.5439 9.5468C17.5667 9.5172 17.5891 9.4876 17.6107 9.4572C17.6735 9.3696 17.7319 9.2792 17.7855 9.1856C17.7931 9.1724 17.8027 9.1604 17.8103 9.1472C17.8179 9.1604 17.8275 9.1724 17.8351 9.1856C17.8887 9.2792 17.9475 9.3696 18.0099 9.4572C18.0315 9.4876 18.0539 9.5172 18.0767 9.5468C18.1375 9.6256 18.2015 9.7012 18.2691 9.7736C18.2883 9.7944 18.3059 9.816 18.3259 9.836C18.4131 9.9252 18.5055 10.0092 18.6027 10.0876C18.6243 10.1052 18.6475 10.1208 18.6695 10.1376C18.7487 10.1984 18.8303 10.2552 18.9151 10.3084C18.9467 10.328 18.9779 10.3476 19.0103 10.3664C19.1035 10.4204 19.1995 10.4704 19.2987 10.5152C19.3163 10.5232 19.3331 10.5328 19.3507 10.5404C19.4667 10.5904 19.5871 10.6324 19.7099 10.6684C19.7427 10.678 19.7759 10.6852 19.8091 10.694C19.9047 10.7188 20.0015 10.7392 20.1003 10.7552C20.1375 10.7612 20.1747 10.7676 20.2123 10.7724C20.3427 10.7888 20.4751 10.8 20.6099 10.8C20.7135 10.8 20.8155 10.794 20.9171 10.7844C20.9435 10.782 20.9695 10.7776 20.9959 10.7744C21.0727 10.7652 21.1491 10.754 21.2247 10.7392C21.2491 10.7344 21.2727 10.7288 21.2967 10.7236C21.3771 10.706 21.4563 10.6856 21.5343 10.6624C21.5499 10.6576 21.5655 10.6532 21.5811 10.648C21.6731 10.6188 21.7635 10.586 21.8519 10.5488C21.8531 10.5484 21.8539 10.548 21.8551 10.5476C22.1259 10.4332 22.3803 10.284 22.6099 10.0988V23.2Z" fill="white"/>
<path d="M19.8099 17.2C19.5887 17.2 19.4099 17.3788 19.4099 17.6V18.8C19.4099 19.0212 19.5887 19.2 19.8099 19.2C20.0311 19.2 20.2099 19.0212 20.2099 18.8V17.6C20.2099 17.3788 20.0311 17.2 19.8099 17.2Z" fill="white"/>
<path d="M7.40999 15.6001C7.51239 15.6001 7.61479 15.5609 7.69279 15.4829L9.29279 13.8829C9.44919 13.7265 9.44919 13.4737 9.29279 13.3173C9.13639 13.1609 8.88359 13.1609 8.72719 13.3173L7.12719 14.9173C6.97079 15.0737 6.97079 15.3265 7.12719 15.4829C7.20559 15.5609 7.30799 15.6001 7.40999 15.6001Z" fill="white"/>
<path d="M7.40999 17.6001C7.51239 17.6001 7.61479 17.5609 7.69279 17.4829L8.49279 16.6829C8.64919 16.5265 8.64919 16.2737 8.49279 16.1173C8.33639 15.9609 8.08359 15.9609 7.92719 16.1173L7.12719 16.9173C6.97079 17.0737 6.97079 17.3265 7.12719 17.4829C7.20559 17.5609 7.30799 17.6001 7.40999 17.6001Z" fill="white"/>
<path d="M8.72599 15.3161C8.65359 15.3917 8.60999 15.4961 8.60999 15.6001C8.60999 15.7041 8.65359 15.8081 8.72599 15.8801C8.80159 15.9557 8.90159 16.0001 9.00999 16.0001C9.11399 16.0001 9.21799 15.9561 9.29399 15.8841C9.36599 15.8081 9.40999 15.7041 9.40999 15.6001C9.40999 15.4961 9.36599 15.3917 9.29399 15.3161C9.14599 15.1681 8.87439 15.1681 8.72599 15.3161Z" fill="white"/>
<path d="M9.52716 15.0829C9.60556 15.1609 9.70796 15.2001 9.80996 15.2001C9.91196 15.2001 10.0148 15.1609 10.0928 15.0829L11.2928 13.8829C11.4492 13.7265 11.4492 13.4737 11.2928 13.3173C11.1364 13.1609 10.8836 13.1609 10.7272 13.3173L9.52716 14.5173C9.37116 14.6737 9.37116 14.9265 9.52716 15.0829Z" fill="white"/>
<path d="M7.40999 19.6001C7.51239 19.6001 7.61479 19.5609 7.69279 19.4829L11.2928 15.8829C11.4492 15.7265 11.4492 15.4737 11.2928 15.3173C11.1364 15.1609 10.8836 15.1609 10.7272 15.3173L7.12719 18.9173C6.97079 19.0737 6.97079 19.3265 7.12719 19.4829C7.20559 19.5609 7.30799 19.6001 7.40999 19.6001Z" fill="white"/>
<path d="M11.5259 15.084C11.6015 15.156 11.7059 15.2 11.8099 15.2C11.9139 15.2 12.0179 15.156 12.0939 15.084C12.1659 15.008 12.2099 14.904 12.2099 14.8C12.2099 14.696 12.1659 14.5916 12.0939 14.516C11.9459 14.368 11.6739 14.368 11.5259 14.516C11.4535 14.5916 11.4099 14.696 11.4099 14.8C11.4099 14.904 11.4539 15.008 11.5259 15.084Z" fill="white"/>
</g>
<defs>
<clipPath id="clip0_22_6964">
<rect width="24" height="24" fill="white"/>
</clipPath>
</defs>
</svg>
