<svg width="17" height="17" viewBox="0 0 17 17" fill="none" xmlns="http://www.w3.org/2000/svg">
<g clip-path="url(#clip0_6493_196729)">
<path d="M4.41081 0.848968C4.33581 0.920843 4.33269 0.939592 4.33269 1.36147V1.79897L3.21706 1.80834C2.09831 1.82084 2.09831 1.82084 1.84831 1.90522C1.50144 2.02084 1.22956 2.18647 0.97019 2.44272C0.72644 2.68647 0.57019 2.93022 0.435815 3.27709L0.348315 3.50522L0.33894 8.40522C0.329565 13.8802 0.317065 13.4958 0.554565 13.9833C0.792065 14.4646 1.25144 14.8615 1.80144 15.074L2.03581 15.1615L5.07331 15.1708C8.07644 15.1771 8.11394 15.1771 8.17644 15.1146C8.28894 15.0021 8.29519 14.8302 8.19519 14.6927C8.15144 14.6302 8.10456 14.6302 5.21706 14.6115C2.01706 14.5927 2.18894 14.6052 1.78581 14.4083C1.41706 14.2302 1.08269 13.8083 0.97019 13.3802C0.935815 13.2552 0.92644 12.5365 0.92644 9.65209V6.08334H7.81706H14.7077V8.28959V10.4958L14.7983 10.5865C14.9264 10.7115 15.0827 10.7115 15.2108 10.5865L15.3014 10.4958V7.14584C15.3014 3.36147 15.3108 3.53334 15.0608 3.02084C14.9389 2.77397 14.8702 2.68022 14.6483 2.45522C14.4233 2.23334 14.3296 2.16459 14.0827 2.04272C13.6327 1.82397 13.4796 1.80209 12.3014 1.80209H11.3014V1.37709V0.952093L11.2108 0.861467C11.0858 0.739593 10.9077 0.733343 10.7889 0.852093C10.7077 0.933343 10.7077 0.942718 10.7077 1.36772V1.80209H7.81706H4.92644V1.41147C4.92644 0.886468 4.86706 0.770843 4.59831 0.770843C4.52019 0.770843 4.46394 0.795843 4.41081 0.848968ZM4.33269 2.65834V2.92397L4.16394 2.99897C3.78894 3.17084 3.55456 3.50834 3.52644 3.91459C3.48269 4.58022 3.95456 5.08959 4.61394 5.08959C5.05144 5.08959 5.40144 4.87709 5.60144 4.48959C5.68269 4.33334 5.69206 4.28959 5.69206 4.00522C5.69206 3.75209 5.67956 3.66459 5.62644 3.54897C5.50769 3.29584 5.22019 3.02397 5.00769 2.97084C4.92644 2.95209 4.92644 2.94584 4.92644 2.67397V2.39584H7.81706H10.7077V2.65834V2.92397L10.5389 2.99897C9.86706 3.30834 9.68581 4.18334 10.1827 4.72397C10.3671 4.92709 10.5671 5.03959 10.8139 5.07709C11.1921 5.13647 11.5702 5.00834 11.8139 4.73647C12.2514 4.24897 12.1671 3.46459 11.6358 3.10209C11.5452 3.04272 11.4358 2.98334 11.3889 2.97084C11.3014 2.95209 11.3014 2.95209 11.3014 2.67397V2.39584H12.2796C13.0389 2.39584 13.2983 2.40834 13.4546 2.44272C13.9889 2.57084 14.4171 2.96147 14.6202 3.50834C14.6827 3.68022 14.6889 3.76147 14.7014 4.58959L14.7139 5.48959H7.82019H0.92644V4.62084C0.92644 3.66459 0.93894 3.57709 1.12019 3.23022C1.23894 3.00834 1.57644 2.68334 1.80456 2.57397C2.13581 2.41147 2.23894 2.39897 3.32644 2.39897L4.33269 2.39584V2.65834ZM4.83269 3.55834C4.98269 3.63647 5.11394 3.83647 5.11394 3.98959C5.11394 4.22709 4.85456 4.48959 4.61394 4.48959C4.37019 4.48959 4.11394 4.23334 4.11394 3.98959C4.11394 3.74897 4.37644 3.48959 4.61394 3.48959C4.65769 3.48959 4.75769 3.52084 4.83269 3.55834ZM11.1952 3.54897C11.5358 3.70209 11.5858 4.15209 11.2889 4.38022C11.1327 4.49897 10.9671 4.51459 10.7889 4.43022C10.4139 4.24584 10.4108 3.73959 10.7858 3.55209C10.9389 3.47397 11.0296 3.47397 11.1952 3.54897Z" fill="#016DEA"/>
<path d="M2.72052 7.78022C2.60177 7.88334 2.59865 8.08022 2.7174 8.19897L2.80177 8.28647H3.63302H4.46427L4.5549 8.18334C4.67052 8.05522 4.67365 7.93334 4.56427 7.80522L4.48302 7.70834H3.64552C2.81427 7.70834 2.8049 7.70834 2.72052 7.78022Z" fill="#016DEA"/>
<path d="M5.50489 7.78647C5.39864 7.88959 5.39864 8.07709 5.50176 8.19897L5.57676 8.28647H6.42676H7.27676L7.35176 8.19897C7.46426 8.06772 7.44239 7.85522 7.30489 7.74897C7.26739 7.72084 7.02676 7.71147 6.41739 7.70834H5.57989L5.50489 7.78647Z" fill="#016DEA"/>
<path d="M8.28855 7.80522C8.19792 7.91459 8.1823 8.06459 8.25417 8.16459C8.34167 8.29272 8.43542 8.30522 9.26042 8.29584C10.0417 8.28647 10.0479 8.28647 10.126 8.21147C10.2385 8.10522 10.2417 7.89584 10.1292 7.78647L10.0542 7.70834H9.21042H8.3698L8.28855 7.80522Z" fill="#016DEA"/>
<path d="M11.1042 7.77084C11.0042 7.84897 10.9698 7.99584 11.0198 8.11772C11.0917 8.28959 11.1573 8.30209 12.0042 8.30209C12.8511 8.30209 12.9167 8.28959 12.9886 8.11772C13.0386 7.99584 13.0042 7.84897 12.9042 7.77084C12.8292 7.71147 12.7792 7.70834 12.0042 7.70834C11.2292 7.70834 11.1792 7.71147 11.1042 7.77084Z" fill="#016DEA"/>
<path d="M12.483 9.43647C12.2768 9.49585 12.1018 9.62709 11.9768 9.81459C11.6111 10.3677 9.00176 14.5865 8.97051 14.6771C8.94863 14.7365 8.92988 14.874 8.92676 14.9802C8.92676 15.349 9.18926 15.7021 9.54551 15.8021C9.61738 15.8208 10.8143 15.8458 12.6268 15.8677C15.9393 15.9083 15.7799 15.9177 16.0424 15.6927C16.3268 15.449 16.4205 15.0052 16.258 14.6615C16.0799 14.2833 13.4486 9.77709 13.3393 9.66459C13.1299 9.44584 12.783 9.3521 12.483 9.43647ZM12.9143 10.0927C12.9518 10.1302 13.6018 11.2396 14.3611 12.5552C15.3424 14.2615 15.7393 14.9771 15.7393 15.0427C15.7393 15.1052 15.708 15.1677 15.6549 15.224L15.5674 15.3115L13.5049 15.2896C12.3705 15.2802 11.0486 15.2615 10.5674 15.2521L9.69551 15.2302L9.60801 15.1427C9.55801 15.0927 9.52051 15.024 9.52051 14.974C9.52051 14.9208 10.0236 14.0865 10.9955 12.5271C11.8049 11.2271 12.4893 10.1365 12.5174 10.1021C12.6268 9.97397 12.7955 9.97084 12.9143 10.0927Z" fill="#016DEA"/>
<path d="M12.4299 11.4771L12.333 11.5583V12.4896C12.333 13.374 12.3361 13.424 12.3955 13.499C12.5205 13.6583 12.7893 13.6333 12.8799 13.4552C12.9518 13.3208 12.9486 11.6833 12.8799 11.549C12.7924 11.3833 12.583 11.349 12.4299 11.4771Z" fill="#016DEA"/>
<path d="M12.4736 14.0896C12.3674 14.149 12.3361 14.2177 12.333 14.3708C12.333 14.4958 12.3455 14.5271 12.4299 14.5958C12.658 14.7896 12.9705 14.5927 12.9143 14.2927C12.8768 14.0958 12.6486 13.9896 12.4736 14.0896Z" fill="#016DEA"/>
<path d="M2.76995 9.90522C2.59495 9.99272 2.56995 10.2708 2.72933 10.3958C2.80433 10.4552 2.8512 10.4583 3.63558 10.4583H4.46058L4.53558 10.3802C4.59495 10.324 4.6137 10.2708 4.6137 10.1646C4.6137 10.049 4.59808 10.0146 4.51683 9.94584L4.41995 9.86459H3.63558C3.0637 9.86459 2.8262 9.87709 2.76995 9.90522Z" fill="#016DEA"/>
<path d="M5.5984 9.89272C5.51403 9.92709 5.43903 10.0177 5.41715 10.1115C5.39215 10.2083 5.46403 10.3802 5.54528 10.424C5.5859 10.4458 5.8984 10.4583 6.42028 10.4583C7.18903 10.4583 7.2359 10.4552 7.3109 10.3958C7.48278 10.2615 7.4359 9.97084 7.2359 9.89897C7.12028 9.85834 5.69528 9.85522 5.5984 9.89272Z" fill="#016DEA"/>
<path d="M8.3765 9.89584C8.19837 9.96772 8.14837 10.2458 8.28587 10.3802L8.36087 10.4583H9.2015H10.0421L10.1265 10.3771C10.2359 10.2677 10.239 10.0896 10.1327 9.96772L10.0577 9.88022L9.24837 9.87397C8.80462 9.87084 8.41087 9.88022 8.3765 9.89584Z" fill="#016DEA"/>
<path d="M2.69544 12.149C2.60169 12.2583 2.59232 12.3583 2.66107 12.4896C2.73607 12.6333 2.85169 12.6521 3.69857 12.6396C4.44857 12.6302 4.45482 12.6302 4.53294 12.5552C4.64544 12.449 4.64857 12.2396 4.53607 12.1302L4.46107 12.0521H3.61732H2.77669L2.69544 12.149Z" fill="#016DEA"/>
<path d="M5.54203 12.0865C5.44203 12.1458 5.38578 12.3208 5.4264 12.4458C5.4889 12.6333 5.54828 12.6458 6.41078 12.6458C7.25765 12.6458 7.32328 12.6333 7.39515 12.4615C7.44515 12.3396 7.41078 12.1927 7.31078 12.1146C7.23578 12.0552 7.18578 12.0521 6.4139 12.0521C5.89203 12.0521 5.5764 12.0646 5.54203 12.0865Z" fill="#016DEA"/>
</g>
<defs>
<clipPath id="clip0_6493_196729">
<rect width="16" height="16" fill="white" transform="translate(0.333008 0.333344)"/>
</clipPath>
</defs>
</svg>
