<svg width="16" height="16" viewBox="0 0 16 16" fill="none" xmlns="http://www.w3.org/2000/svg">
<path d="M5.33333 2H3.33333C2.97971 2 2.64057 2.14048 2.39052 2.39052C2.14048 2.64057 2 2.97971 2 3.33333V5.33333M14 5.33333V3.33333C14 2.97971 13.8595 2.64057 13.6095 2.39052C13.3594 2.14048 13.0203 2 12.6667 2H10.6667M10.6667 14H12.6667C13.0203 14 13.3594 13.8595 13.6095 13.6095C13.8595 13.3594 14 13.0203 14 12.6667V10.6667M2 10.6667V12.6667C2 13.0203 2.14048 13.3594 2.39052 13.6095C2.64057 13.8595 2.97971 14 3.33333 14H5.33333" stroke="#016DEA" stroke-linecap="round" stroke-linejoin="round"/>
<path d="M3.66602 8.06063C3.66602 8.06063 5.36299 4.66669 8.33269 4.66669C11.3024 4.66669 12.9994 8.06063 12.9994 8.06063C12.9994 8.06063 11.3024 11.4546 8.33269 11.4546C5.36299 11.4546 3.66602 8.06063 3.66602 8.06063Z" stroke="#016DEA" stroke-linecap="round" stroke-linejoin="round"/>
<path d="M8.33328 9.33336C9.03619 9.33336 9.60601 8.76354 9.60601 8.06063C9.60601 7.35772 9.03619 6.7879 8.33328 6.7879C7.63037 6.7879 7.06055 7.35772 7.06055 8.06063C7.06055 8.76354 7.63037 9.33336 8.33328 9.33336Z" stroke="#016DEA" stroke-linecap="round" stroke-linejoin="round"/>
</svg>
