<svg width="20" height="20" viewBox="0 0 20 20" fill="none" xmlns="http://www.w3.org/2000/svg">
<g clip-path="url(#clip0_6057_179597)">
<path d="M4.01953 0.0898438C3.66797 0.324219 3.66797 0.847656 4.01953 1.08203L4.15234 1.17188H10H15.8477L15.9805 1.08203C16.332 0.847656 16.332 0.324219 15.9805 0.0898438L15.8477 0H10H4.15234L4.01953 0.0898438Z" fill="white"/>
<path d="M2.15625 2.57812C1.98047 2.6875 1.875 2.875 1.875 3.08594C1.875 3.32812 1.98438 3.51562 2.1875 3.62109L2.35547 3.71094H10H17.6445L17.8125 3.62109C18.2188 3.40625 18.2344 2.81641 17.8438 2.57812C17.7148 2.5 17.6289 2.5 10 2.5C2.37109 2.5 2.28516 2.5 2.15625 2.57812Z" fill="white"/>
<path d="M0.3125 5.07031C0.238281 5.10547 0.136719 5.19531 0.0898438 5.26953L0 5.40234V12.5156C0 19.418 0.00390625 19.6328 0.0742188 19.7422C0.113281 19.8008 0.199219 19.8867 0.257812 19.9258C0.367188 19.9961 0.632812 20 10 20C19.3672 20 19.6328 19.9961 19.7422 19.9258C19.8008 19.8867 19.8867 19.8008 19.9258 19.7422C19.9961 19.6328 20 19.418 20 12.5156V5.40234L19.9102 5.26953C19.8633 5.19531 19.7617 5.10547 19.6875 5.07031C19.5586 5.00391 19.0156 5 10 5C0.984375 5 0.441406 5.00391 0.3125 5.07031ZM18.8281 12.5195V18.8281H10H1.17188V12.5195V6.21094H10H18.8281V12.5195Z" fill="white"/>
<path d="M8.16493 8.78901C7.98133 8.82026 7.82508 8.92964 7.74305 9.07808C7.68055 9.18745 7.67665 9.47651 7.66493 12.3828C7.65711 14.6328 7.66493 15.6249 7.69618 15.7695C7.74305 15.9882 7.91883 16.1874 8.11024 16.2343C8.38758 16.3046 8.43446 16.2812 10.9735 14.582C13.2548 13.0585 13.4266 12.9374 13.5087 12.7734C13.6102 12.5781 13.6024 12.3749 13.4891 12.1835C13.411 12.0507 8.62977 8.85151 8.43446 8.80073C8.36024 8.7812 8.23915 8.77729 8.16493 8.78901ZM10.3915 13.5039C9.57508 14.0468 8.8993 14.4921 8.88758 14.4921C8.87586 14.4921 8.86805 13.5937 8.86805 12.4999V10.5078L10.372 11.5117L11.8759 12.5117L10.3915 13.5039Z" fill="white"/>
</g>
<defs>
<clipPath id="clip0_6057_179597">
<rect width="20" height="20" fill="white"/>
</clipPath>
</defs>
</svg>
