<svg width="21" height="21" viewBox="0 0 21 21" fill="none" xmlns="http://www.w3.org/2000/svg">
<path d="M17.2031 5.45259C17.2031 4.7879 16.6644 4.25119 16.0022 4.25119C15.34 4.25119 14.8008 4.7879 14.8008 5.45259C14.8008 6.11484 15.34 6.65155 16.0022 6.65155C16.6644 6.65155 17.2031 6.11484 17.2031 5.45259Z" fill="white"/>
<path d="M18.8029 14.8301C18.7584 15.8052 18.5953 16.3349 18.4599 16.6868C18.2781 17.1534 18.0611 17.4869 17.7093 17.8368C17.3613 18.1867 17.0277 18.4032 16.5612 18.5831C16.2093 18.7205 15.6775 18.884 14.7025 18.9305C13.6484 18.977 13.336 18.9869 10.6628 18.9869C7.99217 18.9869 7.67733 18.977 6.62319 18.9305C5.64815 18.884 5.11885 18.7205 4.76695 18.5831C4.29796 18.4032 3.96686 18.1867 3.61696 17.8368C3.26458 17.4869 3.04763 17.1534 2.86824 16.6868C2.7328 16.3349 2.56726 15.8052 2.52523 14.8301C2.47386 13.7759 2.46444 13.4587 2.46444 10.791C2.46444 8.11779 2.47386 7.80295 2.52523 6.74881C2.56726 5.77377 2.7328 5.24447 2.86824 4.88961C3.04763 4.42358 3.26458 4.09196 3.61696 3.74206C3.96686 3.39268 4.29796 3.1757 4.76695 2.99386C5.11885 2.85597 5.64815 2.69485 6.62319 2.64841C7.67733 2.60193 7.99217 2.59007 10.6628 2.59007C13.336 2.59007 13.6484 2.60193 14.7025 2.64841C15.6775 2.69485 16.2093 2.85597 16.5612 2.99386C17.0277 3.1757 17.3613 3.39268 17.7093 3.74206C18.0611 4.09196 18.2781 4.42358 18.4599 4.88961C18.5953 5.24447 18.7584 5.77377 18.8029 6.74881C18.8518 7.80295 18.8637 8.11779 18.8637 10.791C18.8637 13.4587 18.8518 13.7759 18.8029 14.8301ZM20.6033 6.66679C20.5544 5.60127 20.3863 4.8733 20.1368 4.23926C19.8828 3.58146 19.5423 3.02399 18.9848 2.46653C18.4298 1.91154 17.8723 1.57103 17.2145 1.31405C16.578 1.06693 15.8525 0.896915 14.7865 0.850471C13.7205 0.799063 13.38 0.789684 10.6628 0.789684C7.94817 0.789684 7.6052 0.799063 6.5392 0.850471C5.47564 0.896915 4.75064 1.06693 4.11115 1.31405C3.45583 1.57103 2.89837 1.91154 2.34339 2.46653C1.78592 3.02399 1.4454 3.58146 1.18891 4.23926C0.941794 4.8733 0.773776 5.60127 0.722366 6.66679C0.675923 7.73279 0.664062 8.07379 0.664062 10.791C0.664062 13.5056 0.675923 13.8461 0.722366 14.9121C0.773776 15.9757 0.941794 16.7031 1.18891 17.3402C1.4454 17.9955 1.78592 18.5554 2.34339 19.1104C2.89837 19.6654 3.45583 20.0084 4.11115 20.2649C4.75064 20.512 5.47564 20.68 6.5392 20.7289C7.6052 20.7779 7.94817 20.7897 10.6628 20.7897C13.38 20.7897 13.7205 20.7779 14.7865 20.7289C15.8525 20.68 16.578 20.512 17.2145 20.2649C17.8723 20.0084 18.4298 19.6654 18.9848 19.1104C19.5423 18.5554 19.8828 17.9955 20.1368 17.3402C20.3863 16.7031 20.5544 15.9757 20.6033 14.9121C20.6523 13.8461 20.6641 13.5056 20.6641 10.791C20.6641 8.07379 20.6523 7.73279 20.6033 6.66679Z" fill="white"/>
<path d="M10.6626 14.1216C8.82267 14.1216 7.32968 12.6311 7.32968 10.7912C7.32968 8.94826 8.82267 7.45578 10.6626 7.45578C12.5031 7.45578 13.998 8.94826 13.998 10.7912C13.998 12.6311 12.5031 14.1216 10.6626 14.1216ZM10.6626 5.65291C7.82636 5.65291 5.5293 7.9549 5.5293 10.7912C5.5293 13.625 7.82636 15.9245 10.6626 15.9245C13.4989 15.9245 15.7984 13.625 15.7984 10.7912C15.7984 7.9549 13.4989 5.65291 10.6626 5.65291Z" fill="white"/>
</svg>
