<svg width="16" height="16" viewBox="0 0 16 16" fill="none" xmlns="http://www.w3.org/2000/svg">
<g clip-path="url(#clip0_6499_194052)">
<path d="M1.05211 0.0816946L0.970862 0.16607V6.8317C0.970862 14.1348 0.958362 13.6692 1.15524 14.1755C1.31149 14.5755 1.48649 14.8348 1.82711 15.1723C2.16461 15.5067 2.45211 15.6942 2.83961 15.8348C3.31461 16.0067 3.05836 16.0005 8.61149 16.0005C13.6459 16.0005 13.749 16.0005 13.9459 15.938C14.4334 15.788 14.8209 15.4005 14.9709 14.9098C15.0334 14.7161 15.0334 14.5911 15.0334 9.02545C15.0334 5.01295 15.024 3.32232 14.999 3.27545C14.9365 3.1567 14.7865 3.12545 14.2677 3.12545H13.7834V2.43482V1.7442L13.6927 1.65357L13.6021 1.56295H13.0677H12.5334V0.862946V0.16607L12.4521 0.0816946L12.3677 0.000444412H6.75212H1.13649L1.05211 0.0816946ZM11.8834 7.66295L11.8927 14.7036L11.9615 14.9067C12.0021 15.0192 12.0677 15.1692 12.1084 15.2411L12.1865 15.3755H8.05524C5.78337 15.3755 3.80211 15.363 3.65524 15.3473C3.10211 15.288 2.66461 15.0755 2.26774 14.6755C1.97711 14.3817 1.78649 14.0505 1.68961 13.6692C1.62711 13.4317 1.62711 13.2911 1.62711 7.02545V0.625445H6.75212H11.8771L11.8834 7.66295ZM13.1271 8.3192C13.1271 12.4067 13.1396 14.4598 13.1584 14.538C13.2271 14.7848 13.5146 14.8661 13.6927 14.6911L13.7834 14.6005V9.19108V3.7817H14.0802H14.3771L14.3709 9.24108C14.3615 14.613 14.3615 14.7067 14.299 14.8286C14.2209 14.9911 14.0209 15.188 13.8615 15.2661C13.6834 15.3505 13.3615 15.3661 13.1552 15.2973C12.9427 15.2255 12.6927 14.9848 12.6084 14.7661C12.5521 14.613 12.549 14.4442 12.5396 8.41295L12.5334 2.2192H12.8302H13.1271V8.3192Z" fill="#016DEA"/>
<path d="M2.30195 1.33173L2.2207 1.41611V4.37548V7.33486L2.30195 7.41924L2.38633 7.50049H6.75196H11.1176L11.1957 7.42236C11.2395 7.37861 11.2832 7.30049 11.2957 7.24736C11.3207 7.11924 11.3207 1.63173 11.2957 1.50361C11.2832 1.45048 11.2395 1.37236 11.1957 1.32861L11.1176 1.25048H6.75196H2.38633L2.30195 1.33173ZM10.6582 4.37548V6.87549H6.76758H2.87695V4.37548V1.87548H6.76758H10.6582V4.37548Z" fill="#016DEA"/>
<path d="M4.73038 2.88799L4.64288 2.96299L4.62725 4.05674C4.61163 5.07549 4.6085 5.15361 4.55225 5.21611C4.51163 5.25986 4.45538 5.28174 4.38038 5.28174C4.28663 5.28174 4.24913 5.25986 4.13975 5.13486C4.021 5.00049 4.00225 4.99111 3.86163 4.99111C3.7335 4.99111 3.69913 5.00361 3.621 5.08799C3.471 5.25986 3.53038 5.50674 3.771 5.71924C3.95538 5.88174 4.11163 5.93799 4.37725 5.93799C4.67413 5.93799 4.87413 5.85049 5.0585 5.64111C5.27725 5.39111 5.28663 5.32861 5.27725 4.06299L5.26788 2.96299L5.18038 2.88799C5.0585 2.78486 4.85225 2.78486 4.73038 2.88799Z" fill="#016DEA"/>
<path d="M6.33633 2.85693C6.1332 2.93193 5.9332 3.11318 5.8207 3.32881L5.73633 3.48506V4.37568V5.26631L5.8207 5.42568C5.9082 5.59131 6.08633 5.77256 6.2582 5.86631C6.40508 5.94756 6.94258 5.94756 7.08945 5.86631C7.26133 5.77256 7.43945 5.59131 7.52695 5.42568L7.61133 5.26631V4.37568C7.61133 3.50068 7.61133 3.48193 7.53633 3.34443C7.44258 3.16318 7.26758 2.98193 7.11133 2.89756C6.95195 2.81631 6.51445 2.79131 6.33633 2.85693ZM6.88008 3.56006L6.9707 3.65068V4.37568V5.10068L6.88008 5.19131C6.76133 5.30693 6.60508 5.31318 6.48008 5.20693L6.39258 5.13193L6.3832 4.39443L6.37383 3.65381L6.46758 3.56318C6.5957 3.43506 6.75195 3.43506 6.88008 3.56006Z" fill="#016DEA"/>
<path d="M8.1707 2.88502L8.08008 2.96315V4.37565V5.78815L8.1707 5.86627C8.26133 5.94127 8.26445 5.9444 8.7957 5.9319C9.23945 5.92565 9.34883 5.91315 9.4332 5.86627C9.60508 5.77252 9.7832 5.59127 9.8707 5.42565C9.94258 5.28815 9.95508 5.22565 9.95508 5.00065C9.95508 4.76002 9.9457 4.71627 9.85508 4.55377L9.7582 4.37565L9.85508 4.1944C9.9457 4.03502 9.95508 3.99127 9.95508 3.75065C9.95508 3.52565 9.94258 3.46315 9.8707 3.32565C9.7832 3.16002 9.60508 2.97877 9.4332 2.88502C9.34883 2.83815 9.23945 2.82565 8.7957 2.8194C8.26445 2.8069 8.26133 2.81002 8.1707 2.88502ZM9.18633 3.52565C9.29258 3.60377 9.33633 3.72565 9.2957 3.8319C9.25195 3.96315 9.12695 4.03502 8.91445 4.05377L8.7207 4.07252V3.75065V3.42877L8.91445 3.44752C9.03008 3.4569 9.13633 3.48815 9.18633 3.52565ZM9.18633 4.77565C9.29258 4.85377 9.33633 4.97565 9.2957 5.0819C9.25195 5.21315 9.12695 5.28502 8.91445 5.30377L8.7207 5.32252V5.00065V4.67877L8.91445 4.69752C9.03008 4.7069 9.13633 4.73815 9.18633 4.77565Z" fill="#016DEA"/>
<path d="M2.30156 8.51924C2.18594 8.63799 2.18594 8.86299 2.30156 8.98174L2.38594 9.06299H6.75157H11.1172L11.2016 8.98174C11.3172 8.86299 11.3172 8.63799 11.2016 8.51924L11.1172 8.43799H6.75157H2.38594L2.30156 8.51924Z" fill="#016DEA"/>
<path d="M2.30156 10.0817C2.18594 10.2005 2.18594 10.4255 2.30156 10.5442L2.38594 10.6255H4.05156H5.71719L5.80469 10.5505C5.87969 10.4849 5.89219 10.4505 5.89219 10.313C5.89219 10.1755 5.87969 10.1411 5.80469 10.0755L5.71719 10.0005H4.05156H2.38594L2.30156 10.0817Z" fill="#016DEA"/>
<path d="M6.68633 10.0911L6.5957 10.1817V11.0942V12.0067L6.68633 12.0974L6.77695 12.188H8.94883H11.1176L11.202 12.1067L11.2832 12.0224V11.0942V10.1661L11.202 10.0817L11.1176 10.0005H8.94883H6.77695L6.68633 10.0911ZM10.627 11.0942V11.563H8.93946H7.25195V11.0942V10.6255H8.93946H10.627V11.0942Z" fill="#016DEA"/>
<path d="M2.30156 11.6442C2.18594 11.763 2.18594 11.988 2.30156 12.1067L2.38594 12.188H4.05156H5.71719L5.80469 12.113C5.87969 12.0474 5.89219 12.013 5.89219 11.8755C5.89219 11.738 5.87969 11.7036 5.80469 11.638L5.71719 11.563H4.05156H2.38594L2.30156 11.6442Z" fill="#016DEA"/>
<path d="M2.30156 13.2067C2.18594 13.3255 2.18594 13.5505 2.30156 13.6692L2.38594 13.7505H4.99532H7.60782L7.69532 13.6661C7.76719 13.5974 7.78282 13.5567 7.78282 13.438C7.78282 13.3192 7.76719 13.2786 7.69532 13.2099L7.60782 13.1255H4.99532H2.38594L2.30156 13.2067Z" fill="#016DEA"/>
<path d="M8.58068 13.2005C8.49318 13.2911 8.45568 13.4067 8.48381 13.5192C8.49631 13.563 8.54006 13.6349 8.58068 13.6755L8.65568 13.7505H9.88694H11.1182L11.2026 13.6692C11.2682 13.6036 11.2838 13.5567 11.2838 13.438C11.2838 13.3192 11.2682 13.2724 11.2026 13.2067L11.1182 13.1255H9.88694H8.65568L8.58068 13.2005Z" fill="#016DEA"/>
</g>
<defs>
<clipPath id="clip0_6499_194052">
<rect width="16" height="16" fill="white"/>
</clipPath>
</defs>
</svg>
