<svg width="16" height="16" viewBox="0 0 16 16" fill="none" xmlns="http://www.w3.org/2000/svg">
<path d="M13.334 4.66667H2.66732C1.93094 4.66667 1.33398 5.26363 1.33398 6.00001V12.6667C1.33398 13.4031 1.93094 14 2.66732 14H13.334C14.0704 14 14.6673 13.4031 14.6673 12.6667V6.00001C14.6673 5.26363 14.0704 4.66667 13.334 4.66667Z" stroke="#016DEA" stroke-linecap="round" stroke-linejoin="round"/>
<path d="M10.6673 14V3.33333C10.6673 2.97971 10.5268 2.64057 10.2768 2.39052C10.0267 2.14048 9.68761 2 9.33398 2H6.66732C6.3137 2 5.97456 2.14048 5.72451 2.39052C5.47446 2.64057 5.33398 2.97971 5.33398 3.33333V14" stroke="#016DEA" stroke-linecap="round" stroke-linejoin="round"/>
</svg>
