<svg width="16" height="20" viewBox="0 0 16 20" fill="none" xmlns="http://www.w3.org/2000/svg">
<path d="M6.00044 12.65V7.34999L11.0004 9.99999L6.00044 12.65ZM13.7704 8.31999C13.0004 7.99999 12.5704 7.81999 12.5704 7.81999L14.0004 7.05999C15.8404 6.09999 16.5304 3.82999 15.5604 1.99999C14.5904 0.169991 12.3204 -0.530009 10.4904 0.439991L2.00044 4.93999C0.710441 5.61999 -0.0695587 6.97999 0.000441315 8.42999C0.0704413 9.84999 0.930441 11.1 2.22044 11.68C2.25044 11.69 3.42044 12.18 3.42044 12.18L2.00044 12.93C0.170441 13.9 -0.529559 16.17 0.440441 18C1.41044 19.83 3.68044 20.53 5.51044 19.56L14.0104 15.06C15.3004 14.38 16.0704 13.02 16.0004 11.57C15.9304 10.15 15.0604 8.88999 13.7704 8.31999ZM13.5404 14.18L5.04044 18.68C3.70044 19.39 2.03044 18.88 1.32044 17.54C0.610442 16.2 1.12044 14.53 2.46044 13.82L4.50044 12.74V11.53L3.81044 11.25L2.70044 10.79C1.71044 10.38 1.05044 9.43999 1.00044 8.37999C0.950441 7.31999 1.52044 6.31999 2.46044 5.81999L10.9604 1.31999C12.3004 0.609991 13.9704 1.11999 14.6804 2.45999C15.3904 3.79999 14.8804 5.46999 13.5404 6.17999L11.5004 7.25999V8.46999L13.3004 9.20999C14.2904 9.61999 14.9504 10.56 15.0004 11.62C15.0504 12.68 14.4804 13.68 13.5404 14.18Z" fill="white"/>
</svg>
