<svg width="50" height="50" viewBox="0 0 50 50" fill="none" xmlns="http://www.w3.org/2000/svg">
<g clip-path="url(#clip0_6862_197959)">
<mask id="path-1-inside-1_6862_197959" fill="white">
<path d="M8.59375 50.0001H41.4062C42.6984 50.0001 43.75 48.9486 43.75 47.6564V2.34387C43.75 1.05168 42.6984 0.00012207 41.4062 0.00012207H8.59375C7.30156 0.00012207 6.25 1.05168 6.25 2.34387V47.6564C6.25 48.9486 7.30156 50.0001 8.59375 50.0001ZM7.8125 2.34387C7.8125 1.91262 8.1625 1.56262 8.59375 1.56262H41.4062C41.8375 1.56262 42.1875 1.91262 42.1875 2.34387V47.6564C42.1875 48.0876 41.8375 48.4376 41.4062 48.4376H8.59375C8.1625 48.4376 7.8125 48.0876 7.8125 47.6564V2.34387Z"/>
</mask>
<path d="M8.59375 52.0835H41.4062V47.9168H8.59375V52.0835ZM41.4062 52.0835C43.849 52.0835 45.8333 50.0992 45.8333 47.6564H41.6667C41.6667 47.798 41.5478 47.9168 41.4062 47.9168V52.0835ZM45.8333 47.6564V2.34387H41.6667V47.6564H45.8333ZM45.8333 2.34387C45.8333 -0.0989086 43.849 -2.08321 41.4062 -2.08321V2.08346C41.5478 2.08346 41.6667 2.20228 41.6667 2.34387H45.8333ZM41.4062 -2.08321H8.59375V2.08346H41.4062V-2.08321ZM8.59375 -2.08321C6.15097 -2.08321 4.16667 -0.0989086 4.16667 2.34387H8.33333C8.33333 2.20228 8.45216 2.08346 8.59375 2.08346V-2.08321ZM4.16667 2.34387V47.6564H8.33333V2.34387H4.16667ZM4.16667 47.6564C4.16667 50.0992 6.15097 52.0835 8.59375 52.0835V47.9168C8.45216 47.9168 8.33333 47.798 8.33333 47.6564H4.16667ZM9.89583 2.34387C9.89583 3.06322 9.31309 3.64596 8.59375 3.64596V-0.520711C7.01191 -0.520711 5.72917 0.762029 5.72917 2.34387H9.89583ZM8.59375 3.64596H41.4062V-0.520711H8.59375V3.64596ZM41.4062 3.64596C40.6869 3.64596 40.1042 3.06322 40.1042 2.34387H44.2708C44.2708 0.762029 42.9881 -0.520711 41.4062 -0.520711V3.64596ZM40.1042 2.34387V47.6564H44.2708V2.34387H40.1042ZM40.1042 47.6564C40.1042 46.937 40.6869 46.3543 41.4062 46.3543V50.521C42.9881 50.521 44.2708 49.2382 44.2708 47.6564H40.1042ZM41.4062 46.3543H8.59375V50.521H41.4062V46.3543ZM8.59375 46.3543C9.31309 46.3543 9.89583 46.937 9.89583 47.6564H5.72917C5.72917 49.2382 7.01191 50.521 8.59375 50.521V46.3543ZM9.89583 47.6564V2.34387H5.72917V47.6564H9.89583Z" fill="#016DEA" mask="url(#path-1-inside-1_6862_197959)"/>
<mask id="path-3-inside-2_6862_197959" fill="white">
<path d="M25 38.0295C23.2766 38.0295 21.875 39.4311 21.875 41.1545C21.875 42.878 23.2766 44.2795 25 44.2795C26.7234 44.2795 28.125 42.878 28.125 41.1545C28.125 39.4311 26.7234 38.0295 25 38.0295ZM25 42.717C24.1391 42.717 23.4375 42.0155 23.4375 41.1545C23.4375 40.2936 24.1391 39.592 25 39.592C25.8609 39.592 26.5625 40.2936 26.5625 41.1545C26.5625 42.0155 25.8609 42.717 25 42.717Z"/>
</mask>
<path d="M25 35.9462C22.126 35.9462 19.7917 38.2805 19.7917 41.1545H23.9583C23.9583 40.5817 24.4272 40.1129 25 40.1129V35.9462ZM19.7917 41.1545C19.7917 44.0286 22.126 46.3629 25 46.3629V42.1962C24.4272 42.1962 23.9583 41.7274 23.9583 41.1545H19.7917ZM25 46.3629C27.874 46.3629 30.2083 44.0286 30.2083 41.1545H26.0417C26.0417 41.7274 25.5728 42.1962 25 42.1962V46.3629ZM30.2083 41.1545C30.2083 38.2805 27.874 35.9462 25 35.9462V40.1129C25.5728 40.1129 26.0417 40.5817 26.0417 41.1545H30.2083ZM25 40.6337C25.2897 40.6337 25.5208 40.8649 25.5208 41.1545H21.3542C21.3542 43.1661 22.9885 44.8004 25 44.8004V40.6337ZM25.5208 41.1545C25.5208 41.4442 25.2897 41.6754 25 41.6754V37.5087C22.9885 37.5087 21.3542 39.143 21.3542 41.1545H25.5208ZM25 41.6754C24.7103 41.6754 24.4792 41.4442 24.4792 41.1545H28.6458C28.6458 39.143 27.0115 37.5087 25 37.5087V41.6754ZM24.4792 41.1545C24.4792 40.8649 24.7103 40.6337 25 40.6337V44.8004C27.0115 44.8004 28.6458 43.1661 28.6458 41.1545H24.4792Z" fill="#016DEA" mask="url(#path-3-inside-2_6862_197959)"/>
<line x1="12.7292" y1="12.8958" x2="37.5208" y2="12.8958" stroke="#016DEA" stroke-width="2.08333" stroke-linecap="round"/>
<line x1="20.4167" y1="6.83358" x2="29.5833" y2="6.83358" stroke="#016DEA" stroke-width="2.08333" stroke-linecap="round"/>
<line x1="12.7292" y1="19.1458" x2="37.5208" y2="19.1458" stroke="#016DEA" stroke-width="2.08333" stroke-linecap="round"/>
<line x1="12.7292" y1="25.3958" x2="26.2708" y2="25.3958" stroke="#016DEA" stroke-width="2.08333" stroke-linecap="round"/>
<line x1="12.7292" y1="31.6458" x2="26.2708" y2="31.6458" stroke="#016DEA" stroke-width="2.08333" stroke-linecap="round"/>
</g>
<defs>
<clipPath id="clip0_6862_197959">
<rect width="50" height="50" fill="white"/>
</clipPath>
</defs>
</svg>
