<svg width="16" height="16" viewBox="0 0 16 16" fill="none" xmlns="http://www.w3.org/2000/svg">
<g clip-path="url(#clip0_6513_194388)">
<path d="M0.54375 0.0750008C0.340625 0.168751 0.16875 0.340626 0.075 0.543751L0 0.703126V8V15.2969L0.075 15.4563C0.16875 15.6594 0.340625 15.8313 0.54375 15.925L0.703125 16H6.625H12.5469L12.7062 15.925C12.9094 15.8313 13.0812 15.6594 13.175 15.4563L13.25 15.2969V13.9594V12.6188L13.1594 12.5281C13.0375 12.4094 12.8562 12.4031 12.7281 12.5125L12.6406 12.5875L12.625 13.8656C12.6094 15.2375 12.6094 15.2281 12.4406 15.3188C12.325 15.3813 0.921875 15.3781 0.80625 15.3156C0.63125 15.2219 0.640625 15.6969 0.640625 8C0.640625 0.303126 0.63125 0.778126 0.80625 0.684376C0.921875 0.621876 12.325 0.618751 12.4406 0.681251C12.6125 0.771876 12.6094 0.715626 12.625 2.68125L12.6406 4.50625L12.7281 4.58125C12.8562 4.69063 13.0375 4.68438 13.1594 4.56563L13.25 4.475V2.5875V0.703126L13.175 0.543751C13.0812 0.340626 12.9094 0.168751 12.7062 0.0750008L12.5469 9.53674e-07H6.625H0.703125L0.54375 0.0750008Z" fill="#016DEA"/>
<path d="M6.03165 1.7375C5.5004 1.85 5.0504 2.0875 4.6504 2.46563C4.0629 3.02188 3.79102 3.625 3.75977 4.44063C3.74102 4.92188 3.7879 5.23125 3.9379 5.61875C4.19727 6.28438 4.77227 6.89375 5.42227 7.19063C5.84102 7.37813 6.05977 7.42188 6.6254 7.42188C7.06915 7.42188 7.1754 7.4125 7.38477 7.35C7.92227 7.19375 8.3379 6.94375 8.7129 6.54688C9.24727 5.98438 9.5004 5.34375 9.5004 4.5625C9.5004 3.74375 9.24727 3.125 8.67227 2.54375C8.23165 2.09688 7.79727 1.85625 7.2129 1.7375C6.91602 1.675 6.3129 1.675 6.03165 1.7375ZM7.16602 2.40313C8.47852 2.74063 9.1879 4.14375 8.68477 5.40313C8.62852 5.54375 8.53477 5.7125 8.44727 5.84063C8.44102 5.84688 8.3504 5.75625 8.24415 5.64063C8.13477 5.52188 7.94102 5.35625 7.8129 5.27188C7.68477 5.1875 7.57852 5.10938 7.58165 5.1C7.58165 5.0875 7.61602 5.00625 7.65665 4.92188C7.7254 4.78125 7.73477 4.725 7.73477 4.34375C7.73477 3.95313 7.72852 3.90938 7.65352 3.75C7.44102 3.29688 6.92227 3.02813 6.4379 3.11875C6.05977 3.1875 5.7504 3.42188 5.59727 3.75C5.52227 3.90938 5.51602 3.95313 5.51602 4.34375C5.51602 4.725 5.5254 4.78125 5.59415 4.92188C5.63477 5.00625 5.66915 5.0875 5.66915 5.1C5.67227 5.10938 5.56602 5.1875 5.4379 5.27188C5.30977 5.35625 5.11602 5.52188 5.00665 5.64063C4.84727 5.8125 4.80352 5.84688 4.77852 5.8125C4.6879 5.675 4.49727 5.24063 4.45665 5.075C4.38477 4.8 4.39102 4.31875 4.46915 4.01875C4.66602 3.25 5.30352 2.60938 6.06915 2.40625C6.38165 2.325 6.8504 2.325 7.16602 2.40313ZM6.83165 3.81563C7.02852 3.90938 7.10352 4.05 7.10665 4.325C7.10665 4.49688 7.09415 4.575 7.04415 4.65625C6.8504 4.99063 6.4004 4.99063 6.20665 4.65938C6.15977 4.57813 6.14415 4.49375 6.14415 4.34375C6.14415 4.075 6.22227 3.91875 6.40665 3.82188C6.57227 3.73438 6.6629 3.73125 6.83165 3.81563ZM7.28477 5.74375C7.49415 5.84375 7.59415 5.91563 7.74727 6.07813C7.85352 6.19375 7.9379 6.30938 7.93165 6.33438C7.91602 6.40625 7.45665 6.64375 7.1879 6.71563C6.72852 6.84063 6.10352 6.7875 5.70665 6.59063C5.48477 6.47813 5.3129 6.35938 5.3129 6.32188C5.3129 6.3 5.4004 6.19063 5.50665 6.07813C5.65352 5.91875 5.75665 5.84375 5.9504 5.75C6.2629 5.6 6.28477 5.59688 6.6879 5.60625C7.00352 5.6125 7.03165 5.61875 7.28477 5.74375Z" fill="#016DEA"/>
<path d="M14.4063 3.91875C14.3125 3.9375 14.1656 3.9875 14.0781 4.03125C13.7281 4.2 13.7313 4.19063 11.5906 7.90938C10.4969 9.80625 9.59375 11.3844 9.58438 11.4125C9.575 11.4438 9.5 12.0469 9.42188 12.7531C9.26875 14.1313 9.26875 14.1625 9.41875 14.2656C9.45313 14.2906 9.54063 14.3125 9.6125 14.3125C9.75625 14.3125 9.77813 14.2969 11.2 13.2438L11.8844 12.7344L13.85 9.32813C14.9313 7.45313 15.8531 5.84375 15.9 5.75C15.9719 5.59688 15.9813 5.54063 15.9813 5.21875C15.9844 4.8625 15.9813 4.85313 15.8656 4.61875C15.6781 4.2375 15.3469 3.9875 14.9188 3.90938C14.7 3.86875 14.6281 3.86875 14.4063 3.91875ZM15.0094 4.63125C15.0813 4.67188 15.1813 4.7625 15.2313 4.8375C15.3094 4.94688 15.3281 5.00938 15.3375 5.18125C15.3469 5.3875 15.3438 5.39688 15.1625 5.71875C15.0625 5.9 14.9719 6.04688 14.9625 6.04688C14.9531 6.04688 14.6906 5.9 14.3781 5.71875L13.8156 5.39375L13.9281 5.1875C14.0906 4.89375 14.2125 4.725 14.3 4.66875C14.5281 4.51875 14.7813 4.50625 15.0094 4.63125ZM14.1813 6.37188C14.425 6.51563 14.625 6.63438 14.625 6.64063C14.625 6.65938 11.5344 12.0094 11.5094 12.0344C11.475 12.0656 10.3563 11.4156 10.3688 11.3719C10.3719 11.3531 11.075 10.1313 11.9281 8.65313L13.4781 5.96875L13.6063 6.04063C13.6781 6.08125 13.9344 6.23125 14.1813 6.37188ZM10.6938 12.3688C10.8594 12.4656 10.9906 12.5531 10.9813 12.5656C10.975 12.5781 10.7563 12.7438 10.5 12.9344C10.1688 13.1781 10.0313 13.2656 10.0313 13.225C10.0313 13.1969 10.0594 12.9313 10.0938 12.6406C10.1281 12.3469 10.1563 12.0969 10.1563 12.0844C10.1563 12.0688 10.2094 12.0875 10.275 12.125C10.3375 12.1625 10.5281 12.2719 10.6938 12.3688Z" fill="#016DEA"/>
<path d="M2.30944 8.52813C2.10944 8.72813 2.24694 9.0625 2.53132 9.0625C2.77507 9.0625 2.91882 8.86875 2.84382 8.64375C2.80007 8.50625 2.69382 8.4375 2.53132 8.4375C2.42819 8.4375 2.38132 8.45625 2.30944 8.52813Z" fill="#016DEA"/>
<path d="M3.64336 8.51875C3.52773 8.6375 3.52773 8.8625 3.64336 8.98125L3.72773 9.0625H6.09336H8.45898L8.54336 8.98125C8.60898 8.91563 8.62461 8.86875 8.62461 8.75C8.62461 8.63125 8.60898 8.58438 8.54336 8.51875L8.45898 8.4375H6.09336H3.72773L3.64336 8.51875Z" fill="#016DEA"/>
<path d="M2.30944 10.2781C2.10944 10.4781 2.24694 10.8125 2.53132 10.8125C2.69382 10.8125 2.80007 10.7438 2.84382 10.6063C2.91882 10.3813 2.77507 10.1875 2.53132 10.1875C2.42819 10.1875 2.38132 10.2063 2.30944 10.2781Z" fill="#016DEA"/>
<path d="M3.64336 10.2688C3.52773 10.3875 3.52773 10.6125 3.64336 10.7313L3.72773 10.8125H6.09336H8.45898L8.54336 10.7313C8.60898 10.6656 8.62461 10.6188 8.62461 10.5C8.62461 10.3813 8.60898 10.3344 8.54336 10.2688L8.45898 10.1875H6.09336H3.72773L3.64336 10.2688Z" fill="#016DEA"/>
<path d="M2.30944 12.0281C2.10944 12.2281 2.24694 12.5625 2.53132 12.5625C2.77507 12.5625 2.91882 12.3688 2.84382 12.1438C2.80007 12.0063 2.69382 11.9375 2.53132 11.9375C2.42819 11.9375 2.38132 11.9563 2.30944 12.0281Z" fill="#016DEA"/>
<path d="M3.64336 12.0188C3.52773 12.1375 3.52773 12.3625 3.64336 12.4813L3.72773 12.5625H6.09336H8.45898L8.54336 12.4813C8.60898 12.4156 8.62461 12.3688 8.62461 12.25C8.62461 12.1313 8.60898 12.0844 8.54336 12.0188L8.45898 11.9375H6.09336H3.72773L3.64336 12.0188Z" fill="#016DEA"/>
<path d="M6.39375 13.7688C6.32812 13.8344 6.3125 13.8813 6.3125 14C6.3125 14.1188 6.32812 14.1656 6.39375 14.2313L6.47812 14.3125H7.46875H8.45937L8.54375 14.2313C8.65937 14.1125 8.65937 13.8875 8.54375 13.7688L8.45937 13.6875H7.46875H6.47812L6.39375 13.7688Z" fill="#016DEA"/>
</g>
<defs>
<clipPath id="clip0_6513_194388">
<rect width="16" height="16" fill="white"/>
</clipPath>
</defs>
</svg>
