<svg width="24" height="24" viewBox="0 0 24 24" fill="none" xmlns="http://www.w3.org/2000/svg">
<g clip-path="url(#clip0_22_7110)">
<path d="M3.73125 0.543751C3.375 0.918751 3.1875 1.29375 3.1875 1.66875C3.1875 2.175 3.13125 2.25 2.68125 2.25C2.00625 2.25 1.05 2.83125 0.618754 3.50625C0.318754 3.975 0.281254 4.65 0.225004 11.625C0.150004 22.1625 -0.243746 21.5625 6.76875 21.5625H11.1938L11.6438 22.05C12.7688 23.2688 14.6063 24 16.575 24C18.75 24 20.3625 23.3063 21.7688 21.8063C23.925 19.5 24.3563 16.2938 22.8563 13.4813C22.5188 12.8813 21.9 12.0375 21.45 11.6438L20.6625 10.8938L20.5875 7.4625C20.5313 4.21875 20.5125 3.99375 20.1 3.4125C19.5938 2.71875 18.8063 2.25 18.1313 2.25C17.7563 2.25 17.6438 2.1375 17.5313 1.575C17.1375 -0.543749 14.175 -0.543749 13.7813 1.575L13.65 2.25H10.4063H7.1625L7.05 1.6125C6.75 0.0375014 4.85625 -0.581249 3.73125 0.543751ZM3.1875 4.10625C3.1875 5.00625 3.31875 5.0625 5.23125 5.0625C6.8625 5.0625 7.125 4.9125 7.125 3.99375V3.375H10.4063H13.6875V3.99375C13.6875 4.9125 13.95 5.0625 15.6563 5.0625C17.3625 5.0625 17.625 4.9125 17.625 3.975C17.625 3.4125 17.6625 3.35625 18.0563 3.46875C18.975 3.75 19.3125 4.29375 19.3125 5.475V6.5625H10.4063H1.5V5.475C1.5 4.36875 1.81875 3.80625 2.625 3.50625C3.13125 3.31875 3.1875 3.375 3.1875 4.10625ZM19.3125 8.98125V10.275L18.4313 10.0125C16.8563 9.54375 14.7188 9.76875 13.1438 10.5938C12.2063 11.0813 10.6688 12.6938 10.1438 13.7625C9.46875 15.15 9.24375 17.1188 9.6 18.4875C9.75 19.0875 9.9375 19.7438 10.0313 19.9125C10.1625 20.2313 9.9 20.25 6.225 20.25H2.26875L1.89375 19.7625C1.51875 19.275 1.5 19.05 1.5 13.4813V7.6875H10.4063H19.3125V8.98125ZM18.6375 11.3813C19.9688 11.8125 21.5625 13.425 22.125 14.9063C23.7 19.1625 19.725 23.7375 15.3563 22.6875C10.7625 21.5813 9.13125 16.05 12.4313 12.75C13.3688 11.7938 14.0438 11.4375 15.375 11.1375C16.5 10.8938 17.2313 10.95 18.6375 11.3813Z" fill="white"/>
<path d="M15.8625 13.425C15.4875 13.8 15.4313 17.4188 15.7875 17.775C15.9188 17.9063 16.6313 18 17.6438 18C19.3313 18 19.8188 17.7938 19.575 17.175C19.4813 16.9313 19.1813 16.875 18.1688 16.875H16.875V15.1875C16.875 13.725 16.8375 13.4813 16.5188 13.3125C16.2375 13.1813 16.0875 13.2 15.8625 13.425Z" fill="white"/>
</g>
<defs>
<clipPath id="clip0_22_7110">
<rect width="24" height="24" fill="white"/>
</clipPath>
</defs>
</svg>
