<svg width="16" height="16" viewBox="0 0 16 16" fill="none" xmlns="http://www.w3.org/2000/svg">
<g clip-path="url(#clip0_9195_150855)">
<path d="M7.66521 0.0814466C7.59021 0.125196 7.49646 0.218946 7.45271 0.293946C7.38708 0.409572 7.37458 0.465821 7.37458 0.693946V0.959571L6.80583 0.978321C6.44333 0.990821 6.15896 1.01582 6.03083 1.04707C5.73083 1.1252 5.23083 1.37832 5.00896 1.56895C4.69958 1.83145 3.20271 3.54082 3.04333 3.8127C2.88083 4.08457 2.75896 4.44707 2.71521 4.78145C2.69646 4.93145 2.68708 6.63457 2.69333 9.46895L2.70271 13.9221L2.77458 14.1564C3.06208 15.0939 3.74021 15.7408 4.65583 15.9533C4.95896 16.0221 11.0402 16.0221 11.3433 15.9533C12.3496 15.7189 13.0871 14.9377 13.2652 13.9158C13.2902 13.7689 13.3121 13.5971 13.3121 13.5314C13.3121 13.2846 13.1715 13.0408 12.9683 12.9377C12.8308 12.8689 12.559 12.8533 12.4152 12.9096C12.2183 12.9814 12.0308 13.2471 12.0308 13.4502C12.0308 14.0908 11.5496 14.6377 10.9183 14.7221C10.6402 14.7564 5.36208 14.7564 5.08708 14.7221C4.64646 14.6627 4.28083 14.3971 4.09021 13.9908L3.98396 13.7658L3.97458 9.40957C3.97146 6.64707 3.97771 4.99082 3.99646 4.88457C4.05583 4.56895 4.16208 4.42207 4.98708 3.49082C5.42458 2.99707 5.84021 2.5502 5.90896 2.5002C6.15896 2.31895 6.34021 2.2752 6.88396 2.25645L7.37458 2.24082V2.93145V3.61895L7.20583 3.71582C6.31208 4.21895 6.14958 5.4752 6.88083 6.19707C7.20583 6.51582 7.54646 6.65645 7.99958 6.65645C8.45271 6.65645 8.79333 6.51582 9.11208 6.20332C9.35896 5.95645 9.51833 5.64395 9.56521 5.29395C9.65271 4.6752 9.33396 4.01895 8.79646 3.71582L8.62458 3.61895V2.93145V2.24082L9.11833 2.25645C9.65896 2.2752 9.84021 2.31895 10.0902 2.5002C10.159 2.5502 10.5746 2.99707 11.0121 3.49082C11.834 4.41582 11.9402 4.56582 11.9996 4.87832C12.0183 4.9752 12.0308 6.12832 12.0308 7.7877C12.0308 10.7596 12.0246 10.6533 12.1965 10.8408C12.2996 10.9502 12.4965 11.0314 12.6746 11.0314C12.8965 11.0314 13.084 10.9283 13.2027 10.7346L13.2965 10.5846L13.3058 7.8002C13.3121 6.07832 13.3027 4.9252 13.284 4.78145C13.2402 4.44707 13.1183 4.08457 12.9558 3.8127C12.7965 3.54082 11.2965 1.82832 10.9933 1.56895C10.7402 1.35645 10.334 1.14707 9.99958 1.0627C9.79646 1.00957 9.60271 0.990821 9.18083 0.978321L8.62458 0.959571V0.693946C8.62458 0.465821 8.61208 0.409572 8.54646 0.293946C8.43083 0.0970716 8.24958 0.000196457 7.99646 0.000196457C7.83708 0.000196457 7.76833 0.0158215 7.66521 0.0814466ZM8.20583 4.87832C8.39646 5.05645 8.26208 5.3752 7.99958 5.3752C7.82146 5.3752 7.65583 5.17832 7.70583 5.01895C7.77458 4.79395 8.03708 4.72207 8.20583 4.87832Z" fill="white"/>
<path d="M7.74046 8.0625C7.59671 8.10625 7.45296 8.23438 7.39358 8.36875C7.34671 8.46875 7.29983 8.5125 7.16858 8.57813C6.96546 8.67813 6.69046 8.96875 6.58108 9.19688C6.33421 9.72188 6.43421 10.3125 6.83421 10.7156C7.03733 10.9156 7.19046 10.9969 7.78733 11.2188C8.19358 11.3688 8.29983 11.4313 8.34358 11.5469C8.40296 11.6969 8.14671 11.7844 7.83108 11.7188C7.70296 11.6938 7.61546 11.65 7.51233 11.5594C7.25921 11.3406 7.08733 11.2844 6.83733 11.3469C6.50608 11.425 6.28421 11.7906 6.37171 12.1125C6.44671 12.3875 6.74983 12.6781 7.14046 12.8406C7.30921 12.9125 7.36546 12.9531 7.42483 13.0563C7.51546 13.2094 7.76233 13.3438 7.95296 13.3438C8.12796 13.3438 8.39358 13.2063 8.47796 13.075C8.52483 13 8.59046 12.9531 8.69358 12.9219C8.86858 12.8625 9.17171 12.6688 9.28421 12.5438C9.79671 11.9813 9.75296 11.1031 9.18421 10.5344C8.97171 10.3219 8.76546 10.2063 8.26233 10.0219C8.05608 9.94688 7.84671 9.8625 7.79983 9.8375C7.72171 9.79688 7.71858 9.7875 7.75921 9.74375C7.82483 9.67813 8.03733 9.65 8.14358 9.6875C8.19046 9.70625 8.28108 9.76875 8.34671 9.82813C8.84983 10.2813 9.60296 9.74688 9.36233 9.10938C9.29358 8.93125 8.99671 8.65625 8.75608 8.54375C8.62171 8.48125 8.55608 8.43125 8.50608 8.34063C8.40296 8.15938 8.22171 8.05313 8.00608 8.04063C7.90608 8.0375 7.78733 8.04688 7.74046 8.0625Z" fill="white"/>
</g>
<defs>
<clipPath id="clip0_9195_150855">
<rect width="16" height="16" fill="white"/>
</clipPath>
</defs>
</svg>
