<svg width="16" height="16" viewBox="0 0 16 16" fill="none" xmlns="http://www.w3.org/2000/svg">
<g clip-path="url(#clip0_4630_54489)">
<path d="M6.79925 2.56247C6.01175 2.96247 5.59925 3.56247 5.52425 4.43747C5.44925 5.31247 5.66175 5.88747 6.24925 6.42497C8.09925 8.08747 10.8993 6.41247 10.2618 4.02497C9.86175 2.53747 8.22425 1.84997 6.79925 2.56247ZM8.53675 3.04997C9.81175 3.57497 10.0868 5.08747 9.06175 5.98747C8.49925 6.47497 7.94925 6.57497 7.27425 6.31247C5.83675 5.73747 5.74925 3.86247 7.12425 3.14997C7.76175 2.82497 7.98675 2.81247 8.53675 3.04997Z" fill="#016DEA"/>
<path d="M12.0616 4.05C11.0866 4.475 10.6741 5.575 11.1116 6.55C11.4366 7.2875 11.9741 7.625 12.8241 7.625C14.7741 7.625 15.4741 5.125 13.7991 4.1625C13.2491 3.85 12.6241 3.8 12.0616 4.05ZM13.4741 4.75C14.2241 5.2125 14.3241 5.95 13.6991 6.575C13.3741 6.9 13.1741 7 12.8116 7C11.5991 7 11.1491 5.275 12.2241 4.7C12.6866 4.4375 12.9866 4.4625 13.4741 4.75Z" fill="#016DEA"/>
<path d="M2.2006 4.2875C0.5256 5.25 1.2256 7.75 3.1756 7.75C4.0256 7.75 4.5631 7.4125 4.8881 6.675C5.6506 4.975 3.8256 3.35 2.2006 4.2875ZM3.6006 4.7625C4.4256 5.05 4.6506 6.125 4.0131 6.7625C3.6131 7.15 3.1256 7.2375 2.5881 6.9875C2.2631 6.8375 1.8756 6.275 1.8756 5.9375C1.8756 5.5875 2.2381 5.0125 2.6006 4.825C3.0131 4.6 3.1131 4.5875 3.6006 4.7625Z" fill="#016DEA"/>
<path d="M6.93741 7.425C6.23741 7.6 5.87491 7.775 5.27491 8.2125C4.87491 8.5125 4.86241 8.5125 4.22491 8.3C3.43741 8.0375 2.37491 8.1125 1.66241 8.475C1.08741 8.775 0.424911 9.4875 0.174911 10.075C-0.0500894 10.6 -0.0625894 12.5125 0.149911 12.725C0.249911 12.825 0.837411 12.875 1.96241 12.875C3.36241 12.875 3.62491 12.9 3.62491 13.0625C3.62491 13.1625 3.73741 13.3625 3.87491 13.5C4.11241 13.7375 4.28741 13.75 7.99991 13.75C11.7124 13.75 11.8874 13.7375 12.1249 13.5C12.2624 13.3625 12.3749 13.1375 12.3749 13C12.3749 12.7625 12.4624 12.75 13.9124 12.75C15.9499 12.75 15.9999 12.7125 15.9999 11.325C15.9999 9.7125 15.3999 8.7375 14.0749 8.1875C13.4624 7.925 12.1874 7.925 11.5374 8.1875C11.0374 8.3875 11.0374 8.3875 10.3999 7.9875C9.74991 7.5875 8.59991 7.25 7.93741 7.2625C7.73741 7.2625 7.28741 7.3375 6.93741 7.425ZM9.53741 8.275C10.3124 8.6125 11.2874 9.675 11.5624 10.4875C11.6999 10.9 11.7499 11.4125 11.7249 12.075L11.6874 13.0625H7.99991H4.31241L4.27491 12.075C4.22491 10.8125 4.47491 10.075 5.21241 9.25C6.38741 7.95 7.92491 7.6 9.53741 8.275ZM13.9874 8.875C14.9499 9.3625 15.4249 10.2625 15.3499 11.4375L15.3124 12.0625L13.8624 12.1L12.4124 12.1375L12.3499 11.25C12.2999 10.5875 12.1874 10.1625 11.8999 9.625L11.5249 8.8875L11.8499 8.7625C12.4374 8.55 13.4749 8.6 13.9874 8.875ZM3.89991 8.9C4.16241 8.975 4.36241 9.075 4.33741 9.1125C3.92491 9.8625 3.69991 10.5625 3.64991 11.3375L3.58741 12.25H2.11241H0.624911V11.4875C0.624911 10.6 0.837411 10.0875 1.42491 9.5125C2.12491 8.8375 2.97491 8.625 3.89991 8.9Z" fill="#016DEA"/>
</g>
<defs>
<clipPath id="clip0_4630_54489">
<rect width="16" height="16" fill="white"/>
</clipPath>
</defs>
</svg>
