<svg width="16" height="17" viewBox="0 0 16 17" fill="none" xmlns="http://www.w3.org/2000/svg">
<g clip-path="url(#clip0_53_7028)">
<path d="M0.444238 0.581246C0.266113 0.668746 0.144238 0.796871 0.0598633 0.984371C0.00361328 1.10312 0.000488281 1.37187 0.000488281 7.17187C0.000488281 13.0187 0.00361328 13.2375 0.0598633 13.3625C0.131738 13.5219 0.294238 13.6875 0.456738 13.7687C0.572363 13.825 0.675488 13.8281 2.99111 13.8375L5.40674 13.8437L5.15049 14.3562L4.89424 14.8687L4.34736 14.8812C3.93486 14.8906 3.76924 14.9062 3.68486 14.9437C3.05674 15.2219 3.01924 16.1062 3.62236 16.4125L3.79424 16.5H8.00049H12.2067L12.3786 16.4125C12.8755 16.1625 12.963 15.4625 12.5442 15.0937C12.338 14.9125 12.2567 14.8937 11.6536 14.8812L11.1067 14.8687L10.8505 14.3562L10.5942 13.8437L13.0099 13.8375C15.3255 13.8281 15.4286 13.825 15.5442 13.7687C15.7067 13.6875 15.8692 13.5219 15.9411 13.3625C15.9974 13.2375 16.0005 13.0187 16.0005 7.17187C16.0005 1.37187 15.9974 1.10312 15.9411 0.984371C15.8567 0.796871 15.7349 0.668746 15.5567 0.581246L15.3942 0.499996H8.00049H0.606738L0.444238 0.581246ZM15.3599 1.14062L15.438 1.21562V6.45312V11.6875H9.26924H3.09736L3.00986 11.7625C2.88799 11.8687 2.88799 12.0687 3.00986 12.175L3.09736 12.25H9.26924H15.438V12.6781C15.4349 13.1281 15.4224 13.175 15.2911 13.2437C15.1942 13.2969 0.806738 13.2969 0.709863 13.2437C0.578613 13.175 0.566113 13.1281 0.562988 12.6781V12.25H1.37549C2.36611 12.25 2.40674 12.2375 2.40674 11.95C2.40674 11.875 2.38174 11.8156 2.32861 11.7656L2.25361 11.6875H1.40674H0.562988V6.45312V1.21562L0.641113 1.14062L0.716113 1.0625H8.00049H15.2849L15.3599 1.14062ZM10.213 14.3594L10.4692 14.875H8.00049H5.53174L5.78799 14.3594L6.04736 13.8437H8.00049H9.95362L10.213 14.3594ZM12.1755 15.5406C12.2724 15.6531 12.2724 15.7625 12.1724 15.8594L12.0974 15.9375H8.00049H3.90361L3.82861 15.8594C3.78486 15.8187 3.75049 15.75 3.75049 15.7125C3.75049 15.6187 3.83174 15.5031 3.91924 15.4687C3.95361 15.4531 5.79424 15.4437 8.04112 15.4469L12.1005 15.4531L12.1755 15.5406Z" fill="white"/>
<path d="M3.75962 1.87187C3.67837 1.90937 3.59712 1.98125 3.54399 2.0625C3.46587 2.17812 3.45649 2.225 3.44399 2.53437L3.42837 2.875H2.61274C1.60337 2.87812 1.50962 2.90312 1.37212 3.20312C1.31587 3.32187 1.31274 3.47812 1.31274 6.07812C1.31274 7.78437 1.32524 8.86875 1.34399 8.93437C1.37524 9.04375 1.49712 9.19687 1.60962 9.25937C1.65024 9.28437 1.96899 9.30312 2.56274 9.3125L3.45024 9.32812L3.47212 9.43437C3.49712 9.55625 3.57837 9.67187 3.70024 9.7625C3.78462 9.82812 3.79399 9.82812 8.00025 9.82812C12.2065 9.82812 12.2159 9.82812 12.3002 9.7625C12.4221 9.67187 12.5034 9.55625 12.5284 9.43437L12.5502 9.32812L13.4377 9.3125C14.0315 9.30312 14.3502 9.28437 14.3909 9.25937C14.5034 9.19687 14.6252 9.04375 14.6565 8.93437C14.6752 8.86875 14.6877 7.78437 14.6877 6.07812C14.6877 3.47812 14.6846 3.32187 14.6284 3.20312C14.4909 2.90312 14.3971 2.87812 13.3877 2.875H12.5721L12.5565 2.53437C12.544 2.225 12.5346 2.17812 12.4565 2.0625C12.4034 1.98125 12.3221 1.90937 12.2409 1.87187C12.1127 1.81562 11.969 1.8125 8.00025 1.8125C4.03149 1.8125 3.88774 1.81562 3.75962 1.87187ZM12.0002 4.69375V7.0125L11.2721 6.2875C10.319 5.34375 10.4784 5.35625 9.669 6.15937L9.07212 6.75625L8.11275 5.53437C7.58462 4.8625 7.12212 4.29375 7.08462 4.26562C7.00337 4.20937 6.88462 4.20625 6.79087 4.25937C6.7565 4.28125 6.11587 5.05625 5.37525 5.98437C4.6315 6.9125 4.01899 7.67812 4.01274 7.68437C4.00649 7.69062 4.00024 6.5 4.00024 5.0375V2.375H8.00025H12.0002V4.69375ZM3.43774 6.09375V8.75H2.65649H1.87524V6.09375V3.4375H2.65649H3.43774V6.09375ZM14.1252 6.09375V8.75H13.344H12.5627V6.09375V3.4375H13.344H14.1252V6.09375ZM8.30962 6.71562C9.05025 7.65937 9.67837 8.45 9.7065 8.47187C9.77525 8.52812 9.944 8.52187 10.0409 8.45937C10.1377 8.39687 10.1784 8.22812 10.1221 8.12187C10.1034 8.08125 9.93775 7.85937 9.7565 7.62812L9.42837 7.2125L9.919 6.725L10.4065 6.23437L11.2034 7.03125L12.0002 7.82812V8.55312V9.28125H8.00025H4.00024V8.95312V8.625L5.45962 6.8C6.26275 5.79687 6.9315 4.98125 6.94087 4.9875C6.95337 4.99375 7.569 5.77187 8.30962 6.71562Z" fill="white"/>
<path d="M9.31274 2.92511C9.02212 3.00323 8.78149 3.20011 8.63149 3.48448C8.55649 3.62511 8.54712 3.67511 8.54712 3.96886C8.54712 4.26573 8.55649 4.31261 8.63149 4.45323C8.79399 4.75948 9.09087 4.97511 9.41587 5.02511C9.91587 5.10323 10.3815 4.85948 10.5877 4.41261C10.7065 4.15948 10.7065 3.78136 10.5909 3.53136C10.4377 3.20011 10.1909 2.99698 9.84712 2.91886C9.62837 2.86573 9.52837 2.86573 9.31274 2.92511ZM9.75962 3.48136C9.91899 3.54073 9.99712 3.61261 10.069 3.77823C10.2159 4.10636 9.97212 4.46886 9.60649 4.46886C9.42212 4.46886 9.27837 4.38761 9.16587 4.22198C8.99399 3.96573 9.14712 3.56573 9.45337 3.47198C9.58149 3.43136 9.62212 3.43448 9.75962 3.48136Z" fill="white"/>
<path d="M5.69424 10.4217C5.61299 10.4905 5.59424 10.528 5.59424 10.628C5.59424 10.8967 5.90674 11.0124 6.07861 10.8061C6.14736 10.7249 6.15986 10.6842 6.14424 10.5967C6.13486 10.5374 6.10049 10.4624 6.06924 10.4311C6.03799 10.3999 5.96299 10.3655 5.90361 10.3561C5.81611 10.3405 5.77549 10.353 5.69424 10.4217Z" fill="white"/>
<path d="M6.75072 10.4312C6.56322 10.6219 6.66947 10.9062 6.92884 10.9062C7.29134 10.9031 7.32259 10.4125 6.96322 10.3531C6.86322 10.3375 6.83509 10.35 6.75072 10.4312Z" fill="white"/>
<path d="M7.88776 10.375C7.71276 10.4469 7.66276 10.6969 7.79713 10.8282C7.96901 11.0032 8.28151 10.8844 8.28151 10.6438C8.28151 10.4438 8.06588 10.2969 7.88776 10.375Z" fill="white"/>
<path d="M8.95026 10.3749C8.75339 10.453 8.72839 10.7311 8.90339 10.8655C8.99089 10.9342 9.18151 10.9155 9.26589 10.828C9.48151 10.6155 9.23151 10.2592 8.95026 10.3749Z" fill="white"/>
<path d="M10.0002 10.3844C9.83461 10.4687 9.80023 10.6625 9.92523 10.8094C10.094 11.0125 10.4065 10.8969 10.4065 10.6281C10.4065 10.5281 10.3877 10.4906 10.3096 10.425C10.2034 10.3344 10.119 10.325 10.0002 10.3844Z" fill="white"/>
</g>
<defs>
<clipPath id="clip0_53_7028">
<rect width="16" height="16" fill="white" transform="translate(0 0.5)"/>
</clipPath>
</defs>
</svg>
