<svg width="24" height="24" viewBox="0 0 24 24" fill="none" xmlns="http://www.w3.org/2000/svg">
<path d="M3.35626 0.0703116C2.93908 0.220312 2.55939 0.698437 2.50783 1.14375C2.49376 1.275 2.48439 6.25312 2.49376 12.2109L2.50783 23.0391L2.61095 23.2312C2.76564 23.5172 2.93908 23.7047 3.18283 23.85L3.39845 23.9766H12H20.6016L20.8172 23.85C21.061 23.7047 21.2344 23.5172 21.3891 23.2312L21.4922 23.0391L21.5063 14.5641L21.5156 6.08906L21.4031 5.97656C21.2391 5.8125 20.9953 5.81719 20.8641 5.98125L20.7656 6.10781V14.4328C20.7656 22.2656 20.761 22.7672 20.6813 22.9219C20.6391 23.0109 20.5266 23.1234 20.4375 23.1797C20.2781 23.2734 20.2031 23.2734 15.7406 23.2875L11.2031 23.2969V12V0.703124L15.7406 0.712499C20.2031 0.726562 20.2781 0.726562 20.4375 0.820312C20.761 1.0125 20.7656 1.03594 20.7656 2.97656C20.7656 4.87969 20.7656 4.88437 21.0422 4.94531C21.2203 4.98281 21.4594 4.86562 21.4922 4.72031C21.511 4.65937 21.5156 3.79219 21.5063 2.78906C21.4922 1.00781 21.4875 0.956249 21.3891 0.768749C21.2344 0.482812 21.061 0.295312 20.8172 0.149999L20.6016 0.0234365L12.0703 0.0140615C4.89845 0.00468655 3.51095 0.0140615 3.35626 0.0703116ZM10.4531 12V23.3016L7.0922 23.2875C3.80626 23.2734 3.72189 23.2734 3.56251 23.1797C3.47345 23.1234 3.36095 23.0109 3.31876 22.9219C3.23908 22.7672 3.23439 22.1484 3.23439 12.0094C3.23439 0.642187 3.22501 1.07344 3.43595 0.895312C3.66095 0.712499 3.75001 0.707812 7.16251 0.703124H10.4531V12Z" fill="white"/>
<path d="M6.23436 2.69997C5.20311 2.92028 4.32186 3.81091 4.10155 4.85153C3.80155 6.28591 4.60311 7.6406 6.04686 8.13747C6.43593 8.27341 7.32186 8.25935 7.73436 8.11403C8.57343 7.81872 9.21561 7.18591 9.50155 6.37028C9.66093 5.9156 9.69843 5.26872 9.59061 4.81403C9.23905 3.31403 7.74374 2.37185 6.23436 2.69997ZM7.21874 3.42185C7.76249 3.52497 8.33436 3.9281 8.61093 4.39685C8.8828 4.86091 8.97186 5.44685 8.84061 5.92966C8.79374 6.11716 8.6578 6.43591 8.60155 6.50622C8.59686 6.51091 8.45155 6.37966 8.27811 6.2156C7.9828 5.92966 7.96874 5.90622 8.0203 5.78435C8.09999 5.56872 8.08124 5.0906 7.97811 4.8656C7.72968 4.3031 7.10155 4.01716 6.49686 4.1906C5.84061 4.38278 5.47499 5.0906 5.68124 5.77497C5.7328 5.94372 5.72811 5.96247 5.6203 6.03278C5.55936 6.07497 5.41874 6.20622 5.30624 6.32341C5.08124 6.56716 5.08124 6.56716 4.92655 6.15935C4.64061 5.40466 4.82343 4.58903 5.40936 4.0031C5.9203 3.49685 6.54843 3.29528 7.21874 3.42185ZM7.18124 5.04841C7.41093 5.26872 7.34061 5.65778 7.0453 5.80778C6.86249 5.90153 6.70311 5.86872 6.53436 5.69997C6.07499 5.2406 6.71249 4.59841 7.18124 5.04841ZM6.7078 6.5906C6.82968 6.60935 7.03124 6.59528 7.16718 6.56247C7.40155 6.50622 7.41561 6.51091 7.59374 6.63278C7.80936 6.78278 8.03436 7.05935 7.99218 7.12497C7.94061 7.20466 7.53749 7.39216 7.2703 7.4531C6.80624 7.56091 6.06561 7.42497 5.75624 7.17185L5.64843 7.08278L5.94374 6.79685C6.19686 6.54841 6.2578 6.51091 6.36561 6.53435C6.43593 6.54841 6.59061 6.57653 6.7078 6.5906Z" fill="white"/>
<path d="M4.47656 10.8938C4.30313 10.9734 4.14844 11.1375 4.08281 11.3109C4.05469 11.3859 4.03125 11.7422 4.03125 12.1031C4.03125 12.8766 4.09688 13.0875 4.39688 13.275L4.57031 13.3828H6.84375C9.03281 13.3828 9.12188 13.3781 9.27656 13.2891C9.60469 13.0922 9.63281 13.0219 9.64688 12.15C9.66094 11.3953 9.65625 11.3625 9.55313 11.2078C9.49219 11.1188 9.38438 11.0016 9.31406 10.95C9.18281 10.8516 9.13125 10.8516 6.9 10.8422C5.06719 10.8328 4.58906 10.8422 4.47656 10.8938ZM8.90625 12.1172V12.6563H6.84375H4.78125V12.1172V11.5781H6.84375H8.90625V12.1172Z" fill="white"/>
<path d="M4.61239 14.5734C4.39677 14.6297 4.23271 14.7656 4.12021 14.9859C4.03583 15.1641 4.02646 15.2484 4.04052 15.9094C4.05458 16.5562 4.06396 16.65 4.15302 16.7625C4.34989 17.025 4.47646 17.0859 4.90302 17.1047C5.26864 17.1187 5.31552 17.1094 5.41864 17.0109C5.55458 16.8797 5.56864 16.65 5.44208 16.4953C5.37646 16.4109 5.29677 16.3875 5.06708 16.3687L4.77646 16.35L4.79052 15.825L4.80458 15.3047L6.85771 15.2906L8.90614 15.2812V15.8203V16.3594H7.82802C7.12958 16.3594 6.71239 16.3781 6.63739 16.4109C6.40302 16.5187 6.37021 16.8937 6.57646 17.0391C6.66083 17.0953 6.89989 17.1094 7.90302 17.1094C9.09833 17.1094 9.13114 17.1047 9.28583 17.0016C9.37021 16.9453 9.49208 16.8234 9.54833 16.7391C9.64677 16.5891 9.65614 16.5328 9.65614 15.8578C9.65614 15.0187 9.61396 14.8781 9.31396 14.6812L9.12177 14.5547L6.94208 14.5453C5.74208 14.5406 4.69208 14.5547 4.61239 14.5734Z" fill="white"/>
<path d="M4.47178 18.3468C4.39209 18.3843 4.26553 18.4921 4.19053 18.5906C4.05459 18.764 4.05459 18.7734 4.04053 19.5093C4.02646 20.2078 4.03115 20.2593 4.12959 20.4375C4.19053 20.5453 4.3124 20.6765 4.40615 20.7328C4.57021 20.8359 4.59365 20.8359 6.79678 20.85L9.02334 20.864L9.22959 20.7562C9.60459 20.564 9.63272 20.4937 9.64678 19.6031C9.66084 18.8484 9.65615 18.8156 9.55303 18.6609C9.49209 18.5718 9.38428 18.4546 9.31397 18.4031C9.18272 18.3046 9.13115 18.3046 6.8999 18.2953C5.04834 18.2859 4.58896 18.2953 4.47178 18.3468ZM8.90615 19.5703V20.1093H6.84365H4.78115V19.5703V19.0312H6.84365H8.90615V19.5703Z" fill="white"/>
<path d="M14.0625 3.73125C13.5469 3.86719 13.0547 4.32187 12.8672 4.84219C12.7406 5.18437 12.75 5.74687 12.8859 6.10312C13.0312 6.47812 13.3781 6.84844 13.7719 7.04062C14.0578 7.18125 14.1187 7.19531 14.5312 7.19531C15.0516 7.19531 15.2859 7.11094 15.6 6.81094C15.8391 6.58594 15.8672 6.36562 15.6891 6.19687C15.5437 6.06094 15.2812 6.06094 15.1594 6.19219C15.0422 6.32344 14.7328 6.46875 14.5594 6.46875C14.0016 6.47344 13.5281 5.99531 13.5281 5.4375C13.5281 4.6875 14.3344 4.19062 14.9906 4.53281C15.2672 4.68281 15.4828 4.67344 15.6047 4.51875C15.8672 4.18594 15.5766 3.84844 14.9156 3.70781C14.5969 3.64219 14.3812 3.64687 14.0625 3.73125Z" fill="white"/>
<path d="M16.8187 3.72656C16.575 3.8625 16.5937 3.97031 17.1515 5.57812C17.4656 6.47344 17.7 7.07812 17.7515 7.11562C17.9484 7.25625 18.2109 7.24219 18.3609 7.08281C18.4453 6.99375 19.4062 4.16719 19.4062 4.0125C19.4062 3.96562 19.3406 3.86719 19.2656 3.7875C19.1437 3.67031 19.0968 3.65156 18.9703 3.675C18.8859 3.68906 18.7828 3.74531 18.7406 3.79687C18.6984 3.84844 18.5203 4.31719 18.3468 4.8375L18.0328 5.77969L17.8781 5.33906C17.789 5.09531 17.6437 4.66875 17.55 4.3875C17.3156 3.68906 17.1562 3.54375 16.8187 3.72656Z" fill="white"/>
<path d="M12.5344 9.28125C12.4031 9.33281 12.2812 9.50625 12.2812 9.6375C12.2812 9.69375 12.3234 9.79219 12.3797 9.8625L12.4734 9.98438H15.9609H19.4484L19.5422 9.8625C19.7109 9.65156 19.6359 9.37031 19.3922 9.28125C19.2187 9.225 12.6844 9.22031 12.5344 9.28125Z" fill="white"/>
<path d="M12.5344 11.4375C12.4031 11.4891 12.2812 11.6625 12.2812 11.7937C12.2812 11.85 12.3234 11.9484 12.3797 12.0187L12.4734 12.1406H15.9609H19.4484L19.5422 12.0187C19.6734 11.8547 19.6641 11.7047 19.5281 11.5453L19.4156 11.4141L16.0219 11.4047C14.1609 11.4 12.5859 11.4141 12.5344 11.4375Z" fill="white"/>
<path d="M12.5766 13.5797C12.4453 13.6078 12.2812 13.8094 12.2812 13.9453C12.2812 14.0016 12.3234 14.1047 12.3797 14.175L12.4734 14.2969H14.3156C16.0781 14.2969 16.1625 14.2922 16.2375 14.2078C16.3594 14.0719 16.3547 13.8 16.2281 13.6734C16.125 13.5703 16.1156 13.5703 14.4 13.5656C13.4531 13.5609 12.6328 13.5656 12.5766 13.5797Z" fill="white"/>
<path d="M12.3797 15.8719C12.3234 15.9422 12.2812 16.0453 12.2812 16.1016C12.2812 16.1578 12.3234 16.2609 12.3797 16.3312L12.4734 16.4531H15.9609H19.4484L19.5422 16.3312C19.6687 16.1719 19.6687 16.0312 19.5422 15.8719L19.4484 15.75H15.9609H12.4734L12.3797 15.8719Z" fill="white"/>
<path d="M12.3797 18.0281C12.3234 18.0984 12.2812 18.2016 12.2812 18.2578C12.2812 18.3141 12.3234 18.4172 12.3797 18.4875L12.4734 18.6094H15.9609H19.4484L19.5422 18.4875C19.6687 18.3281 19.6687 18.1875 19.5422 18.0281L19.4484 17.9062H15.9609H12.4734L12.3797 18.0281Z" fill="white"/>
<path d="M12.3984 20.2266C12.2156 20.4047 12.2718 20.7047 12.5015 20.8078C12.5765 20.8406 13.1718 20.8594 14.3343 20.8594C16.2046 20.8594 16.214 20.8594 16.3125 20.5969C16.364 20.4609 16.289 20.2172 16.1718 20.1562C16.1203 20.1281 15.375 20.1094 14.2968 20.1094H12.5109L12.3984 20.2266Z" fill="white"/>
</svg>
