<svg width="24" height="24" viewBox="0 0 24 24" fill="none" xmlns="http://www.w3.org/2000/svg">
<path d="M7.76719 1.64063C7.28437 1.725 6.85312 2.0625 6.64219 2.52188C6.54844 2.72344 6.53906 2.83594 6.525 3.80625L6.50625 4.87031L3.75937 4.88438C1.07344 4.89844 1.00312 4.90313 0.792187 4.99688C0.492187 5.1375 0.257812 5.35781 0.121875 5.63438L0 5.87813V8.87344V11.8641L0.117187 12.1172C0.257812 12.4078 0.473437 12.6141 0.825 12.7875L1.07812 12.9094L1.0875 17.1094L1.10156 21.3047L1.21406 21.5344C1.36875 21.8438 1.64062 22.1063 1.96406 22.2609L2.22656 22.3828H12H21.7734L22.0359 22.2609C22.3594 22.1063 22.6312 21.8438 22.7859 21.5344L22.8984 21.3047L22.9125 17.1094L22.9219 12.9141L23.1937 12.7734C23.3391 12.6984 23.55 12.5438 23.6578 12.4313C24.0141 12.0703 24.0047 12.1641 23.9906 8.78438L23.9766 5.78906L23.85 5.57344C23.6953 5.31094 23.4937 5.13281 23.2031 4.99688C22.9969 4.90313 22.9172 4.89844 20.2406 4.88438L17.4937 4.87031L17.475 3.80625C17.4609 2.75156 17.4609 2.74219 17.3297 2.475C17.1703 2.15625 16.8187 1.82344 16.5094 1.70625C16.3031 1.62188 16.0359 1.61719 12.1406 1.6125C9.85781 1.60781 7.89375 1.62188 7.76719 1.64063ZM16.2234 2.8875C16.3312 3.00469 16.3359 3.02813 16.35 3.94219L16.3641 4.875H12H7.63594L7.65 3.94219C7.66406 3.02813 7.66875 3.00469 7.77656 2.8875L7.88906 2.76563H12H16.1109L16.2234 2.8875ZM22.7344 6.06094L22.8516 6.12188V8.88281V11.6484L20.9297 12.6188L19.0078 13.5891H18.2531L17.4984 13.5938L17.475 13.125C17.4562 12.7219 17.4328 12.6188 17.3016 12.3563C17.1281 12.0047 16.875 11.7563 16.5047 11.5828C16.2797 11.4797 16.1812 11.4609 15.7969 11.4609C15.3797 11.4609 15.3328 11.475 15.0562 11.6203C14.4703 11.9391 14.2031 12.3938 14.1656 13.1344L14.1422 13.5938H12H9.85781L9.83437 13.1344C9.79687 12.3797 9.51562 11.9109 8.91562 11.6156C8.63437 11.475 8.56406 11.4609 8.17969 11.4609C7.82344 11.4609 7.72031 11.4797 7.49531 11.5828C7.125 11.7563 6.87187 12.0047 6.69844 12.3563C6.56719 12.6188 6.54375 12.7219 6.525 13.125L6.50156 13.5938L5.74687 13.5891H4.99219L3.07031 12.6188L1.14844 11.6484V8.88281V6.12188L1.26562 6.06094C1.35937 6.01406 3.53437 6 12 6C20.4656 6 22.6406 6.01406 22.7344 6.06094ZM8.42812 12.6563C8.69531 12.8203 8.71875 12.9469 8.71875 14.1797C8.71875 15.3563 8.69531 15.4922 8.48437 15.6797C8.41406 15.7406 8.31562 15.7734 8.17969 15.7734C7.93594 15.7734 7.75781 15.6328 7.6875 15.3797C7.62187 15.1359 7.63125 13.1438 7.70156 12.9375C7.7625 12.7641 8.01562 12.5625 8.175 12.5625C8.23125 12.5625 8.34375 12.6047 8.42812 12.6563ZM16.0828 12.6703C16.1719 12.7313 16.2656 12.8484 16.2984 12.9375C16.3687 13.1438 16.3781 15.1359 16.3125 15.3797C16.2422 15.6328 16.0641 15.7734 15.8203 15.7734C15.5766 15.7734 15.3984 15.6328 15.3234 15.3797C15.2953 15.2766 15.2812 14.7797 15.2906 14.0766C15.3047 13.0125 15.3094 12.9375 15.4031 12.8109C15.6 12.5484 15.8297 12.5016 16.0828 12.6703ZM3.49687 14.1188L4.74375 14.7422L5.625 14.7609L6.50156 14.775L6.525 15.2297C6.5625 15.9656 6.82969 16.4203 7.41562 16.7391C7.69687 16.8891 7.73437 16.8984 8.17969 16.8984C8.57344 16.8984 8.68125 16.8797 8.86875 16.7906C9.21562 16.6172 9.49687 16.3406 9.66562 15.9984C9.79687 15.7266 9.82031 15.6328 9.83437 15.225L9.85312 14.7656H12H14.1469L14.1656 15.2203C14.1797 15.5906 14.2078 15.7313 14.3062 15.9469C14.4703 16.2984 14.7469 16.5938 15.0797 16.7625C15.3281 16.8844 15.3937 16.8984 15.8203 16.8984C16.2656 16.8984 16.3031 16.8891 16.5844 16.7391C17.1703 16.4203 17.4375 15.9656 17.475 15.2297L17.4984 14.775L18.375 14.7609L19.2562 14.7422L20.5031 14.1188C21.1922 13.7813 21.7641 13.5 21.7734 13.5C21.7875 13.5 21.7969 15.1875 21.7969 17.25V21.0047L21.6797 21.1172L21.5672 21.2344H12H2.43281L2.32031 21.1172L2.20312 21.0047V17.25C2.20312 15.1875 2.2125 13.5 2.22656 13.5C2.23594 13.5 2.80781 13.7813 3.49687 14.1188Z" fill="white"/>
</svg>
