<svg width="16" height="16" viewBox="0 0 16 16" fill="none" xmlns="http://www.w3.org/2000/svg">
<g clip-path="url(#clip0_4615_55231)">
<path d="M0.5 5.85C0.5 9.85 0.5375 11.2375 0.65 11.35C0.7625 11.4625 1.6 11.5 3.65 11.5C6.4125 11.5 6.5 11.4875 6.5 11.25C6.5 11.05 6.4125 11 6.125 11H5.75V8.4C5.75 6.55 5.7875 5.7625 5.9 5.65C6.1 5.45 6.6875 5.4625 6.85 5.6625C6.925 5.75 7.0125 6.4375 7.025 7.2C7.05 8.3125 7.1 8.5625 7.25 8.5625C7.4 8.5625 7.4375 8.2875 7.475 6.95C7.5 5.875 7.4625 5.2875 7.3625 5.175C7.175 4.95 5.6125 4.9375 5.4 5.15C5.2875 5.2625 5.25 6.1 5.25 8.15V11H4.75H4.25V8.9C4.25 7.4375 4.2 6.75 4.1 6.65C3.9 6.45 2.35 6.45 2.15 6.65C2.05 6.75 2 7.4375 2 8.9V11H1.65C1.4625 11 1.2375 10.9375 1.15 10.85C1.0375 10.7375 1 9.4 1 5.6C1 0.5875 1 0.5 0.75 0.5C0.5 0.5 0.5 0.5875 0.5 5.85ZM3.6 7.15C3.7 7.25 3.75 7.875 3.75 9.15V11H3.125H2.5V9.15C2.5 7.875 2.55 7.25 2.65 7.15C2.8375 6.9625 3.4125 6.9625 3.6 7.15Z" fill="#016DEA"/>
<path d="M7.75 0.750004C7.75 0.962503 7.8375 1 8.275 1H8.8125L7.6625 2.15L6.5 3.3125L5.8375 2.65C5.475 2.3 5.1 2 5 2C4.7375 2 2 4.775 2 5.0375C2 5.5 2.4875 5.2 3.7125 3.975L5 2.7L5.6625 3.35C6.025 3.7 6.4 4 6.5 4C6.6 4 7.2625 3.425 7.9625 2.725L9.25 1.4375V1.975C9.25 2.4125 9.2875 2.5 9.5 2.5C9.725 2.5 9.75 2.4125 9.75 1.5V0.500004H8.75C7.8375 0.500004 7.75 0.525004 7.75 0.750004Z" fill="#016DEA"/>
<path d="M8.65 3.65C8.55 3.75 8.5 4.35 8.5 5.525C8.5 7.1625 8.5125 7.25 8.75 7.25C8.9875 7.25 9 7.1625 9 5.775C9 4.1875 9.0625 4 9.625 4C10.1625 4 10.25 4.2 10.25 5.4625C10.25 6.5375 10.2625 6.625 10.5 6.625C10.7375 6.625 10.75 6.5375 10.75 5.2125C10.75 4.275 10.7 3.75 10.6 3.65C10.5125 3.5625 10.1 3.5 9.625 3.5C9.15 3.5 8.7375 3.5625 8.65 3.65Z" fill="#016DEA"/>
<path d="M9.43812 7.35C8.46312 7.825 7.81312 8.5 7.33812 9.475C7.00062 10.2125 6.97562 10.3375 7.02562 11.4125C7.06312 12.3375 7.13812 12.6875 7.40062 13.1875C7.81312 13.975 8.51312 14.6875 9.31312 15.1C9.87562 15.4 10.0756 15.4375 11.2506 15.4375C12.3881 15.4375 12.6381 15.4 13.1256 15.1375C13.8881 14.7375 14.7006 13.9375 15.1006 13.1875C15.4006 12.625 15.4381 12.4375 15.4381 11.25C15.4381 9.7375 15.2506 9.225 14.3256 8.275C13.4881 7.3875 12.7756 7.0875 11.3756 7.0375C10.2631 6.9875 10.1381 7.0125 9.43812 7.35ZM12.5631 7.8375C13.4131 8.1125 14.3881 9.0875 14.6881 9.9875C14.9631 10.8125 14.9006 12.1 14.5631 12.8125C14.2506 13.45 13.4506 14.25 12.8131 14.5625C12.1006 14.9 10.8131 14.9625 9.98812 14.6875C9.11312 14.3875 8.12562 13.425 7.83812 12.575C7.07562 10.325 8.36312 8.0625 10.6381 7.6375C11.2631 7.525 11.6756 7.5625 12.5631 7.8375Z" fill="#016DEA"/>
<path d="M9.8125 8.3C8.65 8.85 8.0125 9.875 8 11.175C8 12.2875 8.2125 12.85 8.9375 13.5625C9.65 14.2875 10.2125 14.5 11.325 14.5C13.175 14.4875 14.5 13.1375 14.5 11.25C14.4875 9.875 13.875 8.8625 12.6875 8.3C11.825 7.8875 10.675 7.8875 9.8125 8.3ZM12.4875 8.9125C12.7875 9.0625 13.2 9.4375 13.425 9.7375C13.775 10.225 13.8125 10.35 13.8125 11.25C13.8125 12.1375 13.775 12.275 13.4375 12.7625C12.875 13.5625 12.1375 13.9 11.1 13.85C10.4 13.8125 10.175 13.7375 9.725 13.4125C9.0125 12.9 8.625 12.15 8.625 11.2875C8.625 10.925 8.7 10.4375 8.8 10.2125C9 9.7 9.6875 9.0125 10.1875 8.8C10.8 8.5375 11.875 8.5875 12.4875 8.9125Z" fill="#016DEA"/>
<path d="M11 9.25C11 9.3875 10.95 9.5 10.875 9.5C10.575 9.5 10.25 10.0125 10.25 10.475C10.25 11.0875 10.4375 11.325 11.0625 11.525C11.475 11.6625 11.5625 11.75 11.5625 12C11.5625 12.45 11.05 12.5125 10.85 12.075C10.65 11.6125 10.25 11.6375 10.25 12.125C10.25 12.4875 10.6125 13 10.875 13C10.95 13 11 13.1125 11 13.25C11 13.4125 11.0875 13.5 11.25 13.5C11.4125 13.5 11.5 13.4125 11.5 13.25C11.5 13.1125 11.5625 13 11.625 13C11.925 13 12.25 12.4875 12.25 12.025C12.25 11.4125 12.0625 11.175 11.4375 10.975C11.025 10.8375 10.9375 10.75 10.9375 10.5C10.9375 10.05 11.45 9.9875 11.65 10.425C11.85 10.8875 12.25 10.8625 12.25 10.375C12.25 10.0125 11.8875 9.5 11.625 9.5C11.5625 9.5 11.5 9.3875 11.5 9.25C11.5 9.0875 11.4125 9 11.25 9C11.0875 9 11 9.0875 11 9.25Z" fill="#016DEA"/>
</g>
<defs>
<clipPath id="clip0_4615_55231">
<rect width="16" height="16" fill="white"/>
</clipPath>
</defs>
</svg>
