<svg width="24" height="24" viewBox="0 0 24 24" fill="none" xmlns="http://www.w3.org/2000/svg">
<g clip-path="url(#clip0_8381_140616)">
<path d="M10.7607 0.14526C10.5826 0.220261 10.2264 0.37026 9.96856 0.478073L9.50449 0.670261L9.53262 1.10151L9.55606 1.53276L9.33574 1.75307L9.11543 1.9687H8.66543H8.21543L8.15918 2.10932L8.10293 2.24995H6.67793H5.25293V2.62495V2.99995H6.51856C7.21699 2.99995 7.78418 3.00932 7.78418 3.0187C7.78418 3.02807 7.74199 3.13589 7.69043 3.25776C7.63887 3.37964 7.59668 3.50151 7.59668 3.52964C7.59668 3.56245 7.74199 3.71245 7.92012 3.86714L8.24824 4.14839V4.43432L8.25293 4.72495L7.92481 5.01557C7.74668 5.17495 7.59668 5.32964 7.59668 5.35776C7.59668 5.38589 7.73731 5.7562 7.91543 6.17807L8.22949 6.95151L8.67012 6.9187L9.11543 6.88589L9.33574 7.1062L9.55606 7.32182L9.53262 7.77651L9.50918 8.22651L10.2826 8.54057C10.7092 8.7187 11.0748 8.85932 11.0982 8.85932C11.1217 8.85932 11.2717 8.70932 11.4357 8.5312L11.7264 8.20307L12.017 8.20776H12.3076L12.5889 8.53589C12.7436 8.71401 12.8936 8.85932 12.917 8.85932C12.9451 8.85932 13.3061 8.7187 13.7279 8.54526L14.4873 8.2312V7.7812V7.3312L14.7123 7.11089L14.9373 6.89057L15.3592 6.9187L15.7811 6.95151L16.1139 6.15932L16.4467 5.36714L16.1232 5.05776L15.7998 4.74839V4.4437V4.13432L16.1279 3.83432L16.4514 3.53901L16.3436 3.2812L16.2311 3.02339L18.7436 3.00932C21.5561 2.99995 21.5467 2.99526 21.8607 3.3187C22.1982 3.66557 22.1748 3.14526 22.1748 10.1343V16.4343L21.7201 16.4296C21.467 16.4296 21.1717 16.4484 21.0639 16.4671L20.8623 16.5093V14.5593V12.6093H18.3779H15.8936V15.3V17.9859L15.6967 17.8875C15.5373 17.8078 15.3873 17.7843 14.9936 17.775L14.4873 17.7562V16.3312V14.9062H12.0029H9.51855V15.2343C9.51855 15.4125 9.51387 15.5625 9.50918 15.5625C9.49981 15.5625 9.33105 15.5296 9.12949 15.4921C8.92793 15.4546 8.62324 15.4218 8.45918 15.4218H8.15918V14.0156V12.6093H5.6748H3.19043V14.5312V16.4531H2.51074H1.83105V10.1906C1.83105 5.39057 1.84512 3.8812 1.8873 3.7312C1.9623 3.47807 2.30918 3.1312 2.5623 3.0562C2.68418 3.0187 3.0873 2.99995 3.67793 2.99995H4.59668V2.62026V2.24057L3.53262 2.25932C2.55293 2.27807 2.44043 2.28745 2.19668 2.38589C1.81699 2.5312 1.45137 2.88276 1.25918 3.27182L1.10449 3.58589L1.09043 10.0171L1.08105 16.4531H0.541992H0.00292969V16.8281V17.2031L2.1498 17.1937L4.29199 17.1796L4.7373 16.9734C5.2998 16.7156 6.13418 16.4437 6.78574 16.3031C7.21231 16.214 7.42793 16.1953 8.13574 16.1953C8.92324 16.2 9.00293 16.2093 9.35449 16.3265C10.2264 16.6171 10.6998 17.0718 11.2107 18.1031L11.4123 18.5109L13.3904 18.525L15.3732 18.539L15.5186 18.6796C15.7154 18.8671 15.7998 19.0359 15.7998 19.2515C15.7998 19.4437 15.6686 19.6968 15.5045 19.8328C15.2982 20.0015 15.0592 20.0156 12.6404 20.0156H10.2686V20.3953V20.7703L12.8373 20.7562L15.4014 20.7421L15.6686 20.6156C15.9732 20.475 16.2639 20.1937 16.4045 19.9078C16.4982 19.7203 16.5732 19.6734 18.7576 18.4828C21.0264 17.2453 21.2279 17.1562 21.6779 17.1562C21.9686 17.1562 22.4467 17.3156 22.7045 17.4984L22.9248 17.6531L21.1529 18.764C20.1826 19.3734 19.3482 19.8984 19.3061 19.9312C19.2311 19.9875 19.2404 20.0156 19.4232 20.3062L19.6248 20.6203L21.8139 19.2515C23.0186 18.4968 24.0029 17.8593 24.0029 17.8312C24.0029 17.714 23.5061 17.1375 23.2389 16.9359L22.9482 16.725L22.9248 10.1531L22.9014 3.58589L22.7654 3.29526C22.6201 2.97182 22.2639 2.60151 21.9592 2.44682C21.5936 2.26401 21.3779 2.24995 18.5889 2.24995H15.9029L15.8514 2.10932L15.8045 1.9687H15.3451H14.8811L14.6842 1.76714L14.492 1.57026L14.4779 1.1062L14.4639 0.646824L13.6904 0.323385L12.917 -5.14984e-05L12.6123 0.328074L12.3076 0.656199H12.0076H11.7076L11.3982 0.332762L11.0889 0.00463486L10.7607 0.14526ZM12.0123 1.4062H12.6639L12.8889 1.16245L13.1139 0.918699L13.4139 1.03589L13.7139 1.15307L13.6998 1.50464L13.6857 1.85151L14.1357 2.29682L14.5857 2.74214H14.9373H15.2936L15.4154 3.04214L15.5373 3.34682L15.2936 3.55776L15.0498 3.77339V4.42964V5.0812L15.2889 5.32495L15.5326 5.57339L15.4061 5.8687L15.2795 6.16401L14.9467 6.14995L14.6139 6.1312L14.1498 6.59526L13.6857 7.05464L13.7139 7.38276L13.742 7.71557L13.4279 7.84682L13.1092 7.97339L12.8795 7.71557L12.6498 7.45307H12.0123H11.3701L11.1357 7.71089L10.9014 7.97339L10.592 7.84682L10.2826 7.72495L10.3061 7.36401L10.3248 7.00776L9.87949 6.57182L9.43887 6.1312L9.08262 6.14995L8.72637 6.16401L8.60449 5.85932L8.48262 5.55464L8.74512 5.31089L9.00293 5.06714V4.43432V3.8062L8.74043 3.57651L8.48262 3.34682L8.60918 3.02807L8.73574 2.70464L9.07324 2.73276L9.40606 2.76089L9.86543 2.30151L10.3248 1.83745L10.3107 1.50464L10.292 1.16714L10.592 1.04057L10.8967 0.914011L11.1264 1.15776L11.3607 1.4062H12.0123ZM7.40918 14.3906V15.4218L7.30606 15.4406C7.24512 15.45 6.95449 15.5062 6.65918 15.5578C6.05918 15.6703 4.94355 16.0265 4.38574 16.2843C4.18418 16.3781 4.00137 16.4531 3.98262 16.4531C3.95918 16.4531 3.94043 15.7546 3.94043 14.9062V13.3593H5.6748H7.40918V14.3906ZM20.1029 15.1218L20.0889 16.889L18.3826 17.8171C17.4451 18.3328 16.667 18.75 16.6576 18.75C16.6529 18.75 16.6436 17.5359 16.6436 16.0546V13.3593H18.3779H20.1123L20.1029 15.1218ZM13.7373 16.7109V17.7656L12.8186 17.7562L11.8998 17.7421L11.6326 17.2734C11.3467 16.7625 10.9623 16.3359 10.5311 16.05C10.3342 15.9234 10.2686 15.8484 10.2686 15.7687V15.6562H12.0029H13.7373V16.7109Z" fill="white"/>
<path d="M11.3973 2.76567C10.9473 2.92974 10.591 3.26255 10.3754 3.73599C10.202 4.10161 10.1926 4.71099 10.3567 5.1188C10.9004 6.51567 12.9676 6.5813 13.6051 5.22661C13.9801 4.42036 13.727 3.44536 13.0145 2.97192C12.8785 2.88286 12.6629 2.77505 12.541 2.73755C12.2223 2.6438 11.702 2.65786 11.3973 2.76567ZM12.4239 3.52036C12.7051 3.64692 12.7942 3.7313 12.9207 4.00786C13.1317 4.44849 13.0332 4.8938 12.6582 5.21724C11.7723 5.97661 10.5254 4.87036 11.1535 3.8813C11.4114 3.47349 11.9692 3.31411 12.4239 3.52036Z" fill="white"/>
<path d="M4.12793 4.92188V5.29688H4.50293H4.87793V4.92188V4.54688H4.50293H4.12793V4.92188Z" fill="white"/>
<path d="M5.53418 4.92188V5.29688H5.90918H6.28418V4.92188V4.54688H5.90918H5.53418V4.92188Z" fill="white"/>
<path d="M17.7686 4.92188V5.29688H18.1436H18.5186V4.92188V4.54688H18.1436H17.7686V4.92188Z" fill="white"/>
<path d="M19.1748 4.92188V5.29688H19.5498H19.9248V4.92188V4.54688H19.5498H19.1748V4.92188Z" fill="white"/>
<path d="M3.19043 10.1719V11.9531H5.6748H8.15918V10.1719V8.39062H5.6748H3.19043V10.1719ZM7.40918 10.1719V11.2031H5.6748H3.94043V10.1719V9.14062H5.6748H7.40918V10.1719Z" fill="white"/>
<path d="M15.8936 10.1719V11.9531H18.3779H20.8623V10.1719V8.39062H18.3779H15.8936V10.1719ZM20.1123 10.1719V11.2031H18.3779H16.6436V10.1719V9.14062H18.3779H20.1123V10.1719Z" fill="white"/>
<path d="M9.51855 11.8594V14.25H12.0029H14.4873V11.8594V9.46875H12.0029H9.51855V11.8594ZM13.7373 11.8594V13.5H12.0029H10.2686V11.8594V10.2188H12.0029H13.7373V11.8594Z" fill="white"/>
<path d="M16.5357 21.6562C15.3826 22.3781 14.3373 23.0109 14.2061 23.0624C13.817 23.2171 13.3764 23.2687 13.0154 23.2077C12.842 23.1749 10.9904 22.6031 8.90449 21.9374L5.1123 20.7187H2.55762H0.00292969V21.0937V21.4687H2.48262H4.96231L8.76855 22.6874C13.0295 24.0515 13.1045 24.0702 13.8311 23.939C14.0514 23.9015 14.3514 23.8218 14.4967 23.7702C14.7779 23.6624 18.9967 21.0468 19.0248 20.9577C19.0436 20.9015 18.7107 20.3437 18.6592 20.3437C18.6451 20.3437 17.6889 20.9343 16.5357 21.6562Z" fill="white"/>
</g>
<defs>
<clipPath id="clip0_8381_140616">
<rect width="24" height="24" fill="white"/>
</clipPath>
</defs>
</svg>
