<svg width="16" height="16" viewBox="0 0 16 16" fill="none" xmlns="http://www.w3.org/2000/svg">
<g clip-path="url(#clip0_6203_182220)">
<path d="M3.6 0.0656281C3.52188 0.103127 3.42813 0.187503 3.38125 0.259377C3.30313 0.378128 3.29688 0.409378 3.2875 0.815628L3.27813 1.24375L2.63125 1.25625C2.03438 1.26875 1.96563 1.27813 1.73438 1.35313C1.325 1.49063 1.05 1.6625 0.73125 1.98125C0.415625 2.29688 0.24375 2.57188 0.1 2.98438L0.015625 3.23438V8.625V14.0156L0.1 14.2656C0.24375 14.6781 0.415625 14.9531 0.73125 15.2688C1.04688 15.5844 1.32188 15.7563 1.73438 15.9L1.98438 15.9844L4.71563 15.9938L7.44375 16.0031L7.58438 15.9344C7.66875 15.8938 7.75625 15.8188 7.80625 15.7406C7.87813 15.6313 7.89063 15.5813 7.89063 15.375C7.89063 15.1688 7.87813 15.1188 7.80625 15.0094C7.75625 14.9344 7.66875 14.8563 7.5875 14.8156C7.45 14.75 7.43125 14.75 5.0125 14.75C3.55938 14.75 2.49063 14.7375 2.35938 14.7188C1.79063 14.6375 1.3625 14.2094 1.28125 13.6406C1.24063 13.3438 1.24063 3.90625 1.28125 3.60938C1.32188 3.325 1.44063 3.08438 1.6375 2.8875C1.93438 2.59375 2.24063 2.50313 2.93125 2.5H3.28125V2.89688C3.28125 3.36563 3.33125 3.5125 3.54063 3.65C3.65 3.72188 3.7 3.73438 3.90625 3.73438C4.1125 3.73438 4.1625 3.72188 4.27188 3.65C4.48125 3.5125 4.53125 3.36563 4.53125 2.89688V2.5H5.9375H7.34375V2.89688C7.34375 3.36563 7.39375 3.5125 7.60313 3.65C7.7125 3.72188 7.7625 3.73438 7.96875 3.73438C8.175 3.73438 8.225 3.72188 8.33438 3.65C8.54375 3.5125 8.59375 3.36563 8.59375 2.89688V2.5H10.0156H11.4375V2.89688C11.4375 3.36563 11.4875 3.5125 11.6969 3.65C11.8063 3.72188 11.8563 3.73438 12.0625 3.73438C12.2688 3.73438 12.3188 3.72188 12.4281 3.65C12.6375 3.5125 12.6875 3.36563 12.6875 2.89688V2.5H13.0563C13.7594 2.50313 14.0656 2.59375 14.3625 2.8875C14.5594 3.08438 14.6781 3.325 14.7188 3.60938C14.7344 3.73438 14.75 4.60625 14.75 5.65313C14.75 7.45 14.75 7.48125 14.8156 7.61875C14.8563 7.7 14.9344 7.7875 15.0094 7.8375C15.1188 7.90938 15.1688 7.92188 15.375 7.92188C15.5813 7.92188 15.6313 7.90938 15.7406 7.8375C15.8188 7.7875 15.8938 7.7 15.9344 7.61563C16.0031 7.475 16.0031 7.47188 15.9938 5.35625L15.9844 3.23438L15.9 2.98438C15.7563 2.57188 15.5844 2.29688 15.2688 1.98125C14.95 1.6625 14.675 1.49063 14.2656 1.35313C14.0344 1.275 13.9688 1.26875 13.3531 1.25625L12.6875 1.24375V0.850003C12.6875 0.384377 12.6375 0.237503 12.4281 0.100003C12.3188 0.0281277 12.2688 0.0156279 12.0625 0.0156279C11.8563 0.0156279 11.8063 0.0281277 11.6969 0.100003C11.4875 0.237503 11.4375 0.384377 11.4375 0.853127V1.25H10.0156H8.59375V0.853127C8.59375 0.384377 8.54375 0.237503 8.33438 0.100003C8.225 0.0281277 8.175 0.0156279 7.96875 0.0156279C7.7625 0.0156279 7.7125 0.0281277 7.60313 0.100003C7.39375 0.237503 7.34375 0.384377 7.34375 0.853127V1.25H5.9375H4.53125V0.853127C4.53125 0.384377 4.48125 0.237503 4.27188 0.100003C4.09688 -0.0156231 3.79063 -0.0312481 3.6 0.0656281Z" fill="#016DEA"/>
<path d="M3.59961 6.00311C3.40586 6.09999 3.30274 6.27186 3.28711 6.51874C3.26211 6.90624 3.47774 7.15624 3.86211 7.18124C4.24961 7.20624 4.49961 6.99061 4.52461 6.60624C4.54024 6.35311 4.45586 6.15936 4.27149 6.03749C4.09649 5.92186 3.79024 5.90624 3.59961 6.00311Z" fill="#016DEA"/>
<path d="M6.31836 6.00311C6.12461 6.09999 6.02149 6.27186 6.00586 6.51874C5.98086 6.90624 6.19649 7.15624 6.58086 7.18124C6.96836 7.20624 7.21836 6.99061 7.24336 6.60624C7.25899 6.35311 7.17461 6.15936 6.99024 6.03749C6.81524 5.92186 6.50899 5.90624 6.31836 6.00311Z" fill="#016DEA"/>
<path d="M9.03711 6.00311C8.84336 6.09999 8.74024 6.27186 8.72461 6.51874C8.69961 6.90624 8.91524 7.15624 9.29961 7.18124C9.68711 7.20624 9.93711 6.99061 9.96211 6.60624C9.97774 6.35311 9.89336 6.15936 9.70899 6.03749C9.53399 5.92186 9.22774 5.90624 9.03711 6.00311Z" fill="#016DEA"/>
<path d="M11.7559 6.00311C11.5621 6.09999 11.459 6.27186 11.4434 6.51874C11.4184 6.90624 11.634 7.15624 12.0184 7.18124C12.4059 7.20624 12.6559 6.99061 12.6809 6.60624C12.6965 6.35311 12.6121 6.15936 12.4277 6.03749C12.2527 5.92186 11.9465 5.90624 11.7559 6.00311Z" fill="#016DEA"/>
<path d="M11.5217 8.48437C10.7561 8.62812 10.0404 9.01875 9.49355 9.59062C9.03105 10.0687 8.71543 10.6281 8.5373 11.2812C8.4623 11.5562 8.45605 11.6281 8.45605 12.2187C8.45605 12.8094 8.4623 12.8812 8.5373 13.1562C8.7248 13.8437 9.04043 14.3906 9.54355 14.8937C10.0467 15.3969 10.5936 15.7125 11.2811 15.9C11.5561 15.975 11.6279 15.9812 12.2186 15.9812C12.8092 15.9812 12.8811 15.975 13.1561 15.9C13.8436 15.7125 14.3904 15.3969 14.8936 14.8937C15.3967 14.3906 15.7123 13.8437 15.8998 13.1562C15.9748 12.8812 15.9811 12.8094 15.9811 12.2187C15.9811 11.6281 15.9748 11.5562 15.8998 11.2812C15.7123 10.5937 15.3967 10.0469 14.8936 9.54375C14.3873 9.04062 13.8342 8.71875 13.1561 8.54062C12.9061 8.475 12.7748 8.45937 12.3123 8.45C11.9217 8.44375 11.6967 8.45312 11.5217 8.48437ZM12.7561 9.76875C13.5436 9.95 14.2123 10.5031 14.5248 11.2375C14.7873 11.8594 14.7873 12.5781 14.5248 13.2C14.2123 13.9344 13.5436 14.4875 12.7561 14.6687C12.4686 14.7344 11.9686 14.7344 11.6811 14.6687C10.7279 14.4531 9.98418 13.7094 9.76855 12.7562C9.70293 12.4687 9.70293 11.9687 9.76855 11.6812C9.98418 10.7406 10.6967 10.0156 11.6404 9.77812C11.9279 9.70625 12.4592 9.70312 12.7561 9.76875Z" fill="#016DEA"/>
<path d="M11.9121 10.3781C11.834 10.4156 11.7402 10.5 11.6934 10.5719L11.609 10.6969L11.5996 11.5406C11.5902 12.3469 11.5934 12.3844 11.659 12.5219C11.6996 12.6063 11.7746 12.6938 11.8527 12.7438C11.9777 12.8281 11.984 12.8281 12.6309 12.8375C13.2496 12.8469 13.2934 12.8438 13.4246 12.7781C13.5121 12.7375 13.5996 12.6625 13.6496 12.5844C13.7215 12.475 13.734 12.425 13.734 12.2188C13.734 12.0125 13.7215 11.9625 13.6496 11.8531C13.5309 11.675 13.3527 11.5938 13.0684 11.5938H12.8434V11.1813C12.8434 10.6938 12.7965 10.5531 12.584 10.4125C12.409 10.2969 12.1027 10.2813 11.9121 10.3781Z" fill="#016DEA"/>
<path d="M3.59961 8.72188C3.40586 8.81875 3.30274 8.99063 3.28711 9.2375C3.26211 9.625 3.47774 9.875 3.86211 9.9C4.24961 9.925 4.49961 9.70938 4.52461 9.325C4.54024 9.07188 4.45586 8.87813 4.27149 8.75625C4.09649 8.64063 3.79024 8.625 3.59961 8.72188Z" fill="#016DEA"/>
<path d="M6.31836 8.72188C6.12461 8.81875 6.02149 8.99063 6.00586 9.2375C5.98086 9.625 6.19649 9.875 6.58086 9.9C6.96836 9.925 7.21836 9.70938 7.24336 9.325C7.25899 9.07188 7.17461 8.87813 6.99024 8.75625C6.81524 8.64063 6.50899 8.625 6.31836 8.72188Z" fill="#016DEA"/>
<path d="M3.59961 11.4406C3.40586 11.5375 3.30274 11.7094 3.28711 11.9563C3.26211 12.3438 3.47774 12.5938 3.86211 12.6188C4.24961 12.6438 4.49961 12.4281 4.52461 12.0438C4.54024 11.7906 4.45586 11.5969 4.27149 11.475C4.09649 11.3594 3.79024 11.3438 3.59961 11.4406Z" fill="#016DEA"/>
<path d="M6.31836 11.4406C6.12461 11.5375 6.02149 11.7094 6.00586 11.9563C5.98086 12.3438 6.19649 12.5938 6.58086 12.6188C6.96836 12.6438 7.21836 12.4281 7.24336 12.0438C7.25899 11.7906 7.17461 11.5969 6.99024 11.475C6.81524 11.3594 6.50899 11.3438 6.31836 11.4406Z" fill="#016DEA"/>
</g>
<defs>
<clipPath id="clip0_6203_182220">
<rect width="16" height="16" fill="white"/>
</clipPath>
</defs>
</svg>
