<svg width="16" height="16" viewBox="0 0 16 16" fill="none" xmlns="http://www.w3.org/2000/svg">
<g clip-path="url(#clip0_7597_156117)">
<path d="M7.28203 0.818751C6.88828 0.856252 6.31016 0.971877 5.86641 1.10938C4.01641 1.66875 2.44453 2.99688 1.56641 4.74063C1.03516 5.79375 0.800781 6.79375 0.800781 8.01563C0.800781 8.94375 0.928906 9.71563 1.21953 10.5C1.45703 11.15 1.92266 11.9781 2.34141 12.4969C2.42891 12.6063 2.50078 12.7063 2.50078 12.7219C2.50078 12.7625 2.41641 12.7563 2.21953 12.7031C1.98203 12.6406 1.94766 12.6438 1.84141 12.7469C1.76953 12.8219 1.75078 12.8656 1.75078 12.975C1.75078 13.2 1.78828 13.2219 2.72578 13.4688C3.18203 13.5875 3.59453 13.6875 3.64141 13.6875C3.74453 13.6875 3.90703 13.5313 3.90703 13.4313C3.90703 13.3906 3.80703 12.9781 3.68828 12.5156C3.44141 11.5719 3.42266 11.5313 3.18516 11.5313C3.08516 11.5313 3.03828 11.5531 2.96328 11.625C2.86328 11.725 2.86016 11.7594 2.92266 12.0531C2.96328 12.2313 2.86953 12.175 2.66953 11.8969C2.00078 10.9813 1.58516 9.93438 1.43516 8.78125C1.38516 8.40625 1.38828 7.60625 1.43516 7.21875C1.58516 6.04688 2.03828 4.9375 2.74453 4C2.98516 3.68125 3.55391 3.10313 3.87578 2.84375C5.41641 1.61563 7.42266 1.13438 9.34453 1.53438C9.91016 1.65 10.632 1.90938 11.0539 2.14375C11.407 2.34063 11.657 2.25 11.657 1.92813C11.657 1.75 11.4539 1.61563 10.757 1.32813C9.66016 0.878127 8.47578 0.706252 7.28203 0.818751Z" fill="#016DEA"/>
<path d="M12.2826 2.33438C12.192 2.36875 12.1264 2.44688 12.1108 2.54375C12.0983 2.60938 12.167 2.92188 12.3139 3.48438C12.5576 4.42813 12.5795 4.46875 12.817 4.46875C12.9139 4.46875 12.9639 4.44688 13.0358 4.37813C13.1358 4.27813 13.1451 4.22188 13.092 4.0125C13.0295 3.77188 13.0983 3.78125 13.2889 4.0375C14.7951 6.04375 15.0358 8.7 13.917 10.9531C13.067 12.6625 11.4795 13.9406 9.6264 14.4063C8.1389 14.7813 6.6014 14.6344 5.20452 13.9844C4.87015 13.8281 4.7389 13.8125 4.61702 13.9063C4.51077 13.9906 4.48577 14.1219 4.54515 14.2656C4.5889 14.3656 4.62952 14.3938 4.88265 14.5125C5.89515 14.9844 6.85452 15.1969 7.97015 15.2C8.84202 15.2031 9.45765 15.1063 10.267 14.8406C12.6358 14.0625 14.442 12.0969 15.017 9.67188C15.5139 7.575 15.0576 5.3625 13.7764 3.6625C13.6389 3.47813 13.517 3.30938 13.5108 3.2875C13.4889 3.2375 13.5451 3.24063 13.7326 3.29688C13.9639 3.36563 14.0545 3.35625 14.1608 3.25313C14.317 3.09375 14.2733 2.83438 14.0733 2.75625C13.9483 2.70625 12.4264 2.3125 12.3733 2.31563C12.3483 2.31563 12.3076 2.325 12.2826 2.33438Z" fill="#016DEA"/>
<path d="M6.1125 5.26561C4.93437 5.67811 4.28125 5.92186 4.2375 5.96561L4.17188 6.03436L4.18125 7.99374C4.19062 9.80624 4.19687 9.95936 4.24687 10.0312C4.29375 10.0969 4.6125 10.2187 6.09687 10.7406C7.08437 11.0875 7.93437 11.3719 7.98437 11.3719C8.0375 11.375 8.8875 11.0937 9.875 10.7469C11.2562 10.2656 11.6875 10.1031 11.7437 10.0437L11.8125 9.96561V7.99999V6.03436L11.7437 5.95936C11.6875 5.89999 11.2469 5.73436 9.85937 5.25311C8.8625 4.90624 8.01875 4.62499 7.98437 4.62811C7.95 4.62811 7.10937 4.91561 6.1125 5.26561ZM8.4125 5.39686C8.63125 5.47811 8.80937 5.55936 8.80312 5.57499C8.79687 5.59061 8.2375 5.79686 7.55937 6.03436L6.32812 6.46561L5.92187 6.33124C5.68125 6.25311 5.51562 6.18124 5.51562 6.15624C5.51562 6.13436 5.9875 5.95311 6.75 5.68436C7.42812 5.44686 7.99062 5.25311 7.99687 5.24999C8.00312 5.24999 8.19062 5.31561 8.4125 5.39686ZM10.1437 5.98749C10.4594 6.10311 10.5281 6.14061 10.4937 6.17499C10.4812 6.18436 9.91562 6.38749 9.2375 6.62499L8 7.05936L7.67187 6.94686C7.475 6.88124 7.34687 6.82186 7.35312 6.79999C7.3625 6.77499 9.73125 5.88436 9.81562 5.87499C9.825 5.87499 9.975 5.92499 10.1437 5.98749ZM5.32812 6.78124C5.58437 6.86561 5.80312 6.95311 5.81875 6.97499C5.83125 6.99686 5.84375 7.34374 5.84375 7.74374V8.47186L5.92187 8.54686C6.03125 8.65936 6.25312 8.65624 6.35937 8.54374C6.4375 8.45936 6.4375 8.45311 6.4375 7.84061C6.4375 7.49999 6.45 7.21561 6.46562 7.20624C6.4875 7.19374 7.4125 7.48749 7.63437 7.57811C7.68437 7.59999 7.6875 7.70311 7.6875 9.11249C7.6875 10.5 7.68437 10.625 7.63437 10.625C7.59062 10.625 5.14062 9.77499 4.88437 9.66874L4.78125 9.62811V8.12811C4.78125 6.92186 4.79062 6.62499 4.82187 6.62499C4.84375 6.62499 5.07187 6.69374 5.32812 6.78124ZM11.2125 8.13124L11.2031 9.63436L9.89062 10.1C8.2625 10.675 8.34687 10.6469 8.30937 10.5906C8.29375 10.5656 8.28125 9.90624 8.28125 9.08749C8.28125 7.95311 8.29062 7.62186 8.32187 7.60311C8.3875 7.56249 11.1062 6.62811 11.1656 6.62499C11.2156 6.62499 11.2187 6.70936 11.2125 8.13124Z" fill="#016DEA"/>
<path d="M10.0009 8.9875C9.73524 9.08125 9.48524 9.19063 9.44774 9.225C9.35399 9.3125 9.35086 9.52188 9.43836 9.63438C9.54774 9.775 9.63211 9.76875 10.1634 9.58125C10.7665 9.37188 10.829 9.3375 10.8696 9.22188C10.9134 9.1 10.8665 8.925 10.7727 8.85938C10.6634 8.78125 10.5102 8.80625 10.0009 8.9875Z" fill="#016DEA"/>
</g>
<defs>
<clipPath id="clip0_7597_156117">
<rect width="16" height="16" fill="white"/>
</clipPath>
</defs>
</svg>
