<svg width="16" height="16" viewBox="0 0 16 16" fill="none" xmlns="http://www.w3.org/2000/svg">
<path d="M9.16842 13.344L2.65642 6.83199C2.58176 6.75732 2.54709 6.66399 2.55242 6.55199C2.55776 6.43999 2.60309 6.35199 2.68842 6.28799C3.06176 5.99999 3.48042 5.86932 3.94442 5.89599C4.40842 5.92265 4.80576 6.10132 5.13642 6.43199L9.56842 10.848C9.89909 11.1893 10.0804 11.592 10.1124 12.056C10.1444 12.52 10.0111 12.9387 9.71242 13.312C9.64842 13.3973 9.56309 13.4427 9.45642 13.448C9.34976 13.4533 9.25376 13.4187 9.16842 13.344ZM10.8164 10.384L14.0804 6.17599L14.1604 6.25599C14.2244 6.33065 14.3098 6.36799 14.4164 6.36799C14.5231 6.36799 14.6138 6.33065 14.6884 6.25599L14.9764 5.96799C15.0511 5.89332 15.0884 5.80265 15.0884 5.69599C15.0884 5.58932 15.0511 5.49865 14.9764 5.42399L10.5764 1.02399C10.5018 0.949321 10.4111 0.911987 10.3044 0.911987C10.1978 0.911987 10.1071 0.949321 10.0324 1.02399L9.74442 1.31199C9.66976 1.38665 9.63242 1.47732 9.63242 1.58399C9.63242 1.69065 9.66976 1.77599 9.74442 1.83999L9.82442 1.91999L5.61642 5.18399C5.52042 5.24799 5.46976 5.33865 5.46442 5.45599C5.45909 5.57332 5.49376 5.66932 5.56842 5.74399L10.2564 10.432C10.3311 10.5067 10.4271 10.5413 10.5444 10.536C10.6618 10.5307 10.7524 10.48 10.8164 10.384ZM1.23242 14.768L1.55242 13.216L4.73642 10.032L5.96842 11.264L2.78442 14.448L1.23242 14.768Z" fill="#016DEA"/>
</svg>
