<svg width="24" height="24" viewBox="0 0 24 24" fill="none" xmlns="http://www.w3.org/2000/svg">
<g clip-path="url(#clip0_22_7587)">
<path d="M8.20313 0.445312C7.58438 0.581249 7.10156 0.820312 6.51094 1.27031C6.30469 1.425 6.06094 1.57969 5.9625 1.6125C5.31094 1.84219 4.79063 2.33437 4.54688 2.94844C4.275 3.64687 4.32188 4.24687 4.71094 5.05312C4.85156 5.34844 4.96875 5.59219 4.96875 5.60625C4.96875 5.61562 4.87969 5.625 4.77188 5.625C4.3875 5.62969 3.97969 5.91562 3.825 6.29062C3.73125 6.51562 3.73125 6.98437 3.825 7.20937C4.00313 7.64062 4.38281 7.87031 4.9125 7.875H5.25V8.14687C5.25 8.54531 5.40469 9.10312 5.65313 9.6C5.90625 10.1016 6.39844 10.6641 6.85313 10.9734L7.125 11.1609V11.5969V12.0328L4.79531 12.4219C3.51094 12.6328 2.33438 12.8484 2.17969 12.8953C1.35938 13.1484 0.660938 13.8703 0.445313 14.6953C0.384375 14.9344 0.375 15.5578 0.375 19.2047C0.375 23.3766 0.375 23.4375 0.46875 23.5312C0.5625 23.625 0.623438 23.625 11.8453 23.625C23.025 23.625 23.1328 23.625 23.2875 23.5312C23.3719 23.4797 23.4797 23.3719 23.5313 23.2875C23.6203 23.1375 23.625 23.0437 23.625 19.125C23.625 15.2062 23.6203 15.1125 23.5313 14.9625C23.4797 14.8781 23.3719 14.7703 23.2875 14.7187C23.1422 14.6297 23.0484 14.625 21.8813 14.625H20.625V13.9078C20.625 13.1062 20.5781 12.9422 20.2922 12.6703C19.9781 12.3703 20.0063 12.375 17.625 12.375C15.3188 12.375 15.2672 12.3797 15.0188 12.6141C14.9203 12.7078 14.9203 12.7031 12.9 12.3703L10.875 12.0328V11.5969V11.1609L11.1469 10.9734C11.4609 10.7578 11.925 10.2891 12.1359 9.97031C12.4875 9.45 12.75 8.67187 12.75 8.14687V7.875H13.0922C13.8094 7.87031 14.25 7.43906 14.25 6.74062C14.2453 6.10781 13.7906 5.625 13.1953 5.625C13.0781 5.625 12.9844 5.61562 12.9844 5.60625C12.9844 5.59687 13.0453 5.45625 13.1203 5.29219C13.3453 4.78594 13.4203 4.38281 13.3922 3.81094C13.3688 3.225 13.2609 2.84062 12.9984 2.39531C12.7828 2.025 12.3891 1.61719 12.0469 1.39687C11.7188 1.18594 10.4766 0.623437 10.0781 0.506249C9.67031 0.379687 8.63438 0.346874 8.20313 0.445312ZM9.72656 1.24219C9.88125 1.28437 10.3594 1.47656 10.7906 1.66875C11.4516 1.96875 11.6203 2.06719 11.8734 2.29687C12.1922 2.59219 12.4359 2.98594 12.5438 3.39375C12.6328 3.72187 12.6234 4.27969 12.5203 4.59375L12.4406 4.85156L12.1734 4.33125C12.0281 4.04531 11.8781 3.79687 11.8359 3.77812C11.6156 3.69375 11.4563 3.75 11.0156 4.07812C10.2422 4.64531 9.75 4.82812 9 4.82812C8.25469 4.82812 7.75313 4.64062 6.98438 4.07812C6.53438 3.74531 6.35156 3.68437 6.15 3.79219C6.10781 3.81562 5.95313 4.06875 5.8125 4.35469C5.67188 4.64062 5.54531 4.875 5.52656 4.875C5.475 4.875 5.25 4.32656 5.19844 4.06875C5.1 3.57187 5.35313 2.94844 5.78906 2.61562C6.11719 2.36719 6.39844 2.28281 6.83438 2.30625C7.40156 2.33437 7.81875 2.56875 8.20313 3.08437L8.32031 3.23906L8.63906 3.02344C8.8125 2.90625 8.95313 2.79844 8.95313 2.78437C8.95313 2.70937 8.63906 2.32031 8.41406 2.12344C8.17031 1.90312 7.93125 1.7625 7.61719 1.64062L7.47656 1.58437L7.70625 1.46719C8.24531 1.19062 9.14063 1.09219 9.72656 1.24219ZM7.33594 5.25469C7.88438 5.52187 8.33906 5.625 9 5.625C9.84844 5.625 10.6266 5.38125 11.2359 4.91719L11.4844 4.73437L11.7469 5.25937L12.0141 5.78906L11.9859 7.05469C11.9672 8.02969 11.9438 8.38594 11.8828 8.60156C11.2031 11.0625 8.04844 11.6391 6.57656 9.57187C6.10781 8.92031 6 8.39062 6 6.73594V5.76562L6.25781 5.25L6.51563 4.72969L6.74063 4.89844C6.85781 4.99219 7.12969 5.15156 7.33594 5.25469ZM5.25 6.75V7.125H5.08594C4.83281 7.125 4.60313 7.0125 4.56563 6.87187C4.49063 6.57187 4.6875 6.37969 5.07656 6.375H5.25V6.75ZM13.2422 6.44062C13.4156 6.51562 13.4859 6.66562 13.4344 6.87187C13.3969 7.0125 13.1672 7.125 12.9141 7.125H12.75V6.75V6.375H12.9141C13.0078 6.375 13.1531 6.40312 13.2422 6.44062ZM8.25 11.5734C8.66719 11.6672 9.62344 11.6297 10.0453 11.5031C10.1156 11.4797 10.125 11.5172 10.125 11.8219V12.1641L9.5625 12.7266L9 13.2891L8.4375 12.7266L7.875 12.1641V11.8219C7.875 11.5172 7.88438 11.4797 7.95938 11.5031C8.00156 11.5172 8.13281 11.55 8.25 11.5734ZM7.56094 13.0219L7.78125 13.2469L7.64063 13.6641C7.43438 14.2734 7.44375 14.3203 7.8375 14.9156L8.17031 15.4266L7.8375 16.2703C7.65 16.7344 7.5 17.1797 7.5 17.2641C7.5 17.4094 8.52188 21.9234 8.62969 22.2562C8.68594 22.4297 8.79375 22.5 9 22.5C9.20625 22.5 9.31406 22.4297 9.37031 22.2562C9.47813 21.9234 10.5 17.4094 10.5 17.2641C10.5 17.1797 10.35 16.7344 10.1625 16.2703L9.82969 15.4266L10.1625 14.9156C10.5563 14.3203 10.5656 14.2734 10.3594 13.6641L10.2188 13.2422L10.4391 13.0266L10.6641 12.8062L12.6469 13.1344L14.625 13.4672V14.0484V14.625H13.3734C12.2016 14.625 12.1078 14.6297 11.9625 14.7187C11.8781 14.7703 11.7703 14.8781 11.7188 14.9625C11.6297 15.1125 11.625 15.2062 11.625 18.9937V22.875H8.25H4.875V19.6875V16.5H4.5H4.125V19.6875V22.875H2.625H1.125V19.2047C1.12969 17.1891 1.14844 15.3984 1.16719 15.225C1.22344 14.8078 1.42969 14.3766 1.71563 14.0953C2.13281 13.6828 2.18438 13.6687 4.86563 13.2141C6.20156 12.9891 7.29844 12.8062 7.3125 12.8016C7.32656 12.7969 7.43906 12.9 7.56094 13.0219ZM19.6125 13.1906C19.8234 13.2797 19.875 13.4484 19.875 14.0953V14.625L18.6984 14.6156L17.5219 14.6016L17.4281 14.3672C17.2594 13.9312 16.8047 13.3922 16.4297 13.1812C16.2797 13.0969 19.4063 13.1016 19.6125 13.1906ZM15.8344 13.7766C15.9422 13.8281 16.1063 13.9453 16.2 14.0297C16.3828 14.1844 16.6406 14.5125 16.6406 14.5875C16.6406 14.6062 16.3547 14.625 16.0078 14.625H15.375V14.1141V13.5984L15.5063 13.6359C15.5766 13.6594 15.7219 13.7203 15.8344 13.7766ZM8.62969 14.0859C8.775 14.2172 8.85 14.25 9 14.25C9.15 14.25 9.225 14.2172 9.37031 14.0859C9.46875 13.9969 9.5625 13.9219 9.57656 13.9219C9.59063 13.9219 9.61406 13.9875 9.63281 14.0672C9.66094 14.1891 9.62813 14.2687 9.40313 14.6062C9.16875 14.9531 9.12188 15 9 15C8.87813 15 8.83125 14.9531 8.59688 14.6062C8.37188 14.2687 8.33906 14.1891 8.36719 14.0672C8.38594 13.9875 8.40938 13.9219 8.42344 13.9219C8.4375 13.9219 8.53125 13.9969 8.62969 14.0859ZM22.875 15.8766C22.8703 16.8984 22.7344 17.3484 22.2938 17.7937C21.7969 18.2906 21.4406 18.375 19.8188 18.375H18.75V17.7187C18.75 16.8187 18.825 16.875 17.625 16.875C16.425 16.875 16.5 16.8187 16.5 17.7187V18.375H15.4359C13.8094 18.375 13.4531 18.2906 12.9563 17.7937C12.5156 17.3484 12.3797 16.8984 12.375 15.8766V15.375H17.625H22.875V15.8766ZM9.40313 16.5234L9.70313 17.2734L9.36563 18.7594C9.17813 19.5797 9.01406 20.25 9 20.25C8.98594 20.25 8.82188 19.5797 8.63438 18.7594L8.29688 17.2734L8.55938 16.6172C8.70469 16.2562 8.84063 15.9141 8.86406 15.8531C8.89219 15.7781 8.93906 15.75 9.00469 15.7594C9.08438 15.7687 9.15938 15.9187 9.40313 16.5234ZM18 18.5391C18 19.5609 17.9625 19.7531 17.7469 19.8094C17.5406 19.8609 17.3906 19.7906 17.3156 19.6172C17.2688 19.4953 17.25 19.2281 17.25 18.5391V17.625H17.625H18V18.5391ZM13.0172 18.8391C13.5563 19.1109 13.6734 19.125 15.15 19.125H16.5V19.4625C16.5047 20.1844 16.9359 20.625 17.6344 20.625C17.9813 20.625 18.2391 20.5172 18.4547 20.2922C18.6703 20.0625 18.75 19.8375 18.75 19.4531V19.125H20.1C21.2063 19.125 21.4969 19.1109 21.7078 19.05C22.0641 18.9422 22.4719 18.7312 22.6875 18.5344L22.875 18.3656V19.8703V21.375H17.625H12.375V19.8703V18.3656L12.5625 18.5344C12.6656 18.6234 12.8672 18.7641 13.0172 18.8391ZM22.875 22.5V22.875H17.625H12.375V22.5V22.125H17.625H22.875V22.5Z" fill="white"/>
</g>
<defs>
<clipPath id="clip0_22_7587">
<rect width="24" height="24" fill="white"/>
</clipPath>
</defs>
</svg>
