<svg width="16" height="16" viewBox="0 0 16 16" fill="none" xmlns="http://www.w3.org/2000/svg">
<g clip-path="url(#clip0_7693_100824)">
<path d="M5.34412 0.30313C5.13162 0.381255 4.86599 0.662505 4.79412 0.88438C4.76599 0.981256 4.72224 1.06563 4.70037 1.07501C4.67537 1.08438 4.57849 1.05313 4.48162 1.00938C4.01287 0.796881 3.45662 0.984381 3.20349 1.44063C3.11912 1.59376 3.10974 1.63751 3.10974 1.89063C3.10974 2.28126 3.16599 2.38438 3.65037 2.88126C4.03474 3.27501 4.03787 3.27813 3.95037 3.3C3.78162 3.34063 3.57537 3.46251 3.45662 3.59376C3.27849 3.79063 3.21287 3.96876 3.20974 4.24063C3.20974 4.44063 3.22224 4.49688 3.31599 4.68126C3.39099 4.82813 3.46599 4.92188 3.56599 4.99688L3.71287 5.10313L3.30037 5.57188C1.73787 7.35001 0.994118 8.57188 0.794118 9.6875C0.728493 10.0531 0.722243 10.7688 0.778493 11.0938C0.831618 11.3938 0.975368 11.85 1.11287 12.1531C1.50037 13 2.31599 13.8125 3.25037 14.2813C4.60662 14.9625 6.38474 15.0188 7.86287 14.425L8.15037 14.3125L8.36287 14.5344C8.93474 15.1281 9.75037 15.5625 10.5441 15.7031C10.8972 15.7625 11.5972 15.7656 11.9472 15.7031C13.366 15.4563 14.5566 14.4531 15.0441 13.1C15.341 12.275 15.341 11.225 15.0441 10.4C14.8035 9.73438 14.3691 9.11563 13.8254 8.66251C13.3535 8.275 12.8566 8.02188 12.2254 7.85001C11.941 7.775 11.8785 7.76875 11.2504 7.76875C10.6191 7.76875 10.5597 7.775 10.266 7.85313C10.0972 7.9 9.94724 7.92813 9.93787 7.91251C9.92537 7.9 9.79412 7.70625 9.64099 7.48438C9.22849 6.86876 8.63474 6.12813 7.91599 5.32188L7.71912 5.10313L7.84099 5.01563C7.97537 4.925 8.09724 4.76875 8.17224 4.58751C8.23474 4.43751 8.23162 4.08438 8.16912 3.89688C8.07537 3.62501 7.77224 3.3625 7.47224 3.29688L7.36599 3.27501L7.77537 2.8625C8.27224 2.3625 8.32537 2.26875 8.32849 1.90626C8.32849 1.67813 8.31599 1.61563 8.24099 1.46251C8.00974 0.993755 7.43474 0.79063 6.95662 1.00938C6.78474 1.08751 6.68787 1.09376 6.68787 1.01876C6.68787 0.937506 6.50037 0.60313 6.40349 0.50938C6.20974 0.331256 6.04412 0.265631 5.75037 0.25938C5.56912 0.253131 5.44099 0.268756 5.34412 0.30313ZM5.95349 0.843756C6.05662 0.906256 6.13162 1.02813 6.17537 1.20001C6.20662 1.33438 6.43162 1.55 6.57849 1.59063C6.76287 1.64063 6.87224 1.63126 7.04724 1.55313C7.26599 1.45001 7.35037 1.43438 7.46912 1.46876C7.69099 1.53126 7.83787 1.76875 7.79724 1.99376C7.77849 2.09063 7.68162 2.20625 7.19412 2.69376L6.61287 3.28126H5.71912H4.82537L4.24412 2.69376C3.75974 2.20625 3.65662 2.09063 3.64099 1.99376C3.60974 1.83125 3.64412 1.71251 3.75662 1.59688C3.92224 1.42813 4.10662 1.41251 4.36912 1.54688C4.68787 1.71251 5.09099 1.57188 5.22537 1.25313C5.33787 0.981256 5.39099 0.89688 5.48474 0.837505C5.60974 0.762506 5.82537 0.765631 5.95349 0.843756ZM7.45662 3.8625C7.74724 4.00001 7.76599 4.40313 7.49412 4.60001L7.39099 4.67188H5.71287C4.06912 4.67188 4.03474 4.67188 3.95037 4.60626C3.74099 4.45313 3.68474 4.22813 3.80349 4.02501C3.92849 3.80938 3.89412 3.81251 5.71287 3.81251C7.15349 3.81251 7.36287 3.81876 7.45662 3.8625ZM7.47537 5.64688C7.70349 5.90313 8.02849 6.27188 8.19099 6.46875C8.78787 7.18438 9.48474 8.15626 9.41599 8.17813C9.33787 8.20625 9.00037 8.42188 8.79099 8.58438C8.07849 9.12813 7.57849 9.91251 7.34099 10.8563C7.24724 11.2219 7.22537 12.0063 7.29412 12.4063C7.35974 12.7781 7.52537 13.2781 7.68787 13.5906C7.75662 13.7219 7.81287 13.8406 7.81287 13.85C7.81287 13.8781 7.36912 14.0469 7.09099 14.125C6.34412 14.3344 5.37537 14.3594 4.59099 14.1875C2.80974 13.8031 1.48162 12.4406 1.27849 10.8031C1.19099 10.0906 1.36912 9.27813 1.77224 8.53126C2.07224 7.98438 2.77224 7.01251 3.37224 6.3125C3.68162 5.95001 4.03787 5.55 4.21599 5.36563L4.38787 5.1875H5.72537H7.05974L7.47537 5.64688ZM11.9004 8.33125C12.5754 8.45001 13.2754 8.83438 13.7691 9.34688C14.4629 10.0781 14.8285 11.125 14.7222 12.0813C14.566 13.4531 13.6785 14.5813 12.3847 15.0406C11.6566 15.3031 10.7379 15.2813 9.99099 14.9875C8.94099 14.575 8.15349 13.6719 7.87224 12.5594C7.77849 12.1875 7.75662 11.5438 7.82537 11.1719C8.04412 9.98438 8.80037 9.02188 9.88162 8.55625C10.5285 8.27813 11.1785 8.20313 11.9004 8.33125Z" fill="#016DEA"/>
<path d="M5.57537 7.13123C5.48162 7.17498 5.43787 7.28748 5.43787 7.48123V7.64686L5.24412 7.70623C4.84724 7.82498 4.53787 8.10623 4.41599 8.45311C4.33162 8.69373 4.34412 9.03748 4.44412 9.25623C4.61912 9.63748 4.95662 9.84373 5.65662 9.99998C6.30037 10.1437 6.54412 10.2969 6.62849 10.6C6.73474 10.9969 6.34724 11.3187 5.75037 11.325C5.43787 11.3281 5.27849 11.2844 5.07224 11.1469C4.95349 11.0656 4.90037 11 4.80662 10.8125C4.74099 10.6844 4.66287 10.5594 4.63474 10.5375C4.54099 10.4687 4.40974 10.4937 4.30662 10.5937C4.22537 10.6781 4.21599 10.7031 4.23474 10.8062C4.26912 11 4.39412 11.2406 4.55037 11.4062C4.71287 11.5781 5.09412 11.7906 5.30974 11.8281L5.43787 11.85V12.0156C5.43787 12.2281 5.48474 12.3281 5.59724 12.375C5.70662 12.4219 5.82224 12.3969 5.90662 12.3062C5.95349 12.2531 5.96912 12.1969 5.96912 12.05V11.8594L6.18787 11.8062C6.61599 11.7031 6.93162 11.4781 7.08162 11.1656C7.15349 11.025 7.16912 10.95 7.16912 10.7531C7.16912 10.3406 7.00662 10.0187 6.68162 9.80311C6.44412 9.64686 6.25662 9.57811 5.80662 9.48436C5.37537 9.39686 5.14099 9.29686 5.00662 9.14373C4.69099 8.78436 5.01287 8.25936 5.59724 8.17186C5.92849 8.12186 6.30974 8.29061 6.46287 8.55311C6.65037 8.87498 6.81287 8.95311 6.98474 8.80311C7.28162 8.54998 6.73162 7.84061 6.11287 7.68436L5.96912 7.64998V7.48123C5.96912 7.28123 5.92537 7.17498 5.82224 7.12811C5.73162 7.08748 5.66287 7.08748 5.57537 7.13123Z" fill="#016DEA"/>
<path d="M10.9687 8.58435C10.1937 8.65935 9.4875 9.0031 8.95 9.57185C8.58125 9.95935 8.325 10.4187 8.18125 10.9375C8.11875 11.1687 8.10938 11.275 8.10938 11.75C8.10938 12.225 8.11875 12.3312 8.18125 12.5625C8.475 13.6375 9.30937 14.4906 10.3656 14.7968C11.4125 15.1031 12.5187 14.8562 13.3687 14.1312C13.7906 13.7718 14.1781 13.1344 14.3312 12.5469C14.4031 12.275 14.4156 12.1719 14.4156 11.7656C14.4187 11.2469 14.3781 11.0094 14.2187 10.6031C13.7094 9.28123 12.3656 8.44685 10.9687 8.58435ZM11.8937 9.18748C12.9094 9.44685 13.6812 10.2844 13.8625 11.3156C14.0969 12.65 13.2375 13.9562 11.8906 14.3156C11.5344 14.4125 10.9875 14.4125 10.6312 14.3156C9.72812 14.0781 9.05 13.4469 8.74375 12.5625C8.64375 12.275 8.64062 12.2531 8.64062 11.75C8.64062 11.2469 8.64375 11.225 8.74375 10.9375C9.00937 10.175 9.5875 9.56248 10.3062 9.28435C10.5156 9.20623 10.6219 9.1781 11 9.11248C11.1562 9.08435 11.6562 9.1281 11.8937 9.18748Z" fill="#016DEA"/>
<path d="M11.1344 9.78125C11.0969 9.79688 11.0531 9.8375 11.0344 9.87188C11.0125 9.9125 11 10.275 11 10.9V11.8688L11.0875 11.9438C11.1344 11.9813 11.4531 12.1781 11.7969 12.375C12.4906 12.7719 12.575 12.7969 12.7062 12.6438C12.7906 12.55 12.8 12.4594 12.7406 12.3469C12.7187 12.3 12.4875 12.15 12.125 11.9375L11.5469 11.6063L11.5312 10.7531L11.5156 9.9L11.4281 9.825C11.3375 9.74688 11.2531 9.73438 11.1344 9.78125Z" fill="#016DEA"/>
</g>
<defs>
<clipPath id="clip0_7693_100824">
<rect width="16" height="16" fill="white"/>
</clipPath>
</defs>
</svg>
