<svg width="16" height="17" viewBox="0 0 16 17" fill="none" xmlns="http://www.w3.org/2000/svg">
<path d="M7.66699 10.8566H5.33366C4.62641 10.8566 3.94814 11.1375 3.44804 11.6376C2.94794 12.1377 2.66699 12.816 2.66699 13.5232V14.8566" stroke="white" stroke-linecap="round" stroke-linejoin="round"/>
<path d="M7.99967 8.1899C9.47243 8.1899 10.6663 6.99599 10.6663 5.52323C10.6663 4.05047 9.47243 2.85657 7.99967 2.85657C6.52692 2.85657 5.33301 4.05047 5.33301 5.52323C5.33301 6.99599 6.52692 8.1899 7.99967 8.1899Z" stroke="white" stroke-linecap="round" stroke-linejoin="round"/>
<path d="M10.4189 12.935C10.4189 13.1598 10.5942 13.3438 10.8073 13.3438H11.2454C11.4323 13.3438 11.5842 13.1832 11.5842 12.9875C11.5842 12.7744 11.4907 12.6984 11.3534 12.6488L10.6526 12.4035C10.5124 12.3538 10.4189 12.2779 10.4189 12.0647C10.4189 11.8691 10.5708 11.7084 10.7577 11.7084H11.1957C11.4119 11.7114 11.5871 11.8924 11.5871 12.1173" stroke="white" stroke-width="0.5" stroke-linecap="round" stroke-linejoin="round"/>
<path d="M11.0029 13.3587V13.5746" stroke="white" stroke-width="0.5" stroke-linecap="round" stroke-linejoin="round"/>
<path d="M11.0029 11.4777V11.7052" stroke="white" stroke-width="0.5" stroke-linecap="round" stroke-linejoin="round"/>
<path d="M11.0003 14.8566C12.289 14.8566 13.3337 13.8119 13.3337 12.5232C13.3337 11.2346 12.289 10.1899 11.0003 10.1899C9.71166 10.1899 8.66699 11.2346 8.66699 12.5232C8.66699 13.8119 9.71166 14.8566 11.0003 14.8566Z" stroke="white" stroke-width="0.7" stroke-linecap="round" stroke-linejoin="round"/>
</svg>
