<svg width="16" height="16" viewBox="0 0 16 16" fill="none" xmlns="http://www.w3.org/2000/svg">
<path d="M2.66667 8H2V5.33333C2 4.59695 2.59695 4 3.33333 4H6M2.66667 8V12C2.66667 12.7364 3.26362 13.3333 4 13.3333H12C12.7364 13.3333 13.3333 12.7364 13.3333 12V8M2.66667 8H6.66667M6 4V3.33333C6 2.59695 6.59695 2 7.33333 2H8.66667C9.40307 2 10 2.59695 10 3.33333V4M6 4H10M13.3333 8H14V5.33333C14 4.59695 13.4031 4 12.6667 4H10M13.3333 8H9.33333M6.66667 8V6.66667H9.33333V8M6.66667 8V9.33333H9.33333V8" stroke="#016DEA" stroke-width="1.33333" stroke-linecap="round" stroke-linejoin="round"/>
</svg>
