<svg width="50" height="50" viewBox="0 0 50 50" fill="none" xmlns="http://www.w3.org/2000/svg">
<g clip-path="url(#clip0_6862_197997)">
<path d="M7.77373 1.13281C7.03154 1.91406 6.64092 2.69531 6.64092 3.47656C6.64092 4.53125 6.52373 4.6875 5.58623 4.6875C4.17998 4.6875 2.18779 5.89844 1.28936 7.30469C0.664355 8.28125 0.58623 9.6875 0.469042 24.2188C0.312792 46.1719 -0.50752 44.9219 14.1019 44.9219H23.3206L24.2581 45.9375C26.6019 48.4766 30.43 50 34.5315 50C39.0628 50 42.4222 48.5547 45.3519 45.4297C49.844 40.625 50.7425 33.9453 47.6175 28.0859C46.9144 26.8359 45.6253 25.0781 44.6878 24.2578L43.0472 22.6953L42.8909 15.5469C42.7737 8.78906 42.7347 8.32031 41.8753 7.10938C40.8206 5.66406 39.18 4.6875 37.7737 4.6875C36.9925 4.6875 36.7581 4.45312 36.5237 3.28125C35.7034 -1.13281 29.5315 -1.13281 28.7112 3.28125L28.4378 4.6875H21.68H14.9222L14.6878 3.35938C14.0628 0.078125 10.1175 -1.21094 7.77373 1.13281ZM6.64092 8.55469C6.64092 10.4297 6.91436 10.5469 10.8987 10.5469C14.2972 10.5469 14.844 10.2344 14.844 8.32031V7.03125H21.68H28.5159V8.32031C28.5159 10.2344 29.0628 10.5469 32.6175 10.5469C36.1722 10.5469 36.719 10.2344 36.719 8.28125C36.719 7.10938 36.7972 6.99219 37.6175 7.22656C39.5315 7.8125 40.2347 8.94531 40.2347 11.4062V13.6719H21.68H3.12529V11.4062C3.12529 9.10156 3.78936 7.92969 5.46904 7.30469C6.52373 6.91406 6.64092 7.03125 6.64092 8.55469ZM40.2347 18.7109V21.4062L38.3987 20.8594C35.1175 19.8828 30.6644 20.3516 27.3831 22.0703C25.43 23.0859 22.2269 26.4453 21.1331 28.6719C19.7269 31.5625 19.2581 35.6641 20.0003 38.5156C20.3128 39.7656 20.7034 41.1328 20.8987 41.4844C21.1722 42.1484 20.6253 42.1875 12.969 42.1875H4.72686L3.94561 41.1719C3.16436 40.1562 3.12529 39.6875 3.12529 28.0859V16.0156H21.68H40.2347V18.7109ZM38.8284 23.7109C41.6019 24.6094 44.9222 27.9688 46.094 31.0547C49.3753 39.9219 41.094 49.4531 31.9925 47.2656C22.4222 44.9609 19.0237 33.4375 25.8987 26.5625C27.8519 24.5703 29.2581 23.8281 32.0315 23.2031C34.3753 22.6953 35.8987 22.8125 38.8284 23.7109Z" fill="#016DEA"/>
<path d="M33.0466 27.9688C32.2653 28.75 32.1481 36.2891 32.8903 37.0313C33.1638 37.3047 34.6481 37.5 36.7575 37.5C40.2731 37.5 41.2888 37.0703 40.781 35.7813C40.5856 35.2734 39.9606 35.1563 37.8513 35.1563H35.156V31.6406C35.156 28.5938 35.0778 28.0859 34.4138 27.7344C33.8278 27.4609 33.5153 27.5 33.0466 27.9688Z" fill="#016DEA"/>
</g>
<defs>
<clipPath id="clip0_6862_197997">
<rect width="50" height="50" fill="white"/>
</clipPath>
</defs>
</svg>
