<svg width="17" height="17" viewBox="0 0 17 17" fill="none" xmlns="http://www.w3.org/2000/svg">
<g clip-path="url(#clip0_7814_104210)">
<path d="M11.9932 1.8521C11.7525 1.91772 11.4338 2.09272 11.2213 2.28022C11.1213 2.37084 10.4807 2.94272 9.79941 3.55834C8.78691 4.46772 8.54629 4.69897 8.48691 4.82397L8.41191 4.97397L8.40254 6.51147L8.39316 8.05209H7.61504C7.18379 8.05209 6.83379 8.04897 6.83379 8.04272C6.83379 8.03959 6.88066 7.90209 6.94004 7.73959C7.10566 7.27397 7.15879 6.97084 7.15879 6.48959C7.15879 5.84584 7.04316 5.50522 6.71191 5.17709C6.51504 4.98022 6.23379 4.83022 6.02129 4.80834C5.77754 4.78647 5.75879 4.81772 5.58691 5.55209C5.30254 6.74584 5.24941 6.83022 4.38379 7.42397C3.92129 7.73959 3.80254 7.85834 3.51504 8.28022C3.29316 8.60209 3.11816 8.76147 2.96191 8.78959C2.89941 8.79897 2.82441 8.81459 2.79629 8.82397C2.74941 8.83647 2.74004 8.81772 2.74004 8.71772C2.74004 8.55522 2.62441 8.36459 2.47441 8.28022C2.35254 8.21147 2.32129 8.20834 1.54316 8.20834C0.802539 8.20834 0.727539 8.21459 0.615039 8.27084C0.549414 8.30522 0.461914 8.37709 0.421289 8.43334L0.349414 8.53647L0.340039 11.474C0.336914 13.0896 0.340039 14.4427 0.349414 14.4802C0.374414 14.5865 0.524414 14.7427 0.661914 14.8052C0.771289 14.8552 0.877539 14.8646 1.53691 14.8646C2.19941 14.8646 2.30254 14.8552 2.41191 14.8052C2.64941 14.6958 2.74004 14.5396 2.74004 14.2333C2.74004 14.0677 2.74629 14.049 2.79629 14.0677C3.22441 14.2302 3.69629 14.3896 3.97441 14.4583C4.57129 14.6083 4.79941 14.6208 6.92754 14.6052C8.00254 14.5958 8.91504 14.5896 8.95879 14.5896C14.9275 14.6177 15.5369 14.6146 15.6963 14.5677C15.8869 14.5115 16.1463 14.2958 16.2494 14.1021L16.3182 13.974V9.45522V4.93647L16.2244 4.78335C16.1588 4.67709 15.7557 4.29272 14.9275 3.54272C13.5369 2.28647 13.3088 2.09585 13.0432 1.96772C12.7025 1.8021 12.3307 1.76147 11.9932 1.8521ZM12.7744 2.43334C12.8682 2.4771 13.0275 2.58022 13.1307 2.66772C13.6057 3.0646 15.6994 4.96772 15.7463 5.04585C15.7994 5.13022 15.8025 5.40835 15.8025 9.45522C15.8057 13.5708 15.8025 13.7833 15.7463 13.8771C15.715 13.9302 15.6432 13.999 15.5838 14.0271C15.4807 14.0802 15.2682 14.0833 12.465 14.0833H9.45566L9.50879 13.9833C9.58691 13.8333 9.60254 13.5052 9.54004 13.2958C9.47754 13.0771 9.47754 13.0833 9.56191 13.0833C9.69316 13.0833 10.015 12.899 10.1338 12.7552C10.3869 12.4458 10.44 12.0115 10.2713 11.6521L10.1775 11.4521L10.3213 11.3146C10.6869 10.9583 10.7369 10.374 10.4307 9.97084C10.3682 9.88647 10.2588 9.78022 10.1869 9.73022L10.0557 9.64272L10.1307 9.48022C10.2463 9.23647 10.24 8.88647 10.1182 8.63022C9.94629 8.26147 9.59941 8.05209 9.16191 8.05209H8.92754V6.58959C8.92754 5.25522 8.93379 5.12397 8.98379 5.04897C9.05254 4.94584 11.5682 2.68022 11.765 2.54585C12.0932 2.31772 12.44 2.28022 12.7744 2.43334ZM6.43691 5.68334C6.67754 6.04585 6.70254 6.65834 6.50254 7.35834C6.43066 7.60834 6.27754 7.93959 6.14941 8.13022C6.06816 8.24897 6.06504 8.39897 6.14316 8.49272L6.20254 8.56772L7.77754 8.58334C9.19004 8.59584 9.35879 8.60522 9.44941 8.65209C9.67754 8.77709 9.75254 9.11459 9.60254 9.33647C9.45879 9.54897 9.43691 9.55209 8.22441 9.55209H7.14004L7.04941 9.64272C6.99941 9.69272 6.95879 9.76459 6.95879 9.80209C6.95879 9.89272 7.04004 10.0396 7.09941 10.0646C7.12754 10.074 7.72129 10.0833 8.42129 10.0833C9.62129 10.0833 9.69629 10.0865 9.81504 10.1458C10.0682 10.2677 10.165 10.5365 10.0463 10.7677C9.96191 10.9333 9.85879 11.0146 9.69004 11.0521C9.62441 11.0677 9.01816 11.0833 8.34629 11.0833C7.19316 11.0833 7.11816 11.0865 7.04941 11.1427C6.99316 11.1865 6.97441 11.2333 6.97441 11.3302C6.97441 11.574 6.93066 11.5646 8.28066 11.5833C9.41191 11.599 9.48066 11.6021 9.58379 11.6646C9.90879 11.8552 9.92129 12.2677 9.60566 12.5021C9.52129 12.5646 9.47129 12.5677 8.29316 12.5833C7.61816 12.5927 7.06504 12.6052 7.06191 12.6083C7.02754 12.6396 6.95879 12.8115 6.95879 12.8646C6.95879 12.9021 6.99941 12.974 7.04941 13.024L7.14004 13.1146H7.92129C8.67754 13.1146 8.70254 13.1177 8.80254 13.1833C8.97441 13.3021 9.03691 13.4115 9.03691 13.599C9.03691 13.7865 8.97441 13.8958 8.80254 14.0146L8.69941 14.0833H6.82129C5.69629 14.0833 4.83379 14.0708 4.67754 14.049C4.28379 14.0021 3.97754 13.9208 3.32441 13.6865L2.74004 13.4802L2.74629 11.4146L2.75566 9.34897L2.94941 9.32709C3.34941 9.28334 3.58066 9.12084 3.90254 8.66459C4.20566 8.23334 4.32129 8.11772 4.75566 7.82397C4.96191 7.68334 5.24004 7.46459 5.37441 7.33334C5.70566 7.02084 5.84941 6.73022 6.02441 6.01772C6.09316 5.73647 6.15566 5.48647 6.16504 5.46459C6.18379 5.40522 6.32441 5.52084 6.43691 5.68334ZM2.20879 11.5365V14.3333H1.54004C0.958789 14.3333 0.868164 14.3271 0.852539 14.2833C0.827539 14.2177 0.827539 8.78647 0.855664 8.76147C0.865039 8.74897 1.17441 8.73959 1.54316 8.73959H2.20879V11.5365Z" fill="#016DEA"/>
<path d="M12.1686 3.39584C11.578 3.54272 11.2873 4.18959 11.5748 4.71459C11.7873 5.10522 12.2498 5.27709 12.6842 5.12709C13.1248 4.98022 13.3748 4.44584 13.2248 3.98647C13.0873 3.57397 12.5842 3.29272 12.1686 3.39584ZM12.5061 3.93959C12.6248 3.98959 12.7405 4.15209 12.7405 4.26459C12.7405 4.46772 12.5592 4.64584 12.353 4.64584C12.2092 4.64584 12.0311 4.49584 12.003 4.34897C11.9748 4.19897 12.0686 4.02084 12.2092 3.95209C12.3405 3.88334 12.3686 3.88334 12.5061 3.93959Z" fill="#016DEA"/>
<path d="M12.206 7.14272C12.1435 7.19272 12.1279 7.23959 12.1154 7.43022L12.0997 7.65834L11.9497 7.69584C11.5497 7.79897 11.181 8.10522 11.0529 8.44897C10.9591 8.69897 10.9716 9.12397 11.0779 9.33959C11.1779 9.53959 11.3997 9.75522 11.631 9.86459C11.8029 9.95209 11.9404 9.98959 12.5372 10.1271C12.8247 10.1927 13.1279 10.3427 13.2216 10.4677C13.4216 10.7302 13.3997 11.024 13.1622 11.2333C12.9685 11.4052 12.7372 11.474 12.3654 11.474C12.1122 11.4708 12.0435 11.4615 11.8966 11.3927C11.6372 11.2708 11.5247 11.1583 11.4091 10.9052C11.2716 10.6052 11.1185 10.5333 10.9372 10.6896C10.8685 10.749 10.8497 10.7896 10.8529 10.8896C10.8622 11.1646 11.1685 11.6083 11.4779 11.7896C11.631 11.8802 11.9404 11.9896 12.0435 11.9896C12.1122 11.9896 12.1154 11.999 12.1154 12.2052C12.1154 12.4583 12.1685 12.5458 12.3372 12.5708C12.4247 12.5865 12.4654 12.574 12.5372 12.5115C12.6185 12.4427 12.631 12.4115 12.6404 12.2177L12.6529 12.0021L12.8372 11.9677C13.2591 11.8865 13.6435 11.6177 13.8029 11.2865C13.8685 11.1552 13.881 11.0865 13.881 10.849C13.881 10.6052 13.8685 10.5396 13.7904 10.374C13.656 10.0802 13.3497 9.82084 12.9904 9.69272C12.9122 9.66459 12.681 9.60834 12.4779 9.56459C11.7716 9.42084 11.5216 9.23647 11.5216 8.86459C11.5216 8.46459 11.8904 8.17709 12.3997 8.17709C12.7404 8.17709 13.0872 8.37709 13.2279 8.65209C13.3154 8.82397 13.3966 8.89584 13.5122 8.89584C13.656 8.89584 13.7279 8.85209 13.7654 8.73959C13.856 8.48334 13.5029 8.00209 13.0747 7.79897C12.9685 7.74897 12.831 7.69897 12.7685 7.68959L12.6529 7.67084L12.6404 7.45209C12.631 7.25834 12.6185 7.22397 12.5435 7.15834C12.4372 7.06772 12.306 7.06147 12.206 7.14272Z" fill="#016DEA"/>
</g>
<defs>
<clipPath id="clip0_7814_104210">
<rect width="16" height="16" fill="white" transform="translate(0.333984 0.333344)"/>
</clipPath>
</defs>
</svg>
