<svg width="16" height="16" viewBox="0 0 16 16" fill="none" xmlns="http://www.w3.org/2000/svg">
<g clip-path="url(#clip0_7574_154759)">
<path d="M8 11.334V11.6673V12.0007" stroke="#016DEA" stroke-linecap="round"/>
<path d="M8 4V4.33333V4.66667" stroke="#016DEA" stroke-linecap="round"/>
<path d="M10 6.33366C10 5.41319 9.1046 4.66699 8 4.66699C6.8954 4.66699 6 5.41319 6 6.33366C6 7.25413 6.8954 8.00033 8 8.00033C9.1046 8.00033 10 8.74653 10 9.66699C10 10.5875 9.1046 11.3337 8 11.3337C6.8954 11.3337 6 10.5875 6 9.66699" stroke="#016DEA" stroke-linecap="round"/>
<path d="M4.66536 2.22586C5.64594 1.65863 6.78443 1.33398 7.9987 1.33398C11.6806 1.33398 14.6654 4.31875 14.6654 8.00065C14.6654 11.6825 11.6806 14.6673 7.9987 14.6673C4.3168 14.6673 1.33203 11.6825 1.33203 8.00065C1.33203 6.78638 1.65668 5.6479 2.22391 4.66732" stroke="#016DEA" stroke-linecap="round"/>
</g>
<defs>
<clipPath id="clip0_7574_154759">
<rect width="16" height="16" fill="white"/>
</clipPath>
</defs>
</svg>
