<svg width="24" height="24" viewBox="0 0 24 24" fill="none" xmlns="http://www.w3.org/2000/svg">
<path d="M8.6625 0.956249C7.33125 1.63125 6.95625 2.49375 6.75 5.475C6.65625 6.84375 6.58125 9 6.5625 10.2562C6.5625 12.4312 6.54375 12.5625 6.1875 12.5625C5.83125 12.5625 5.8125 12.4312 5.8125 10.4062V8.25H4.6875C3.69375 8.25 3.5625 8.2875 3.5625 8.625C3.5625 8.94375 3.69375 9 4.3125 9H5.0625V11.7C5.0625 14.4 5.0625 14.4187 5.55 14.7937C5.98125 15.1312 6.31875 15.1875 8.175 15.1875H10.3125V15.7125C10.3125 16.35 10.6125 16.6875 11.1938 16.6875C11.4938 16.6875 11.625 16.8 11.625 17.025C11.625 17.3062 11.1563 17.5125 9.24375 18.0937C6.225 18.9937 6.1875 19.0125 6.1875 19.6875C6.1875 20.0437 5.98125 20.4187 5.60625 20.8125C5.1 21.3187 5.025 21.4875 5.11875 22.0875C5.26875 22.9312 5.83125 23.4375 6.6375 23.4375C8.1375 23.4187 8.75625 21.5625 7.55625 20.6437C6.73125 19.9875 7.05 19.6875 9.28125 19.0125C10.425 18.6562 11.4 18.375 11.4938 18.375C11.5688 18.375 11.625 18.8437 11.625 19.4062C11.625 19.9687 11.55 20.4375 11.4375 20.4375C10.9875 20.4375 10.5 21.2062 10.5 21.9187C10.5 23.25 11.9438 23.8875 13.0125 23.0437C13.3875 22.7437 13.5 22.5 13.5 21.9187C13.5 21.2062 13.0125 20.4375 12.5625 20.4375C12.4688 20.4375 12.375 19.9687 12.375 19.3875C12.375 18.1687 12.2063 18.1875 15.0938 19.1062C16.95 19.7062 17.2125 20.025 16.4438 20.6437C15.225 21.5812 15.8625 23.4187 17.4 23.4375C18.825 23.4375 19.425 21.825 18.3938 20.7937C18.0563 20.4562 17.8125 20.0062 17.775 19.6312L17.7188 19.0312L15.0563 18.2062C12.9188 17.5312 12.375 17.2875 12.375 17.025C12.375 16.8 12.525 16.6875 12.8063 16.6875C13.3875 16.6875 13.6875 16.35 13.6875 15.7125V15.1875H15.825C17.6813 15.1875 18.0188 15.1312 18.45 14.7937C18.9375 14.4187 18.9375 14.4 18.9375 11.7V9H19.6875C20.3063 9 20.4375 8.94375 20.4375 8.625C20.4375 8.2875 20.3063 8.25 19.3125 8.25H18.1875V10.4062C18.1875 12.4312 18.1688 12.5625 17.8125 12.5625C17.4563 12.5625 17.4375 12.4312 17.4375 10.4437C17.4188 7.03125 17.1188 3.09375 16.8188 2.49375C16.4438 1.8 15.6 1.0125 14.9438 0.768749C14.6438 0.656249 13.2938 0.562499 11.9438 0.562499C9.80625 0.562499 9.35625 0.618749 8.6625 0.956249ZM14.9813 1.78125C16.2375 2.5125 16.3688 3.075 16.4625 7.96875L16.5563 12.3L15.45 12.1687C14.8313 12.0937 13.2938 12.0375 12 12.0375C10.7063 12.0375 9.16875 12.0937 8.55 12.1687L7.44375 12.3L7.5375 7.9875C7.65 2.6625 7.78125 2.2125 9.50625 1.575C10.6125 1.1625 14.1563 1.29375 14.9813 1.78125ZM14.25 12.9375C17.8125 13.2562 18.3 13.3875 18.075 13.9312C17.9625 14.2125 17.4 14.25 12 14.25C6.6 14.25 6.0375 14.2125 5.925 13.9312C5.7375 13.4812 6.0375 13.3687 8.04375 13.1437C11.5875 12.7312 11.7938 12.7125 14.25 12.9375Z" fill="white"/>
<path d="M10.8563 4.66875C10.2375 5.30625 10.1063 6.1875 10.65 6.1875C10.8375 6.1875 11.0625 5.9625 11.1938 5.625C11.3625 5.175 11.5125 5.0625 11.9813 5.0625C12.3563 5.0625 12.6188 5.19375 12.75 5.41875C13.0125 5.90625 13.0313 5.86875 12.2813 6.75C11.5125 7.66875 11.3813 8.625 12 8.625C12.2438 8.625 12.375 8.49375 12.375 8.25C12.375 8.0625 12.675 7.59375 13.0313 7.2375C13.5563 6.7125 13.6875 6.43125 13.6875 5.85C13.6875 4.25625 11.9813 3.5625 10.8563 4.66875Z" fill="white"/>
</svg>
