<svg width="24" height="24" viewBox="0 0 24 24" fill="none" xmlns="http://www.w3.org/2000/svg">
<g clip-path="url(#clip0_4907_93219)">
<path d="M19.125 3.0469C16.7391 3.70784 13.0641 4.63128 11.2407 5.03909C8.80315 5.57815 6.71253 5.80315 2.62503 5.95315C1.88909 5.98128 1.20472 6.02815 1.10159 6.05159C0.825029 6.12659 0.492216 6.35628 0.309404 6.60003C-0.00934607 7.03597 2.89352e-05 6.9469 2.89352e-05 10.2188C2.89352e-05 13.4907 -0.00934607 13.4016 0.309404 13.8375C0.492216 14.0813 0.825029 14.3157 1.10159 14.3813C1.20472 14.4094 1.59378 14.4422 1.96878 14.461L2.64847 14.4938L4.02659 17.1188C4.78597 18.5625 5.4844 19.861 5.57815 20.011C6.44065 21.3469 8.46097 21.5344 9.6094 20.3907C10.1203 19.8797 10.4016 19.2047 10.4063 18.4875C10.4063 17.9438 10.2703 17.5735 9.56253 16.2328C9.20159 15.5485 8.91096 14.9766 8.92034 14.9719C8.95315 14.9391 10.3219 15.1969 11.461 15.45C12.8485 15.7594 15.7969 16.4953 18.1875 17.1328C19.7625 17.5547 19.9219 17.5875 20.2313 17.5688C20.7797 17.5313 21.2157 17.2266 21.4782 16.6922C21.5813 16.486 21.586 16.411 21.6 15.2532L21.6141 14.025L21.9235 13.8469C22.6453 13.4203 23.2078 12.8203 23.5782 12.0703C23.8922 11.4328 24 10.9641 24 10.2188C24 9.47347 23.8922 9.00003 23.5782 8.36722C23.2078 7.61253 22.6782 7.04534 21.9422 6.6094L21.6141 6.41253L21.6 5.18909C21.586 4.02659 21.5813 3.95159 21.4782 3.74534C21.3235 3.43128 21.0891 3.17815 20.8078 3.02347C20.6016 2.91097 20.4891 2.88753 20.1797 2.87347C19.861 2.86409 19.7016 2.88753 19.125 3.0469ZM20.4141 3.84378C20.7328 4.04065 20.7094 3.62347 20.7282 10.1953C20.7422 15.9188 20.7375 16.1532 20.6532 16.3219C20.55 16.5328 20.3203 16.6875 20.1141 16.6875C20.0297 16.6875 19.7813 16.636 19.5563 16.575C17.6344 16.036 13.3172 14.9438 11.7657 14.6016C11.3391 14.5078 10.9547 14.4235 10.9125 14.4094C10.8328 14.386 10.8282 14.1469 10.8282 10.2188C10.8282 6.29065 10.8328 6.05159 10.9125 6.02815C10.9547 6.01409 11.3391 5.92972 11.7657 5.83597C13.336 5.48909 18.2063 4.25628 19.5938 3.84847C20.0016 3.73128 20.2266 3.72659 20.4141 3.84378ZM9.93753 10.2188C9.93753 12.7828 9.92346 14.2032 9.89065 14.2032C9.86721 14.2032 9.58597 14.161 9.2719 14.1094C8.06721 13.9172 5.80315 13.725 3.63284 13.6407C1.48597 13.5516 1.2844 13.5328 1.14378 13.4016C0.862529 13.1391 0.871904 13.261 0.871904 10.2188C0.867216 7.16253 0.853154 7.30315 1.14378 7.03597C1.2844 6.90472 1.48128 6.88597 3.65628 6.7969C5.81722 6.70784 8.11878 6.51565 9.21097 6.33284C9.4969 6.28597 9.77346 6.24378 9.8344 6.23909L9.93753 6.2344V10.2188ZM21.9985 7.75784C22.6875 8.32503 23.1094 9.25784 23.1094 10.2188C23.1094 11.3297 22.6688 12.1688 21.6938 12.9328C21.6141 12.9938 21.6094 12.8578 21.6094 10.2188C21.6094 7.57972 21.6141 7.44378 21.6938 7.50472C21.736 7.54222 21.8766 7.65472 21.9985 7.75784ZM5.13284 14.6016C6.15003 14.6672 7.79534 14.8032 7.8094 14.8266C7.8094 14.8313 8.16096 15.5063 8.59222 16.3219C9.01878 17.1422 9.40784 17.9297 9.45003 18.0797C9.67034 18.8344 9.24378 19.725 8.48909 20.1C8.25471 20.2125 8.17503 20.2266 7.75784 20.2266C7.33597 20.2266 7.26097 20.2125 7.01722 20.0953C6.48284 19.8282 6.42659 19.7438 5.01565 17.0625C4.30784 15.7172 3.7219 14.5922 3.71253 14.5735C3.68909 14.5172 3.82503 14.5219 5.13284 14.6016Z" fill="white"/>
</g>
<defs>
<clipPath id="clip0_4907_93219">
<rect width="24" height="24" fill="white"/>
</clipPath>
</defs>
</svg>
