<svg width="24" height="24" viewBox="0 0 24 24" fill="none" xmlns="http://www.w3.org/2000/svg">
<path d="M13.6996 22.5999V22.5984V4.49995C13.6996 3.75734 13.9946 3.04515 14.5197 2.52005L14.1662 2.16649L14.5197 2.52005C15.0448 1.99495 15.757 1.69995 16.4996 1.69995L20.6444 1.69995L20.645 1.69995C21.4004 1.69914 22.1252 1.99808 22.6604 2.53118C23.1955 3.06413 23.4973 3.78757 23.4996 4.54275C23.4996 4.54296 23.4996 4.54318 23.4996 4.54339V17.6575C23.4996 17.6577 23.4996 17.6579 23.4996 17.6581C23.497 18.4131 23.1951 19.1363 22.6601 19.6691C22.1249 20.202 21.4002 20.5008 20.645 20.5H20.6444H16.418H16.4178C16.1875 20.5001 15.9601 20.5514 15.7521 20.6504C15.5455 20.7487 15.3631 20.8915 15.2182 21.0686L13.8765 22.6642L13.8762 22.6645C13.863 22.6803 13.8453 22.6916 13.8254 22.6969C13.8055 22.7022 13.7845 22.7012 13.7652 22.6942C13.746 22.6872 13.7294 22.6744 13.7176 22.6574C13.7058 22.6405 13.6995 22.6204 13.6996 22.5999ZM10.8996 22.5984L10.8996 22.5999C10.8997 22.6204 10.8934 22.6405 10.8816 22.6574C10.8698 22.6744 10.8532 22.6872 10.834 22.6942C10.8147 22.7012 10.7937 22.7022 10.7738 22.6969C10.754 22.6916 10.7362 22.6803 10.723 22.6645L10.7227 22.6642L9.38108 21.0686C9.23613 20.8915 9.05376 20.7487 8.84709 20.6504C8.63909 20.5514 8.4117 20.5001 8.18142 20.5H8.1812H3.9548H3.95426C3.19903 20.5008 2.47434 20.202 1.93916 19.6691C1.40416 19.1364 1.10225 18.4133 1.09961 17.6583V4.5427C1.10195 3.78754 1.40374 3.06412 1.93878 2.53118C2.47398 1.99808 3.19884 1.69914 3.95426 1.69995H3.9548H8.09961C8.84222 1.69995 9.55442 1.99495 10.0795 2.52005C10.6046 3.04515 10.8996 3.75734 10.8996 4.49995L10.8996 22.5984Z" stroke="white"/>
</svg>
