<svg width="24" height="24" viewBox="0 0 24 24" fill="none" xmlns="http://www.w3.org/2000/svg">
<path d="M8.49922 18.2947C8.49886 18.5244 8.55689 18.7505 8.66783 18.9516C8.77884 19.1528 8.93921 19.3226 9.13392 19.4449C9.32858 19.5671 9.55117 19.6379 9.78075 19.6504C10.0103 19.663 10.2393 19.6169 10.4461 19.5167L10.4559 19.5119L10.4656 19.5067L10.5256 19.4743L10.533 19.4703L10.5402 19.4661L16.0278 16.2609L16.0289 16.2603C16.1939 16.1633 16.3364 16.0325 16.4472 15.8764C16.5504 15.7314 16.6241 15.5676 16.6641 15.3942C16.7041 15.2206 16.7096 15.0408 16.6801 14.865C16.6507 14.6892 16.5869 14.521 16.4924 14.3699C16.3978 14.2187 16.2745 14.0878 16.1294 13.9844L16.1231 13.9799L16.1166 13.9755L16.0518 13.9323L16.0394 13.9241L16.0266 13.9166L10.5403 10.7126C10.5403 10.7126 10.5402 10.7126 10.5402 10.7126C10.3419 10.5967 10.1175 10.5331 9.88793 10.5277C9.65837 10.5222 9.43113 10.5751 9.22752 10.6815C9.02394 10.7878 8.85071 10.9441 8.72403 11.1357C8.59735 11.3272 8.52136 11.5478 8.5032 11.7768L8.50235 11.7876L8.50196 11.7984L8.49954 11.8656L8.49922 11.8746V11.8836V18.2947ZM8.49922 18.2947C8.49922 18.2945 8.49922 18.2943 8.49922 18.2942L8.99922 18.2952M8.49922 18.2947V18.2952H8.99922M8.99922 18.2952C8.99893 18.4402 9.03556 18.583 9.10564 18.7101C9.17572 18.8371 9.27694 18.9443 9.39982 19.0214L8.99922 18.2952ZM1.70043 8.89995H22.2992V15.4364L22.2874 15.9152C22.2297 18.2415 21.7075 19.4993 20.6132 20.6343C20.0226 21.2035 19.4098 21.606 18.6522 21.8741C17.8854 22.1454 16.9463 22.2875 15.6937 22.3012H8.50842C7.18754 22.3012 6.2051 22.1661 5.40613 21.8928C4.61787 21.6231 3.9839 21.2105 3.36967 20.6176C2.29007 19.4985 1.76629 18.2433 1.70866 15.9152L1.70043 15.5826V8.89995ZM8.58083 1.69995H12.1601L14.4401 5.49995H10.6072L8.58083 1.69995ZM21.9073 5.49995H18.4058L16.1312 1.7104C17.1691 1.74953 17.9774 1.88824 18.6522 2.12701C19.4098 2.39508 20.0227 2.79756 20.6133 3.36685C21.2189 3.99455 21.6375 4.65878 21.9073 5.49995ZM3.36958 3.3836C3.88062 2.89026 4.40669 2.52103 5.02394 2.25618L6.75455 5.49995H2.08829C2.35672 4.6611 2.77222 4.00208 3.36958 3.3836Z" stroke="white"/>
</svg>
