<svg width="24" height="24" viewBox="0 0 24 24" fill="none" xmlns="http://www.w3.org/2000/svg">
<g clip-path="url(#clip0_22_6796)">
<path d="M6.37969 1.21875C5.38125 1.48125 4.52813 2.35781 4.29375 3.375C4.23281 3.62344 4.21875 4.06875 4.21875 5.85469C4.21875 7.97344 4.22344 8.03906 4.31719 8.23594C4.425 8.45625 4.65 8.65781 4.85625 8.71406C4.97813 8.74687 4.99219 8.77969 5.06719 9.14531C5.24531 10.0453 5.76563 10.9312 6.44531 11.4844L6.70313 11.6953V12.2437V12.7875L6.50625 12.8203C6.19688 12.8719 5.95781 12.9984 5.63906 13.2797C5.40938 13.4812 5.29219 13.5516 5.10469 13.5891C4.96875 13.6172 4.7625 13.6875 4.64531 13.7391C4.52813 13.7953 3.87188 14.0156 3.1875 14.2312C2.50313 14.4469 1.8 14.7 1.61719 14.7844C1.05938 15.0609 0.585938 15.5484 0.28125 16.1625C0.009375 16.7109 0 16.8047 0 19.4531C0 21.7781 0.0046875 21.8766 0.0984375 22.0781C0.215625 22.3359 0.473438 22.6125 0.726563 22.7484L0.914063 22.8516H9.11719H17.3203L17.5078 22.7484C17.7609 22.6125 18.0188 22.3359 18.1359 22.0781C18.2297 21.8766 18.2344 21.7781 18.2344 19.4531C18.2344 16.8047 18.225 16.7109 17.9531 16.1625C17.6344 15.525 17.1656 15.0516 16.5703 14.7703C16.3641 14.6719 15.8063 14.4703 15.3281 14.3203C14.85 14.1703 14.2922 13.9687 14.0859 13.8703C13.8563 13.7578 13.5422 13.65 13.2797 13.5984C12.8766 13.5187 12.8344 13.5 12.5766 13.2656C12.2813 12.9984 12.0375 12.8719 11.7328 12.8203L11.5313 12.7875V12.2437V11.6953L11.7656 11.5078C12.3984 11.0016 12.9516 10.0922 13.1438 9.23437C13.2422 8.775 13.2609 8.74219 13.3875 8.70469C13.6078 8.63437 13.8141 8.45156 13.9172 8.23125C14.0156 8.02969 14.0203 7.99219 14.0063 5.85469C13.9922 3.68906 13.9922 3.67969 13.8844 3.45937C13.6641 3.01406 13.2141 2.69062 12.7359 2.62969L12.4922 2.60156L12.4594 2.34844C12.3844 1.8375 12.0281 1.40156 11.5313 1.21406C11.3109 1.12969 11.1563 1.125 9.00938 1.12969C6.90938 1.12969 6.69844 1.13906 6.37969 1.21875ZM11.4188 2.00156C11.5922 2.12812 11.6953 2.32969 11.7609 2.69531C11.8031 2.92969 11.8406 3.00469 11.9906 3.14531C12.1406 3.29062 12.2203 3.32344 12.5016 3.36562C12.8766 3.41719 13.0266 3.50625 13.1672 3.75469C13.2609 3.91406 13.2656 4.00312 13.2656 5.03437V6.14062H12.9891C12.7359 6.14062 12.6984 6.12656 12.5906 5.99531C12.4828 5.86875 12.4688 5.8125 12.4688 5.48437C12.4688 4.88906 12.2859 4.52344 11.8734 4.29844C11.5078 4.10625 11.3016 4.09687 10.6781 4.26094C9.56719 4.54687 8.66719 4.54687 7.56094 4.26094C6.93281 4.09687 6.72656 4.10625 6.36094 4.29844C5.94375 4.52812 5.77031 4.86562 5.76563 5.47031C5.76563 5.8125 5.75156 5.86875 5.64375 5.99531C5.53594 6.12656 5.49844 6.14062 5.24531 6.14062H4.96875V4.95469C4.96875 3.65156 4.99219 3.4875 5.25 3.00469C5.51719 2.50781 6.09844 2.05781 6.64219 1.92656C6.74063 1.90312 7.82344 1.88437 9.04688 1.88906C11.2547 1.89844 11.2734 1.89844 11.4188 2.00156ZM7.4625 5.01094C8.55938 5.29687 9.675 5.29687 10.7719 5.01094C11.2781 4.87969 11.3156 4.87969 11.4609 4.95C11.6578 5.04375 11.7094 5.175 11.7328 5.67187C11.7516 6.11719 11.8359 6.34219 12.0656 6.57187C12.2906 6.79687 12.5391 6.89062 12.9281 6.89062H13.2656V7.37812C13.2656 7.90781 13.2234 8.01562 13.0125 8.01562C12.9516 8.01562 12.8344 8.0625 12.7453 8.12344C12.5672 8.24062 12.5156 8.38594 12.4266 8.94844C12.2766 9.91406 11.5641 10.8703 10.6406 11.3437C10.1297 11.6016 9.73594 11.6953 9.11719 11.6953C8.29688 11.6953 7.73438 11.5031 7.06875 11.0016C6.35625 10.4672 5.90625 9.68437 5.76563 8.74219C5.73281 8.53594 5.69063 8.32969 5.6625 8.28281C5.60625 8.17031 5.34844 8.01562 5.21719 8.01562C5.01094 8.01562 4.96875 7.90312 4.96875 7.37812V6.89062H5.31094C5.70469 6.89062 5.94844 6.79687 6.17344 6.5625C6.40781 6.32344 6.48281 6.11719 6.50156 5.67187C6.525 5.17969 6.57656 5.04375 6.76406 4.95C6.84844 4.90781 6.91875 4.875 6.92344 4.875C6.92813 4.875 7.17188 4.93594 7.4625 5.01094ZM8.00625 12.3094C8.84063 12.5484 9.83438 12.4922 10.7156 12.1547C10.7672 12.1359 10.7813 12.2297 10.7813 12.6609L10.7766 13.1953L9.96563 13.9453C9.52031 14.3531 9.14063 14.6906 9.11719 14.6906C9.09375 14.6906 8.70938 14.3531 8.26406 13.9453L7.45781 13.1953L7.45313 12.6609C7.45313 12.1734 7.45781 12.1312 7.5375 12.1641C7.57969 12.1781 7.79063 12.2437 8.00625 12.3094ZM7.04063 13.8469C7.75781 14.4937 8.52188 15.2156 8.51719 15.2391C8.49844 15.3094 7.70625 15.9375 7.64063 15.9375C7.53281 15.9375 7.41094 15.7969 6.67969 14.8172L6.03281 13.95L6.21563 13.7906C6.5625 13.4906 6.64688 13.4953 7.04063 13.8469ZM11.9906 13.7672C12.1031 13.8562 12.1875 13.9453 12.1781 13.9641C12.1453 14.0297 10.8984 15.6891 10.7906 15.8062C10.725 15.8812 10.6359 15.9375 10.5938 15.9375C10.5234 15.9375 9.73594 15.3094 9.71719 15.2391C9.70781 15.1969 11.4188 13.6266 11.5172 13.5844C11.6438 13.5375 11.7656 13.5891 11.9906 13.7672ZM5.23125 15.0469C5.43281 16.1812 6.02344 17.6719 6.92813 19.3219C7.275 19.9547 8.23594 21.5812 8.52188 22.0172C8.58281 22.1156 8.58281 22.125 8.49844 22.125C8.40938 22.125 7.3875 21.3328 6.73594 20.7609C6.44063 20.4984 6.34219 20.4375 6.21563 20.4375C5.84531 20.4375 5.70938 20.8125 5.98125 21.0984C6.05625 21.1781 6.34219 21.4359 6.62344 21.6703C6.9 21.9047 7.125 22.1016 7.125 22.1109C7.125 22.1203 6.34688 22.125 5.39063 22.125H3.65625V21.1406C3.65625 20.1 3.63281 19.9687 3.43594 19.8797C3.27188 19.8047 3.16875 19.8141 3.02813 19.9266L2.90625 20.0203V21.075V22.1297L1.9875 22.1156L1.06875 22.1016L0.914063 21.9328C0.792188 21.7969 0.75 21.7031 0.726563 21.5109C0.707813 21.3703 0.703125 20.3297 0.7125 19.1953C0.73125 17.2312 0.735938 17.1187 0.834375 16.8234C1.01719 16.275 1.35938 15.8344 1.84219 15.5297C2.00625 15.4266 2.9625 15.075 3.3375 14.9859L3.46406 14.9531L3.39844 15.1453C3.29531 15.4312 3.30938 15.8672 3.42656 16.1062C3.47813 16.2187 3.69844 16.4766 3.91875 16.6828C4.13438 16.8891 4.28906 17.0719 4.26563 17.0859C4.18125 17.1375 3.98438 17.5641 3.93281 17.8078C3.82031 18.3328 4.18125 19.2141 4.74844 19.8141C4.92656 20.0016 5.16094 20.025 5.32969 19.8656C5.49844 19.7062 5.47031 19.5328 5.2125 19.1766C4.58906 18.3234 4.52813 18 4.90313 17.5078C5.1 17.2547 5.15625 16.9641 5.0625 16.7344C5.02969 16.6547 4.88438 16.5 4.73906 16.3875C4.59375 16.275 4.3875 16.0875 4.27969 15.9703C4.03125 15.6984 4.02188 15.5531 4.22344 15.15C4.37813 14.8406 4.63125 14.5922 4.94063 14.4469L5.13281 14.3531L5.14688 14.5031C5.15156 14.5828 5.18906 14.8266 5.23125 15.0469ZM13.5188 14.4375C13.8703 14.5734 14.1891 14.8641 14.3484 15.2109C14.4234 15.3656 14.4844 15.5437 14.4844 15.6C14.4844 15.7641 14.3344 15.9516 13.8984 16.3125C13.575 16.5797 13.4953 16.6781 13.4531 16.8328C13.3922 17.0531 13.4484 17.2734 13.6125 17.475C13.9266 17.8453 13.95 18.1312 13.7109 18.5906C13.4813 19.0312 13.2375 19.3453 12.6563 19.9406C11.6719 20.9531 9.98438 22.3172 9.98438 22.0969C9.98438 22.0828 10.2094 21.6797 10.4813 21.2062C11.0719 20.1656 11.8031 18.7125 12.1406 17.9062C12.6375 16.7203 12.9984 15.4641 13.0641 14.6906C13.0969 14.2922 13.1063 14.2875 13.5188 14.4375ZM16.3922 15.5297C16.8797 15.8391 17.2266 16.2844 17.3906 16.8187C17.4797 17.1 17.4844 17.2594 17.4844 19.4344V21.75L17.325 21.9281L17.1656 22.1016L16.2469 22.1156L15.3281 22.1297V21.075V20.0203L15.2063 19.9266C15.0656 19.8141 14.9625 19.8047 14.7984 19.8797C14.6016 19.9687 14.5781 20.1 14.5781 21.1406V22.125H12.975H11.3672L11.5313 21.9937C12.4172 21.3 13.65 20.0719 14.0531 19.4859C14.6953 18.5531 14.7938 17.8453 14.3719 17.2031L14.2641 17.0437L14.6719 16.6406C15.1547 16.1672 15.2625 15.9469 15.2203 15.525C15.2063 15.3797 15.1781 15.2109 15.1594 15.1547C15.1313 15.0516 15.1453 15.0562 15.6656 15.2297C15.9609 15.3281 16.2891 15.4641 16.3922 15.5297ZM12.1219 15.6609C11.9906 16.1672 11.7422 16.8937 11.4984 17.4797C11.2781 18.0234 10.725 19.1719 10.6922 19.1719C10.6641 19.1719 10.125 17.1891 10.125 17.0953C10.125 17.0719 10.1906 16.9781 10.2703 16.8797C10.4016 16.7156 10.4344 16.6969 10.6875 16.6781C11.0672 16.65 11.2031 16.5422 11.7469 15.8203C12 15.4781 12.2156 15.2016 12.225 15.2109C12.2297 15.2156 12.1828 15.4172 12.1219 15.6609ZM6.53438 15.8859C7.0125 16.5234 7.16719 16.65 7.52813 16.6781C7.75781 16.6969 7.80938 16.7203 7.96406 16.8891L8.1375 17.0766L7.92188 18.0516C7.8 18.5906 7.69219 19.0453 7.67813 19.0547C7.64531 19.0875 6.94688 17.7094 6.66563 17.0625C6.46875 16.6031 6.04688 15.4031 6.04688 15.2953C6.04688 15.2437 6.1125 15.3187 6.53438 15.8859ZM9.54844 16.1391L9.74531 16.3078L9.62813 16.4531C9.51094 16.5891 9.49219 16.5937 9.12188 16.5937C8.75625 16.5937 8.72813 16.5844 8.60625 16.4578L8.475 16.3172L8.65313 16.1625C8.75156 16.0781 8.89688 15.9516 8.97656 15.8812L9.11719 15.7547L9.23438 15.8625C9.3 15.9187 9.44063 16.0406 9.54844 16.1391ZM9.6 18.1031C9.70781 18.525 9.87656 19.1766 9.97969 19.5516L10.1578 20.2312L9.75 20.9484C9.525 21.3422 9.31875 21.6844 9.29531 21.7078C9.26719 21.7359 9.075 21.4687 8.74688 20.925L8.24063 20.0953L8.50781 18.8953C8.65313 18.2344 8.79375 17.6156 8.81719 17.5172L8.86406 17.3437H9.13125H9.39844L9.6 18.1031Z" fill="white"/>
<path d="M15.0235 3.62815C14.8828 3.76877 14.8688 3.97502 14.9953 4.12971L15.0844 4.24221L17.5735 4.25627L20.0578 4.27033L20.0719 5.55002L20.086 6.8344L20.2266 7.03596C20.3063 7.14377 20.461 7.2844 20.5735 7.34533C20.775 7.44846 20.8125 7.45315 22.0406 7.45315H23.2969L23.2875 13.275C23.2735 18.8906 23.2688 19.1063 23.1844 19.2469C23.0016 19.5469 23.0156 19.5469 21.1266 19.5469C19.4719 19.5469 19.4156 19.5516 19.2938 19.6453C19.1297 19.7719 19.1203 20.0578 19.275 20.2031C19.3781 20.2969 19.411 20.3016 21.2344 20.2875L23.086 20.2735L23.3391 20.1328C23.6016 19.9875 23.836 19.7203 23.9391 19.4391C23.9766 19.3266 23.9953 17.7281 23.9953 13.1485L24 7.00783L23.8781 6.75002C23.7797 6.53908 23.5172 6.24846 22.3922 5.12815C21.5344 4.27502 20.9438 3.7219 20.8125 3.65158L20.6016 3.53908L17.8688 3.52502L15.1406 3.51096L15.0235 3.62815ZM21.8813 6.69377C21.0281 6.70315 20.925 6.69846 20.8735 6.62346C20.8266 6.56721 20.8125 6.28127 20.8125 5.60627V4.66408L21.8203 5.6719L22.8281 6.67971L21.8813 6.69377Z" fill="white"/>
<path d="M15.2718 9.14065C14.9578 9.22034 14.5218 9.47346 14.2921 9.70784C13.5749 10.4438 13.5281 11.6531 14.1843 12.4547C14.7984 13.2047 15.9937 13.4016 16.7624 12.8766C17.1843 12.5906 17.2921 12.2766 17.0437 12.061C16.8656 11.911 16.7296 11.925 16.4906 12.1219C16.2328 12.3422 16.0406 12.4219 15.7687 12.4219C15.2765 12.4219 14.8359 12.15 14.6109 11.7094C14.2828 11.0766 14.5406 10.3219 15.2015 9.97502C15.5015 9.81565 16.0171 9.82502 16.3453 9.99846C16.6499 10.1531 16.7999 10.1578 16.9453 10.0078C17.3296 9.62346 16.7484 9.15002 15.8437 9.11252C15.6234 9.10315 15.3656 9.11721 15.2718 9.14065Z" fill="white"/>
<path d="M17.9578 9.21572C17.9016 9.28603 17.8594 9.37978 17.8594 9.42197C17.8594 9.5626 19.0781 13.0501 19.1484 13.1251C19.2422 13.2142 19.5703 13.2142 19.6594 13.1251C19.7531 13.0313 20.9531 9.6001 20.9531 9.43135C20.9531 9.21103 20.8359 9.09385 20.6063 9.09385C20.475 9.09385 20.3813 9.12197 20.3297 9.17822C20.2875 9.22041 20.0672 9.79228 19.8375 10.4485C19.6078 11.1048 19.4063 11.6157 19.3922 11.5923C19.3734 11.5642 19.1813 11.0204 18.9609 10.3782C18.7359 9.72666 18.525 9.18291 18.4828 9.1501C18.4406 9.12197 18.3234 9.09385 18.2297 9.09385C18.0938 9.09385 18.0328 9.12197 17.9578 9.21572Z" fill="white"/>
</g>
<defs>
<clipPath id="clip0_22_6796">
<rect width="24" height="24" fill="white"/>
</clipPath>
</defs>
</svg>
