<svg width="20" height="20" viewBox="0 0 20 20" fill="none" xmlns="http://www.w3.org/2000/svg">
<path fill-rule="evenodd" clip-rule="evenodd" d="M2.30316 4.83129C3.57516 4.83129 4.60632 3.80013 4.60632 2.52813C4.60632 1.25613 3.57516 0.224976 2.30316 0.224976C1.03116 0.224976 0 1.25613 0 2.52813C0 3.80013 1.03116 4.83129 2.30316 4.83129ZM6.78105 6.57655V19.3545H10.7484V13.0355C10.7484 11.3681 11.0621 9.7534 13.1295 9.7534C15.1684 9.7534 15.1937 11.6597 15.1937 13.1408V19.3555H19.1632V12.3481C19.1632 8.90603 18.4221 6.26077 14.3989 6.26077C12.4674 6.26077 11.1726 7.32077 10.6432 8.32392H10.5895V6.57655H6.78105ZM0.315789 6.57655H4.28947V19.3545H0.315789V6.57655Z" fill="white"/>
</svg>
