<svg width="16" height="16" viewBox="0 0 16 16" fill="none" xmlns="http://www.w3.org/2000/svg">
<path d="M12.6667 2.66666H3.33333C2.59695 2.66666 2 3.26361 2 3.99999V13.3333C2 14.0697 2.59695 14.6667 3.33333 14.6667H12.6667C13.403 14.6667 14 14.0697 14 13.3333V3.99999C14 3.26361 13.403 2.66666 12.6667 2.66666Z" stroke="#016DEA" stroke-linecap="round" stroke-linejoin="round"/>
<path d="M6.5 8.99997L6.83677 10.0364H7.92658L7.04491 10.677L7.38168 11.7135L6.5 11.0729L5.61832 11.7135L5.95509 10.677L5.07342 10.0364H6.16323L6.5 8.99997Z" fill="#016DEA"/>
<path d="M10.668 1.33334V4.00001" stroke="#016DEA" stroke-width="2" stroke-linecap="round" stroke-linejoin="round"/>
<path d="M5.33203 1.33334V4.00001" stroke="#016DEA" stroke-width="2" stroke-linecap="round" stroke-linejoin="round"/>
<path d="M2 6.66666H14" stroke="#016DEA" stroke-linecap="round" stroke-linejoin="round"/>
</svg>
