<svg width="24" height="24" viewBox="0 0 24 24" fill="none" xmlns="http://www.w3.org/2000/svg">
<g clip-path="url(#clip0_4907_92759)">
<path d="M9.63223 1.17651C8.41817 1.58901 7.3963 1.95464 7.3588 1.99214C7.26036 2.09526 7.27442 2.38589 7.38692 2.47964C7.43848 2.52183 7.87911 2.69058 8.35723 2.85464L9.2338 3.14995V3.97964C9.2338 4.43433 9.21036 4.87964 9.18692 4.9687C9.11192 5.22183 9.12598 6.03276 9.21036 6.34683C9.39786 7.04995 9.99786 7.81401 10.626 8.14683C11.4604 8.58745 12.5385 8.58745 13.3729 8.14683C14.001 7.81401 14.601 7.04995 14.7885 6.34683C14.8729 6.03276 14.8869 5.22183 14.8119 4.9687C14.7885 4.87964 14.765 4.43433 14.765 3.97495V3.14995L15.3979 2.93901L16.0307 2.72339V3.86245V4.99683L15.8432 5.47964C15.74 5.74214 15.6557 5.96714 15.6557 5.97651C15.6557 5.98589 15.6885 6.02808 15.7307 6.06558C15.8385 6.17339 16.8791 6.17339 16.9869 6.06558C17.0854 5.97183 17.0854 5.97183 16.9119 5.57339L16.7572 5.22651L16.7338 3.64683C16.715 2.31089 16.701 2.05308 16.64 1.99214C16.5416 1.8937 12.1682 0.421825 11.9854 0.426514C11.901 0.426514 10.8463 0.764013 9.63223 1.17651ZM13.6025 1.6687C14.4885 1.9687 15.215 2.22183 15.2244 2.22651C15.2291 2.2312 14.5072 2.48433 13.6213 2.78901L12.0041 3.33745L10.3775 2.78433C9.48223 2.47964 8.76973 2.22651 8.79317 2.21714C8.81661 2.20776 9.54317 1.95933 10.4057 1.66401C11.2682 1.37339 11.9807 1.12964 11.9854 1.12964C11.99 1.12495 12.7166 1.3687 13.6025 1.6687ZM13.0307 3.74058L14.0619 3.38901V3.93745V4.48589L13.7713 4.53745C12.7869 4.71558 11.3479 4.72964 10.4197 4.57026L9.93692 4.48589V3.93276V3.38433L10.9682 3.73589L11.9947 4.09214L13.0307 3.74058ZM10.3963 5.28276C11.0619 5.39995 12.9088 5.39995 13.6072 5.28276C13.8885 5.23589 14.1275 5.20776 14.1369 5.21714C14.1838 5.26401 14.1604 5.95308 14.1088 6.14995C13.9119 6.88589 13.2744 7.5187 12.5385 7.71089C11.1041 8.0812 9.72598 6.90464 9.8338 5.39995C9.84317 5.29214 9.86661 5.20308 9.89473 5.20308C9.91817 5.20308 10.1432 5.24058 10.3963 5.28276Z" fill="white"/>
<path d="M11.3624 9.28124C10.2374 9.40312 9.23432 9.82499 8.28745 10.5797L7.97339 10.8281L7.05932 10.6172C6.55776 10.5 6.09839 10.4062 6.03745 10.4062C5.97182 10.4062 5.87339 10.4578 5.81245 10.5234L5.69995 10.6453L5.87807 12.0375C5.97651 12.8016 6.06557 13.4672 6.07495 13.5094C6.08901 13.5562 6.06089 13.5984 6.00932 13.6125C5.8687 13.6594 5.58745 13.9547 5.47495 14.1703C5.34839 14.4187 5.33901 14.8922 5.4562 15.1641C5.59214 15.4781 6.0187 15.8437 6.25307 15.8437C6.35151 15.8437 6.40307 15.9609 6.44057 16.2656C6.45464 16.4062 6.48276 16.6172 6.50151 16.7297L6.52964 16.9312L6.13589 16.9031C4.79995 16.7906 3.6562 16.6359 2.62026 16.4203C1.92182 16.2797 1.71089 16.2937 1.38276 16.5094C0.768698 16.9172 0.374948 18.1359 0.435885 19.4484C0.492135 20.7187 0.909323 21.6797 1.52339 21.9656C1.80932 22.1016 2.05307 22.1062 2.60151 21.9891C4.19057 21.6422 5.99526 21.4687 8.96714 21.375C10.8093 21.3141 10.5656 21.2391 10.9218 21.9609C11.1421 22.4062 11.3437 23.0156 11.3437 23.2312C11.3437 23.4141 11.5171 23.5781 11.7093 23.5781C11.8687 23.5781 11.9249 23.5359 12.3046 23.1562C12.5343 22.9266 12.7406 22.7344 12.7593 22.7344C12.7781 22.7344 13.1203 22.9266 13.5187 23.1562C14.3015 23.6109 14.4843 23.6625 14.6484 23.4844C14.7187 23.4094 14.7281 23.3391 14.7046 23.0953C14.6718 22.7531 14.4515 22.0406 14.2546 21.6328C14.1749 21.4781 14.1187 21.3516 14.1234 21.3516C14.1281 21.3469 14.6718 21.3609 15.3281 21.3797C17.7937 21.4547 19.7953 21.6469 21.2578 21.9562C21.9562 22.1062 22.1765 22.1062 22.4765 21.9656C22.7765 21.8297 22.9921 21.5812 23.189 21.1547C23.4796 20.5219 23.5546 20.1094 23.5499 19.1016C23.5499 18.3375 23.5312 18.1594 23.4468 17.8359C23.2218 17.0109 22.8515 16.5328 22.3312 16.3781C22.0593 16.2984 22.0406 16.3031 21.2812 16.425C20.039 16.6266 17.5546 16.9125 17.5031 16.8609C17.4749 16.8328 17.5781 16.0641 17.6249 15.9469C17.6484 15.8906 17.7046 15.8437 17.7421 15.8437C17.9953 15.8437 18.4546 15.4312 18.5671 15.1125C18.6609 14.8312 18.6421 14.4 18.5249 14.1703C18.4124 13.95 18.1312 13.6594 17.9906 13.6125C17.939 13.5984 17.9109 13.5562 17.9249 13.5094C17.9343 13.4672 18.0234 12.8016 18.1218 12.0375L18.2999 10.6453L18.1874 10.5234C18.1265 10.4578 18.0281 10.4062 17.9624 10.4062C17.9015 10.4062 17.4421 10.5 16.9406 10.6172L16.0312 10.8281L15.6562 10.5328C14.4234 9.5578 12.9187 9.11718 11.3624 9.28124ZM12.5859 9.98905C13.0828 10.05 13.664 10.2094 14.0999 10.4109C14.4515 10.5656 15.0937 10.9547 15.0937 11.0109C15.0937 11.0297 14.3999 11.2031 13.5468 11.4L11.9999 11.7562L10.4531 11.4C9.60464 11.2031 8.9062 11.0297 8.9062 11.0109C8.9062 10.9547 9.54839 10.5656 9.90464 10.4062C10.4953 10.1391 11.2828 9.96093 11.9296 9.94218C12.0609 9.94218 12.3562 9.96093 12.5859 9.98905ZM9.07026 11.8031L11.6484 12.3984L11.6624 14.7375L11.6718 17.0766L9.85776 17.0484C8.85464 17.0297 7.8562 17.0016 7.63589 16.9875L7.23745 16.9547L7.16245 16.3875C7.09682 15.8719 7.09682 15.8156 7.16245 15.7734C7.58901 15.5016 7.80464 15.1172 7.79995 14.6484C7.79526 14.1469 7.4437 13.6781 6.97026 13.5375C6.76401 13.4766 6.78745 13.5656 6.63276 12.3516C6.56714 11.8359 6.5062 11.3672 6.49682 11.3062C6.48745 11.25 6.48276 11.2031 6.48745 11.2031C6.48745 11.2078 7.65464 11.475 9.07026 11.8031ZM17.5078 11.3062C17.4984 11.3672 17.4328 11.8359 17.3671 12.3516C17.2124 13.5656 17.2359 13.4766 17.0296 13.5375C16.5562 13.6781 16.2046 14.1469 16.1999 14.6484C16.1953 15.1172 16.4109 15.5062 16.8374 15.7734C16.9078 15.8156 16.9078 15.8672 16.8374 16.3641L16.7671 16.9125L16.4343 16.9406C15.8953 16.9875 13.8656 17.0625 13.064 17.0625H12.3281L12.3374 14.7328L12.3515 12.4031L14.9062 11.8078C16.3124 11.4797 17.4749 11.2125 17.4984 11.2078C17.5171 11.2078 17.5218 11.25 17.5078 11.3062ZM6.90464 14.2969C7.39214 14.6812 6.88589 15.4078 6.33276 15.1172C6.13589 15.0187 6.02807 14.7562 6.0937 14.5547C6.1687 14.3297 6.34214 14.2031 6.58589 14.2031C6.71245 14.2031 6.82495 14.2359 6.90464 14.2969ZM17.7328 14.2969C17.9203 14.4422 17.9765 14.6766 17.8781 14.8828C17.6859 15.2859 17.1093 15.2812 16.9406 14.8734C16.7999 14.5406 17.039 14.2031 17.414 14.2031C17.5406 14.2031 17.6531 14.2359 17.7328 14.2969ZM2.20307 17.1187C2.34839 17.2219 2.57807 17.5734 2.64839 17.7984C2.67651 17.8969 2.66245 17.9062 2.49839 17.9062C2.25464 17.9109 1.95932 18.0516 1.81401 18.2391C1.56089 18.5766 1.47651 19.2141 1.61714 19.7578C1.72964 20.1844 1.76245 20.2031 2.3062 20.2031H2.76557L2.73745 20.3297C2.67651 20.5875 2.38589 21.1359 2.24526 21.2531C2.06245 21.4078 1.92182 21.4078 1.73432 21.2531C1.26557 20.8547 0.98901 19.4156 1.19526 18.4172C1.34057 17.6859 1.57026 17.2078 1.82807 17.0766C1.98745 16.9969 2.02495 17.0016 2.20307 17.1187ZM22.1953 17.0812C22.4109 17.175 22.6031 17.4844 22.739 17.9672C22.8374 18.3 22.8515 18.4547 22.8515 19.125C22.8515 19.7859 22.8374 19.9547 22.7437 20.2875C22.6124 20.775 22.4531 21.0937 22.2656 21.2531C22.0828 21.4031 22.0499 21.4031 21.3749 21.2625C19.8984 20.9484 17.7843 20.7469 15.2484 20.6812C14.5499 20.6625 13.964 20.6344 13.9499 20.625C13.9406 20.6109 13.964 20.4656 14.0062 20.2969C14.1187 19.8375 14.1046 18.6609 13.9781 18.1641C13.9265 17.9578 13.889 17.7844 13.8984 17.775C13.9031 17.7656 14.1281 17.7516 14.3953 17.7375C16.3734 17.6531 17.1234 17.6109 18.0468 17.5312C19.2656 17.4234 20.3531 17.2922 21.2671 17.1375C22.0734 17.0016 22.0031 17.0016 22.1953 17.0812ZM4.05464 17.3859C5.48901 17.5781 7.13432 17.6859 9.33745 17.7469L10.5374 17.7797L10.6781 18.0891C10.9124 18.6094 10.9968 19.1391 10.9218 19.6078C10.8703 19.95 10.6734 20.4937 10.5703 20.5781C10.5374 20.6062 9.91401 20.6437 8.94839 20.6719C6.68432 20.7422 4.91714 20.8734 3.67026 21.0703C3.4312 21.1078 3.22495 21.1406 3.21557 21.1406C3.20151 21.1406 3.23432 21.0422 3.29057 20.925C3.45932 20.5406 3.56245 19.9031 3.56245 19.2422C3.56245 18.525 3.51089 18.1641 3.33276 17.6344C3.22964 17.3203 3.22026 17.2547 3.27651 17.2734C3.3187 17.2828 3.67026 17.3344 4.05464 17.3859ZM13.2093 18.0562C13.4343 18.7734 13.4578 19.5797 13.2796 20.2734L13.1953 20.6016L12.2953 20.6156C11.7984 20.6203 11.3906 20.6156 11.3906 20.6016C11.3906 20.5875 11.4328 20.4469 11.4843 20.2922C11.7093 19.6312 11.6999 18.8391 11.4609 18.1406C11.3953 17.9484 11.3437 17.7891 11.3437 17.7797C11.3437 17.7703 11.7421 17.7656 12.2343 17.7656H13.1203L13.2093 18.0562ZM2.77495 18.6891C2.84057 18.75 2.85932 18.8344 2.85932 19.1344V19.5047L2.5687 19.4906L2.27339 19.4766L2.27807 19.1391C2.27807 18.8766 2.30151 18.7781 2.36714 18.7031C2.47026 18.5906 2.65776 18.5812 2.77495 18.6891ZM13.4343 21.6422C13.6265 21.9656 13.8468 22.4484 13.8187 22.4766C13.8093 22.4859 13.5703 22.3594 13.289 22.1906C12.6562 21.8203 12.614 21.8203 12.2062 22.2234L11.9203 22.5047L11.8124 22.2094C11.7562 22.0453 11.6437 21.7922 11.5734 21.6469C11.4984 21.4969 11.4374 21.3656 11.4374 21.3516C11.4374 21.3375 11.8453 21.3281 12.3421 21.3281H13.2468L13.4343 21.6422Z" fill="white"/>
</g>
<defs>
<clipPath id="clip0_4907_92759">
<rect width="24" height="24" fill="white"/>
</clipPath>
</defs>
</svg>
