<svg width="16" height="16" viewBox="0 0 16 16" fill="none" xmlns="http://www.w3.org/2000/svg">
<g clip-path="url(#clip0_4615_55204)">
<path d="M9.4125 0.224996C8.1125 0.687496 7.2125 1.525 6.575 2.875C6.225 3.6125 6.1875 3.8 6.1875 4.875C6.2 6.5125 6.5 7.275 7.6125 8.3875C8.7125 9.4875 9.475 9.8 11.1375 9.8C12.2625 9.8125 12.375 9.7875 13.275 9.3375C14.3625 8.8 15.05 8.1125 15.5875 7.0125C15.9 6.375 15.9375 6.1875 15.9375 4.9375C15.9375 3.6875 15.9 3.4875 15.5875 2.8C15.1375 1.8375 14.175 0.874996 13.1875 0.412496C12.2 -0.050004 10.425 -0.137504 9.4125 0.224996ZM12.9375 0.999996C13.7375 1.3875 14.6125 2.2625 15 3.0625C15.275 3.6 15.3125 3.8625 15.3125 4.9375C15.3125 6.0875 15.2875 6.2375 14.9375 6.85C13.175 10.0375 8.8 9.9875 7.225 6.775C6.85 6.025 6.8125 5.8375 6.8125 4.875C6.825 3.975 6.875 3.7 7.1625 3.1C7.6 2.2125 8.6375 1.2375 9.5375 0.887496C10.475 0.512496 12.0625 0.562496 12.9375 0.999996Z" fill="#016DEA"/>
<path d="M10.7495 2.175C10.7495 2.7125 10.7245 2.75 10.4245 2.75C9.3745 2.75 8.887 4.125 9.687 4.875C9.937 5.1 10.187 5.1875 10.937 5.2375C11.5745 5.3 11.9245 5.3875 11.9995 5.5C12.3495 6.05 11.9245 6.5 11.0745 6.5C10.337 6.5 10.062 6.3625 9.8995 5.875C9.762 5.475 9.6745 5.4375 9.387 5.6125C8.937 5.9 9.7745 7.125 10.437 7.125C10.6995 7.125 10.737 7.1875 10.7745 7.65C10.7995 8.0875 10.862 8.1875 11.062 8.1875C11.262 8.1875 11.3245 8.0875 11.3495 7.675C11.387 7.1875 11.4245 7.15 11.812 7.075C12.7495 6.9 13.087 5.6875 12.387 4.9875C12.0495 4.6625 11.937 4.625 11.1995 4.625C10.537 4.625 10.3245 4.575 10.1245 4.375C9.8245 4.075 9.8245 4.0125 10.0745 3.65C10.237 3.4125 10.3745 3.375 11.0495 3.375C11.862 3.375 12.062 3.475 12.1495 3.9375C12.1745 4.0875 12.312 4.2 12.4745 4.225C12.712 4.2625 12.7495 4.2125 12.7495 3.8875C12.7495 3.375 12.1995 2.75 11.7495 2.75C11.412 2.75 11.387 2.7125 11.3495 2.2125C11.3245 1.775 11.262 1.675 11.037 1.65C10.7745 1.6125 10.7495 1.6625 10.7495 2.175Z" fill="#016DEA"/>
<path d="M4.0625 9.925C2.6125 10.5375 2.425 10.5875 2.2875 10.4125C2.2 10.3 2.1125 10.15 2.0875 10.075C2.0375 9.9375 1.6125 10.05 0.5375 10.5125C0.15 10.675 0 10.8125 0 11C0 11.325 0.3 11.325 1.075 11C1.4 10.8625 1.675 10.7625 1.7 10.7875C1.7625 10.85 3.375 14.775 3.375 14.8625C3.375 14.9 3.0375 15.075 2.625 15.225C2.075 15.45 1.875 15.5875 1.875 15.7625C1.875 16.1 2.25 16.075 3.275 15.6625C4.15 15.325 4.275 15.15 4 14.6375C3.9 14.4375 3.975 14.3625 4.5125 14.1375L5.15 13.875L6.95 14.5625C7.95 14.9375 8.925 15.25 9.1375 15.25C10.0375 15.25 15.575 12.6875 15.875 12.125C16.075 11.7375 16.025 11.15 15.75 10.875C15.4125 10.5375 15.0125 10.5625 13.625 10.9875C12.975 11.1875 12.0875 11.45 11.675 11.55L10.9 11.75L10.175 11.2625C9.7625 11 8.8625 10.45 8.15 10.0625C6.3625 9.0625 6.15 9.05 4.0625 9.925ZM6.7875 10.075C7.0125 10.1875 7.875 10.675 8.725 11.1625C10.1 11.9625 10.2625 12.0875 10.225 12.375C10.175 12.825 9.8 12.825 8.8 12.375C7.9125 11.975 7.4375 11.925 7.4375 12.25C7.4375 12.525 9.2 13.3625 9.8 13.3625C10.3375 13.375 10.875 13 10.875 12.6125C10.875 12.4625 11.05 12.3625 11.475 12.2625C11.8 12.1875 12.75 11.9125 13.6 11.6625C14.775 11.325 15.175 11.25 15.2875 11.3625C15.3875 11.4625 15.4 11.5625 15.3 11.725C15.1125 12.025 11.4 13.875 10.125 14.3125L9.05 14.6625L7.1375 13.9375L5.2125 13.2L4.575 13.425C4.225 13.55 3.875 13.675 3.8 13.7125C3.6875 13.75 2.825 11.9125 2.725 11.3875C2.6875 11.2 5.6 9.9 6.1 9.8875C6.2625 9.875 6.5625 9.9625 6.7875 10.075Z" fill="#016DEA"/>
</g>
<defs>
<clipPath id="clip0_4615_55204">
<rect width="16" height="16" fill="white"/>
</clipPath>
</defs>
</svg>
