<svg width="16" height="16" viewBox="0 0 16 16" fill="none" xmlns="http://www.w3.org/2000/svg">
<path d="M4.22796 3.29245C4.48831 3.55279 4.48831 3.9749 4.22796 4.23525C2.1445 6.31872 2.1445 9.69669 4.22796 11.7802C4.48831 12.0405 4.48831 12.4626 4.22796 12.723C3.96762 12.9833 3.54551 12.9833 3.28516 12.723C0.68099 10.1188 0.68099 5.89661 3.28516 3.29245C3.54551 3.0321 3.96762 3.0321 4.22796 3.29245ZM12.7157 3.29245C15.3198 5.89661 15.3198 10.1188 12.7157 12.723C12.4553 12.9833 12.0332 12.9833 11.7729 12.723C11.5125 12.4626 11.5125 12.0405 11.7729 11.7802C13.8563 9.69669 13.8563 6.31872 11.7729 4.23525C11.5125 3.9749 11.5125 3.55279 11.7729 3.29245C12.0332 3.0321 12.4553 3.0321 12.7157 3.29245ZM6.20573 5.20803C6.46608 5.46838 6.46608 5.89049 6.20573 6.15084C5.18509 7.17148 5.18509 8.82627 6.20573 9.84691C6.46608 10.1073 6.46608 10.5294 6.20573 10.7897C5.94538 11.0501 5.52327 11.0501 5.26292 10.7897C3.72158 9.24838 3.72158 6.74937 5.26292 5.20803C5.52327 4.94768 5.94538 4.94768 6.20573 5.20803ZM10.8446 5.20803C12.386 6.74937 12.386 9.24838 10.8446 10.7897C10.5843 11.0501 10.1622 11.0501 9.9018 10.7897C9.64145 10.5294 9.64145 10.1073 9.9018 9.84691C10.9224 8.82627 10.9224 7.17148 9.9018 6.15084C9.64145 5.89049 9.64145 5.46838 9.9018 5.20803C10.1622 4.94768 10.5843 4.94768 10.8446 5.20803ZM8.05377 7.05431C8.60605 7.05431 9.05377 7.50203 9.05377 8.05431C9.05377 8.6066 8.60605 9.05431 8.05377 9.05431C7.50148 9.05431 7.05377 8.6066 7.05377 8.05431C7.05377 7.50203 7.50148 7.05431 8.05377 7.05431Z" fill="#FA0101"/>
</svg>
