<svg width="20" height="20" viewBox="0 0 20 20" fill="none" xmlns="http://www.w3.org/2000/svg">
<g clip-path="url(#clip0_22_7345)">
<path d="M8.4998 3.20312C7.51542 3.70312 6.9998 4.45312 6.90605 5.54687C6.8123 6.64062 7.07792 7.35937 7.8123 8.03125C10.1248 10.1094 13.6248 8.01562 12.8279 5.03125C12.3279 3.17187 10.281 2.3125 8.4998 3.20312ZM10.6717 3.8125C12.2654 4.46875 12.6092 6.35937 11.3279 7.48437C10.6248 8.09375 9.9373 8.21875 9.09355 7.89062C7.29667 7.17187 7.1873 4.82812 8.90605 3.9375C9.70292 3.53125 9.98417 3.51562 10.6717 3.8125Z" fill="white"/>
<path d="M15.078 5.0625C13.8593 5.59375 13.3437 6.96875 13.8905 8.1875C14.2968 9.10938 14.9687 9.53125 16.0312 9.53125C18.4687 9.53125 19.3437 6.40625 17.2499 5.20312C16.5624 4.8125 15.7812 4.75 15.078 5.0625ZM16.8437 5.9375C17.7812 6.51562 17.9062 7.4375 17.1249 8.21875C16.7187 8.625 16.4687 8.75 16.0155 8.75C14.4999 8.75 13.9374 6.59375 15.2812 5.875C15.8593 5.54688 16.2343 5.57812 16.8437 5.9375Z" fill="white"/>
<path d="M2.74977 5.35938C0.656023 6.5625 1.53102 9.6875 3.96852 9.6875C5.03102 9.6875 5.7029 9.26562 6.10915 8.34375C7.06227 6.21875 4.78102 4.1875 2.74977 5.35938ZM4.49977 5.95312C5.53102 6.3125 5.81227 7.65625 5.0154 8.45312C4.5154 8.9375 3.90602 9.04688 3.23415 8.73438C2.8279 8.54688 2.34352 7.84375 2.34352 7.42188C2.34352 6.98438 2.79665 6.26562 3.24977 6.03125C3.7654 5.75 3.8904 5.73438 4.49977 5.95312Z" fill="white"/>
<path d="M8.67176 9.28125C7.79676 9.5 7.34364 9.71875 6.59364 10.2656C6.09364 10.6406 6.07801 10.6406 5.28114 10.375C4.29676 10.0469 2.96864 10.1406 2.07801 10.5938C1.35926 10.9688 0.531138 11.8594 0.218638 12.5938C-0.0626118 13.25 -0.0782368 15.6406 0.187388 15.9062C0.312388 16.0312 1.04676 16.0938 2.45301 16.0938C4.20301 16.0938 4.53114 16.125 4.53114 16.3281C4.53114 16.4531 4.67176 16.7031 4.84364 16.875C5.14051 17.1719 5.35926 17.1875 9.99989 17.1875C14.6405 17.1875 14.8593 17.1719 15.1561 16.875C15.328 16.7031 15.4686 16.4219 15.4686 16.25C15.4686 15.9531 15.578 15.9375 17.3905 15.9375C19.9374 15.9375 19.9999 15.8906 19.9999 14.1562C19.9999 12.1406 19.2499 10.9219 17.5936 10.2344C16.828 9.90625 15.2343 9.90625 14.4218 10.2344C13.7968 10.4844 13.7968 10.4844 12.9999 9.98438C12.1874 9.48438 10.7499 9.0625 9.92176 9.07812C9.67176 9.07812 9.10926 9.17188 8.67176 9.28125ZM11.9218 10.3438C12.8905 10.7656 14.1093 12.0938 14.453 13.1094C14.6249 13.625 14.6874 14.2656 14.6561 15.0938L14.6093 16.3281H9.99989H5.39051L5.34364 15.0938C5.28114 13.5156 5.59364 12.5938 6.51551 11.5625C7.98426 9.9375 9.90614 9.5 11.9218 10.3438ZM17.4843 11.0938C18.6874 11.7031 19.2811 12.8281 19.1874 14.2969L19.1405 15.0781L17.328 15.125L15.5155 15.1719L15.4374 14.0625C15.3749 13.2344 15.2343 12.7031 14.8749 12.0312L14.4061 11.1094L14.8124 10.9531C15.5468 10.6875 16.8436 10.75 17.4843 11.0938ZM4.87489 11.125C5.20301 11.2188 5.45301 11.3438 5.42176 11.3906C4.90614 12.3281 4.62489 13.2031 4.56239 14.1719L4.48426 15.3125H2.64051H0.781138V14.3594C0.781138 13.25 1.04676 12.6094 1.78114 11.8906C2.65614 11.0469 3.71864 10.7812 4.87489 11.125Z" fill="white"/>
</g>
<defs>
<clipPath id="clip0_22_7345">
<rect width="20" height="20" fill="white"/>
</clipPath>
</defs>
</svg>
