<svg width="16" height="16" viewBox="0 0 16 16" fill="none" xmlns="http://www.w3.org/2000/svg">
<path d="M10.5168 0.989705H8.49455V0H7.50485V0.989705H5.48258L2.25684 4.0123V16H13.7426V4.0123L10.5168 0.989705ZM12.7528 15.0103H3.24654V4.4412L5.87385 1.97941H7.50485V4.72162H8.49455V1.97941H10.1256L12.7529 4.44124V15.0103H12.7528Z" fill="#016DEA"/>
<path d="M7.64294 8.20026C7.64294 7.38167 6.97697 6.7157 6.15839 6.7157C5.3398 6.7157 4.67383 7.38167 4.67383 8.20026C4.67383 9.01884 5.3398 9.68481 6.15839 9.68481C6.97697 9.68481 7.64294 9.01884 7.64294 8.20026ZM5.66353 8.20026C5.66353 7.92739 5.88552 7.7054 6.15839 7.7054C6.43125 7.7054 6.65324 7.92739 6.65324 8.20026C6.65324 8.47312 6.43125 8.69511 6.15839 8.69511C5.88552 8.69511 5.66353 8.47312 5.66353 8.20026Z" fill="#016DEA"/>
<path d="M8.35645 11.8831C8.35645 12.7016 9.02242 13.3676 9.841 13.3676C10.6596 13.3676 11.3256 12.7016 11.3256 11.8831C11.3256 11.0645 10.6596 10.3985 9.841 10.3985C9.02242 10.3985 8.35645 11.0645 8.35645 11.8831ZM10.3359 11.8831C10.3359 12.1559 10.1139 12.3779 9.841 12.3779C9.56814 12.3779 9.34615 12.1559 9.34615 11.8831C9.34615 11.6102 9.56814 11.3882 9.841 11.3882C10.1139 11.3882 10.3359 11.6102 10.3359 11.8831Z" fill="#016DEA"/>
<path d="M6.07091 12.6706L5.37109 11.9708L9.92885 7.41299L10.6287 8.11281L6.07091 12.6706Z" fill="#016DEA"/>
</svg>
