<svg width="16" height="16" viewBox="0 0 16 16" fill="none" xmlns="http://www.w3.org/2000/svg">
<g clip-path="url(#clip0_5020_183356)">
<path d="M7.26562 0.0531249C6.9875 0.2 6.91875 0.359375 6.89375 0.921875C6.88438 1.14375 6.85313 1.4625 6.82812 1.625C6.76875 1.9875 6.61563 2.58125 6.5375 2.75938C6.45938 2.92812 6.30313 3.14062 6.20938 3.20312C6.14062 3.24688 6.125 3.24375 5.98125 3.16562L5.82812 3.07812L5.10625 3.06875C4.64688 3.0625 4.33438 3.07188 4.25313 3.09375C4.06875 3.14375 3.875 3.30625 3.775 3.49688L3.6875 3.6625V5.09063V6.51875L3.76875 6.68125C3.8125 6.77187 3.9 6.88437 3.9625 6.9375C4.16563 7.10313 4.28438 7.125 5.02813 7.125C5.4 7.125 5.75625 7.10938 5.81875 7.09375C5.88438 7.075 5.99688 7.0125 6.075 6.95312C6.20938 6.85313 6.21563 6.85 6.26562 6.90625C6.29375 6.9375 6.39062 6.99688 6.47813 7.0375L6.64062 7.10938H8.51562C10.3156 7.10938 10.3969 7.10625 10.5156 7.04688C10.6906 6.9625 10.8625 6.77187 10.9188 6.60312C10.9781 6.43125 10.9813 6.14687 10.9281 6.01875C10.8906 5.93125 10.8938 5.91875 11.0219 5.79062C11.2313 5.575 11.2969 5.2875 11.2063 4.98438C11.1594 4.8375 11.1594 4.8375 11.25 4.7625C11.4031 4.63125 11.5 4.39375 11.5 4.15C11.5 3.94687 11.4188 3.6875 11.3406 3.6375C11.325 3.62812 11.3375 3.58437 11.3688 3.5375C11.4719 3.38437 11.5031 3.27187 11.5031 3.06875C11.5031 2.70937 11.2969 2.40937 10.9719 2.29688C10.8594 2.25938 10.6469 2.25 9.82188 2.25H8.8125V1.83437C8.8125 1.34375 8.75313 1.05312 8.57188 0.6875C8.42812 0.39375 8.16563 0.125 7.95 0.0499997C7.75938 -0.015625 7.39062 -0.015625 7.26562 0.0531249ZM7.80312 0.625C7.93125 0.703125 8.04688 0.878125 8.15 1.14687C8.22188 1.34062 8.23125 1.41563 8.24688 2.00625C8.26562 2.63438 8.26875 2.65312 8.34063 2.73125L8.41563 2.8125H9.56875C10.3875 2.8125 10.7438 2.82188 10.7906 2.85C10.9469 2.93125 10.9813 3.09062 10.8719 3.23125C10.8094 3.3125 10.8063 3.3125 10.3656 3.3125C9.84063 3.3125 9.70625 3.34063 9.64062 3.46875C9.58437 3.57812 9.58125 3.62812 9.63125 3.73438C9.69688 3.88125 9.79688 3.90625 10.3125 3.90625C10.7719 3.90625 10.7875 3.90937 10.8594 3.98438C10.9031 4.025 10.9375 4.09375 10.9375 4.1375C10.9375 4.36875 10.8406 4.40625 10.25 4.40625H9.775L9.68438 4.49688C9.57188 4.6125 9.56563 4.74375 9.66875 4.86562C9.74375 4.95 9.75313 4.95312 10.1375 4.96875C10.475 4.98125 10.5375 4.99375 10.5906 5.04688C10.6969 5.15312 10.7031 5.25937 10.6094 5.36875L10.525 5.46875H10.2063C10.0281 5.46875 9.84063 5.48438 9.78438 5.50312C9.6875 5.5375 9.59375 5.66562 9.59375 5.76562C9.59375 5.86563 9.6875 5.99375 9.78438 6.02812C9.84063 6.04688 9.96875 6.0625 10.0687 6.0625C10.2219 6.0625 10.2656 6.075 10.3281 6.14062C10.4344 6.24375 10.4281 6.35938 10.3156 6.47188L10.2219 6.5625L8.49062 6.55625L6.7625 6.54688L6.64688 6.46875C6.58438 6.42812 6.50625 6.34062 6.47187 6.27812C6.40937 6.16875 6.40625 6.11563 6.40625 4.9875V3.80938L6.65313 3.56875C6.92188 3.30312 7.03437 3.11562 7.16563 2.70312C7.33125 2.16875 7.46875 1.34687 7.46875 0.8625C7.46875 0.721875 7.47813 0.59375 7.49063 0.584375C7.53125 0.540625 7.70625 0.565625 7.80312 0.625ZM5.69375 3.65937C5.83438 3.73438 5.84375 3.82812 5.84375 5.09375C5.84375 6.39062 5.83438 6.46875 5.67188 6.53125C5.55313 6.575 4.48125 6.57187 4.39688 6.525C4.25 6.45 4.25313 6.45937 4.25313 5.09375C4.25313 3.73438 4.25 3.74375 4.39062 3.6625C4.475 3.61562 5.60312 3.6125 5.69375 3.65937Z" fill="#016DEA"/>
<path d="M2.14766 7.14062C1.23828 7.31249 0.466406 8.04687 0.250781 8.94062C0.166406 9.29687 0.166406 9.80937 0.250781 10.1406C0.485156 11.0531 1.20703 11.7375 2.13516 11.925C2.43828 11.9875 2.97266 11.9687 3.26641 11.8906C4.40391 11.5812 5.17891 10.4344 5.03516 9.27187C4.93203 8.42187 4.44766 7.72812 3.70391 7.35937C3.55078 7.28437 3.33828 7.19999 3.23516 7.17187C2.96016 7.09999 2.44141 7.08437 2.14766 7.14062ZM3.18516 7.76562C3.77578 7.95312 4.26328 8.47499 4.42266 9.08437C4.48203 9.31562 4.48203 9.74999 4.42266 9.98437C4.25078 10.6562 3.72891 11.1687 3.03828 11.3469C2.73828 11.4219 2.47891 11.4219 2.17578 11.3437C1.82578 11.2562 1.58203 11.1156 1.31016 10.8437C0.719531 10.2625 0.585156 9.45312 0.953906 8.70312C1.15078 8.29999 1.50703 7.97499 1.94453 7.80312C2.35078 7.64062 2.74766 7.62812 3.18516 7.76562Z" fill="#016DEA"/>
<path d="M1.60938 8.7969C1.55 8.85315 1.53125 8.90627 1.53125 9.00002C1.53125 9.26565 1.8125 9.37815 2.00313 9.19065C2.11875 9.07502 2.12187 8.94377 2.0125 8.81565C1.90625 8.68752 1.725 8.67815 1.60938 8.7969Z" fill="#016DEA"/>
<path d="M3.22812 8.79372C3.15938 8.8531 3.14062 8.89372 3.14062 8.99997C3.14062 9.10622 3.15938 9.14685 3.22812 9.20622C3.38125 9.33747 3.59688 9.29372 3.67188 9.1156C3.79375 8.82497 3.46563 8.5906 3.22812 8.79372Z" fill="#016DEA"/>
<path d="M1.62813 10.05C1.55 10.1156 1.53125 10.1531 1.53125 10.2594C1.53125 10.3687 1.55 10.4031 1.675 10.525C1.85 10.6937 2.14062 10.8344 2.40625 10.8812C2.79375 10.9469 3.24688 10.8094 3.5375 10.5281C3.6625 10.4094 3.6875 10.3687 3.6875 10.275C3.6875 10.1187 3.6625 10.0687 3.55938 10.0156C3.42188 9.94374 3.32812 9.95936 3.18125 10.0844C2.99375 10.2406 2.80938 10.3156 2.6125 10.3156C2.40938 10.3156 2.2625 10.2594 2.05625 10.0937C1.86875 9.94686 1.7625 9.93436 1.62813 10.05Z" fill="#016DEA"/>
<path d="M11.1047 7.42188C10.5297 7.57812 10.0734 8.0375 9.92344 8.61562C9.86406 8.84375 9.86406 9.27187 9.92344 9.525C10.1516 10.4875 11.0453 11.3812 12.5234 12.1219C12.6672 12.1906 12.8109 12.25 12.8453 12.25C12.9516 12.25 13.6797 11.8656 14.0828 11.5969C15.0266 10.9719 15.5953 10.2812 15.7672 9.55625C15.8203 9.33125 15.8266 8.83125 15.7797 8.625C15.6484 8.05 15.1172 7.53125 14.5391 7.40937C14.0203 7.30312 13.4141 7.44062 12.9922 7.7625L12.8453 7.875L12.6984 7.7625C12.2641 7.43125 11.6016 7.29063 11.1047 7.42188ZM11.8547 7.98438C12.1203 8.05312 12.2672 8.1375 12.5047 8.3625C12.6953 8.54375 12.7297 8.5625 12.8484 8.5625C12.9641 8.5625 12.9984 8.54375 13.1859 8.36562C13.7516 7.83437 14.5016 7.8 14.9547 8.28437C15.1766 8.52187 15.2328 8.675 15.2359 9.04688C15.2359 9.40937 15.1859 9.59687 15.0016 9.90625C14.6766 10.4562 13.9547 11.0656 13.1172 11.5L12.8484 11.6406L12.6672 11.5469C12.0234 11.2156 11.4672 10.8125 11.0797 10.4C10.8109 10.1156 10.6672 9.9 10.5391 9.5875C10.4703 9.42188 10.4578 9.34375 10.4547 9.07812C10.4547 8.80625 10.4641 8.74375 10.5359 8.59375C10.7766 8.075 11.2953 7.8375 11.8547 7.98438Z" fill="#016DEA"/>
<path d="M11.2975 8.49688C11.0632 8.60313 10.9163 8.85626 10.9475 9.10001C10.9694 9.25313 11.0413 9.33751 11.1725 9.36251C11.335 9.39063 11.4632 9.30938 11.5038 9.14063C11.5288 9.04376 11.5569 9.00001 11.5913 9.00001C11.685 9.00001 11.7819 8.86563 11.7819 8.74376C11.7819 8.58751 11.7569 8.53751 11.6538 8.48438C11.5382 8.42188 11.4507 8.42501 11.2975 8.49688Z" fill="#016DEA"/>
<path d="M6.54375 7.65625C6.37188 7.725 6.375 7.69688 6.375 9.41563V11.0031L6.45313 11.0781C6.54688 11.175 6.74063 11.1844 6.84688 11.0969L6.92188 11.0375L6.93125 9.42813L6.94063 7.81875L6.86875 7.7375C6.79063 7.64688 6.64688 7.6125 6.54375 7.65625Z" fill="#016DEA"/>
<path d="M8.71875 7.6469C8.69375 7.65627 8.64062 7.69377 8.60312 7.72815L8.53125 7.79065V9.3969V11.0031L8.60938 11.0781C8.68438 11.1563 8.8375 11.1813 8.95312 11.1375C9.0875 11.0844 9.09375 11.025 9.09375 9.37815V7.81565L9.025 7.73752C8.95312 7.65627 8.80625 7.61252 8.71875 7.6469Z" fill="#016DEA"/>
<path d="M7.59356 8.47814C7.43731 8.55627 7.43731 8.55939 7.44669 10.2438L7.45294 11.8188L7.54044 11.8938C7.65919 11.9938 7.82169 11.9938 7.92169 11.8906L7.99981 11.8156V10.2219C7.99981 9.34689 7.99044 8.60627 7.98106 8.57814C7.95919 8.52189 7.80919 8.43752 7.72794 8.43752C7.69669 8.43752 7.63731 8.45627 7.59356 8.47814Z" fill="#016DEA"/>
<path d="M6.45312 11.7656L6.375 11.8406V12.6312C6.37813 13.4594 6.38125 13.4812 6.52188 13.5562C6.6375 13.6187 6.75 13.6 6.84688 13.5L6.94063 13.4094L6.93125 12.6062C6.92188 11.8094 6.92188 11.8062 6.84688 11.7469C6.74062 11.6594 6.54688 11.6687 6.45312 11.7656Z" fill="#016DEA"/>
<path d="M8.60938 11.7656L8.53125 11.8406V12.6312C8.53438 13.4594 8.5375 13.4812 8.67813 13.5562C8.79375 13.6187 8.90625 13.6 9.00313 13.5031L9.09375 13.4125V12.6562C9.09375 11.7344 9.07812 11.6875 8.79375 11.6875C8.71875 11.6875 8.65937 11.7125 8.60938 11.7656Z" fill="#016DEA"/>
<path d="M1.37188 12.2594C1.25313 12.35 1.25 12.4031 1.25 13.725C1.25 15.1531 1.24688 15.1187 1.45 15.1875C1.575 15.2281 1.69063 15.1906 1.7625 15.0875C1.80625 15.025 1.8125 14.8562 1.8125 13.6937V12.3719L1.73438 12.2969C1.65 12.2094 1.45938 12.1906 1.37188 12.2594Z" fill="#016DEA"/>
<path d="M3.52813 12.2594C3.40938 12.35 3.40625 12.4031 3.40625 13.7313V15.0281L3.47812 15.1125C3.58438 15.2344 3.79063 15.2375 3.89375 15.1156L3.96875 15.0281V13.7V12.3719L3.89062 12.2969C3.80625 12.2094 3.61563 12.1906 3.52813 12.2594Z" fill="#016DEA"/>
<path d="M11.5781 12.2968L11.5 12.3718V13.7125V15.0531L11.5719 15.1156C11.6719 15.2093 11.7625 15.2281 11.8844 15.1781C12.0625 15.1031 12.0656 15.0843 12.0563 13.6593L12.0469 12.3687L11.9594 12.2937C11.8406 12.1937 11.6781 12.1937 11.5781 12.2968Z" fill="#016DEA"/>
<path d="M13.7345 12.2937C13.6939 12.3344 13.6533 12.4156 13.6408 12.4719C13.6314 12.5312 13.6252 13.1281 13.6314 13.8C13.6408 14.975 13.6439 15.0281 13.7033 15.0937C13.797 15.1969 13.897 15.225 14.022 15.1844C14.222 15.1187 14.222 15.1156 14.2127 13.6687L14.2033 12.3687L14.1158 12.2937C13.997 12.1937 13.8345 12.1937 13.7345 12.2937Z" fill="#016DEA"/>
<path d="M7.63426 12.5063C7.44676 12.5563 7.43426 12.625 7.44364 13.4813C7.45301 14.3313 7.45926 14.3532 7.67176 14.3938C7.78739 14.4157 7.94989 14.3469 7.98114 14.2657C7.99051 14.2375 7.99989 13.8594 7.99989 13.425C7.99989 12.6469 7.99989 12.6344 7.93114 12.5719C7.84051 12.4907 7.75926 12.4719 7.63426 12.5063Z" fill="#016DEA"/>
<path d="M2.425 13.0969L2.34375 13.1594V14.5125V15.8657L2.41562 15.9313C2.49688 16.0094 2.7 16.025 2.78438 15.9594C2.90312 15.8688 2.90625 15.8157 2.90625 14.5032V13.225L2.825 13.1282C2.725 13.0094 2.55313 12.9938 2.425 13.0969Z" fill="#016DEA"/>
<path d="M12.6938 13.0531C12.6719 13.0625 12.6344 13.1094 12.6094 13.1563C12.5688 13.2313 12.5625 13.4594 12.5625 14.5469V15.8469L12.6406 15.9219C12.7469 16.0312 12.9406 16.0312 13.0469 15.9219L13.125 15.8469V14.5156V13.1844L13.0469 13.1094C12.975 13.0344 12.8063 13.0063 12.6938 13.0531Z" fill="#016DEA"/>
</g>
<defs>
<clipPath id="clip0_5020_183356">
<rect width="16" height="16" fill="white"/>
</clipPath>
</defs>
</svg>
