<svg width="189" height="40" viewBox="0 0 189 40" fill="none" xmlns="http://www.w3.org/2000/svg">
<path d="M25.9366 27.5337C25.9366 28.6878 25.6743 29.7842 25.2002 30.7607L25.1545 30.8543C23.9321 33.292 21.3958 34.9762 18.4746 34.9762C15.5461 34.9762 13.017 33.292 11.7946 30.8543L11.7489 30.7607L0.867545 9.06172C-0.0612931 7.20708 1.29106 5.02374 3.37252 5.02374H13.8039C14.8651 5.02374 15.8324 5.62116 16.3065 6.56647L18.4722 10.8852L25.1978 24.3067C25.6743 25.2832 25.9366 26.3821 25.9366 27.5337Z" fill="url(#paint0_linear_17_124)"/>
<path d="M33.5822 5.02374C35.6636 5.02374 37.016 7.20708 36.0847 9.06172L26.8204 27.5337L25.1961 30.7607C25.6726 29.7842 25.9325 28.6854 25.9325 27.5337C25.9325 26.3821 25.6702 25.2832 25.1961 24.3067L18.4729 10.8852L20.6386 6.56647C21.1126 5.62116 22.0824 5.02374 23.1412 5.02374H33.5822Z" fill="url(#paint1_linear_17_124)"/>
<rect x="42.1439" width="146.52" height="40" rx="5.7601" fill="url(#paint2_linear_17_124)"/>
<path d="M49.1738 9.03H55.4438L60.7538 20.13L66.0638 9.03H72.3338V30H65.7638V22.23L61.8938 30H59.6138L55.7438 22.23V30H49.1738V9.03ZM82.966 9.03H89.686L98.086 30H90.796L89.446 26.34H83.206L81.856 30H74.566L82.966 9.03ZM87.886 21.12L86.326 16.29L84.766 21.12H87.886ZM101.1 9.03H111.18C113.78 9.03 115.84 9.68 117.36 10.98C118.88 12.28 119.64 14.17 119.64 16.65C119.64 18.21 119.33 19.54 118.71 20.64C118.09 21.72 117.21 22.57 116.07 23.19L119.37 30H112.2L109.44 24.27H108.09V30H101.1V9.03ZM109.68 18.96C111.5 18.96 112.41 18.19 112.41 16.65C112.41 15.11 111.5 14.34 109.68 14.34H108.09V18.96H109.68ZM122.639 9.03H129.749V16.62L135.629 9.03H143.789L135.929 19.17L144.329 30H135.989L129.749 21.78V30H122.639V9.03ZM147.342 9.03H162.882V15H154.452V16.83H160.422V22.2H154.452V24.03H162.882V30H147.342V9.03ZM170.213 15H164.843V9.03H182.693V15H177.323V30H170.213V15Z" fill="white"/>
<defs>
<linearGradient id="paint0_linear_17_124" x1="0.569162" y1="19.9999" x2="25.9359" y2="19.9999" gradientUnits="userSpaceOnUse">
<stop stop-color="#FA4001"/>
<stop offset="0.344077" stop-color="#CD0D14"/>
<stop offset="0.689254" stop-color="#A91D1E"/>
<stop offset="1" stop-color="#812924"/>
</linearGradient>
<linearGradient id="paint1_linear_17_124" x1="18.4733" y1="17.893" x2="36.3853" y2="17.893" gradientUnits="userSpaceOnUse">
<stop stop-color="#016DEA"/>
<stop offset="0.334096" stop-color="#005FCD"/>
<stop offset="0.634882" stop-color="#0052B1"/>
<stop offset="1" stop-color="#003B7E"/>
</linearGradient>
<linearGradient id="paint2_linear_17_124" x1="42.1469" y1="20.0012" x2="188.672" y2="20.0012" gradientUnits="userSpaceOnUse">
<stop stop-color="#016DEA"/>
<stop offset="0.334096" stop-color="#005FCD"/>
<stop offset="0.634882" stop-color="#0052B1"/>
<stop offset="1" stop-color="#003B7E"/>
</linearGradient>
</defs>
</svg>
