<svg width="136" height="40" viewBox="0 0 136 40" fill="none" xmlns="http://www.w3.org/2000/svg">
<path d="M25.652 27.5337C25.652 28.6878 25.3897 29.7842 24.9157 30.7607L24.87 30.8543C23.6475 33.292 21.1113 34.9762 18.19 34.9762C15.2615 34.9762 12.7325 33.292 11.5101 30.8543L11.4644 30.7607L0.582999 9.06172C-0.345839 7.20708 1.00651 5.02374 3.08797 5.02374H13.5194C14.5805 5.02374 15.5479 5.62116 16.0219 6.56647L18.1876 10.8852L24.9133 24.3067C25.3897 25.2832 25.652 26.3821 25.652 27.5337Z" fill="url(#paint0_linear_17_85)"/>
<path d="M33.2976 5.02374C35.3791 5.02374 36.7314 7.20708 35.8002 9.06172L26.5359 27.5337L24.9116 30.7607C25.3881 29.7842 25.6479 28.6854 25.6479 27.5337C25.6479 26.3821 25.3856 25.2832 24.9116 24.3067L18.1884 10.8852L20.354 6.56647C20.8281 5.62116 21.7978 5.02374 22.8566 5.02374H33.2976Z" fill="url(#paint1_linear_17_85)"/>
<rect x="41.8593" width="93.5202" height="40" rx="5.7601" fill="url(#paint2_linear_17_85)"/>
<path d="M53.0823 15H47.7123V9.03H65.5623V15H60.1923V30H53.0823V15ZM78.0641 30.45C75.8041 30.45 73.9141 30.02 72.3941 29.16C70.8741 28.3 69.7541 27.13 69.0341 25.65C68.3141 24.17 67.9541 22.47 67.9541 20.55V9.03H75.0641V20.34C75.0641 21.52 75.3041 22.41 75.7841 23.01C76.2641 23.61 77.0241 23.91 78.0641 23.91C79.1041 23.91 79.8541 23.61 80.3141 23.01C80.7941 22.41 81.0341 21.52 81.0341 20.34V9.03H88.1741V20.55C88.1741 22.47 87.8141 24.17 87.0941 25.65C86.3741 27.13 85.2541 28.3 83.7341 29.16C82.2141 30.02 80.3241 30.45 78.0641 30.45ZM91.6354 9.03H102.915C105.015 9.03 106.705 9.55 107.985 10.59C109.265 11.61 109.905 13.06 109.905 14.94C109.905 15.74 109.725 16.5 109.365 17.22C109.025 17.94 108.525 18.53 107.865 18.99C108.825 19.45 109.505 20.03 109.905 20.73C110.325 21.43 110.535 22.34 110.535 23.46C110.535 24.78 110.215 25.94 109.575 26.94C108.935 27.92 108.075 28.68 106.995 29.22C105.915 29.74 104.715 30 103.395 30H91.6354V9.03ZM100.875 16.98C101.495 16.98 101.945 16.86 102.225 16.62C102.525 16.36 102.675 15.94 102.675 15.36C102.675 14.82 102.525 14.43 102.225 14.19C101.945 13.95 101.495 13.83 100.875 13.83H98.5354V16.98H100.875ZM101.265 25.2C101.985 25.2 102.505 25.06 102.825 24.78C103.145 24.5 103.305 24.05 103.305 23.43C103.305 22.81 103.145 22.36 102.825 22.08C102.505 21.78 101.985 21.63 101.265 21.63H98.5354V25.2H101.265ZM113.526 9.03H129.066V15H120.636V16.83H126.606V22.2H120.636V24.03H129.066V30H113.526V9.03Z" fill="white"/>
<defs>
<linearGradient id="paint0_linear_17_85" x1="0.284616" y1="19.9999" x2="25.6514" y2="19.9999" gradientUnits="userSpaceOnUse">
<stop stop-color="#FA4001"/>
<stop offset="0.344077" stop-color="#CD0D14"/>
<stop offset="0.689254" stop-color="#A91D1E"/>
<stop offset="1" stop-color="#812924"/>
</linearGradient>
<linearGradient id="paint1_linear_17_85" x1="18.1887" y1="17.893" x2="36.1008" y2="17.893" gradientUnits="userSpaceOnUse">
<stop stop-color="#016DEA"/>
<stop offset="0.334096" stop-color="#005FCD"/>
<stop offset="0.634882" stop-color="#0052B1"/>
<stop offset="1" stop-color="#003B7E"/>
</linearGradient>
<linearGradient id="paint2_linear_17_85" x1="41.8612" y1="20.0012" x2="135.385" y2="20.0012" gradientUnits="userSpaceOnUse">
<stop stop-color="#016DEA"/>
<stop offset="0.334096" stop-color="#005FCD"/>
<stop offset="0.634882" stop-color="#0052B1"/>
<stop offset="1" stop-color="#003B7E"/>
</linearGradient>
</defs>
</svg>
