<svg width="337" height="47" viewBox="0 0 337 47" fill="none" xmlns="http://www.w3.org/2000/svg">
<path d="M39.8052 35.3215C39.8052 37.1324 39.3936 38.8529 38.6497 40.3852L38.578 40.532C36.6599 44.3571 32.6801 47 28.0962 47C23.5009 47 19.5325 44.3571 17.6144 40.532L17.5426 40.3852L0.468126 6.33619C-0.98936 3.42598 1.13268 0 4.39881 0H20.7672C22.4324 0 23.9503 0.937439 24.6941 2.42078L28.0924 9.19745L38.646 30.2578C39.3936 31.7901 39.8052 33.5144 39.8052 35.3215Z" fill="url(#paint0_linear_17_190)"/>
<path d="M51.8014 -6.10352e-05C55.0675 -6.10352e-05 57.1896 3.42592 55.7283 6.33613L41.1912 35.3215L38.6425 40.3851C39.3901 38.8529 39.7979 37.1286 39.7979 35.3215C39.7979 33.5143 39.3863 31.7901 38.6425 30.2578L28.0927 9.19739L31.491 2.42072C32.2348 0.937378 33.7565 -6.10352e-05 35.4179 -6.10352e-05H51.8014Z" fill="url(#paint1_linear_17_190)"/>
<path d="M66 2H86.5529L94.5 22.625L102.447 2H123L104.365 46H84.6346L66 2Z" fill="white"/>
<path d="M155.104 47C145.929 47 138.77 44.9725 133.625 40.9176C128.542 36.8627 126 31.1183 126 23.6843C126 16.3732 128.294 10.598 132.881 6.35882C137.53 2.11961 144.194 0 152.872 0C158.389 0 163.1 1.01373 167.005 3.04118C170.973 5.06863 173.948 7.83333 175.932 11.3353C177.977 14.8373 179 18.7693 179 23.1314V29.1216H145.898C147.696 32.3163 151.756 33.9137 158.079 33.9137C160.992 33.9137 164.03 33.6987 167.191 33.2686C170.415 32.7771 173.142 32.1013 175.374 31.2412V43.6824C172.894 44.6654 169.826 45.4641 166.168 46.0784C162.573 46.6928 158.885 47 155.104 47ZM159.288 17.7863C158.544 14.7144 156.281 13.1784 152.5 13.1784C148.843 13.1784 146.642 14.7144 145.898 17.7863H159.288Z" fill="white"/>
<path d="M181 1.39394H200.727V5.3899C202.424 3.77913 204.727 2.47811 207.636 1.48687C210.545 0.495623 213.667 0 217 0V16.1697C213.424 16.1697 210.182 16.6653 207.273 17.6566C204.424 18.5859 202.485 19.9178 201.455 21.6525V46H181V1.39394Z" fill="white"/>
<path d="M242.723 47C238.843 47 234.81 46.6621 230.622 45.9863C226.497 45.3105 223.202 44.3275 220.739 43.0373V29.0294C223.325 30.5039 226.497 31.7634 230.253 32.8078C234.009 33.8523 237.365 34.3745 240.321 34.3745C241.738 34.3745 242.754 34.3131 243.369 34.1902C243.985 34.0673 244.293 33.7909 244.293 33.3608C244.293 33.0536 244.016 32.8078 243.462 32.6235C242.908 32.4392 242.169 32.2549 241.245 32.0706C239.028 31.6405 237.058 31.1797 235.333 30.6882C229.73 28.968 225.758 27.002 223.418 24.7902C221.139 22.517 220 19.3222 220 15.2059C220 10.0451 222.032 6.23595 226.096 3.77843C230.161 1.25948 235.764 0 242.908 0C246.233 0 249.897 0.368628 253.9 1.10588C257.964 1.84314 260.95 2.79543 262.859 3.96275V17.9706C261.012 16.6804 258.395 15.5745 255.008 14.6529C251.621 13.6699 248.604 13.1784 245.956 13.1784C244.724 13.1784 243.708 13.2706 242.908 13.4549C242.107 13.6392 241.707 13.885 241.707 14.1922C241.707 14.4993 242.046 14.7758 242.723 15.0216C243.4 15.2673 244.478 15.5131 245.956 15.7588C248.85 16.3118 250.482 16.6497 250.851 16.7725C254.916 17.817 258.025 19.0458 260.181 20.4588C262.398 21.8105 263.906 23.4078 264.707 25.251C265.569 27.0941 266 29.4288 266 32.2549C266 36.7399 263.999 40.334 259.996 43.0373C255.993 45.6791 250.236 47 242.723 47Z" fill="white"/>
<path d="M297.554 47C288.553 47 281.529 44.9725 276.481 40.9176C271.494 36.8627 269 31.1183 269 23.6843C269 16.3732 271.25 10.598 275.751 6.35882C280.312 2.11961 286.85 0 295.365 0C300.778 0 305.4 1.01373 309.232 3.04118C313.124 5.06863 316.043 7.83333 317.989 11.3353C319.996 14.8373 321 18.7693 321 23.1314V29.1216H288.523C290.287 32.3163 294.27 33.9137 300.474 33.9137C303.332 33.9137 306.312 33.6987 309.414 33.2686C312.577 32.7771 315.253 32.1013 317.442 31.2412V43.6824C315.009 44.6654 311.999 45.4641 308.411 46.0784C304.883 46.6928 301.264 47 297.554 47ZM301.66 17.7863C300.93 14.7144 298.71 13.1784 295 13.1784C291.412 13.1784 289.253 14.7144 288.523 17.7863H301.66Z" fill="white"/>
<path d="M326.568 40.416L324.52 46H323.16L321.112 40.416H322.312L323.848 44.856L325.376 40.416H326.568ZM326.976 41.2V40.168H328.904V46H327.752V41.2H326.976ZM330.634 46.056C330.431 46.056 330.263 45.9947 330.13 45.872C330.002 45.744 329.938 45.5867 329.938 45.4C329.938 45.2133 330.002 45.0587 330.13 44.936C330.263 44.808 330.431 44.744 330.634 44.744C330.831 44.744 330.994 44.808 331.122 44.936C331.25 45.0587 331.314 45.2133 331.314 45.4C331.314 45.5867 331.25 45.744 331.122 45.872C330.994 45.9947 330.831 46.056 330.634 46.056ZM332.088 43.008C332.088 42.0853 332.253 41.3627 332.584 40.84C332.92 40.3173 333.475 40.056 334.248 40.056C335.021 40.056 335.573 40.3173 335.904 40.84C336.24 41.3627 336.408 42.0853 336.408 43.008C336.408 43.936 336.24 44.664 335.904 45.192C335.573 45.72 335.021 45.984 334.248 45.984C333.475 45.984 332.92 45.72 332.584 45.192C332.253 44.664 332.088 43.936 332.088 43.008ZM335.304 43.008C335.304 42.6133 335.277 42.2827 335.224 42.016C335.176 41.744 335.075 41.5227 334.92 41.352C334.771 41.1813 334.547 41.096 334.248 41.096C333.949 41.096 333.723 41.1813 333.568 41.352C333.419 41.5227 333.317 41.744 333.264 42.016C333.216 42.2827 333.192 42.6133 333.192 43.008C333.192 43.4133 333.216 43.7547 333.264 44.032C333.312 44.304 333.413 44.5253 333.568 44.696C333.723 44.8613 333.949 44.944 334.248 44.944C334.547 44.944 334.773 44.8613 334.928 44.696C335.083 44.5253 335.184 44.304 335.232 44.032C335.28 43.7547 335.304 43.4133 335.304 43.008Z" fill="#AAA9AD"/>
<defs>
<linearGradient id="paint0_linear_17_190" x1="-8.16761e-05" y1="23.4998" x2="39.8042" y2="23.4998" gradientUnits="userSpaceOnUse">
<stop stop-color="#FA4001"/>
<stop offset="0.344077" stop-color="#CD0D14"/>
<stop offset="0.689254" stop-color="#A91D1E"/>
<stop offset="1" stop-color="#812924"/>
</linearGradient>
<linearGradient id="paint1_linear_17_190" x1="28.0933" y1="20.1937" x2="56.2" y2="20.1937" gradientUnits="userSpaceOnUse">
<stop stop-color="#016DEA"/>
<stop offset="0.334096" stop-color="#005FCD"/>
<stop offset="0.634882" stop-color="#0052B1"/>
<stop offset="1" stop-color="#003B7E"/>
</linearGradient>
</defs>
</svg>
