<svg width="225" height="40" viewBox="0 0 225 40" fill="none" xmlns="http://www.w3.org/2000/svg">
<path d="M25.5571 27.5337C25.5571 28.6878 25.2948 29.7842 24.8208 30.7607L24.775 30.8543C23.5526 33.292 21.0164 34.9762 18.0951 34.9762C15.1666 34.9762 12.6376 33.292 11.4152 30.8543L11.3695 30.7607L0.48809 9.06172C-0.440749 7.20708 0.911601 5.02374 2.99307 5.02374H13.4244C14.4856 5.02374 15.453 5.62116 15.927 6.56647L18.0927 10.8852L24.8184 24.3067C25.2948 25.2832 25.5571 26.3821 25.5571 27.5337Z" fill="url(#paint0_linear_17_164)"/>
<path d="M33.2027 5.02374C35.2842 5.02374 36.6365 7.20708 35.7053 9.06172L26.441 27.5337L24.8167 30.7607C25.2931 29.7842 25.553 28.6854 25.553 27.5337C25.553 26.3821 25.2907 25.2832 24.8167 24.3067L18.0934 10.8852L20.2591 6.56647C20.7332 5.62116 21.7029 5.02374 22.7617 5.02374H33.2027Z" fill="url(#paint1_linear_17_164)"/>
<rect x="41.7644" width="182.52" height="40" rx="5.7601" fill="url(#paint2_linear_17_164)"/>
<path d="M48.4346 9.03H55.8146L58.0946 18.51L60.4346 9.03H65.4746L67.5146 18.54L69.7946 9.03H77.1746L71.8046 30H65.3546L62.8046 20.46L60.2546 30H53.8046L48.4346 9.03ZM80.1831 9.03H95.7231V15H87.2931V16.83H93.2631V22.2H87.2931V24.03H95.7231V30H80.1831V9.03ZM98.7338 9.03H110.014C112.114 9.03 113.804 9.55 115.084 10.59C116.364 11.61 117.004 13.06 117.004 14.94C117.004 15.74 116.824 16.5 116.464 17.22C116.124 17.94 115.624 18.53 114.964 18.99C115.924 19.45 116.604 20.03 117.004 20.73C117.424 21.43 117.634 22.34 117.634 23.46C117.634 24.78 117.314 25.94 116.674 26.94C116.034 27.92 115.174 28.68 114.094 29.22C113.014 29.74 111.814 30 110.494 30H98.7338V9.03ZM107.974 16.98C108.594 16.98 109.044 16.86 109.324 16.62C109.624 16.36 109.774 15.94 109.774 15.36C109.774 14.82 109.624 14.43 109.324 14.19C109.044 13.95 108.594 13.83 107.974 13.83H105.634V16.98H107.974ZM108.364 25.2C109.084 25.2 109.604 25.06 109.924 24.78C110.244 24.5 110.404 24.05 110.404 23.43C110.404 22.81 110.244 22.36 109.924 22.08C109.604 21.78 109.084 21.63 108.364 21.63H105.634V25.2H108.364ZM120.624 9.03H127.734V30H120.624V9.03ZM131.324 9.03H137.594L143.834 18.78V9.03H150.644V30H144.374L138.134 20.22V30H131.324V9.03ZM162.04 9.03H168.76L177.16 30H169.87L168.52 26.34H162.28L160.93 30H153.64L162.04 9.03ZM166.96 21.12L165.4 16.29L163.84 21.12H166.96ZM180.173 9.03H190.253C192.853 9.03 194.913 9.68 196.433 10.98C197.953 12.28 198.713 14.17 198.713 16.65C198.713 18.21 198.403 19.54 197.783 20.64C197.163 21.72 196.283 22.57 195.143 23.19L198.443 30H191.273L188.513 24.27H187.163V30H180.173V9.03ZM188.753 18.96C190.573 18.96 191.483 18.19 191.483 16.65C191.483 15.11 190.573 14.34 188.753 14.34H187.163V18.96H188.753ZM208.702 30.45C207.322 30.45 205.932 30.31 204.532 30.03C203.132 29.75 201.992 29.37 201.112 28.89V22.71C202.232 23.35 203.412 23.83 204.652 24.15C205.912 24.47 207.072 24.63 208.132 24.63C208.732 24.63 209.162 24.57 209.422 24.45C209.682 24.33 209.812 24.14 209.812 23.88C209.812 23.52 209.612 23.22 209.212 22.98C208.812 22.72 207.962 22.3 206.662 21.72C204.742 20.88 203.342 19.95 202.462 18.93C201.602 17.89 201.172 16.63 201.172 15.15C201.172 13.87 201.522 12.74 202.222 11.76C202.942 10.76 203.942 9.98 205.222 9.42C206.522 8.86 208.002 8.58 209.662 8.58C211.022 8.58 212.232 8.69 213.292 8.91C214.352 9.13 215.362 9.47 216.322 9.93V15.9C214.522 14.9 212.742 14.4 210.982 14.4C209.562 14.4 208.852 14.71 208.852 15.33C208.852 15.63 209.012 15.88 209.332 16.08C209.672 16.28 210.272 16.55 211.132 16.89L212.242 17.34C213.662 17.94 214.752 18.54 215.512 19.14C216.272 19.72 216.812 20.39 217.132 21.15C217.452 21.89 217.612 22.83 217.612 23.97C217.612 25.99 216.872 27.58 215.392 28.74C213.912 29.88 211.682 30.45 208.702 30.45Z" fill="white"/>
<defs>
<linearGradient id="paint0_linear_17_164" x1="0.189706" y1="19.9999" x2="25.5565" y2="19.9999" gradientUnits="userSpaceOnUse">
<stop stop-color="#FA4001"/>
<stop offset="0.344077" stop-color="#CD0D14"/>
<stop offset="0.689254" stop-color="#A91D1E"/>
<stop offset="1" stop-color="#812924"/>
</linearGradient>
<linearGradient id="paint1_linear_17_164" x1="18.0938" y1="17.893" x2="36.0059" y2="17.893" gradientUnits="userSpaceOnUse">
<stop stop-color="#016DEA"/>
<stop offset="0.334096" stop-color="#005FCD"/>
<stop offset="0.634882" stop-color="#0052B1"/>
<stop offset="1" stop-color="#003B7E"/>
</linearGradient>
<linearGradient id="paint2_linear_17_164" x1="41.7681" y1="20.0012" x2="224.295" y2="20.0012" gradientUnits="userSpaceOnUse">
<stop stop-color="#016DEA"/>
<stop offset="0.334096" stop-color="#005FCD"/>
<stop offset="0.634882" stop-color="#0052B1"/>
<stop offset="1" stop-color="#003B7E"/>
</linearGradient>
</defs>
</svg>
