<svg width="151" height="40" viewBox="0 0 151 40" fill="none" xmlns="http://www.w3.org/2000/svg">
<path d="M25.3673 27.5337C25.3673 28.6878 25.1051 29.7842 24.631 30.7607L24.5853 30.8543C23.3629 33.292 20.8266 34.9762 17.9054 34.9762C14.9769 34.9762 12.4478 33.292 11.2254 30.8543L11.1797 30.7607L0.298331 9.06172C-0.630507 7.20708 0.721843 5.02374 2.80331 5.02374H13.2347C14.2959 5.02374 15.2632 5.62116 15.7373 6.56647L17.9029 10.8852L24.6286 24.3067C25.1051 25.2832 25.3673 26.3821 25.3673 27.5337Z" fill="url(#paint0_linear_17_46)"/>
<path d="M33.013 5.02374C35.0944 5.02374 36.4468 7.20708 35.5155 9.06172L26.2512 27.5337L24.6269 30.7607C25.1034 29.7842 25.3633 28.6854 25.3633 27.5337C25.3633 26.3821 25.101 25.2832 24.6269 24.3067L17.9037 10.8852L20.0694 6.56647C20.5434 5.62116 21.5132 5.02374 22.5719 5.02374H33.013Z" fill="url(#paint1_linear_17_46)"/>
<rect x="41.5747" width="108.52" height="40" rx="5.7601" fill="url(#paint2_linear_17_46)"/>
<path d="M59.8803 30.45C57.5203 30.45 55.4603 30.02 53.7003 29.16C51.9603 28.28 50.6203 27.02 49.6803 25.38C48.7403 23.72 48.2703 21.77 48.2703 19.53C48.2703 17.27 48.7403 15.32 49.6803 13.68C50.6203 12.04 51.9603 10.78 53.7003 9.9C55.4603 9.02 57.5203 8.58 59.8803 8.58C61.4403 8.58 62.8003 8.71 63.9603 8.97C65.1203 9.23 66.2103 9.65 67.2303 10.23V16.89C66.3703 16.25 65.3903 15.79 64.2903 15.51C63.2103 15.23 61.9503 15.09 60.5103 15.09C58.9703 15.09 57.7403 15.48 56.8203 16.26C55.9203 17.02 55.4703 18.11 55.4703 19.53C55.4703 21.07 55.8403 22.24 56.5803 23.04C57.3203 23.82 58.5203 24.21 60.1803 24.21C60.7803 24.21 61.3003 24.13 61.7403 23.97V21.99H59.4303V17.91H67.9803V28.68C65.9203 29.86 63.2203 30.45 59.8803 30.45ZM80.926 30.45C78.666 30.45 76.776 30.02 75.256 29.16C73.736 28.3 72.616 27.13 71.896 25.65C71.176 24.17 70.816 22.47 70.816 20.55V9.03H77.926V20.34C77.926 21.52 78.166 22.41 78.646 23.01C79.126 23.61 79.886 23.91 80.926 23.91C81.966 23.91 82.716 23.61 83.176 23.01C83.656 22.41 83.896 21.52 83.896 20.34V9.03H91.036V20.55C91.036 22.47 90.676 24.17 89.956 25.65C89.236 27.13 88.116 28.3 86.596 29.16C85.076 30.02 83.186 30.45 80.926 30.45ZM94.4972 9.03H101.607V30H94.4972V9.03ZM105.196 9.03H113.236C115.556 9.03 117.586 9.45 119.326 10.29C121.086 11.13 122.446 12.33 123.406 13.89C124.366 15.45 124.846 17.29 124.846 19.41C124.846 22.89 123.806 25.53 121.726 27.33C119.666 29.11 116.836 30 113.236 30H105.196V9.03ZM113.716 23.4C116.316 23.4 117.616 22.07 117.616 19.41C117.616 18.19 117.276 17.26 116.596 16.62C115.916 15.96 114.956 15.63 113.716 15.63H112.306V23.4H113.716ZM127.849 9.03H143.389V15H134.959V16.83H140.929V22.2H134.959V24.03H143.389V30H127.849V9.03Z" fill="white"/>
<defs>
<linearGradient id="paint0_linear_17_46" x1="-5.20512e-05" y1="19.9999" x2="25.3667" y2="19.9999" gradientUnits="userSpaceOnUse">
<stop stop-color="#FA4001"/>
<stop offset="0.344077" stop-color="#CD0D14"/>
<stop offset="0.689254" stop-color="#A91D1E"/>
<stop offset="1" stop-color="#812924"/>
</linearGradient>
<linearGradient id="paint1_linear_17_46" x1="17.904" y1="17.893" x2="35.8161" y2="17.893" gradientUnits="userSpaceOnUse">
<stop stop-color="#016DEA"/>
<stop offset="0.334096" stop-color="#005FCD"/>
<stop offset="0.634882" stop-color="#0052B1"/>
<stop offset="1" stop-color="#003B7E"/>
</linearGradient>
<linearGradient id="paint2_linear_17_46" x1="41.5769" y1="20.0012" x2="150.101" y2="20.0012" gradientUnits="userSpaceOnUse">
<stop stop-color="#016DEA"/>
<stop offset="0.334096" stop-color="#005FCD"/>
<stop offset="0.634882" stop-color="#0052B1"/>
<stop offset="1" stop-color="#003B7E"/>
</linearGradient>
</defs>
</svg>
