<svg width="138" height="40" viewBox="0 0 138 40" fill="none" xmlns="http://www.w3.org/2000/svg">
<path d="M25.4622 27.5337C25.4622 28.6878 25.1999 29.7842 24.7259 30.7607L24.6802 30.8543C23.4578 33.292 20.9215 34.9762 18.0002 34.9762C15.0717 34.9762 12.5427 33.292 11.3203 30.8543L11.2746 30.7607L0.39321 9.06172C-0.535628 7.20708 0.816722 5.02374 2.89819 5.02374H13.3296C14.3908 5.02374 15.3581 5.62116 15.8321 6.56647L17.9978 10.8852L24.7235 24.3067C25.1999 25.2832 25.4622 26.3821 25.4622 27.5337Z" fill="url(#paint0_linear_17_59)"/>
<path d="M33.1078 5.02374C35.1893 5.02374 36.5416 7.20708 35.6104 9.06172L26.3461 27.5337L24.7218 30.7607C25.1983 29.7842 25.4581 28.6854 25.4581 27.5337C25.4581 26.3821 25.1959 25.2832 24.7218 24.3067L17.9986 10.8852L20.1643 6.56647C20.6383 5.62116 21.608 5.02374 22.6668 5.02374H33.1078Z" fill="url(#paint1_linear_17_59)"/>
<rect x="41.6696" width="95.5202" height="40" rx="5.7601" fill="url(#paint2_linear_17_59)"/>
<path d="M48.4798 9.03H59.7598C61.8598 9.03 63.5498 9.55 64.8298 10.59C66.1098 11.61 66.7498 13.06 66.7498 14.94C66.7498 15.74 66.5698 16.5 66.2098 17.22C65.8698 17.94 65.3698 18.53 64.7098 18.99C65.6698 19.45 66.3498 20.03 66.7498 20.73C67.1698 21.43 67.3798 22.34 67.3798 23.46C67.3798 24.78 67.0598 25.94 66.4198 26.94C65.7798 27.92 64.9198 28.68 63.8398 29.22C62.7598 29.74 61.5598 30 60.2398 30H48.4798V9.03ZM57.7198 16.98C58.3398 16.98 58.7898 16.86 59.0698 16.62C59.3698 16.36 59.5198 15.94 59.5198 15.36C59.5198 14.82 59.3698 14.43 59.0698 14.19C58.7898 13.95 58.3398 13.83 57.7198 13.83H55.3798V16.98H57.7198ZM58.1098 25.2C58.8298 25.2 59.3498 25.06 59.6698 24.78C59.9898 24.5 60.1498 24.05 60.1498 23.43C60.1498 22.81 59.9898 22.36 59.6698 22.08C59.3498 21.78 58.8298 21.63 58.1098 21.63H55.3798V25.2H58.1098ZM70.3704 9.03H77.4804V24.03H85.3104V30H70.3704V9.03ZM97.4653 30.45C95.3253 30.45 93.3853 29.99 91.6453 29.07C89.9253 28.15 88.5653 26.87 87.5653 25.23C86.5653 23.57 86.0653 21.67 86.0653 19.53C86.0653 17.39 86.5653 15.49 87.5653 13.83C88.5653 12.17 89.9253 10.88 91.6453 9.96C93.3853 9.04 95.3253 8.58 97.4653 8.58C99.5853 8.58 101.505 9.04 103.225 9.96C104.965 10.88 106.335 12.17 107.335 13.83C108.335 15.49 108.835 17.39 108.835 19.53C108.835 21.67 108.335 23.57 107.335 25.23C106.335 26.87 104.965 28.15 103.225 29.07C101.505 29.99 99.5853 30.45 97.4653 30.45ZM97.4653 23.76C98.6653 23.76 99.6553 23.38 100.435 22.62C101.215 21.86 101.605 20.83 101.605 19.53C101.605 18.23 101.215 17.2 100.435 16.44C99.6553 15.68 98.6653 15.3 97.4653 15.3C96.2453 15.3 95.2453 15.68 94.4653 16.44C93.6853 17.2 93.2953 18.23 93.2953 19.53C93.2953 20.83 93.6853 21.86 94.4653 22.62C95.2653 23.38 96.2653 23.76 97.4653 23.76ZM122.408 30.45C120.048 30.45 117.988 30.02 116.228 29.16C114.488 28.28 113.148 27.02 112.208 25.38C111.268 23.72 110.798 21.77 110.798 19.53C110.798 17.27 111.268 15.32 112.208 13.68C113.148 12.04 114.488 10.78 116.228 9.9C117.988 9.02 120.048 8.58 122.408 8.58C123.968 8.58 125.328 8.71 126.488 8.97C127.648 9.23 128.738 9.65 129.758 10.23V16.89C128.898 16.25 127.918 15.79 126.818 15.51C125.738 15.23 124.478 15.09 123.038 15.09C121.498 15.09 120.268 15.48 119.348 16.26C118.448 17.02 117.998 18.11 117.998 19.53C117.998 21.07 118.368 22.24 119.108 23.04C119.848 23.82 121.048 24.21 122.708 24.21C123.308 24.21 123.828 24.13 124.268 23.97V21.99H121.958V17.91H130.508V28.68C128.448 29.86 125.748 30.45 122.408 30.45Z" fill="white"/>
<defs>
<linearGradient id="paint0_linear_17_59" x1="0.0948271" y1="19.9999" x2="25.4616" y2="19.9999" gradientUnits="userSpaceOnUse">
<stop stop-color="#FA4001"/>
<stop offset="0.344077" stop-color="#CD0D14"/>
<stop offset="0.689254" stop-color="#A91D1E"/>
<stop offset="1" stop-color="#812924"/>
</linearGradient>
<linearGradient id="paint1_linear_17_59" x1="17.9989" y1="17.893" x2="35.911" y2="17.893" gradientUnits="userSpaceOnUse">
<stop stop-color="#016DEA"/>
<stop offset="0.334096" stop-color="#005FCD"/>
<stop offset="0.634882" stop-color="#0052B1"/>
<stop offset="1" stop-color="#003B7E"/>
</linearGradient>
<linearGradient id="paint2_linear_17_59" x1="41.6715" y1="20.0012" x2="137.195" y2="20.0012" gradientUnits="userSpaceOnUse">
<stop stop-color="#016DEA"/>
<stop offset="0.334096" stop-color="#005FCD"/>
<stop offset="0.634882" stop-color="#0052B1"/>
<stop offset="1" stop-color="#003B7E"/>
</linearGradient>
</defs>
</svg>
