<svg width="132" height="40" viewBox="0 0 132 40" fill="none" xmlns="http://www.w3.org/2000/svg">
<path d="M25.7469 27.5337C25.7469 28.6878 25.4846 29.7842 25.0105 30.7607L24.9648 30.8543C23.7424 33.292 21.2061 34.9762 18.2849 34.9762C15.3564 34.9762 12.8273 33.292 11.6049 30.8543L11.5592 30.7607L0.677848 9.06172C-0.25099 7.20708 1.10136 5.02374 3.18282 5.02374H13.6142C14.6754 5.02374 15.6427 5.62116 16.1168 6.56647L18.2825 10.8852L25.0081 24.3067C25.4846 25.2832 25.7469 26.3821 25.7469 27.5337Z" fill="url(#paint0_linear_17_98)"/>
<path d="M33.3925 5.02374C35.4739 5.02374 36.8263 7.20708 35.895 9.06172L26.6307 27.5337L25.0065 30.7607C25.4829 29.7842 25.7428 28.6854 25.7428 27.5337C25.7428 26.3821 25.4805 25.2832 25.0065 24.3067L18.2832 10.8852L20.4489 6.56647C20.9229 5.62116 21.8927 5.02374 22.9515 5.02374H33.3925Z" fill="url(#paint1_linear_17_98)"/>
<rect x="41.9542" width="89.5202" height="40" rx="5.7601" fill="url(#paint2_linear_17_98)"/>
<path d="M52.0216 30.45C51.3016 30.45 50.5316 30.37 49.7116 30.21C48.9116 30.05 48.3316 29.85 47.9716 29.61V23.61C48.6116 23.95 49.4016 24.12 50.3416 24.12C51.0216 24.12 51.5316 23.96 51.8716 23.64C52.2116 23.32 52.3816 22.81 52.3816 22.11V9.03H59.4916V22.92C59.4916 25.16 58.8516 26.98 57.5716 28.38C56.3116 29.76 54.4616 30.45 52.0216 30.45ZM73.747 30.45C71.607 30.45 69.667 29.99 67.927 29.07C66.207 28.15 64.847 26.87 63.847 25.23C62.847 23.57 62.347 21.67 62.347 19.53C62.347 17.39 62.847 15.49 63.847 13.83C64.847 12.17 66.207 10.88 67.927 9.96C69.667 9.04 71.607 8.58 73.747 8.58C75.867 8.58 77.787 9.04 79.507 9.96C81.247 10.88 82.617 12.17 83.617 13.83C84.617 15.49 85.117 17.39 85.117 19.53C85.117 21.67 84.617 23.57 83.617 25.23C82.617 26.87 81.247 28.15 79.507 29.07C77.787 29.99 75.867 30.45 73.747 30.45ZM73.747 23.76C74.947 23.76 75.937 23.38 76.717 22.62C77.497 21.86 77.887 20.83 77.887 19.53C77.887 18.23 77.497 17.2 76.717 16.44C75.937 15.68 74.947 15.3 73.747 15.3C72.527 15.3 71.527 15.68 70.747 16.44C69.967 17.2 69.577 18.23 69.577 19.53C69.577 20.83 69.967 21.86 70.747 22.62C71.547 23.38 72.547 23.76 73.747 23.76ZM88.1189 9.03H99.3989C101.499 9.03 103.189 9.55 104.469 10.59C105.749 11.61 106.389 13.06 106.389 14.94C106.389 15.74 106.209 16.5 105.849 17.22C105.509 17.94 105.009 18.53 104.349 18.99C105.309 19.45 105.989 20.03 106.389 20.73C106.809 21.43 107.019 22.34 107.019 23.46C107.019 24.78 106.699 25.94 106.059 26.94C105.419 27.92 104.559 28.68 103.479 29.22C102.399 29.74 101.199 30 99.8789 30H88.1189V9.03ZM97.3589 16.98C97.9789 16.98 98.4289 16.86 98.7089 16.62C99.0089 16.36 99.1589 15.94 99.1589 15.36C99.1589 14.82 99.0089 14.43 98.7089 14.19C98.4289 13.95 97.9789 13.83 97.3589 13.83H95.0189V16.98H97.3589ZM97.7489 25.2C98.4689 25.2 98.9889 25.06 99.3089 24.78C99.6289 24.5 99.7889 24.05 99.7889 23.43C99.7889 22.81 99.6289 22.36 99.3089 22.08C98.9889 21.78 98.4689 21.63 97.7489 21.63H95.0189V25.2H97.7489ZM115.945 30.45C114.565 30.45 113.175 30.31 111.775 30.03C110.375 29.75 109.235 29.37 108.355 28.89V22.71C109.475 23.35 110.655 23.83 111.895 24.15C113.155 24.47 114.315 24.63 115.375 24.63C115.975 24.63 116.405 24.57 116.665 24.45C116.925 24.33 117.055 24.14 117.055 23.88C117.055 23.52 116.855 23.22 116.455 22.98C116.055 22.72 115.205 22.3 113.905 21.72C111.985 20.88 110.585 19.95 109.705 18.93C108.845 17.89 108.415 16.63 108.415 15.15C108.415 13.87 108.765 12.74 109.465 11.76C110.185 10.76 111.185 9.98 112.465 9.42C113.765 8.86 115.245 8.58 116.905 8.58C118.265 8.58 119.475 8.69 120.535 8.91C121.595 9.13 122.605 9.47 123.565 9.93V15.9C121.765 14.9 119.985 14.4 118.225 14.4C116.805 14.4 116.095 14.71 116.095 15.33C116.095 15.63 116.255 15.88 116.575 16.08C116.915 16.28 117.515 16.55 118.375 16.89L119.485 17.34C120.905 17.94 121.995 18.54 122.755 19.14C123.515 19.72 124.055 20.39 124.375 21.15C124.695 21.89 124.855 22.83 124.855 23.97C124.855 25.99 124.115 27.58 122.635 28.74C121.155 29.88 118.925 30.45 115.945 30.45Z" fill="white"/>
<defs>
<linearGradient id="paint0_linear_17_98" x1="0.379465" y1="19.9999" x2="25.7462" y2="19.9999" gradientUnits="userSpaceOnUse">
<stop stop-color="#FA4001"/>
<stop offset="0.344077" stop-color="#CD0D14"/>
<stop offset="0.689254" stop-color="#A91D1E"/>
<stop offset="1" stop-color="#812924"/>
</linearGradient>
<linearGradient id="paint1_linear_17_98" x1="18.2836" y1="17.893" x2="36.1956" y2="17.893" gradientUnits="userSpaceOnUse">
<stop stop-color="#016DEA"/>
<stop offset="0.334096" stop-color="#005FCD"/>
<stop offset="0.634882" stop-color="#0052B1"/>
<stop offset="1" stop-color="#003B7E"/>
</linearGradient>
<linearGradient id="paint2_linear_17_98" x1="41.956" y1="20.0012" x2="131.479" y2="20.0012" gradientUnits="userSpaceOnUse">
<stop stop-color="#016DEA"/>
<stop offset="0.334096" stop-color="#005FCD"/>
<stop offset="0.634882" stop-color="#0052B1"/>
<stop offset="1" stop-color="#003B7E"/>
</linearGradient>
</defs>
</svg>
