<svg width="40" height="40" viewBox="0 0 40 40" fill="none" xmlns="http://www.w3.org/2000/svg">
<path fill-rule="evenodd" clip-rule="evenodd" d="M5 30.9286C5 31.5203 5.47969 32 6.07143 32H33.9286C34.5203 32 35 31.5203 35 30.9286C35 30.3368 34.5203 29.8571 33.9286 29.8571H6.07143C5.47969 29.8571 5 30.3368 5 30.9286ZM11.4286 20.2143C11.4286 20.806 11.9083 21.2857 12.5 21.2857H33.9286C34.5203 21.2857 35 20.806 35 20.2143C35 19.6226 34.5203 19.1429 33.9286 19.1429H12.5C11.9083 19.1429 11.4286 19.6226 11.4286 20.2143ZM20 10.5714C19.4083 10.5714 18.9286 10.0918 18.9286 9.50002C18.9286 8.90829 19.4083 8.42859 20 8.42859H33.9286C34.5203 8.42859 35 8.90829 35 9.50002C35 10.0918 34.5203 10.5714 33.9286 10.5714H20Z" fill="#016DEA"/>
</svg>
