<svg width="16" height="17" viewBox="0 0 16 17" fill="none" xmlns="http://www.w3.org/2000/svg">
<path d="M2.24964 4.6084C2.37015 4.60955 2.48753 4.64694 2.58652 4.71569C2.68552 4.78444 2.76155 4.88138 2.80472 4.99391C3.09995 5.77849 3.39291 6.5641 3.68361 7.35074C3.72221 7.45186 3.73233 7.56163 3.71287 7.66811C3.6934 7.77458 3.64509 7.87368 3.57321 7.9546C3.33637 8.25252 3.10015 8.55167 2.86208 8.84835C2.84537 8.86548 2.83434 8.88734 2.83048 8.91095C2.82662 8.93456 2.83011 8.95879 2.84049 8.98035C3.40858 10.3869 4.26374 11.6596 5.35133 12.717C5.37241 12.7423 5.40104 12.7601 5.43302 12.7679C5.465 12.7757 5.49863 12.773 5.52895 12.7602C5.88668 12.6498 6.24625 12.5455 6.60582 12.4413C6.70964 12.4065 6.82101 12.4009 6.92781 12.425C7.0346 12.4491 7.13272 12.5021 7.21148 12.5782C7.82043 13.1346 8.42815 13.6918 9.03463 14.2498C9.28997 14.4848 9.3134 14.8166 9.1 15.0923C8.67274 15.6456 8.13099 16.1001 7.51184 16.4246C7.42356 16.4741 7.32407 16.5 7.22289 16.5C7.12171 16.5 7.02222 16.4741 6.93394 16.4246C5.72141 15.7976 4.61618 14.9818 3.65956 14.008C2.89444 13.2317 2.23123 12.3612 1.68592 11.4174C0.965523 10.181 0.460798 8.83109 0.19336 7.42537C0.111947 6.9936 0.0589023 6.55567 0.00462733 6.11958C-0.00730679 6.02961 0.00393501 5.93807 0.0372874 5.85366C0.0706397 5.76925 0.124995 5.69475 0.195204 5.63724C0.745059 5.15944 1.39697 4.81384 2.101 4.6269C2.15012 4.61773 2.19976 4.61155 2.24964 4.6084V4.6084Z" fill="white"/>
<path d="M14.066 14.3425C14.0444 14.1575 14.0253 13.9891 14.0043 13.8219L13.881 12.7863C13.8452 12.4841 13.8107 12.1818 13.7718 11.8796C13.7617 11.8235 13.7643 11.7659 13.7793 11.7109C13.7944 11.656 13.8215 11.6051 13.8588 11.5619C14.5379 10.7705 15.0086 9.82191 15.228 8.80232C15.3666 8.16074 15.4039 7.50139 15.3384 6.84827C15.2301 5.63002 14.7616 4.47158 13.9926 3.52058C13.0409 2.33938 11.8216 1.58194 10.3352 1.26367C9.73829 1.13602 9.12555 1.09901 8.51761 1.15387C7.17929 1.25884 5.9105 1.79269 4.89969 2.67616C4.47367 3.04556 4.09887 3.47019 3.78521 3.93877C3.67357 4.10531 3.48607 4.14664 3.33188 4.04178C3.29649 4.01732 3.2665 3.98586 3.24375 3.94935C3.221 3.91284 3.20598 3.87204 3.19962 3.82949C3.19326 3.78694 3.1957 3.74354 3.20678 3.70197C3.21786 3.6604 3.23735 3.62155 3.26404 3.58781C4.28539 2.09451 5.66941 1.1255 7.42903 0.693118C8.10634 0.526369 8.80563 0.467047 9.50134 0.517325C11.0198 0.625883 12.3693 1.16374 13.5325 2.14879C14.7019 3.12536 15.5116 4.4646 15.833 5.95389C15.9871 6.63387 16.0349 7.33361 15.9749 8.02823C15.8664 9.41976 15.3373 10.7454 14.4576 11.829C14.4413 11.8464 14.4291 11.8672 14.4219 11.89C14.4147 11.9127 14.4128 11.9368 14.4163 11.9604C14.4897 12.5532 14.5594 13.1471 14.6297 13.7405C14.6729 14.105 14.7179 14.469 14.7574 14.8335C14.7647 14.8879 14.7568 14.9432 14.7345 14.9933C14.7121 15.0434 14.6763 15.0863 14.631 15.1172C14.5842 15.1531 14.5282 15.1748 14.4695 15.1799C14.4108 15.1849 14.3519 15.173 14.2998 15.1456L13.0847 14.5905C12.6226 14.3795 12.1608 14.1684 11.6995 13.957C11.6762 13.9446 11.6504 13.9376 11.624 13.9365C11.5976 13.9355 11.5714 13.9404 11.5471 13.9508C11.194 14.0912 10.8285 14.1984 10.4555 14.271C10.3772 14.2867 10.2958 14.2715 10.2285 14.2285C10.1612 14.1854 10.1132 14.118 10.0947 14.0403C10.0844 14.0006 10.0821 13.9592 10.088 13.9186C10.0938 13.878 10.1077 13.839 10.1289 13.8039C10.15 13.7687 10.1779 13.7381 10.211 13.7139C10.2441 13.6897 10.2817 13.6723 10.3216 13.6628C10.7322 13.571 11.1343 13.4449 11.5237 13.2859C11.5646 13.2705 11.6083 13.264 11.6519 13.2668C11.6955 13.2695 11.738 13.2815 11.7766 13.302C12.4057 13.5898 13.0354 13.8776 13.6657 14.1655C13.7934 14.2222 13.9217 14.2808 14.066 14.3425Z" fill="white"/>
<path d="M9.0421 12.0054C8.44465 12.0057 7.85302 11.8881 7.30111 11.6593C6.7492 11.4305 6.24788 11.095 5.82588 10.6721C5.40388 10.2491 5.06951 9.74701 4.84193 9.19457C4.61434 8.64212 4.49803 8.05019 4.49965 7.45269C4.50043 6.85242 4.62018 6.25826 4.852 5.70456C5.08381 5.15086 5.42308 4.64861 5.85019 4.22686C6.2773 3.8051 6.78378 3.47221 7.34034 3.24743C7.89689 3.02265 8.49248 2.91044 9.09267 2.91729C9.68946 2.92357 10.2792 3.04741 10.8281 3.28172C11.377 3.51604 11.8744 3.85624 12.2918 4.28288C12.7091 4.70952 13.0384 5.21424 13.2606 5.76819C13.4829 6.32214 13.5938 6.91445 13.587 7.51129C13.5743 8.70813 13.0898 9.8516 12.2388 10.6931C11.3877 11.5347 10.2389 12.0063 9.0421 12.0054ZM9.04888 3.54828C6.93031 3.53471 5.15219 5.25746 5.12752 7.41754C5.12198 7.93237 5.21796 8.44325 5.40998 8.92096C5.60199 9.39867 5.88626 9.83385 6.24656 10.2016C6.60685 10.5694 7.03609 10.8625 7.50973 11.0643C7.98338 11.266 8.49214 11.3725 9.00694 11.3775C10.0447 11.3839 11.0429 10.9792 11.7832 10.2519C12.5235 9.52454 12.9459 8.53369 12.9579 7.49587C12.9752 5.32161 11.1995 3.54088 9.04888 3.54828Z" fill="white"/>
<path d="M9.35772 5.95664C9.35772 6.25641 9.35772 6.55556 9.35772 6.85472C9.36315 6.89193 9.3802 6.92647 9.40644 6.95341C9.43975 6.99288 9.49155 7.01509 9.51684 7.06073C9.56248 7.13845 9.62539 7.14832 9.70681 7.1477C10.2824 7.14523 10.8593 7.14523 11.4374 7.1477C11.4875 7.14414 11.5376 7.15285 11.5836 7.17306C11.6295 7.19328 11.6698 7.2244 11.701 7.26372C11.7321 7.30304 11.7532 7.34937 11.7625 7.3987C11.7717 7.44802 11.7687 7.49886 11.7538 7.54678C11.7402 7.60448 11.7092 7.65664 11.6651 7.69631C11.6211 7.73598 11.5659 7.76128 11.5071 7.76883C11.4694 7.7743 11.4312 7.77636 11.393 7.775C10.8164 7.775 10.2391 7.775 9.6624 7.775C9.6376 7.7733 9.61277 7.77809 9.59039 7.78891C9.568 7.79973 9.54882 7.81619 9.53473 7.83668C9.46565 7.93436 9.36871 8.00892 9.25659 8.05062C9.14446 8.09233 9.02236 8.09924 8.90625 8.07045C8.78823 8.04992 8.67935 7.99366 8.59431 7.90928C8.50928 7.8249 8.45218 7.71645 8.43073 7.59859C8.40043 7.48142 8.40663 7.3578 8.44852 7.24426C8.4904 7.13072 8.56597 7.03268 8.6651 6.96327C8.68586 6.94931 8.70252 6.93006 8.71337 6.90751C8.72421 6.88496 8.72884 6.85992 8.72677 6.83498C8.72677 6.24942 8.72677 5.66427 8.72677 5.07954C8.72677 4.90683 8.81497 4.781 8.95744 4.74584C9.00418 4.73282 9.0533 4.73086 9.10093 4.74011C9.14855 4.74935 9.19337 4.76955 9.23185 4.79911C9.27032 4.82867 9.30138 4.86678 9.32259 4.91041C9.34379 4.95405 9.35455 5.00203 9.35402 5.05054C9.35957 5.35278 9.35772 5.6544 9.35772 5.95664Z" fill="white"/>
</svg>
