<svg width="50" height="50" viewBox="0 0 50 50" fill="none" xmlns="http://www.w3.org/2000/svg">
<g clip-path="url(#clip0_6862_197977)">
<path d="M18.0879 0.742432C9.5332 3.20337 2.81445 10.0784 0.626953 18.594C-0.193359 21.7581 -0.193359 28.2424 0.626953 31.3674C1.21289 33.594 2.89258 37.344 4.25976 39.4534C4.68945 40.1174 4.8457 41.0159 4.76758 42.4612C4.65039 44.3362 4.72851 44.6487 5.7832 45.7034C6.75976 46.6799 7.30664 46.8752 8.79101 46.8752C10.2754 46.8752 10.8223 46.6799 11.7598 45.7424C12.6582 44.8049 12.8926 44.2581 12.8926 42.8127C12.8926 40.1565 11.6816 38.9456 8.75195 38.6721L6.48633 38.4768L5.04101 35.7424C4.2207 34.219 3.2832 31.9534 2.9707 30.6643C2.18945 27.6956 2.18945 22.3049 2.93164 19.3752C4.92383 11.719 11.291 5.27368 19.1426 2.96899C21.0566 2.38306 25.0019 2.18774 29.4941 2.46118C30.8613 2.53931 31.3691 1.32837 30.2363 0.508057C29.1816 -0.273193 21.1348 -0.116943 18.0879 0.742432Z" fill="#016DEA"/>
<path d="M38.2444 4.25813C37.3459 5.19563 37.1116 5.7425 37.1116 7.18781C37.1116 9.84406 38.3225 11.055 41.2522 11.3284L43.5178 11.5238L44.9631 14.2581C45.7834 15.7425 46.7209 18.0472 47.0334 19.3363C47.8147 22.305 47.8147 27.6956 47.0725 30.6253C45.0412 38.3987 38.4006 45.0003 30.6272 47.0706C28.4006 47.6566 21.8381 47.93 21.0959 47.4612C20.8616 47.305 20.3537 47.3441 19.9241 47.4612C18.7912 47.8128 18.9475 49.18 20.1584 49.6097C21.7209 50.2347 28.7131 50.0784 31.3694 49.3753C40.1194 47.1097 47.1506 40.0784 49.3772 31.4066C50.1975 28.2425 50.1975 21.7581 49.3772 18.6331C48.7912 16.4066 47.1116 12.6566 45.7444 10.5472C45.3147 9.88313 45.1584 8.98469 45.2366 7.53938C45.3537 5.66438 45.2756 5.35188 44.2209 4.29719C43.2444 3.32063 42.6975 3.12531 41.2131 3.12531C39.7287 3.12531 39.1819 3.32063 38.2444 4.25813Z" fill="#016DEA"/>
<path d="M20.9766 7.26587C20.8203 7.42212 20.7031 8.08619 20.7031 8.75025C20.7031 9.844 20.5078 10.0393 18.9453 10.5862C17.3047 11.1721 17.1875 11.1721 16.5625 10.5081C15.5078 9.33619 14.7656 9.60962 12.1875 12.2268C9.60938 14.844 9.33594 15.5081 10.5078 16.5627C11.1719 17.1877 11.1719 17.3049 10.5859 18.9456C10.0391 20.5081 9.84375 20.6643 8.59375 20.7815L7.22656 20.8987V25.0002V29.1018L8.59375 29.219C9.84375 29.3362 10.0391 29.4924 10.5859 31.0549C11.1719 32.6956 11.1719 32.8127 10.5078 33.4377C9.33594 34.4924 9.60938 35.2346 12.2266 37.8127C14.8438 40.3909 15.5078 40.6643 16.5625 39.4924C17.1875 38.8284 17.3047 38.8284 18.9453 39.4143C20.5078 39.9612 20.6641 40.1565 20.7812 41.4065L20.8984 42.7737H25H29.1016L29.2188 41.4065C29.3359 40.1565 29.4922 39.9612 31.0547 39.4143C32.6953 38.8284 32.8125 38.8284 33.4375 39.4924C34.4922 40.6643 35.2344 40.3909 37.8125 37.7737C40.3906 35.1565 40.6641 34.4924 39.4922 33.4377C38.8281 32.8127 38.8281 32.6956 39.4141 31.0549C39.9609 29.4924 40.1562 29.3362 41.4062 29.219L42.7734 29.1018V25.0002V20.8987L41.4062 20.7815C40.1562 20.6643 39.9609 20.5081 39.4141 18.9456C38.8281 17.3049 38.8281 17.1877 39.4922 16.5627C40.6641 15.5081 40.3906 14.7659 37.7734 12.1877C35.1562 9.60962 34.4922 9.33619 33.4375 10.5081C32.8125 11.1721 32.6953 11.1721 31.0547 10.5862C29.4922 10.0393 29.3359 9.844 29.2188 8.594L29.1016 7.22681L25.1562 7.10962C23.0078 7.07056 21.1328 7.10962 20.9766 7.26587ZM27.0312 10.5862C27.1484 11.6799 27.3438 11.8752 28.8281 12.3049C29.7266 12.5784 30.9375 13.0862 31.4453 13.4377C32.6562 14.219 33.1641 14.219 34.0625 13.3987C34.7656 12.7737 34.8438 12.8127 36.0156 13.9846C37.1875 15.1565 37.2266 15.2346 36.6016 15.9377C35.7812 16.8362 35.7812 17.344 36.5625 18.5549C36.9141 19.0627 37.4219 20.2737 37.6953 21.1721C38.125 22.6565 38.3203 22.8518 39.4141 22.969C40.5859 23.0862 40.625 23.1643 40.625 25.0002C40.625 26.8362 40.5859 26.9143 39.4141 27.0315C38.3203 27.1487 38.125 27.344 37.6953 28.8284C37.4219 29.7268 36.9141 30.9377 36.5625 31.4456C35.7812 32.6565 35.7812 33.1643 36.6016 34.0627C37.2266 34.7659 37.1875 34.844 36.0156 36.0159C34.8438 37.1877 34.7656 37.2268 34.0625 36.6018C33.1641 35.7815 32.6562 35.7815 31.4453 36.5627C30.9375 36.9143 29.7266 37.4221 28.8281 37.6956C27.3438 38.1252 27.1484 38.3206 27.0312 39.4143C26.9141 40.5862 26.8359 40.6252 25 40.6252C23.1641 40.6252 23.0859 40.5862 22.9688 39.4143C22.8516 38.3206 22.6562 38.1252 21.1719 37.6956C20.2734 37.4221 19.0625 36.9143 18.5547 36.5627C17.3438 35.7815 16.8359 35.7815 15.9375 36.6018C15.2344 37.2268 15.1562 37.1877 13.9844 36.0159C12.8125 34.844 12.7734 34.7659 13.3984 34.0627C14.2188 33.1643 14.2188 32.6565 13.4375 31.4456C13.0859 30.9377 12.5781 29.7268 12.3047 28.8284C11.875 27.344 11.6797 27.1487 10.5859 27.0315C9.41406 26.9143 9.375 26.8362 9.375 25.0002C9.375 23.1643 9.41406 23.0862 10.5859 22.969C11.6797 22.8518 11.875 22.6565 12.3047 21.1721C12.5781 20.2737 13.0859 19.0627 13.4375 18.5549C14.2188 17.344 14.2188 16.8362 13.3984 15.9377C12.7734 15.2346 12.8125 15.1565 13.9844 13.9846C15.1562 12.8127 15.2344 12.7737 15.9375 13.3987C16.8359 14.219 17.3438 14.219 18.5547 13.4377C19.0625 13.0862 20.2734 12.5784 21.1719 12.3049C22.6562 11.8752 22.8516 11.6799 22.9688 10.5862C23.0859 9.41431 23.1641 9.37525 25 9.37525C26.8359 9.37525 26.9141 9.41431 27.0312 10.5862Z" fill="#016DEA"/>
<path d="M22.0329 17.2268C20.3533 17.6956 17.697 20.469 17.1892 22.1877C15.5486 28.1252 19.2986 33.2034 25.2751 33.2034C27.1892 33.2034 30.4314 31.6018 31.4861 30.1956C34.0251 26.7581 33.7126 22.0706 30.7439 19.1409C28.5954 16.9534 25.3533 16.2502 22.0329 17.2268ZM27.6579 19.8831C29.3376 20.7424 30.8611 23.1643 30.8611 25.0002C30.8611 26.7971 29.4548 29.0627 27.7361 30.0393C25.8611 31.094 24.1423 31.094 22.1892 30.0002C19.3767 28.3987 18.4392 25.1956 19.9236 22.2659C21.3689 19.4534 24.7673 18.3987 27.6579 19.8831Z" fill="#016DEA"/>
</g>
<defs>
<clipPath id="clip0_6862_197977">
<rect width="50" height="50" fill="white"/>
</clipPath>
</defs>
</svg>
