<svg width="16" height="17" viewBox="0 0 16 17" fill="none" xmlns="http://www.w3.org/2000/svg">
<g clip-path="url(#clip0_53_8223)">
<path d="M1.88149 0.581203C1.70649 0.668703 1.59399 0.790578 1.51587 0.978078C1.47524 1.07808 1.46899 1.75308 1.46899 6.87808C1.46899 11.3468 1.47837 12.6937 1.50649 12.7937C1.53149 12.8718 1.60337 12.9781 1.69087 13.0687C1.94399 13.3218 1.83774 13.3125 4.50649 13.3125C6.91587 13.3125 6.92837 13.3125 7.02212 13.1906C7.08775 13.1062 7.069 12.9437 6.98462 12.8593L6.90962 12.7812H4.55024H2.19399L2.09712 12.7L2.00024 12.6187V6.90933C2.00024 0.568703 1.98149 1.09683 2.21274 1.0312C2.37212 0.987453 11.2221 0.987453 11.3815 1.0312C11.6127 1.09683 11.594 0.737453 11.594 5.39058C11.594 9.31558 11.5971 9.58433 11.6502 9.68745C11.7596 9.9062 12.0409 9.8812 12.119 9.6437C12.1502 9.54683 12.1565 8.6562 12.1502 5.31558C12.1409 1.35933 12.1377 1.10308 12.0846 0.987453C11.994 0.784328 11.8877 0.668703 11.7127 0.581203L11.5502 0.499952H6.79712H2.04399L1.88149 0.581203Z" fill="white"/>
<path d="M3.95339 2.90673C3.62214 2.9536 3.28776 3.21298 3.14714 3.52548C3.05964 3.7286 3.04089 4.07235 3.10651 4.27548C3.28151 4.80048 3.78776 5.10361 4.32839 5.00048C4.80964 4.90986 5.18777 4.47236 5.18777 4.0036C5.18777 3.8161 5.12214 3.72548 4.96589 3.70048C4.80027 3.67235 4.68777 3.78173 4.65339 3.99735C4.62214 4.20048 4.50652 4.36298 4.33151 4.44111C4.16901 4.51298 4.08151 4.51298 3.91901 4.44111C3.64089 4.31298 3.51901 3.98798 3.65339 3.7286C3.73464 3.56298 3.85651 3.4786 4.06589 3.43485C4.29401 3.38798 4.33776 3.35985 4.36901 3.2411C4.40964 3.09423 4.35651 2.97235 4.23151 2.91923C4.17526 2.89423 4.12214 2.8786 4.11901 2.8786C4.11276 2.88173 4.03776 2.89423 3.95339 2.90673Z" fill="white"/>
<path d="M5.82523 3.23125C5.75961 3.2875 5.73773 3.33125 5.73773 3.42187C5.73773 3.5125 5.75961 3.55625 5.82523 3.6125L5.90961 3.6875H7.61273H9.31586L9.39086 3.60937C9.44398 3.55937 9.46898 3.5 9.46898 3.42187C9.46898 3.34375 9.44398 3.28437 9.39086 3.23437L9.31586 3.15625H7.61273H5.90961L5.82523 3.23125Z" fill="white"/>
<path d="M5.83507 4.28125C5.79132 4.31562 5.74757 4.38437 5.73507 4.43437C5.7132 4.5375 5.78195 4.7 5.86007 4.73125C5.8882 4.74062 6.91632 4.75 8.14445 4.75H10.3788L10.4538 4.67187C10.5319 4.59687 10.5538 4.46875 10.5132 4.35937C10.4569 4.21875 10.4444 4.21875 8.11632 4.21875C5.95695 4.21875 5.9132 4.21875 5.83507 4.28125Z" fill="white"/>
<path d="M3.81277 5.87207C3.54089 5.95644 3.26901 6.19707 3.14714 6.46269C3.04401 6.68769 3.05026 7.1127 3.15964 7.34707C3.26589 7.5752 3.45964 7.76582 3.68464 7.86895C3.93777 7.9877 4.31277 7.9877 4.56589 7.86895C4.89402 7.71895 5.14402 7.38145 5.17839 7.04707C5.20339 6.82207 5.17214 6.72832 5.06277 6.67207C4.85964 6.56582 4.69714 6.66894 4.65339 6.93457C4.63777 7.03457 4.59402 7.14395 4.54402 7.20957C4.45339 7.32832 4.25339 7.4377 4.12527 7.4377C3.88152 7.4377 3.62527 7.19707 3.60027 6.94082C3.57527 6.65957 3.75652 6.43457 4.05339 6.37832C4.27527 6.33457 4.31589 6.31269 4.35964 6.20957C4.40652 6.10019 4.37214 5.94394 4.29089 5.88144C4.23464 5.84082 3.93777 5.83457 3.81277 5.87207Z" fill="white"/>
<path d="M5.82527 6.16875C5.70965 6.26562 5.70652 6.43125 5.81277 6.54687L5.88465 6.625H6.9284H7.97215L8.04715 6.54687C8.10027 6.49687 8.12527 6.4375 8.12527 6.35937C8.12527 6.28125 8.10027 6.22187 8.04715 6.17187L7.97215 6.09375H6.9409H5.90965L5.82527 6.16875Z" fill="white"/>
<path d="M9.3006 6.14375C9.09747 6.20937 8.81622 6.4875 8.73497 6.70312C8.67872 6.84687 8.67247 6.98125 8.6631 8.5625L8.65372 10.2625L8.19435 10.7344C7.70997 11.2312 7.60997 11.375 7.51622 11.7375C7.4256 12.0844 7.44747 12.2312 7.79435 13.7125C8.05685 14.825 8.14435 15.1406 8.23497 15.3219C8.5131 15.8875 9.02247 16.3 9.62872 16.45C9.8006 16.4937 10.0568 16.5 11.285 16.5C12.91 16.5 12.9193 16.5 13.36 16.2812C13.7975 16.0656 14.0975 15.7656 14.3131 15.3281C14.5381 14.8781 14.535 14.8969 14.5256 12.9937L14.5162 11.2969L14.4225 11.1281C14.3225 10.9437 14.1381 10.7781 13.9537 10.7C13.7412 10.6125 13.3006 10.6469 13.1412 10.7625C13.085 10.8031 13.0693 10.7969 12.9475 10.6719C12.7381 10.4531 12.5943 10.3906 12.2818 10.3906C12.0693 10.3906 11.9881 10.4031 11.8756 10.4594L11.735 10.5312L11.5943 10.3937C11.3037 10.1094 10.9506 10.0344 10.585 10.1719C10.535 10.1937 10.5318 10.1 10.5318 8.525C10.5318 6.65 10.535 6.68125 10.3068 6.42187C10.0631 6.14375 9.65372 6.03125 9.3006 6.14375ZM9.77247 6.67812C9.83497 6.70625 9.90997 6.77187 9.94122 6.825C9.99747 6.91875 10.0006 7.02812 10.0006 9.225V11.5281L10.0725 11.6094C10.1693 11.7219 10.3412 11.7281 10.4537 11.625C10.5256 11.5562 10.5318 11.5312 10.5318 11.2687C10.5318 10.9531 10.5787 10.8156 10.7256 10.7094C10.835 10.6281 11.0412 10.6281 11.1475 10.7062C11.3131 10.8281 11.3443 10.9437 11.3443 11.4C11.3443 11.8 11.3475 11.8187 11.4225 11.8906C11.5256 11.9969 11.6943 11.9969 11.7975 11.8906C11.8693 11.8219 11.8756 11.7906 11.8756 11.5312C11.8756 11.1969 11.9225 11.0594 12.0693 10.9687C12.2881 10.8312 12.5725 10.9531 12.6537 11.2156C12.6725 11.2812 12.6881 11.5062 12.6881 11.7156C12.6881 12.05 12.6943 12.1 12.7506 12.1562C12.835 12.2406 12.9506 12.2625 13.0506 12.2125C13.185 12.15 13.2193 12.05 13.2193 11.7219V11.4312L13.3412 11.3094C13.4475 11.2031 13.4787 11.1875 13.6068 11.1875C13.7287 11.1875 13.7693 11.2062 13.8693 11.2937L13.985 11.4L13.9943 12.9906C14.0006 14.0219 13.9912 14.6312 13.9693 14.7312C13.8568 15.2531 13.4006 15.7469 12.885 15.9062C12.6943 15.9656 12.5943 15.9687 11.2818 15.9687C9.97247 15.9687 9.86935 15.9656 9.68185 15.9062C9.27872 15.7812 8.90685 15.4625 8.71935 15.0844C8.65372 14.9469 8.53497 14.5187 8.32247 13.625C7.97247 12.1594 7.95372 11.9906 8.1006 11.6875C8.15372 11.5844 8.27872 11.425 8.42247 11.2812L8.65685 11.05V11.4406C8.65685 11.9906 8.70372 12.0937 8.94747 12.0937C9.01622 12.0937 9.0756 12.0687 9.11935 12.0219L9.18497 11.95L9.19435 9.45312C9.20372 7.00312 9.20372 6.95 9.26622 6.84375C9.33185 6.73437 9.49747 6.625 9.60372 6.625C9.6381 6.625 9.7131 6.65 9.77247 6.67812Z" fill="white"/>
<path d="M5.87564 7.19687C5.71314 7.27812 5.68189 7.49375 5.81314 7.625C5.87252 7.68437 5.92252 7.6875 6.93189 7.6875H7.99127L8.05689 7.61562C8.09752 7.57187 8.12564 7.50312 8.12564 7.44687C8.12564 7.1625 8.09752 7.15625 6.93189 7.15625C6.20689 7.15625 5.93502 7.16875 5.87564 7.19687Z" fill="white"/>
<path d="M3.72861 8.84707C3.50986 8.93144 3.27236 9.15019 3.16611 9.36895C3.08799 9.5252 3.07861 9.58144 3.07861 9.84395C3.07861 10.1221 3.08486 10.1533 3.18486 10.3377C3.30361 10.5564 3.47236 10.7127 3.70674 10.8189C3.82549 10.8721 3.91611 10.8877 4.12549 10.8877C4.42549 10.8877 4.60361 10.8252 4.82861 10.6439C5.06924 10.4471 5.24111 9.99707 5.17549 9.73769C5.15361 9.65332 5.01611 9.5627 4.90674 9.5627C4.80361 9.5627 4.65674 9.72832 4.65674 9.84395C4.65674 10.1658 4.30361 10.4377 4.00049 10.3471C3.84424 10.3002 3.69111 10.1721 3.63799 10.0408C3.51299 9.74707 3.69424 9.39082 4.00049 9.32519C4.26611 9.26894 4.31924 9.24394 4.35986 9.15019C4.40674 9.03769 4.37549 8.88144 4.29111 8.81894C4.21299 8.76269 3.91299 8.77519 3.72861 8.84707Z" fill="white"/>
<path d="M5.83817 9.09062C5.74129 9.16875 5.70692 9.27812 5.75067 9.39375C5.81629 9.5625 5.81004 9.55937 6.93192 9.5625H7.97254L8.04754 9.48437C8.14442 9.39062 8.15067 9.225 8.06629 9.12187L8.00692 9.04687L6.96317 9.0375C5.95379 9.02812 5.91629 9.03125 5.83817 9.09062Z" fill="white"/>
<path d="M5.87564 10.1344C5.71314 10.2187 5.68189 10.4312 5.81314 10.5625C5.87252 10.6219 5.91939 10.625 6.66939 10.625H7.46627L7.52877 10.5437C7.61939 10.4281 7.61314 10.2781 7.51314 10.1844C7.43502 10.1094 7.42877 10.1094 6.69439 10.1C6.13814 10.0937 5.93502 10.1031 5.87564 10.1344Z" fill="white"/>
</g>
<defs>
<clipPath id="clip0_53_8223">
<rect width="16" height="16" fill="white" transform="translate(0 0.5)"/>
</clipPath>
</defs>
</svg>
