<svg width="16" height="16" viewBox="0 0 16 16" fill="none" xmlns="http://www.w3.org/2000/svg">
<path d="M14 6.66667C14 11.3333 8 15.3333 8 15.3333C8 15.3333 2 11.3333 2 6.66667C2 5.07537 2.63214 3.54925 3.75736 2.42403C4.88258 1.29881 6.4087 0.666672 8 0.666672C9.5913 0.666672 11.1174 1.29881 12.2426 2.42403C13.3679 3.54925 14 5.07537 14 6.66667Z" stroke="#016DEA" stroke-linecap="round" stroke-linejoin="round"/>
<path d="M7.99577 7.32259C8.92167 7.32259 9.67498 6.56928 9.67498 5.64337C9.67498 4.71725 8.92167 3.96379 7.99577 3.96379C7.06979 3.96379 6.31641 4.71725 6.31641 5.64337C6.31641 6.56928 7.06979 7.32259 7.99577 7.32259ZM7.99577 5.06922C8.31214 5.06922 8.56956 5.32678 8.56956 5.64337C8.56956 5.95975 8.31214 6.21716 7.99577 6.21716C7.67932 6.21716 7.42183 5.95975 7.42183 5.64337C7.42183 5.32678 7.67932 5.06922 7.99577 5.06922Z" fill="#016DEA"/>
<path d="M8.5712 7.38412H7.42833C6.52225 7.38412 5.78516 8.1213 5.78516 9.02738V9.88732C5.78516 10.1926 6.03255 10.44 6.33787 10.44C6.64319 10.44 6.89058 10.1926 6.89058 9.88732V9.02738C6.89058 8.73083 7.13179 8.48955 7.42833 8.48955H8.5712C8.86774 8.48955 9.1091 8.73075 9.1091 9.02738V9.88732C9.1091 10.1926 9.35649 10.44 9.66181 10.44C9.96713 10.44 10.2145 10.1926 10.2145 9.88732V9.02738C10.2144 8.1213 9.47728 7.38412 8.5712 7.38412Z" fill="#016DEA"/>
</svg>
