<svg width="16" height="16" viewBox="0 0 16 16" fill="none" xmlns="http://www.w3.org/2000/svg">
<g clip-path="url(#clip0_4746_83910)">
<path d="M6.77813 0.0501938C6.05 0.181444 5.74375 0.381444 5.88125 0.634569C5.96875 0.803319 6.07188 0.815819 6.39687 0.703319C6.76875 0.578319 7.08125 0.528319 7.48438 0.525194C7.90313 0.525194 8.14062 0.559569 8.51562 0.678319C9.53125 1.00019 10.3406 1.77832 10.7 2.78144C10.7875 3.02207 10.8813 3.41269 10.8562 3.43457C10.85 3.44082 10.8188 3.42519 10.7906 3.39707C10.7031 3.32207 10.3156 3.13769 10.0938 3.06894C9.69063 2.94082 9.75 2.92519 9.18125 3.30644C8.89688 3.49707 8.57812 3.69394 8.47188 3.75019C7.8875 4.04394 7.1125 4.04394 6.52813 3.75019C6.42188 3.69394 6.1 3.49394 5.81875 3.30644L5.30312 2.96269L5.08125 3.01582C4.85625 3.06894 4.24375 3.33769 4.20625 3.40332C4.1625 3.47207 4.12813 3.43457 4.14375 3.33457C4.21563 2.92519 4.41563 2.42832 4.65313 2.06582C4.8375 1.78769 4.85625 1.66582 4.73438 1.54707C4.62813 1.43769 4.47188 1.44082 4.35938 1.55332C4.3125 1.60019 4.20625 1.75957 4.11875 1.90332C3.64375 2.70957 3.46875 3.60644 3.6125 4.51582C3.70312 5.10332 3.70625 5.04082 3.57812 5.10957C3.33125 5.23769 3.15625 5.54707 3.15625 5.84082C3.15625 6.00332 3.34375 6.75644 3.42188 6.90644C3.54688 7.15019 3.80625 7.36269 4.09375 7.45644C4.23438 7.50332 4.25938 7.52519 4.30625 7.63769C4.50625 8.13769 4.9125 8.67832 5.33125 9.00332L5.50625 9.13769L5.49375 9.64707C5.48438 10.1408 5.48125 10.1564 5.40625 10.2314C5.33437 10.3002 5.16563 10.3377 3.58125 10.6252C2.62188 10.8002 1.75 10.9721 1.64375 11.0127C1.275 11.1439 1.03125 11.3064 0.71875 11.6221C0.46875 11.8752 0.396875 11.9689 0.271875 12.2189C0.00625 12.7533 0 12.8002 0 14.4439C0 15.8346 0.003125 15.8783 0.0625 15.9377C0.146875 16.0221 0.353125 16.0221 0.4375 15.9377C0.496875 15.8783 0.5 15.8346 0.5 14.6783C0.5 14.0221 0.5125 13.3627 0.528125 13.2158C0.565625 12.8658 0.675 12.5596 0.85625 12.2846C1.05313 11.9877 1.30313 11.7752 1.64062 11.6064C1.91875 11.4689 1.94063 11.4658 3.46563 11.1877C4.31563 11.0346 5.0125 10.9096 5.0125 10.9158C5.01562 10.9189 5.04063 11.0189 5.07188 11.1408C5.33125 12.1846 6.34375 13.0002 7.38125 13.0002C7.66563 13.0002 7.75 12.9471 7.75 12.7689C7.75 12.5439 7.7 12.5064 7.33437 12.4689C6.70937 12.4064 6.19375 12.0971 5.85 11.5814C5.72188 11.3908 5.6375 11.1908 5.54688 10.8564C5.53438 10.8033 5.55 10.7814 5.625 10.7502C5.675 10.7283 5.7625 10.6627 5.8125 10.6033C5.975 10.4221 6 10.3158 6 9.85332C6 9.46269 6.00313 9.43144 6.05625 9.45332C6.275 9.55019 6.62813 9.65957 6.84375 9.70019C7.175 9.76269 7.82188 9.76582 8.14688 9.70332C9.28438 9.48769 10.2781 8.68144 10.6969 7.63457C10.7344 7.53457 10.7719 7.49707 10.8344 7.48144C11.1219 7.40957 11.4031 7.20019 11.55 6.95332C11.6406 6.79707 11.8438 6.04082 11.8438 5.85644C11.8438 5.55332 11.6687 5.24082 11.4219 5.10957C11.2937 5.03769 11.2969 5.10332 11.3906 4.50019C11.4844 3.92207 11.4219 3.23769 11.2281 2.65644C10.7844 1.31894 9.59062 0.290819 8.20625 0.0470686C7.8625 -0.0123062 7.10938 -0.0123062 6.77813 0.0501938ZM5.70312 3.87519C6.45625 4.36894 6.82812 4.50019 7.5 4.50019C8.17188 4.50019 8.54375 4.36894 9.29688 3.87519L9.8125 3.53144L10.0156 3.60644C10.4094 3.75019 10.8125 4.06582 10.8625 4.27207C10.8781 4.33144 10.7563 5.05019 10.6656 5.42832C10.65 5.49394 10.6594 5.50019 10.7844 5.50019C11.0813 5.50019 11.3125 5.64707 11.3125 5.83144C11.3125 5.97519 11.1531 6.54707 11.075 6.67832C10.975 6.85019 10.7875 6.95957 10.5406 6.98769L10.35 7.00644L10.2656 7.24707C9.93125 8.19707 9.17188 8.89394 8.20312 9.14082C7.65313 9.28144 7.00938 9.24707 6.48125 9.04707C5.65938 8.73769 4.99375 8.04394 4.72188 7.21582L4.65313 7.00644L4.45937 6.98769C4.2125 6.95957 4.025 6.85332 3.925 6.67832C3.84687 6.54707 3.6875 5.97519 3.6875 5.83144C3.6875 5.64707 3.91875 5.50019 4.21563 5.50019C4.34063 5.50019 4.35 5.49394 4.33437 5.42832C4.24375 5.05019 4.12188 4.33144 4.1375 4.27207C4.16563 4.15644 4.40938 3.90332 4.60625 3.78457C4.7375 3.70644 5.0625 3.56269 5.17812 3.53457C5.18125 3.53144 5.41875 3.68457 5.70312 3.87519Z" fill="#016DEA"/>
<path d="M5.08125 0.815813C5.01562 0.865813 5 0.906438 5 1.01581C5 1.12519 5.01562 1.16581 5.08125 1.21581C5.19062 1.30331 5.31875 1.30019 5.425 1.20644C5.68437 0.987688 5.35 0.606438 5.08125 0.815813Z" fill="#016DEA"/>
<path d="M12.2188 7.78462C12.0156 7.82212 11.9438 7.87212 11.9063 7.98774C11.8406 8.18149 12.0031 8.36587 12.2031 8.32837C13.0469 8.16587 13.7969 8.38462 14.3469 8.95962C14.8469 9.48149 14.9969 9.96274 15 11.0534V11.5002H14.75H14.5V10.8346C14.5 10.1909 14.4969 10.1659 14.4125 9.91899C14.225 9.38462 13.8406 9.00649 13.2969 8.82837C13.0719 8.75024 13.0156 8.74399 12.6875 8.75649C12.3938 8.76899 12.2875 8.78462 12.1094 8.85649C11.6688 9.02524 11.2781 9.41274 11.1031 9.85962C11.0188 10.0721 11.0156 10.1002 11.0063 10.7877L10.9969 11.5002H10.7438H10.4906L10.5094 10.8502C10.5281 10.1284 10.575 9.87524 10.7531 9.50962C10.875 9.26899 10.8813 9.15337 10.7813 9.04712C10.6938 8.95649 10.55 8.94399 10.4406 9.02212C10.3563 9.07837 10.1563 9.48774 10.075 9.76587C10.0344 9.91274 10.0188 10.119 10.0094 10.7409C9.99377 11.4971 9.99065 11.5284 9.93127 11.5502C9.82502 11.5815 9.61877 11.7909 9.5594 11.9221C9.50627 12.0377 9.50002 12.169 9.50002 13.744C9.50002 15.6127 9.49377 15.5659 9.6969 15.7784C9.75315 15.8346 9.85315 15.9096 9.9219 15.9409C10.0406 15.9971 10.1813 16.0002 12.75 16.0002C15.3188 16.0002 15.4594 15.9971 15.5781 15.9409C15.6469 15.9096 15.7469 15.8346 15.8031 15.7784C16.0063 15.5659 16 15.6127 16 13.744C16 12.169 15.9938 12.0377 15.9406 11.9221C15.8813 11.7877 15.675 11.5815 15.5656 11.5471C15.5 11.5284 15.5 11.5127 15.5 10.819C15.5 9.98462 15.4594 9.75649 15.2344 9.29087C14.8781 8.55962 14.1875 8.00024 13.4063 7.81274C13.1219 7.74712 12.4969 7.73149 12.2188 7.78462ZM13.2594 9.38462C13.4844 9.48774 13.7594 9.75962 13.8594 9.97837C13.9625 10.1971 14 10.4846 14 11.0377V11.5002H12.75H11.5V11.0377C11.5031 10.2627 11.5781 9.96587 11.8469 9.67212C12.1094 9.38774 12.3813 9.27837 12.7969 9.29087C13.0219 9.29712 13.1125 9.31587 13.2594 9.38462ZM15.325 12.044C15.3969 12.0721 15.4406 12.119 15.4656 12.1877C15.5156 12.3315 15.5156 15.169 15.4656 15.3127C15.3969 15.5065 15.475 15.5002 12.7563 15.5002C10.9969 15.5002 10.2625 15.4909 10.1875 15.4659C10.0031 15.4002 10 15.3815 10 13.7565C10 12.744 10.0125 12.2596 10.0344 12.1877C10.1031 11.9971 10.0188 12.0034 12.7438 12.0002C14.7906 12.0002 15.2375 12.0065 15.325 12.044Z" fill="#016DEA"/>
<path d="M12.3871 12.5596C12.2027 12.644 12.0465 12.794 11.9559 12.9752C11.8402 13.2065 11.8402 13.544 11.9559 13.7752C12.0434 13.9534 12.2371 14.1377 12.3965 14.194L12.4996 14.2315V14.5534C12.4996 14.9346 12.5371 15.0002 12.7496 15.0002C12.9621 15.0002 12.9996 14.9346 12.9996 14.5534V14.2315L13.1027 14.194C13.2621 14.1377 13.4559 13.9534 13.5434 13.7752C13.659 13.544 13.659 13.2065 13.5434 12.9752C13.4527 12.794 13.2965 12.644 13.1121 12.5596C12.9371 12.4815 12.5621 12.4815 12.3871 12.5596ZM12.9871 13.1377C13.0746 13.2252 13.0934 13.269 13.0934 13.3752C13.0934 13.4815 13.0746 13.5252 12.9871 13.6127C12.8996 13.7002 12.8559 13.719 12.7496 13.719C12.6434 13.719 12.5996 13.7002 12.5121 13.6127C12.4246 13.5252 12.4059 13.4815 12.4059 13.3752C12.4059 13.269 12.4246 13.2252 12.5121 13.1377C12.5996 13.0502 12.6434 13.0315 12.7496 13.0315C12.8559 13.0315 12.8996 13.0502 12.9871 13.1377Z" fill="#016DEA"/>
<path d="M11.1375 8.26587C10.8969 8.36587 10.9781 8.75024 11.2406 8.75024C11.3812 8.75024 11.4344 8.72212 11.4875 8.61899C11.6094 8.38462 11.3844 8.15962 11.1375 8.26587Z" fill="#016DEA"/>
<path d="M2.0625 13.8127C2.00313 13.8721 2 13.9158 2 14.8752C2 15.8346 2.00313 15.8783 2.0625 15.9377C2.14688 16.0221 2.35313 16.0221 2.4375 15.9377C2.49688 15.8783 2.5 15.8346 2.5 14.8752C2.5 13.9158 2.49688 13.8721 2.4375 13.8127C2.39687 13.7721 2.33437 13.7502 2.25 13.7502C2.16563 13.7502 2.10312 13.7721 2.0625 13.8127Z" fill="#016DEA"/>
</g>
<defs>
<clipPath id="clip0_4746_83910">
<rect width="16" height="16" fill="white"/>
</clipPath>
</defs>
</svg>
