<svg width="16" height="16" viewBox="0 0 16 16" fill="none" xmlns="http://www.w3.org/2000/svg">
<g clip-path="url(#clip0_4630_53931)">
<path d="M6.75055 0.874988C4.05055 1.34999 1.76305 3.46249 0.988053 6.18749C0.738053 7.09999 0.763053 9.14999 1.05055 9.99999C1.88805 12.4875 3.51305 14.1125 6.00055 14.95C6.51305 15.125 7.03805 15.175 8.06305 15.175C9.25055 15.1625 9.57555 15.1125 10.3756 14.8125C12.6506 13.975 14.1381 12.4125 14.9506 9.99999C15.2881 8.98749 15.2631 6.82499 14.9006 5.81249C14.5631 4.89999 14.3756 4.68749 13.9631 4.79999C13.5131 4.91249 13.4631 5.21249 13.7631 6.04999C13.9006 6.44999 13.9756 6.82499 13.9131 6.87499C13.8631 6.92499 13.4256 7.06249 12.9631 7.17499C11.8256 7.44999 11.5506 7.64999 11.1131 8.51249C10.5881 9.56249 10.1756 9.73749 9.52555 9.18749C9.22555 8.93749 9.10055 8.66249 8.87555 7.72499C8.42555 5.87499 8.11305 5.47499 6.92555 5.17499C5.88805 4.89999 5.68805 4.73749 5.18805 3.76249C4.85055 3.08749 4.78805 2.87499 4.91305 2.77499C5.28805 2.46249 6.38805 2.09999 7.37555 1.94999C8.40055 1.79999 8.43805 1.78749 8.47555 1.44999C8.56305 0.774987 8.13805 0.637487 6.75055 0.874988ZM5.01305 5.64999C5.15055 5.77499 5.67555 5.98749 6.16305 6.13749C6.66305 6.27499 7.15055 6.47499 7.26305 6.57499C7.36305 6.67499 7.58805 7.32499 7.76305 8.02499C8.08805 9.44999 8.41305 9.94999 9.28805 10.4C9.66305 10.5875 9.93805 10.6375 10.3506 10.5875C11.0506 10.5125 11.4756 10.2 11.8756 9.47499C12.0506 9.14999 12.2881 8.78749 12.4131 8.64999C12.6131 8.42499 13.9506 8.03749 14.0756 8.16249C14.2131 8.29999 13.8256 9.86249 13.4756 10.625C12.9506 11.7125 11.7131 12.95 10.6256 13.475C9.90055 13.8125 8.18805 14.2375 8.06305 14.1C8.03805 14.075 8.10055 13.7125 8.20055 13.3125C8.50055 12.2 8.31305 11.525 7.42555 10.45C6.60055 9.44999 6.01305 9.13749 4.98805 9.12499C4.36305 9.12499 4.16305 9.04999 3.11305 8.42499C2.46305 8.03749 1.92555 7.69999 1.91305 7.68749C1.88805 7.67499 1.93805 7.33749 2.01305 6.92499C2.18805 5.99999 2.72555 4.84999 3.32555 4.14999L3.78805 3.59999L4.26305 4.52499C4.52555 5.02499 4.86305 5.53749 5.01305 5.64999ZM3.15055 9.79999C3.57555 10.05 3.98805 10.1625 4.52555 10.2125C5.61305 10.2875 5.90055 10.425 6.50055 11.1375C7.22555 12 7.31305 12.325 7.05055 13.2375C6.85055 13.9625 6.82555 13.9875 6.51305 13.925C4.58805 13.475 2.52555 11.4 2.07555 9.44999C1.98805 9.09999 1.98805 9.08749 2.27555 9.27499C2.43805 9.37499 2.82555 9.61249 3.15055 9.79999Z" fill="#016DEA"/>
<path d="M10.6 0.874992C9.7 1.14999 9 2.11249 9 3.08749C9 3.74999 9.575 4.87499 10.375 5.77499C11.2375 6.74999 11.5125 6.74999 12.3125 5.78749C13.4875 4.36249 13.8125 3.53749 13.6 2.56249C13.325 1.27499 11.9125 0.474992 10.6 0.874992ZM11.875 2.06249C12.7625 2.52499 12.7 3.39999 11.725 4.66249C11.525 4.91249 11.3 5.09999 11.25 5.06249C10.975 4.88749 10.125 3.43749 10.125 3.12499C10.125 2.56249 10.7625 1.91249 11.35 1.88749C11.4375 1.87499 11.675 1.96249 11.875 2.06249Z" fill="#016DEA"/>
</g>
<defs>
<clipPath id="clip0_4630_53931">
<rect width="16" height="16" fill="white"/>
</clipPath>
</defs>
</svg>
