<svg width="45" height="45" viewBox="0 0 45 45" fill="none" xmlns="http://www.w3.org/2000/svg">
<path d="M41.4922 7.81836V19.0684H30.2422" stroke="#016DEA" stroke-linecap="round" stroke-linejoin="round"/>
<path d="M36.7862 28.4431C35.5674 31.893 33.2604 34.8532 30.2127 36.8778C27.1651 38.9024 23.5421 39.8817 19.8895 39.668C16.2369 39.4543 12.7527 38.0593 9.96199 35.6931C7.17124 33.327 5.22512 30.1179 4.41689 26.5495C3.60865 22.9811 3.9821 19.2466 5.48094 15.9089C6.97979 12.5712 9.52283 9.81101 12.7269 8.04434C15.9309 6.27767 19.6223 5.6002 23.2449 6.11404C26.8674 6.62787 30.2249 8.30515 32.8112 10.8931L41.4925 19.0681" stroke="#016DEA" stroke-linecap="round" stroke-linejoin="round"/>
<path d="M15.1992 20.84V18.8391H19.0023V28.0254H16.5584V20.84H15.1992Z" fill="#016DEA"/>
<path d="M20.6083 23.3064C20.6083 21.8635 20.9103 20.7267 21.5144 19.8962C22.1277 19.0657 23.1116 18.6504 24.4663 18.6504C25.8209 18.6504 26.8003 19.0657 27.4043 19.8962C28.0176 20.7267 28.3242 21.8635 28.3242 23.3064C28.3242 24.7662 28.0176 25.9113 27.4043 26.7418C26.8003 27.5724 25.8209 27.9876 24.4663 27.9876C23.1116 27.9876 22.1277 27.5724 21.5144 26.7418C20.9103 25.9113 20.6083 24.7662 20.6083 23.3064ZM26.0177 23.3064C26.0177 22.4591 25.917 21.8089 25.7156 21.3559C25.5143 20.8945 25.0978 20.6638 24.4663 20.6638C23.8347 20.6638 23.4182 20.8945 23.2169 21.3559C23.0155 21.8089 22.9148 22.4591 22.9148 23.3064C22.9148 23.8769 22.9514 24.3509 23.0247 24.7284C23.0979 25.0975 23.2443 25.3996 23.464 25.6345C23.6928 25.861 24.0269 25.9742 24.4663 25.9742C24.9056 25.9742 25.2351 25.861 25.4548 25.6345C25.6836 25.3996 25.8346 25.0975 25.9078 24.7284C25.9811 24.3509 26.0177 23.8769 26.0177 23.3064Z" fill="#016DEA"/>
<path d="M30.2651 28.3604C29.9571 28.3604 29.6811 28.3104 29.4371 28.2104C29.1931 28.1104 28.9971 27.9624 28.8491 27.7664C28.7051 27.5704 28.6291 27.3344 28.6211 27.0584H29.7131C29.7291 27.2144 29.7831 27.3344 29.8751 27.4184C29.9671 27.4984 30.0871 27.5384 30.2351 27.5384C30.3871 27.5384 30.5071 27.5044 30.5951 27.4364C30.6831 27.3644 30.7271 27.2664 30.7271 27.1424C30.7271 27.0384 30.6911 26.9524 30.6191 26.8844C30.5511 26.8164 30.4651 26.7604 30.3611 26.7164C30.2611 26.6724 30.1171 26.6224 29.9291 26.5664C29.6571 26.4824 29.4351 26.3984 29.2631 26.3144C29.0911 26.2304 28.9431 26.1064 28.8191 25.9424C28.6951 25.7784 28.6331 25.5644 28.6331 25.3004C28.6331 24.9084 28.7751 24.6024 29.0591 24.3824C29.3431 24.1584 29.7131 24.0464 30.1691 24.0464C30.6331 24.0464 31.0071 24.1584 31.2911 24.3824C31.5751 24.6024 31.7271 24.9104 31.7471 25.3064H30.6371C30.6291 25.1704 30.5791 25.0644 30.4871 24.9884C30.3951 24.9084 30.2771 24.8684 30.1331 24.8684C30.0091 24.8684 29.9091 24.9024 29.8331 24.9704C29.7571 25.0344 29.7191 25.1284 29.7191 25.2524C29.7191 25.3884 29.7831 25.4944 29.9111 25.5704C30.0391 25.6464 30.2391 25.7284 30.5111 25.8164C30.7831 25.9084 31.0031 25.9964 31.1711 26.0804C31.3431 26.1644 31.4911 26.2864 31.6151 26.4464C31.7391 26.6064 31.8011 26.8124 31.8011 27.0644C31.8011 27.3044 31.7391 27.5224 31.6151 27.7184C31.4951 27.9144 31.3191 28.0704 31.0871 28.1864C30.8551 28.3024 30.5811 28.3604 30.2651 28.3604Z" fill="#016DEA"/>
</svg>
