<svg width="16" height="16" viewBox="0 0 16 16" fill="none" xmlns="http://www.w3.org/2000/svg">
<g clip-path="url(#clip0_4630_53993)">
<path d="M6.19473 4.36717L4.4383 6.12359L3.95801 5.64329L5.71443 3.88687L6.19473 4.36717Z" fill="#016DEA"/>
<path d="M15.9934 8.89253L13.4766 5.11566H10.379V7.87202H9.25677V5.11566H8.40361C8.13126 3.03855 6.37572 1.46021 4.21985 1.46021C1.87039 1.46021 0 3.36669 0 5.68006C0 7.23543 0.843314 8.58736 2.10993 9.30926V12.6694H3.78015C3.83265 13.7129 4.69565 14.5398 5.75226 14.5398C6.80886 14.5398 7.67186 13.7096 7.72436 12.6694H10.356C10.4085 13.7129 11.2715 14.5398 12.3281 14.5398C13.3847 14.5398 14.2477 13.7096 14.3002 12.6694H16V8.89253H15.9934ZM12.3216 5.79491H13.1058L14.95 8.55126H12.3216V5.79491ZM0.679245 5.67678C0.679245 3.73748 2.24446 2.13617 4.21985 2.13617C6.15915 2.13617 7.76046 3.70139 7.76046 5.67678C7.76046 7.65217 6.19524 9.21738 4.21985 9.21738C2.24446 9.21738 0.679245 7.61935 0.679245 5.67678ZM5.75226 13.8277C5.0566 13.8277 4.49221 13.2633 4.49221 12.5677C4.49221 11.872 5.0566 11.3076 5.75226 11.3076C6.44791 11.3076 7.0123 11.872 7.0123 12.5677C7.0123 13.2633 6.44463 13.8277 5.75226 13.8277ZM12.3249 13.8277C11.6292 13.8277 11.0648 13.2633 11.0648 12.5677C11.0648 11.872 11.6292 11.3076 12.3249 11.3076C13.0205 11.3076 13.5849 11.872 13.5849 12.5677C13.5849 13.2633 13.0205 13.8277 12.3249 13.8277ZM15.3142 11.9869H14.2116V11.9901C13.9655 11.1829 13.2141 10.5956 12.3249 10.5956C11.4356 10.5956 10.6842 11.1829 10.4381 11.9901H7.63905C7.39294 11.1829 6.64151 10.5956 5.75226 10.5956C4.863 10.5956 4.11157 11.1829 3.86546 11.9901H2.78917V9.62099C3.23544 9.7785 3.71452 9.86381 4.21985 9.86381C6.49385 9.86381 8.37736 8.08859 8.43642 5.79491H8.57424V8.55126H11.0582V5.79491H11.639V9.23051H15.3142V11.9869Z" fill="#016DEA"/>
<path d="M4.55815 2.58243H3.87891V3.19605H4.55815V2.58243Z" fill="#016DEA"/>
<path d="M4.55815 8.16077H3.87891V8.77438H4.55815V8.16077Z" fill="#016DEA"/>
<path d="M1.73569 5.33881H1.12207V6.01805H1.73569V5.33881Z" fill="#016DEA"/>
<path d="M7.31772 5.33881H6.7041V6.01805H7.31772V5.33881Z" fill="#016DEA"/>
</g>
<defs>
<clipPath id="clip0_4630_53993">
<rect width="16" height="16" fill="white"/>
</clipPath>
</defs>
</svg>
