<svg width="24" height="24" viewBox="0 0 24 24" fill="none" xmlns="http://www.w3.org/2000/svg">
<g clip-path="url(#clip0_7822_108338)">
<mask id="path-1-inside-1_7822_108338" fill="white">
<path d="M19.125 3.1752C16.7391 3.83614 13.0641 4.75957 11.2407 5.16739C8.80315 5.70645 6.71253 5.93145 2.62503 6.08145C1.88909 6.10958 1.20472 6.15645 1.10159 6.17989C0.825029 6.25489 0.492216 6.48458 0.309404 6.72832C-0.00934607 7.16426 2.89352e-05 7.0752 2.89352e-05 10.3471C2.89352e-05 13.619 -0.00934607 13.5299 0.309404 13.9658C0.492216 14.2096 0.825029 14.444 1.10159 14.5096C1.20472 14.5377 1.59378 14.5705 1.96878 14.5893L2.64847 14.6221L4.02659 17.2471C4.78597 18.6908 5.4844 19.9893 5.57815 20.1393C6.44065 21.4752 8.46097 21.6627 9.6094 20.519C10.1203 20.008 10.4016 19.333 10.4063 18.6158C10.4063 18.0721 10.2703 17.7018 9.56253 16.3611C9.20159 15.6768 8.91097 15.1049 8.92034 15.1002C8.95315 15.0674 10.3219 15.3252 11.461 15.5783C12.8485 15.8877 15.7969 16.6236 18.1875 17.2611C19.7625 17.683 19.9219 17.7158 20.2313 17.6971C20.7797 17.6596 21.2157 17.3549 21.4782 16.8205C21.5813 16.6143 21.586 16.5393 21.6 15.3815L21.6141 14.1533L21.9235 13.9752C22.6453 13.5486 23.2078 12.9486 23.5782 12.1986C23.8922 11.5611 24 11.0924 24 10.3471C24 9.60176 23.8922 9.12833 23.5782 8.49551C23.2078 7.74082 22.6782 7.17364 21.9422 6.7377L21.6141 6.54082L21.6 5.31739C21.586 4.15489 21.5813 4.07989 21.4782 3.87364C21.3235 3.55957 21.0891 3.30645 20.8078 3.15176C20.6016 3.03926 20.4891 3.01583 20.1797 3.00176C19.861 2.99239 19.7016 3.01583 19.125 3.1752ZM20.4141 3.97207C20.7328 4.16895 20.7094 3.75176 20.7282 10.3236C20.7422 16.0471 20.7375 16.2815 20.6532 16.4502C20.55 16.6611 20.3203 16.8158 20.1141 16.8158C20.0297 16.8158 19.7813 16.7643 19.5563 16.7033C17.6344 16.1643 13.3172 15.0721 11.7657 14.7299C11.3391 14.6361 10.9547 14.5518 10.9125 14.5377C10.8328 14.5143 10.8282 14.2752 10.8282 10.3471C10.8282 6.41895 10.8328 6.17989 10.9125 6.15645C10.9547 6.14239 11.3391 6.05801 11.7657 5.96426C13.336 5.61739 18.2063 4.38457 19.5938 3.97676C20.0016 3.85958 20.2266 3.85489 20.4141 3.97207ZM9.93753 10.3471C9.93753 12.9111 9.92347 14.3315 9.89065 14.3315C9.86722 14.3315 9.58597 14.2893 9.2719 14.2377C8.06722 14.0455 5.80315 13.8533 3.63284 13.769C1.48597 13.6799 1.2844 13.6611 1.14378 13.5299C0.862529 13.2674 0.871904 13.3893 0.871904 10.3471C0.867216 7.29082 0.853154 7.43145 1.14378 7.16426C1.2844 7.03301 1.48128 7.01426 3.65628 6.9252C5.81722 6.83614 8.11878 6.64395 9.21097 6.46114C9.4969 6.41426 9.77347 6.37208 9.8344 6.36739L9.93753 6.3627V10.3471ZM21.9985 7.88614C22.6875 8.45333 23.1094 9.38614 23.1094 10.3471C23.1094 11.458 22.6688 12.2971 21.6938 13.0611C21.6141 13.1221 21.6094 12.9861 21.6094 10.3471C21.6094 7.70801 21.6141 7.57207 21.6938 7.63301C21.736 7.67051 21.8766 7.78301 21.9985 7.88614ZM5.13284 14.7299C6.15003 14.7955 7.79534 14.9315 7.8094 14.9549C7.8094 14.9596 8.16097 15.6346 8.59222 16.4502C9.01878 17.2705 9.40784 18.058 9.45003 18.208C9.67034 18.9627 9.24378 19.8533 8.48909 20.2283C8.25472 20.3408 8.17503 20.3549 7.75784 20.3549C7.33597 20.3549 7.26097 20.3408 7.01722 20.2236C6.48284 19.9565 6.42659 19.8721 5.01565 17.1908C4.30784 15.8455 3.7219 14.7205 3.71253 14.7018C3.68909 14.6455 3.82503 14.6502 5.13284 14.7299Z"/>
</mask>
<path d="M19.125 3.1752C16.7391 3.83614 13.0641 4.75957 11.2407 5.16739C8.80315 5.70645 6.71253 5.93145 2.62503 6.08145C1.88909 6.10958 1.20472 6.15645 1.10159 6.17989C0.825029 6.25489 0.492216 6.48458 0.309404 6.72832C-0.00934607 7.16426 2.89352e-05 7.0752 2.89352e-05 10.3471C2.89352e-05 13.619 -0.00934607 13.5299 0.309404 13.9658C0.492216 14.2096 0.825029 14.444 1.10159 14.5096C1.20472 14.5377 1.59378 14.5705 1.96878 14.5893L2.64847 14.6221L4.02659 17.2471C4.78597 18.6908 5.4844 19.9893 5.57815 20.1393C6.44065 21.4752 8.46097 21.6627 9.6094 20.519C10.1203 20.008 10.4016 19.333 10.4063 18.6158C10.4063 18.0721 10.2703 17.7018 9.56253 16.3611C9.20159 15.6768 8.91097 15.1049 8.92034 15.1002C8.95315 15.0674 10.3219 15.3252 11.461 15.5783C12.8485 15.8877 15.7969 16.6236 18.1875 17.2611C19.7625 17.683 19.9219 17.7158 20.2313 17.6971C20.7797 17.6596 21.2157 17.3549 21.4782 16.8205C21.5813 16.6143 21.586 16.5393 21.6 15.3815L21.6141 14.1533L21.9235 13.9752C22.6453 13.5486 23.2078 12.9486 23.5782 12.1986C23.8922 11.5611 24 11.0924 24 10.3471C24 9.60176 23.8922 9.12833 23.5782 8.49551C23.2078 7.74082 22.6782 7.17364 21.9422 6.7377L21.6141 6.54082L21.6 5.31739C21.586 4.15489 21.5813 4.07989 21.4782 3.87364C21.3235 3.55957 21.0891 3.30645 20.8078 3.15176C20.6016 3.03926 20.4891 3.01583 20.1797 3.00176C19.861 2.99239 19.7016 3.01583 19.125 3.1752ZM20.4141 3.97207C20.7328 4.16895 20.7094 3.75176 20.7282 10.3236C20.7422 16.0471 20.7375 16.2815 20.6532 16.4502C20.55 16.6611 20.3203 16.8158 20.1141 16.8158C20.0297 16.8158 19.7813 16.7643 19.5563 16.7033C17.6344 16.1643 13.3172 15.0721 11.7657 14.7299C11.3391 14.6361 10.9547 14.5518 10.9125 14.5377C10.8328 14.5143 10.8282 14.2752 10.8282 10.3471C10.8282 6.41895 10.8328 6.17989 10.9125 6.15645C10.9547 6.14239 11.3391 6.05801 11.7657 5.96426C13.336 5.61739 18.2063 4.38457 19.5938 3.97676C20.0016 3.85958 20.2266 3.85489 20.4141 3.97207ZM9.93753 10.3471C9.93753 12.9111 9.92347 14.3315 9.89065 14.3315C9.86722 14.3315 9.58597 14.2893 9.2719 14.2377C8.06722 14.0455 5.80315 13.8533 3.63284 13.769C1.48597 13.6799 1.2844 13.6611 1.14378 13.5299C0.862529 13.2674 0.871904 13.3893 0.871904 10.3471C0.867216 7.29082 0.853154 7.43145 1.14378 7.16426C1.2844 7.03301 1.48128 7.01426 3.65628 6.9252C5.81722 6.83614 8.11878 6.64395 9.21097 6.46114C9.4969 6.41426 9.77347 6.37208 9.8344 6.36739L9.93753 6.3627V10.3471ZM21.9985 7.88614C22.6875 8.45333 23.1094 9.38614 23.1094 10.3471C23.1094 11.458 22.6688 12.2971 21.6938 13.0611C21.6141 13.1221 21.6094 12.9861 21.6094 10.3471C21.6094 7.70801 21.6141 7.57207 21.6938 7.63301C21.736 7.67051 21.8766 7.78301 21.9985 7.88614ZM5.13284 14.7299C6.15003 14.7955 7.79534 14.9315 7.8094 14.9549C7.8094 14.9596 8.16097 15.6346 8.59222 16.4502C9.01878 17.2705 9.40784 18.058 9.45003 18.208C9.67034 18.9627 9.24378 19.8533 8.48909 20.2283C8.25472 20.3408 8.17503 20.3549 7.75784 20.3549C7.33597 20.3549 7.26097 20.3408 7.01722 20.2236C6.48284 19.9565 6.42659 19.8721 5.01565 17.1908C4.30784 15.8455 3.7219 14.7205 3.71253 14.7018C3.68909 14.6455 3.82503 14.6502 5.13284 14.7299Z" fill="#016DEA"/>
<path d="M19.125 3.1752L19.0716 2.98246L19.0717 2.98243L19.125 3.1752ZM11.2407 5.16739L11.2843 5.36257L11.2838 5.36267L11.2407 5.16739ZM2.62503 6.08145L2.61739 5.8816L2.61769 5.88158L2.62503 6.08145ZM1.10159 6.17989L1.0492 5.98669L1.05727 5.98486L1.10159 6.17989ZM0.309404 6.72832L0.147946 6.61027L0.149404 6.60833L0.309404 6.72832ZM0.309404 13.9658L0.149392 14.0858L0.147957 14.0839L0.309404 13.9658ZM1.10159 14.5096L1.14779 14.3149L1.15421 14.3166L1.10159 14.5096ZM1.96878 14.5893L1.95913 14.789L1.95879 14.789L1.96878 14.5893ZM2.64847 14.6221L2.65811 14.4223L2.77237 14.4278L2.82555 14.5291L2.64847 14.6221ZM4.02659 17.2471L3.84958 17.3402L3.84951 17.34L4.02659 17.2471ZM5.57815 20.1393L5.41011 20.2478L5.40855 20.2453L5.57815 20.1393ZM9.6094 20.519L9.75082 20.6604L9.75054 20.6607L9.6094 20.519ZM10.4063 18.6158H10.6063L10.6063 18.6171L10.4063 18.6158ZM9.56253 16.3611L9.38567 16.4545L9.38562 16.4544L9.56253 16.3611ZM8.92034 15.1002L9.06176 15.2416L9.03881 15.2646L9.00978 15.2791L8.92034 15.1002ZM11.461 15.5783L11.5044 15.3831L11.5045 15.3831L11.461 15.5783ZM18.1875 17.2611L18.2391 17.0679L18.2393 17.0679L18.1875 17.2611ZM20.2313 17.6971L20.2449 17.8966L20.2434 17.8967L20.2313 17.6971ZM21.4782 16.8205L21.2986 16.7323L21.2993 16.7311L21.4782 16.8205ZM21.6 15.3815L21.8 15.3837V15.3839L21.6 15.3815ZM21.6141 14.1533L21.4141 14.151L21.4154 14.0369L21.5143 13.98L21.6141 14.1533ZM21.9235 13.9752L22.0252 14.1474L22.0233 14.1485L21.9235 13.9752ZM23.5782 12.1986L23.7576 12.287L23.7575 12.2872L23.5782 12.1986ZM23.5782 8.49551L23.399 8.58442L23.3986 8.58361L23.5782 8.49551ZM21.9422 6.7377L21.8403 6.90978L21.8393 6.9092L21.9422 6.7377ZM21.6141 6.54082L21.5112 6.71232L21.4154 6.65484L21.4141 6.54312L21.6141 6.54082ZM21.6 5.31739L21.8 5.31497V5.31509L21.6 5.31739ZM21.4782 3.87364L21.2993 3.96308L21.2987 3.96201L21.4782 3.87364ZM20.8078 3.15176L20.9036 2.97618L20.9042 2.97652L20.8078 3.15176ZM20.1797 3.00176L20.1856 2.80182L20.1888 2.80197L20.1797 3.00176ZM20.4141 3.97207L20.309 4.14224L20.3081 4.14167L20.4141 3.97207ZM20.7282 10.3236L20.9282 10.3231V10.3231L20.7282 10.3236ZM20.6532 16.4502L20.4735 16.3624L20.4743 16.3608L20.6532 16.4502ZM19.5563 16.7033L19.504 16.8964L19.5023 16.8959L19.5563 16.7033ZM11.7657 14.7299L11.8086 14.5345L11.8087 14.5346L11.7657 14.7299ZM10.9125 14.5377L10.969 14.3457L10.9758 14.348L10.9125 14.5377ZM10.9125 6.15645L10.9758 6.34631L10.969 6.34832L10.9125 6.15645ZM11.7657 5.96426L11.8088 6.15955L11.8086 6.1596L11.7657 5.96426ZM19.5938 3.97676L19.5374 3.78488L19.5385 3.78454L19.5938 3.97676ZM9.2719 14.2377L9.30341 14.0402L9.30431 14.0403L9.2719 14.2377ZM3.63284 13.769L3.62507 13.9688L3.62455 13.9688L3.63284 13.769ZM0.871904 10.3471L1.0719 10.3468V10.3471H0.871904ZM1.14378 7.16426L1.28025 7.31048L1.27914 7.3115L1.14378 7.16426ZM3.65628 6.9252L3.66451 7.12503L3.66446 7.12503L3.65628 6.9252ZM9.21097 6.46114L9.17795 6.26388L9.17861 6.26377L9.21097 6.46114ZM9.8344 6.36739L9.81906 6.16788L9.82532 6.16759L9.8344 6.36739ZM9.93753 6.3627L9.92845 6.16291L10.1375 6.1534V6.3627H9.93753ZM21.9985 7.88614L21.8713 8.04057L21.8693 8.03881L21.9985 7.88614ZM21.6938 13.0611L21.8172 13.2186L21.8153 13.22L21.6938 13.0611ZM21.6938 7.63301L21.8153 7.47414L21.8211 7.47863L21.8267 7.48353L21.6938 7.63301ZM5.13284 14.7299L5.14501 14.5303L5.14572 14.5303L5.13284 14.7299ZM7.8094 14.9549L7.9809 14.852L8.0094 14.8995V14.9549H7.8094ZM8.59222 16.4502L8.76903 16.3567L8.76966 16.3579L8.59222 16.4502ZM9.45003 18.208L9.25803 18.2641L9.2575 18.2622L9.45003 18.208ZM8.48909 20.2283L8.5781 20.4074L8.57564 20.4086L8.48909 20.2283ZM7.01722 20.2236L6.93055 20.4039L6.92777 20.4025L7.01722 20.2236ZM5.01565 17.1908L4.83866 17.284L4.83866 17.2839L5.01565 17.1908ZM3.71253 14.7018L3.53322 14.7914L3.52791 14.7787L3.71253 14.7018ZM19.1784 3.36794C16.7898 4.02963 13.1115 4.95391 11.2843 5.36257L11.197 4.97221C13.0167 4.56524 16.6884 3.64265 19.0716 2.98246L19.1784 3.36794ZM11.2838 5.36267C8.82966 5.90542 6.7256 6.1311 2.63236 6.28132L2.61769 5.88158C6.69946 5.7318 8.77664 5.50748 11.1975 4.97211L11.2838 5.36267ZM2.63267 6.2813C2.26639 6.2953 1.91315 6.31396 1.63914 6.332C1.50204 6.34102 1.38557 6.34983 1.2976 6.35777C1.25355 6.36174 1.21756 6.36541 1.19016 6.36868C1.17646 6.37031 1.16563 6.37176 1.15744 6.37299C1.14861 6.37432 1.14541 6.37503 1.14592 6.37491L1.05727 5.98486C1.09882 5.97542 1.17564 5.96714 1.26168 5.95938C1.35404 5.95105 1.47399 5.942 1.61287 5.93286C1.89081 5.91457 2.24773 5.89572 2.61739 5.8816L2.63267 6.2813ZM1.15394 6.37292C0.922827 6.43559 0.627025 6.63816 0.469404 6.84832L0.149404 6.60833C0.357408 6.33099 0.727231 6.07419 1.04924 5.98686L1.15394 6.37292ZM0.47085 6.84637C0.386004 6.96241 0.34368 7.01758 0.31084 7.09536C0.278812 7.17121 0.252491 7.2791 0.234467 7.49116C0.197903 7.92135 0.200029 8.70434 0.200029 10.3471H-0.199971C-0.199971 8.71793 -0.202533 7.90952 -0.164096 7.45729C-0.14462 7.22814 -0.11352 7.07206 -0.0576575 6.93976C-0.00260687 6.80938 0.0734287 6.71221 0.147957 6.61028L0.47085 6.84637ZM0.200029 10.3471C0.200029 11.9898 0.197903 12.7728 0.234467 13.203C0.252491 13.4151 0.278812 13.5229 0.31084 13.5988C0.34368 13.6766 0.386004 13.7317 0.47085 13.8478L0.147957 14.0839C0.0734287 13.9819 -0.00260687 13.8848 -0.0576575 13.7544C-0.11352 13.6221 -0.14462 13.466 -0.164096 13.2369C-0.202533 12.7846 -0.199971 11.9762 -0.199971 10.3471H0.200029ZM0.469404 13.8458C0.628557 14.058 0.923352 14.2617 1.14777 14.315L1.05542 14.7042C0.726706 14.6262 0.355876 14.3611 0.149404 14.0858L0.469404 13.8458ZM1.15421 14.3166C1.18516 14.3251 1.28887 14.3392 1.45107 14.3537C1.60499 14.3675 1.79333 14.3802 1.97877 14.3895L1.95879 14.789C1.76923 14.7795 1.57554 14.7665 1.41539 14.7521C1.26353 14.7385 1.12115 14.7222 1.04897 14.7025L1.15421 14.3166ZM1.97842 14.3895L2.65811 14.4223L2.63882 14.8218L1.95913 14.789L1.97842 14.3895ZM2.82555 14.5291L4.20367 17.1541L3.84951 17.34L2.47139 14.715L2.82555 14.5291ZM4.2036 17.154C4.9656 18.6027 5.65912 19.8915 5.74775 20.0333L5.40855 20.2453C5.30968 20.0871 4.60633 18.7789 3.84958 17.3402L4.2036 17.154ZM5.74618 20.0308C6.53655 21.255 8.40588 21.4353 9.46827 20.3772L9.75054 20.6607C8.51605 21.8901 6.34476 21.6954 5.41013 20.2477L5.74618 20.0308ZM9.46798 20.3775C9.94176 19.9038 10.2019 19.2791 10.2063 18.6145L10.6063 18.6171C10.6012 19.3869 10.2989 20.1123 9.75082 20.6604L9.46798 20.3775ZM10.2063 18.6158C10.2063 18.1287 10.0963 17.8005 9.38567 16.4545L9.73939 16.2678C10.4444 17.6031 10.6063 18.0154 10.6063 18.6158H10.2063ZM9.38562 16.4544C9.20482 16.1116 9.04147 15.7967 8.92432 15.5665C8.86583 15.4516 8.81845 15.357 8.78608 15.2904C8.77006 15.2574 8.75688 15.2296 8.74772 15.209C8.74343 15.1993 8.73844 15.1878 8.7344 15.1768C8.73283 15.1726 8.72866 15.1612 8.72545 15.1472C8.72422 15.1419 8.72006 15.1237 8.72012 15.1003C8.72015 15.089 8.72104 15.0642 8.73127 15.0347C8.74197 15.0039 8.76913 14.9522 8.8309 14.9213L9.00978 15.2791C9.0714 15.2483 9.09845 15.1967 9.10908 15.1661C9.11924 15.1369 9.12009 15.1123 9.12012 15.1013C9.12018 15.0786 9.11617 15.0615 9.11522 15.0574C9.11367 15.0506 9.11212 15.0456 9.11141 15.0434C9.1106 15.0409 9.10995 15.0391 9.10968 15.0384C9.10905 15.0367 9.10969 15.0385 9.11316 15.0463C9.11951 15.0606 9.13032 15.0836 9.14586 15.1156C9.17662 15.1789 9.2227 15.2709 9.28081 15.3851C9.39687 15.6131 9.5593 15.9263 9.73943 16.2678L9.38562 16.4544ZM8.77892 14.9588C8.81244 14.9253 8.84864 14.9126 8.86174 14.9084C8.87857 14.903 8.89299 14.9007 8.90147 14.8996C8.91868 14.8974 8.93428 14.8973 8.94421 14.8974C8.96537 14.8977 8.98935 14.8996 9.01268 14.902C9.06072 14.9069 9.1254 14.9159 9.2018 14.9279C9.35554 14.9518 9.56764 14.9893 9.81281 15.0355C10.3036 15.1279 10.9327 15.256 11.5044 15.3831L11.4176 15.7736C10.8502 15.6475 10.2254 15.5202 9.73881 15.4286C9.4953 15.3827 9.28788 15.3461 9.14015 15.3231C9.06582 15.3115 9.00928 15.3038 8.97174 15.2999C8.95228 15.2979 8.94238 15.2974 8.93933 15.2974C8.93715 15.2973 8.94306 15.2976 8.95309 15.2963C8.95799 15.2957 8.96946 15.294 8.98396 15.2893C8.99475 15.2858 9.02927 15.2741 9.06176 15.2416L8.77892 14.9588ZM11.5045 15.3831C12.8958 15.6933 15.8472 16.4301 18.2391 17.0679L18.136 17.4544C15.7466 16.8172 12.8011 16.0821 11.4174 15.7735L11.5045 15.3831ZM18.2393 17.0679C19.8314 17.4944 19.9508 17.5137 20.2192 17.4974L20.2434 17.8967C19.893 17.9179 19.6936 17.8716 18.1358 17.4543L18.2393 17.0679ZM20.2176 17.4975C20.6886 17.4653 21.0647 17.2085 21.2986 16.7323L21.6577 16.9087C21.3666 17.5013 20.8708 17.8538 20.2449 17.8966L20.2176 17.4975ZM21.2993 16.7311C21.323 16.6836 21.3361 16.6535 21.3461 16.6175C21.3566 16.5802 21.3658 16.5291 21.3732 16.4412C21.3883 16.2609 21.393 15.962 21.4 15.379L21.8 15.3839C21.793 15.9588 21.7884 16.2762 21.7718 16.4745C21.7633 16.5758 21.7512 16.6545 21.7313 16.7254C21.7111 16.7977 21.6849 16.8543 21.657 16.91L21.2993 16.7311ZM21.4 15.3792L21.4141 14.151L21.8141 14.1556L21.8 15.3837L21.4 15.3792ZM21.5143 13.98L21.8237 13.8019L22.0233 14.1485L21.7139 14.3266L21.5143 13.98ZM21.8217 13.803C22.5108 13.3958 23.0461 12.8246 23.3988 12.1101L23.7575 12.2872C23.3696 13.0727 22.7798 13.7015 22.0252 14.1474L21.8217 13.803ZM23.3987 12.1103C23.6987 11.5013 23.8 11.063 23.8 10.3471H24.2C24.2 11.1218 24.0857 11.6209 23.7576 12.287L23.3987 12.1103ZM23.8 10.3471C23.8 9.63085 23.6986 9.18807 23.399 8.58442L23.7573 8.4066C24.0858 9.06858 24.2 9.57267 24.2 10.3471H23.8ZM23.3986 8.58361C23.0459 7.86483 22.5437 7.32642 21.8403 6.90978L22.0441 6.56562C22.8127 7.02085 23.3698 7.61682 23.7577 8.40741L23.3986 8.58361ZM21.8393 6.9092L21.5112 6.71232L21.717 6.36933L22.0451 6.5662L21.8393 6.9092ZM21.4141 6.54312L21.4 5.31969L21.8 5.31509L21.8141 6.53853L21.4141 6.54312ZM21.4 5.31981C21.393 4.73453 21.3883 4.43439 21.3732 4.25353C21.3658 4.1653 21.3566 4.11403 21.3461 4.07664C21.336 4.04061 21.323 4.01051 21.2993 3.96308L21.657 3.78419C21.6849 3.83989 21.7111 3.89651 21.7313 3.96888C21.7512 4.03989 21.7633 4.11869 21.7718 4.22031C21.7884 4.41914 21.793 4.73774 21.8 5.31497L21.4 5.31981ZM21.2987 3.96201C21.1603 3.68093 20.9532 3.45999 20.7115 3.32701L20.9042 2.97652C21.2249 3.15291 21.4866 3.43822 21.6576 3.78527L21.2987 3.96201ZM20.7121 3.32734C20.6182 3.27616 20.5559 3.25076 20.4868 3.23458C20.4136 3.21742 20.324 3.20853 20.1706 3.20156L20.1888 2.80197C20.3448 2.80906 20.4662 2.81891 20.5781 2.84512C20.6941 2.8723 20.7912 2.91487 20.9036 2.97618L20.7121 3.32734ZM20.1738 3.20168C19.8845 3.19317 19.7476 3.21061 19.1783 3.36797L19.0717 2.98243C19.6556 2.82104 19.8374 2.79161 20.1856 2.80185L20.1738 3.20168ZM20.5192 3.80192C20.5501 3.82098 20.6997 3.87608 20.776 4.03828C20.8099 4.11035 20.831 4.19888 20.8465 4.3069C20.8624 4.41676 20.8742 4.55964 20.8834 4.74745C20.92 5.49532 20.9188 7.0416 20.9282 10.3231L20.5282 10.3242C20.5188 7.0338 20.5199 5.50273 20.4839 4.76701C20.4749 4.58392 20.4638 4.45551 20.4506 4.36399C20.4372 4.27064 20.423 4.22769 20.414 4.20851C20.4045 4.18819 20.4375 4.22161 20.309 4.14223L20.5192 3.80192ZM20.9282 10.3231C20.9352 13.184 20.9375 14.6754 20.9276 15.4724C20.9226 15.8695 20.9145 16.1007 20.9017 16.2444C20.8884 16.393 20.8685 16.4666 20.832 16.5396L20.4743 16.3608C20.48 16.3494 20.4924 16.3305 20.5032 16.2088C20.5146 16.0823 20.5226 15.8654 20.5276 15.4674C20.5375 14.6742 20.5352 13.1868 20.5282 10.3241L20.9282 10.3231ZM20.8328 16.538C20.7014 16.8069 20.408 17.0158 20.1141 17.0158V16.6158C20.2327 16.6158 20.3987 16.5154 20.4735 16.3624L20.8328 16.538ZM20.1141 17.0158C20.0487 17.0158 19.9463 16.9984 19.848 16.9784C19.7428 16.957 19.6203 16.9279 19.504 16.8964L19.6086 16.5103C19.7173 16.5397 19.8315 16.5669 19.9278 16.5864C20.0311 16.6075 20.0951 16.6158 20.1141 16.6158V17.0158ZM19.5023 16.8959C17.5833 16.3576 13.2698 15.2664 11.7226 14.9252L11.8087 14.5346C13.3646 14.8777 17.6855 15.9709 19.6103 16.5108L19.5023 16.8959ZM11.7227 14.9252C11.5096 14.8784 11.3064 14.8338 11.1513 14.7991C11.0052 14.7664 10.8831 14.7387 10.8493 14.7274L10.9758 14.348C10.9752 14.3478 10.9957 14.3532 11.0491 14.3657C11.0968 14.3768 11.1614 14.3915 11.2386 14.4087C11.3928 14.4432 11.5951 14.4876 11.8086 14.5346L11.7227 14.9252ZM10.8561 14.7296C10.8272 14.7211 10.7945 14.7056 10.7642 14.6781C10.7354 14.6521 10.7171 14.6227 10.7051 14.5973C10.6836 14.5516 10.6738 14.4994 10.6675 14.4519C10.6541 14.3519 10.646 14.1861 10.6405 13.9107C10.6293 13.3544 10.6282 12.3099 10.6282 10.3471H11.0282C11.0282 12.3124 11.0293 13.3515 11.0404 13.9026C11.046 14.1809 11.054 14.3247 11.064 14.3989C11.0693 14.4385 11.0729 14.4395 11.0669 14.4267C11.0627 14.4178 11.0527 14.3998 11.0327 14.3817C11.0112 14.3622 10.9879 14.3514 10.969 14.3458L10.8561 14.7296ZM10.6282 10.3471C10.6282 8.38424 10.6293 7.33976 10.6405 6.78348C10.646 6.50807 10.6541 6.34221 10.6675 6.24222C10.6738 6.1947 10.6836 6.14252 10.7051 6.09686C10.7171 6.0715 10.7354 6.04209 10.7642 6.01601C10.7945 5.98854 10.8272 5.97307 10.8561 5.96458L10.969 6.34832C10.9879 6.34276 11.0112 6.3319 11.0327 6.31243C11.0527 6.29434 11.0627 6.27631 11.0669 6.2674C11.0729 6.25465 11.0693 6.25567 11.064 6.29524C11.054 6.36942 11.046 6.51323 11.0404 6.79152C11.0293 7.34267 11.0282 8.38178 11.0282 10.3471H10.6282ZM10.8493 5.96671C10.8831 5.95546 11.0052 5.92771 11.1513 5.89505C11.3064 5.86039 11.5096 5.81577 11.7227 5.76892L11.8086 6.1596C11.5951 6.20651 11.3928 6.25095 11.2386 6.28542C11.1614 6.30267 11.0968 6.3173 11.0491 6.32844C10.9957 6.34091 10.9752 6.34636 10.9758 6.34619L10.8493 5.96671ZM11.7225 5.76897C13.2893 5.42288 18.1551 4.19117 19.5374 3.78488L19.6502 4.16865C18.2575 4.57798 13.3827 5.81189 11.8088 6.15955L11.7225 5.76897ZM19.5385 3.78454C19.9525 3.66559 20.254 3.63617 20.5201 3.80247L20.3081 4.14167C20.1992 4.07361 20.0507 4.05356 19.649 4.16898L19.5385 3.78454ZM10.1375 10.3471C10.1375 11.6293 10.134 12.6263 10.1264 13.303C10.1226 13.6412 10.1177 13.9007 10.1117 14.0763C10.1087 14.1636 10.1054 14.2328 10.1014 14.2814C10.0996 14.3048 10.0972 14.3286 10.0937 14.3489C10.0922 14.3575 10.0889 14.3753 10.082 14.3946C10.079 14.4031 10.0709 14.4248 10.0539 14.448C10.041 14.4659 9.98843 14.5315 9.89065 14.5315V14.1315C9.7939 14.1315 9.74238 14.1963 9.73042 14.2128C9.71451 14.2347 9.70738 14.2543 9.70535 14.26C9.70245 14.2681 9.70096 14.2742 9.70042 14.2765C9.70008 14.2779 9.69985 14.279 9.69972 14.2797C9.69959 14.2804 9.69952 14.2807 9.69951 14.2808C9.69949 14.2809 9.6996 14.2803 9.69982 14.2787C9.70003 14.2771 9.7003 14.2749 9.70062 14.2721C9.70125 14.2664 9.70196 14.2589 9.70273 14.2494C9.70587 14.2103 9.70899 14.1485 9.71194 14.0626C9.71779 13.8918 9.7226 13.636 9.72641 13.2985C9.73401 12.6241 9.73753 11.629 9.73753 10.3471H10.1375ZM9.89065 14.5315C9.8733 14.5315 9.85319 14.5289 9.8466 14.5281C9.83428 14.5267 9.81877 14.5246 9.80097 14.5222C9.76517 14.5173 9.71704 14.5102 9.66039 14.5017C9.54694 14.4845 9.39726 14.461 9.2395 14.4351L9.30431 14.0403C9.46061 14.066 9.60859 14.0893 9.72013 14.1062C9.77598 14.1146 9.82219 14.1213 9.85554 14.1259C9.8723 14.1282 9.88506 14.1299 9.89384 14.1309C9.90834 14.1327 9.90214 14.1315 9.89065 14.1315V14.5315ZM9.2404 14.4352C8.04705 14.2448 5.79197 14.053 3.62507 13.9688L3.64061 13.5691C5.81434 13.6536 8.08739 13.8462 9.30341 14.0402L9.2404 14.4352ZM3.62455 13.9688C2.55389 13.9244 1.95999 13.8972 1.61689 13.8643C1.28095 13.8321 1.13175 13.7922 1.00732 13.6761L1.28024 13.3837C1.29643 13.3988 1.31833 13.4339 1.65504 13.4662C1.9846 13.4977 2.56491 13.5245 3.64113 13.5691L3.62455 13.9688ZM1.00732 13.6761C0.950295 13.6229 0.864416 13.5537 0.805901 13.4432C0.747538 13.333 0.719992 13.1949 0.703104 12.998C0.669335 12.6042 0.671904 11.861 0.671904 10.3471H1.0719C1.0719 11.8753 1.06979 12.5923 1.10164 12.9638C1.11757 13.1495 1.14041 13.2202 1.15939 13.256C1.17822 13.2916 1.19664 13.3056 1.28024 13.3837L1.00732 13.6761ZM0.671904 10.3474C0.669572 8.82685 0.664632 8.08442 0.697814 7.69288C0.714419 7.49694 0.742155 7.35893 0.802582 7.2485C0.862278 7.13941 0.950959 7.06985 1.00842 7.01703L1.27914 7.3115C1.19129 7.39226 1.17274 7.40532 1.15348 7.44052C1.13495 7.47438 1.11201 7.54233 1.09638 7.72666C1.06511 8.09567 1.06955 8.81105 1.0719 10.3468L0.671904 10.3474ZM1.00732 7.01805C1.13175 6.90191 1.27973 6.86202 1.61819 6.82981C1.96362 6.79694 2.56336 6.76979 3.6481 6.72537L3.66446 7.12503C2.57419 7.16968 1.988 7.19643 1.65608 7.22801C1.3172 7.26026 1.29643 7.29537 1.28024 7.31047L1.00732 7.01805ZM3.64804 6.72537C5.80693 6.63639 8.09842 6.44458 9.17795 6.26388L9.24398 6.65839C8.13914 6.84332 5.8275 7.03588 3.66451 7.12503L3.64804 6.72537ZM9.17861 6.26377C9.4594 6.21774 9.74722 6.1735 9.81906 6.16798L9.84974 6.5668C9.79972 6.57065 9.53441 6.61078 9.24332 6.6585L9.17861 6.26377ZM9.82532 6.16759L9.92845 6.16291L9.94661 6.56249L9.84348 6.56718L9.82532 6.16759ZM10.1375 6.3627V10.3471H9.73753V6.3627H10.1375ZM22.1256 7.73172C22.8645 8.34 23.3094 9.33141 23.3094 10.3471H22.9094C22.9094 9.44087 22.5105 8.56665 21.8714 8.04055L22.1256 7.73172ZM23.3094 10.3471C23.3094 11.5276 22.8337 12.4219 21.8171 13.2186L21.5704 12.9037C22.5039 12.1722 22.9094 11.3884 22.9094 10.3471H23.3094ZM21.8153 13.22C21.8057 13.2274 21.783 13.2442 21.7519 13.2562C21.7176 13.2695 21.6593 13.2819 21.5943 13.2565C21.5326 13.2323 21.4991 13.1871 21.483 13.1591C21.4669 13.1311 21.4583 13.1033 21.4532 13.0836C21.435 13.0126 21.4272 12.8951 21.4218 12.7229C21.4105 12.3626 21.4094 11.6646 21.4094 10.3471H21.8094C21.8094 11.6686 21.8106 12.3581 21.8216 12.7104C21.8274 12.8944 21.8356 12.9644 21.8407 12.9842C21.8415 12.9872 21.8392 12.9761 21.8298 12.9598C21.8205 12.9435 21.7942 12.9052 21.7403 12.8841C21.683 12.8616 21.633 12.8733 21.6075 12.8832C21.5952 12.8879 21.5863 12.8931 21.5814 12.8961C21.5764 12.8991 21.5732 12.9016 21.5723 12.9023L21.8153 13.22ZM21.4094 10.3471C21.4094 9.02953 21.4105 8.33155 21.4218 7.9713C21.4272 7.79906 21.435 7.68157 21.4532 7.61058C21.4583 7.59087 21.4669 7.56305 21.483 7.535C21.4991 7.50705 21.5326 7.46186 21.5943 7.43769C21.6593 7.41222 21.7176 7.42467 21.7519 7.43794C21.783 7.44999 21.8057 7.46679 21.8153 7.47414L21.5723 7.79188C21.5732 7.79257 21.5764 7.795 21.5814 7.79809C21.5863 7.80109 21.5952 7.8062 21.6075 7.81098C21.633 7.82083 21.683 7.83253 21.7403 7.8101C21.7942 7.78897 21.8205 7.75061 21.8298 7.7344C21.8392 7.7181 21.8415 7.70694 21.8407 7.70994C21.8356 7.72977 21.8274 7.79977 21.8216 7.98379C21.8106 8.33604 21.8094 9.02556 21.8094 10.3471H21.4094ZM21.8267 7.48353C21.8682 7.52046 21.9954 7.62158 22.1277 7.73346L21.8693 8.03881C21.7577 7.94444 21.6037 7.82056 21.5609 7.78249L21.8267 7.48353ZM5.14572 14.5303C5.65584 14.5632 6.32275 14.6137 6.86394 14.6589C7.13447 14.6815 7.37441 14.7028 7.54803 14.72C7.63458 14.7286 7.70608 14.7363 7.75708 14.7428C7.78213 14.7459 7.80488 14.7491 7.82285 14.7522C7.83119 14.7537 7.84292 14.7559 7.85481 14.7591C7.86016 14.7605 7.87147 14.7637 7.88458 14.7691C7.89101 14.7718 7.90288 14.7771 7.91647 14.7858C7.92659 14.7923 7.95728 14.8126 7.9809 14.852L7.63791 15.0578C7.6613 15.0968 7.69158 15.1168 7.70109 15.1228C7.71406 15.1311 7.72511 15.136 7.73054 15.1383C7.74163 15.1429 7.75014 15.1452 7.75194 15.1456C7.75672 15.1469 7.75829 15.147 7.75356 15.1462C7.74538 15.1448 7.73035 15.1425 7.70708 15.1396C7.66144 15.1339 7.59414 15.1266 7.50857 15.1181C7.33795 15.1012 7.10035 15.08 6.83065 15.0575C6.29137 15.0125 5.62703 14.9622 5.11997 14.9295L5.14572 14.5303ZM8.0094 14.9549C8.0094 14.9258 8.00265 14.9033 8.00218 14.9017C8.00028 14.8948 7.9984 14.8895 7.99753 14.887C7.99567 14.8819 7.99402 14.8781 7.99352 14.8769C7.9928 14.8752 7.99223 14.8739 7.99196 14.8733C7.99165 14.8727 7.99143 14.8722 7.99134 14.872C7.99114 14.8716 7.99143 14.8722 7.99261 14.8746C7.99479 14.879 7.99838 14.8861 8.00352 14.8962C8.01369 14.9161 8.02889 14.9456 8.04869 14.9839C8.08821 15.0602 8.1455 15.1703 8.21634 15.3058C8.35799 15.5768 8.55354 15.9492 8.76902 16.3567L8.41541 16.5437C8.19964 16.1356 8.00379 15.7627 7.86184 15.4911C7.79088 15.3553 7.73333 15.2448 7.69346 15.1678C7.67356 15.1293 7.65792 15.0989 7.64719 15.0779C7.64187 15.0675 7.63749 15.0588 7.63431 15.0524C7.6328 15.0494 7.63107 15.0458 7.62951 15.0425C7.62884 15.0411 7.62739 15.038 7.6258 15.0343C7.62513 15.0327 7.62335 15.0286 7.62141 15.0232C7.62049 15.0207 7.61859 15.0153 7.61666 15.0083C7.61617 15.0065 7.6094 14.984 7.6094 14.9549H8.0094ZM8.76966 16.3579C8.98344 16.7691 9.18811 17.1725 9.34487 17.4925C9.42319 17.6524 9.49002 17.7924 9.54019 17.9025C9.58767 18.0068 9.62705 18.0987 9.64256 18.1539L9.2575 18.2622C9.25191 18.2423 9.22684 18.1796 9.17617 18.0683C9.1282 17.963 9.06319 17.8267 8.98566 17.6685C8.83069 17.3521 8.62755 16.9517 8.41477 16.5425L8.76966 16.3579ZM9.64202 18.152C9.89253 19.0101 9.40937 19.9944 8.57809 20.4074L8.40009 20.0492C9.07819 19.7123 9.44815 18.9153 9.25804 18.2641L9.64202 18.152ZM8.57564 20.4086C8.45308 20.4675 8.35486 20.5085 8.22619 20.5309C8.1052 20.5518 7.96398 20.5549 7.75784 20.5549V20.1549C7.96889 20.1549 8.07611 20.1509 8.15785 20.1367C8.23191 20.1239 8.29073 20.1017 8.40254 20.048L8.57564 20.4086ZM7.75784 20.5549C7.54957 20.5549 7.4078 20.5519 7.28565 20.5301C7.15614 20.507 7.05656 20.4645 6.93056 20.4039L7.10388 20.0434C7.22163 20.1 7.28142 20.1231 7.35581 20.1363C7.43757 20.1509 7.54424 20.1549 7.75784 20.1549V20.5549ZM6.92777 20.4025C6.79297 20.3351 6.67013 20.2707 6.54767 20.1663C6.42541 20.062 6.31226 19.9257 6.17824 19.7227C5.91404 19.3225 5.54132 18.6192 4.83866 17.284L5.19264 17.0977C5.90093 18.4437 6.2618 19.1232 6.51206 19.5023C6.63526 19.6889 6.72455 19.7914 6.80722 19.8619C6.8897 19.9322 6.97427 19.9786 7.10666 20.0448L6.92777 20.4025ZM4.83866 17.2839C4.1315 15.9399 3.54421 14.8123 3.53364 14.7912L3.89141 14.6123C3.89113 14.6118 3.89295 14.6153 3.89846 14.6259C3.90339 14.6354 3.91048 14.6491 3.91961 14.6666C3.93788 14.7017 3.96427 14.7524 3.99791 14.817C4.06518 14.946 4.16139 15.1304 4.27942 15.3562C4.51549 15.8078 4.83885 16.4252 5.19265 17.0977L4.83866 17.2839ZM3.52791 14.7787C3.51388 14.745 3.48542 14.6492 3.55625 14.5596C3.60749 14.4947 3.67948 14.4797 3.69986 14.4754C3.75566 14.4638 3.83412 14.4629 3.92768 14.4649C4.12727 14.4691 4.49341 14.4906 5.14501 14.5303L5.12068 14.9295C4.46446 14.8895 4.10873 14.8688 3.91925 14.8648C3.87244 14.8638 3.83842 14.8639 3.81397 14.8648C3.78778 14.8657 3.77973 14.8674 3.78144 14.867C3.78256 14.8668 3.79231 14.8648 3.80603 14.8585C3.81939 14.8524 3.84618 14.8378 3.87013 14.8075C3.9329 14.7281 3.90532 14.6445 3.89714 14.6248L3.52791 14.7787Z" fill="#016DEA" mask="url(#path-1-inside-1_7822_108338)"/>
</g>
<defs>
<clipPath id="clip0_7822_108338">
<rect width="24" height="24" fill="white"/>
</clipPath>
</defs>
</svg>
