<svg width="24" height="24" viewBox="0 0 24 24" fill="none" xmlns="http://www.w3.org/2000/svg">
<g clip-path="url(#clip0_22_6998)">
<path d="M14.8077 0.468864C13.3077 0.736051 11.8921 1.47199 10.8093 2.55949C10.2093 3.1548 9.78275 3.7548 9.40306 4.52355C9.04212 5.25011 8.84056 5.86418 8.70931 6.62824C8.57337 7.4298 8.60619 8.78918 8.77962 9.51574C9.32337 11.7986 10.7343 13.5939 12.7921 14.6251C14.4421 15.4501 16.6171 15.6142 18.4031 15.0423C20.6999 14.3111 22.4906 12.5486 23.2546 10.2657C23.7609 8.74699 23.7609 6.99386 23.2452 5.46574C22.3781 2.86418 20.114 0.932926 17.4046 0.468864C16.6874 0.342301 15.5109 0.346989 14.8077 0.468864ZM16.6124 1.17199C19.6218 1.41574 22.0593 3.55324 22.7109 6.51574C22.8281 7.05011 22.8562 8.30636 22.7671 8.88293C22.5656 10.1439 22.0265 11.3064 21.1968 12.2673C19.0734 14.7189 15.5156 15.3048 12.7124 13.6595C9.88119 11.9907 8.66712 8.47043 9.87181 5.41886C10.0593 4.94543 10.3593 4.39699 10.6827 3.93761C10.9546 3.54386 11.7937 2.7048 12.1874 2.43293C13.2093 1.71574 14.3952 1.27043 15.5531 1.17668C15.8015 1.15324 16.0077 1.13449 16.0124 1.1298C16.0171 1.1298 16.2843 1.14855 16.6124 1.17199Z" fill="white"/>
<path d="M14.25 2.53594C13.8563 2.65781 13.5938 3.0375 13.5563 3.5625C13.4906 4.49063 14.0485 5.25 14.7891 5.25C15.1781 5.25 15.4735 5.03906 15.6469 4.64063C15.7594 4.3875 15.7406 3.74063 15.6141 3.41719C15.3703 2.77969 14.7563 2.38594 14.25 2.53594ZM14.7844 3.55781C14.9156 3.7875 14.9625 4.05469 14.9063 4.27031C14.8641 4.425 14.836 4.45781 14.7516 4.44375C14.7 4.43438 14.5875 4.34063 14.5125 4.22813C14.3906 4.05469 14.3672 3.98438 14.3672 3.73125C14.3672 3.37031 14.4422 3.24375 14.5969 3.34219C14.6531 3.37969 14.7328 3.47813 14.7844 3.55781Z" fill="white"/>
<path d="M17.4421 2.53125C17.0624 2.62031 16.664 3.05625 16.5234 3.52969C16.3827 4.00313 16.4531 4.59375 16.6921 4.92656C17.114 5.52188 18.1218 5.25938 18.4827 4.45781C18.6187 4.15313 18.6515 3.45 18.539 3.15938C18.3515 2.6625 17.9202 2.41406 17.4421 2.53125ZM17.7562 3.38438C17.8265 3.45469 17.8312 3.88594 17.7609 4.06406C17.7046 4.21875 17.489 4.45313 17.4046 4.45313C17.2452 4.45313 17.1984 4.0125 17.3202 3.7125C17.4046 3.52031 17.564 3.32813 17.6484 3.32813C17.6765 3.32813 17.7234 3.35156 17.7562 3.38438Z" fill="white"/>
<path d="M11.2266 3.85781C11.0906 3.93281 11.0016 4.03594 10.9078 4.21875C10.7859 4.45312 10.7766 4.50937 10.7953 4.83281C10.8234 5.27812 10.9922 5.65312 11.3063 5.96719C11.5875 6.24844 11.8547 6.37031 12.1781 6.375C12.4969 6.375 12.6984 6.28594 12.8813 6.06562C13.3781 5.46094 12.9984 4.24687 12.1828 3.85312C11.8922 3.7125 11.4844 3.7125 11.2266 3.85781ZM11.9531 4.66875C12.2813 4.94531 12.4453 5.57812 12.1875 5.57812C12.0563 5.57812 11.7656 5.30156 11.6672 5.08594C11.5781 4.89844 11.55 4.63594 11.6109 4.57969C11.6719 4.51406 11.8078 4.55156 11.9531 4.66875Z" fill="white"/>
<path d="M19.9453 3.88589C19.6406 4.05932 19.3828 4.34526 19.2234 4.68276C19.1203 4.90776 19.1016 5.01089 19.1016 5.37182C19.1016 5.7562 19.1156 5.81245 19.2328 5.99057C19.5703 6.5062 20.3156 6.5062 20.85 5.98589C21.1641 5.68589 21.3375 5.30151 21.3656 4.87026C21.3891 4.46245 21.3328 4.24214 21.15 4.02182C20.8875 3.71245 20.3531 3.65151 19.9453 3.88589ZM20.5781 4.7437C20.5781 5.11401 20.2172 5.61557 19.9828 5.5687C19.875 5.54995 19.8469 5.33901 19.9172 5.10464C19.9875 4.87495 20.3063 4.54682 20.4609 4.54682C20.5688 4.54682 20.5781 4.56557 20.5781 4.7437Z" fill="white"/>
<path d="M13.2704 6.45009C12.0329 6.7829 11.3766 8.01571 11.7376 9.35165C11.8501 9.77821 12.0422 10.1813 12.3469 10.636C13.0172 11.6345 14.0157 12.5813 15.4172 13.5423C16.0594 13.9829 16.1063 13.9829 16.7204 13.5657C17.8688 12.7876 19.0594 11.7095 19.636 10.9266C20.0016 10.4298 20.3719 9.67977 20.461 9.2579C20.6532 8.34852 20.4563 7.57509 19.8938 7.01259C19.4532 6.57196 18.9235 6.37509 18.1688 6.37509C17.4329 6.37509 16.9922 6.52509 16.3829 6.98446L16.0688 7.21884L15.8626 7.03602C15.6001 6.80634 15.0938 6.53915 14.7376 6.4454C14.3954 6.35634 13.6126 6.35634 13.2704 6.45009ZM18.7313 7.24227C19.1719 7.36884 19.5657 7.76259 19.6876 8.20321C20.0157 9.38915 18.7922 11.1188 16.4626 12.7595L16.0876 13.022L15.6001 12.6751C14.3063 11.7516 13.2891 10.7251 12.8251 9.88602C12.3516 9.01884 12.3141 8.30634 12.7172 7.74852C13.0219 7.32196 13.4766 7.14384 14.1516 7.18134C14.4657 7.20009 14.5876 7.2329 14.8782 7.37352C15.2204 7.54696 15.6047 7.89384 15.7172 8.14227C15.7407 8.19852 15.8297 8.27821 15.9141 8.31571C16.1438 8.42821 16.3032 8.3579 16.5094 8.0579C16.7438 7.7204 16.9782 7.51884 17.3344 7.35009C17.8079 7.12509 18.1922 7.09696 18.7313 7.24227Z" fill="white"/>
<path d="M2.13281 11.6906C1.89375 11.7937 1.67813 12.0094 1.56563 12.2578C1.46719 12.4641 1.45313 12.5625 1.45313 13.0828C1.45313 13.6359 1.45781 13.6781 1.56094 13.7719C1.65 13.8562 1.725 13.875 1.95938 13.875H2.25V14.3391V14.8078L1.9125 14.9859C1.43906 15.2297 0.970313 15.7078 0.7125 16.2C0.375 16.8562 0.375 16.8375 0.375 19.9312C0.375 22.6266 0.375 22.6875 0.46875 22.7812C0.557813 22.8703 0.623438 22.875 2.13281 22.875H3.70313V23.1469C3.70313 23.3719 3.72188 23.4375 3.81094 23.5219L3.91875 23.625H6.73594H9.55781L9.65156 23.5031C9.75 23.3812 9.75 23.3297 9.75 21.375C9.75 19.2047 9.74063 19.1016 9.49219 18.7828C9.42656 18.6891 9.25781 18.5625 9.12656 18.4922C8.8875 18.375 8.88281 18.375 7.63125 18.375H6.375V17.775C6.375 17.0719 6.31406 16.7766 6.04219 16.2281C5.80313 15.7359 5.325 15.2391 4.86094 15L4.54688 14.8359V14.3531V13.875H4.79531C5.025 13.875 5.05781 13.8609 5.22656 13.6875L5.40938 13.5H5.79375C6.15469 13.5 6.1875 13.4906 6.27656 13.3781C6.36563 13.2656 6.375 13.1906 6.375 12.5625C6.375 11.9344 6.36563 11.8594 6.27656 11.7469L6.18281 11.625H4.22813C2.72344 11.6297 2.24063 11.6437 2.13281 11.6906ZM5.57813 12.5625V12.75H5.30625C5.05313 12.75 5.025 12.7594 4.85156 12.9375L4.66875 13.125H3.45938H2.25V12.8766C2.25 12.6234 2.33438 12.4781 2.53125 12.4078C2.56875 12.3937 3.27188 12.3797 4.09219 12.3797L5.57813 12.375V12.5625ZM3.75 14.25V14.625H3.39844H3.04688V14.25V13.875H3.39844H3.75V14.25ZM4.125 15.5391C4.43438 15.6469 4.75313 15.8672 5.01563 16.1578C5.14219 16.2984 5.25 16.4297 5.25 16.4484C5.25 16.4766 1.7625 16.4672 1.55156 16.4391C1.44375 16.425 1.99219 15.8625 2.26406 15.7078C2.84063 15.3844 3.52031 15.3234 4.125 15.5391ZM5.57813 17.8125V18.375H5.0625C4.73438 18.375 4.49063 18.3984 4.39219 18.4359C4.14844 18.5391 3.93281 18.7547 3.81563 19.0078C3.70781 19.2375 3.70313 19.2703 3.70313 20.6812V22.125H2.41406H1.125V19.9734C1.125 18.7922 1.13906 17.6953 1.15313 17.5359L1.18594 17.25H3.37969H5.57813V17.8125ZM8.84063 19.2797C8.925 19.3828 8.95313 19.4672 8.95313 19.6453V19.875H6.72656H4.5V19.6266C4.5 19.3734 4.58438 19.2328 4.78125 19.1578C4.81875 19.1437 5.72344 19.1344 6.7875 19.1391L8.72813 19.1484L8.84063 19.2797ZM8.95313 21.75V22.875H6.72656H4.5V21.75V20.625H6.72656H8.95313V21.75Z" fill="white"/>
<path d="M20.5875 15.0937C20.2922 15.2766 20.25 15.4078 20.25 16.1812V16.875H20.1094C19.7766 16.875 19.3781 17.1609 19.2141 17.5078C19.1344 17.6859 19.125 17.8687 19.125 20.5687C19.125 23.3766 19.125 23.4375 19.2188 23.5312C19.3078 23.6203 19.3734 23.625 21.375 23.625C23.3766 23.625 23.4422 23.6203 23.5313 23.5312C23.625 23.4375 23.625 23.3766 23.625 20.5781C23.625 17.4234 23.6344 17.5312 23.3297 17.2078C23.1516 17.0203 22.8609 16.8797 22.6547 16.875H22.5V16.1812C22.5 15.5766 22.4906 15.4734 22.4063 15.3375C22.2281 15.0469 22.0828 15 21.375 15C20.8266 15 20.7234 15.0141 20.5875 15.0937ZM21.75 16.3125V16.875H21.375H21V16.3125V15.75H21.375H21.75V16.3125ZM22.5938 17.6766C22.7672 17.7375 22.875 17.9437 22.875 18.2109V18.375H21.375H19.875V18.2156C19.875 17.9531 19.9688 17.7609 20.1281 17.6906C20.3156 17.6109 22.3594 17.5969 22.5938 17.6766ZM22.875 21V22.875H21.375H19.875V21V19.125H21.375H22.875V21Z" fill="white"/>
<path d="M15.825 16.4672C14.9719 16.9078 15 16.8609 15 17.9391C15 18.7172 14.9953 18.75 14.9063 18.75C14.8547 18.75 14.7703 18.7922 14.7188 18.8437C14.6297 18.9328 14.625 18.9984 14.625 20.3437C14.625 21.7172 14.625 21.75 14.5313 21.75C14.4797 21.75 14.3953 21.7922 14.3438 21.8437C14.2594 21.9281 14.25 21.9984 14.25 22.6875C14.25 23.3766 14.2594 23.4469 14.3438 23.5312C14.4328 23.6203 14.4984 23.625 16.125 23.625C17.7516 23.625 17.8172 23.6203 17.9063 23.5312C17.9906 23.4469 18 23.3766 18 22.6875C18 21.9984 17.9906 21.9281 17.9063 21.8437C17.8547 21.7922 17.7703 21.75 17.7188 21.75C17.625 21.75 17.625 21.7172 17.625 20.3437C17.625 18.9984 17.6203 18.9328 17.5313 18.8437C17.4797 18.7922 17.3953 18.75 17.3438 18.75C17.2547 18.75 17.25 18.7172 17.25 17.5969V16.4437L17.0906 16.2844C16.9547 16.1484 16.9031 16.125 16.7063 16.125C16.5141 16.1297 16.3688 16.1859 15.825 16.4672ZM16.5 17.8828V18.75H16.125H15.75V18.0703V17.3906L16.1156 17.2078C16.3125 17.1047 16.4813 17.0203 16.4906 17.0156C16.4953 17.0156 16.5 17.4047 16.5 17.8828ZM16.875 20.625V21.75H16.125H15.375V20.625V19.5H16.125H16.875V20.625ZM17.25 22.6875V22.875H16.125H15V22.6875V22.5H16.125H17.25V22.6875Z" fill="white"/>
<path d="M10.5937 17.7187C10.4624 17.85 10.4671 17.9766 10.6874 20.3672C10.7906 21.4922 10.8749 22.575 10.8749 22.7719C10.8749 23.1844 10.9593 23.3766 11.2124 23.5312C11.3484 23.6109 11.4515 23.625 11.9999 23.625C12.5484 23.625 12.6515 23.6109 12.7874 23.5312C13.0406 23.3766 13.1249 23.1844 13.1249 22.7719C13.1249 22.575 13.2093 21.4922 13.3124 20.3672C13.5327 17.9766 13.5374 17.85 13.4062 17.7187C13.3171 17.6297 13.2515 17.625 11.9999 17.625C10.7484 17.625 10.6827 17.6297 10.5937 17.7187ZM12.6749 18.525C12.6656 18.6094 12.6046 19.2797 12.539 20.0156C12.4734 20.7516 12.4124 21.4406 12.3937 21.5484L12.3702 21.75H11.9999H11.6296L11.6062 21.5484C11.5874 21.4406 11.5265 20.7516 11.4609 20.0156C11.3952 19.2797 11.3343 18.6094 11.3249 18.525L11.3015 18.375H11.9999H12.6984L12.6749 18.525Z" fill="white"/>
</g>
<defs>
<clipPath id="clip0_22_6998">
<rect width="24" height="24" fill="white"/>
</clipPath>
</defs>
</svg>
