<svg width="16" height="17" viewBox="0 0 16 17" fill="none" xmlns="http://www.w3.org/2000/svg">
<path d="M7.99998 15.1668C11.6819 15.1668 14.6666 12.1821 14.6666 8.50016C14.6666 4.81826 11.6819 1.8335 7.99998 1.8335C4.31808 1.8335 1.33331 4.81826 1.33331 8.50016C1.33331 12.1821 4.31808 15.1668 7.99998 15.1668Z" stroke="white" stroke-linecap="round" stroke-linejoin="round"/>
<path d="M6.06 6.49989C6.21673 6.05434 6.5261 5.67863 6.9333 5.43931C7.3405 5.2 7.81926 5.11252 8.28478 5.19237C8.7503 5.27222 9.17254 5.51424 9.47672 5.87558C9.78089 6.23691 9.94737 6.69424 9.94666 7.16656C9.94666 8.49989 7.94666 9.16656 7.94666 9.16656" stroke="white" stroke-linecap="round" stroke-linejoin="round"/>
<path d="M8 11.8335H8.00667" stroke="white" stroke-linecap="round" stroke-linejoin="round"/>
</svg>
