<svg width="16" height="16" viewBox="0 0 16 16" fill="none" xmlns="http://www.w3.org/2000/svg">
<path d="M3.52412 1.2625C1.99912 2.025 1.64912 4.1625 2.84912 5.4125C3.37412 5.9625 4.02412 6.25 4.77412 6.25C6.07412 6.2375 7.11162 5.425 7.38662 4.1875C7.64912 2.9875 6.98662 1.625 5.91162 1.175C5.28662 0.9125 4.14912 0.95 3.52412 1.2625ZM5.98662 1.975C6.48662 2.35 6.79912 2.975 6.79912 3.625C6.79912 5.55 4.34912 6.35 3.17412 4.8C2.87412 4.4125 2.81162 4.2125 2.81162 3.6125C2.81162 2.8375 3.02412 2.4375 3.64912 1.9625C4.29912 1.475 5.32412 1.4875 5.98662 1.975Z" fill="#016DEA"/>
<path d="M4.5 2C4.5 2.1375 4.425 2.25 4.3375 2.25C4.05 2.25 3.75 2.6875 3.75 3.1C3.75 3.5125 4.1125 3.875 4.5375 3.875C4.6625 3.875 4.8875 3.9375 5.025 4.0125C5.275 4.15 5.275 4.1625 5.075 4.3125C4.8 4.525 4.4 4.4125 4.3125 4.1125C4.2625 3.9875 4.125 3.875 3.9875 3.875C3.8125 3.875 3.75 3.9625 3.75 4.225C3.75 4.575 4.075 5 4.3375 5C4.4125 5 4.5 5.1125 4.5375 5.25C4.575 5.3875 4.7 5.5 4.8125 5.5C4.925 5.5 5.05 5.3875 5.0875 5.25C5.125 5.1125 5.2 5 5.2625 5C5.5 5 5.875 4.475 5.875 4.1375C5.875 3.7125 5.675 3.525 4.975 3.325C4.3875 3.15 4.2375 2.9375 4.6 2.825C4.925 2.7125 5.2125 2.85 5.2875 3.1375C5.3625 3.425 5.725 3.45 5.8375 3.175C5.9375 2.9 5.6625 2.3625 5.3875 2.2875C5.25 2.25 5.125 2.125 5.0875 1.9875C5 1.6625 4.5 1.6625 4.5 2Z" fill="#016DEA"/>
<path d="M10.3375 2.325C10.15 2.525 10.25 2.875 10.5 2.875C10.6375 2.875 10.75 2.925 10.75 2.9875C10.75 3.2 8.01254 5.725 6.71254 6.7C5.97504 7.25 4.63754 8.1125 3.75004 8.6125C2.21254 9.475 1.87504 9.7875 2.30004 9.95C2.53754 10.0375 4.48754 9.025 5.95004 8.05C7.55004 6.975 8.85004 5.9125 10.1625 4.5875C10.8 3.9375 11.25 3.575 11.25 3.6875C11.25 3.825 11.3375 3.875 11.5375 3.85C11.7875 3.8125 11.8125 3.75 11.8125 3.0625V2.3125L11.125 2.275C10.7375 2.25 10.3875 2.275 10.3375 2.325Z" fill="#016DEA"/>
<path d="M11.25 9.9375C11.25 13.8875 11.225 14.5 11.0625 14.5C10.9 14.5 10.875 13.9875 10.85 10.9625L10.8125 7.4375L9.5375 7.4L8.25 7.3625V10.9375C8.25 14.4125 8.25 14.5 8 14.5C7.7625 14.5 7.75 14.4125 7.75 11.9375V9.3625L6.475 9.4L5.1875 9.4375L5.15 11.9625C5.125 14.075 5.0875 14.5 4.9375 14.5C4.7875 14.5 4.75 14.2 4.725 12.9625L4.6875 11.4375H3.4375H2.1875L2.15 12.9625L2.1125 14.5H1.625C1.2125 14.5 1.125 14.5375 1.125 14.75C1.125 15 1.2125 15 8 15C14.7875 15 14.875 15 14.875 14.75C14.875 14.5375 14.7875 14.5 14.375 14.5H13.875V9.9375V5.375H12.5625H11.25V9.9375ZM13.25 10.25V14.5H12.5625H11.875V10.25V6H12.5625H13.25V10.25ZM10.25 11.25V14.5H9.5625H8.875V11.25V8H9.5625H10.25V11.25ZM7.125 12.25V14.5H6.4375H5.75V12.25V10H6.4375H7.125V12.25ZM4.125 13.25V14.5H3.4375H2.75V13.25V12H3.4375H4.125V13.25Z" fill="#016DEA"/>
</svg>
