<svg width="17" height="17" viewBox="0 0 17 17" fill="none" xmlns="http://www.w3.org/2000/svg">
<g clip-path="url(#clip0_53_7967)">
<path d="M4.24388 0.55613C3.86888 0.690506 3.57825 1.07176 3.57825 1.43738V1.56238H2.6095C2.022 1.56238 1.57825 1.57488 1.47825 1.59676C1.10012 1.67488 0.750122 1.95613 0.581372 2.31238L0.500122 2.48426V9.03114V15.578L0.600122 15.7874C0.762622 16.1311 1.03762 16.3561 1.4095 16.453C1.57825 16.4968 2.14075 16.4999 6.37825 16.4936L11.1564 16.4843L11.3376 16.4093C11.5783 16.3155 11.8095 16.1186 11.9408 15.9061C12.1533 15.553 12.1408 16.0311 12.1408 9.04051C12.1408 4.48113 12.1314 2.67488 12.1064 2.55613C12.0314 2.21238 11.8064 1.89676 11.522 1.74051C11.2251 1.57801 11.0876 1.56238 10.0283 1.56238H9.05326L9.03451 1.39676C8.99076 1.05926 8.7845 0.765506 8.46888 0.59988L8.31263 0.515506L6.3595 0.509255C4.547 0.499881 4.39388 0.50613 4.24388 0.55613ZM8.28763 1.11238C8.3345 1.14676 8.40638 1.23738 8.447 1.31238C8.50638 1.43113 8.51575 1.49988 8.51575 1.78426C8.51575 2.14676 8.47825 2.24676 8.28763 2.38738C8.20013 2.45301 8.16888 2.45301 6.35325 2.46238C4.55638 2.46863 4.50325 2.46863 4.37513 2.40613C4.16263 2.30301 4.1095 2.17176 4.1095 1.74988C4.1095 1.34363 4.1595 1.21238 4.35638 1.09676C4.46888 1.03113 4.48138 1.03113 6.3345 1.04051C8.1595 1.04676 8.20013 1.04676 8.28763 1.11238ZM3.61575 2.27488C3.67825 2.49051 3.81263 2.68426 3.99075 2.81238C4.25325 3.00301 4.25013 3.00301 6.37825 2.99363L8.31263 2.98426L8.50951 2.87801C8.80326 2.71863 8.95951 2.50926 9.02826 2.17801L9.04701 2.09363H9.99388C11.0908 2.09363 11.1783 2.10926 11.3876 2.31551C11.6283 2.55613 11.6095 2.01863 11.6033 9.09364L11.5939 15.4218L11.5251 15.5468C11.4376 15.7093 11.3126 15.8249 11.1408 15.903C11.0001 15.9655 10.9626 15.9686 6.297 15.9686H1.59387L1.43762 15.8936C1.26887 15.8155 1.12512 15.6718 1.05637 15.5093C1.022 15.4249 1.01575 14.3124 1.01575 9.03739V2.66863L1.09387 2.50926C1.14075 2.42176 1.22512 2.30926 1.28762 2.26238C1.48762 2.10926 1.58137 2.09676 2.6095 2.09676L3.56263 2.09363L3.61575 2.27488Z" fill="white"/>
<path d="M3.89387 5.60625L3.25012 6.24687L3.06887 6.075C2.86262 5.88437 2.74387 5.85625 2.597 5.97187C2.5345 6.02187 2.51575 6.0625 2.51575 6.1625C2.51575 6.28125 2.5345 6.30937 2.8095 6.59062C3.08762 6.87187 3.11262 6.89062 3.2345 6.89062C3.35637 6.89062 3.37512 6.87187 4.12512 6.125C4.88137 5.36875 4.89075 5.35937 4.89075 5.22812C4.89075 5.125 4.87512 5.08437 4.8095 5.03437C4.62512 4.89062 4.59075 4.9125 3.89387 5.60625Z" fill="white"/>
<path d="M5.88762 5.30937C5.83137 5.35312 5.81262 5.4 5.81262 5.5C5.81262 5.6 5.83137 5.64687 5.88762 5.69062C5.95637 5.74687 6.04387 5.75 7.96887 5.75H9.98138L10.0439 5.66875C10.0814 5.62187 10.1095 5.54687 10.1095 5.5C10.1095 5.45312 10.0814 5.37812 10.0439 5.33125L9.98138 5.25H7.96887C6.04387 5.25 5.95637 5.25312 5.88762 5.30937Z" fill="white"/>
<path d="M5.89146 6.3747C5.80709 6.45908 5.78521 6.5747 5.83521 6.6747C5.91334 6.84033 5.94459 6.84345 7.05396 6.8372L8.07271 6.82783L8.15396 6.75283C8.25396 6.65908 8.26021 6.50908 8.16959 6.39345L8.10709 6.3122H7.02896C6.00084 6.3122 5.95084 6.31533 5.89146 6.3747Z" fill="white"/>
<path d="M4.547 8.11551C4.522 8.12489 4.21575 8.40926 3.86575 8.74364L3.2345 9.35301L3.05012 9.17489C2.90637 9.04051 2.84387 8.99989 2.76575 8.99989C2.62825 8.99989 2.51575 9.12176 2.51575 9.26864C2.51575 9.37176 2.547 9.41551 2.80325 9.67801C3.097 9.97489 3.172 10.0218 3.31262 9.98739C3.35637 9.97489 3.71575 9.64676 4.14075 9.22801C4.85637 8.52489 4.89075 8.48739 4.89075 8.37489C4.89075 8.30926 4.86575 8.22801 4.83762 8.19051C4.77825 8.12176 4.62825 8.08114 4.547 8.11551Z" fill="white"/>
<path d="M5.89041 8.4375C5.75916 8.56875 5.79041 8.78437 5.95291 8.86562C6.01229 8.89687 6.47166 8.90625 7.97791 8.90625H9.92792L10.0217 8.8125C10.1029 8.72812 10.1154 8.7 10.0998 8.6C10.0592 8.3625 10.1873 8.375 7.94979 8.375C6.00291 8.375 5.95291 8.375 5.89041 8.4375Z" fill="white"/>
<path d="M5.91851 9.44687C5.77476 9.55625 5.77164 9.7625 5.91226 9.875C5.99039 9.93437 6.03726 9.9375 7.00601 9.9375C8.20601 9.9375 8.23414 9.93125 8.23414 9.65312C8.23414 9.59687 8.20289 9.53125 8.15601 9.48437L8.08101 9.40625H7.02476C6.24351 9.40937 5.95601 9.41875 5.91851 9.44687Z" fill="white"/>
<path d="M4.547 11.222C4.50325 11.2376 4.19075 11.5282 3.85325 11.8688L3.2345 12.4845L3.072 12.322C2.88137 12.1345 2.78137 12.1001 2.647 12.1688C2.54387 12.222 2.51575 12.272 2.51575 12.4188C2.51575 12.5032 2.56262 12.5626 2.822 12.822C3.27825 13.2751 3.19387 13.3063 4.13137 12.3657C4.8845 11.6157 4.89075 11.6063 4.89075 11.4751C4.89075 11.3501 4.81262 11.2188 4.73762 11.2188C4.722 11.2188 4.69075 11.2126 4.66575 11.2063C4.64387 11.197 4.59075 11.2063 4.547 11.222Z" fill="white"/>
<path d="M5.88762 11.5594C5.8345 11.6156 5.797 11.6844 5.797 11.7344C5.797 11.7844 5.8345 11.8531 5.88762 11.9094L5.97825 12H7.9345C9.31888 12 9.9095 11.9906 9.96575 11.9656C10.122 11.8937 10.147 11.6594 10.0095 11.5312C9.94388 11.4687 9.90638 11.4687 7.9595 11.4687H5.97825L5.88762 11.5594Z" fill="white"/>
<path d="M5.88762 12.5906C5.8345 12.6469 5.797 12.7156 5.797 12.7656C5.797 12.8156 5.8345 12.8844 5.88762 12.9406L5.97825 13.0312H7.03137H8.08137L8.15637 12.9531C8.2095 12.9031 8.2345 12.8437 8.2345 12.7656C8.2345 12.6875 8.2095 12.6281 8.15637 12.5781L8.08137 12.5H7.03137H5.97825L5.88762 12.5906Z" fill="white"/>
<path d="M13.4189 2.71541C13.1439 2.76853 12.9345 2.92166 12.8032 3.16853L12.7189 3.32791L12.7095 8.32479L12.7032 13.3185L13.1157 14.2748C13.4939 15.1404 13.5376 15.231 13.6251 15.2685C13.7501 15.3185 13.8845 15.2904 13.9439 15.1967C13.972 15.1529 14.1689 14.7217 14.3814 14.231L14.7657 13.3435V9.17166V4.99978H15.047H15.3282V5.91853C15.3282 6.84978 15.3407 6.97166 15.447 7.04978C15.5282 7.11228 15.6845 7.10291 15.7782 7.02791L15.8595 6.96541V5.78103V4.59666L15.7782 4.53416C15.7032 4.47478 15.6532 4.46853 15.2314 4.46853H14.772L14.7595 3.88103C14.7501 3.30916 14.747 3.29353 14.6657 3.15291C14.5657 2.98103 14.4251 2.85603 14.2439 2.77478C14.0939 2.70916 13.6376 2.67791 13.4189 2.71541ZM14.0157 3.26853C14.2126 3.34666 14.2345 3.41853 14.2345 3.98416V4.46853H13.7314H13.2314L13.2407 3.95603L13.2501 3.44041L13.3407 3.34666C13.3907 3.29666 13.4595 3.24666 13.497 3.24041C13.6564 3.20916 13.9001 3.22166 14.0157 3.26853ZM14.2345 8.98416V12.9685H13.7345H13.2345V8.98416V4.99978H13.7345H14.2345V8.98416ZM14.0782 13.5529C14.0782 13.5685 14.0001 13.7529 13.9064 13.9685L13.7376 14.3592L13.6907 14.2498C13.6657 14.1904 13.5876 14.0092 13.5189 13.8467C13.447 13.6842 13.3907 13.5467 13.3907 13.5404C13.3907 13.5342 13.547 13.531 13.7345 13.531C13.9251 13.531 14.0782 13.5404 14.0782 13.5529Z" fill="white"/>
</g>
<defs>
<clipPath id="clip0_53_7967">
<rect width="16" height="16" fill="white" transform="translate(0.170044 0.5)"/>
</clipPath>
</defs>
</svg>
