<svg width="41" height="40" viewBox="0 0 41 40" fill="none" xmlns="http://www.w3.org/2000/svg">
<rect x="0.5" width="40" height="40" rx="20" fill="#F4F4F4"/>
<g clip-path="url(#clip0_8128_140690)">
<path d="M17.8477 22.4988L18.3171 23.1222C18.8587 23.8389 19.4059 24.5516 19.9399 25.2738C20.4505 25.9639 20.1271 26.8256 19.2692 27.0928C18.6941 27.2722 18.0632 27.0666 17.6845 26.5679C16.9395 25.5863 16.1961 24.6037 15.4543 23.6201C15.4175 23.5716 15.3791 23.524 15.3375 23.4712C14.9995 23.6594 14.6455 23.7714 14.2549 23.7817C13.9577 23.7896 13.6618 23.7431 13.3853 23.6451C13.1087 23.5471 12.8573 23.3997 12.6462 23.2118C12.4352 23.0238 12.2689 22.7993 12.1576 22.5519C12.0462 22.3045 11.9921 22.0393 11.9986 21.7726C12.0185 21.1238 12.3392 20.6163 12.9285 20.2455C13.363 19.9739 13.8076 19.7154 14.2403 19.4422C14.3426 19.3788 14.4263 19.2943 14.4845 19.1957C15.331 17.6683 16.173 16.139 17.0107 14.6076C17.2138 14.238 17.5571 14.0462 18.0017 13.9993C18.5627 13.9402 19.0688 14.1065 19.5502 14.34C20.4283 14.7657 21.1398 15.3692 21.7667 16.0557C22.6851 17.0611 23.4036 18.1669 23.7779 19.4307C23.9363 19.9652 24.0194 20.5087 23.8925 21.061C23.8279 21.3422 23.7027 21.5987 23.4744 21.8059C23.2569 22.0066 22.9634 22.1266 22.6519 22.1422C21.096 22.249 19.54 22.363 17.9844 22.475C17.9495 22.4793 17.9128 22.4881 17.8477 22.4988ZM17.3721 15.7325C17.4164 15.9628 17.4465 16.2566 17.5345 16.535C18.0849 18.282 19.1714 19.7206 20.7283 20.872C21.1597 21.1897 21.6397 21.4426 22.198 21.555C22.4931 21.6141 22.7289 21.5276 22.9373 21.3513C23.1067 21.2064 23.193 21.019 23.2355 20.8157C23.3181 20.3993 23.2882 19.9712 23.1483 19.5673C22.5599 17.7865 21.4348 16.3281 19.8068 15.1842C19.4272 14.9173 19.006 14.7105 18.5299 14.6104C17.9371 14.4853 17.5177 14.7339 17.4173 15.2735C17.3929 15.4049 17.3903 15.5391 17.3721 15.7325ZM20.8429 21.6884C18.7635 20.3308 17.419 18.5536 16.789 16.3329C16.7744 16.3547 16.7612 16.3726 16.7519 16.388C16.1986 17.4005 15.6445 18.4129 15.0897 19.4252C15.0455 19.5077 15.068 19.5602 15.1176 19.6257C15.6715 20.3563 16.2307 21.0876 16.7775 21.825C16.8638 21.9413 16.951 21.9719 17.1001 21.9596C17.7637 21.9048 18.4304 21.8619 19.0958 21.8147L20.8429 21.6884ZM14.5765 19.9509C14.1399 20.2177 13.7081 20.473 13.2864 20.741C12.5914 21.1841 12.4512 21.9608 12.9413 22.6016C13.428 23.2349 14.281 23.3958 14.988 22.9808C15.3799 22.7509 15.764 22.5095 16.1511 22.2729C16.1909 22.2482 16.2289 22.2212 16.2723 22.1935L14.5765 19.9509ZM15.8812 23.1464C16.0754 23.4025 16.2581 23.6435 16.4404 23.8849C17.0409 24.679 17.6414 25.4732 18.2419 26.2673C18.4304 26.5159 18.7096 26.6211 18.994 26.5579C19.4887 26.4487 19.6785 25.9675 19.3785 25.5693C18.6503 24.602 17.9204 23.6358 17.189 22.6707C17.0912 22.5413 16.9448 22.5044 16.7988 22.5913C16.4953 22.7668 16.1971 22.9538 15.8812 23.1464Z" fill="#AAA9AD"/>
<path d="M24.5387 16.1191C24.3308 16.1191 24.2242 16.052 24.1693 15.9234C24.1145 15.7947 24.1693 15.6641 24.314 15.5775C24.6343 15.3854 24.9577 15.1976 25.2798 15.0078C25.6892 14.7663 26.0986 14.5249 26.5079 14.2835C26.7123 14.1644 26.9035 14.1819 27.0176 14.3296C27.1317 14.4773 27.08 14.6564 26.8703 14.7795C26.1574 15.2001 25.4439 15.6196 24.7299 16.0381C24.6689 16.0701 24.605 16.0972 24.5387 16.1191Z" fill="#AAA9AD"/>
<path d="M25.0831 17.4794L26.4546 17.7002C26.8612 17.7657 27.2673 17.8328 27.6748 17.896C27.8885 17.9293 28.0212 18.0611 27.996 18.2247C27.9686 18.4038 27.7885 18.5114 27.5646 18.4757C26.7683 18.3483 25.9719 18.2194 25.1756 18.0889C25.0995 18.0766 25.0225 18.0671 24.9486 18.0492C24.777 18.0055 24.6752 17.8698 24.7013 17.7268C24.7283 17.5684 24.8703 17.4695 25.0831 17.4794Z" fill="#AAA9AD"/>
<path d="M23.4151 12.311C23.3478 12.9008 23.2804 13.4904 23.2129 14.0799C23.1965 14.2225 23.1819 14.365 23.162 14.5071C23.1368 14.6878 22.9917 14.7946 22.8001 14.7775C22.6231 14.7621 22.5001 14.6298 22.5196 14.4531C22.5992 13.7204 22.6823 12.9883 22.7687 12.2566C22.7723 12.2181 22.7847 12.1807 22.8051 12.1467C22.8255 12.1128 22.8535 12.0829 22.8873 12.059C22.9211 12.0351 22.9601 12.0178 23.0017 12.008C23.0433 11.9982 23.0867 11.9962 23.1293 12.0021C23.2123 12.0101 23.2886 12.0469 23.3419 12.1046C23.3953 12.1622 23.4215 12.2363 23.4151 12.311Z" fill="#AAA9AD"/>
<path d="M19.7369 16.8527C20.1062 16.8481 20.4678 16.9475 20.7709 17.137C21.0739 17.3264 21.3032 17.5963 21.4265 17.9087C21.5498 18.2212 21.5609 18.5604 21.4582 18.8788C21.3555 19.1972 21.1442 19.4787 20.854 19.6837C20.7955 19.7285 20.7292 19.7642 20.6576 19.7893C20.5844 19.8089 20.5058 19.8046 20.4358 19.7772C20.3658 19.7497 20.3089 19.701 20.2751 19.6395C20.2414 19.578 20.2329 19.5077 20.2514 19.4412C20.2698 19.3746 20.3139 19.3161 20.3758 19.2759C20.6386 19.0973 20.8138 18.8741 20.8549 18.5767C20.9098 18.1797 20.7558 17.8525 20.3926 17.6238C20.0294 17.3951 19.6356 17.3792 19.2348 17.5527C19.1852 17.5741 19.1406 17.6039 19.091 17.6258C19.0174 17.6613 18.9313 17.67 18.8507 17.6501C18.7701 17.6301 18.7012 17.583 18.6583 17.5186C18.6162 17.4539 18.603 17.3773 18.6214 17.3043C18.6398 17.2312 18.6884 17.1672 18.7574 17.1251C19.0021 16.9607 19.3918 16.8527 19.7369 16.8527Z" fill="#AAA9AD"/>
</g>
<defs>
<clipPath id="clip0_8128_140690">
<rect width="16" height="16" fill="white" transform="translate(12 12)"/>
</clipPath>
</defs>
</svg>
