<svg width="16" height="17" viewBox="0 0 16 17" fill="none" xmlns="http://www.w3.org/2000/svg">
<g clip-path="url(#clip0_53_7101)">
<path d="M7.17384 0.596665C7.05509 0.646665 6.81758 0.746665 6.64571 0.81854L6.33633 0.946666L6.35508 1.23417L6.37071 1.52167L6.22383 1.66854L6.07696 1.81229H5.77696H5.47696L5.43946 1.90604L5.40196 1.99979H4.45196H3.50196V2.24979V2.49979H4.34571C4.81133 2.49979 5.18946 2.50604 5.18946 2.51229C5.18946 2.51854 5.16133 2.59042 5.12696 2.67167C5.09258 2.75292 5.06446 2.83417 5.06446 2.85292C5.06446 2.87479 5.16133 2.97479 5.28008 3.07792L5.49883 3.26542V3.45604L5.50196 3.64979L5.28321 3.84354C5.16446 3.94979 5.06446 4.05292 5.06446 4.07167C5.06446 4.09042 5.15821 4.33729 5.27696 4.61854L5.48633 5.13417L5.78008 5.11229L6.07696 5.09042L6.22383 5.2373L6.37071 5.38105L6.35508 5.68417L6.33946 5.98417L6.85508 6.19355C7.13946 6.3123 7.38321 6.40605 7.39884 6.40605C7.41446 6.40605 7.51446 6.30605 7.62384 6.1873L7.81759 5.96855L8.01134 5.97167H8.20509L8.39259 6.19042C8.49571 6.30917 8.59571 6.40605 8.61134 6.40605C8.63009 6.40605 8.87071 6.3123 9.15196 6.19667L9.65821 5.9873V5.6873V5.3873L9.80821 5.24042L9.95821 5.09354L10.2395 5.11229L10.5207 5.13417L10.7426 4.60604L10.9645 4.07792L10.7488 3.87167L10.5332 3.66542V3.46229V3.25604L10.752 3.05604L10.9676 2.85917L10.8957 2.68729L10.8207 2.51542L12.4957 2.50604C14.3707 2.49979 14.3645 2.49667 14.5738 2.71229C14.7988 2.94354 14.7832 2.59667 14.7832 7.25605V11.4561L14.4801 11.4529C14.3113 11.4529 14.1145 11.4654 14.0426 11.4779L13.9082 11.5061V10.2061V8.90605H12.252H10.5957V10.6998V12.4904L10.4645 12.4248C10.3582 12.3717 10.2582 12.3561 9.99571 12.3498L9.65821 12.3373V11.3873V10.4373H8.00196H6.34571V10.6561C6.34571 10.7748 6.34258 10.8748 6.33946 10.8748C6.33321 10.8748 6.22071 10.8529 6.08633 10.8279C5.95196 10.8029 5.74883 10.7811 5.63946 10.7811H5.43946V9.84355V8.90605H3.78321H2.12696V10.1873V11.4686H1.67383H1.2207V7.29355C1.2207 4.09354 1.23008 3.08729 1.2582 2.98729C1.3082 2.81854 1.53945 2.58729 1.7082 2.53729C1.78945 2.51229 2.05821 2.49979 2.45196 2.49979H3.06446V2.24667V1.99354L2.35508 2.00604C1.70195 2.01854 1.62695 2.02479 1.46445 2.09042C1.21133 2.18729 0.967579 2.42167 0.839454 2.68104L0.736329 2.89042L0.726954 7.17792L0.720704 11.4686H0.361328H0.00195312V11.7186V11.9686L1.4332 11.9623L2.86133 11.9529L3.15821 11.8154C3.53321 11.6436 4.08946 11.4623 4.52383 11.3686C4.80821 11.3092 4.95196 11.2967 5.42383 11.2967C5.94883 11.2998 6.00196 11.3061 6.23633 11.3842C6.81758 11.5779 7.13321 11.8811 7.47384 12.5686L7.60821 12.8404L8.92696 12.8498L10.2488 12.8592L10.3457 12.9529C10.477 13.0779 10.5332 13.1904 10.5332 13.3342C10.5332 13.4623 10.4457 13.6311 10.3363 13.7217C10.1988 13.8342 10.0395 13.8436 8.42696 13.8436H6.84571V14.0967V14.3467L8.55821 14.3373L10.2676 14.3279L10.4457 14.2436C10.6488 14.1498 10.8426 13.9623 10.9363 13.7717C10.9988 13.6467 11.0488 13.6154 12.5051 12.8217C14.0176 11.9967 14.152 11.9373 14.452 11.9373C14.6457 11.9373 14.9645 12.0436 15.1363 12.1654L15.2832 12.2686L14.102 13.0092C13.4551 13.4154 12.8988 13.7654 12.8707 13.7873C12.8207 13.8248 12.827 13.8436 12.9488 14.0373L13.0832 14.2467L14.5426 13.3342C15.3457 12.8311 16.002 12.4061 16.002 12.3873C16.002 12.3092 15.6707 11.9248 15.4926 11.7904L15.2988 11.6498L15.2832 7.26855L15.2676 2.89042L15.177 2.69667C15.0801 2.48104 14.8426 2.23417 14.6395 2.13104C14.3957 2.00917 14.252 1.99979 12.3926 1.99979H10.602L10.5676 1.90604L10.5363 1.81229H10.2301H9.92071L9.78946 1.67792L9.66134 1.54667L9.65196 1.23729L9.64259 0.93104L9.12696 0.715415L8.61134 0.49979L8.40821 0.71854L8.20509 0.937291H8.00509H7.80509L7.59884 0.721665L7.39259 0.502915L7.17384 0.596665ZM8.00821 1.43729H8.44259L8.59259 1.27479L8.74259 1.11229L8.94259 1.19042L9.14259 1.26854L9.13321 1.50292L9.12384 1.73417L9.42384 2.03104L9.72384 2.32792H9.95821H10.1957L10.277 2.52792L10.3582 2.73104L10.1957 2.87167L10.0332 3.01542V3.45292V3.88729L10.1926 4.04979L10.3551 4.21542L10.2707 4.41229L10.1863 4.60917L9.96446 4.59979L9.74259 4.58729L9.43321 4.89667L9.12384 5.20292L9.14259 5.42167L9.16134 5.64355L8.95196 5.73105L8.73946 5.81542L8.58634 5.64355L8.43321 5.46855H8.00821H7.58009L7.42384 5.64042L7.26759 5.81542L7.06134 5.73105L6.85508 5.6498L6.87071 5.40917L6.88321 5.17167L6.58633 4.88104L6.29258 4.58729L6.05508 4.59979L5.81758 4.60917L5.73633 4.40604L5.65508 4.20292L5.83008 4.04042L6.00196 3.87792V3.45604V3.03729L5.82696 2.88417L5.65508 2.73104L5.73946 2.51854L5.82383 2.30292L6.04883 2.32167L6.27071 2.34042L6.57696 2.03417L6.88321 1.72479L6.87383 1.50292L6.86133 1.27792L7.06134 1.19354L7.26446 1.10917L7.41759 1.27167L7.57384 1.43729H8.00821ZM4.93946 10.0936V10.7811L4.87071 10.7936C4.83008 10.7998 4.63633 10.8373 4.43946 10.8717C4.03946 10.9467 3.29571 11.1842 2.92383 11.3561C2.78946 11.4186 2.66758 11.4686 2.65508 11.4686C2.63946 11.4686 2.62696 11.0029 2.62696 10.4373V9.40605H3.78321H4.93946V10.0936ZM13.402 10.5811L13.3926 11.7592L12.2551 12.3779C11.6301 12.7217 11.1113 12.9998 11.1051 12.9998C11.102 12.9998 11.0957 12.1904 11.0957 11.2029V9.40605H12.252H13.4082L13.402 10.5811ZM9.15821 11.6404V12.3436L8.54571 12.3373L7.93321 12.3279L7.75509 12.0154C7.56446 11.6748 7.30821 11.3904 7.02071 11.1998C6.88946 11.1154 6.84571 11.0654 6.84571 11.0123V10.9373H8.00196H9.15821V11.6404Z" fill="white"/>
<path d="M7.59819 2.34346C7.29819 2.45283 7.06069 2.67471 6.91694 2.99033C6.80132 3.23408 6.79507 3.64033 6.90444 3.91221C7.26694 4.84346 8.64507 4.88721 9.07007 3.98408C9.32007 3.44658 9.15132 2.79658 8.67632 2.48096C8.58569 2.42158 8.44194 2.34971 8.36069 2.32471C8.14819 2.26221 7.80132 2.27158 7.59819 2.34346ZM8.28257 2.84658C8.47007 2.93096 8.52944 2.98721 8.61382 3.17158C8.75445 3.46533 8.68882 3.76221 8.43882 3.97783C7.84819 4.48408 7.01694 3.74658 7.43569 3.08721C7.60757 2.81533 7.97944 2.70908 8.28257 2.84658Z" fill="white"/>
<path d="M2.75195 3.78125V4.03125H3.00195H3.25195V3.78125V3.53125H3.00195H2.75195V3.78125Z" fill="white"/>
<path d="M3.68945 3.78125V4.03125H3.93945H4.18945V3.78125V3.53125H3.93945H3.68945V3.78125Z" fill="white"/>
<path d="M11.8457 3.78125V4.03125H12.0957H12.3457V3.78125V3.53125H12.0957H11.8457V3.78125Z" fill="white"/>
<path d="M12.7832 3.78125V4.03125H13.0332H13.2832V3.78125V3.53125H13.0332H12.7832V3.78125Z" fill="white"/>
<path d="M2.12695 7.28125V8.46875H3.7832H5.43946V7.28125V6.09375H3.7832H2.12695V7.28125ZM4.93946 7.28125V7.96875H3.7832H2.62695V7.28125V6.59375H3.7832H4.93946V7.28125Z" fill="white"/>
<path d="M10.5957 7.28125V8.46875H12.252H13.9082V7.28125V6.09375H12.252H10.5957V7.28125ZM13.4082 7.28125V7.96875H12.252H11.0957V7.28125V6.59375H12.252H13.4082V7.28125Z" fill="white"/>
<path d="M6.3457 8.40625V10H8.00195H9.65821V8.40625V6.8125H8.00195H6.3457V8.40625ZM9.15821 8.40625V9.5H8.00195H6.8457V8.40625V7.3125H8.00195H9.15821V8.40625Z" fill="white"/>
<path d="M11.0238 14.9375C10.2551 15.4187 9.55821 15.8406 9.47071 15.875C9.21134 15.9781 8.91759 16.0125 8.67696 15.9718C8.56134 15.95 7.32696 15.5687 5.93633 15.125L3.40821 14.3125H1.70508H0.00195312V14.5625V14.8125H1.65508H3.30821L5.84571 15.625C8.68634 16.5343 8.73634 16.5468 9.22071 16.4593C9.36759 16.4343 9.56759 16.3812 9.66446 16.3468C9.85196 16.275 12.6645 14.5312 12.6832 14.4718C12.6957 14.4343 12.4738 14.0625 12.4395 14.0625C12.4301 14.0625 11.7926 14.4562 11.0238 14.9375Z" fill="white"/>
</g>
<defs>
<clipPath id="clip0_53_7101">
<rect width="16" height="16" fill="white" transform="translate(0 0.5)"/>
</clipPath>
</defs>
</svg>
