<svg width="24" height="24" viewBox="0 0 24 24" fill="none" xmlns="http://www.w3.org/2000/svg">
<path d="M7.60313 1.35986C7.37813 1.4958 7.26563 1.71143 7.26563 2.00674C7.26563 2.14268 7.28907 2.30205 7.31719 2.3583C7.34532 2.41455 7.99219 3.08955 8.75625 3.85361L10.1484 5.25049H7.3125C4.67344 5.25049 4.44844 5.25518 4.10157 5.33955C2.60157 5.70518 1.48125 6.93799 1.26563 8.46611C1.2375 8.6958 1.21875 10.6505 1.21875 14.0349C1.21875 19.7771 1.21407 19.7255 1.50469 20.4192C1.97344 21.5442 2.90625 22.3505 4.10157 22.6692C4.41563 22.7536 4.75782 22.7583 12 22.7583C19.2422 22.7583 19.5844 22.7536 19.8984 22.6692C21.2813 22.3036 22.3031 21.2817 22.6688 19.8989C22.7531 19.5896 22.7578 19.2896 22.7578 13.9692V8.36768L22.6266 7.9458C22.2141 6.62393 21.1969 5.65361 19.9125 5.34424C19.5469 5.25518 19.3594 5.25049 16.6875 5.25049H13.8516L15.2438 3.85361C16.0078 3.08955 16.6547 2.41455 16.6828 2.3583C16.7109 2.30205 16.7344 2.14268 16.7344 2.00674C16.7344 1.55205 16.4484 1.26611 15.9938 1.26611C15.8578 1.26611 15.6984 1.28955 15.6422 1.31768C15.5859 1.3458 14.7422 2.16143 13.7719 3.13174L12 4.89893L10.2328 3.13174C9.25782 2.16143 8.41407 1.3458 8.35782 1.31768C8.18907 1.2333 7.77657 1.25674 7.60313 1.35986ZM19.2609 6.79736C20.2125 6.92393 21.0094 7.67861 21.1875 8.6208C21.2531 8.98174 21.2531 19.013 21.1828 19.388C21.0188 20.2786 20.2781 21.0192 19.3875 21.1833C18.9984 21.2536 5.00157 21.2536 4.6125 21.1833C3.72188 21.0192 2.98125 20.2786 2.81719 19.388C2.74688 19.013 2.74688 8.98174 2.8125 8.6208C2.98594 7.70205 3.79688 6.91924 4.6875 6.80205C5.11875 6.7458 18.8297 6.74111 19.2609 6.79736Z" fill="white"/>
<path d="M10.4296 10.4253C9.93274 10.5847 9.51555 10.9269 9.3093 11.3581C9.24368 11.4894 9.16868 11.7472 9.14055 11.93C9.0843 12.3284 9.07961 15.605 9.13586 16.0409C9.22024 16.6691 9.61399 17.2222 10.1624 17.4753C10.5515 17.6534 11.1609 17.6769 11.5546 17.5269C11.9484 17.3816 15.2671 15.1597 15.464 14.9159C15.5437 14.8128 15.6656 14.6019 15.7359 14.4519C15.8437 14.2222 15.8624 14.1191 15.8624 13.7581C15.8624 13.205 15.7452 12.8956 15.389 12.5112C15.1359 12.2441 15.0515 12.1925 13.4109 11.3722C12.4687 10.8987 11.5827 10.4769 11.4421 10.4347C11.1421 10.3456 10.6921 10.3409 10.4296 10.4253ZM12.5765 12.7034C13.4624 13.1441 14.2265 13.5425 14.2734 13.5941C14.4515 13.7862 14.3765 13.8519 12.6702 14.9909C11.0577 16.0644 10.8796 16.1581 10.7437 16.0222C10.7015 15.98 10.6874 15.4737 10.6874 14.0206C10.6874 12.2769 10.6968 12.0706 10.7671 11.9909C10.8093 11.9441 10.8702 11.9066 10.9031 11.9066C10.9359 11.9066 11.6906 12.2675 12.5765 12.7034Z" fill="white"/>
</svg>
