<svg width="24" height="24" viewBox="0 0 24 24" fill="none" xmlns="http://www.w3.org/2000/svg">
<g clip-path="url(#clip0_22_7203)">
<path d="M2.30625 0.0703032C2.16563 0.103116 1.875 0.220303 1.65 0.328116C0.895313 0.703116 0.2625 1.4953 0.0703125 2.30155C0.009375 2.56405 0 3.79686 0 11.9859C0 18.5484 0.0140625 21.4453 0.0515625 21.6187C0.0796875 21.7547 0.196875 22.0641 0.314063 22.3078C0.6 22.9078 1.06406 23.3812 1.64063 23.6625C2.38594 24.0281 1.51875 24 12 24C22.4813 24 21.6141 24.0281 22.3594 23.6625C22.9359 23.3812 23.4 22.9078 23.6859 22.3078C23.8031 22.0641 23.9203 21.7547 23.9484 21.6187C24.0188 21.2672 24.0188 2.7328 23.9484 2.38124C23.9203 2.2453 23.8031 1.93593 23.6859 1.69218C23.4094 1.11562 22.9453 0.632803 22.3781 0.337491C21.675 -0.0234467 22.4906 -9.25061e-06 11.9766 0.00467825C4.45781 0.00936575 2.50313 0.0187407 2.30625 0.0703032ZM21.5859 1.16718C22.2281 1.42499 22.6406 1.85624 22.8563 2.48437C22.9406 2.7328 22.9453 3.07499 22.9453 12C22.9453 20.925 22.9406 21.2672 22.8563 21.5156C22.6359 22.1578 22.2094 22.5937 21.5625 22.8328L21.2578 22.9453H12H2.74219L2.4375 22.8328C1.8 22.6031 1.40156 22.2 1.16719 21.5625L1.05469 21.2578V12V2.74218L1.16719 2.43749C1.44844 1.66874 2.02969 1.19062 2.8125 1.07812C2.95313 1.05937 7.17188 1.0453 12.1875 1.04999L21.3047 1.05468L21.5859 1.16718Z" fill="white"/>
<path d="M3.91409 3.85772C3.47346 3.97491 3.09377 4.23272 2.8594 4.56553C2.10002 5.67647 2.76096 7.21866 4.07815 7.40616C4.86565 7.51866 5.66252 7.0921 5.99065 6.38428C6.16409 5.99991 6.19221 5.38585 6.0469 5.00147C5.86409 4.51397 5.42346 4.06866 4.96877 3.91397C4.67815 3.81085 4.19534 3.78741 3.91409 3.85772ZM4.72971 5.00616C5.18909 5.34366 5.17034 5.97178 4.69221 6.25303C4.20002 6.53897 3.57659 6.13585 3.62346 5.56397C3.6469 5.28272 3.76409 5.11866 4.03596 4.97803C4.27502 4.85147 4.53752 4.86085 4.72971 5.00616Z" fill="white"/>
<path d="M9.05628 3.84833C8.94847 3.86708 8.72815 3.95614 8.57347 4.03583C7.6219 4.54677 7.35003 5.82645 8.00159 6.71708C8.18909 6.9702 8.47972 7.18583 8.83128 7.33114C9.07034 7.42958 9.11253 7.42958 14.3157 7.44364C17.5078 7.45302 19.6875 7.43895 19.8844 7.41083C20.7703 7.28895 21.3938 6.61395 21.4547 5.72802C21.5157 4.81864 20.925 4.04052 20.025 3.84833C19.7297 3.78739 9.37503 3.7827 9.05628 3.84833ZM20.0813 5.03427C20.5125 5.36239 20.4703 6.01395 20.0016 6.27177C19.861 6.34677 19.486 6.35145 14.6578 6.36552C10.9688 6.37489 9.40315 6.36083 9.26722 6.32333C8.75159 6.18739 8.55003 5.55927 8.89222 5.15145C9.13597 4.86083 8.81722 4.87489 14.6063 4.88895L19.9078 4.89833L20.0813 5.03427Z" fill="white"/>
<path d="M3.90469 10.2421C3.34219 10.3968 2.94844 10.7202 2.70469 11.2405C2.56875 11.5264 2.55469 11.5968 2.55469 11.9999C2.55469 12.403 2.56875 12.4733 2.70469 12.7593C2.96719 13.3171 3.44531 13.678 4.06875 13.7858C4.8375 13.9218 5.65313 13.4858 5.99063 12.7593C6.10313 12.5249 6.11719 12.4358 6.11719 11.9999C6.11719 11.5639 6.10313 11.4749 5.99063 11.2405C5.75156 10.7296 5.25938 10.3405 4.69688 10.2233C4.37813 10.1577 4.20938 10.1624 3.90469 10.2421ZM4.73438 11.3858C5.16094 11.6952 5.175 12.2718 4.77188 12.5811C4.44375 12.8249 3.98438 12.7546 3.74531 12.4171C3.58594 12.1921 3.58594 11.8077 3.74531 11.5827C3.97031 11.2686 4.44375 11.1749 4.73438 11.3858Z" fill="white"/>
<path d="M9.02347 10.2374C8.39065 10.3921 7.91722 10.8327 7.72503 11.4468C7.43909 12.3749 7.89378 13.3312 8.79847 13.6968L9.07034 13.8046L14.386 13.8187C17.8453 13.8281 19.7907 13.814 19.9594 13.7812C20.5688 13.6687 21.0328 13.3124 21.2953 12.7593C21.4313 12.4734 21.4453 12.4031 21.4453 11.9999C21.4453 11.5968 21.4313 11.5265 21.2953 11.2406C21.1313 10.889 20.8266 10.5562 20.536 10.4109C20.0578 10.1671 20.2078 10.1718 14.5313 10.1765C10.5141 10.1765 9.20159 10.1952 9.02347 10.2374ZM19.9688 11.3531C20.2641 11.5077 20.3672 11.6671 20.3672 11.9906C20.3672 12.3187 20.236 12.5296 19.95 12.6609C19.7672 12.7452 19.5282 12.7499 14.5547 12.7499H9.3469L9.14065 12.6421C8.84065 12.4921 8.74222 12.3327 8.74222 11.9999C8.74222 11.6671 8.84065 11.5077 9.14065 11.3531L9.3469 11.2499H14.5547H19.7625L19.9688 11.3531Z" fill="white"/>
<path d="M4.04064 16.5938C2.98595 16.7485 2.27814 17.9157 2.62501 18.9329C2.8547 19.6172 3.33283 20.0297 4.05001 20.161C4.82345 20.3063 5.60626 19.9032 5.96251 19.1813C6.23908 18.6188 6.19689 17.8922 5.8547 17.3719C5.47501 16.8001 4.75783 16.4907 4.04064 16.5938ZM4.71095 17.761C5.29689 18.0938 5.10001 19.0219 4.42501 19.1063C4.20939 19.1344 3.87658 18.9844 3.73595 18.7922C3.60001 18.6001 3.58126 18.286 3.69376 18.0657C3.81095 17.8407 3.88126 17.7751 4.11095 17.6907C4.31251 17.6204 4.5047 17.6438 4.71095 17.761Z" fill="white"/>
<path d="M9.16404 16.5936C8.48904 16.6921 7.95935 17.1468 7.73435 17.8124C7.64998 18.0608 7.63591 18.1874 7.65466 18.4968C7.69685 19.1811 8.03435 19.6921 8.66248 20.0015L9.01873 20.1796L14.3625 20.1936C18.2437 20.203 19.7859 20.1936 19.9922 20.1561C20.6719 20.0249 21.15 19.603 21.375 18.9327C21.4594 18.689 21.4734 18.5624 21.4547 18.2718C21.3984 17.3952 20.7703 16.7155 19.9172 16.5936C19.5609 16.5421 9.50623 16.5421 9.16404 16.5936ZM20.0015 17.728C20.4703 17.9858 20.5125 18.6374 20.0812 18.9655L19.9078 19.1015L14.6531 19.1155C11.0484 19.1249 9.34685 19.1155 9.22498 19.078C8.75154 18.9421 8.56404 18.2718 8.89685 17.9015C9.15466 17.6155 8.90154 17.6249 14.625 17.639C19.4859 17.6483 19.8609 17.653 20.0015 17.728Z" fill="white"/>
</g>
<defs>
<clipPath id="clip0_22_7203">
<rect width="24" height="24" fill="white"/>
</clipPath>
</defs>
</svg>
