<svg width="24" height="25" viewBox="0 0 24 25" fill="none" xmlns="http://www.w3.org/2000/svg">
<path d="M18 8.94678C18 7.35548 17.3679 5.82935 16.2426 4.70414C15.1174 3.57892 13.5913 2.94678 12 2.94678C10.4087 2.94678 8.88258 3.57892 7.75736 4.70414C6.63214 5.82935 6 7.35548 6 8.94678C6 15.9468 3 17.9468 3 17.9468H21C21 17.9468 18 15.9468 18 8.94678Z" stroke="white" stroke-linecap="round" stroke-linejoin="round"/>
<path d="M13.73 21.9468C13.5542 22.2499 13.3019 22.5014 12.9982 22.6763C12.6946 22.8512 12.3504 22.9432 12 22.9432C11.6496 22.9432 11.3054 22.8512 11.0018 22.6763C10.6982 22.5014 10.4458 22.2499 10.27 21.9468" stroke="white" stroke-linecap="round" stroke-linejoin="round"/>
</svg>
