<svg width="24" height="24" viewBox="0 0 24 24" fill="none" xmlns="http://www.w3.org/2000/svg">
<g clip-path="url(#clip0_4959_187188)">
<path d="M1.97431 0.0749569C1.08368 0.314018 0.30556 1.10152 0.0711846 1.99683C0.0336846 2.15152 0.000872101 2.47027 0.000872101 2.73277C0.000872101 3.24371 0.122747 3.70308 0.366497 4.12027C0.54931 4.43433 1.06025 4.92183 1.36962 5.08589L1.6415 5.22652V12V18.7734L1.38837 18.9046C0.821185 19.2046 0.366497 19.7484 0.132122 20.4093C-0.0975654 21.075 -0.0413154 21.914 0.277435 22.5375C0.638372 23.2359 1.26181 23.7328 2.02118 23.9296C2.47118 24.0468 3.24462 24.0093 3.67587 23.8406C4.27587 23.6109 4.81962 23.1375 5.09618 22.6078L5.22743 22.3593H12.0009H18.7743L18.9056 22.6078C19.1821 23.1375 19.754 23.625 20.3681 23.8593C20.7571 24.0046 21.554 24.0421 21.9806 23.9296C22.9321 23.6812 23.6868 22.9312 23.9306 21.9984C23.9727 21.8437 24.0009 21.5296 24.0009 21.2578C24.0009 20.864 23.9774 20.7281 23.8649 20.4046C23.6399 19.7625 23.1712 19.2 22.6087 18.9046L22.3602 18.7734V12V5.22652L22.6087 5.09527C23.1712 4.80464 23.6587 4.20933 23.879 3.55308C24.0243 3.12183 24.0477 2.44214 23.9306 1.99683C23.6915 1.08746 22.9134 0.309332 22.004 0.0702686C21.8446 0.0280819 21.5352 -4.3869e-05 21.2587 -4.3869e-05C20.8649 -4.3869e-05 20.729 0.0233936 20.4102 0.131207C19.7493 0.365582 19.2056 0.820269 18.9056 1.38746L18.7743 1.64058H12.0009H5.22743L5.08681 1.36871C4.78681 0.787457 4.08837 0.253082 3.39931 0.0702686C3.05243 -0.0187931 2.3165 -0.0187931 1.97431 0.0749569ZM3.27743 1.56558C3.35712 1.60777 3.49775 1.72027 3.5915 1.81402C4.18681 2.40464 4.05087 3.37496 3.31493 3.79683C2.72431 4.13433 2.01181 3.95152 1.63212 3.36089C1.25243 2.77027 1.4915 1.90777 2.12431 1.58902C2.47587 1.40621 2.94931 1.39683 3.27743 1.56558ZM21.8821 1.58902C22.1212 1.71089 22.3743 1.99683 22.4774 2.26402C22.6087 2.60621 22.5618 3.06089 22.3696 3.36089C21.8259 4.20464 20.6259 4.15308 20.1712 3.26246C19.7915 2.52183 20.2649 1.57964 21.0899 1.45777C21.3524 1.42027 21.6431 1.46714 21.8821 1.58902ZM18.6524 3.35152C18.8587 4.27964 19.7212 5.14214 20.6493 5.34839L20.9071 5.40464V12V18.5953L20.6493 18.6515C19.7212 18.8578 18.8587 19.7203 18.6524 20.6484L18.5962 20.9062H12.0009H5.40556L5.34931 20.6484C5.14306 19.7203 4.28056 18.8578 3.35243 18.6515L3.09462 18.5953V12V5.40464L3.35243 5.34839C4.28056 5.14214 5.14306 4.27964 5.34931 3.35152L5.40556 3.09371H12.0009H18.5962L18.6524 3.35152ZM3.26806 20.175C4.154 20.6203 4.20556 21.8296 3.36181 22.3687C3.06181 22.5609 2.60712 22.6078 2.26493 22.4765C1.31806 22.1156 1.15868 20.7656 2.00243 20.2453C2.41025 19.9921 2.86025 19.964 3.26806 20.175ZM21.8727 20.1796C22.304 20.3906 22.5477 20.7937 22.5477 21.2906C22.5477 22.0406 21.9618 22.5843 21.1977 22.5375C20.9352 22.5234 20.8368 22.4953 20.6399 22.3687C19.9509 21.9281 19.8337 21.014 20.3868 20.4234C20.5087 20.2875 20.7759 20.1328 21.0009 20.0578C21.1977 19.9921 21.6056 20.0484 21.8727 20.1796Z" fill="white"/>
<path d="M6.32812 7.96875V9.28125H7.05469H7.78125V8.67188V8.0625H9.53906H11.2969V12.0469V16.0312H10.6875H10.0781V16.7578V17.4844H12H13.9219V16.7578V16.0312H13.3125H12.7031V12.0469V8.0625H14.4609H16.2188V8.67188V9.28125H16.9453H17.6719V7.96875V6.65625H12H6.32812V7.96875Z" fill="white"/>
</g>
<defs>
<clipPath id="clip0_4959_187188">
<rect width="24" height="24" fill="white"/>
</clipPath>
</defs>
</svg>
