<svg width="20" height="20" viewBox="0 0 20 20" fill="none" xmlns="http://www.w3.org/2000/svg">
<path d="M10.0273 9.61792C9.82291 9.61792 9.65533 9.78551 9.65533 9.98988V12.3361L7.62385 13.5092C7.44809 13.6114 7.38678 13.8362 7.48897 14.016C7.55845 14.1346 7.68108 14.2 7.81188 14.2C7.87319 14.2 7.93859 14.1836 7.99581 14.1509L10.0273 12.9778L12.0588 14.1509C12.116 14.1836 12.1814 14.2 12.2427 14.2C12.3694 14.2 12.4961 14.1346 12.5656 14.016C12.6678 13.8403 12.6065 13.6114 12.4307 13.5092L10.3992 12.3361V9.98988C10.3952 9.78551 10.2317 9.61792 10.0273 9.61792Z" fill="white"/>
<path d="M8.44141 6.09044C8.06536 6.28664 7.2356 6.74853 6.4549 7.38617C6.20556 7.59054 6.0625 7.89711 6.0625 8.22002V9.22145C6.0625 9.42582 6.23009 9.59341 6.43446 9.59341C6.63883 9.59341 6.80642 9.42582 6.80642 9.22145V8.22002C6.80642 8.11783 6.85138 8.02382 6.92904 7.95842C7.80785 7.23902 8.76023 6.7567 8.94008 6.66678C9.09132 6.5932 9.18533 6.44197 9.18533 6.27438V4.8642C9.18533 4.74158 9.12402 4.62304 9.02183 4.55764C8.94008 4.5045 8.89103 4.41458 8.89103 4.31648V2.85317C8.89103 2.32997 9.31613 1.90487 9.83932 1.90487H10.1541C10.6773 1.90487 11.1024 2.32997 11.1024 2.85317V4.31648C11.1024 4.41458 11.0533 4.5045 10.9716 4.55764C10.8694 4.62713 10.8081 4.74158 10.8081 4.8642V6.27847C10.8081 6.44605 10.9021 6.59729 11.0533 6.67086C11.2372 6.76079 12.1855 7.23902 13.0643 7.9625C13.142 8.0279 13.187 8.12192 13.187 8.2241V9.22553C13.187 9.42991 13.3546 9.59749 13.5589 9.59749C13.7633 9.59749 13.9309 9.42991 13.9309 9.22553V8.2241C13.9309 7.90119 13.7878 7.59463 13.5385 7.39026C12.7619 6.75261 11.928 6.28664 11.552 6.09453V5.03996C11.74 4.84785 11.8463 4.59034 11.8463 4.32057V2.85317C11.8463 1.92122 11.0901 1.16504 10.1581 1.16504H9.84341C8.91147 1.16504 8.15529 1.92122 8.15529 2.85317V4.31648C8.15529 4.59034 8.26156 4.84785 8.44958 5.03587V6.09044H8.44141Z" fill="white"/>
<path d="M3.76865 11.1425H4.08338C4.60658 11.1425 5.03168 11.5676 5.03168 12.0908V13.5541C5.03168 13.6522 4.98263 13.7421 4.90088 13.7953C4.79869 13.8647 4.73738 13.9792 4.73738 14.1018V15.5161C4.73738 15.6837 4.83139 15.8349 4.98263 15.9085C5.16656 15.9984 6.11486 16.4766 6.99366 17.2001C7.07133 17.2655 7.11629 17.3595 7.11629 17.4617V18.4631C7.11629 18.6675 7.28387 18.8351 7.48825 18.8351C7.69262 18.8351 7.86021 18.6675 7.86021 18.4631V17.4617C7.86021 17.1388 7.71715 16.8322 7.46781 16.6279C6.69119 15.9902 5.85735 15.5243 5.4813 15.3321V14.2776C5.66932 14.0855 5.7756 13.828 5.7756 13.5582V12.0949C5.7756 11.1629 5.01942 10.4067 4.08747 10.4067H3.77274C2.84079 10.4067 2.08461 11.1629 2.08461 12.0949V13.5541C2.08461 13.828 2.19089 14.0855 2.37891 14.2735V15.3281C2.00286 15.5243 1.1731 15.9861 0.392397 16.6238C0.143062 16.8282 0 17.1347 0 17.4576V18.4591C0 18.6634 0.167586 18.831 0.37196 18.831C0.576334 18.831 0.74392 18.6634 0.74392 18.4591V17.4576C0.74392 17.3554 0.788882 17.2614 0.866544 17.196C1.74535 16.4766 2.69773 15.9943 2.87758 15.9044C3.02882 15.8308 3.12283 15.6796 3.12283 15.512V14.1018C3.12283 13.9792 3.06152 13.8607 2.95933 13.7953C2.87758 13.7421 2.82853 13.6522 2.82853 13.5541V12.0908C2.82036 11.5676 3.24545 11.1425 3.76865 11.1425Z" fill="white"/>
<path d="M12.5233 16.6238C12.2739 16.8282 12.1309 17.1347 12.1309 17.4576V18.4591C12.1309 18.6634 12.2984 18.831 12.5028 18.831C12.7072 18.831 12.8748 18.6634 12.8748 18.4591V17.4576C12.8748 17.3554 12.9197 17.2614 12.9974 17.196C13.8762 16.4766 14.8286 15.9943 15.0084 15.9044C15.1597 15.8308 15.2537 15.6796 15.2537 15.512V14.1018C15.2537 13.9792 15.1924 13.8607 15.0902 13.7953C15.0084 13.7421 14.9594 13.6522 14.9594 13.5541V12.0908C14.9594 11.5676 15.3845 11.1425 15.9077 11.1425H16.2224C16.7456 11.1425 17.1707 11.5676 17.1707 12.0908V13.5541C17.1707 13.6522 17.1217 13.7421 17.0399 13.7953C16.9377 13.8647 16.8764 13.9792 16.8764 14.1018V15.5161C16.8764 15.6837 16.9704 15.8349 17.1217 15.9085C17.3056 15.9984 18.2539 16.4766 19.1327 17.2001C19.2104 17.2655 19.2553 17.3595 19.2553 17.4617V18.4631C19.2553 18.6675 19.4229 18.8351 19.6273 18.8351C19.8317 18.8351 19.9992 18.6675 19.9992 18.4631V17.4617C19.9992 17.1388 19.8562 16.8322 19.6068 16.6279C18.8302 15.9902 17.9964 15.5243 17.6203 15.3321V14.2776C17.8084 14.0855 17.9146 13.828 17.9146 13.5582V12.0949C17.9146 11.1629 17.1585 10.4067 16.2265 10.4067H15.9118C14.9798 10.4067 14.2236 11.1629 14.2236 12.0949V13.5541C14.2236 13.828 14.3299 14.0855 14.5179 14.2735V15.3281C14.1337 15.5243 13.304 15.9861 12.5233 16.6238Z" fill="white"/>
</svg>
