<svg width="20" height="21" viewBox="0 0 20 21" fill="none" xmlns="http://www.w3.org/2000/svg">
<path d="M19.996 10.7905C19.996 5.26766 15.5189 0.790527 9.99607 0.790527C4.47323 0.790527 -0.00390625 5.26766 -0.00390625 10.7905C-0.00390625 15.7818 3.65293 19.9188 8.43357 20.669V13.6811H5.89452V10.7905H8.43357V8.58739C8.43357 6.08113 9.92649 4.69677 12.2107 4.69677C13.3048 4.69677 14.4492 4.89208 14.4492 4.89208V7.35301H13.1882C11.946 7.35301 11.5586 8.12385 11.5586 8.91467V10.7905H14.332L13.8886 13.6811H11.5586V20.669C16.3392 19.9188 19.996 15.7818 19.996 10.7905Z" fill="white"/>
<path d="M13.8886 13.6801L14.332 10.7895H11.5586V8.91369C11.5586 8.12288 11.946 7.35204 13.1882 7.35204H14.4492V4.89111C14.4492 4.89111 13.3048 4.6958 12.2107 4.6958C9.9265 4.6958 8.43358 6.08016 8.43358 8.58642V10.7895H5.89453V13.6801H8.43358V20.668C8.95047 20.749 9.47288 20.7896 9.99608 20.7895C10.5276 20.7895 11.0494 20.7479 11.5586 20.668V13.6801H13.8886Z" fill="#016DEA"/>
</svg>
