<svg width="24" height="24" viewBox="0 0 24 24" fill="none" xmlns="http://www.w3.org/2000/svg">
<g clip-path="url(#clip0_4942_191239)">
<path d="M5.5875 0.145205C5.0625 0.403017 4.82812 0.815517 4.82812 1.46239V1.8702L2.89688 1.88427C1.01719 1.89833 0.95625 1.90302 0.773438 2.00146C0.501563 2.14677 0.239063 2.42333 0.1125 2.69989L0 2.93896L0.009375 12.0515L0.0234375 21.164L0.126563 21.3515C0.253125 21.5905 0.534375 21.8718 0.773438 21.9983C0.960938 22.1015 0.979688 22.1015 4.49063 22.1155L8.02031 22.1249L8.16094 21.989C8.34375 21.8061 8.34844 21.539 8.175 21.3327L8.05781 21.1921L4.6875 21.178C1.35469 21.164 1.31719 21.164 1.18594 21.0655C1.11563 21.014 1.03125 20.8968 0.998438 20.8077C0.928125 20.6015 0.914063 3.49208 0.984375 3.22958C1.0125 3.14052 1.0875 3.01395 1.15313 2.94833L1.275 2.83583L3.05156 2.82177L4.82812 2.8077V3.22489C4.82812 3.59521 4.84219 3.67489 4.97344 3.92802C5.22188 4.43427 5.64844 4.68739 6.23438 4.68739C6.82031 4.68739 7.24688 4.43427 7.49531 3.92802C7.62656 3.67489 7.64063 3.59521 7.64063 3.22489V2.81239H11.4375H15.2344V3.22489C15.2344 3.59521 15.2484 3.67489 15.3797 3.92802C15.6281 4.43427 16.0547 4.68739 16.6406 4.68739C17.2266 4.68739 17.6531 4.43427 17.9016 3.92802C18.0328 3.67489 18.0469 3.59521 18.0469 3.22489V2.81239L19.725 2.81708C21.5344 2.81708 21.6469 2.83114 21.8156 3.06083C21.9094 3.18739 21.9141 3.26239 21.9281 4.41083L21.9422 5.62489H12.9703H3.99844L3.87188 5.74677C3.69844 5.92489 3.69844 6.26239 3.87188 6.44052L3.99844 6.56239H12.9656H21.9375V11.1796C21.9375 13.7202 21.9281 15.7968 21.9188 15.7968C21.9047 15.7968 21.7547 15.7265 21.5766 15.6374C21.4031 15.5483 21.1172 15.4311 20.9438 15.3749L20.625 15.2718V11.6952V8.12333L20.5031 7.99677L20.3766 7.87489H11.4375H2.49844L2.37188 7.99677L2.25 8.12333V13.8749V19.6265L2.37188 19.753L2.49844 19.8749H8.84063H15.1875V20.0108C15.1875 20.1983 15.3141 20.7936 15.3984 21.0093L15.4688 21.1874H13.4156C11.1422 21.1874 11.2125 21.178 11.1094 21.4921C11.0672 21.614 11.0672 21.6983 11.1094 21.8202C11.2125 22.1343 11.1188 22.1249 13.6734 22.1249C15.0422 22.1249 15.9844 22.1436 15.9844 22.1671C15.9844 22.2515 16.7063 22.978 16.9969 23.1843C17.3625 23.4468 18.0609 23.7749 18.4922 23.8874C18.9563 24.014 20.2781 24.014 20.7188 23.8921C21.0844 23.789 21.7969 23.4561 22.1109 23.2452C22.4344 23.0249 22.9453 22.5233 23.1844 22.1905C23.4328 21.839 23.7328 21.2249 23.8641 20.789C23.9859 20.3811 24.0375 19.2936 23.9578 18.8343C23.8453 18.1686 23.5359 17.4702 23.1234 16.9171L22.875 16.589L22.8656 9.71239L22.8516 2.83583L22.7484 2.64833C22.6219 2.40927 22.3406 2.12802 22.1016 2.00146C21.9188 1.90302 21.8578 1.89833 19.9828 1.88427L18.0469 1.8702V1.4577C18.0469 1.09208 18.0328 1.01239 17.9016 0.759268C17.6531 0.253017 17.2266 -0.000106812 16.6406 -0.000106812C16.0547 -0.000106812 15.6281 0.253017 15.3797 0.759268C15.2484 1.01239 15.2344 1.09208 15.2344 1.46239V1.87489H11.4375H7.64063V1.46239C7.64063 1.09208 7.62656 1.01239 7.49531 0.759268C7.24688 0.253017 6.825 -0.000106812 6.22969 -0.000106812C5.925 -0.000106812 5.83125 0.0186424 5.5875 0.145205ZM6.50156 1.05458C6.55781 1.09677 6.62813 1.20458 6.65625 1.30302C6.70781 1.49052 6.72188 3.07958 6.675 3.32333C6.62813 3.53896 6.44531 3.70302 6.23906 3.70302C6.01406 3.70302 5.87344 3.59989 5.8125 3.38427C5.75156 3.15927 5.75156 1.52802 5.8125 1.30302C5.87344 1.08739 6.01406 0.984268 6.23438 0.984268C6.32813 0.984268 6.44531 1.01708 6.50156 1.05458ZM16.9078 1.05458C16.9641 1.09677 17.0344 1.20458 17.0625 1.30302C17.1141 1.49052 17.1281 3.07958 17.0813 3.32333C17.0156 3.64677 16.6313 3.81552 16.3734 3.63271C16.2094 3.5202 16.1719 3.27177 16.1719 2.34364C16.1719 1.86552 16.1953 1.39677 16.2188 1.30302C16.2797 1.08739 16.4203 0.984268 16.6406 0.984268C16.7344 0.984268 16.8516 1.01708 16.9078 1.05458ZM5.71875 10.1952V11.578H4.45312H3.1875V10.1952V8.81239H4.45312H5.71875V10.1952ZM9.1875 10.1952V11.578H7.94531H6.70313V10.1952V8.81239H7.94531H9.1875V10.1952ZM12.7031 10.1952V11.578H11.4375H10.1719V10.1952V8.81239H11.4375H12.7031V10.1952ZM16.1719 10.1952V11.578H14.9297H13.6875V10.1952V8.81239H14.9297H16.1719V10.1952ZM19.6875 10.1952V11.578H18.4219H17.1562V10.1952V8.81239H18.4219H19.6875V10.1952ZM5.71875 13.8749V15.2343H4.45312H3.1875V13.8749V12.5155H4.45312H5.71875V13.8749ZM9.1875 13.8749V15.2343H7.94531H6.70313V13.8749V12.5155H7.94531H9.1875V13.8749ZM12.7031 13.8749V15.2343H11.4375H10.1719V13.8749V12.5155H11.4375H12.7031V13.8749ZM16.1719 13.8749V15.2343H14.9297H13.6875V13.8749V12.5155H14.9297H16.1719V13.8749ZM19.6875 13.8421V15.1733L19.1156 15.2015C18.8063 15.2202 18.2344 15.2343 17.85 15.2343H17.1562V13.8749V12.5155H18.4219H19.6875V13.8421ZM20.3672 16.2515C21.6094 16.528 22.6266 17.5358 22.9406 18.8015C23.0391 19.2046 23.0391 19.9827 22.9406 20.3858C22.4203 22.4811 20.1422 23.6061 18.1969 22.7296C17.4375 22.3874 16.7953 21.7452 16.4531 20.9858C16.2516 20.5358 16.1719 20.1374 16.1719 19.5936C16.1719 18.8296 16.3688 18.2108 16.8 17.6108C17.6156 16.4624 18.9891 15.9374 20.3672 16.2515ZM5.71875 17.5546V18.9374H4.45312H3.1875V17.5546V16.1718H4.45312H5.71875V17.5546ZM9.1875 17.5546V18.9374H7.94531H6.70313V17.5546V16.1718H7.94531H9.1875V17.5546ZM12.7031 17.5546V18.9374H11.4375H10.1719V17.5546V16.1718H11.4375H12.7031V17.5546ZM16.1719 16.4624C16.1719 16.7249 16.1531 16.7765 15.9844 17.0202C15.6375 17.5171 15.2344 18.4874 15.2344 18.8296C15.2344 18.9374 15.2344 18.9374 14.4609 18.9374H13.6875V17.5546V16.1718H14.9297H16.1719V16.4624Z" fill="white"/>
<path d="M21.0938 18.3328C21.0281 18.3563 20.6438 18.7078 20.2406 19.1109L19.5047 19.8469L19.1297 19.4859C18.7688 19.1344 18.7547 19.125 18.525 19.125C18.3188 19.125 18.2719 19.1438 18.1688 19.2703C18.0797 19.3734 18.0469 19.4672 18.0469 19.6078C18.0469 19.7953 18.0703 19.8234 18.6703 20.4234C19.2797 21.0328 19.2984 21.0469 19.5 21.0469C19.7063 21.0469 19.7063 21.0469 20.7281 20.0297C21.7453 19.0125 21.75 19.0078 21.75 18.8063C21.75 18.5438 21.6844 18.4313 21.4922 18.3469C21.3094 18.2719 21.2578 18.2719 21.0938 18.3328Z" fill="white"/>
<path d="M1.99688 5.74687C1.89844 5.84531 1.875 5.91562 1.875 6.09375C1.875 6.40312 2.03438 6.5625 2.34375 6.5625C2.65313 6.5625 2.8125 6.40312 2.8125 6.09375C2.8125 5.78437 2.65313 5.625 2.34375 5.625C2.16563 5.625 2.09531 5.64844 1.99688 5.74687Z" fill="white"/>
<path d="M9.38927 21.2578C9.23927 21.3656 9.16895 21.6187 9.23458 21.8203C9.30489 22.0359 9.44083 22.125 9.69395 22.125C9.85802 22.125 9.92364 22.0969 10.0361 21.9891C10.3408 21.6844 10.1299 21.1875 9.69395 21.1875C9.58145 21.1875 9.44552 21.2203 9.38927 21.2578Z" fill="white"/>
</g>
<defs>
<clipPath id="clip0_4942_191239">
<rect width="24" height="24" fill="white"/>
</clipPath>
</defs>
</svg>
