<svg width="17" height="17" viewBox="0 0 17 17" fill="none" xmlns="http://www.w3.org/2000/svg">
<g clip-path="url(#clip0_53_8037)">
<path d="M6.18831 11.1367L6.65772 11.7947C7.19923 12.5512 7.7465 13.3035 8.2805 14.0659C8.79105 14.7943 8.46764 15.7038 7.6098 15.9859C7.03466 16.1753 6.40377 15.9582 6.02506 15.4318C5.28004 14.3957 4.53663 13.3586 3.79485 12.3203C3.75812 12.2691 3.71963 12.2188 3.67805 12.1631C3.34004 12.3618 2.98611 12.48 2.59546 12.4909C2.29827 12.4992 2.00241 12.4501 1.72586 12.3467C1.44932 12.2433 1.19787 12.0876 0.98681 11.8893C0.775751 11.6909 0.609494 11.4539 0.498151 11.1928C0.386808 10.9316 0.332706 10.6517 0.339136 10.3701C0.359044 9.68527 0.679796 9.14964 1.26909 8.75819C1.70355 8.47151 2.14817 8.19866 2.58086 7.91031C2.68315 7.84339 2.76692 7.75412 2.82507 7.65004C3.67156 6.03783 4.51362 4.42352 5.35126 2.80713C5.55433 2.41693 5.89765 2.21449 6.34228 2.16504C6.90326 2.10259 7.40938 2.2782 7.89073 2.52464C8.76893 2.97393 9.48033 3.61099 10.1072 4.33565C11.0257 5.39686 11.7442 6.5641 12.1185 7.89815C12.2768 8.46229 12.36 9.03606 12.233 9.61905C12.1684 9.91579 12.0432 10.1865 11.815 10.4053C11.5975 10.6171 11.3039 10.7438 10.9925 10.7603C9.43653 10.8731 7.88055 10.9933 6.32502 11.1115C6.29007 11.1161 6.25335 11.1254 6.18831 11.1367ZM5.71272 3.99449C5.75696 4.23758 5.78704 4.54772 5.87508 4.84153C6.42545 6.68565 7.51202 8.20411 9.06888 9.41955C9.50024 9.75485 9.98026 10.0218 10.5386 10.1404C10.8337 10.2029 11.0695 10.1115 11.2779 9.92543C11.4473 9.77245 11.5336 9.57463 11.5761 9.36004C11.6587 8.92052 11.6288 8.46864 11.4889 8.04233C10.9005 6.16259 9.77542 4.62316 8.14733 3.41569C7.76774 3.13404 7.34656 2.91568 6.87052 2.81006C6.27768 2.67804 5.85827 2.94041 5.75784 3.50999C5.73351 3.64872 5.73086 3.79038 5.71272 3.99449ZM9.18347 10.2813C7.10412 8.8483 5.75961 6.97232 5.12961 4.62819C5.11501 4.65125 5.10174 4.67011 5.09245 4.68645C4.53914 5.7552 3.98508 6.82381 3.43029 7.89229C3.38605 7.97946 3.40862 8.03479 3.45817 8.10394C4.01207 8.87512 4.57128 9.64714 5.11811 10.4254C5.20438 10.5482 5.29154 10.5805 5.44063 10.5675C6.10426 10.5097 6.77098 10.4644 7.43637 10.4145L9.18347 10.2813ZM2.91709 8.4472C2.48043 8.72885 2.04863 8.99834 1.62701 9.28124C0.931973 9.74898 0.791727 10.5688 1.28192 11.2452C1.76858 11.9137 2.62156 12.0835 3.32854 11.6455C3.72052 11.4028 4.10454 11.148 4.49165 10.8982C4.53147 10.8722 4.56952 10.8437 4.61287 10.8144L2.91709 8.4472ZM4.22178 11.8203C4.416 12.0906 4.59871 12.345 4.78099 12.5998C5.3815 13.4381 5.982 14.2763 6.58251 15.1145C6.77098 15.3769 7.05014 15.488 7.33461 15.4213C7.82924 15.3061 8.01903 14.7981 7.71907 14.3777C6.99086 13.3568 6.26102 12.3369 5.52956 11.3182C5.43178 11.1815 5.28534 11.1425 5.13935 11.2343C4.83585 11.4196 4.53766 11.617 4.22178 11.8203Z" fill="white"/>
<path d="M12.8794 4.4032C12.6715 4.4032 12.5649 4.33237 12.51 4.19658C12.4552 4.06078 12.51 3.92289 12.6547 3.83152C12.975 3.62867 13.2984 3.43043 13.6205 3.23009C14.0299 2.97526 14.4393 2.72044 14.8486 2.46562C15.053 2.33988 15.2442 2.35832 15.3583 2.51423C15.4724 2.67015 15.4207 2.85917 15.211 2.9891C14.4981 3.43308 13.7846 3.87595 13.0706 4.3177C13.0096 4.35147 12.9457 4.38008 12.8794 4.4032Z" fill="white"/>
<path d="M13.4225 5.83861L14.794 6.07164C15.2006 6.1408 15.6067 6.21163 16.0142 6.27827C16.2278 6.31347 16.3606 6.45262 16.3354 6.6253C16.3079 6.81432 16.1279 6.9279 15.904 6.89018C15.1076 6.75578 14.3113 6.61971 13.515 6.48196C13.4389 6.46897 13.3619 6.45891 13.288 6.44005C13.1163 6.39394 13.0146 6.25061 13.0407 6.09972C13.0677 5.93249 13.2097 5.82813 13.4225 5.83861Z" fill="white"/>
<path d="M11.7556 0.383286C11.6884 1.00582 11.621 1.62821 11.5534 2.25046C11.5371 2.40092 11.5225 2.55138 11.5026 2.70143C11.4773 2.89213 11.3322 3.00487 11.1407 2.98685C10.9637 2.9705 10.8407 2.83094 10.8602 2.64443C10.9398 1.87102 11.0228 1.09816 11.1093 0.325867C11.1129 0.285252 11.1253 0.245776 11.1457 0.209895C11.1661 0.174014 11.1941 0.142495 11.2279 0.117297C11.2617 0.0920992 11.3007 0.0737619 11.3423 0.0634252C11.3839 0.0530886 11.4273 0.0509736 11.4698 0.057212C11.5529 0.0656935 11.6292 0.104484 11.6825 0.165358C11.7359 0.226232 11.7621 0.3044 11.7556 0.383286Z" fill="white"/>
<path d="M8.07922 5.17692C8.44849 5.1721 8.81008 5.27704 9.11314 5.47699C9.4162 5.67694 9.64549 5.96184 9.76878 6.29163C9.89206 6.62143 9.90314 6.97953 9.80046 7.3156C9.69778 7.65168 9.48649 7.94881 9.19632 8.16523C9.13782 8.21246 9.07144 8.25014 8.99988 8.27672C8.92667 8.29739 8.8481 8.29284 8.7781 8.26388C8.70809 8.23492 8.65116 8.18342 8.6174 8.1185C8.58364 8.05358 8.57523 7.97944 8.59365 7.90921C8.61208 7.83897 8.65615 7.77719 8.71806 7.7348C8.98086 7.54619 9.15606 7.31065 9.1972 6.99673C9.25206 6.57761 9.0981 6.23226 8.73488 5.99084C8.37165 5.74943 7.9779 5.73267 7.57707 5.91582C7.52752 5.93845 7.48284 5.96989 7.43329 5.99294C7.35966 6.03048 7.27358 6.03966 7.19299 6.01858C7.11239 5.9975 7.04348 5.94778 7.00061 5.87978C6.95847 5.81154 6.94527 5.73069 6.96367 5.65358C6.98206 5.57648 7.03069 5.50887 7.09971 5.46443C7.34436 5.29092 7.73413 5.17692 8.07922 5.17692Z" fill="white"/>
</g>
<defs>
<clipPath id="clip0_53_8037">
<rect width="16" height="16.8889" fill="white" transform="translate(0.339966 0.0556641)"/>
</clipPath>
</defs>
</svg>
