<svg width="25" height="25" viewBox="0 0 25 25" fill="none" xmlns="http://www.w3.org/2000/svg">
<path d="M12.249 2.83193C10.674 3.746 9.33809 4.52881 9.28652 4.57568C9.19746 4.66006 9.19277 4.71631 9.19277 6.76475C9.19277 8.79443 9.19746 8.86943 9.28652 8.9585C9.41309 9.08506 9.58652 9.11787 9.73652 9.04287C9.98027 8.93037 9.98965 8.87881 9.98965 7.14912V5.546L10.6225 5.90693L11.2506 6.26318L11.2553 7.29912C11.2553 8.21787 11.2646 8.34912 11.3396 8.43818C11.3818 8.48975 11.785 8.74756 12.2303 9.00537C13.0975 9.50693 13.2568 9.55381 13.4631 9.38506C13.5709 9.296 13.5756 9.26787 13.599 8.471L13.6225 7.646L14.2459 8.00225L14.8646 8.35381V11.1663C14.8646 12.7085 14.8506 13.9741 14.8365 13.9741C14.8178 13.9741 13.9928 13.5054 12.999 12.9288L11.1896 11.8882L11.6725 11.8647C12.1084 11.8413 12.1646 11.8319 12.2443 11.7288C12.3568 11.5882 12.3568 11.3444 12.2443 11.2038L12.1553 11.0913L9.0334 11.0772L5.91152 11.0679L5.79434 11.1804C5.63496 11.3397 5.63496 11.5929 5.79434 11.7476L5.90684 11.8647H7.7209H9.53496L12.3381 13.4819C14.3068 14.621 15.1787 15.0991 15.2771 15.0991C15.4646 15.0991 21.2303 11.7757 21.3193 11.621C21.4037 11.4663 21.4084 4.81475 21.3193 4.65068C21.2818 4.57568 20.3303 4.00381 18.3568 2.86006C16.0693 1.53818 15.4178 1.18193 15.2865 1.17725C15.1553 1.17725 14.5646 1.50068 12.249 2.83193ZM15.9334 2.396L16.5428 2.74756L16.4209 2.82256C16.135 3.00068 11.7287 5.53662 11.6865 5.546C11.6068 5.56943 10.4115 4.86162 10.4537 4.81943C10.524 4.74912 15.2631 2.021 15.2959 2.03506C15.31 2.03975 15.6006 2.20381 15.9334 2.396ZM17.7428 3.44131L18.0896 3.64287L15.6475 5.05381L13.2006 6.46475L12.9381 6.31943C12.399 6.01006 12.174 6.20225 14.8975 4.63193C16.2334 3.86787 17.3396 3.23975 17.3584 3.23975C17.3818 3.23975 17.5553 3.32881 17.7428 3.44131ZM19.5146 4.46318C19.8287 4.646 20.1053 4.81006 20.124 4.82412C20.1475 4.85225 15.5396 7.54287 15.324 7.62256C15.2771 7.64131 15.0381 7.52881 14.6678 7.31787C14.3537 7.13037 14.0771 6.96631 14.0584 6.95225C14.0256 6.91943 18.7787 4.13975 18.8818 4.13506C18.91 4.13037 19.1959 4.28037 19.5146 4.46318ZM20.5834 8.3585V11.1851L18.2256 12.5397C16.9318 13.2897 15.8256 13.9272 15.7693 13.9647L15.6615 14.0304V11.2038V8.37256L18.1131 6.95693C19.4584 6.17881 20.5646 5.54131 20.574 5.54131C20.5787 5.53662 20.5834 6.80693 20.5834 8.3585ZM12.4271 6.94756C12.61 7.05537 12.774 7.16787 12.7834 7.196C12.7975 7.22881 12.7975 7.50537 12.7928 7.81943L12.7787 8.38662L12.4178 8.17568L12.0521 7.96475V7.36006C12.0521 7.02725 12.0615 6.75537 12.0709 6.75537C12.0803 6.75537 12.2443 6.84443 12.4271 6.94756Z" fill="white"/>
<path d="M7.41172 9.521C7.28515 9.64756 7.25234 9.821 7.32734 9.971C7.44453 10.2194 7.47734 10.2241 9.42734 10.2241C11.3727 10.2241 11.4102 10.2194 11.5273 9.97568C11.6023 9.81631 11.532 9.54443 11.3961 9.47412C11.3398 9.446 10.5758 9.42725 9.40859 9.42725C7.57578 9.42725 7.50078 9.43193 7.41172 9.521Z" fill="white"/>
<path d="M8.64443 14.3726C8.5085 14.4101 8.33037 14.471 8.24131 14.5085C8.11475 14.5601 5.40537 16.1022 4.80068 16.4679L4.65068 16.5569L4.46318 16.2335C4.26162 15.8866 4.08818 15.7647 3.88662 15.8257C3.75537 15.8679 1.37412 17.2366 1.26162 17.3397C1.20537 17.3866 1.17725 17.4804 1.17725 17.6022C1.17725 17.7897 1.25693 17.8929 3.52568 20.6069C4.81943 22.1538 5.90225 23.4335 5.93037 23.4522C6.09443 23.5601 6.32412 23.4804 7.01318 23.0866C7.82881 22.6179 7.86631 22.5897 7.90381 22.4069C7.92725 22.2991 7.89443 22.1913 7.74443 21.9241L7.55225 21.5772L7.91787 21.3663C8.43818 21.0663 8.61162 21.0007 8.98193 20.9726C9.28662 20.9538 9.43662 20.9866 11.1616 21.4507C14.6116 22.3788 14.4007 22.3319 14.9351 22.3038C15.2022 22.2944 15.5069 22.2476 15.6429 22.2007C15.9663 22.0929 22.9319 18.0663 23.1382 17.8694C23.3913 17.6351 23.4897 17.4007 23.4897 17.0585C23.4851 16.6741 23.3726 16.4257 23.0538 16.1163C22.4866 15.5632 21.5351 15.3382 20.8226 15.5913C20.7147 15.6288 19.7913 16.1397 18.7694 16.7304C16.8101 17.8601 16.5991 17.9772 16.3132 18.0757L16.1397 18.1366L16.1819 17.9913C16.2897 17.6116 16.2054 17.021 15.9804 16.5757C15.8444 16.3085 15.4554 15.9241 15.2257 15.8257C15.0616 15.7601 10.1772 14.4429 9.76475 14.3538C9.43193 14.2835 8.94443 14.2929 8.64443 14.3726ZM12.146 15.8069C13.6038 16.196 14.8507 16.5476 14.921 16.5804C15.3101 16.7819 15.5444 17.4991 15.3616 17.9351C15.2819 18.1179 15.1647 18.1929 14.9585 18.1929C14.8788 18.1929 14.1804 18.0241 13.4116 17.8179C12.0382 17.4522 11.8554 17.4147 11.7007 17.471C11.4944 17.5507 11.4476 17.9538 11.6257 18.1179C11.6679 18.1601 12.3804 18.3757 13.2054 18.6007C14.621 18.9851 14.7288 19.0038 15.2726 19.0272C15.7882 19.046 15.8913 19.0319 16.2757 18.9241C16.8288 18.7647 17.1897 18.5819 19.1351 17.4522C21.2866 16.2101 21.1085 16.2944 21.4976 16.2991C21.9147 16.3038 22.2476 16.4397 22.5054 16.721C22.7257 16.9601 22.7491 17.1382 22.5897 17.2882C22.4351 17.4241 15.7319 21.2866 15.4272 21.4132C14.9304 21.6194 14.8085 21.596 12.0569 20.8601C9.34756 20.1335 9.1085 20.0913 8.52256 20.2272C8.19443 20.3022 7.90381 20.4335 7.44443 20.7101C7.28975 20.8038 7.15381 20.8601 7.13037 20.8366C7.07881 20.7804 5.06787 17.2882 5.06787 17.2554C5.06787 17.2413 5.31631 17.0913 5.621 16.9226C5.921 16.7491 6.70381 16.2991 7.36006 15.9241C8.01631 15.5444 8.64912 15.2069 8.76631 15.1741C9.21162 15.0335 9.35225 15.0616 12.146 15.8069ZM5.40537 19.4772C6.24912 20.9444 6.94287 22.1585 6.94287 22.1726C6.94287 22.1913 6.87256 22.2429 6.79287 22.2851C6.7085 22.3226 6.54912 22.4116 6.44131 22.4772L6.24912 22.5991L4.23818 20.1991C3.13662 18.8772 2.22725 17.7757 2.21787 17.7476C2.20381 17.696 3.75068 16.7819 3.821 16.8007C3.84443 16.8101 4.55693 18.0147 5.40537 19.4772Z" fill="white"/>
</svg>
