<svg width="45" height="45" viewBox="0 0 45 45" fill="none" xmlns="http://www.w3.org/2000/svg">
<path d="M4 7.8042V19.0542H15.25" stroke="#016DEA" stroke-linecap="round" stroke-linejoin="round"/>
<path d="M8.70625 28.4293C9.92199 31.88 12.2263 34.8421 15.2719 36.8694C18.3175 38.8966 21.9394 39.8791 25.592 39.6689C29.2445 39.4587 32.7298 38.0671 35.5227 35.7038C38.3156 33.3406 40.2649 30.1336 41.0767 26.5662C41.8885 22.9988 41.5189 19.2642 40.0237 15.9251C38.5284 12.586 35.9885 9.82328 32.7866 8.05322C29.5846 6.28316 25.8942 5.60165 22.2713 6.11138C18.6483 6.6211 15.2892 8.29445 12.7 10.8793L4 19.0543" stroke="#016DEA" stroke-linecap="round" stroke-linejoin="round"/>
<path d="M18.957 20.8258V18.825H22.7601V28.0112H20.3162V20.8258H18.957Z" fill="#016DEA"/>
<path d="M24.3661 23.2923C24.3661 21.8493 24.6681 20.7126 25.2722 19.882C25.8855 19.0515 26.8694 18.6362 28.2241 18.6362C29.5787 18.6362 30.5581 19.0515 31.1622 19.882C31.7754 20.7126 32.082 21.8493 32.082 23.2923C32.082 24.752 31.7754 25.8971 31.1622 26.7277C30.5581 27.5582 29.5787 27.9735 28.2241 27.9735C26.8694 27.9735 25.8855 27.5582 25.2722 26.7277C24.6681 25.8971 24.3661 24.752 24.3661 23.2923ZM29.7755 23.2923C29.7755 22.445 29.6748 21.7948 29.4734 21.3418C29.2721 20.8804 28.8556 20.6497 28.2241 20.6497C27.5925 20.6497 27.1761 20.8804 26.9747 21.3418C26.7733 21.7948 26.6726 22.445 26.6726 23.2923C26.6726 23.8627 26.7093 24.3367 26.7825 24.7142C26.8557 25.0834 27.0021 25.3854 27.2218 25.6203C27.4506 25.8468 27.7847 25.9601 28.2241 25.9601C28.6634 25.9601 28.9929 25.8468 29.2126 25.6203C29.4414 25.3854 29.5924 25.0834 29.6657 24.7142C29.7389 24.3367 29.7755 23.8627 29.7755 23.2923Z" fill="#016DEA"/>
<path d="M34.0229 28.3462C33.7149 28.3462 33.4389 28.2962 33.1949 28.1962C32.9509 28.0962 32.7549 27.9482 32.6069 27.7522C32.4629 27.5562 32.3869 27.3202 32.3789 27.0442H33.4709C33.4869 27.2002 33.5409 27.3202 33.6329 27.4042C33.7249 27.4842 33.8449 27.5242 33.9929 27.5242C34.1449 27.5242 34.2649 27.4902 34.3529 27.4222C34.4409 27.3502 34.4849 27.2522 34.4849 27.1282C34.4849 27.0242 34.4489 26.9382 34.3769 26.8702C34.3089 26.8022 34.2229 26.7462 34.1189 26.7022C34.0189 26.6582 33.8749 26.6082 33.6869 26.5522C33.4149 26.4682 33.1929 26.3842 33.0209 26.3002C32.8489 26.2162 32.7009 26.0922 32.5769 25.9282C32.4529 25.7642 32.3909 25.5502 32.3909 25.2862C32.3909 24.8942 32.5329 24.5882 32.8169 24.3682C33.1009 24.1442 33.4709 24.0322 33.9269 24.0322C34.3909 24.0322 34.7649 24.1442 35.0489 24.3682C35.3329 24.5882 35.4849 24.8962 35.5049 25.2922H34.3949C34.3869 25.1562 34.3369 25.0502 34.2449 24.9742C34.1529 24.8942 34.0349 24.8542 33.8909 24.8542C33.7669 24.8542 33.6669 24.8882 33.5909 24.9562C33.5149 25.0202 33.4769 25.1142 33.4769 25.2382C33.4769 25.3742 33.5409 25.4802 33.6689 25.5562C33.7969 25.6322 33.9969 25.7142 34.2689 25.8022C34.5409 25.8942 34.7609 25.9822 34.9289 26.0662C35.1009 26.1502 35.2489 26.2722 35.3729 26.4322C35.4969 26.5922 35.5589 26.7982 35.5589 27.0502C35.5589 27.2902 35.4969 27.5082 35.3729 27.7042C35.2529 27.9002 35.0769 28.0562 34.8449 28.1722C34.6129 28.2882 34.3389 28.3462 34.0229 28.3462Z" fill="#016DEA"/>
</svg>
