<svg width="17" height="17" viewBox="0 0 17 17" fill="none" xmlns="http://www.w3.org/2000/svg">
<path d="M7.79519 1.57161C7.40144 1.71223 7.14207 1.91536 6.72019 2.41848C6.47644 2.70598 6.35457 2.78098 6.12332 2.78098C6.01082 2.78098 5.79207 2.74661 5.62019 2.69973C4.86082 2.49973 4.19519 2.61536 3.88894 3.00286C3.61082 3.35286 3.49519 3.68411 3.45144 4.22473C3.43582 4.42473 3.40144 4.67786 3.37019 4.78098C3.32644 4.94348 3.29519 4.99036 3.18894 5.06848C3.02332 5.19036 2.87019 5.26848 2.55457 5.39348C2.11394 5.56536 1.72332 5.89973 1.53894 6.25911C1.46082 6.41536 1.45457 6.89036 1.52957 7.17161C1.58269 7.37473 1.72644 7.67474 1.84207 7.82474C1.88269 7.87786 1.96394 8.02161 2.02019 8.14036C2.19207 8.50599 2.15144 8.72474 1.80144 9.26224C1.57332 9.60911 1.47957 9.92161 1.47644 10.3341C1.47644 10.6904 1.50457 10.7685 1.75457 11.0716C1.98894 11.3529 2.20144 11.4904 2.76394 11.7185C2.89207 11.7685 3.06707 11.8654 3.15457 11.931C3.28582 12.031 3.31707 12.0747 3.36707 12.2341C3.39832 12.3372 3.43582 12.5904 3.45144 12.7966C3.48269 13.231 3.55769 13.4966 3.72332 13.7747C3.99207 14.2279 4.31394 14.3904 4.93582 14.3872C5.21082 14.3872 5.34207 14.3685 5.58894 14.3029C5.78269 14.2497 5.97332 14.2185 6.11082 14.2185H6.32644L6.56707 14.4654C6.70144 14.5997 6.91082 14.8122 7.02957 14.9404C7.18269 15.1029 7.31394 15.206 7.46707 15.2872C7.89519 15.5091 8.18269 15.5497 8.52332 15.4341C8.92019 15.3029 9.19519 15.0872 9.62019 14.581C9.86394 14.2935 9.98582 14.2185 10.2171 14.2185C10.3327 14.2185 10.5421 14.2529 10.7202 14.3029C11.2858 14.456 11.9296 14.406 12.2639 14.181C12.4139 14.0779 12.6764 13.681 12.7608 13.4216C12.8046 13.2841 12.8421 13.0622 12.8608 12.8279C12.8764 12.6216 12.9171 12.3591 12.9514 12.2435C13.0077 12.0622 13.0327 12.0216 13.1483 11.9435C13.3233 11.8216 13.4514 11.7591 13.7546 11.6372C14.1764 11.4716 14.4702 11.2341 14.7202 10.8591C14.8108 10.7247 14.8327 10.656 14.8483 10.4779C14.8827 10.0685 14.7764 9.68411 14.5077 9.24661C14.2921 8.89036 14.1921 8.61536 14.2139 8.44974C14.2358 8.27786 14.3452 8.03723 14.5264 7.75598C14.7796 7.36848 14.8577 7.10286 14.8608 6.64661C14.8608 6.30598 14.8296 6.22473 14.5858 5.93098C14.3546 5.65286 14.1171 5.49348 13.6514 5.31536C13.5108 5.25911 13.3108 5.16223 13.2108 5.09661C13.0358 4.98411 13.0202 4.96536 12.9671 4.77786C12.9358 4.66848 12.9014 4.41536 12.8858 4.21848C12.8577 3.83411 12.8046 3.60911 12.6796 3.35911C12.5702 3.14348 12.3421 2.85911 12.2389 2.81223C11.9952 2.69973 11.7889 2.64973 11.4952 2.63411C11.2202 2.61848 11.1421 2.62786 10.8546 2.69973C10.6764 2.74661 10.4233 2.79348 10.2952 2.80286C10.0733 2.81848 10.0546 2.81536 9.93582 2.72786C9.86707 2.67786 9.74207 2.55598 9.65457 2.45598C9.14207 1.86223 8.96394 1.72161 8.55457 1.57786C8.28269 1.48098 8.06082 1.48098 7.79519 1.57161ZM8.73269 2.99661C9.18894 3.46223 9.35769 3.60286 9.63269 3.72786C9.76394 3.78723 9.83269 3.79661 10.2483 3.79661C10.6358 3.79661 10.7608 3.78411 10.9639 3.72473C11.1264 3.68098 11.3014 3.65598 11.4577 3.65598C11.6952 3.65598 11.7046 3.65911 11.7327 3.73723C11.7889 3.88098 11.8233 4.06536 11.8577 4.42161C11.9577 5.43411 12.2608 5.84973 13.1983 6.26223C13.5827 6.43098 13.8171 6.57473 13.8452 6.66223C13.8577 6.70599 13.8202 6.81223 13.7264 6.99661C13.6483 7.14349 13.5171 7.39973 13.4327 7.56223C13.1827 8.04036 13.1171 8.44349 13.2171 8.86848C13.2796 9.12474 13.3639 9.32474 13.5702 9.68099C13.7577 10.0091 13.8577 10.2279 13.8577 10.3122C13.8577 10.3997 13.7046 10.5029 13.1702 10.7622C12.5421 11.0654 12.2858 11.2716 12.1264 11.5997C11.9952 11.8622 11.9077 12.2216 11.8577 12.6872C11.8139 13.0966 11.7796 13.2341 11.6952 13.3185C11.6389 13.3747 11.6077 13.381 11.4452 13.3622C11.3421 13.3529 11.1296 13.3122 10.9702 13.2747C10.7421 13.2154 10.5983 13.2029 10.2327 13.2029H9.77957L9.51394 13.3435C9.27957 13.4654 9.18894 13.5404 8.76082 13.9747C8.32019 14.4216 8.26394 14.4685 8.16707 14.4685C8.07019 14.4685 8.01707 14.4247 7.60769 14.0029C7.13269 13.5122 6.87332 13.3154 6.59519 13.2341C6.39832 13.1747 5.95144 13.1747 5.62332 13.2341C5.05769 13.3404 4.77957 13.3779 4.71394 13.3622C4.60457 13.3341 4.53582 13.0997 4.47957 12.5529C4.37957 11.5654 4.06394 11.1404 3.12644 10.7279C2.74832 10.5622 2.52332 10.4247 2.49519 10.3372C2.48269 10.2935 2.52019 10.1872 2.61394 10.0029C2.69207 9.85599 2.82332 9.59974 2.90769 9.43724C3.15769 8.95911 3.22332 8.55598 3.12332 8.13099C3.06082 7.86536 2.96082 7.64349 2.72019 7.22161C2.48269 6.80911 2.44832 6.68411 2.53269 6.59036C2.56707 6.55286 2.83269 6.40598 3.12332 6.26223C3.80457 5.92786 4.05144 5.73411 4.21394 5.39973C4.34832 5.12473 4.43269 4.79036 4.47957 4.32786C4.52019 3.91536 4.55769 3.76848 4.64519 3.68098C4.70144 3.62473 4.73269 3.61848 4.89519 3.63723C4.99832 3.64661 5.21082 3.68723 5.37019 3.72473C5.60144 3.78411 5.74207 3.79661 6.10769 3.79661L6.56082 3.79348L6.82644 3.65598C7.06082 3.53411 7.14832 3.46223 7.57957 3.02473C8.02019 2.57786 8.07644 2.53098 8.17332 2.53098C8.27019 2.53098 8.32332 2.57473 8.73269 2.99661Z" fill="white"/>
<path d="M10.3734 6.48377C10.3578 6.49002 10.3015 6.50252 10.2484 6.51502C10.1796 6.53064 9.80152 6.88689 8.7859 7.89939L7.42027 9.26502L6.94215 8.79002C6.68277 8.53065 6.43277 8.30252 6.39214 8.28065C6.22339 8.19315 5.91714 8.25252 5.79214 8.39315C5.65464 8.5494 5.62027 8.8119 5.71089 8.9869C5.73902 9.0369 6.07339 9.39002 6.45777 9.77127C7.05152 10.3588 7.1734 10.4681 7.28902 10.4994C7.58277 10.5775 7.52652 10.6213 9.25777 8.89627C10.1234 8.03377 10.8515 7.2869 10.8796 7.2369C10.9765 7.05252 10.9234 6.75252 10.7765 6.62127C10.6703 6.52752 10.4609 6.45877 10.3734 6.48377Z" fill="white"/>
</svg>
