<svg width="14" height="14" viewBox="0 0 14 14" fill="none" xmlns="http://www.w3.org/2000/svg">
<path d="M5.309 0.687527C5.25588 0.740652 5.2465 0.790652 5.2465 1.00003V1.25003H4.01525C2.70588 1.25003 2.609 1.2594 2.55587 1.3969C2.54025 1.44378 2.52775 3.62815 2.52775 6.87814V12.2813H1.62775C0.793375 12.2813 0.7215 12.2844 0.674625 12.3375C0.599625 12.4219 0.605875 12.6031 0.687125 12.675C0.749625 12.7313 0.84025 12.7344 2.99962 12.7438L5.2465 12.75V13C5.2465 13.2938 5.2965 13.375 5.48088 13.375C5.54025 13.375 6.77462 13.2375 8.2215 13.0719L10.8559 12.7719L12.0465 12.7531C13.1621 12.7344 13.2434 12.7313 13.3059 12.675C13.3902 12.5969 13.3965 12.4063 13.3152 12.3344C13.2652 12.2875 13.1496 12.2813 12.3621 12.2813H11.4652V6.87814C11.4652 3.51877 11.4527 1.44378 11.434 1.39378C11.4152 1.34065 11.3684 1.30628 11.2871 1.28128C11.1621 1.2469 5.66525 0.625027 5.48088 0.625027C5.41213 0.625027 5.3465 0.650027 5.309 0.687527ZM8.34025 1.40628C9.72462 1.56253 10.8871 1.6969 10.9277 1.70315L10.9965 1.71878V7.00001V12.2813L10.9277 12.2969C10.8871 12.3031 10.3434 12.3688 9.71525 12.4375C9.08712 12.5094 7.959 12.6344 7.20587 12.7188C6.45275 12.8063 5.809 12.875 5.77463 12.875C5.71525 12.875 5.71525 12.7625 5.71525 7.00001C5.71525 1.42503 5.71838 1.12503 5.7715 1.12503C5.79963 1.12503 6.95587 1.25315 8.34025 1.40628ZM5.2465 1.9844V2.25002H4.51525C3.73088 2.25002 3.60587 2.26877 3.55587 2.3969C3.54025 2.44377 3.52775 4.43439 3.52775 7.37814V12.2813H3.26212H2.9965V7.00001V1.71878H4.1215H5.2465V1.9844ZM5.2465 7.50001V12.2813H4.6215H3.9965V7.50001V2.71877H4.6215H5.2465V7.50001Z" fill="#016DEA"/>
<path d="M6.33762 6.40606C5.95012 6.61231 5.85012 7.10605 6.13137 7.42793C6.40012 7.73418 6.87512 7.73418 7.14699 7.4248C7.42824 7.10293 7.32199 6.60293 6.93137 6.40293C6.77512 6.32481 6.49074 6.32481 6.33762 6.40606Z" fill="#016DEA"/>
</svg>
