<svg width="16" height="16" viewBox="0 0 16 16" fill="none" xmlns="http://www.w3.org/2000/svg">
<g clip-path="url(#clip0_4746_77077)">
<path d="M14.3915 13.8671L13.4708 3.49079C13.4542 3.28545 13.282 3.12979 13.0734 3.12979H11.1326C11.1293 1.40426 9.725 0 7.99947 0C6.27395 0 4.86969 1.40426 4.86637 3.12979H2.92558C2.72023 3.12979 2.54801 3.28545 2.52814 3.49079L1.60742 13.8671C1.60742 13.8804 1.60742 13.8903 1.60742 13.9035C1.60742 15.0594 2.67056 16 3.97546 16H12.0235C13.3284 16 14.3915 15.0594 14.3915 13.9035C14.3915 13.8903 14.3915 13.8804 14.3915 13.8671ZM7.99947 0.794866C9.28782 0.794866 10.3344 1.84144 10.3377 3.12979H5.66124C5.66455 1.84144 6.71113 0.794866 7.99947 0.794866ZM12.0235 15.2018H3.97546C3.11436 15.2018 2.41222 14.6289 2.40229 13.9168L3.28989 3.92465H4.86637V5.31898C4.86637 5.53757 5.04522 5.71641 5.26381 5.71641C5.4824 5.71641 5.66124 5.53757 5.66124 5.31898V3.92465H10.3377V5.31898C10.3377 5.53757 10.5166 5.71641 10.7351 5.71641C10.9537 5.71641 11.1326 5.53757 11.1326 5.31898V3.92465H12.7091L13.5967 13.9201C13.5867 14.6289 12.8846 15.2018 12.0235 15.2018Z" fill="#016DEA"/>
<path d="M8.45414 9.71727H7.54336C7.21217 9.71727 6.9439 9.449 6.9439 9.11781C6.9439 8.78661 7.21217 8.51834 7.54336 8.51834H9.14634C9.36493 8.51834 9.54377 8.3395 9.54377 8.12091C9.54377 7.90232 9.36493 7.72348 9.14634 7.72348H8.39784V7.17038C8.39784 6.95179 8.219 6.77295 8.00041 6.77295C7.78182 6.77295 7.60298 6.95179 7.60298 7.17038V7.72348H7.54667C6.7783 7.72348 6.15234 8.34943 6.15234 9.11781C6.15234 9.88618 6.7783 10.5121 7.54667 10.5121H8.45746C8.78865 10.5121 9.05692 10.7804 9.05692 11.1116C9.05692 11.4428 8.78865 11.7111 8.45746 11.7111H6.82467C6.60608 11.7111 6.42724 11.8899 6.42724 12.1085C6.42724 12.3271 6.60608 12.5059 6.82467 12.5059H7.60298V13.0723C7.60298 13.2909 7.78182 13.4697 8.00041 13.4697C8.219 13.4697 8.39784 13.2909 8.39784 13.0723V12.5059H8.46408C8.46739 12.5059 8.4707 12.5059 8.47402 12.5059C9.23576 12.496 9.84847 11.8733 9.84847 11.1116C9.84847 10.3432 9.22252 9.71727 8.45414 9.71727Z" fill="#016DEA"/>
</g>
<defs>
<clipPath id="clip0_4746_77077">
<rect width="16" height="16" fill="white"/>
</clipPath>
</defs>
</svg>
