<svg width="16" height="17" viewBox="0 0 16 17" fill="none" xmlns="http://www.w3.org/2000/svg">
<g clip-path="url(#clip0_53_8658)">
<path d="M3.17501 0.559565C3.12501 0.593939 3.05626 0.662689 3.02189 0.715815C2.96564 0.809565 2.96251 0.85644 2.97814 1.41581C2.98751 1.80956 3.01251 2.09706 3.04689 2.25019C3.18439 2.85644 3.43751 3.47206 3.74689 3.94707L3.90626 4.19082V4.92207V5.65332L3.54376 6.03769C1.40626 8.29082 0.321887 10.1533 0.0500122 12.0346C-0.0156128 12.4721 -0.0156128 13.2564 0.0500122 13.5939C0.325012 15.0471 1.49689 16.1971 2.96564 16.4533C3.35626 16.5221 9.14689 16.5221 9.53751 16.4533C9.95939 16.3814 10.5469 16.1533 10.8531 15.9439L10.9438 15.8814L11.2281 16.0502C11.6156 16.2752 12.125 16.4783 12.35 16.4939C12.5469 16.5096 12.7031 16.4658 13.125 16.2814C14.25 15.7877 15.1813 14.8283 15.6469 13.6877C15.7969 13.3127 15.9156 12.8877 15.9656 12.5189C15.9875 12.3721 16 11.6377 16 10.6346C16 9.12832 15.9969 8.98769 15.9469 8.90019C15.8563 8.75332 15.7313 8.69707 15.4063 8.65957C14.8406 8.59707 14.4281 8.31269 14.1438 7.78769C13.9406 7.41269 14.0563 7.43769 12.4063 7.43769C10.7719 7.43769 10.8656 7.42207 10.6906 7.75019L10.5906 7.93769L10.2781 7.54707C9.89064 7.05957 9.43126 6.53457 8.95626 6.03769L8.59376 5.65644V4.92207V4.19082L8.75314 3.94707C9.06251 3.47206 9.31876 2.85644 9.45314 2.25019C9.48751 2.10019 9.51251 1.80644 9.52189 1.42519C9.53751 0.893939 9.53439 0.822064 9.48439 0.728314C9.37814 0.534564 9.27814 0.500189 8.83439 0.500189C8.13751 0.500189 7.51876 0.678314 6.58751 1.14394L6.25314 1.30956L5.77501 1.07831C5.25939 0.828314 4.67501 0.618939 4.29376 0.54394C4.16251 0.522064 3.87814 0.500189 3.66251 0.500189C3.32501 0.500189 3.25314 0.509564 3.17501 0.559565ZM4.29689 1.54706C4.68126 1.65019 5.10626 1.82831 5.64689 2.10956C6.25314 2.42206 6.24689 2.42206 6.85314 2.10956C7.10314 1.97831 7.44689 1.81581 7.61564 1.74706C7.90314 1.63144 8.43126 1.46894 8.52814 1.46894C8.56251 1.46894 8.56876 1.51269 8.55314 1.69394C8.50939 2.19394 8.30314 2.80332 8.00939 3.28769L7.86251 3.53144H6.25001H4.63751L4.49064 3.28769C4.19689 2.80332 3.99064 2.19394 3.94689 1.69394C3.93126 1.51269 3.93751 1.46894 3.97189 1.46894C3.99689 1.46894 4.14376 1.50331 4.29689 1.54706ZM7.65626 4.93769V5.40644H6.25001H4.84376V4.93769V4.46894H6.25001H7.65626V4.93769ZM8.30626 6.77207C8.96564 7.46894 9.81251 8.47832 9.81251 8.56269C9.81251 8.59394 9.57189 8.64707 9.30939 8.67207C9.08751 8.69394 8.96251 8.75644 8.87189 8.89394C8.81564 8.98144 8.81251 9.07207 8.81251 10.6564C8.81251 12.4627 8.82189 12.6127 8.98439 13.1721C9.19376 13.8877 9.56876 14.5689 10.0438 15.0877L10.1656 15.2189L9.95626 15.3127C9.84064 15.3658 9.62501 15.4408 9.47501 15.4783C9.20314 15.5471 9.20001 15.5471 6.23439 15.5471H3.26564L2.95939 15.4627C1.97501 15.1908 1.25314 14.4627 1.02814 13.5127C0.912512 13.0252 0.959387 12.2189 1.14064 11.5408C1.53126 10.0752 2.48126 8.59707 4.20939 6.75644L4.60001 6.34394H6.25001H7.90001L8.30626 6.77207ZM13.4656 8.55332C13.5906 8.74082 13.8719 9.03144 14.0625 9.17519C14.2281 9.29707 14.625 9.48457 14.8594 9.54707L15.0688 9.60644L15.0531 10.9189C15.0375 12.3564 15.0188 12.5439 14.8438 13.0689C14.5156 14.0471 13.7938 14.8658 12.85 15.3314C12.4469 15.5314 12.3656 15.5314 11.9625 15.3314C11.0188 14.8658 10.2969 14.0471 9.96876 13.0689C9.79376 12.5439 9.77501 12.3564 9.75939 10.9189L9.74376 9.60644L9.95314 9.54707C10.1875 9.48457 10.5844 9.29707 10.75 9.17519C10.9406 9.03144 11.2219 8.74082 11.3469 8.55332L11.4719 8.37519H12.4063H13.3406L13.4656 8.55332Z" fill="white"/>
<path d="M6.00626 7.844C5.88126 7.92212 5.81251 8.07212 5.81251 8.27837C5.81251 8.42837 5.80939 8.43462 5.69689 8.47212C5.39064 8.569 5.07189 8.8565 4.92501 9.169C4.81251 9.4065 4.76251 9.7315 4.80314 9.97837C4.87501 10.4002 5.10626 10.694 5.55626 10.9315L5.81251 11.0659V11.9096V12.7502L5.72814 12.7315C5.67814 12.7221 5.54064 12.6565 5.41564 12.5909C5.06564 12.4002 4.83439 12.4346 4.70314 12.6877C4.59689 12.8909 4.67501 13.094 4.91564 13.2502C5.12189 13.3846 5.39064 13.494 5.62814 13.5409L5.81251 13.5752V13.7252C5.81251 13.8096 5.83126 13.9252 5.85626 13.9846C5.94689 14.1971 6.22501 14.2815 6.42814 14.1565C6.56564 14.0721 6.62501 13.944 6.62501 13.7252V13.5409L6.80939 13.4721C7.64689 13.1659 8.08126 12.1127 7.69376 11.319C7.53439 10.9909 7.14376 10.6752 6.75939 10.5596L6.62501 10.5221V9.88462C6.62501 9.53775 6.63439 9.25025 6.64689 9.25025C6.65939 9.25025 6.74689 9.30025 6.83439 9.36275C6.98439 9.46587 7.01564 9.47525 7.15626 9.46275C7.40939 9.43775 7.56251 9.2315 7.51564 8.9815C7.47814 8.769 7.06564 8.47212 6.74376 8.419L6.62501 8.39712V8.23775C6.62501 7.87525 6.29689 7.66587 6.00626 7.844ZM6.78439 11.4815C6.97501 11.6127 7.06876 11.8971 7.00314 12.144C6.96251 12.2971 6.82814 12.5002 6.71251 12.594L6.62501 12.6596V12.0346C6.62501 11.6877 6.63439 11.4065 6.65001 11.4065C6.66251 11.4065 6.72501 11.4409 6.78439 11.4815Z" fill="white"/>
<path d="M13.5344 10.6444C13.4719 10.6694 13.1094 11.0038 12.6875 11.4226L11.95 12.1569L11.6719 11.8726C11.3438 11.5444 11.275 11.5007 11.0688 11.5007C10.7219 11.5007 10.4969 11.8413 10.6375 12.1663C10.6594 12.2226 10.9188 12.5007 11.2094 12.7882C11.7031 13.2726 11.7438 13.3101 11.8813 13.3288C12.1406 13.3663 12.2094 13.3132 13.225 12.2944C14.2188 11.2913 14.2531 11.2444 14.2063 10.9882C14.1656 10.7788 13.9406 10.5913 13.7281 10.5944C13.6813 10.5976 13.5906 10.6194 13.5344 10.6444Z" fill="white"/>
</g>
<defs>
<clipPath id="clip0_53_8658">
<rect width="16" height="16" fill="white" transform="translate(0 0.5)"/>
</clipPath>
</defs>
</svg>
