<svg width="16" height="16" viewBox="0 0 16 16" fill="none" xmlns="http://www.w3.org/2000/svg">
<g clip-path="url(#clip0_9448_67333)">
<path d="M14 0.749463V0.999463H14.3031H14.6094L13.4313 2.17758L12.25 3.35883L11.1938 2.30258L10.1375 1.24946H10H9.8625L8.43125 2.67758L7 4.10883L6.19375 3.30258L5.3875 2.49946H5.25H5.10938L3.32813 4.28071L1.54688 6.06195L1.74375 6.2557L1.9375 6.45258L3.59375 4.79633L5.25 3.14008L6.05625 3.94633L6.8625 4.74945H7H7.1375L8.56875 3.32133L10 1.89009L11.0563 2.94633L12.1125 3.99946H12.25H12.3875L13.6938 2.69633L15 1.39009V1.69634V1.99946H15.25H15.5V1.31196C15.5 0.665088 15.4969 0.621338 15.4375 0.561964C15.3781 0.502588 15.3344 0.499464 14.6875 0.499464H14V0.749463Z" fill="#016DEA"/>
<path d="M11.8125 4.81196C11.75 4.87446 11.75 4.91508 11.75 6.87446C11.75 8.83383 11.75 8.87445 11.8125 8.93695C11.8719 8.99633 11.9156 8.99945 12.5 8.99945C13.0844 8.99945 13.1281 8.99633 13.1875 8.93695C13.25 8.87445 13.25 8.83383 13.25 6.87446C13.25 4.91508 13.25 4.87446 13.1875 4.81196C13.1281 4.75258 13.0844 4.74946 12.5 4.74946C11.9156 4.74946 11.8719 4.75258 11.8125 4.81196ZM12.75 6.87446V8.49945H12.5H12.25V6.87446V5.24946H12.5H12.75V6.87446Z" fill="#016DEA"/>
<path d="M7.3125 5.31196C7.25 5.37446 7.25 5.41508 7.25 7.12445C7.25 8.83383 7.25 8.87445 7.3125 8.93695C7.37188 8.99633 7.41563 8.99945 8 8.99945C8.58438 8.99945 8.62813 8.99633 8.6875 8.93695C8.75 8.87445 8.75 8.83383 8.75 7.12445C8.75 5.41508 8.75 5.37446 8.6875 5.31196C8.62813 5.25258 8.58438 5.24946 8 5.24946C7.41563 5.24946 7.37188 5.25258 7.3125 5.31196ZM8.25 7.12445V8.49945H8H7.75V7.12445V5.74946H8H8.25V7.12445Z" fill="#016DEA"/>
<path d="M9.5625 6.06196C9.50313 6.12133 9.5 6.16508 9.5 7.49945C9.5 8.83383 9.50313 8.87758 9.5625 8.93695C9.62188 8.99633 9.66563 8.99945 10.25 8.99945C10.8344 8.99945 10.8781 8.99633 10.9375 8.93695C10.9969 8.87758 11 8.83383 11 7.49945C11 6.16508 10.9969 6.12133 10.9375 6.06196C10.8781 6.00258 10.8344 5.99946 10.25 5.99946C9.66563 5.99946 9.62188 6.00258 9.5625 6.06196ZM10.5 7.49945V8.49945H10.25H10V7.49945V6.49946H10.25H10.5V7.49945Z" fill="#016DEA"/>
<path d="M5.0625 7.06195C5.00313 7.12133 5 7.16508 5 7.99945C5 8.83383 5.00313 8.87758 5.0625 8.93695C5.12188 8.99633 5.16563 8.99945 5.75 8.99945C6.33438 8.99945 6.37813 8.99633 6.4375 8.93695C6.49688 8.87758 6.5 8.83383 6.5 7.99945C6.5 7.16508 6.49688 7.12133 6.4375 7.06195C6.37813 7.00258 6.33438 6.99945 5.75 6.99945C5.16563 6.99945 5.12188 7.00258 5.0625 7.06195ZM6 7.99945V8.49945H5.75H5.5V7.99945V7.49945H5.75H6V7.99945Z" fill="#016DEA"/>
<path d="M14.1719 9.12444C14.0656 9.14007 13.7281 9.29632 13.1406 9.59319L12.2656 10.0369L12.1 9.87444C11.7875 9.57444 11.3062 9.42132 10.9 9.49007C10.7469 9.51819 10.4406 9.65882 9.51562 10.1213C8.8625 10.4494 8.28437 10.7244 8.22812 10.7338C8.05937 10.7651 7.88437 10.6932 7.06562 10.2588C6.21562 9.80569 5.9375 9.68694 5.53125 9.61194C5.19687 9.54632 4.59687 9.54632 4.29062 9.61194C3.96562 9.67757 3.58437 9.82132 3.32812 9.96819C3.2125 10.0369 3.1125 10.0901 3.10625 10.0838C3.1 10.0776 3.05937 9.90569 3.01562 9.69944C2.95 9.39944 2.92187 9.31507 2.85625 9.25569C2.8125 9.21819 2.75 9.18694 2.71562 9.18694C2.66875 9.18694 1.10312 9.51507 0.69375 9.60882C0.575 9.63694 0.5 9.73694 0.5 9.86819C0.5 10.0026 1.60937 15.3213 1.65625 15.4057C1.69062 15.4713 1.79062 15.5088 1.90625 15.5057C2.02812 15.5026 3.88437 15.0963 3.95625 15.0588C4.08125 14.9932 4.1 14.8932 4.04375 14.6057C4.01562 14.4588 4 14.3338 4.00937 14.3244C4.03125 14.3026 4.36562 14.2244 4.6875 14.1682C4.95625 14.1244 4.96562 14.1244 6.69062 14.3151C8.98437 14.5682 9.225 14.5619 9.8875 14.2276C10.0594 14.1401 14.4312 11.2338 15.1469 10.7307C15.4156 10.5401 15.5125 10.3432 15.4937 10.0182C15.4844 9.81194 15.4719 9.76819 15.3656 9.61507C15.1094 9.24319 14.6375 9.04944 14.1719 9.12444ZM14.6875 9.71819C14.9469 9.84944 15.05 10.1026 14.9 10.2401C14.7562 10.3682 9.89375 13.6119 9.65937 13.7338C9.35625 13.8932 9.05312 13.9682 8.7 13.9682C8.54687 13.9682 7.79062 13.8994 7.01562 13.8151C6.24375 13.7276 5.46562 13.6432 5.2875 13.6244C4.9375 13.5869 4.69687 13.6088 4.19375 13.7213C4.03437 13.7588 3.89375 13.7776 3.88437 13.7682C3.875 13.7588 3.72187 13.0651 3.54375 12.2276L3.22187 10.7026L3.32187 10.6182C3.4875 10.4744 4.02812 10.2244 4.3125 10.1557C4.67812 10.0713 5.1625 10.0713 5.54062 10.1588C5.82812 10.2276 5.95 10.2838 7.21875 10.9463C8.10625 11.4088 8.1875 11.4026 9.35937 10.8057C11.025 9.95257 10.8875 10.0151 11.1219 10.0151C11.3937 10.0151 11.6437 10.1307 11.7969 10.3338C11.925 10.4994 11.9375 10.6182 11.8375 10.7088C11.7812 10.7588 9.62812 12.0494 8.9375 12.4463C8.5625 12.6619 7.99687 12.7619 7.58125 12.6901C7.4625 12.6682 6.8125 12.5182 6.13437 12.3557C5.45312 12.1932 4.89375 12.0651 4.8875 12.0682C4.87812 12.0807 4.75 12.5744 4.75937 12.5776C4.7625 12.5807 5.37812 12.7276 6.125 12.9088L7.48437 13.2338L7.92187 13.2307C8.30312 13.2276 8.39687 13.2182 8.63437 13.1463C8.78437 13.0994 8.99687 13.0182 9.10312 12.9651C9.31875 12.8557 11.9094 11.3244 12.1156 11.1807C12.275 11.0744 12.4 10.8744 12.425 10.6838L12.4437 10.5463L13.2937 10.1151C13.7594 9.87757 14.1844 9.67132 14.2344 9.65569C14.3562 9.61819 14.5406 9.64319 14.6875 9.71819ZM2.99062 12.1932C3.26875 13.5213 3.49062 14.6119 3.48437 14.6213C3.46875 14.6338 2.3 14.8901 2.15937 14.9119L2.08437 14.9213L1.575 12.4994C1.29687 11.1682 1.06875 10.0776 1.07187 10.0744C1.09062 10.0651 2.39687 9.78694 2.4375 9.78382C2.475 9.78069 2.5875 10.2776 2.99062 12.1932Z" fill="#016DEA"/>
<path d="M1.81846 10.387C1.72784 10.4088 1.64659 10.437 1.63409 10.4463C1.61221 10.4682 1.68096 10.8463 1.71846 10.9057C1.74034 10.9401 1.78096 10.9401 1.94346 10.9088C2.27471 10.8463 2.24971 10.8776 2.19034 10.5994C2.13409 10.3245 2.11534 10.3151 1.81846 10.387Z" fill="#016DEA"/>
</g>
<defs>
<clipPath id="clip0_9448_67333">
<rect width="16" height="16" fill="white"/>
</clipPath>
</defs>
</svg>
