<svg width="16" height="17" viewBox="0 0 16 17" fill="none" xmlns="http://www.w3.org/2000/svg">
<path d="M13.8933 3.91366C13.5528 3.573 13.1485 3.30276 12.7036 3.11838C12.2586 2.93401 11.7817 2.83911 11.3 2.83911C10.8183 2.83911 10.3414 2.93401 9.89643 3.11838C9.45145 3.30276 9.04717 3.573 8.70666 3.91366L8 4.62033L7.29333 3.91366C6.60554 3.22587 5.67269 2.83947 4.7 2.83947C3.72731 2.83947 2.79446 3.22587 2.10666 3.91366C1.41887 4.60146 1.03247 5.53431 1.03247 6.50699C1.03247 7.47968 1.41887 8.41253 2.10666 9.10033L2.81333 9.80699L8 14.9937L13.1867 9.80699L13.8933 9.10033C14.234 8.75982 14.5042 8.35554 14.6886 7.91056C14.873 7.46559 14.9679 6.98865 14.9679 6.50699C14.9679 6.02534 14.873 5.5484 14.6886 5.10342C14.5042 4.65845 14.234 4.25417 13.8933 3.91366Z" stroke="white" stroke-width="1.33333" stroke-linecap="round" stroke-linejoin="round"/>
</svg>
