<svg width="29" height="29" viewBox="0 0 29 29" fill="none" xmlns="http://www.w3.org/2000/svg">
<g clip-path="url(#clip0_712_32197)">
<path d="M11.9997 19.6667C12.5574 19.6667 13.1026 19.5013 13.5664 19.1914C14.0301 18.8816 14.3916 18.4411 14.605 17.9258C14.8185 17.4106 14.8743 16.8435 14.7655 16.2965C14.6567 15.7495 14.3881 15.247 13.9937 14.8526C13.5993 14.4582 13.0969 14.1897 12.5498 14.0809C12.0028 13.972 11.4358 14.0279 10.9205 14.2413C10.4052 14.4548 9.96481 14.8162 9.65494 15.28C9.34508 15.7437 9.17969 16.2889 9.17969 16.8467C9.17969 17.5946 9.47679 18.3119 10.0056 18.8407C10.5345 19.3696 11.2518 19.6667 11.9997 19.6667ZM11.9997 15.0933C12.3465 15.0933 12.6855 15.1962 12.9738 15.3888C13.2621 15.5815 13.4869 15.8553 13.6196 16.1757C13.7523 16.4961 13.787 16.8486 13.7193 17.1887C13.6517 17.5288 13.4847 17.8413 13.2395 18.0865C12.9943 18.3317 12.6819 18.4987 12.3417 18.5663C12.0016 18.634 11.6491 18.5992 11.3287 18.4665C11.0083 18.3338 10.7345 18.1091 10.5418 17.8208C10.3492 17.5324 10.2464 17.1935 10.2464 16.8467C10.2464 16.3817 10.4311 15.9357 10.7599 15.6069C11.0887 15.2781 11.5347 15.0933 11.9997 15.0933Z" fill="#016DEA"/>
<path d="M14.6673 7.66668C14.6673 7.31305 14.5268 6.97392 14.2768 6.72387C14.0267 6.47382 13.6876 6.33334 13.334 6.33334H10.6673C10.3137 6.33334 9.97456 6.47382 9.72451 6.72387C9.47446 6.97392 9.33398 7.31305 9.33398 7.66668V12.3333H14.6673V7.66668ZM13.334 11H10.6673V7.66668H13.334V11Z" fill="#016DEA"/>
<path d="M17.3327 25V23.4667C17.3347 23.289 17.2732 23.1164 17.1594 22.98C16.5124 22.2592 15.7148 21.6897 14.823 21.3118C13.9312 20.9339 12.9672 20.7569 11.9994 20.7933C11.03 20.7594 10.065 20.9395 9.17315 21.3209C8.28129 21.7023 7.48446 22.2756 6.83937 23C6.72604 23.1367 6.66465 23.3091 6.66604 23.4867V25H7.73271V23.58C8.27971 23.0051 8.94357 22.5541 9.67956 22.2574C10.4156 21.9607 11.2066 21.8252 11.9994 21.86C12.7927 21.8261 13.584 21.9626 14.32 22.2605C15.056 22.5583 15.7196 23.0106 16.266 23.5867V25H17.3327Z" fill="#016DEA"/>
<path d="M18.6667 9H16V10.3333H18.6667V26.3333H5.33333V10.3333H8V9H5.33333C4.97971 9 4.64057 9.14048 4.39052 9.39052C4.14048 9.64057 4 9.97971 4 10.3333V26.3333C4 26.687 4.14048 27.0261 4.39052 27.2761C4.64057 27.5262 4.97971 27.6667 5.33333 27.6667H18.6667C19.0203 27.6667 19.3594 27.5262 19.6095 27.2761C19.8595 27.0261 20 26.687 20 26.3333V10.3333C20 9.97971 19.8595 9.64057 19.6095 9.39052C19.3594 9.14048 19.0203 9 18.6667 9Z" fill="#016DEA"/>
</g>
<circle cx="24" cy="5" r="5" fill="#0ACD5E"/>
<g clip-path="url(#clip1_712_32197)">
<path d="M25.959 3.75897L23.209 6.50897L21.959 5.25897" stroke="white" stroke-linecap="round" stroke-linejoin="round"/>
</g>
<defs>
<clipPath id="clip0_712_32197">
<rect width="24" height="24" fill="white" transform="translate(0 5)"/>
</clipPath>
<clipPath id="clip1_712_32197">
<rect width="6" height="6" fill="white" transform="translate(20.959 2.25897)"/>
</clipPath>
</defs>
</svg>
