<svg width="24" height="24" viewBox="0 0 24 24" fill="none" xmlns="http://www.w3.org/2000/svg">
<g clip-path="url(#clip0_5020_183227)">
<path d="M10.8984 0.0796871C10.4812 0.299999 10.3781 0.539062 10.3406 1.38281C10.3266 1.71562 10.2797 2.19375 10.2422 2.4375C10.1531 2.98125 9.92344 3.87187 9.80625 4.13906C9.68906 4.39219 9.45469 4.71094 9.31406 4.80469C9.21094 4.87031 9.1875 4.86562 8.97187 4.74844L8.74219 4.61719L7.65937 4.60312C6.97031 4.59375 6.50156 4.60781 6.37969 4.64062C6.10312 4.71562 5.8125 4.95937 5.6625 5.24531L5.53125 5.49375V7.63594V9.77812L5.65312 10.0219C5.71875 10.1578 5.85 10.3266 5.94375 10.4062C6.24844 10.6547 6.42656 10.6875 7.54219 10.6875C8.1 10.6875 8.63437 10.6641 8.72812 10.6406C8.82656 10.6125 8.99531 10.5187 9.1125 10.4297C9.31406 10.2797 9.32344 10.275 9.39844 10.3594C9.44062 10.4062 9.58594 10.4953 9.71719 10.5562L9.96094 10.6641H12.7734C15.4734 10.6641 15.5953 10.6594 15.7734 10.5703C16.0359 10.4437 16.2937 10.1578 16.3781 9.90469C16.4672 9.64687 16.4719 9.22031 16.3922 9.02812C16.3359 8.89687 16.3406 8.87812 16.5328 8.68594C16.8469 8.3625 16.9453 7.93125 16.8094 7.47656C16.7391 7.25625 16.7391 7.25625 16.875 7.14375C17.1047 6.94687 17.25 6.59062 17.25 6.225C17.25 5.92031 17.1281 5.53125 17.0109 5.45625C16.9875 5.44219 17.0062 5.37656 17.0531 5.30625C17.2078 5.07656 17.2547 4.90781 17.2547 4.60312C17.2547 4.06406 16.9453 3.61406 16.4578 3.44531C16.2891 3.38906 15.9703 3.375 14.7328 3.375H13.2187V2.75156C13.2187 2.01562 13.1297 1.57969 12.8578 1.03125C12.6422 0.590625 12.2484 0.1875 11.925 0.0749998C11.6391 -0.0234375 11.0859 -0.0234375 10.8984 0.0796871ZM11.7047 0.9375C11.8969 1.05469 12.0703 1.31719 12.225 1.72031C12.3328 2.01094 12.3469 2.12344 12.3703 3.00937C12.3984 3.95156 12.4031 3.97969 12.5109 4.09687L12.6234 4.21875H14.3531C15.5812 4.21875 16.1156 4.23281 16.1859 4.275C16.4203 4.39687 16.4719 4.63594 16.3078 4.84687C16.2141 4.96875 16.2094 4.96875 15.5484 4.96875C14.7609 4.96875 14.5594 5.01094 14.4609 5.20312C14.3766 5.36719 14.3719 5.44219 14.4469 5.60156C14.5453 5.82187 14.6953 5.85938 15.4687 5.85938C16.1578 5.85938 16.1812 5.86406 16.2891 5.97656C16.3547 6.0375 16.4062 6.14062 16.4062 6.20625C16.4062 6.55312 16.2609 6.60938 15.375 6.60938H14.6625L14.5266 6.74531C14.3578 6.91875 14.3484 7.11562 14.5031 7.29844C14.6156 7.425 14.6297 7.42969 15.2062 7.45312C15.7125 7.47187 15.8062 7.49062 15.8859 7.57031C16.0453 7.72969 16.0547 7.88906 15.9141 8.05312L15.7875 8.20312H15.3094C15.0422 8.20312 14.7609 8.22656 14.6766 8.25469C14.5312 8.30625 14.3906 8.49844 14.3906 8.64844C14.3906 8.79844 14.5312 8.99062 14.6766 9.04219C14.7609 9.07031 14.9531 9.09375 15.1031 9.09375C15.3328 9.09375 15.3984 9.1125 15.4922 9.21094C15.6516 9.36562 15.6422 9.53906 15.4734 9.70781L15.3328 9.84375L12.7359 9.83437L10.1437 9.82031L9.97031 9.70312C9.87656 9.64219 9.75937 9.51094 9.70781 9.41719C9.61406 9.25312 9.60937 9.17344 9.60937 7.48125V5.71406L9.97969 5.35312C10.3828 4.95469 10.5516 4.67344 10.7484 4.05469C10.9969 3.25312 11.2031 2.02031 11.2031 1.29375C11.2031 1.08281 11.2172 0.890625 11.2359 0.876562C11.2969 0.810937 11.5594 0.848437 11.7047 0.9375ZM8.54062 5.48906C8.75156 5.60156 8.76562 5.74219 8.76562 7.64062C8.76562 9.58594 8.75156 9.70312 8.50781 9.79687C8.32969 9.8625 6.72187 9.85781 6.59531 9.7875C6.375 9.675 6.37969 9.68906 6.37969 7.64062C6.37969 5.60156 6.375 5.61562 6.58594 5.49375C6.7125 5.42344 8.40469 5.41875 8.54062 5.48906Z" fill="white"/>
<path d="M3.21953 10.7109C1.85547 10.9687 0.697656 12.0703 0.374219 13.4109C0.247656 13.9453 0.247656 14.7141 0.374219 15.2109C0.725781 16.5797 1.80859 17.6062 3.20078 17.8875C3.65547 17.9812 4.45703 17.9531 4.89766 17.8359C6.60391 17.3719 7.76641 15.6516 7.55078 13.9078C7.39609 12.6328 6.66953 11.5922 5.55391 11.0391C5.32422 10.9266 5.00547 10.8 4.85078 10.7578C4.43828 10.65 3.66016 10.6266 3.21953 10.7109ZM4.77578 11.6484C5.66172 11.9297 6.39297 12.7125 6.63203 13.6266C6.72109 13.9734 6.72109 14.625 6.63203 14.9766C6.37422 15.9844 5.59141 16.7531 4.55547 17.0203C4.10547 17.1328 3.71641 17.1328 3.26172 17.0156C2.73672 16.8844 2.37109 16.6734 1.96328 16.2656C1.07734 15.3937 0.875781 14.1797 1.42891 13.0547C1.72422 12.45 2.25859 11.9625 2.91484 11.7047C3.52422 11.4609 4.11953 11.4422 4.77578 11.6484Z" fill="white"/>
<path d="M2.41406 13.1952C2.325 13.2796 2.29688 13.3593 2.29688 13.4999C2.29688 13.8983 2.71875 14.0671 3.00469 13.7858C3.17813 13.6124 3.18281 13.4155 3.01875 13.2233C2.85938 13.0311 2.5875 13.0171 2.41406 13.1952Z" fill="white"/>
<path d="M4.84219 13.1906C4.73906 13.2797 4.71094 13.3406 4.71094 13.5C4.71094 13.6594 4.73906 13.7203 4.84219 13.8094C5.07187 14.0063 5.39531 13.9406 5.50781 13.6735C5.69062 13.2375 5.19844 12.886 4.84219 13.1906Z" fill="white"/>
<path d="M2.44219 15.0751C2.325 15.1735 2.29688 15.2298 2.29688 15.3891C2.29688 15.5532 2.325 15.6048 2.5125 15.7876C2.775 16.0407 3.21094 16.2516 3.60938 16.3219C4.19063 16.4204 4.87031 16.2141 5.30625 15.7923C5.49375 15.6141 5.53125 15.5532 5.53125 15.4126C5.53125 15.1782 5.49375 15.1032 5.33906 15.0235C5.13281 14.9157 4.99219 14.9391 4.77188 15.1266C4.49063 15.361 4.21406 15.4735 3.91875 15.4735C3.61406 15.4735 3.39375 15.3891 3.08438 15.1407C2.80313 14.9204 2.64375 14.9016 2.44219 15.0751Z" fill="white"/>
<path d="M16.6531 11.1328C15.7906 11.3672 15.1063 12.0562 14.8813 12.9234C14.7922 13.2656 14.7922 13.9078 14.8813 14.2875C15.2234 15.7312 16.5641 17.0719 18.7813 18.1828C18.9969 18.2859 19.2125 18.375 19.2641 18.375C19.4234 18.375 20.5156 17.7984 21.1203 17.3953C22.5359 16.4578 23.3891 15.4219 23.6469 14.3344C23.7266 13.9969 23.7359 13.2469 23.6656 12.9375C23.4688 12.075 22.6719 11.2969 21.8047 11.1141C21.0266 10.9547 20.1172 11.1609 19.4844 11.6437L19.2641 11.8125L19.0438 11.6437C18.3922 11.1469 17.3984 10.9359 16.6531 11.1328ZM17.7781 11.9766C18.1766 12.0797 18.3969 12.2062 18.7531 12.5437C19.0391 12.8156 19.0906 12.8438 19.2688 12.8438C19.4422 12.8438 19.4938 12.8156 19.775 12.5484C20.6234 11.7516 21.7484 11.7 22.4281 12.4266C22.7609 12.7828 22.8453 13.0125 22.85 13.5703C22.85 14.1141 22.775 14.3953 22.4984 14.8594C22.0109 15.6844 20.9281 16.5984 19.6719 17.25L19.2688 17.4609L18.9969 17.3203C18.0313 16.8234 17.1969 16.2188 16.6156 15.6C16.2125 15.1734 15.9969 14.85 15.8047 14.3812C15.7016 14.1328 15.6828 14.0156 15.6781 13.6172C15.6781 13.2094 15.6922 13.1156 15.8 12.8906C16.1609 12.1125 16.9391 11.7562 17.7781 11.9766Z" fill="white"/>
<path d="M16.9453 12.7454C16.5938 12.9047 16.3735 13.2844 16.4203 13.65C16.4531 13.8797 16.561 14.0063 16.7578 14.0438C17.0016 14.086 17.1938 13.9641 17.2547 13.711C17.2922 13.5657 17.3344 13.5 17.386 13.5C17.5266 13.5 17.6719 13.2985 17.6719 13.1157C17.6719 12.8813 17.6344 12.8063 17.4797 12.7266C17.3063 12.6329 17.175 12.6375 16.9453 12.7454Z" fill="white"/>
<path d="M9.81563 11.4844C9.55782 11.5875 9.56251 11.5453 9.56251 14.1235V16.5047L9.67969 16.6172C9.82032 16.7625 10.1109 16.7766 10.2703 16.6453L10.3828 16.5563L10.3969 14.1422L10.4109 11.7282L10.3031 11.6063C10.1859 11.4703 9.97032 11.4188 9.81563 11.4844Z" fill="white"/>
<path d="M13.0781 11.4702C13.0406 11.4843 12.9609 11.5405 12.9047 11.5921L12.7969 11.6858V14.0952V16.5046L12.9141 16.6171C13.0266 16.7343 13.2563 16.7718 13.4297 16.7062C13.6313 16.6265 13.6406 16.5374 13.6406 14.0671V11.7233L13.5375 11.6062C13.4297 11.4843 13.2094 11.4187 13.0781 11.4702Z" fill="white"/>
<path d="M11.3894 12.7173C11.155 12.8345 11.155 12.8392 11.1691 15.3657L11.1784 17.7282L11.3097 17.8407C11.4878 17.9907 11.7316 17.9907 11.8816 17.836L11.9987 17.7235V15.3329C11.9987 14.0204 11.9847 12.9095 11.9706 12.8673C11.9378 12.7829 11.7128 12.6563 11.5909 12.6563C11.5441 12.6563 11.455 12.6845 11.3894 12.7173Z" fill="white"/>
<path d="M9.67969 17.6484L9.5625 17.7609V18.9468C9.56719 20.189 9.57188 20.2218 9.78281 20.3343C9.95625 20.4281 10.125 20.4 10.2703 20.25L10.4109 20.114L10.3969 18.9093C10.3828 17.714 10.3828 17.7093 10.2703 17.6203C10.1109 17.489 9.82031 17.5031 9.67969 17.6484Z" fill="white"/>
<path d="M12.9141 17.6484L12.7969 17.7609V18.9468C12.8016 20.189 12.8063 20.2218 13.0172 20.3343C13.1906 20.4281 13.3594 20.3999 13.5047 20.2546L13.6406 20.1187V18.9843C13.6406 17.6015 13.6172 17.5312 13.1906 17.5312C13.0781 17.5312 12.9891 17.5687 12.9141 17.6484Z" fill="white"/>
<path d="M2.05782 18.3891C1.87969 18.5251 1.875 18.6048 1.875 20.5876C1.875 22.7298 1.87032 22.6782 2.175 22.7813C2.3625 22.8423 2.53594 22.786 2.64375 22.6313C2.70938 22.5376 2.71875 22.2844 2.71875 20.5407V18.5579L2.60157 18.4454C2.475 18.3141 2.18907 18.286 2.05782 18.3891Z" fill="white"/>
<path d="M5.29219 18.3889C5.11406 18.5249 5.10938 18.6046 5.10938 20.5968V22.5421L5.21719 22.6686C5.37656 22.8514 5.68594 22.8561 5.84063 22.6733L5.95313 22.5421V20.5499V18.5577L5.83594 18.4452C5.70938 18.3139 5.42344 18.2858 5.29219 18.3889Z" fill="white"/>
<path d="M17.3672 18.4453L17.25 18.5578V20.5687V22.5796L17.3578 22.6734C17.5078 22.814 17.6437 22.8421 17.8266 22.7671C18.0937 22.6546 18.0984 22.6265 18.0844 20.489L18.0703 18.5531L17.9391 18.4406C17.7609 18.2906 17.5172 18.2906 17.3672 18.4453Z" fill="white"/>
<path d="M20.5999 18.4405C20.5389 18.5015 20.478 18.6233 20.4592 18.7077C20.4452 18.7968 20.4358 19.6921 20.4452 20.6999C20.4592 22.4624 20.4639 22.5421 20.553 22.6405C20.6936 22.7952 20.8436 22.8374 21.0311 22.7765C21.3311 22.678 21.3311 22.6733 21.3171 20.503L21.303 18.553L21.1717 18.4405C20.9936 18.2905 20.7499 18.2905 20.5999 18.4405Z" fill="white"/>
<path d="M11.4514 18.7593C11.1701 18.8343 11.1514 18.9374 11.1655 20.2218C11.1795 21.4968 11.1889 21.5296 11.5076 21.5905C11.6811 21.6233 11.9248 21.5202 11.9717 21.3983C11.9858 21.3561 11.9998 20.789 11.9998 20.1374C11.9998 18.9702 11.9998 18.9515 11.8967 18.8577C11.7608 18.7358 11.6389 18.7077 11.4514 18.7593Z" fill="white"/>
<path d="M3.6375 19.6454L3.51562 19.7391V21.7688V23.7985L3.62344 23.8969C3.74531 24.0141 4.05 24.0375 4.17656 23.9391C4.35469 23.8032 4.35938 23.7235 4.35938 21.7547V19.8375L4.2375 19.6922C4.0875 19.5141 3.82969 19.4907 3.6375 19.6454Z" fill="white"/>
<path d="M19.0406 19.5797C19.0078 19.5938 18.9516 19.6641 18.9141 19.7344C18.8531 19.8469 18.8438 20.1891 18.8438 21.8203V23.7703L18.9609 23.8828C19.1203 24.0469 19.4109 24.0469 19.5703 23.8828L19.6875 23.7703V21.7734V19.7766L19.5703 19.6641C19.4625 19.5516 19.2094 19.5094 19.0406 19.5797Z" fill="white"/>
</g>
<defs>
<clipPath id="clip0_5020_183227">
<rect width="24" height="24" fill="white"/>
</clipPath>
</defs>
</svg>
