<svg width="24" height="24" viewBox="0 0 24 24" fill="none" xmlns="http://www.w3.org/2000/svg">
<g clip-path="url(#clip0_6373_186190)">
<path d="M19.9936 8.65776C19.9909 8.65846 19.9829 8.66065 19.9664 8.67107C19.8782 8.73341 19.8599 8.76388 19.8578 8.76754L19.8578 8.76765C19.8571 8.76885 19.8558 8.77103 19.8542 8.77818C19.8521 8.78711 19.849 8.80652 19.849 8.8426C19.849 8.97155 19.8853 9.01907 19.9013 9.034C19.9087 9.03755 19.9338 9.05068 19.9871 9.07599C20.0587 9.11004 20.1562 9.15466 20.2727 9.20686C20.5051 9.311 20.8046 9.44148 21.1065 9.57057C21.4083 9.69964 21.7103 9.82636 21.9474 9.92304C22.0662 9.9715 22.1667 10.0116 22.2419 10.0404C22.2786 10.0544 22.3034 10.0635 22.3189 10.069C22.3336 10.0672 22.3536 10.0632 22.3768 10.0564C22.4033 10.0486 22.428 10.0387 22.4479 10.0286C22.4492 10.028 22.4504 10.0273 22.4515 10.0267C22.4537 10.0231 22.456 10.0191 22.4585 10.0148C22.4883 9.96358 22.5294 9.88546 22.5825 9.77703C22.688 9.56152 22.8285 9.25128 23.0006 8.85125L23.0016 8.84888C23.2278 8.33052 23.3563 8.02586 23.4287 7.82813C23.4992 7.63557 23.499 7.58902 23.499 7.57767V7.57698C23.499 7.47416 23.4679 7.43312 23.4532 7.41842C23.4381 7.40331 23.3948 7.37084 23.2883 7.36917C23.2358 7.36935 23.2091 7.37447 23.1975 7.37761C23.1897 7.37973 23.1881 7.38098 23.187 7.38188L23.1866 7.38213C23.1768 7.38944 23.1307 7.43 23.0481 7.60126C23.048 7.60146 23.0479 7.60166 23.0478 7.60186L22.889 7.93356L22.4508 8.84851L21.9921 7.94372L21.6546 7.2781L21.6532 7.27534C20.0463 4.05703 16.941 1.88655 13.3737 1.47864C13.2053 1.46086 12.7216 1.4477 12.2082 1.44475C11.6922 1.44177 11.2176 1.44955 11.0664 1.46492C10.9971 1.4723 10.6982 1.52015 10.3975 1.57265L10.3965 1.57283C8.21307 1.94943 6.37377 2.88698 4.79149 4.42431C3.47695 5.7076 2.53026 7.25993 2.03525 8.94967C1.89212 9.44352 1.83416 9.69634 1.82379 9.84866C1.81934 9.91398 1.82602 9.93614 1.82651 9.93776L1.82653 9.93781C1.82683 9.93882 1.82723 9.9401 1.829 9.9433C1.83112 9.94713 1.83628 9.95558 1.84792 9.9702L1.84793 9.97019L1.85031 9.97323C1.88165 10.0132 1.94295 10.049 2.02949 10.0514C2.09715 10.0532 2.1549 10.0337 2.19611 10.0042C2.20653 9.9791 2.2196 9.94511 2.23483 9.90223C2.27413 9.79155 2.31952 9.64516 2.36139 9.49104C3.43 5.46985 6.7224 2.53493 10.8094 1.96305L10.8108 1.96286C11.5379 1.86325 12.8218 1.85785 13.5359 1.95843L13.5361 1.95845C16.9555 2.44131 19.8548 4.57163 21.3424 7.6898L21.3437 7.69242C21.4523 7.92363 21.5311 8.09693 21.576 8.21519C21.5948 8.2647 21.6258 8.34968 21.6362 8.43872C21.6403 8.47324 21.6541 8.59664 21.5914 8.73158C21.5545 8.81116 21.4903 8.89531 21.3907 8.95521C21.2938 9.01345 21.1971 9.02854 21.1255 9.02854C21.0611 9.02854 21.0098 9.01516 21.0053 9.01398L21.005 9.0139C20.9899 9.0102 20.9778 9.00651 20.9719 9.00463C20.9591 9.00064 20.9481 8.99669 20.9419 8.99443C20.9283 8.98947 20.9136 8.98371 20.9002 8.97838C20.8723 8.9673 20.8357 8.95226 20.7941 8.9349C20.7102 8.8999 20.5981 8.85218 20.4775 8.80015L20.476 8.79951C20.2351 8.69465 20.1078 8.66236 20.0375 8.6565C20.0085 8.65409 19.9966 8.65698 19.9936 8.65776ZM22.4327 10.0568C22.4292 10.0613 22.4289 10.0621 22.4319 10.0579C22.4322 10.0576 22.4324 10.0572 22.4327 10.0568Z" stroke="white"/>
<path d="M16.3143 10.9875L16.3143 10.9875C16.6392 9.44547 15.8422 7.8598 14.4151 7.17594C14.1615 7.05403 13.8098 6.91608 13.6127 6.87486C13.4389 6.83775 13.1534 6.82306 12.9204 6.81959C12.6953 6.81623 12.4084 6.82132 12.246 6.85659C12.2454 6.8567 12.2449 6.85682 12.2444 6.85694L12.3516 7.34531L16.3143 10.9875ZM16.3143 10.9875L16.3131 10.9928M16.3143 10.9875L16.3131 10.9928M16.3131 10.9928C16.2853 11.1178 16.1651 11.4616 16.0189 11.8634C15.8646 12.2871 15.6619 12.827 15.4475 13.3806L15.4473 13.381M16.3131 10.9928L15.4473 13.381M15.4473 13.381C15.1158 14.2344 14.9251 14.7346 14.8169 15.0478C14.7045 15.3733 14.7031 15.4398 14.7031 15.4547C14.7031 15.5828 14.7195 15.6313 14.7314 15.6566C14.7441 15.6834 14.7747 15.7321 14.8821 15.8227L14.8821 15.8227M15.4473 13.381L14.8821 15.8227M14.8821 15.8227L14.8886 15.8284M14.8821 15.8227L14.8886 15.8284M14.8886 15.8284L15.1136 16.0253L15.3983 16.2744M14.8886 15.8284L15.3983 16.2744M15.3983 16.2744L15.236 16.6161M15.3983 16.2744L15.236 16.6161M15.236 16.6161L15.1501 16.7969C15.1163 16.8734 15.0735 16.9518 15.0238 17.0201C14.999 17.0541 14.9617 17.1006 14.9116 17.1441L14.9115 17.1441C14.8824 17.1694 14.7534 17.2812 14.5547 17.2812C14.5042 17.2812 14.4651 17.2734 14.4519 17.2707C14.4338 17.2669 14.4193 17.2629 14.4108 17.2604C14.3936 17.2554 14.3795 17.2503 14.372 17.2475C14.356 17.2416 14.3407 17.2353 14.3295 17.2305C14.3057 17.2204 14.2766 17.2073 14.2447 17.1927C14.1799 17.1629 14.09 17.1204 13.9799 17.0678C13.7592 16.9621 13.4497 16.8117 13.0821 16.6317C12.3465 16.2716 11.3738 15.7911 10.403 15.3089C9.43217 14.8268 8.46239 14.3425 7.73261 13.9747C7.36792 13.7909 7.06209 13.6357 6.84574 13.5243C6.73792 13.4687 6.65029 13.423 6.58808 13.3896C6.55756 13.3733 6.52959 13.358 6.50728 13.3451C6.49688 13.3392 6.48211 13.3305 6.46706 13.3208C6.46017 13.3163 6.44626 13.3072 6.4302 13.2949C6.42232 13.2889 6.40814 13.2778 6.39176 13.2625L6.39161 13.2624C6.38127 13.2528 6.34266 13.2169 6.30725 13.1603M15.236 16.6161L6.30725 13.1603M6.30725 13.1603C6.30664 13.1593 6.30603 13.1584 6.30542 13.1574C6.23323 13.0401 6.22991 12.9271 6.22909 12.8992L6.22909 12.899C6.22776 12.8539 6.23224 12.8163 6.23545 12.7943C6.24209 12.7486 6.25302 12.7063 6.26158 12.6761C6.27968 12.6125 6.30469 12.543 6.32949 12.4814C6.35407 12.4202 6.38455 12.3516 6.41682 12.292C6.43169 12.2646 6.45569 12.2226 6.48752 12.1811C6.50256 12.1615 6.53228 12.1248 6.57622 12.0884C6.60539 12.0642 6.72302 11.9687 6.90469 11.9687C6.93593 11.9687 6.96025 11.9718 6.96899 11.9729C6.98059 11.9744 6.98992 11.976 6.99544 11.977C7.00646 11.979 7.01522 11.981 7.01937 11.982C7.02827 11.984 7.03579 11.986 7.0395 11.987L7.06365 11.9937L7.11984 12.0101L7.13027 12.0131C7.17311 12.0257 7.22706 12.0415 7.2858 12.0583L7.28583 12.0582L7.29643 12.0615C7.45323 12.1101 7.5892 12.0813 7.70977 11.9779C7.71062 11.9767 7.71226 11.9746 7.71471 11.9715C7.7258 11.9573 7.75365 11.9217 7.80252 11.8527C7.86931 11.7583 7.95777 11.6272 8.06687 11.4601C8.28459 11.1266 8.577 10.6614 8.92942 10.0849L6.30725 13.1603ZM13.7417 5.98267L13.6431 6.32782L13.2845 6.34476L12.6892 6.37288L12.6892 6.3729L12.6852 6.37305C11.6234 6.41469 10.7745 6.80205 10.0177 7.59239C9.77172 7.85032 9.55741 8.15879 8.67588 9.59009C8.67583 9.59017 8.67578 9.59025 8.67573 9.59033L7.62615 11.3006L7.48265 11.5344L7.20833 11.539L6.92708 11.5437L6.92708 11.5437L6.92232 11.5437C6.67778 11.5455 6.5015 11.603 6.35924 11.701C6.21195 11.8025 6.06432 11.9729 5.92345 12.2586L5.92348 12.2586L5.92111 12.2633C5.81951 12.464 5.7975 12.5184 5.78722 12.5595C5.77826 12.5954 5.77344 12.6388 5.77344 12.8391C5.77344 13.0245 5.77848 13.083 5.78707 13.1234C5.79397 13.1557 5.80719 13.1964 5.87534 13.3326L5.87541 13.3326L5.87937 13.3409C5.951 13.491 6.03229 13.5924 6.093 13.6453C6.09417 13.6457 6.09946 13.6488 6.10982 13.6549C6.13352 13.6689 6.18369 13.6985 6.27146 13.747C6.39788 13.817 6.57044 13.9094 6.77777 14.0182C7.19172 14.2353 7.73671 14.5136 8.31285 14.8005C8.31307 14.8006 8.31329 14.8008 8.31351 14.8009L10.4169 15.8409L10.8169 16.0386L10.6658 16.4584L10.5826 16.6895C10.5505 16.7836 10.5292 16.951 10.5399 17.1445C10.5508 17.3426 10.591 17.4927 10.6257 17.5601L10.6257 17.5601L10.6271 17.5627C10.7249 17.7554 11.0103 18.0285 11.2642 18.1467L11.2642 18.1467L11.266 18.1476C11.3697 18.1964 11.4014 18.2053 11.4419 18.2119C11.504 18.222 11.5996 18.2266 11.8359 18.2266C12.0961 18.2266 12.1785 18.2224 12.2321 18.2123C12.2659 18.206 12.294 18.1975 12.4449 18.1232L12.4462 18.1226C12.5947 18.0501 12.7329 17.9475 12.8357 17.8319L12.8356 17.8319L12.8394 17.8277L13.0738 17.5699L13.324 17.2947L13.6595 17.4552L13.9819 17.6094C13.982 17.6094 13.9822 17.6095 13.9824 17.6096C14.1203 17.6752 14.1623 17.6886 14.2012 17.6962C14.2514 17.706 14.3237 17.7109 14.5312 17.7109C14.7338 17.7109 14.8092 17.7062 14.8576 17.6974C14.888 17.6918 14.9179 17.6836 15.0201 17.6325L15.0201 17.6324L15.0253 17.6299C15.2257 17.5326 15.3778 17.3921 15.5653 17.017L15.5652 17.017L15.5682 17.0113C15.6392 16.8736 15.6634 16.8127 15.6772 16.7613C15.6913 16.7088 15.7011 16.6417 15.7101 16.4821C15.7201 16.2903 15.7078 16.179 15.6824 16.0903C15.6571 16.0021 15.6094 15.9028 15.5015 15.7486L15.3484 15.5352L15.1907 15.3153L15.2885 15.063L15.9682 13.3099L15.9684 13.3093C16.4097 12.1751 16.6162 11.641 16.7184 11.2723C16.81 10.9417 16.8133 10.7646 16.8156 10.3113C16.8156 9.72054 16.7974 9.58787 16.7248 9.31676L16.7238 9.31298C16.609 8.87021 16.3145 8.26458 16.0541 7.9185C16.054 7.91831 16.0538 7.91812 16.0537 7.91794L15.8202 7.60974L15.5926 7.30932L15.8187 7.00781L15.9306 6.85862C15.9308 6.85847 15.9309 6.8583 15.931 6.85815C16.3449 6.30349 16.2684 5.57653 15.8371 5.18542C15.6765 5.04146 15.5769 4.9793 15.485 4.94328C15.3908 4.90638 15.266 4.88179 15.0312 4.8732C14.8604 4.86868 14.7655 4.87085 14.7002 4.87772C14.6469 4.88333 14.6131 4.89206 14.5696 4.9088C14.1841 5.06457 13.922 5.35954 13.8163 5.72144C13.8162 5.72179 13.8161 5.72213 13.816 5.72248L13.7417 5.98267Z" stroke="white"/>
<path d="M1.78709 13.0241C1.78391 13.0291 1.74437 13.0725 1.65454 13.2143C1.53763 13.399 1.36963 13.6916 1.10605 14.1623C0.787144 14.7335 0.633337 15.0141 0.555946 15.1833C0.519523 15.263 0.510424 15.2962 0.507655 15.3086C0.505969 15.3162 0.503973 15.3252 0.503973 15.3715H0.503999L0.503947 15.3766C0.503218 15.4479 0.512464 15.4917 0.520416 15.5152C0.524269 15.5267 0.527746 15.5332 0.52965 15.5363C0.531469 15.5393 0.532599 15.5405 0.533019 15.5409C0.53345 15.5413 0.534946 15.5428 0.538733 15.545C0.542667 15.5474 0.550282 15.5514 0.563118 15.5558C0.589576 15.5647 0.636695 15.5746 0.711785 15.5746C0.769682 15.5746 0.800965 15.5696 0.816773 15.5658C0.829426 15.5627 0.83327 15.5601 0.836017 15.5582C0.847888 15.5503 0.893293 15.5138 0.983394 15.3567C1.03793 15.2574 1.10006 15.1527 1.16498 15.0748C1.16552 15.0742 1.16612 15.0735 1.16679 15.0727C1.18808 15.047 1.27267 14.9449 1.41237 14.8922C1.50458 14.8573 1.66261 14.8298 1.82832 14.9137C1.98214 14.9915 2.04944 15.1193 2.07602 15.1858L2.08015 15.1961L2.08381 15.2066C2.44773 16.2483 2.85206 17.0849 3.35815 17.8396L1.78709 13.0241ZM1.78709 13.0241C1.79131 13.0213 1.79493 13.0189 1.79802 13.0168M1.78709 13.0241C1.78726 13.0239 1.78733 13.0237 1.78728 13.0237C1.78712 13.0235 1.78565 13.0246 1.78298 13.0266C1.78 13.0288 1.77552 13.0321 1.76968 13.0358L1.77648 13.0314L1.79802 13.0168M16.8649 21.4664C15.8281 21.9735 14.8779 22.2726 13.7032 22.4572C13.3676 22.5096 12.7791 22.5391 12.1669 22.5391C11.5542 22.5391 10.9687 22.5096 10.6385 22.4573L16.8649 21.4664ZM16.8649 21.4664C19.9366 19.9527 22.0698 17.0844 22.6199 13.7296L22.6203 13.7277C22.6748 13.4031 22.692 13.2857 22.6938 13.22C22.694 13.2133 22.6939 13.2092 22.6938 13.207C22.6932 13.205 22.6921 13.201 22.6898 13.1944C22.6858 13.1827 22.6801 13.1675 22.6704 13.1423L22.6703 13.1421C22.6433 13.0722 22.5774 13.0192 22.4819 13.0084C22.3997 12.9991 22.3368 13.0253 22.2978 13.0679C22.289 13.0947 22.2778 13.1333 22.265 13.1828C22.2382 13.2862 22.2094 13.4179 22.1857 13.5491C21.8167 15.7734 20.8397 17.6605 19.2576 19.1984M16.8649 21.4664L16.5087 20.5652M19.2576 19.1984C19.2578 19.1982 19.2579 19.198 19.2581 19.1978L18.9087 18.8402L19.2572 19.1988C19.2573 19.1986 19.2574 19.1985 19.2576 19.1984ZM19.2576 19.1984C18.3968 20.0395 17.7694 20.4865 16.7348 21.0111M16.7348 21.0111C15.3747 21.7011 14.0755 22.0326 12.5103 22.0914L12.5092 22.0915C8.19185 22.2444 4.24843 19.6148 2.69631 15.5547L2.69627 15.5547L2.69401 15.5486C2.61628 15.337 2.51254 15.0497 2.47866 14.9191M16.7348 21.0111C16.7348 21.0112 16.7348 21.0112 16.7348 21.0112L16.5087 20.5652M16.7348 21.0111L16.5087 20.5652M2.47866 14.9191L2.43315 14.7553L2.11278 13.602L3.15834 14.1847L3.44153 14.3426L3.3556 14.4991L2.91491 14.6215L2.79804 14.8312L2.47671 14.9115C2.47734 14.914 2.47799 14.9165 2.47866 14.9191ZM2.47866 14.9191L2.48003 14.9241L2.79504 14.8366L2.67148 15.0582L2.95742 15.2176L2.96016 15.2191L2.96016 15.2191C3.02566 15.2551 3.08619 15.2882 3.14229 15.3187C3.14934 15.338 3.15638 15.3572 3.16335 15.3762C4.63991 19.2387 8.38991 21.7371 12.4915 21.5918C13.9868 21.5355 15.2149 21.2215 16.5087 20.5652M4.56022 13.909C5.0196 14.3496 4.67272 15.1371 4.02116 15.1371C3.90499 15.1371 3.82319 15.1133 3.54743 14.9684C3.49609 14.8244 3.45695 14.7094 3.44686 14.669L3.44371 14.6564L3.44354 14.6564L3.39667 14.4877L3.35833 14.4983L3.44428 14.3441L3.4429 14.3434C3.73502 14.5038 3.87867 14.5798 3.96724 14.6184C3.99519 14.6306 4.00967 14.6354 4.01516 14.637M4.56022 13.909L4.21825 14.2738C4.2255 14.2805 4.22994 14.2844 4.22977 14.2846C4.22969 14.2847 4.22855 14.284 4.22616 14.2823M4.56022 13.909L4.21411 14.2698C4.21835 14.2739 4.22237 14.2781 4.22616 14.2823M4.56022 13.909C4.48522 13.8387 3.92272 13.5059 3.30397 13.1637M4.22616 14.2823C4.27372 14.3361 4.28513 14.4062 4.24956 14.4871C4.21024 14.5765 4.12857 14.6371 4.02116 14.6371C4.01848 14.6371 4.01652 14.6371 4.01516 14.637M4.22616 14.2823C4.21805 14.2769 4.1955 14.2612 4.15081 14.2328C4.08413 14.1903 3.99247 14.1344 3.88104 14.0684C3.65883 13.9367 3.36795 13.7704 3.062 13.6012M4.01516 14.637C4.01743 14.6377 4.01816 14.6379 4.01767 14.6378C4.01483 14.6371 4.01254 14.637 4.01254 14.637C4.01254 14.637 4.0133 14.637 4.01516 14.637ZM3.062 13.6012C3.06207 13.6013 3.06214 13.6013 3.06221 13.6013L3.30397 13.1637M3.062 13.6012C2.56545 13.3269 2.29268 13.1806 2.11741 13.0993C1.96478 13.0285 1.92039 13.0232 1.88432 13.0201M3.062 13.6012L3.30397 13.1637M3.30397 13.1637C2.3196 12.6199 2.14616 12.5402 1.92116 12.5215M1.88432 13.0201C1.88574 13.0202 1.88717 13.0203 1.88862 13.0204L1.92116 12.5215M1.88432 13.0201C1.84196 13.0174 1.81553 13.0167 1.79802 13.0168M1.88432 13.0201C1.88329 13.0201 1.88226 13.02 1.88124 13.0199L1.87964 13.0198L1.92116 12.5215M1.92116 12.5215C1.70554 12.5074 1.63522 12.5215 1.49929 12.6152C1.36804 12.6996 1.1946 12.9809 0.669598 13.9184L1.79802 13.0168M1.79802 13.0168C1.80834 13.0101 1.81262 13.0079 1.81283 13.0078C1.81286 13.0077 1.8128 13.0078 1.81267 13.0078C1.80836 13.01 1.79867 13.0139 1.78733 13.0163C1.78318 13.0173 1.78075 13.0175 1.78075 13.0175C1.78075 13.0175 1.78459 13.0171 1.79371 13.0169C1.79508 13.0169 1.79652 13.0169 1.79802 13.0168ZM3.35831 17.8399C5.05143 20.3615 7.58613 21.9725 10.6384 22.4573L3.35831 17.8399Z" stroke="white"/>
</g>
<defs>
<clipPath id="clip0_6373_186190">
<rect width="24" height="24" fill="white"/>
</clipPath>
</defs>
</svg>
