<svg width="16" height="16" viewBox="0 0 16 16" fill="none" xmlns="http://www.w3.org/2000/svg">
<g clip-path="url(#clip0_9448_80482)">
<path d="M6.7834 0.0215635C6.70527 0.0496883 6.5709 0.187188 6.53652 0.277814C6.51777 0.321564 6.4459 0.674689 6.37715 1.05906C6.31152 1.44344 6.24902 1.75906 6.2459 1.76219C6.23965 1.76532 6.1459 1.79031 6.0334 1.81844C5.71464 1.89969 2.05214 3.39032 1.85839 3.51844C1.50527 3.75282 1.24277 4.14969 1.14589 4.59344C1.11777 4.72157 0.849015 6.22469 0.549015 7.93095C-0.0353608 11.2497 -0.0541108 11.3934 0.0521393 11.7528C0.189639 12.2122 0.542765 12.6435 0.94589 12.8372C1.19589 12.9591 1.24277 12.9685 3.93964 13.4403C5.04902 13.6341 5.9584 13.7935 5.96464 13.7966C5.96777 13.7997 6.0084 14.006 6.05215 14.2528C6.17715 14.9591 6.28027 15.1935 6.6084 15.5153C6.82402 15.7278 7.08965 15.881 7.36152 15.9528C7.7459 16.0528 7.86152 16.0372 11.3553 15.4216C13.1647 15.1028 14.699 14.8247 14.7678 14.8091C15.3053 14.6653 15.8053 14.156 15.9553 13.5935C16.0584 13.2122 16.049 13.156 15.2365 8.55595C14.8178 6.17157 14.4428 4.14032 14.4115 4.04344C14.2928 3.70907 14.0553 3.40907 13.7459 3.20594C13.549 3.07469 9.84902 1.55594 9.58652 1.49969C9.44902 1.46844 9.40215 1.44344 9.39277 1.39344C9.3834 1.35594 9.3334 1.09031 9.2834 0.799689C9.2334 0.509064 9.16777 0.237188 9.14277 0.196564C8.9584 -0.081562 8.49277 -0.0628109 8.31465 0.224689C8.2334 0.362188 8.23652 0.449689 8.34902 1.09031C8.40215 1.39344 8.4334 1.64344 8.41777 1.64656C8.33027 1.67781 8.12715 1.82782 7.9084 2.02469L7.6584 2.25594L7.55527 2.16532C7.49902 2.11532 7.39902 2.04344 7.33652 2.00282C7.27402 1.96531 7.2209 1.91844 7.2209 1.90281C7.2209 1.88719 7.27715 1.55594 7.3459 1.16844C7.4209 0.755939 7.46465 0.430939 7.45215 0.380939C7.38965 0.124688 7.23652 -0.000311852 6.98652 0.00281334C6.90215 0.00281334 6.8084 0.012188 6.7834 0.0215635ZM11.2803 3.20907C13.0772 3.94344 13.1803 3.99032 13.3178 4.12469C13.3959 4.20594 13.4772 4.31844 13.4959 4.37782C13.5584 4.56844 15.0334 12.9872 15.0334 13.1528C15.0334 13.4372 14.8772 13.681 14.6147 13.8185C14.4709 13.8935 8.07402 15.031 7.79902 15.031C7.56777 15.031 7.33027 14.906 7.19902 14.7091C7.10527 14.5685 7.06152 14.4341 7.01777 14.1216L6.9959 13.9778L7.47715 14.0653C8.0209 14.1653 8.3459 14.1778 8.61152 14.1091C9.15527 13.9653 9.61465 13.556 9.79902 13.0466C9.85215 12.8997 10.0646 11.7591 10.4584 9.54657C10.9928 6.52157 11.0365 6.24344 11.024 5.98407C11.0084 5.65594 10.9209 5.38719 10.7396 5.11844C10.6584 4.99344 10.2834 4.63094 9.51465 3.93407C8.90527 3.38094 8.4084 2.91844 8.4084 2.90594C8.4084 2.86844 8.76152 2.57469 8.89277 2.50594C8.97715 2.46219 9.07715 2.44032 9.20215 2.43719C9.36777 2.43719 9.5334 2.49969 11.2803 3.20907ZM6.05215 2.91219C6.00215 3.10282 5.96464 3.46844 5.9834 3.57157C5.9959 3.64344 6.04902 3.73094 6.11152 3.79657C6.29277 3.97782 6.5709 3.98094 6.76777 3.80907C6.88652 3.70282 6.91777 3.62157 6.97402 3.27157C6.9959 3.14032 7.02402 3.03094 7.03965 3.03094C7.0709 3.03094 9.81152 5.51532 9.90215 5.62782C9.98652 5.73407 10.0646 5.94344 10.0646 6.06844C10.0646 6.17782 8.9584 12.4872 8.90527 12.6716C8.8334 12.931 8.47715 13.1872 8.19277 13.1872C8.13652 13.1872 6.61152 12.9247 4.80527 12.606C2.56152 12.2122 1.47714 12.006 1.38652 11.9653C1.23652 11.8935 1.07714 11.7247 1.01464 11.5747C0.98964 11.5153 0.97089 11.3966 0.97089 11.3059C0.97089 11.0809 2.08964 4.76219 2.15214 4.62469C2.27402 4.36532 2.31464 4.34344 4.20839 3.57469C5.18652 3.17469 6.00527 2.84969 6.03027 2.84657C6.0584 2.84344 6.06465 2.86532 6.05215 2.91219Z" fill="white"/>
<path d="M5.90508 4.70234C5.81133 4.75234 5.76446 4.86484 5.73321 5.09296C5.72383 5.17421 5.70508 5.25546 5.69258 5.27109C5.68321 5.28671 5.57696 5.31484 5.45821 5.33359C4.73008 5.45546 4.19883 6.14296 4.26133 6.88359C4.2957 7.27734 4.51133 7.59609 4.98008 7.94609C5.0957 8.03047 5.18945 8.11484 5.18945 8.13359C5.18945 8.17734 4.8457 10.1305 4.82695 10.1961C4.81133 10.243 4.78945 10.2492 4.72695 10.2336C4.56758 10.1961 4.37383 10.0836 4.16758 9.91797C3.98945 9.77109 3.9457 9.74922 3.82695 9.74922C3.73008 9.74922 3.66758 9.77109 3.60508 9.82422C3.53008 9.88984 3.51758 9.92422 3.51758 10.0617C3.51758 10.2211 3.52383 10.2305 3.69258 10.3867C3.91758 10.5867 4.20508 10.7617 4.4707 10.8461C4.5832 10.8836 4.68008 10.918 4.68633 10.9242C4.69258 10.9305 4.68008 11.043 4.6582 11.1773C4.61445 11.4586 4.63945 11.5586 4.7707 11.6461C4.8207 11.6773 4.9082 11.6992 4.9832 11.6992C5.17695 11.693 5.26445 11.5742 5.31446 11.2523C5.35196 11.0055 5.35508 10.9992 5.44258 10.9992C5.98321 10.9992 6.61133 10.5773 6.87383 10.0367C7.26446 9.22422 7.00508 8.40547 6.21133 7.94297C6.07696 7.86484 5.96133 7.78984 5.95196 7.77421C5.94258 7.75859 6.00196 7.36171 6.08321 6.88984L6.23321 6.03359L6.32696 6.08359C6.37696 6.10859 6.49258 6.19921 6.58008 6.28359C6.66758 6.36484 6.77696 6.44921 6.82383 6.46484C7.03321 6.54609 7.25196 6.38046 7.25196 6.14609C7.25196 6.02734 7.23321 5.99921 7.03321 5.80234C6.88008 5.65234 6.74571 5.55859 6.58008 5.47734C6.41133 5.39921 6.34883 5.35234 6.35821 5.32109C6.37071 5.29609 6.38633 5.17734 6.39571 5.06171C6.41758 4.85234 6.41446 4.84296 6.32071 4.75234C6.21133 4.64296 6.04883 4.62421 5.90508 4.70234ZM5.44571 6.71796L5.32696 7.38671L5.1582 7.23359C4.8957 6.98671 4.85195 6.80859 4.97383 6.48671C5.01758 6.36484 5.0832 6.27421 5.18945 6.17734C5.34258 6.03984 5.54258 5.94921 5.55821 6.01171C5.56133 6.03046 5.51133 6.34921 5.44571 6.71796ZM5.98946 8.58984C6.28321 8.80547 6.38633 8.99609 6.38633 9.31797C6.38633 9.67734 6.16133 10.0305 5.82383 10.2086C5.60508 10.3242 5.45508 10.3648 5.47696 10.3055C5.48633 10.2836 5.56133 9.86797 5.64571 9.38359C5.73633 8.85547 5.81133 8.49922 5.83321 8.49922C5.85196 8.49922 5.92383 8.53984 5.98946 8.58984Z" fill="white"/>
</g>
<defs>
<clipPath id="clip0_9448_80482">
<rect width="16" height="16" fill="white"/>
</clipPath>
</defs>
</svg>
