<svg width="24" height="24" viewBox="0 0 24 24" fill="none" xmlns="http://www.w3.org/2000/svg">
<path d="M22.7383 1.71802H1.26173C0.566016 1.71802 0 2.28403 0 2.9798V21.0201C0 21.7158 0.566016 22.2818 1.26173 22.2818H22.7383C23.434 22.2818 24 21.7158 24 21.0201V2.9798C24 2.28403 23.434 1.71802 22.7383 1.71802ZM5.95973 2.52338H21.4765V3.43613H5.95973V2.52338ZM4.24162 2.52338H5.15437V3.43613H4.24162V2.52338ZM2.52347 2.52338H3.43622V3.43613H2.52347V2.52338ZM0.805359 2.9798C0.805359 2.72813 1.01006 2.52342 1.26173 2.52342H1.71811V3.43617H0.805359V2.9798ZM23.1946 21.0201C23.1946 21.2717 22.9899 21.4764 22.7383 21.4764H1.26173C1.01006 21.4764 0.805359 21.2717 0.805359 21.0201V4.24153H23.1946V21.0201V21.0201ZM23.1946 3.43613H22.2819V2.52338H22.7383C22.9899 2.52338 23.1946 2.72808 23.1946 2.97975V3.43613Z" fill="white"/>
<path d="M21.8792 5.1543H2.12084C1.89847 5.1543 1.71814 5.33458 1.71814 5.557C1.71814 5.77938 1.89842 5.9597 2.12084 5.9597H21.8792C22.1016 5.9597 22.2819 5.77942 22.2819 5.557C22.2819 5.33458 22.1016 5.1543 21.8792 5.1543Z" fill="white"/>
<path d="M15.4363 7.73145H14.5772C14.2065 7.73145 13.892 7.9751 13.7847 8.31049C10.3301 10.3269 6.58804 10.6683 5.51095 10.7249C5.07013 10.7482 4.72485 11.1131 4.72485 11.5557V13.3031C4.72485 13.7457 5.07013 14.1106 5.51095 14.1338C5.72559 14.1451 6.04654 14.1678 6.44953 14.2128L7.65951 18.6612C7.75781 19.0226 8.08804 19.275 8.46257 19.275H9.85087C9.85129 19.275 9.85171 19.2751 9.85218 19.2751C9.8527 19.2751 9.85326 19.275 9.85373 19.275H10.2819C10.5043 19.275 10.6846 19.0947 10.6846 18.8723C10.6846 18.6499 10.5044 18.4696 10.2819 18.4696H10.16L9.13073 14.6957C10.5522 15.0499 12.1987 15.6225 13.7847 16.5482C13.8921 16.8836 14.2066 17.1273 14.5772 17.1273H15.4363C15.8952 17.1273 16.2685 16.7539 16.2685 16.295V8.56348C16.2684 8.10476 15.8951 7.73145 15.4363 7.73145ZM6.44296 13.4022C6.06435 13.3617 5.76103 13.3405 5.55323 13.3295C5.53963 13.3288 5.53021 13.318 5.53021 13.3031V11.5557C5.53021 11.5409 5.53968 11.53 5.55323 11.5292C5.76103 11.5182 6.06435 11.4971 6.44296 11.4566V13.4022ZM9.32507 18.4697H8.46248C8.45038 18.4697 8.4397 18.4615 8.43656 18.4498L7.31568 14.3289C7.60326 14.3738 7.91306 14.4284 8.24104 14.4949L9.32507 18.4697ZM15.4631 16.2952C15.4631 16.31 15.451 16.322 15.4362 16.322H14.5772C14.5624 16.322 14.5503 16.31 14.5503 16.2952V11.5704C14.5503 11.348 14.37 11.1677 14.1476 11.1677C13.9252 11.1677 13.7449 11.348 13.7449 11.5704V15.6024C11.3606 14.3109 8.90512 13.7488 7.24828 13.5048V11.3541C8.90512 11.1101 11.3606 10.548 13.7449 9.25643V9.8523C13.7449 10.0747 13.9252 10.255 14.1476 10.255C14.37 10.255 14.5503 10.0747 14.5503 9.8523V8.56366C14.5503 8.54885 14.5624 8.5368 14.5772 8.5368H15.4363C15.4511 8.5368 15.4631 8.54885 15.4631 8.56366V16.2952H15.4631Z" fill="white"/>
<path d="M20.161 12.0269H17.5839C17.3615 12.0269 17.1812 12.2071 17.1812 12.4296C17.1812 12.6519 17.3614 12.8323 17.5839 12.8323H20.161C20.3834 12.8323 20.5637 12.652 20.5637 12.4296C20.5637 12.2071 20.3834 12.0269 20.161 12.0269Z" fill="white"/>
<path d="M19.6622 9.67241C19.5628 9.47347 19.3209 9.39285 19.122 9.49231L17.4039 10.3514C17.2049 10.4509 17.1243 10.6927 17.2238 10.8916C17.2943 11.0327 17.4365 11.1143 17.5842 11.1143C17.6447 11.1143 17.7061 11.1006 17.764 11.0717L19.4821 10.2126C19.681 10.1132 19.7617 9.87135 19.6622 9.67241Z" fill="white"/>
<path d="M19.4821 14.6465L17.764 13.7875C17.5651 13.688 17.3232 13.7686 17.2238 13.9676C17.1243 14.1665 17.2049 14.4084 17.4039 14.5078L19.122 15.3669C19.1798 15.3957 19.2412 15.4094 19.3017 15.4094C19.4494 15.4094 19.5916 15.3278 19.6622 15.1867C19.7617 14.9878 19.681 14.746 19.4821 14.6465Z" fill="white"/>
</svg>
