<svg width="16" height="16" viewBox="0 0 16 16" fill="none" xmlns="http://www.w3.org/2000/svg">
<path d="M7.54577 0.450194C7.34577 0.503319 7.47702 0.443944 5.06452 1.53769C3.92077 2.05644 2.92389 2.52519 2.84577 2.57519C2.52389 2.79394 2.31452 3.17519 2.28952 3.59394C2.27389 3.85957 2.66452 11.5408 2.71452 11.9221C2.73952 12.1064 2.78014 12.2377 2.87077 12.4221C3.08952 12.8627 3.14577 12.9064 5.30514 14.2002C6.35827 14.8314 7.29264 15.3814 7.38327 15.4221C7.63952 15.5408 7.95202 15.5846 8.22389 15.5377C8.34889 15.5158 8.52389 15.4627 8.61452 15.4221C8.70514 15.3814 9.63951 14.8314 10.6926 14.2002C12.4083 13.1752 12.6301 13.0314 12.8208 12.8408C13.0801 12.5783 13.2333 12.2814 13.2801 11.9377C13.3301 11.5939 13.7239 3.86894 13.7083 3.59394C13.6833 3.17519 13.4739 2.79394 13.152 2.57519C13.0051 2.47832 8.92077 0.60957 8.59889 0.493944C8.37389 0.412694 7.78014 0.387694 7.54577 0.450194ZM8.39577 0.997069C8.49577 1.02832 9.52702 1.48457 10.6864 2.01269C12.352 2.77207 12.8208 2.99707 12.9176 3.08769C13.0895 3.25332 13.1864 3.47207 13.1864 3.70332C13.1864 4.05332 12.7833 11.6408 12.752 11.8346C12.7176 12.0689 12.6333 12.2564 12.4801 12.4314C12.327 12.6127 8.47389 14.9283 8.21764 14.9971C8.08327 15.0314 8.00514 15.0346 7.84577 15.0064C7.66452 14.9752 7.48327 14.8752 5.63639 13.7689C4.15827 12.8814 3.60202 12.5314 3.52389 12.4408C3.37077 12.2596 3.27702 12.0564 3.24264 11.8189C3.21452 11.6002 2.81139 4.05644 2.81139 3.71269C2.81139 3.47519 2.90514 3.25644 3.07077 3.09394C3.15827 3.00957 3.67389 2.76269 5.33952 2.00644C6.52389 1.46582 7.55514 1.00644 7.63014 0.984569C7.82702 0.922069 8.18014 0.928319 8.39577 0.997069Z" fill="#016DEA"/>
<path d="M7.73494 2.61596C7.67244 2.68159 7.52244 2.88471 7.40056 3.06596L7.18181 3.39721L6.81619 3.49721C6.32556 3.63471 6.15994 3.70971 6.10681 3.81596C6.00369 4.00971 6.06306 4.14721 6.47244 4.66596L6.68806 4.93784L6.67869 5.46596L6.66931 5.99721L6.76306 6.09409C6.85369 6.18784 6.86619 6.19409 7.04431 6.17846C7.15681 6.16909 7.38806 6.10659 7.61931 6.02221L8.00681 5.88159L8.44119 6.03471C8.96931 6.21909 9.10056 6.22846 9.23494 6.09096L9.32556 5.99721L9.31931 5.45659L9.30994 4.91909L9.47869 4.71909C9.75369 4.38471 9.93494 4.10034 9.93494 4.00034C9.93494 3.85971 9.86931 3.75034 9.75056 3.68784C9.62556 3.62534 9.22869 3.49721 8.97244 3.43784C8.80994 3.40034 8.80994 3.40034 8.57869 3.05034C8.25994 2.56909 8.18494 2.50034 7.99744 2.50034C7.86619 2.50034 7.83494 2.51596 7.73494 2.61596ZM8.24431 3.51596L8.46931 3.84409L8.72556 3.91909C8.86619 3.96284 9.04431 4.01284 9.12244 4.03471C9.20056 4.05659 9.26619 4.07846 9.27244 4.08159C9.27869 4.08471 9.17556 4.22534 9.04744 4.39096C8.91619 4.55659 8.80056 4.72846 8.79119 4.76909C8.78181 4.80971 8.77556 5.01284 8.78181 5.21909C8.78806 5.42534 8.79431 5.59409 8.79119 5.59409C8.79119 5.59409 8.62869 5.53784 8.43181 5.46909C8.23494 5.40034 8.04119 5.34409 7.99744 5.34409C7.95369 5.34409 7.77869 5.39409 7.60681 5.45659C7.43494 5.51596 7.27244 5.57221 7.24744 5.58159C7.20681 5.59409 7.20056 5.54409 7.21306 5.21909C7.21931 5.01284 7.21306 4.80971 7.20369 4.76909C7.19431 4.72846 7.07869 4.55659 6.94744 4.39096C6.81931 4.22534 6.71619 4.08471 6.72244 4.08159C6.72869 4.07534 6.87244 4.03471 7.04431 3.98784C7.52869 3.85346 7.52244 3.85659 7.75994 3.50659C7.88181 3.33159 7.98806 3.18784 8.00056 3.18784C8.01306 3.18784 8.12244 3.33471 8.24431 3.51596Z" fill="#016DEA"/>
<path d="M4.88437 6.77813C4.7375 6.81563 4.5125 6.95625 4.44375 7.05625C4.40937 7.10313 4.32187 7.25938 4.24687 7.40625C4.11875 7.65313 4.10938 7.6875 4.10938 7.92188C4.10938 8.1375 4.12187 8.19063 4.19375 8.31563C4.24062 8.39688 4.325 8.5 4.38125 8.54688C4.43437 8.59375 5.19687 8.99063 6.075 9.43125L7.67187 10.2344H8H8.32812L9.925 9.43125C10.8031 8.99063 11.5656 8.59375 11.6187 8.54688C11.675 8.5 11.7594 8.39688 11.8062 8.31563C11.8781 8.19063 11.8906 8.1375 11.8906 7.92188C11.8906 7.69063 11.8812 7.65313 11.7531 7.40625C11.5719 7.04688 11.5062 6.96875 11.3094 6.85938C11.1687 6.78438 11.1031 6.76875 10.9156 6.76563H10.6906L9.34687 7.4375L8 8.10938L6.66562 7.44375C5.50312 6.8625 5.30625 6.775 5.15625 6.76563C5.0625 6.75938 4.94062 6.76563 4.88437 6.77813ZM6.53125 7.98438C7.30625 8.37188 7.96562 8.6875 8 8.6875C8.03437 8.6875 8.69375 8.37188 9.46875 7.98438C10.2437 7.59688 10.9031 7.28125 10.9344 7.28125C11.0375 7.28125 11.1625 7.4125 11.2687 7.6375C11.4781 8.075 11.5781 7.99375 9.70312 8.92813C8.53125 9.51563 8.08125 9.72813 8 9.72813C7.91875 9.72813 7.46875 9.51563 6.29687 8.92813C4.42187 7.99375 4.52187 8.075 4.73125 7.6375C4.8375 7.4125 4.9625 7.28125 5.06562 7.28125C5.09687 7.28125 5.75625 7.59688 6.53125 7.98438Z" fill="#016DEA"/>
<path d="M4.85625 9.78168C4.8 9.80043 4.6875 9.8598 4.60625 9.91293C4.47812 10.0004 4.42812 10.0661 4.28125 10.3442C4.11562 10.6629 4.10938 10.6786 4.10938 10.9223C4.10938 11.2129 4.175 11.3629 4.35937 11.5286C4.42187 11.5817 5.19062 11.9879 6.06875 12.4254C7.78125 13.2817 7.82187 13.2973 8.18125 13.2442C8.30625 13.2254 8.74687 13.0192 9.9375 12.4223C10.8125 11.9848 11.5781 11.5817 11.6406 11.5286C11.8281 11.3629 11.8906 11.2129 11.8906 10.9223C11.8906 10.6879 11.8812 10.6536 11.7531 10.4067C11.5719 10.0504 11.5062 9.96918 11.3094 9.8598C11.1656 9.78168 11.1062 9.76605 10.9156 9.76605H10.6906L9.34687 10.4379L8 11.1098L6.66562 10.4411C5.44687 9.8348 5.3125 9.77543 5.14062 9.76293C5.0375 9.75668 4.90937 9.76605 4.85625 9.78168ZM6.53125 10.9848C7.30625 11.3723 7.96562 11.6879 8 11.6879C8.03437 11.6879 8.69375 11.3723 9.46875 10.9848C10.2437 10.5973 10.9031 10.2817 10.9344 10.2817C11.0375 10.2817 11.1625 10.4129 11.2687 10.6379C11.4781 11.0754 11.5781 10.9942 9.70312 11.9286C8.53125 12.5161 8.08125 12.7286 8 12.7286C7.91875 12.7286 7.46875 12.5161 6.29687 11.9286C4.42187 10.9942 4.52187 11.0754 4.73125 10.6379C4.8375 10.4129 4.9625 10.2817 5.06562 10.2817C5.09687 10.2817 5.75625 10.5973 6.53125 10.9848Z" fill="#016DEA"/>
</svg>
