<svg width="24" height="24" viewBox="0 0 24 24" fill="none" xmlns="http://www.w3.org/2000/svg">
<circle cx="12" cy="12" r="11.6" fill="url(#paint0_linear_6707_200218)" stroke="#016DEA" stroke-width="0.8"/>
<path d="M12.7023 6.43749C12.5248 6.48749 12.2648 6.62749 12.1223 6.74999C12.0573 6.80499 11.9548 6.92499 11.8898 7.01749C11.2273 7.98749 11.9123 9.29999 13.0798 9.29999C13.3273 9.29999 13.4948 9.26499 13.7123 9.16249C14.4498 8.82499 14.7573 7.91999 14.3873 7.18749C14.2248 6.86249 13.9623 6.62749 13.6123 6.48749C13.4598 6.42499 13.3973 6.41499 13.1373 6.40749C12.9248 6.40249 12.7973 6.41249 12.7023 6.43749Z" fill="white"/>
<path d="M11.447 10.0875C11.087 10.145 10.6545 10.2475 10.2895 10.3675C9.81945 10.52 9.62945 10.6075 9.59945 10.685C9.58695 10.7175 9.54695 10.905 9.50695 11.0975L9.43945 11.45L9.48945 11.5175C9.55945 11.6125 9.65945 11.6175 9.94945 11.5375C10.107 11.4925 10.2795 11.4675 10.4645 11.4575C10.707 11.445 10.7545 11.45 10.8545 11.495C10.997 11.5575 11.0495 11.6325 11.0645 11.805C11.0795 11.9575 11.057 12.0575 10.692 13.3125C10.332 14.555 10.2095 15.155 10.182 15.7625C10.1595 16.3025 10.242 16.665 10.4495 16.9225C10.612 17.13 11.1345 17.425 11.517 17.53C11.762 17.595 12.2745 17.6175 12.5445 17.5775C12.957 17.5125 13.4545 17.3675 14.007 17.1525C14.3195 17.0275 14.302 17.05 14.4345 16.6C14.537 16.24 14.5445 16.17 14.4745 16.1C14.3945 16.02 14.3195 16.0175 14.097 16.0875C13.632 16.235 13.232 16.2575 13.0545 16.15C12.9095 16.06 12.887 15.9975 12.8895 15.675C12.8945 15.195 13.042 14.58 13.462 13.2425C13.5795 12.875 13.6945 12.47 13.717 12.3425C13.7745 12.025 13.7745 11.445 13.717 11.225C13.507 10.44 12.917 10.045 11.9645 10.0525C11.7995 10.055 11.5645 10.07 11.447 10.0875Z" fill="white"/>
<defs>
<linearGradient id="paint0_linear_6707_200218" x1="0.000483643" y1="12.0007" x2="24.0013" y2="12.0007" gradientUnits="userSpaceOnUse">
<stop stop-color="#016DEA"/>
<stop offset="0.334096" stop-color="#005FCD"/>
<stop offset="0.634882" stop-color="#0052B1"/>
<stop offset="1" stop-color="#003B7E"/>
</linearGradient>
</defs>
</svg>
