<svg width="24" height="24" viewBox="0 0 24 24" fill="none" xmlns="http://www.w3.org/2000/svg">
<g clip-path="url(#clip0_4804_82239)">
<path d="M21.5267 0.916031H20.7037C20.725 0.847878 20.747 0.779725 20.747 0.704244C20.747 0.315847 20.4304 0 20.0413 0C19.6521 0 19.337 0.315847 19.337 0.704244C19.337 0.780458 19.3575 0.847878 19.3803 0.916031H16.6835C16.7047 0.847878 16.7267 0.779725 16.7267 0.704244C16.7267 0.315847 16.4101 0 16.021 0C15.6326 0 15.316 0.315847 15.316 0.704244C15.316 0.780458 15.3373 0.847878 15.36 0.916031H12.6625C12.6837 0.847878 12.705 0.779725 12.705 0.704244C12.7042 0.315847 12.3891 0 12 0C11.6109 0 11.2957 0.315847 11.2957 0.704244C11.2957 0.780458 11.3163 0.847878 11.3383 0.916031H8.64073C8.66198 0.847878 8.68396 0.779725 8.68396 0.704244C8.68396 0.315847 8.36811 0 7.97972 0C7.59059 0 7.27474 0.315847 7.27474 0.704244C7.27474 0.780458 7.29526 0.847878 7.31724 0.916031H4.62045C4.64244 0.847878 4.66369 0.779725 4.66369 0.704244C4.66369 0.315847 4.34857 0 3.95944 0C3.57031 0 3.25447 0.315847 3.25447 0.704244C3.25447 0.780458 3.27499 0.847878 3.29697 0.916031H2.47327C1.36085 0.916031 0.458008 1.8196 0.458008 2.9313V21.9847C0.458008 23.0972 1.36085 24 2.47327 24H19.2513L23.542 19.7093V2.9313C23.542 1.8196 22.6391 0.916031 21.5267 0.916031ZM17.5079 3.12037L17.7754 4.00049C17.8054 4.10748 17.8428 4.23939 17.8641 4.33466H17.8758C17.9007 4.23939 17.93 4.10382 17.9557 4.00049L18.1755 3.12037H18.7728L18.355 4.30095C18.0986 5.01325 17.9256 5.29832 17.7255 5.4786C17.5299 5.64714 17.3247 5.7065 17.1869 5.72409L17.0697 5.25069C17.1393 5.23896 17.2272 5.20598 17.3115 5.15542C17.395 5.11072 17.4866 5.02278 17.5409 4.93118C17.5592 4.90553 17.5709 4.87621 17.5709 4.8513C17.5709 4.83298 17.5665 4.80366 17.5453 4.75896L16.8887 3.11963L17.5079 3.12037ZM16.0063 3.12037L16.0239 3.45087H16.0393C16.1309 3.19072 16.3515 3.08006 16.523 3.08006C16.5743 3.08006 16.5999 3.08006 16.6402 3.08739V3.61209C16.5999 3.60476 16.5523 3.5967 16.49 3.5967C16.2856 3.5967 16.1448 3.70663 16.1082 3.87957C16.1009 3.91621 16.0972 3.96018 16.0972 4.00489V4.91359H15.5395V3.71102C15.5395 3.44647 15.5322 3.27426 15.5249 3.11963L16.0063 3.12037ZM14.1223 3.46186C13.939 3.46186 13.7434 3.52415 13.6269 3.59744L13.5228 3.23835C13.6481 3.16873 13.8936 3.08079 14.219 3.08079C14.817 3.08079 15.0075 3.43255 15.0075 3.85539V4.47829C15.0075 4.65124 15.0156 4.81612 15.0332 4.91505H14.5319L14.4989 4.73624H14.4879C14.3707 4.87841 14.1875 4.95609 13.9742 4.95609C13.6122 4.95609 13.3946 4.69227 13.3946 4.40574C13.3946 3.93966 13.8137 3.71615 14.4484 3.71982V3.69417C14.4491 3.5967 14.3971 3.46186 14.1223 3.46186ZM11.2789 3.12037H11.8402V4.08476C11.8402 4.34492 11.9245 4.50247 12.1194 4.50247C12.2733 4.50247 12.3613 4.39621 12.3979 4.30828C12.4133 4.2753 12.4148 4.23133 12.4148 4.18736V3.11963H12.9776V4.33759C12.9776 4.57209 12.9849 4.76263 12.9922 4.91286H12.5086L12.4837 4.66003H12.4727C12.4016 4.76922 12.2338 4.95316 11.9106 4.95316C11.5471 4.95316 11.2796 4.72525 11.2796 4.17197L11.2789 3.12037ZM9.51645 3.12037L9.5421 3.3666H9.55309C9.62711 3.25301 9.81031 3.08006 10.1071 3.08006C10.4735 3.08006 10.7491 3.32189 10.7491 3.85026V4.91359H10.1906V3.92061C10.1906 3.68977 10.1108 3.53148 9.90851 3.53148C9.75462 3.53148 9.66228 3.63847 9.62637 3.74034C9.61098 3.77331 9.60366 3.82901 9.60366 3.87957V4.91359H9.04671V3.6927C9.04671 3.46846 9.03938 3.27866 9.03132 3.12037H9.51645ZM7.62943 3.46186C7.44549 3.46186 7.25129 3.52415 7.13404 3.59744L7.03144 3.23835C7.15602 3.16873 7.40152 3.08079 7.72763 3.08079C8.32488 3.08079 8.51615 3.43255 8.51615 3.85539V4.47829C8.51615 4.65124 8.52421 4.81612 8.54179 4.91505H8.03908L8.0061 4.73624H7.99511C7.87785 4.87841 7.69392 4.95609 7.4814 4.95609C7.11792 4.95609 6.90173 4.69227 6.90173 4.40574C6.90173 3.93966 7.31944 3.71615 7.9548 3.71982V3.69417C7.95553 3.5967 7.90424 3.46186 7.62943 3.46186ZM5.2756 4.44385C5.35254 4.4695 5.45147 4.48855 5.56213 4.48855C5.79663 4.48855 5.94393 4.38229 5.94393 3.99682V2.44177H6.50161V4.00489C6.50161 4.70913 6.16451 4.95463 5.62149 4.95463C5.49324 4.95463 5.3247 4.93264 5.21477 4.896L5.2756 4.44385ZM22.4427 19.2535L22.2148 19.4814H20.489C19.6815 19.4814 19.0234 20.1395 19.0234 20.9471V22.6729L18.7955 22.9008H2.47327C1.96836 22.9008 1.55724 22.4896 1.55724 21.9847V6.59542H22.4427V19.2535Z" fill="#016DEA"/>
<path d="M7.45312 4.34936C7.45312 4.49227 7.54839 4.56188 7.67297 4.56188C7.81221 4.56188 7.92653 4.47028 7.96317 4.35743C7.97123 4.32738 7.97416 4.2944 7.97416 4.26143V4.06649C7.67957 4.06356 7.45312 4.13318 7.45312 4.34936Z" fill="#016DEA"/>
<path d="M13.9463 4.34936C13.9463 4.49227 14.0416 4.56188 14.1669 4.56188C14.3054 4.56188 14.4197 4.47028 14.4563 4.35743C14.4637 4.32738 14.4688 4.2944 14.4688 4.26143V4.06649C14.1742 4.06356 13.9463 4.13318 13.9463 4.34936Z" fill="#016DEA"/>
<path d="M11.5613 17.8823C10.5075 17.8823 9.54898 17.5401 8.86819 17.1671L8.38086 19.0659C8.99716 19.4235 10.0524 19.7166 11.1399 19.7642V21.3061H12.7302V19.6514C14.5959 19.3267 15.6182 18.0927 15.6182 16.649C15.6182 15.1885 14.84 14.2952 12.9097 13.6129C11.5291 13.0933 10.9619 12.7518 10.9619 12.2176C10.9619 11.7625 11.3012 11.3089 12.3564 11.3089C13.5246 11.3089 14.2698 11.6819 14.6927 11.8607L15.1631 10.0272C14.6289 9.76778 13.8961 9.54061 12.8101 9.49151V8.06396H11.2206V9.6051C9.48376 9.94586 8.47906 11.0663 8.47906 12.4939C8.47906 14.0687 9.66257 14.8807 11.4001 15.4633C12.5997 15.87 13.1178 16.2591 13.1178 16.8769C13.1178 17.5255 12.4869 17.8823 11.5613 17.8823Z" fill="#016DEA"/>
</g>
<defs>
<clipPath id="clip0_4804_82239">
<rect width="24" height="24" fill="white"/>
</clipPath>
</defs>
</svg>
