<svg width="17" height="17" viewBox="0 0 17 17" fill="none" xmlns="http://www.w3.org/2000/svg">
<path d="M11.6296 5.03271L8.33291 1.72606M11.6296 5.03271H9.42602C8.82231 5.03271 8.33291 4.54331 8.33291 3.9396V1.72606M11.6296 5.03271V7.79281M8.33291 1.72606H3.43198C2.82827 1.72606 2.33887 2.21546 2.33887 2.81917V12.5752C2.33887 13.1789 2.82827 13.6683 3.43198 13.6683H7.95147" stroke="#016DEA" stroke-linecap="round" stroke-linejoin="round"/>
<path d="M4.19141 7.43756H7.56987" stroke="#016DEA" stroke-linecap="round" stroke-linejoin="round"/>
<path d="M4.19141 8.91324H8.11478" stroke="#016DEA" stroke-linecap="round" stroke-linejoin="round"/>
<path d="M4.19141 10.4163H7.29741" stroke="#016DEA" stroke-linecap="round" stroke-linejoin="round"/>
<path d="M14.0995 11.5094C14.0995 13.3476 12.6142 14.8353 10.7851 14.8353C8.95602 14.8353 7.4707 13.3476 7.4707 11.5094C7.4707 9.67113 8.95602 8.1835 10.7851 8.1835C12.6142 8.1835 14.0995 9.67113 14.0995 11.5094Z" stroke="#016DEA"/>
<path d="M10.7852 9.21384V13.8231" stroke="#016DEA" stroke-linecap="round" stroke-linejoin="round"/>
<path d="M11.829 10.0519H10.2623C10.0684 10.0519 9.88249 10.1292 9.74538 10.2667C9.60828 10.4042 9.53125 10.5907 9.53125 10.7852C9.53125 10.9797 9.60828 11.1662 9.74538 11.3037C9.88249 11.4412 10.0684 11.5185 10.2623 11.5185H11.3068C11.5007 11.5185 11.6866 11.5958 11.8237 11.7333C11.9608 11.8708 12.0378 12.0573 12.0378 12.2518C12.0378 12.4463 11.9608 12.6328 11.8237 12.7703C11.6866 12.9078 11.5007 12.9851 11.3068 12.9851H9.53125" stroke="#016DEA" stroke-linecap="round" stroke-linejoin="round"/>
</svg>
