<svg width="50" height="50" viewBox="0 0 50 50" fill="none" xmlns="http://www.w3.org/2000/svg">
<path d="M18.0469 1.99219C15.2734 3.39844 14.4922 5.19531 14.0625 11.4062C13.8672 14.2578 13.7109 18.75 13.6719 21.3672C13.6719 25.8984 13.6328 26.1719 12.8906 26.1719C12.1484 26.1719 12.1094 25.8984 12.1094 21.6797V17.1875H9.76562C7.69531 17.1875 7.42188 17.2656 7.42188 17.9688C7.42188 18.6328 7.69531 18.75 8.98438 18.75H10.5469V24.375C10.5469 30 10.5469 30.0391 11.5625 30.8203C12.4609 31.5234 13.1641 31.6406 17.0312 31.6406H21.4844V32.7344C21.4844 34.0625 22.1094 34.7656 23.3203 34.7656C23.9453 34.7656 24.2188 35 24.2188 35.4688C24.2188 36.0547 23.2422 36.4844 19.2578 37.6953C12.9688 39.5703 12.8906 39.6094 12.8906 41.0156C12.8906 41.7578 12.4609 42.5391 11.6797 43.3594C10.625 44.4141 10.4688 44.7656 10.6641 46.0156C10.9766 47.7734 12.1484 48.8281 13.8281 48.8281C16.9531 48.7891 18.2422 44.9219 15.7422 43.0078C14.0234 41.6406 14.6875 41.0156 19.3359 39.6094C21.7188 38.8672 23.75 38.2812 23.9453 38.2812C24.1016 38.2812 24.2188 39.2578 24.2188 40.4297C24.2188 41.6016 24.0625 42.5781 23.8281 42.5781C22.8906 42.5781 21.875 44.1797 21.875 45.6641C21.875 48.4375 24.8828 49.7656 27.1094 48.0078C27.8906 47.3828 28.125 46.875 28.125 45.6641C28.125 44.1797 27.1094 42.5781 26.1719 42.5781C25.9766 42.5781 25.7812 41.6016 25.7812 40.3906C25.7812 37.8516 25.4297 37.8906 31.4453 39.8047C35.3125 41.0547 35.8594 41.7188 34.2578 43.0078C31.7188 44.9609 33.0469 48.7891 36.25 48.8281C39.2188 48.8281 40.4688 45.4688 38.3203 43.3203C37.6172 42.6172 37.1094 41.6797 37.0312 40.8984L36.9141 39.6484L31.3672 37.9297C26.9141 36.5234 25.7812 36.0156 25.7812 35.4688C25.7812 35 26.0938 34.7656 26.6797 34.7656C27.8906 34.7656 28.5156 34.0625 28.5156 32.7344V31.6406H32.9688C36.8359 31.6406 37.5391 31.5234 38.4375 30.8203C39.4531 30.0391 39.4531 30 39.4531 24.375V18.75H41.0156C42.3047 18.75 42.5781 18.6328 42.5781 17.9688C42.5781 17.2656 42.3047 17.1875 40.2344 17.1875H37.8906V21.6797C37.8906 25.8984 37.8516 26.1719 37.1094 26.1719C36.3672 26.1719 36.3281 25.8984 36.3281 21.7578C36.2891 14.6484 35.6641 6.44531 35.0391 5.19531C34.2578 3.75 32.5 2.10938 31.1328 1.60156C30.5078 1.36719 27.6953 1.17188 24.8828 1.17188C20.4297 1.17188 19.4922 1.28906 18.0469 1.99219ZM31.2109 3.71094C33.8281 5.23438 34.1016 6.40625 34.2969 16.6016L34.4922 25.625L32.1875 25.3516C30.8984 25.1953 27.6953 25.0781 25 25.0781C22.3047 25.0781 19.1016 25.1953 17.8125 25.3516L15.5078 25.625L15.7031 16.6406C15.9375 5.54688 16.2109 4.60938 19.8047 3.28125C22.1094 2.42188 29.4922 2.69531 31.2109 3.71094ZM29.6875 26.9531C37.1094 27.6172 38.125 27.8906 37.6562 29.0234C37.4219 29.6094 36.25 29.6875 25 29.6875C13.75 29.6875 12.5781 29.6094 12.3438 29.0234C11.9531 28.0859 12.5781 27.8516 16.7578 27.3828C24.1406 26.5234 24.5703 26.4844 29.6875 26.9531Z" fill="#016DEA"/>
<path d="M22.6166 9.72656C21.3276 11.0547 21.0541 12.8906 22.187 12.8906C22.5776 12.8906 23.0463 12.4219 23.3198 11.7188C23.6713 10.7812 23.9838 10.5469 24.9604 10.5469C25.7416 10.5469 26.2885 10.8203 26.562 11.2891C27.1088 12.3047 27.1479 12.2266 25.5854 14.0625C23.9838 15.9766 23.7104 17.9688 24.9995 17.9688C25.5073 17.9688 25.7807 17.6953 25.7807 17.1875C25.7807 16.7969 26.4057 15.8203 27.1479 15.0781C28.2416 13.9844 28.5151 13.3984 28.5151 12.1875C28.5151 8.86719 24.9604 7.42188 22.6166 9.72656Z" fill="#016DEA"/>
</svg>
