<svg width="24" height="24" viewBox="0 0 24 24" fill="none" xmlns="http://www.w3.org/2000/svg">
<g clip-path="url(#clip0_22_7286)">
<path d="M10.4767 0.754638C10.2657 0.810888 9.96103 1.09214 9.84853 1.32651C9.75947 1.50933 9.75009 1.61245 9.75009 2.39526V3.25776L9.36572 3.38901C9.15009 3.46401 8.81728 3.60464 8.62509 3.70308L8.27353 3.8812L7.66416 3.2812C7.12509 2.75151 7.02666 2.67183 6.80166 2.6062C6.48291 2.51245 6.36103 2.51245 6.04697 2.6062C5.81728 2.67651 5.71416 2.76089 4.86572 3.59995C3.81572 4.63589 3.70322 4.79995 3.70322 5.2687C3.70791 5.69526 3.81572 5.87808 4.44853 6.52964L5.01572 7.11089L4.83291 7.51401C4.72978 7.73433 4.60322 8.06245 4.54228 8.24058L4.43916 8.57339L3.51103 8.58745L2.58759 8.60151L2.38603 8.74214C2.27353 8.82183 2.11884 8.97651 2.03916 9.08901L1.89853 9.29058L1.88447 10.7484C1.87509 11.9812 1.88447 12.239 1.94541 12.4031C2.07666 12.7453 2.43291 13.0265 2.82666 13.0968L3.00009 13.1296V12.7265C3.00009 12.3515 2.99541 12.3234 2.89228 12.2859C2.65791 12.1968 2.64853 12.15 2.63447 11.0203C2.61572 9.83901 2.63916 9.59526 2.77041 9.46401C2.85478 9.37964 2.93447 9.37495 3.95634 9.37495H5.05322L5.10947 9.12651C5.25009 8.54058 5.61572 7.6687 5.93916 7.15776L6.05634 6.97495L5.27822 6.19214C4.63603 5.54058 4.50009 5.38589 4.50009 5.27339C4.50009 5.16089 4.64541 4.99214 5.38134 4.2562C5.86416 3.7687 6.30478 3.36089 6.36103 3.34683C6.52509 3.30464 6.64228 3.39839 7.41103 4.15776L8.14228 4.87964L8.39072 4.73433C8.94384 4.41089 9.59541 4.13433 10.2329 3.9562L10.5001 3.88589V2.91558C10.5001 1.90308 10.5376 1.62651 10.6876 1.54683C10.8048 1.48589 13.1954 1.48589 13.3126 1.54683C13.4626 1.62651 13.5001 1.90308 13.5001 2.91558V3.88589L13.772 3.9562C14.4048 4.13433 15.0563 4.41089 15.6095 4.73433L15.8579 4.87964L16.5892 4.15776C17.3579 3.39839 17.4751 3.30464 17.6392 3.34683C17.6954 3.36089 18.136 3.7687 18.6235 4.2562C19.3548 4.99214 19.5001 5.16089 19.5001 5.27339C19.5001 5.38589 19.3642 5.54058 18.722 6.18745L17.9438 6.97026L18.0892 7.20464C18.3517 7.62651 18.647 8.31089 18.8063 8.84526L18.961 9.37495H20.0532C21.0657 9.37495 21.1454 9.37964 21.2298 9.46401C21.361 9.59526 21.3845 9.83901 21.3657 11.0203C21.3517 12.15 21.3423 12.1968 21.1079 12.2859C21.0048 12.3234 21.0001 12.3515 21.0001 12.7265V13.1296L21.1782 13.0968C21.5579 13.0265 21.8813 12.7828 22.036 12.4453C22.1157 12.2765 22.1251 12.1125 22.1251 10.8328C22.1251 9.47808 22.1204 9.3937 22.0267 9.20151C21.9095 8.95308 21.6235 8.70464 21.3798 8.63433C21.272 8.60151 20.8688 8.57808 20.3813 8.57808H19.5657L19.4813 8.3062C19.4345 8.16089 19.3032 7.82808 19.1907 7.57495L18.9845 7.11089L19.5517 6.52964C20.1845 5.87808 20.2923 5.69526 20.297 5.2687C20.297 4.79995 20.1845 4.63589 19.1345 3.59995C18.286 2.76089 18.1829 2.67651 17.9532 2.6062C17.6392 2.51245 17.5173 2.51245 17.1985 2.6062C16.9735 2.67183 16.8751 2.75151 16.336 3.27651L15.7267 3.87651L15.3751 3.69839C15.1829 3.60464 14.8501 3.46401 14.6392 3.38901L14.2501 3.25776V2.39526C14.2501 1.61245 14.2407 1.50933 14.1517 1.32651C14.0345 1.07808 13.7485 0.829638 13.5048 0.759326C13.2892 0.693701 10.697 0.689013 10.4767 0.754638Z" fill="white"/>
<path d="M11.0484 5.64839C8.89688 6.0562 7.22813 7.71558 6.82031 9.85776C6.78281 10.0593 6.75 10.3734 6.75 10.5562V10.8796L7.13906 10.8656L7.52344 10.8515L7.55625 10.4484C7.69688 8.60151 9.04219 7.00776 10.8844 6.5062C11.4469 6.35151 12.5531 6.35151 13.1156 6.5062C14.9578 7.00776 16.3031 8.60151 16.4438 10.4484L16.4766 10.8515L16.8656 10.8656L17.25 10.8796V10.5562C17.25 9.39839 16.6453 8.02026 15.7313 7.11089C15.1031 6.48276 14.1891 5.95776 13.3359 5.73745C12.7406 5.58276 11.6297 5.54058 11.0484 5.64839Z" fill="white"/>
<path d="M11.3437 9.4172C10.6921 9.62814 10.2374 10.0219 9.94682 10.6266C9.79213 10.9594 9.77338 11.0344 9.75932 11.4656C9.73119 12.2156 9.91869 12.7125 10.4156 13.2094C11.2406 14.0344 12.6609 14.0672 13.5046 13.2797C14.0578 12.7688 14.2734 12.2297 14.2406 11.4516C14.2265 11.0391 14.2078 10.9547 14.0484 10.6266C13.6593 9.80158 12.8953 9.32345 11.9812 9.33283C11.7515 9.33283 11.4984 9.36564 11.3437 9.4172ZM12.6187 10.2563C13.3546 10.6172 13.6687 11.5078 13.3124 12.225C12.7593 13.3219 11.2406 13.3219 10.6874 12.225C10.3078 11.4563 10.6921 10.5094 11.5171 10.1953C11.789 10.0922 12.3468 10.125 12.6187 10.2563Z" fill="white"/>
<path d="M4.96869 10.9172C4.31713 11.1281 3.86244 11.5219 3.57182 12.1266C3.41713 12.4594 3.39838 12.5344 3.38432 12.9656C3.35619 13.7156 3.54369 14.2125 4.04057 14.7094C4.86557 15.5344 6.28588 15.5672 7.12963 14.7797C7.68276 14.2688 7.89838 13.7297 7.86557 12.9516C7.85151 12.5391 7.83276 12.4547 7.67338 12.1266C7.28432 11.3016 6.52025 10.8235 5.60619 10.8328C5.37651 10.8328 5.12338 10.8656 4.96869 10.9172ZM6.24369 11.7563C6.97963 12.1172 7.29369 13.0078 6.93744 13.725C6.38432 14.8219 4.86557 14.8219 4.31244 13.725C3.93276 12.9563 4.31713 12.0094 5.14213 11.6953C5.41401 11.5922 5.97182 11.625 6.24369 11.7563Z" fill="white"/>
<path d="M17.7187 10.9172C17.0671 11.1281 16.6124 11.5219 16.3218 12.1266C16.1671 12.4594 16.1484 12.5344 16.1343 12.9656C16.1062 13.7156 16.2937 14.2125 16.7906 14.7094C17.6156 15.5344 19.0359 15.5672 19.8796 14.7797C20.4328 14.2688 20.6484 13.7297 20.6156 12.9516C20.6015 12.5391 20.5828 12.4547 20.4234 12.1266C20.0343 11.3016 19.2703 10.8235 18.3562 10.8328C18.1265 10.8328 17.8734 10.8656 17.7187 10.9172ZM18.9937 11.7563C19.7296 12.1172 20.0437 13.0078 19.6874 13.725C19.1343 14.8219 17.6156 14.8219 17.0624 13.725C16.6828 12.9563 17.0671 12.0094 17.8921 11.6953C18.164 11.5922 18.7218 11.625 18.9937 11.7563Z" fill="white"/>
<path d="M9.66562 14.2921C8.98593 14.4609 8.31093 14.8921 7.8703 15.4359L7.65468 15.7078L5.66718 15.7031C3.8203 15.7031 3.65155 15.7078 3.30468 15.7968C2.31093 16.0453 1.52343 16.6875 1.07812 17.6015C0.773428 18.2296 0.740616 18.4406 0.759366 19.9171C0.773428 21.1265 0.782803 21.2296 0.881241 21.4921C1.10155 22.0828 1.55155 22.6031 2.10937 22.9125C2.66249 23.2171 2.67187 23.2218 5.00624 23.2406L7.12499 23.2546V22.8562V22.4531H5.43749H3.74999V20.3906V18.3281H3.37499H2.99999V20.3625V22.4015L2.85937 22.3593C2.59687 22.2843 2.2453 22.0593 2.03437 21.8343C1.58437 21.3515 1.47655 20.8687 1.51405 19.5234C1.5328 18.8343 1.55624 18.6187 1.64062 18.3515C1.84687 17.6953 2.3203 17.114 2.90155 16.8093C3.46874 16.514 3.57187 16.5 5.52187 16.5H7.27499L7.24687 16.6031C7.13437 17.0062 7.1203 17.2968 7.13437 19.5L7.14843 21.8671L7.27499 22.1343C7.52812 22.6781 8.06718 23.0906 8.66718 23.2031C8.80312 23.2265 9.19218 23.25 9.5203 23.25H10.125V20.2265V17.2031H9.74999H9.37499V19.8281V22.4531H9.14999C8.64374 22.4531 8.25937 22.2421 8.03437 21.8343L7.89843 21.5859V19.3828V17.1796L8.02968 16.814C8.26874 16.1343 8.70468 15.6093 9.28124 15.3093C9.84843 15.0093 9.93749 15 12 15C14.0391 15 14.1375 15.0093 14.6812 15.2859C15.0234 15.4593 15.4641 15.8625 15.6844 16.2046C15.7734 16.3359 15.9 16.6125 15.9703 16.814L16.1016 17.1796V19.3828V21.5859L15.9656 21.8343C15.7406 22.2421 15.3562 22.4531 14.85 22.4531H14.625V19.8281V17.2031H14.25H13.875V20.2265V23.25H14.4797C14.8078 23.25 15.1969 23.2265 15.3328 23.2031C15.9328 23.0906 16.4719 22.6781 16.725 22.1343L16.8516 21.8671L16.8656 19.4906C16.875 17.475 16.8656 17.0718 16.8047 16.8328C16.7672 16.6828 16.7344 16.5421 16.7344 16.5281C16.7344 16.514 17.5219 16.5 18.4828 16.5C20.4 16.5 20.5125 16.514 21.0562 16.7859C21.3984 16.9593 21.8391 17.3625 22.0594 17.7046C22.1484 17.8359 22.2703 18.1125 22.3406 18.314C22.4484 18.6375 22.4672 18.7734 22.4859 19.5234C22.5234 20.8734 22.4156 21.3562 21.9656 21.8343C21.7547 22.0593 21.4031 22.2843 21.1406 22.3593L21 22.4015V20.3625V18.3281H20.625H20.25V20.3906V22.4531H18.5625H16.875V22.8562V23.2546L18.9984 23.2406C20.8734 23.2218 21.1453 23.2125 21.375 23.1375C22.2234 22.8656 22.8797 22.2187 23.1328 21.4125C23.2453 21.0562 23.25 20.9906 23.25 19.8093C23.25 18.7359 23.2359 18.5296 23.1562 18.2156C22.8562 17.0343 21.9047 16.1015 20.6953 15.7968C20.3484 15.7078 20.1797 15.7031 18.3328 15.7031L16.3453 15.7078L16.0922 15.3984C15.6422 14.8546 15.0469 14.4843 14.325 14.2968C13.9781 14.2078 13.8141 14.2031 11.9812 14.2078C10.2516 14.2078 9.96562 14.2218 9.66562 14.2921Z" fill="white"/>
<path d="M10.5 22.8516V23.25H12H13.5V22.8516V22.4531H12H10.5V22.8516Z" fill="white"/>
</g>
<defs>
<clipPath id="clip0_22_7286">
<rect width="24" height="24" fill="white"/>
</clipPath>
</defs>
</svg>
