<svg width="24" height="24" viewBox="0 0 24 24" fill="none" xmlns="http://www.w3.org/2000/svg">
<g clip-path="url(#clip0_4907_93292)">
<path d="M2.75156 0.726562C1.90312 1.05 1.52812 2.0625 1.96406 2.84062C2.04844 2.98594 2.10937 3.10781 2.1 3.1125C1.89844 3.22031 1.49531 3.53437 1.34531 3.70312C0.890625 4.20937 0.703125 4.75312 0.703125 5.56406C0.703125 6.05156 0.7125 6.09375 0.80625 6.15937C0.9 6.225 1.20937 6.23438 3.24844 6.23438H5.58281L5.70469 6.1125C5.82187 5.99531 5.82656 5.98594 5.80312 5.42344C5.775 4.78594 5.67187 4.42031 5.39062 3.98906C5.21719 3.71719 4.86094 3.37969 4.56094 3.20156C4.37344 3.09375 4.35937 3.075 4.425 3.00469C4.57969 2.83594 4.70156 2.46562 4.70625 2.15625C4.71094 1.57031 4.43906 1.09687 3.93281 0.820312C3.72656 0.707812 3.61406 0.684375 3.30469 0.670312C3.05625 0.660937 2.86875 0.679688 2.75156 0.726562ZM3.53437 1.47187C4.07344 1.69687 4.08281 2.47031 3.55312 2.74687C3.09844 2.98125 2.5875 2.69062 2.54531 2.17031C2.50312 1.63125 3.02812 1.26094 3.53437 1.47187ZM3.56719 3.65625C4.35 3.80625 4.95 4.4625 5.04375 5.27344L5.07656 5.53125H3.25781H1.43906L1.4625 5.22656C1.52344 4.5 2.0625 3.88594 2.82656 3.67969C3.12656 3.6 3.24375 3.59531 3.56719 3.65625Z" fill="white"/>
<path d="M11.6116 0.750048C11.0584 0.965673 10.7303 1.42036 10.6975 2.02036C10.6741 2.41411 10.7256 2.6438 10.8991 2.91098L11.0116 3.08442L10.7163 3.27661C10.3413 3.52036 9.9522 3.93755 9.78814 4.27505C9.58657 4.68286 9.51626 5.02973 9.51626 5.58286C9.51626 6.30005 9.48345 6.2813 10.6928 6.2813H11.6256V7.12505V7.9688H11.4428C10.9038 7.9688 9.86782 8.1938 9.1647 8.46567C8.37251 8.77505 7.70689 9.17348 6.97564 9.78755C6.61939 10.0875 6.54439 10.1297 6.49751 10.0735C6.46939 10.036 5.89282 9.32348 5.21314 8.49848C3.90532 6.90005 3.84439 6.8438 3.58189 6.98442C3.43657 7.06411 3.34751 7.28911 3.40376 7.43442C3.4272 7.49536 4.00376 8.22661 4.68814 9.05161C5.37251 9.8813 5.95845 10.5985 5.99126 10.6454C6.03814 10.7157 6.0147 10.7766 5.7897 11.086C5.49439 11.4985 5.46157 11.6813 5.6397 11.85C5.74751 11.9532 6.0147 11.9907 6.12251 11.9157C6.15532 11.8969 6.31001 11.7047 6.47407 11.4844C7.51001 10.0829 9.02876 9.13598 10.8053 8.78442C11.3913 8.66723 12.7038 8.66723 13.2803 8.77973C14.0959 8.9438 15.0944 9.33755 15.7225 9.74067C17.3303 10.7766 18.4413 12.3704 18.8491 14.2172C18.9569 14.6954 19.0178 15.8485 18.9616 16.2891L18.9288 16.5563L18.6241 16.0969C18.4553 15.8391 18.2725 15.586 18.2209 15.525C18.0897 15.3797 17.8178 15.3844 17.6819 15.5297C17.4803 15.7454 17.5272 15.8672 18.2116 16.8704C18.5584 17.3813 18.8725 17.8219 18.91 17.8547C19.0741 17.9907 19.2991 17.925 19.7491 17.6204C20.8178 16.8938 21.0756 16.711 21.1788 16.6266C21.3241 16.4954 21.3194 16.2235 21.1741 16.0875C20.9866 15.9141 20.8225 15.9516 20.2881 16.3032C20.0256 16.4766 19.7866 16.636 19.7584 16.65C19.7256 16.6688 19.7116 16.3172 19.7116 15.6422C19.7069 14.7422 19.6928 14.536 19.5991 14.1094C19.3694 13.0266 18.9147 11.9813 18.31 11.1375L18.01 10.7204L18.8819 9.66098C19.36 9.07973 19.96 8.35317 20.2131 8.0438C20.6163 7.5563 20.6725 7.46723 20.6725 7.31255C20.6725 7.01255 20.3631 6.83911 20.1241 7.00786C20.0678 7.05005 19.4538 7.77661 18.76 8.62505L17.4991 10.1672L17.3397 9.99848C17.0303 9.67505 16.1959 9.0938 15.61 8.7938C14.7194 8.33442 13.7444 8.03911 12.7881 7.94536L12.4694 7.91255V7.07348V6.23442H13.4725C14.7006 6.23442 14.6866 6.2438 14.71 5.70942C14.7616 4.69223 14.3491 3.80161 13.5944 3.30005L13.2709 3.08442L13.3834 2.91098C13.5569 2.6438 13.6084 2.41411 13.585 2.02036C13.5475 1.41099 13.2194 0.956297 12.6709 0.750048C12.3522 0.63286 11.9163 0.628172 11.6116 0.750048ZM12.3756 1.47661C12.4506 1.51411 12.5725 1.62661 12.6428 1.72036C12.985 2.17036 12.6334 2.81255 12.0428 2.81255C11.8459 2.81255 11.785 2.78911 11.6303 2.6438C11.3256 2.37192 11.2741 2.02973 11.4991 1.72036C11.7006 1.42974 12.0803 1.32661 12.3756 1.47661ZM12.8772 3.79223C13.4303 4.08755 13.81 4.63598 13.8616 5.20786L13.8897 5.48442H12.0709H10.2522L10.2803 5.20786C10.3084 4.86567 10.4772 4.4813 10.7116 4.22348C10.9413 3.97036 11.1053 3.85317 11.4334 3.71723C11.6584 3.62348 11.7569 3.60942 12.1413 3.62348C12.5397 3.63286 12.6147 3.65161 12.8772 3.79223Z" fill="white"/>
<path d="M20.2921 0.717187C19.6499 0.95625 19.289 1.48125 19.2937 2.15625C19.2937 2.46562 19.4155 2.83125 19.5749 3.00469C19.6405 3.075 19.6265 3.09375 19.439 3.20156C19.139 3.37969 18.7827 3.71719 18.6093 3.98906C18.328 4.42031 18.2249 4.78594 18.1968 5.42344C18.1733 5.98594 18.178 5.99531 18.2952 6.1125L18.4171 6.23438H20.7655C23.0858 6.23438 23.1093 6.23438 23.2077 6.13594C23.3015 6.04219 23.3062 6 23.2874 5.39531C23.2687 4.88906 23.2452 4.70625 23.1655 4.5C22.9733 4.00781 22.5327 3.47812 22.1249 3.24375C22.0077 3.17812 21.9093 3.11719 21.8999 3.1125C21.8905 3.10781 21.9562 2.98125 22.0405 2.83125C22.1858 2.57344 22.1952 2.52187 22.1952 2.13281C22.1952 1.78594 22.1765 1.67344 22.0874 1.49062C21.9468 1.20937 21.6655 0.923437 21.389 0.792187C21.1171 0.660937 20.5452 0.623437 20.2921 0.717187ZM21.0937 1.50937C21.4499 1.75312 21.5671 2.14219 21.3655 2.4375C21.178 2.71406 20.9718 2.82187 20.6765 2.79844C20.4562 2.78437 20.3999 2.75625 20.2687 2.61094C19.9968 2.31562 19.978 1.96406 20.2124 1.66406C20.4187 1.40156 20.8265 1.33125 21.0937 1.50937ZM21.3937 3.75C22.0499 3.99844 22.5468 4.67344 22.5468 5.32969V5.53125H20.7374H18.9233L18.9562 5.27344C19.003 4.85625 19.153 4.52344 19.4296 4.22812C19.9546 3.66094 20.6812 3.48281 21.3937 3.75Z" fill="white"/>
<path d="M12.9284 10.1672C12.7175 10.2375 12.4831 10.4016 12.3191 10.5891L12.1644 10.7672L11.8128 10.725C11.1613 10.65 10.3925 10.7672 9.86282 11.0156C9.49251 11.1938 9.07532 11.5735 8.93001 11.8594C8.6347 12.4453 8.66282 13.3969 8.99564 14.1516C9.10814 14.4 9.14095 14.55 9.1597 14.9063C9.17376 15.15 9.21126 15.4453 9.24876 15.5625C9.42689 16.1531 9.81595 16.6781 10.3081 17.0016L10.58 17.1797L10.3784 17.6485L10.1816 18.1172L9.57689 18.1453C8.91126 18.1781 8.66751 18.2485 8.21751 18.5438C7.68782 18.9 7.31282 19.5141 7.20501 20.2031L7.14407 20.5922L6.85345 20.2688C5.60189 18.9 4.95032 16.95 5.11439 15.0844C5.13782 14.7703 5.17532 14.4891 5.19407 14.4563C5.21282 14.4188 5.34876 14.5875 5.55501 14.9063C5.93939 15.511 6.10814 15.6235 6.36595 15.4406C6.52532 15.3281 6.5722 15.1641 6.4972 14.986C6.41751 14.7891 5.31595 13.1719 5.19407 13.0641C4.9972 12.8953 4.87064 12.9516 3.87689 13.6266C3.35657 13.9782 2.90657 14.3016 2.87376 14.3391C2.78939 14.4516 2.80345 14.6813 2.90189 14.8125C2.9722 14.9016 3.03782 14.9297 3.17376 14.925C3.31907 14.925 3.44095 14.8641 3.86282 14.5641C4.14407 14.3672 4.38314 14.2125 4.39251 14.2172C4.3972 14.2266 4.38314 14.3531 4.3597 14.5031C4.18157 15.5953 4.28939 16.8797 4.64564 18C5.45189 20.5172 7.52376 22.4625 10.0972 23.1094C10.8519 23.3016 11.4753 23.3625 12.3284 23.3297C13.505 23.2828 14.3675 23.0625 15.4456 22.5235C16.7722 21.8625 17.8503 20.8641 18.6284 19.575C18.905 19.125 18.9378 18.961 18.7972 18.7828C18.7034 18.6656 18.6659 18.6516 18.4784 18.6656C18.2909 18.6797 18.2488 18.6985 18.1644 18.8344C17.8034 19.4156 17.4988 19.8563 17.2222 20.1797L16.9034 20.55L16.8706 20.3906C16.8519 20.3016 16.8144 20.1047 16.7816 19.9594C16.6128 19.1063 15.83 18.3328 14.9628 18.1453C14.8269 18.1172 14.5316 18.0938 14.3066 18.0938H13.8988L13.6784 17.5172L13.4534 16.9406L13.7253 16.6594C14.1941 16.1625 14.4378 15.5578 14.4378 14.8688C14.4378 14.5031 14.4472 14.461 14.6675 14.025C15.0659 13.2235 15.3003 12.4032 15.2722 11.8828C15.2441 11.2547 14.7941 10.6313 14.1425 10.3125C13.8706 10.1813 13.7581 10.1531 13.4394 10.1391C13.2284 10.1344 12.9988 10.1485 12.9284 10.1672ZM13.8191 10.9406C14.105 11.086 14.4003 11.4047 14.5081 11.686C14.5831 11.8828 14.5878 11.9438 14.5316 12.1782C14.4659 12.4875 14.1753 13.4016 14.1144 13.4953C14.0863 13.5422 14.0253 13.486 13.8847 13.2844C13.5425 12.7782 13.7394 12.8203 11.7425 12.8203H9.98939L9.85345 12.9516C9.77845 13.0266 9.67532 13.1719 9.62845 13.2797L9.53939 13.4719L9.50657 13.2844C9.4597 13.0078 9.46439 12.5625 9.52064 12.361C9.70814 11.6766 10.8894 11.2735 12.0706 11.4891C12.4738 11.5641 12.5769 11.5266 12.7691 11.2407C12.8581 11.1094 12.9894 10.9641 13.0644 10.9172C13.2472 10.7953 13.5472 10.8047 13.8191 10.9406ZM13.3784 13.9922C13.7206 14.4844 13.7394 14.5641 13.6363 15.1219C13.5191 15.75 13.1066 16.2844 12.53 16.561C12.2441 16.6922 12.1644 16.711 11.7894 16.711C11.3909 16.711 11.3394 16.7016 11.0066 16.5328C10.5894 16.3266 10.2519 15.9891 10.0503 15.5766C9.93782 15.3516 9.91439 15.2344 9.90032 14.8594L9.88157 14.4094L10.0972 13.9781L10.3128 13.5469H11.6909H13.0691L13.3784 13.9922ZM12.9941 17.911C13.1113 18.2297 13.2144 18.5203 13.2144 18.5531C13.2191 18.6141 12.0706 20.2172 12.0097 20.236C11.9769 20.25 10.8941 18.7688 10.8144 18.6094C10.7863 18.5578 10.8566 18.3516 11.0206 17.9719L11.2691 17.4141L11.7425 17.4281C12.0472 17.4375 12.2909 17.4188 12.4456 17.3766C12.5769 17.3391 12.6988 17.3156 12.7269 17.3203C12.7503 17.325 12.8722 17.5875 12.9941 17.911ZM10.8659 20.0156C11.3159 20.6344 11.7097 21.1735 11.7472 21.211C11.7894 21.2485 11.9019 21.2813 12.0003 21.2813C12.2253 21.2813 12.23 21.2766 13.1956 19.9266L13.9456 18.8813L14.4144 18.9C14.9909 18.9188 15.2347 19.0219 15.6144 19.411C15.9753 19.7719 16.0784 20.0578 16.1113 20.7422L16.1347 21.2578L15.7878 21.4782C15.0566 21.9469 14.2503 22.275 13.3925 22.4625C12.6988 22.6125 11.3019 22.6125 10.6081 22.4625C9.74564 22.275 9.03782 21.9844 8.26439 21.5016L7.87532 21.2578V20.9297C7.87532 20.0578 8.10501 19.5469 8.66282 19.1625C8.95345 18.961 9.19251 18.8953 9.65657 18.8953L10.055 18.8906L10.8659 20.0156Z" fill="white"/>
</g>
<defs>
<clipPath id="clip0_4907_93292">
<rect width="24" height="24" fill="white"/>
</clipPath>
</defs>
</svg>
