<svg width="16" height="17" viewBox="0 0 16 17" fill="none" xmlns="http://www.w3.org/2000/svg">
<path d="M0.941114 1.09375C0.569238 1.22812 0.294238 1.47812 0.116113 1.84062L0.0161133 2.04687V7V11.9531L0.116113 12.1594C0.297363 12.5281 0.572363 12.775 0.953614 12.9062C1.12861 12.9656 1.21611 12.9687 3.53174 12.9687H5.92862L5.75674 14L5.58487 15.0312H5.20674C4.88799 15.0312 4.81299 15.0406 4.73799 15.0906C4.59424 15.1875 4.53174 15.3062 4.53174 15.5C4.53174 15.6937 4.59424 15.8125 4.73799 15.9094C4.82549 15.9656 4.94424 15.9688 8.00049 15.9688C11.0567 15.9688 11.1755 15.9656 11.263 15.9094C11.4067 15.8125 11.4692 15.6937 11.4692 15.5C11.4692 15.3062 11.4067 15.1875 11.263 15.0906C11.188 15.0406 11.113 15.0312 10.7942 15.0312H10.4161L10.2442 14L10.0724 12.9687L12.5286 12.9625L14.9849 12.9531L15.2036 12.8469C15.4911 12.7062 15.738 12.4594 15.8786 12.1719L15.9849 11.9531V7V2.04687L15.8786 1.82812C15.738 1.54062 15.4911 1.29375 15.2036 1.15312L14.9849 1.04687L8.04737 1.04062C1.26299 1.03437 1.10674 1.03437 0.941114 1.09375ZM7.53174 2.31875C7.53174 2.70625 7.56299 2.79375 7.73799 2.90937C7.85987 2.99062 8.14112 2.99062 8.26299 2.90937C8.43799 2.79375 8.46924 2.70625 8.46924 2.31875V1.96875L11.588 1.975L14.7036 1.98437L14.813 2.05312C14.8724 2.09062 14.9505 2.16875 14.9849 2.225C15.0474 2.32812 15.0474 2.38437 15.0474 7C15.0474 11.6156 15.0474 11.6719 14.9849 11.775C14.9505 11.8312 14.8724 11.9094 14.813 11.9469L14.7036 12.0156H8.00049H1.29736L1.18799 11.9469C1.12861 11.9094 1.05049 11.8312 1.01611 11.775C0.953614 11.6719 0.953614 11.6156 0.953614 7V2.32812L1.02236 2.21875C1.09736 2.09687 1.18799 2.03125 1.32861 1.99687C1.38174 1.98437 2.79736 1.975 4.47861 1.97187L7.53174 1.96875V2.31875ZM9.25674 14L9.42862 15.0312H8.00049H6.57237L6.74424 14L6.91612 12.9687H8.00049H9.08487L9.25674 14Z" fill="white"/>
<path d="M2.23774 4.09062C2.19087 4.12187 2.12212 4.19062 2.09087 4.2375C2.03462 4.325 2.03149 4.43437 2.03149 7C2.03149 9.56562 2.03462 9.675 2.09087 9.7625C2.12212 9.80937 2.19087 9.87812 2.23774 9.90937C2.32524 9.96562 2.42524 9.96875 4.50024 9.96875C6.57525 9.96875 6.67525 9.96562 6.76275 9.90937C6.80962 9.87812 6.87837 9.80937 6.90962 9.7625C6.96587 9.67812 6.969 9.59687 6.969 8.5C6.969 7.40312 6.96587 7.32187 6.90962 7.2375C6.81275 7.09375 6.694 7.03125 6.50025 7.03125C6.3065 7.03125 6.18775 7.09375 6.09087 7.2375C6.03775 7.32187 6.0315 7.39687 6.0315 8.17812V9.03125H5.50025H4.969V7.42812C4.969 5.9125 4.96587 5.82187 4.90962 5.7375C4.81275 5.59375 4.69399 5.53125 4.50024 5.53125C4.30649 5.53125 4.18774 5.59375 4.09087 5.7375C4.03462 5.82187 4.03149 5.9125 4.03149 7.42812V9.03125H3.50024H2.96899V6.67812C2.96899 4.42812 2.96587 4.325 2.90962 4.2375C2.81274 4.09375 2.69399 4.03125 2.50024 4.03125C2.38462 4.03125 2.30024 4.05 2.23774 4.09062Z" fill="white"/>
<path d="M10.7221 4.31269C10.1752 4.42832 9.72837 4.67207 9.32524 5.07519C8.99087 5.40957 8.79399 5.72207 8.64712 6.15644C8.55024 6.44707 8.54712 6.46582 8.54712 7.00019C8.54712 7.53457 8.55024 7.55332 8.64712 7.84394C8.79399 8.27832 8.99087 8.59082 9.32524 8.9252C9.65962 9.25957 9.97212 9.45645 10.4065 9.6002C10.694 9.7002 10.719 9.7002 11.2502 9.7002C11.7815 9.7002 11.8065 9.7002 12.094 9.6002C12.5284 9.45645 12.8409 9.25957 13.1752 8.9252C13.5096 8.59082 13.7065 8.27832 13.8502 7.84394C13.9502 7.55644 13.9502 7.53144 13.9502 7.00019C13.9502 6.46894 13.9502 6.44394 13.8502 6.15644C13.7065 5.72207 13.5096 5.40957 13.1752 5.07519C12.8377 4.73769 12.5252 4.54394 12.094 4.40019C11.8252 4.31269 11.7565 4.30332 11.3284 4.29394C11.0721 4.28769 10.7971 4.29707 10.7221 4.31269ZM10.7815 6.04082V6.76582L10.2409 7.30644L9.69712 7.85019L9.63149 7.69394C9.35024 7.03769 9.50024 6.27519 10.0127 5.76269C10.219 5.55644 10.6127 5.31269 10.7377 5.31269C10.7721 5.31269 10.7815 5.44707 10.7815 6.04082ZM12.0252 5.42519C12.3502 5.58144 12.669 5.90019 12.8252 6.22519C12.8877 6.35332 12.9377 6.47519 12.9377 6.49707C12.9377 6.52207 12.7659 6.53144 12.3284 6.53144H11.719V5.92207C11.719 5.48457 11.7284 5.31269 11.7534 5.31269C11.7752 5.31269 11.8971 5.36269 12.0252 5.42519ZM12.9377 7.51269C12.9377 7.53457 12.8877 7.65957 12.8221 7.78457C12.6034 8.22832 12.1315 8.60019 11.6409 8.71895C11.3159 8.79707 10.8721 8.75644 10.5565 8.61895L10.4002 8.55332L10.944 8.00957L11.4846 7.46894H12.2096C12.8034 7.46894 12.9377 7.47832 12.9377 7.51269Z" fill="white"/>
</svg>
