<svg width="25" height="25" viewBox="0 0 25 25" fill="none" xmlns="http://www.w3.org/2000/svg">
<path d="M11.5882 0.239521C11.5162 0.317443 11.4719 0.488871 11.4331 0.888871L11.3776 1.42913L11.2058 1.46549C11.1116 1.48108 10.8511 1.57459 10.6239 1.67329C10.3967 1.77199 10.1972 1.84991 10.1695 1.84991C10.1473 1.84991 9.94778 1.70965 9.73164 1.53822C9.32153 1.21614 9.15526 1.14342 8.97238 1.19536C8.91141 1.21095 8.55118 1.52783 8.16323 1.89147C7.28758 2.72264 7.28204 2.73303 7.81408 3.33562L8.16323 3.74082L7.98588 4.10446C7.88613 4.30705 7.78083 4.5616 7.74203 4.66549C7.66444 4.88887 7.64228 4.89926 6.99385 4.94601C6.26784 4.99796 6.29555 4.95121 6.29555 6.20316C6.29555 7.12783 6.30663 7.24731 6.39531 7.32004C6.47844 7.39277 7.20999 7.51225 7.58131 7.51225C7.64228 7.51225 7.70324 7.60056 7.76974 7.78238C7.81962 7.93303 7.93601 8.18757 8.01914 8.35381L8.17432 8.64472L7.81962 9.05511C7.28204 9.6629 7.28204 9.6629 8.19648 10.5148C9.09984 11.3564 9.08322 11.3564 9.73164 10.8629L10.175 10.5252L10.4355 10.6447C10.5851 10.7174 10.8567 10.8265 11.0507 10.8889C11.3499 10.9928 11.3943 11.0239 11.3998 11.1434C11.3998 11.2161 11.422 11.4603 11.4441 11.6837C11.5162 12.3071 11.4774 12.2915 12.7742 12.2915C13.3728 12.2915 13.8882 12.2707 13.9215 12.2499C14.0434 12.172 14.0988 11.9902 14.1376 11.5278C14.1598 11.2629 14.2096 11.0291 14.2429 11.0032C14.2761 10.9824 14.4036 10.9304 14.5255 10.8941C14.6475 10.8525 14.8913 10.7538 15.0742 10.6759L15.3956 10.5252L15.839 10.8629C16.4874 11.3616 16.5096 11.3564 17.3354 10.5876C18.0392 9.94342 18.1833 9.7564 18.1334 9.5642C18.1168 9.49666 17.9505 9.27848 17.7677 9.07069C17.5848 8.86809 17.4351 8.68108 17.4351 8.65511C17.4351 8.63433 17.5072 8.46809 17.5959 8.28627C17.6845 8.10446 17.7898 7.85511 17.8231 7.73043C17.8674 7.59536 17.9284 7.51225 17.9838 7.51225C18.3551 7.51225 19.0811 7.39277 19.1643 7.32004C19.2529 7.24731 19.264 7.12783 19.264 6.20316C19.264 4.95121 19.2917 4.99796 18.5657 4.94601C18.2942 4.92523 18.0337 4.89926 17.9838 4.88368C17.9339 4.86809 17.8342 4.71744 17.7677 4.53562C17.7012 4.359 17.5848 4.10965 17.5183 3.97978L17.3908 3.74601L17.7455 3.33562C18.2775 2.73303 18.272 2.72264 17.3963 1.89147C17.0084 1.52264 16.6315 1.21095 16.5595 1.19017C16.3821 1.14861 16.2436 1.22134 15.8168 1.559C15.6118 1.72004 15.4234 1.84991 15.3956 1.84991C15.3624 1.84991 15.2128 1.78757 15.052 1.71485C14.8969 1.64212 14.6419 1.53822 14.4812 1.49147L14.193 1.39796L14.1376 0.842118C14.0933 0.384975 14.06 0.270689 13.9769 0.208352C13.8882 0.151209 13.6277 0.135624 12.7798 0.135624C11.76 0.135624 11.6825 0.140819 11.5882 0.239521ZM13.3617 1.38757C13.4282 1.98498 13.4892 2.06809 13.9104 2.1564C14.0766 2.19277 14.459 2.33303 14.7583 2.47329C15.0576 2.61874 15.379 2.73303 15.4732 2.73303C15.6007 2.73303 15.7393 2.6551 16.033 2.42653L16.4209 2.12004L16.7701 2.44731C17.086 2.74861 17.1137 2.79017 17.0416 2.87329C16.9973 2.92523 16.8477 3.10186 16.7036 3.26809C16.5539 3.43433 16.4376 3.61614 16.4376 3.67329C16.4376 3.72523 16.5484 3.96939 16.687 4.21355C16.82 4.45251 16.9973 4.84731 17.0749 5.08627C17.2412 5.60056 17.2633 5.61614 17.9505 5.66809L18.4327 5.70446V6.19277V6.67588L18.1833 6.70186C18.0448 6.71744 17.8175 6.74861 17.6734 6.7642C17.5238 6.77978 17.3631 6.81614 17.3132 6.84212C17.2578 6.86809 17.158 7.07588 17.0749 7.33043C16.9973 7.57459 16.82 7.97459 16.6814 8.21874C16.5041 8.53562 16.4431 8.69666 16.4708 8.77459C16.493 8.83692 16.6537 9.04991 16.831 9.25251L17.1525 9.61614L16.8089 9.93822C16.6204 10.12 16.4542 10.2655 16.4376 10.2655C16.4209 10.2655 16.227 10.1252 16.0053 9.95381C15.767 9.77199 15.5453 9.64212 15.4677 9.64212C15.3956 9.64212 15.1573 9.73562 14.9301 9.84472C14.4867 10.0681 14.2041 10.1772 13.8605 10.2603C13.4559 10.359 13.4282 10.4006 13.3617 11.0032L13.3063 11.5382L12.7964 11.5538L12.2921 11.5694L12.2588 11.372C12.2422 11.2629 12.2145 11.0291 12.1923 10.8473C12.1757 10.6655 12.1203 10.4837 12.0704 10.4265C12.015 10.3746 11.7878 10.2759 11.5605 10.2135C11.3333 10.1512 10.9398 10.0006 10.6904 9.87069C10.4355 9.74601 10.175 9.64212 10.1085 9.64212C10.0365 9.64212 9.80369 9.77718 9.57646 9.95381C9.34924 10.1252 9.14972 10.2655 9.1331 10.2655C9.11093 10.2655 8.94466 10.12 8.75623 9.94861L8.41262 9.62653L8.73961 9.2577C8.9225 9.05511 9.08876 8.83173 9.10538 8.7642C9.12755 8.67069 9.06659 8.51485 8.8837 8.19277C8.74515 7.94861 8.57889 7.56939 8.50684 7.3564C8.32395 6.77459 8.37383 6.80575 7.39288 6.70705L7.07144 6.67588V6.18757V5.70446L7.60348 5.66809C8.25745 5.62134 8.34058 5.5642 8.50684 5.02913C8.57335 4.82134 8.73961 4.45251 8.87262 4.21355C9.01117 3.96939 9.12201 3.73043 9.12201 3.67329C9.12201 3.61614 8.97238 3.40316 8.78949 3.19017C8.6066 2.98238 8.45696 2.80056 8.45696 2.78498C8.45696 2.76939 8.61214 2.61355 8.80611 2.43692L9.14972 2.11485L9.53767 2.42134C9.81477 2.63952 9.96995 2.72783 10.0863 2.73303C10.175 2.73303 10.502 2.61874 10.8068 2.47329C11.1172 2.33303 11.5162 2.18238 11.6991 2.14082C11.882 2.09407 12.0593 2.02134 12.0926 1.97978C12.1314 1.93303 12.1757 1.75121 12.1979 1.57459C12.2145 1.39796 12.2422 1.1642 12.2588 1.0551L12.2921 0.857702L12.7964 0.873287L13.3063 0.888871L13.3617 1.38757Z" fill="white"/>
<path d="M12.2536 2.57732C11.4611 2.68122 10.7351 3.00849 10.1421 3.52797C9.36618 4.20849 8.96161 5.02927 8.91173 6.01109C8.81751 8.06823 10.3915 9.72018 12.5584 9.83447C14.2931 9.92797 15.8393 8.98252 16.449 7.45005C16.5986 7.08122 16.6263 6.93057 16.6485 6.38512C16.6762 5.61109 16.582 5.14356 16.2716 4.56174C15.7673 3.63187 14.8196 2.90979 13.7666 2.66044C13.3509 2.56174 12.6637 2.52538 12.2536 2.57732ZM13.6114 3.43966C14.6201 3.7046 15.4846 4.52538 15.7451 5.46044C15.856 5.86044 15.8504 6.58252 15.7396 6.94616C15.3516 8.18771 14.1213 9.07083 12.7801 9.07083C11.9876 9.07083 11.2449 8.77473 10.6464 8.21888C9.86497 7.4968 9.55461 6.47862 9.82063 5.51758C10.2529 3.93836 11.9599 3.0033 13.6114 3.43966Z" fill="white"/>
<path d="M13.218 5.72531L12.3866 6.47856L11.9599 6.12012C11.4722 5.70973 11.4001 5.67856 11.1785 5.75129C10.9845 5.81363 10.8737 6.05259 10.9512 6.22921C10.9734 6.29155 11.2561 6.58765 11.5775 6.87856C12.3977 7.6422 12.2869 7.66298 13.5449 6.52531C14.0991 6.02661 14.5758 5.55908 14.609 5.48635C14.6811 5.32012 14.609 5.10194 14.4483 5.02402C14.1712 4.88376 14.077 4.9409 13.218 5.72531Z" fill="white"/>
<path d="M17.5572 14.1877C17.3965 14.2292 16.8589 14.4734 16.3546 14.7331L15.4457 15.2007H14.5423C13.3064 15.2007 12.8021 15.1331 12.2535 14.9046C12.0096 14.8059 11.6494 14.6656 11.4498 14.5929C10.0976 14.1098 8.31303 14.276 7.12148 14.9981C6.92751 15.1176 6.54511 15.3981 6.268 15.6215C5.81909 15.9955 5.33139 16.2864 5.27043 16.2292C5.2538 16.2189 5.15959 15.9383 5.05429 15.6163C4.94345 15.2786 4.82152 14.9929 4.76056 14.9565C4.68851 14.9046 4.25623 14.889 2.80974 14.8994L0.958689 14.915L0.85339 15.05C0.74809 15.1851 0.74809 15.1903 1.30784 19.5435C1.67916 22.3799 1.90084 23.9435 1.95072 24.0163L2.02831 24.1357H4.7661C7.34317 24.1357 7.50389 24.1305 7.58702 24.0422C7.73111 23.8968 7.7034 23.7565 7.37642 22.7539C7.21016 22.2396 7.0716 21.7981 7.0716 21.7721C7.0716 21.715 8.95591 20.5877 9.19422 20.5046C9.2829 20.4734 9.42699 20.4474 9.51566 20.4474C9.60988 20.4474 10.6961 20.6241 11.9376 20.8474C14.0602 21.2215 14.2375 21.2422 14.9691 21.2422C15.8059 21.2474 16.3657 21.1539 17.0418 20.8942C17.3743 20.7695 24.5125 16.2292 24.712 16.0215C24.8451 15.8708 24.8284 15.7254 24.6455 15.4448C24.2909 14.9254 23.5205 14.5877 22.8056 14.6448C22.595 14.6604 22.3179 14.7228 22.1793 14.7799C21.941 14.8734 21.9299 14.8786 21.8413 14.7851C21.7914 14.7331 21.5974 14.6137 21.409 14.5202C21.1319 14.3851 20.9878 14.3487 20.6442 14.328C20.2784 14.3072 20.1786 14.3228 19.9181 14.4318L19.6189 14.5617L19.4304 14.4474C18.9095 14.1461 18.1336 14.037 17.5572 14.1877ZM18.6546 14.9721C18.6933 15.0085 18.5271 15.1124 18.1724 15.2942L17.6404 15.5643L17.3411 15.4292L17.0418 15.289L17.2801 15.1591C17.4131 15.0916 17.6071 15.0033 17.7124 14.9617C17.9285 14.8838 18.5659 14.889 18.6546 14.9721ZM10.9234 15.2526C11.1395 15.315 11.4498 15.4344 11.6217 15.5176C12.4086 15.8864 12.453 15.8916 14.5811 15.928C16.7592 15.9695 16.8423 15.9799 17.2857 16.3435C17.524 16.5409 17.8232 16.9825 17.7567 17.0448C17.7401 17.0656 17.1914 17.0552 16.543 17.0292C15.2573 16.9773 13.8551 17.0292 13.6223 17.1331C13.4505 17.2111 13.3563 17.4137 13.4117 17.6111C13.4727 17.8448 13.6223 17.8708 14.5645 17.8085C15.1298 17.7669 15.7283 17.7669 16.3546 17.7981C16.8755 17.8241 17.5628 17.8448 17.8897 17.85C18.4606 17.85 18.4828 17.8448 18.5936 17.715C18.6601 17.637 18.71 17.5383 18.71 17.4916C18.71 17.3721 22.4952 15.4604 22.8056 15.4241C23.0661 15.3929 23.4429 15.476 23.6313 15.6059C23.7533 15.6942 23.7256 15.715 20.3449 17.8916C16.6816 20.2552 16.6428 20.276 15.7006 20.4267C14.9746 20.5461 14.6144 20.5098 12.0373 20.063C10.7903 19.8448 9.64313 19.6682 9.48795 19.6682C9.05013 19.6734 8.72315 19.8085 7.7422 20.3903C7.24341 20.6812 6.81667 20.9046 6.7945 20.8786C6.76125 20.8474 5.97981 18.4942 5.54199 17.1124C5.51982 17.05 5.60295 16.9877 5.86343 16.8682C6.0574 16.7851 6.4121 16.5513 6.65041 16.3591C7.54268 15.6318 7.99159 15.3877 8.76748 15.2007C9.36048 15.0604 10.3581 15.0864 10.9234 15.2526ZM20.9656 15.1903L21.1429 15.2786L19.835 15.9383L18.5215 16.5981L18.3941 16.3851C18.322 16.2708 18.2777 16.1617 18.2943 16.1409C18.3109 16.1254 18.782 15.8864 19.3362 15.6059C20.428 15.0552 20.6054 15.0085 20.9656 15.1903ZM4.32827 16.0682C4.41141 16.3228 4.97116 18.0526 5.58078 19.9176C6.18487 21.7825 6.68366 23.3305 6.68366 23.3565C6.68366 23.3877 5.93548 23.4085 4.6608 23.4085C2.843 23.4085 2.63794 23.3981 2.63794 23.3254C2.63794 23.2318 1.71241 16.037 1.66808 15.7825L1.63482 15.6163H2.9095H4.18418L4.32827 16.0682Z" fill="white"/>
<path d="M4.24529 21.3253C3.81301 21.4499 3.53036 21.7461 3.44723 22.1564C3.37518 22.5409 3.63012 23.0136 4.02361 23.2006C4.39493 23.3772 4.96022 23.3097 5.25949 23.0551C5.54768 22.811 5.66406 22.2551 5.4978 21.8863C5.30937 21.4603 4.71082 21.1954 4.24529 21.3253Z" fill="white"/>
</svg>
