<svg width="16" height="16" viewBox="0 0 16 16" fill="none" xmlns="http://www.w3.org/2000/svg">
<g clip-path="url(#clip0_7693_100786)">
<path d="M12.3296 0.0624938C12.2921 0.106244 12.2671 0.190619 12.2577 0.312494L12.2452 0.499994H11.8139C11.4233 0.499994 11.3796 0.506244 11.3296 0.562494C11.2077 0.696869 11.2421 1.22187 11.3952 1.54687C11.5264 1.82187 11.9014 2.12812 12.1952 2.19999C12.2608 2.21562 12.2858 2.24999 12.3327 2.39374C12.4358 2.72499 12.7389 3.04062 13.0671 3.15312L13.2358 3.21249L13.2452 3.85624L13.2514 4.49999H12.9702C12.6483 4.49999 12.5889 4.52187 12.5327 4.65312C12.5046 4.72812 12.5046 4.76249 12.5389 4.83124C12.6139 4.99374 12.6639 4.99999 13.5514 4.99374C14.3046 4.98437 14.3764 4.98124 14.4358 4.92499C14.5296 4.84062 14.5233 4.65624 14.4296 4.56874C14.3639 4.50937 14.3233 4.49999 14.0546 4.49999H13.7514V3.85937V3.21874L13.8389 3.19999C13.9952 3.15937 14.2264 3.02812 14.3796 2.88437C14.5264 2.74999 14.7202 2.42187 14.7202 2.31249C14.7202 2.28437 14.7358 2.24687 14.7577 2.22499C14.7796 2.20312 14.8171 2.18749 14.8452 2.18749C14.9546 2.18749 15.2827 1.99062 15.4233 1.84062C15.6577 1.59062 15.7327 1.39374 15.7452 0.981244C15.7639 0.493744 15.7702 0.499994 15.1889 0.499994H14.7514V0.312494C14.7514 -0.0156312 14.8171 -6.19888e-06 13.5077 -6.19888e-06C12.4202 -6.19888e-06 12.3858 0.00311899 12.3296 0.0624938ZM14.2514 1.31249C14.2514 2.24062 14.2452 2.27187 14.0608 2.48437C13.7139 2.87812 13.0952 2.78437 12.8327 2.29687C12.7702 2.17812 12.7671 2.12187 12.7577 1.31874L12.7483 0.468744H13.4983H14.2514V1.31249ZM12.2514 1.34374V1.69062L12.1639 1.64374C11.9796 1.54999 11.8171 1.32499 11.7671 1.09999L11.7452 0.999994H11.9983H12.2514V1.34374ZM15.2421 1.12812C15.2327 1.19687 15.1889 1.30937 15.1452 1.37812C15.0671 1.49374 14.8389 1.68749 14.7764 1.68749C14.7639 1.68749 14.7514 1.53124 14.7514 1.34374V0.999994H15.0046H15.2608L15.2421 1.12812Z" fill="#016DEA"/>
<path d="M10.4689 3.35001C9.35952 3.41876 9.33765 3.42501 9.3189 3.64064C9.30952 3.72814 9.32515 3.77501 9.3814 3.83439C9.45327 3.91251 9.4564 3.91251 9.85952 3.89376C10.0845 3.88126 10.3439 3.86564 10.4376 3.85626C10.6064 3.83751 10.5345 3.88751 5.75015 7.07814C3.07828 8.86251 0.859526 10.35 0.822026 10.3844C0.715776 10.4813 0.722026 10.6625 0.834526 10.75C0.893901 10.7938 0.953276 10.8125 1.01578 10.8063C1.07515 10.7969 2.85015 9.63126 5.99078 7.53751C8.67828 5.74689 10.8814 4.28126 10.8876 4.28126C10.8939 4.28126 10.7877 4.49689 10.6533 4.75626C10.5033 5.04689 10.4064 5.27189 10.4064 5.33126C10.4064 5.54376 10.6376 5.66251 10.7908 5.52501C10.8845 5.44376 11.8126 3.63751 11.8126 3.53751C11.8126 3.50314 11.8033 3.45001 11.7939 3.42189C11.7689 3.35939 11.6158 3.28126 11.5251 3.28439C11.4845 3.28751 11.0095 3.31564 10.4689 3.35001Z" fill="#016DEA"/>
<path d="M12.132 5.52188C12.0477 5.55625 12.0008 5.71563 12.0008 5.97813C12.0008 6.2875 12.0383 6.41563 12.1445 6.46563C12.2633 6.51875 12.3414 6.50625 12.4227 6.42188C12.4883 6.35938 12.5008 6.31563 12.5008 6.17188V6H13.5008H14.5008V10.7656V15.5313H13.5008H12.5008V11.3313V7.12813L12.4195 7.06563C12.2789 6.95625 12.1195 6.99063 12.0383 7.14688C12.0102 7.19688 12.0008 8.27188 12.0008 11.3719V15.5313H11.6258H11.2508V11.8438V8.15313L11.1727 8.07813L11.0977 8H9.75078H8.40391L8.32891 8.07813L8.25078 8.15313V11.8438V15.5313H7.87578H7.50078V13.125C7.50078 11.4063 7.49141 10.7 7.46641 10.6438C7.44453 10.6031 7.39141 10.55 7.34766 10.5313C7.29141 10.5094 6.85078 10.5 5.94141 10.5063L4.61953 10.5156L4.56016 10.5906C4.50391 10.6594 4.50078 10.7469 4.50078 13.0969V15.5313H4.12891H3.75703L3.74453 15.0938C3.73516 14.7063 3.72891 14.65 3.67266 14.5969C3.57266 14.5 3.40703 14.5 3.31328 14.5938C3.25703 14.65 3.25078 14.6969 3.25078 15.0938V15.5313H2.25078H1.25078V14.5156V13.5H2.25078H3.25078V13.6813C3.25078 13.8219 3.26641 13.8781 3.31328 13.9313C3.39453 14.0188 3.56016 14.0219 3.66016 13.9406C3.73203 13.8844 3.73516 13.8625 3.73516 13.5188C3.73516 13.1844 3.72891 13.1531 3.66328 13.0875L3.59141 13.0156H2.23828C0.947656 13.0156 0.878906 13.0188 0.816406 13.075C0.750781 13.1344 0.750781 13.1531 0.750781 14.3344V15.5313H0.563281C0.416406 15.5313 0.363281 15.5438 0.313281 15.5938C0.228906 15.6781 0.228906 15.8531 0.313281 15.9375C0.375781 16 0.416406 16 7.87578 16C15.3352 16 15.3758 16 15.4383 15.9375C15.4758 15.9 15.5008 15.8344 15.5008 15.7656C15.5008 15.5969 15.4133 15.5313 15.1883 15.5313H15.0008V10.5844V5.63438L14.9289 5.56875C14.857 5.5 14.8508 5.5 13.5133 5.50313C12.7758 5.50313 12.1539 5.5125 12.132 5.52188ZM10.7508 12.0156V15.5313H9.75078H8.75078V12.0156V8.5H9.75078H10.7508V12.0156ZM7.00078 13.2656V15.5313H6.00078H5.00078V13.2656V11H6.00078H7.00078V13.2656Z" fill="#016DEA"/>
</g>
<defs>
<clipPath id="clip0_7693_100786">
<rect width="16" height="16" fill="white"/>
</clipPath>
</defs>
</svg>
