<svg width="24" height="24" viewBox="0 0 24 24" fill="none" xmlns="http://www.w3.org/2000/svg">
<g clip-path="url(#clip0_5251_188224)">
<path d="M8.81251 0.0282326C6.32814 0.33292 4.22345 1.28917 2.61095 2.8548C1.30782 4.11573 0.506261 5.53136 0.126573 7.24229C0.0375106 7.65479 0.0234481 7.84698 0.0281356 8.81261C0.0281356 9.77355 0.0421981 9.97511 0.131261 10.3782C0.365636 11.4235 0.778135 12.4126 1.32657 13.2329L1.62189 13.6782L1.5422 14.1517C1.42501 14.836 1.23751 15.5485 1.00314 16.2189C0.768761 16.8798 0.740636 17.1892 0.885948 17.4751C1.06407 17.8173 1.36407 18.0001 1.75782 18.0001C2.32032 18.0001 3.67501 17.5689 4.7672 17.0392C5.52657 16.6735 5.65314 16.6501 5.69532 16.8704C5.86407 17.7095 6.19689 18.586 6.60939 19.2845C8.84532 23.072 14.1703 24.6704 18.6375 22.8939L18.9281 22.7767L19.4109 23.0345C20.4375 23.5782 21.8391 24.0282 22.3875 23.9907C22.7297 23.9673 22.9594 23.822 23.1094 23.5314C23.2547 23.2501 23.2266 22.9876 22.9969 22.2939C22.7813 21.661 22.575 20.7985 22.5188 20.3345L22.4859 20.072L22.7813 19.636C23.1703 19.0548 23.4094 18.5673 23.625 17.911C23.9344 16.9876 23.9766 16.697 23.9766 15.586C23.9766 14.7235 23.9625 14.5407 23.8688 14.1095C23.6578 13.1767 23.2031 12.1454 22.6547 11.3814C22.1203 10.6267 21.1875 9.73604 20.3813 9.21573L20.0297 8.98136L20.0016 8.39542C19.9078 6.36573 19.0594 4.52823 17.5125 2.97198C16.0406 1.50011 14.1609 0.548546 11.9063 0.136045C11.4656 0.0563583 11.1469 0.0329208 10.1719 0.0235462C9.51564 0.0141716 8.90157 0.018858 8.81251 0.0282326ZM11.6953 0.956358C12.7266 1.14855 13.5328 1.40636 14.3672 1.80011C16.875 2.99073 18.6 5.11417 19.0594 7.57042C19.1813 8.20323 19.1813 9.45479 19.0594 10.0548C18.3469 13.6689 15.0422 16.3595 10.8516 16.7392C9.25313 16.8845 7.32657 16.5704 5.9297 15.9376C5.43751 15.7173 5.47032 15.7126 4.7297 16.097C3.89532 16.5282 3.24376 16.7907 2.48907 16.997C1.84689 17.1704 1.69689 17.1892 1.65939 17.0907C1.64532 17.0532 1.7297 16.7439 1.8422 16.397C2.09532 15.6517 2.26407 14.986 2.39064 14.236C2.52189 13.4485 2.52189 13.4204 2.26876 13.0782C1.77189 12.3985 1.42501 11.7282 1.18126 10.9689C0.914073 10.1251 0.867198 9.81104 0.867198 8.78917C0.867198 7.73917 0.942198 7.27511 1.2422 6.44542C1.80001 4.89386 2.95314 3.46886 4.45314 2.46105C5.60626 1.68761 7.20939 1.10636 8.76564 0.890734C9.2672 0.825108 11.2078 0.867296 11.6953 0.956358ZM20.5313 10.3876C20.9813 10.7439 21.6891 11.4985 22.0125 11.9767C22.5703 12.797 22.9359 13.6923 23.0906 14.6204C23.2125 15.3564 23.1656 16.3876 22.9781 17.1095C22.7531 17.9814 22.3922 18.736 21.8484 19.472C21.7172 19.6501 21.6094 19.8423 21.6094 19.9032C21.6094 20.3767 21.8953 21.6892 22.1813 22.5376C22.2844 22.8517 22.3594 23.1235 22.3453 23.1423C22.2703 23.2173 21.15 22.8845 20.4656 22.5892C20.2313 22.486 19.8328 22.2845 19.5797 22.1392C19.3219 21.9939 19.0594 21.8767 18.9891 21.8767C18.9234 21.8767 18.6469 21.9657 18.3844 22.0735C17.2453 22.5376 16.125 22.7532 14.8125 22.7532C13.8188 22.7579 13.3031 22.697 12.4453 22.4767C10.0406 21.8626 8.15157 20.4376 7.1297 18.4689C6.97032 18.1642 6.59064 17.1564 6.62345 17.1282C6.62814 17.1189 6.78282 17.1564 6.96095 17.2079C10.6406 18.2439 14.7328 17.2923 17.3344 14.7892C17.9531 14.1939 18.2906 13.7954 18.7031 13.172C19.2516 12.3329 19.6781 11.297 19.8563 10.3689L19.9406 9.9423L20.0813 10.0454C20.1609 10.097 20.3625 10.2517 20.5313 10.3876Z" fill="white"/>
<path d="M4.13535 6.88597C2.73847 7.36879 2.32597 9.17347 3.37129 10.2235C4.16347 11.0157 5.43847 11.0203 6.22597 10.2328C7.28066 9.17816 6.85879 7.37347 5.44785 6.88597C5.10566 6.76879 4.47754 6.76879 4.13535 6.88597ZM5.22754 7.70629C5.47129 7.80941 5.79941 8.13754 5.88847 8.36722C5.94004 8.51254 5.95879 8.66722 5.94472 8.87816C5.89785 9.61879 5.19941 10.125 4.50097 9.92347C3.44629 9.6141 3.33847 8.17972 4.33691 7.72972C4.5666 7.6266 5.00254 7.61254 5.22754 7.70629Z" fill="white"/>
<path d="M9.33825 6.88605C7.93669 7.36887 7.5195 9.16887 8.56481 10.2142C9.56325 11.2079 11.1992 10.9361 11.8179 9.6798C11.9726 9.36105 11.9773 9.33762 11.9773 8.78918C11.9773 8.26418 11.9679 8.20793 11.8414 7.94543C11.682 7.62199 11.3257 7.22355 11.0445 7.05949C10.5851 6.7923 9.83512 6.71262 9.33825 6.88605ZM10.3789 7.69699C10.6367 7.77199 11.0257 8.16105 11.1007 8.41887C11.307 9.1173 10.9086 9.80168 10.2101 9.94699C9.65231 10.0642 9.04762 9.68918 8.88356 9.1173C8.78512 8.78449 8.81794 8.54074 9.00075 8.2173C9.282 7.7298 9.807 7.52824 10.3789 7.69699Z" fill="white"/>
<path d="M14.5496 6.88125C13.4012 7.27969 12.8621 8.55937 13.3778 9.67969C13.5325 10.0219 13.9778 10.4672 14.3153 10.6219C15.3418 11.0906 16.5278 10.6781 17.0153 9.68437C17.1559 9.40312 17.1793 9.30469 17.1934 8.92969C17.2215 8.27344 17.0809 7.86562 16.6731 7.42031C16.4387 7.16719 16.12 6.96562 15.8012 6.87187C15.459 6.77344 14.8543 6.77812 14.5496 6.88125ZM15.5668 7.69687C15.8246 7.77187 16.12 8.03906 16.2465 8.31562C16.509 8.87812 16.2981 9.51562 15.759 9.81094C15.445 9.97969 15.2059 10.0125 14.8871 9.91875C14.3106 9.75 13.9356 9.15469 14.0528 8.5875C14.1981 7.89375 14.8871 7.49062 15.5668 7.69687Z" fill="white"/>
</g>
<defs>
<clipPath id="clip0_5251_188224">
<rect width="24" height="24" fill="white"/>
</clipPath>
</defs>
</svg>
