<svg width="17" height="17" viewBox="0 0 17 17" fill="none" xmlns="http://www.w3.org/2000/svg">
<g clip-path="url(#clip0_53_7148)">
<path d="M8.23108 1.06249C8.16858 1.12499 8.16858 1.16562 8.16858 4.875C8.16858 8.58437 8.16858 8.625 8.23108 8.6875C8.29358 8.75 8.3342 8.75 11.9186 8.75C15.503 8.75 15.5436 8.75 15.6061 8.6875C15.6686 8.625 15.6686 8.58437 15.6686 4.875C15.6686 1.16562 15.6686 1.12499 15.6061 1.06249C15.5436 0.999992 15.503 0.999992 11.9186 0.999992C8.3342 0.999992 8.29358 0.999992 8.23108 1.06249ZM15.1686 4.875V8.25H11.9186H8.66858V4.875V1.49999H11.9186H15.1686V4.875Z" fill="white"/>
<path d="M13.277 2.2625L12.277 2.51875L11.577 2.87187L10.877 3.225L10.0708 3.10937C9.62702 3.04687 9.24577 3 9.2239 3.00625C9.17077 3.025 9.10202 3.5 9.1489 3.51562C9.23327 3.54062 10.7895 3.75 10.8958 3.75C10.9833 3.75 11.202 3.65312 11.7614 3.375L12.5083 3L13.4708 2.7625C14.002 2.63125 14.4458 2.5125 14.4614 2.5C14.4739 2.48437 14.4614 2.36875 14.4302 2.2375C14.3895 2.0625 14.3614 2 14.327 2.00312C14.2989 2.00312 13.827 2.12187 13.277 2.2625Z" fill="white"/>
<path d="M13.6686 4.125V4.5H13.4811C13.1686 4.5 13.1686 4.50312 13.1686 5.25C13.1686 5.99687 13.1686 6 13.4811 6H13.6686V6.375V6.75H13.9186H14.1686V6.375V6H14.3561C14.6686 6 14.6686 5.99687 14.6686 5.25C14.6686 4.50312 14.6686 4.5 14.3561 4.5H14.1686V4.125V3.75H13.9186H13.6686V4.125ZM14.1686 5.25V5.5H13.9186H13.6686V5.25V5H13.9186H14.1686V5.25Z" fill="white"/>
<path d="M11.6686 4.625V5H11.4811C11.1592 5 11.1686 4.96875 11.1686 6C11.1686 7.03125 11.1592 7 11.4811 7H11.6686V7.375V7.75H11.9186H12.1686V7.375V7H12.3561C12.678 7 12.6686 7.03125 12.6686 6C12.6686 4.96875 12.678 5 12.3561 5H12.1686V4.625V4.25H11.9186H11.6686V4.625ZM12.1686 6V6.5H11.9186H11.6686V6V5.5H11.9186H12.1686V6Z" fill="white"/>
<path d="M9.66858 4.875V5.25H9.48108C9.16858 5.25 9.16858 5.25312 9.16858 6C9.16858 6.74687 9.16858 6.75 9.48108 6.75H9.66858V7.25V7.75H9.91858H10.1686V7.25V6.75H10.3561C10.6686 6.75 10.6686 6.74687 10.6686 6C10.6686 5.25312 10.6686 5.25 10.3561 5.25H10.1686V4.875V4.5H9.91858H9.66858V4.875ZM10.1686 6V6.25H9.91858H9.66858V6V5.75H9.91858H10.1686V6Z" fill="white"/>
<path d="M5.90296 2.5L5.71858 2.6875L5.99671 2.96875L6.27796 3.25H4.34671H2.41858V3.5V3.75H4.73108C7.00296 3.75 7.04358 3.75 7.10608 3.6875C7.14983 3.64375 7.16858 3.58437 7.16858 3.49375C7.16858 3.36562 7.15608 3.35 6.64671 2.8375C6.35921 2.55 6.11546 2.3125 6.10608 2.3125C6.09671 2.3125 6.00608 2.39687 5.90296 2.5Z" fill="white"/>
<path d="M2.48108 4.5625C2.43733 4.60625 2.41858 4.66562 2.41858 4.75625C2.41858 4.88437 2.43108 4.9 2.94983 5.41875L3.48108 5.95312L3.67483 5.75937L3.87171 5.5625L3.59046 5.28125L3.3092 5H5.24046H7.16858V4.75V4.5H4.85608C2.5842 4.5 2.54358 4.5 2.48108 4.5625Z" fill="white"/>
<path d="M1.98108 6.8125C1.91858 6.875 1.91858 6.91562 1.91858 9C1.91858 11.0844 1.91858 11.125 1.98108 11.1875C2.04358 11.25 2.0842 11.25 4.66858 11.25C7.25296 11.25 7.29358 11.25 7.35608 11.1875C7.41858 11.125 7.41858 11.0844 7.41858 9C7.41858 6.91562 7.41858 6.875 7.35608 6.8125C7.29358 6.75 7.25296 6.75 4.66858 6.75C2.0842 6.75 2.04358 6.75 1.98108 6.8125ZM5.93108 7.2875C6.07483 7.74687 6.34358 8.04687 6.73733 8.1875L6.90296 8.24375V9.00312V9.75937L6.76233 9.8C6.38733 9.90937 6.05921 10.2719 5.93108 10.7094C5.92171 10.7406 5.64358 10.75 4.66858 10.75C3.69358 10.75 3.41546 10.7406 3.40608 10.7094C3.27796 10.2719 2.94983 9.90937 2.57483 9.8L2.4342 9.75937V9.00312V8.24375L2.59983 8.1875C2.99358 8.05 3.27796 7.72812 3.40608 7.2875C3.41546 7.25937 3.69358 7.25 4.66858 7.25C5.64358 7.25 5.92171 7.25937 5.93108 7.2875Z" fill="white"/>
<path d="M4.41858 7.63437C4.41858 7.74687 4.40608 7.77812 4.34358 7.80625C4.21233 7.86562 4.0342 8.04375 3.97795 8.17187C3.89983 8.3375 3.89983 8.6625 3.97795 8.82812C4.08733 9.07187 4.30295 9.2125 4.6467 9.26562C4.71233 9.275 4.79358 9.3125 4.82795 9.34687C4.90608 9.425 4.90296 9.57812 4.82483 9.65625C4.7092 9.77187 4.44983 9.69687 4.44983 9.54687C4.44983 9.50937 4.39983 9.5 4.1842 9.5H3.91858V9.6C3.9217 9.8125 4.1217 10.0937 4.34358 10.1937C4.40608 10.2219 4.41858 10.2531 4.41858 10.3656V10.5H4.66858H4.91858L4.92171 10.3656C4.92171 10.2437 4.93108 10.2281 5.06858 10.1406C5.29671 9.99375 5.39983 9.82187 5.41233 9.55937C5.42796 9.27812 5.36546 9.10937 5.18421 8.94062C5.05296 8.82187 4.94046 8.77187 4.69045 8.73437C4.54045 8.70937 4.44983 8.62187 4.44983 8.5C4.44983 8.38125 4.54983 8.28125 4.66858 8.28125C4.76858 8.28125 4.88733 8.375 4.88733 8.45312C4.88733 8.49062 4.93733 8.5 5.15296 8.5H5.41858V8.39687C5.41546 8.1875 5.21546 7.90625 4.99358 7.80625C4.93108 7.77812 4.91858 7.74687 4.91858 7.63437V7.5H4.66858H4.41858V7.63437Z" fill="white"/>
<path d="M7.79984 11.9594C7.75921 11.9656 7.15921 12.2094 6.46858 12.4969L5.21233 13.0187L4.71546 12.6937C3.97171 12.2125 4.11858 12.25 3.06858 12.25C2.19046 12.25 2.16858 12.25 2.16858 12.1875C2.16858 12.1531 2.14046 12.0969 2.10608 12.0625C2.04671 12.0031 2.00296 12 1.41858 12C0.834204 12 0.790454 12.0031 0.731079 12.0625C0.668579 12.125 0.668579 12.1656 0.668579 13.875C0.668579 15.5844 0.668579 15.625 0.731079 15.6875C0.790454 15.7469 0.834204 15.75 1.41858 15.75C2.19046 15.75 2.16858 15.7594 2.16858 15.3594V15.0937H2.51233H2.85296L3.76233 15.5469C4.65296 15.9906 4.67796 16 4.87483 16C4.98733 16 5.12171 15.9812 5.17796 15.9562C5.23733 15.9344 6.01858 15.4219 6.92171 14.8219C8.64671 13.6687 8.77484 13.5719 8.86859 13.2906C8.93421 13.1 8.93109 12.7687 8.86546 12.575C8.79359 12.3625 8.51859 12.0906 8.30921 12.0219C8.13109 11.9656 7.90609 11.9375 7.79984 11.9594ZM8.17796 12.5531C8.36546 12.65 8.44671 12.95 8.34046 13.1594C8.27796 13.2781 5.04671 15.4437 4.89983 15.4625C4.82483 15.4719 4.60608 15.375 3.89358 15.0187L2.98108 14.5625H2.57483H2.16858V13.6562V12.75H2.94983C3.54046 12.75 3.75921 12.7594 3.83421 12.7937C3.94046 12.8375 5.08421 13.5656 5.17796 13.65C5.29983 13.7594 5.19671 14 5.02483 14C4.98108 14 4.74983 13.8812 4.49358 13.7312C4.24671 13.5812 4.03733 13.4656 4.03108 13.4719C4.02796 13.4781 3.96546 13.5812 3.89358 13.7L3.76546 13.9187L4.17796 14.1656C4.72796 14.4969 4.80296 14.5312 5.02796 14.5312C5.33733 14.5312 5.59983 14.3594 5.71233 14.0875C5.77483 13.9406 5.77796 13.6562 5.71858 13.5156L5.67483 13.4125L5.97483 13.2844C6.14046 13.2156 6.64358 13.0031 7.09046 12.8156C7.94359 12.4594 7.97796 12.45 8.17796 12.5531ZM1.66858 13.875V15.25H1.41858H1.16858V13.875V12.5H1.41858H1.66858V13.875Z" fill="white"/>
</g>
<defs>
<clipPath id="clip0_53_7148">
<rect width="16" height="16" fill="white" transform="translate(0.166626 0.5)"/>
</clipPath>
</defs>
</svg>
