<svg width="16" height="16" viewBox="0 0 16 16" fill="none" xmlns="http://www.w3.org/2000/svg">
<g clip-path="url(#clip0_4615_55616)">
<path d="M10.5159 6.58344V7.38311C10.5159 7.56263 10.6595 7.70625 10.839 7.70625C11.0185 7.70625 11.1622 7.56263 11.1622 7.38311V6.58344C11.1622 6.31579 11.0447 6.06447 10.839 5.898C10.2254 5.39535 9.57261 5.02979 9.26579 4.86985V4.05712C9.41593 3.90045 9.5008 3.69156 9.5008 3.46961V2.3011C9.5008 1.54386 8.88391 0.926971 8.12667 0.926971H7.87534C7.1181 0.926971 6.50121 1.54386 6.50121 2.3011V3.46961C6.50121 3.69156 6.58607 3.90045 6.73621 4.05712V4.86659C6.4294 5.02652 5.7766 5.39209 5.16298 5.89474C4.95735 6.06447 4.83984 6.31253 4.83984 6.58017V7.37985C4.83984 7.55937 4.98346 7.70298 5.16298 7.70298C5.3425 7.70298 5.48611 7.55937 5.48611 7.37985V6.58017C5.48611 6.50837 5.51875 6.43982 5.57424 6.39413C6.27273 5.81967 7.02671 5.43778 7.17358 5.36924C7.30088 5.30722 7.38248 5.1734 7.38248 5.03305V3.90698C7.38248 3.79927 7.32699 3.69809 7.23886 3.63933C7.18338 3.60017 7.14747 3.53815 7.14747 3.46961V2.3011C7.14747 1.89964 7.47387 1.57324 7.87534 1.57324H8.12667C8.52813 1.57324 8.85453 1.89964 8.85453 2.3011V3.46961C8.85453 3.53815 8.82189 3.60017 8.76314 3.63933C8.67175 3.69809 8.61953 3.79927 8.61953 3.90698V5.03305C8.61953 5.17667 8.70112 5.30722 8.82842 5.36924C8.97203 5.44105 9.72928 5.81967 10.4278 6.39413C10.4833 6.43982 10.5159 6.50837 10.5159 6.58344Z" fill="#016DEA"/>
<path d="M13.601 11.0061C13.5096 11.0649 13.4574 11.1661 13.4574 11.2738V12.3998C13.4574 12.5435 13.539 12.674 13.6663 12.736C13.8099 12.8078 14.5672 13.1897 15.2657 13.7609C15.3211 13.8066 15.3538 13.8752 15.3538 13.947V14.7466C15.3538 14.9262 15.4974 15.0698 15.6769 15.0698C15.8564 15.0698 16.0001 14.9262 16.0001 14.7466V13.947C16.0001 13.6793 15.8825 13.428 15.6769 13.2615C15.0633 12.7589 14.4105 12.3933 14.1037 12.2334V11.4206C14.2538 11.264 14.3387 11.0551 14.3387 10.8331V9.66463C14.3387 8.90739 13.7218 8.2905 12.9646 8.2905H12.7132C11.956 8.2905 11.3391 8.90739 11.3391 9.66463V10.8331C11.3391 11.0551 11.424 11.264 11.5741 11.4206V12.2334C11.2673 12.3933 10.6145 12.7589 10.0009 13.2615C9.79524 13.4313 9.67773 13.6826 9.67773 13.947V14.7466C9.67773 14.9262 9.82135 15.0698 10.0009 15.0698C10.1804 15.0698 10.324 14.9262 10.324 14.7466V13.947C10.324 13.8752 10.3566 13.8066 10.4121 13.7609C11.1106 13.1865 11.8646 12.8046 12.0115 12.736C12.1388 12.674 12.2204 12.5402 12.2204 12.3998V11.2738C12.2204 11.1661 12.1649 11.0649 12.0768 11.0061C12.0213 10.967 11.9854 10.9049 11.9854 10.8364V9.66789C11.9854 9.26643 12.3118 8.94003 12.7132 8.94003H12.9646C13.366 8.94003 13.6924 9.26643 13.6924 9.66789V10.8364C13.6924 10.9049 13.6598 10.967 13.601 11.0061Z" fill="#016DEA"/>
<path d="M5.67605 13.9502V14.7499C5.67605 14.9294 5.81967 15.073 5.99918 15.073C6.1787 15.073 6.32232 14.9294 6.32232 14.7499V13.9502C6.32232 13.6826 6.20481 13.4313 5.99918 13.2648C5.38556 12.7621 4.73276 12.3966 4.42595 12.2366V11.4239C4.57609 11.2672 4.66095 11.0583 4.66095 10.8364V9.6679C4.66095 8.91065 4.04406 8.29376 3.28682 8.29376H3.0355C2.27825 8.29376 1.66136 8.91065 1.66136 9.6679V10.8364C1.66136 11.0583 1.74623 11.2672 1.89637 11.4239V12.2366C1.58956 12.3966 0.93676 12.7621 0.323133 13.2648C0.117503 13.4345 0 13.6826 0 13.9502V14.7499C0 14.9294 0.143615 15.073 0.323133 15.073C0.502652 15.073 0.646267 14.9294 0.646267 14.7499V13.9502C0.646267 13.8784 0.678907 13.8099 0.734394 13.7642C1.43288 13.1897 2.18686 12.8078 2.33374 12.7393C2.4643 12.6773 2.54264 12.5467 2.54264 12.4031V11.277C2.54264 11.1693 2.48715 11.0681 2.39902 11.0094C2.34353 10.9702 2.30763 10.9082 2.30763 10.8397V9.67116C2.30763 9.26969 2.63403 8.94329 3.0355 8.94329H3.28682C3.68829 8.94329 4.01469 9.26969 4.01469 9.67116V10.8397C4.01469 10.9082 3.98205 10.9702 3.9233 11.0094C3.83191 11.0681 3.77968 11.1693 3.77968 11.277V12.4031C3.77968 12.5467 3.86128 12.6773 3.98858 12.7393C4.13219 12.8111 4.88943 13.1897 5.58792 13.7642C5.64341 13.8099 5.67605 13.8752 5.67605 13.9502Z" fill="#016DEA"/>
<path d="M8.00004 12.3574C8.17956 12.3574 8.32317 12.2138 8.32317 12.0343V11.6002H8.35908C8.96944 11.6002 9.46883 11.104 9.46883 10.4904C9.46883 9.87678 8.9727 9.38065 8.35908 9.38065H7.641C7.38641 9.38065 7.17752 9.17176 7.17752 8.91717C7.17752 8.66258 7.38641 8.45695 7.641 8.45695H8.90416C9.08368 8.45695 9.22729 8.31333 9.22729 8.13381C9.22729 7.9543 9.08368 7.81068 8.90416 7.81068H8.31991V7.3831C8.31991 7.20358 8.17629 7.05997 7.99677 7.05997C7.81726 7.05997 7.67364 7.20358 7.67364 7.3831V7.81068H7.641C7.03064 7.81068 6.53125 8.3068 6.53125 8.92043C6.53125 9.53079 7.02737 10.0302 7.641 10.0302H8.35908C8.61367 10.0302 8.82256 10.2391 8.82256 10.4937C8.82256 10.7483 8.61367 10.9572 8.35908 10.9572H7.06981C6.89029 10.9572 6.74667 11.1008 6.74667 11.2803C6.74667 11.4598 6.89029 11.6034 7.06981 11.6034H7.6769V12.0375C7.6769 12.2138 7.82052 12.3574 8.00004 12.3574Z" fill="#016DEA"/>
</g>
<defs>
<clipPath id="clip0_4615_55616">
<rect width="16" height="16" fill="white"/>
</clipPath>
</defs>
</svg>
