<svg width="17" height="17" viewBox="0 0 17 17" fill="none" xmlns="http://www.w3.org/2000/svg">
<g clip-path="url(#clip0_53_7940)">
<path d="M7.54507 0.543751C6.39194 0.787501 5.43569 1.68125 5.13569 2.79688C5.05132 3.11875 5.02007 3.84375 5.07632 4.16875C5.30757 5.46563 6.34507 6.50313 7.63257 6.71875L7.85757 6.75625V7.37813V8H5.88257C4.74819 8 3.82632 8.0125 3.72007 8.03125C3.33882 8.09375 3.00132 8.34375 2.83257 8.6875C2.75132 8.85 2.74819 8.8875 2.73882 9.39063L2.72632 9.925L2.49507 9.99688C1.96069 10.1625 1.52944 10.6031 1.35444 11.1563C1.26382 11.4406 1.26382 11.9094 1.35444 12.1875C1.43257 12.4344 1.60132 12.725 1.76382 12.8875L1.88569 13.0094L1.65132 13.1438C1.10757 13.4531 0.716943 13.8688 0.451318 14.4188C0.223193 14.8938 0.195068 15.0156 0.179443 15.7188L0.163818 16.3281L0.248193 16.4156L0.335693 16.5H8.17007H16.0044L16.0919 16.4156L16.1763 16.3281L16.1607 15.7188C16.1451 15.0156 16.1169 14.8938 15.8888 14.4188C15.6232 13.8688 15.2326 13.4531 14.6888 13.1438L14.4544 13.0094L14.5763 12.8875C14.7388 12.725 14.9076 12.4344 14.9857 12.1875C15.0763 11.9094 15.0763 11.4406 14.9857 11.1563C14.8107 10.6031 14.3638 10.1469 13.8388 9.99375L13.6138 9.925L13.6013 9.39375C13.5919 8.8875 13.5888 8.85 13.5076 8.6875C13.3388 8.34375 13.0013 8.09375 12.6201 8.03125C12.5138 8.0125 11.5919 8 10.4607 8H8.48257V7.37813V6.75625L8.70757 6.71875C9.81069 6.53125 10.7794 5.70938 11.1388 4.65625C11.3513 4.02813 11.3513 3.22188 11.1388 2.59375C10.8169 1.65 9.96382 0.853126 8.99819 0.590626C8.67944 0.506251 7.86069 0.478127 7.54507 0.543751ZM8.76069 1.22188C9.24194 1.33125 9.75132 1.65 10.0826 2.05C10.2763 2.28125 10.5263 2.79063 10.5888 3.08438C10.6544 3.375 10.6513 3.87813 10.5888 4.16563C10.4732 4.68438 10.1138 5.25313 9.69507 5.57188C9.24507 5.91563 8.72007 6.09688 8.17007 6.09688C7.77319 6.09688 7.47007 6.025 7.09194 5.84375C6.55444 5.58125 6.21382 5.24063 5.95132 4.70313C5.76694 4.32188 5.70132 4.04063 5.70132 3.625C5.70132 3.20938 5.76694 2.92813 5.95132 2.54688C6.21382 2.00938 6.55444 1.66875 7.09194 1.40625C7.64819 1.13438 8.14507 1.08125 8.76069 1.22188ZM7.85757 9.29063V9.92188L7.62007 9.99688C7.08569 10.1625 6.65444 10.6 6.47944 11.1563C6.38882 11.4406 6.38882 11.9094 6.47944 12.1875C6.55757 12.4313 6.72319 12.7219 6.88882 12.8906L7.01069 13.0156L6.76382 13.1531C6.62632 13.2281 6.42319 13.3656 6.31069 13.4594C6.09819 13.6344 5.76069 14.0344 5.67632 14.2094C5.64819 14.2656 5.61694 14.3125 5.60757 14.3125C5.59819 14.3125 5.56694 14.2656 5.53882 14.2094C5.46382 14.05 5.13569 13.6531 4.94819 13.4938C4.75757 13.3313 4.44194 13.1219 4.29507 13.0625L4.19819 13.0219L4.32319 12.8938C4.48882 12.7219 4.65757 12.4344 4.73569 12.1875C4.82632 11.9094 4.82632 11.4406 4.73569 11.1563C4.56069 10.6 4.11382 10.1469 3.58257 9.99063L3.35132 9.92188L3.36382 9.5C3.37944 9.05 3.40444 8.95625 3.55444 8.81875C3.72319 8.65938 3.72944 8.65938 5.86694 8.65625H7.85757V9.29063ZM12.5513 8.6875C12.6169 8.70625 12.7107 8.75625 12.7638 8.80313C12.9326 8.94375 12.9607 9.0375 12.9763 9.5L12.9888 9.92188L12.7513 9.99688C12.2107 10.1625 11.7794 10.6 11.6044 11.1563C11.5138 11.4406 11.5138 11.9094 11.6044 12.1875C11.6826 12.4313 11.8482 12.7219 12.0138 12.8906L12.1357 13.0156L11.8888 13.1531C11.7513 13.2281 11.5482 13.3656 11.4357 13.4594C11.2232 13.6344 10.8857 14.0344 10.8013 14.2094C10.7732 14.2656 10.7419 14.3125 10.7326 14.3125C10.7232 14.3125 10.6919 14.2656 10.6638 14.2094C10.5888 14.05 10.2607 13.6531 10.0732 13.4938C9.88257 13.3313 9.56694 13.1219 9.42007 13.0625L9.32319 13.0219L9.44819 12.8938C9.61382 12.7219 9.78257 12.4344 9.86069 12.1875C9.95132 11.9094 9.95132 11.4406 9.86069 11.1563C9.68569 10.6 9.23882 10.1469 8.71069 9.99375L8.48257 9.925V9.29063V8.65625H10.4607C11.7232 8.65625 12.4763 8.66875 12.5513 8.6875ZM3.52632 10.6844C4.35132 11.0906 4.35444 12.2531 3.52944 12.6594C2.79819 13.0188 1.94507 12.4875 1.94507 11.6719C1.94507 11.425 2.01382 11.2125 2.16382 11.0156C2.48882 10.5813 3.04507 10.4469 3.52632 10.6844ZM8.65132 10.6844C9.47632 11.0906 9.47944 12.2531 8.65444 12.6594C8.17007 12.8969 7.61694 12.7625 7.28882 12.3281C6.99194 11.9344 6.99194 11.4094 7.28882 11.0156C7.61382 10.5813 8.17007 10.4469 8.65132 10.6844ZM13.7763 10.6844C14.6013 11.0906 14.6044 12.2531 13.7794 12.6594C13.0482 13.0188 12.1951 12.4875 12.1951 11.6719C12.1951 11.425 12.2638 11.2125 12.4138 11.0156C12.7388 10.5813 13.2951 10.4469 13.7763 10.6844ZM3.60132 13.5125C4.02632 13.6281 4.49507 13.9313 4.76694 14.2625C5.07007 14.6313 5.23569 15.0719 5.27632 15.6156L5.29507 15.875H3.04507H0.795068L0.813818 15.6156C0.854443 15.0719 1.02007 14.6313 1.32319 14.2625C1.60757 13.9125 2.13882 13.5844 2.54507 13.5031C2.63882 13.4844 2.74507 13.4625 2.77944 13.4563C2.89194 13.4281 3.43257 13.4656 3.60132 13.5125ZM8.72632 13.5125C9.15132 13.6281 9.62007 13.9313 9.89194 14.2625C10.1951 14.6313 10.3607 15.0719 10.4013 15.6156L10.4201 15.875H8.17007H5.92007L5.93882 15.6156C5.97944 15.0719 6.14507 14.6313 6.44819 14.2625C6.73257 13.9125 7.26382 13.5844 7.67007 13.5031C7.76382 13.4844 7.87007 13.4625 7.90444 13.4563C8.01694 13.4281 8.55757 13.4656 8.72632 13.5125ZM13.8513 13.5125C14.2763 13.6281 14.7451 13.9313 15.0169 14.2625C15.3201 14.6313 15.4857 15.0719 15.5263 15.6156L15.5451 15.875H13.2951H11.0451L11.0638 15.6156C11.1044 15.0719 11.2701 14.6313 11.5732 14.2625C11.8576 13.9125 12.3888 13.5844 12.7951 13.5031C12.8888 13.4844 12.9951 13.4625 13.0294 13.4563C13.1419 13.4281 13.6826 13.4656 13.8513 13.5125Z" fill="white"/>
<path d="M8.52317 3.225L7.76692 3.98125L7.42317 3.64688C7.08254 3.3125 7.07942 3.3125 6.92629 3.3125C6.71067 3.3125 6.60754 3.41563 6.60754 3.63125V3.7875L7.05442 4.24063C7.29817 4.49063 7.53567 4.7125 7.58254 4.7375C7.62942 4.7625 7.72004 4.78125 7.78567 4.78125C7.89817 4.78125 7.94192 4.74375 8.81692 3.86563L9.73254 2.95313V2.80313C9.73254 2.67813 9.71692 2.63438 9.64192 2.55938C9.57004 2.4875 9.52317 2.46875 9.41692 2.46875C9.28254 2.46875 9.27629 2.475 8.52317 3.225Z" fill="white"/>
</g>
<defs>
<clipPath id="clip0_53_7940">
<rect width="16" height="16" fill="white" transform="translate(0.170044 0.5)"/>
</clipPath>
</defs>
</svg>
