<svg width="24" height="24" viewBox="0 0 24 24" fill="none" xmlns="http://www.w3.org/2000/svg">
<path d="M11.5 15H8C6.93913 15 5.92172 15.4214 5.17157 16.1716C4.42143 16.9217 4 17.9391 4 19V21" stroke="white" stroke-linecap="round" stroke-linejoin="round"/>
<path d="M16.5 12L17.5815 14.3039L20 14.6756L18.25 16.4679L18.663 19L16.5 17.8039L14.337 19L14.75 16.4679L13 14.6756L15.4185 14.3039L16.5 12Z" stroke="white" stroke-linecap="round" stroke-linejoin="round"/>
<path d="M12 11C14.2091 11 16 9.20914 16 7C16 4.79086 14.2091 3 12 3C9.79086 3 8 4.79086 8 7C8 9.20914 9.79086 11 12 11Z" stroke="white" stroke-linecap="round" stroke-linejoin="round"/>
</svg>
