<svg width="17" height="17" viewBox="0 0 17 17" fill="none" xmlns="http://www.w3.org/2000/svg">
<g clip-path="url(#clip0_53_7988)">
<path d="M7.46692 1.33494C6.90129 1.38494 6.27942 1.61619 5.74817 1.96619C5.46067 2.15682 5.00129 2.61307 4.80442 2.90682C4.36692 3.55994 4.17004 4.20682 4.17004 5.00057C4.17004 5.79432 4.35129 6.39432 4.78879 7.06307C5.28254 7.81619 6.14192 8.39744 7.04504 8.59432C8.07004 8.81932 9.21067 8.57557 10.0294 7.96307C11.4669 6.88182 11.9263 4.94432 11.1232 3.34432C10.4388 1.98494 9.00442 1.19432 7.46692 1.33494ZM8.27942 2.39119C9.54504 2.61307 10.4825 3.72244 10.4825 5.00057C10.4825 5.55682 10.3013 6.10369 9.97629 6.54744C9.06692 7.77869 7.37942 8.00994 6.18879 7.06307C5.78567 6.74432 5.50129 6.33182 5.32004 5.81307C5.22004 5.52244 5.21692 5.50369 5.21692 5.00057C5.21692 4.49744 5.22004 4.47869 5.32004 4.18807C5.55754 3.50369 5.99192 2.98807 6.61067 2.66307C7.14192 2.37869 7.69504 2.29119 8.27942 2.39119Z" fill="white"/>
<path d="M11.2169 8.70326C10.1263 8.90951 9.17626 9.62201 8.67626 10.6095C8.33251 11.297 8.23251 12.2751 8.43251 13.047C8.69188 14.047 9.40438 14.9095 10.3388 15.347C11.5013 15.8908 12.8981 15.7564 13.92 15.0001C14.195 14.797 14.5888 14.3845 14.7763 14.1001C15.7669 12.6064 15.4419 10.5533 14.0356 9.42201C13.7075 9.15639 13.1388 8.87201 12.7169 8.76264C12.32 8.65951 11.6075 8.63139 11.2169 8.70326ZM12.4669 9.76264C13.2544 9.97514 13.9294 10.6095 14.1794 11.3689C14.4044 12.0501 14.3544 12.6783 14.0231 13.322C13.9044 13.5564 13.8231 13.6626 13.5763 13.9064C13.3325 14.1533 13.2263 14.2345 12.9919 14.3533C12.5825 14.5658 12.3013 14.6345 11.8419 14.6376C11.4388 14.6376 11.1763 14.5845 10.8169 14.4251C9.89813 14.0189 9.31376 13.0533 9.36688 12.0314C9.42313 10.9001 10.245 9.95951 11.3919 9.71889C11.5919 9.67826 12.2481 9.70326 12.4669 9.76264Z" fill="white"/>
<path d="M11.5295 10.0497C11.2638 10.1935 11.1607 10.3872 11.1763 10.7029C11.1888 10.9872 11.2888 11.1466 11.5232 11.2654C11.992 11.4966 12.5107 11.1841 12.5138 10.6685C12.5138 10.456 12.3951 10.2216 12.2263 10.106C12.117 10.0279 12.0638 10.0154 11.8607 10.006C11.6888 9.99973 11.5982 10.0122 11.5295 10.0497Z" fill="white"/>
<path d="M11.5763 11.7252C11.5169 11.7658 11.4357 11.8471 11.3982 11.9033C11.3263 12.0096 11.3263 12.0221 11.3263 13.0002C11.3263 13.9783 11.3263 13.9908 11.3982 14.0971C11.4357 14.1533 11.5169 14.2346 11.5763 14.2752C11.6669 14.3377 11.7138 14.3471 11.8669 14.3377C12.0825 14.3221 12.1888 14.2533 12.2888 14.0627C12.3544 13.9283 12.3575 13.8971 12.3575 13.0002C12.3575 12.1033 12.3544 12.0721 12.2888 11.9377C12.1888 11.7471 12.0825 11.6783 11.8669 11.6627C11.7138 11.6533 11.6669 11.6627 11.5763 11.7252Z" fill="white"/>
<path d="M7.0138 9.25312C4.5388 9.40937 2.42005 10.2625 1.50755 11.4688C1.3263 11.7094 1.12942 12.0969 1.05755 12.3594C0.991923 12.5938 0.957548 13.8469 1.01067 14.0906C1.09192 14.4781 1.28567 14.725 1.63255 14.8969L1.87005 15.0156H4.93255H7.99817L8.1138 14.9438C8.36067 14.7906 8.42317 14.4312 8.24505 14.1937C8.0888 13.9906 8.24817 14 5.03255 14C2.42005 14 2.10755 13.9937 2.0638 13.95C2.02317 13.9094 2.0138 13.8125 2.0138 13.375C2.0138 12.7719 2.04192 12.5938 2.18255 12.3281C2.37942 11.9531 2.9638 11.45 3.5513 11.1531C4.58255 10.6344 5.92005 10.3281 7.46692 10.2625C7.74817 10.25 8.01067 10.225 8.0638 10.2031C8.20755 10.1437 8.3263 9.97187 8.34505 9.79375C8.37005 9.58437 8.26692 9.39062 8.0763 9.29063C7.9263 9.20937 7.76692 9.20625 7.0138 9.25312Z" fill="white"/>
</g>
<defs>
<clipPath id="clip0_53_7988">
<rect width="16" height="16" fill="white" transform="translate(0.170044 0.5)"/>
</clipPath>
</defs>
</svg>
