<svg width="24" height="24" viewBox="0 0 24 24" fill="none" xmlns="http://www.w3.org/2000/svg">
<path d="M11.5875 0.318748C11.3625 0.403124 11.1891 0.520311 11.025 0.703125C10.9922 0.740623 10.5375 1.63594 10.0125 2.69531C9.42187 3.89062 9.02344 4.64062 8.9625 4.67344C8.91094 4.70625 7.92187 4.87031 6.76406 5.04375C5.31562 5.25469 4.6125 5.38125 4.49531 5.4375C4.02656 5.67656 3.82031 6.02344 3.82031 6.5625C3.82031 6.82969 3.84844 6.95625 3.92344 7.10156C4.0125 7.27031 5.03906 8.31094 6.52969 9.75C7.09219 10.2937 7.14375 10.3594 7.13437 10.5703C7.12969 10.6453 6.97969 11.5687 6.79687 12.6141C6.61875 13.6641 6.46875 14.6344 6.46875 14.7703C6.47344 15.5109 7.2 16.0969 7.92656 15.9422C8.07656 15.9094 8.65312 15.6375 9.38906 15.2531C10.0547 14.9016 10.6125 14.625 10.6219 14.6391C10.6547 14.6672 10.5516 15.7734 10.4766 16.2656C10.2937 17.3859 9.92812 18.3797 9.4125 19.1391L9.22969 19.4062H8.92031C8.1375 19.4062 7.49062 19.8375 7.3125 20.4844C7.28906 20.5734 7.26562 21.1687 7.26562 21.8062V22.9687H6.66562C6.09844 22.9687 6.05625 22.9734 5.9625 23.0766C5.83125 23.2125 5.82656 23.4797 5.94844 23.6297L6.0375 23.7422H12H17.9625L18.0516 23.6297C18.1781 23.475 18.1687 23.1984 18.0328 23.0719C17.9344 22.9781 17.8734 22.9687 17.3297 22.9687H16.7344V21.8062C16.7344 21.1687 16.7109 20.5734 16.6875 20.4844C16.5094 19.8375 15.8625 19.4062 15.0797 19.4062H14.7703L14.5875 19.1391C14.0719 18.3797 13.7062 17.3859 13.5234 16.2656C13.4484 15.7734 13.3453 14.6672 13.3781 14.6391C13.3875 14.625 13.9453 14.9016 14.6109 15.2531C15.2766 15.6 15.9281 15.9094 16.0547 15.9375C16.7906 16.1016 17.5266 15.5203 17.5312 14.7703C17.5312 14.6344 17.3812 13.6641 17.2031 12.6141C17.0203 11.5687 16.8703 10.6453 16.8656 10.5703C16.8562 10.3594 16.9078 10.2937 17.4703 9.75C18.9609 8.31094 19.9875 7.27031 20.0672 7.11094C20.3625 6.54375 20.1281 5.77969 19.5656 5.475C19.3641 5.36719 19.0875 5.31562 17.2312 5.03906C16.0781 4.87031 15.0844 4.70156 15.0328 4.67344C14.9766 4.64062 14.5687 3.86719 13.9922 2.69531C13.3312 1.35938 12.9984 0.726562 12.8859 0.614061C12.5484 0.28125 12.0281 0.164062 11.5875 0.318748ZM12.2719 1.13437C12.3094 1.16719 12.7687 2.05781 13.2984 3.11719C13.8281 4.17188 14.3016 5.09062 14.3578 5.14687C14.4141 5.20781 14.55 5.31094 14.6531 5.37187C14.8594 5.49375 14.8641 5.49375 17.7656 5.925C19.1437 6.13125 19.1437 6.13125 19.275 6.27656C19.3594 6.375 19.4062 6.47344 19.4062 6.57656C19.4062 6.7125 19.2562 6.87656 17.8125 8.29687C16.6594 9.43594 16.2047 9.91875 16.1484 10.05C16.0312 10.3547 16.0641 10.7297 16.4062 12.7031C16.5891 13.7484 16.7344 14.6625 16.7344 14.7328C16.7344 14.8031 16.7016 14.9156 16.6594 14.9766C16.575 15.1078 16.3219 15.2062 16.1906 15.1547C16.1437 15.1359 15.2812 14.6953 14.2828 14.1703C12.3609 13.1625 12.1875 13.0922 11.7703 13.1719C11.625 13.2 10.9031 13.5516 9.72187 14.1703C8.71875 14.6953 7.85625 15.1359 7.80937 15.1547C7.57969 15.2437 7.26562 15 7.26562 14.7375C7.26562 14.6672 7.41562 13.7531 7.59375 12.7031C7.93594 10.7203 7.96875 10.3547 7.85156 10.05C7.79531 9.91875 7.34062 9.43594 6.1875 8.29687C4.74375 6.87656 4.59375 6.7125 4.59375 6.57656C4.59375 6.47344 4.64062 6.375 4.725 6.27656L4.85625 6.13125L6.86719 5.83125C7.97812 5.66719 8.94375 5.52187 9.02344 5.50312C9.20156 5.46562 9.51094 5.29219 9.63281 5.15625C9.68437 5.10469 10.1719 4.17656 10.7109 3.10312C11.4609 1.61719 11.7234 1.13437 11.8125 1.0875C11.9391 1.02187 12.1641 1.04531 12.2719 1.13437ZM12.2859 14.0437L12.5625 14.1703V14.4375C12.5625 14.8453 12.6516 15.8578 12.7312 16.3828C12.8859 17.3766 13.1672 18.2625 13.5703 19.0172L13.7766 19.4062H12H10.2234L10.4297 19.0172C10.8328 18.2625 11.1141 17.3766 11.2687 16.3828C11.3484 15.8578 11.4375 14.8453 11.4375 14.4375V14.1703L11.7094 14.0484C11.8547 13.9781 11.9859 13.9219 11.9953 13.9219C12.0047 13.9219 12.1359 13.9781 12.2859 14.0437ZM15.5344 20.2969C15.6422 20.3484 15.7734 20.4609 15.8344 20.5453C15.9328 20.6953 15.9375 20.7375 15.9375 21.8344V22.9687H12H8.0625V21.8344C8.0625 20.7375 8.06719 20.6953 8.17031 20.5453C8.22656 20.4609 8.35781 20.3484 8.46094 20.2969C8.64375 20.2078 8.74687 20.2031 11.9953 20.2031C15.2437 20.2031 15.3516 20.2078 15.5344 20.2969Z" fill="white"/>
<path d="M10.2792 21.2579C10.0682 21.4079 10.1057 21.825 10.3401 21.9329C10.5042 22.0032 13.4948 22.0032 13.6589 21.9329C13.8932 21.825 13.9307 21.4079 13.7198 21.2579C13.5698 21.1547 10.4292 21.1547 10.2792 21.2579Z" fill="white"/>
<path d="M2.40015 4.29836C2.30171 4.33586 2.1939 4.59367 2.22671 4.72492C2.25483 4.84679 2.62046 5.35773 2.77515 5.49367C2.91577 5.61554 3.19233 5.60148 3.3189 5.47023C3.52515 5.24992 3.40327 4.92179 2.91577 4.39211C2.79858 4.27023 2.57358 4.22804 2.40015 4.29836Z" fill="white"/>
<path d="M21.0848 4.39227C20.5926 4.92665 20.4661 5.26884 20.6864 5.47509C20.8223 5.60165 21.0942 5.61102 21.2254 5.49384C21.3801 5.3579 21.7458 4.84696 21.7739 4.72509C21.8114 4.58446 21.6989 4.34071 21.5864 4.29384C21.4036 4.22821 21.2067 4.26571 21.0848 4.39227Z" fill="white"/>
<path d="M1.41565 6.24844C1.27503 6.39844 1.27972 6.65625 1.42034 6.7875C1.51878 6.88125 1.57972 6.89062 2.05315 6.89062C2.6719 6.89062 2.76565 6.83906 2.76565 6.51562C2.76565 6.19219 2.6719 6.14062 2.04847 6.14062C1.55159 6.14062 1.5094 6.15 1.41565 6.24844Z" fill="white"/>
<path d="M21.3281 6.23438C21.2672 6.29531 21.2344 6.38906 21.2344 6.51562C21.2344 6.83906 21.3281 6.89062 21.9516 6.89062C22.4484 6.89062 22.4906 6.88125 22.5844 6.78281C22.725 6.63281 22.7203 6.375 22.5797 6.24375C22.4813 6.15 22.4203 6.14062 21.9469 6.14062C21.4828 6.14062 21.4125 6.15 21.3281 6.23438Z" fill="white"/>
<path d="M2.77454 7.53273C2.61986 7.67335 2.25423 8.18429 2.22611 8.30616C2.18861 8.44679 2.30111 8.69054 2.41361 8.73741C2.59642 8.80304 2.79329 8.76554 2.91517 8.63429C3.40736 8.1046 3.53392 7.76241 3.31361 7.55616C3.17767 7.4296 2.90579 7.42023 2.77454 7.53273Z" fill="white"/>
<path d="M20.682 7.56085C20.4758 7.78116 20.5977 8.10929 21.0852 8.63429C21.207 8.76554 21.4039 8.80304 21.5867 8.73741C21.6992 8.69054 21.8117 8.44679 21.7742 8.30616C21.7461 8.18429 21.3805 7.67335 21.2258 7.53273C21.0852 7.41554 20.8086 7.4296 20.682 7.56085Z" fill="white"/>
</svg>
