<svg width="16" height="16" viewBox="0 0 16 16" fill="none" xmlns="http://www.w3.org/2000/svg">
<path d="M12.6667 2.66666H3.33333C2.59695 2.66666 2 3.26361 2 3.99999V13.3333C2 14.0697 2.59695 14.6667 3.33333 14.6667H12.6667C13.403 14.6667 14 14.0697 14 13.3333V3.99999C14 3.26361 13.403 2.66666 12.6667 2.66666Z" stroke="#016DEA" stroke-linecap="round" stroke-linejoin="round"/>
<path d="M10.668 1.33334V4.00001" stroke="#016DEA" stroke-width="2" stroke-linecap="round" stroke-linejoin="round"/>
<path d="M5.33203 1.33334V4.00001" stroke="#016DEA" stroke-width="2" stroke-linecap="round" stroke-linejoin="round"/>
<path d="M2 6.66666H14" stroke="#016DEA" stroke-linecap="round" stroke-linejoin="round"/>
<path d="M4.79523 9.05206C4.66086 9.15519 4.63898 9.25831 4.65148 9.71769C4.66086 10.1396 4.66086 10.1427 4.75148 10.2364L4.84523 10.3333H5.33273H5.82023L5.91398 10.2364L6.00461 10.1427V9.65831V9.17081L5.90148 9.08019L5.80148 8.98956H5.33586C4.92336 8.98956 4.86398 8.99581 4.79523 9.05206Z" fill="#016DEA"/>
</svg>
