<svg width="24" height="24" viewBox="0 0 24 24" fill="none" xmlns="http://www.w3.org/2000/svg">
<g clip-path="url(#clip0_22_7634)">
<path d="M22.8 18.341C20.4 17.0682 18.562 16.3576 16.9253 16.0887L17.12 15.821C17.2 15.741 17.24 15.621 17.2 15.501L16.8326 14.0311C17.8195 12.6313 18.4 10.8836 18.4 9.22096V6.42098C18.4 2.901 15.52 0.0209961 12 0.0209961C8.48006 0.0209961 5.60002 2.901 5.60002 6.42098V9.22096C5.60002 10.8836 6.18052 12.6313 7.16747 14.0311L6.80002 15.501C6.80002 15.621 6.80002 15.741 6.88003 15.861L7.04873 16.0929C5.41861 16.3651 3.58739 17.075 1.20005 18.341C0.440016 18.701 0 19.461 0 20.301V23.581C0 23.821 0.159984 23.981 0.399984 23.981H9.99998H14H23.6C23.84 23.981 24 23.821 24 23.581V20.301C24 19.501 23.52 18.741 22.8 18.341ZM12 17.391L12.12 17.661L12.96 19.621H11.0089L12 17.391ZM10.7454 20.5464L10.76 20.421H13.24L13.2545 20.5464L13.5505 23.181H10.4494L10.7454 20.5464ZM16.2 14.821L16.36 15.541L15.9514 16.102C15.9253 16.1234 15.9012 16.1492 15.88 16.181L14.2158 18.4852L13.6882 19.2096L12.6099 16.7833C13.9252 16.6229 15.0965 15.9524 16.0355 14.9919C16.0909 14.9361 16.1459 14.8793 16.2 14.821ZM6.39998 6.42098C6.39998 3.34097 8.91998 0.820965 12 0.820965C15.08 0.820965 17.6 3.34097 17.6 6.42098V9.22096C17.6 10.9389 17.0195 12.4684 16.1436 13.6398L16.08 13.661C16.0401 13.7009 16 13.741 15.96 13.781C14.88 15.221 13.4801 15.9809 12.0001 15.9809H12C10.56 15.9809 9.16003 15.1809 8.04005 13.781C8.00006 13.741 7.96003 13.7009 7.92005 13.661L7.85648 13.6398C6.98062 12.4684 6.40008 10.9389 6.40008 9.22096V6.42098H6.39998ZM11.3901 16.7833L10.3117 19.2096L9.78398 18.485L8.12002 16.181C8.10727 16.1682 8.0932 16.1556 8.07858 16.1432L7.64002 15.541L7.8 14.821C7.85419 14.8793 7.90912 14.9362 7.96458 14.9921C8.90362 15.9526 10.0748 16.6229 11.3901 16.7833ZM0.800016 20.301C0.800016 19.781 1.08 19.301 1.56 19.061C4.10967 17.7065 5.94506 17.0267 7.58006 16.8236L9.99895 20.1496L9.63998 23.181H0.800016V20.301ZM23.2 23.181H14.3995L14.0473 20.0459L16.4196 16.784C18.055 17.0265 19.93 17.7062 22.44 19.021C22.92 19.301 23.2 19.781 23.2 20.301V23.181Z" fill="white"/>
</g>
<defs>
<clipPath id="clip0_22_7634">
<rect width="24" height="24" fill="white"/>
</clipPath>
</defs>
</svg>
