<svg width="16" height="16" viewBox="0 0 16 16" fill="none" xmlns="http://www.w3.org/2000/svg">
<g clip-path="url(#clip0_4630_55567)">
<path d="M8 15.75C12.2802 15.75 15.75 12.2802 15.75 8C15.75 3.71979 12.2802 0.25 8 0.25C3.71979 0.25 0.25 3.71979 0.25 8C0.25 12.2802 3.71979 15.75 8 15.75Z" stroke="#016DEA" stroke-width="0.5"/>
<path d="M8.22478 0.300171C8.22478 0.300171 7.74978 0.750171 7.49978 1.00017C7.24978 1.25017 6.74978 1.25017 6.99978 1.50017C7.24978 1.75017 7.24978 2.00017 7.24978 2.00017L6.99978 2.25017C6.99978 2.25017 6.99978 2.50017 6.49978 2.75017C5.99978 3.00017 5.99978 2.75017 5.74978 3.00017C5.49978 3.25017 5.49978 3.25017 5.24978 3.25017C4.99978 3.25017 4.99978 3.50017 4.74978 3.50017C4.49978 3.50017 4.74978 2.50017 4.74978 2.50017L5.24978 2.25017L5.74978 2.00017C5.74978 2.00017 5.99978 1.50017 5.74978 1.50017H5.49978C5.49978 1.50017 5.49978 1.25017 5.24978 1.00017L4.99978 0.750171" stroke="#016DEA" stroke-width="0.5"/>
<path d="M2.875 2.22498L3.25 3.74998L3 4.24998C3 4.24998 2.5 4.24998 2.5 4.74998C2.5 5.24998 2.25 4.74998 2.5 5.24998C2.75 5.74998 2.5 5.99998 2.5 5.99998V6.24998V6.74998H1.75C1.75 6.74998 1.75 6.74998 1.5 6.74998C1.25 6.74998 1.25 6.74998 1 6.99998C0.75 7.24998 0.75 7.24998 0.75 7.49998V7.74998L0.5 8.24998L0.25 8.49998" stroke="#016DEA" stroke-width="0.5"/>
<path d="M0.375 9.34998C0.625 9.59998 0.875 9.59998 0.875 9.59998C0.875 9.59998 2 9.24998 2.25 9.49998C2.5 9.74998 2.5 10.25 2.5 10.25V10.5C2.5 10.5 3 11.25 3.25 11.25H3.5C3.5 11.25 3.75 11.5 4 11.5C4.25 11.5 4.5 11.75 4.5 11.75C4.5 11.75 4.75 12.5 4.5 12.5C4.25 12.5 4.25 12.75 4.25 12.75C4.25 12.75 4.25 13.75 4.75 14C5.25 14.25 5.75 14.5 6 14.75C6.25 15 6.5 14.75 6.5 15C6.5 15.25 7 15.75 8 15.75" stroke="#016DEA" stroke-width="0.5"/>
<path d="M15.75 8.75C15.75 8.75 15 8 15 8.25C15 8.5 14.75 8.75 14.75 9.25C14.75 9.75 14.5 10.5 14.5 10.5L14 10L14.25 8.75L13.5 8H13C13 8 13.25 8.5 13.25 8.75V9.75C13.25 9.75 12.75 10.75 12.75 11C12.75 11.25 12.5 11 12.25 11.5C12 12 11.75 12 11.5 12.5C11.25 13 10.75 13.25 10.5 13.75C10.25 14.25 10 14 10 13.75C10 13.5 9.5 13 9.75 12.75C10 12.5 9.75 12.25 10 12C10.25 11.75 10.5 11.75 10.25 11.5C10 11.25 9.75 11.25 9.75 11V10C9.75 10 9.25 9.25 9 9.5L8.5 10L7.5 9.25L8 8L7.75 7C7.75 7 8.5 6.25 8.5 6C8.5 5.75 8.75 5.5 8.75 5.5L8.5 4.5C8.5 4.5 8.25 4.25 8.75 4.5C9.25 4.75 9.5 5.25 9.5 5.25L10.25 5C10.25 5 10.25 5 10.25 4.75C10.25 4.5 10.5 4 10.75 4H11.25L12.25 3C12.25 3 11.25 2.75 11.25 2.5C11.25 2.25 11.25 2 11.5 1.75C11.75 1.5 12.25 1.5 12.25 1.5" stroke="#016DEA" stroke-width="0.5"/>
</g>
<defs>
<clipPath id="clip0_4630_55567">
<rect width="16" height="16" fill="white"/>
</clipPath>
</defs>
</svg>
