<svg width="17" height="17" viewBox="0 0 17 17" fill="none" xmlns="http://www.w3.org/2000/svg">
<path d="M12.19 1.94V2.09H12.34H15.7C15.9711 2.09 16.19 2.30884 16.19 2.58V15.86C16.19 16.1312 15.9711 16.35 15.7 16.35H0.979966C0.708808 16.35 0.489966 16.1312 0.489966 15.86V2.58C0.489966 2.30884 0.708809 2.09 0.979966 2.09H4.33997H4.48997V1.94V0.66C4.48997 0.657717 4.49076 0.655334 4.49303 0.653066C4.4953 0.650799 4.49768 0.65 4.49997 0.65H5.61997C5.62225 0.65 5.62463 0.650799 5.6269 0.653066C5.62917 0.655333 5.62997 0.657717 5.62997 0.66V1.94V2.09H5.77997H10.9H11.05V1.94V0.66C11.05 0.657717 11.0508 0.655334 11.053 0.653066C11.0553 0.650799 11.0577 0.65 11.06 0.65H12.18C12.1823 0.65 12.1846 0.650799 12.1869 0.653066C12.1892 0.655333 12.19 0.657716 12.19 0.66V1.94ZM14.9 15.21H15.05V15.06V3.38V3.23H14.9H12.34H12.19V3.38V4.34C12.19 4.34228 12.1892 4.34467 12.1869 4.34693C12.1846 4.3492 12.1823 4.35 12.18 4.35H11.06C11.0577 4.35 11.0553 4.3492 11.053 4.34693C11.0508 4.34467 11.05 4.34228 11.05 4.34V3.38V3.23H10.9H5.77997H5.62997V3.38V4.34C5.62997 4.34228 5.62917 4.34467 5.6269 4.34693C5.62463 4.3492 5.62225 4.35 5.61997 4.35H4.49997C4.49768 4.35 4.4953 4.3492 4.49303 4.34693C4.49076 4.34467 4.48997 4.34228 4.48997 4.34V3.38V3.23H4.33997H1.77997H1.62997V3.38V15.06V15.21H1.77997H14.9ZM7.35664 11.0362L7.47803 11.2032L7.59934 11.0361L10.617 6.88058C10.6171 6.88052 10.6171 6.88047 10.6171 6.88042C10.649 6.83698 10.702 6.81 10.756 6.81H11.86C11.8632 6.81 11.8643 6.81071 11.8647 6.81101C11.8657 6.81162 11.8673 6.81306 11.8686 6.81564C11.8699 6.81821 11.8703 6.82069 11.8702 6.82255C11.8701 6.82378 11.8699 6.82586 11.8677 6.82914L7.61685 12.6815C7.6168 12.6816 7.61675 12.6816 7.6167 12.6817C7.60076 12.7035 7.57991 12.7212 7.55585 12.7334C7.53172 12.7457 7.50503 12.752 7.47797 12.752C7.4509 12.752 7.42421 12.7457 7.40008 12.7334C7.37603 12.7212 7.35518 12.7035 7.33923 12.6817C7.33918 12.6816 7.33913 12.6816 7.33908 12.6815L4.81187 9.2026C4.81182 9.20253 4.81177 9.20245 4.81172 9.20238C4.80986 9.19972 4.80976 9.19832 4.80972 9.19762C4.80965 9.19633 4.80993 9.19415 4.81121 9.19166C4.81249 9.18917 4.81407 9.1877 4.8151 9.18705C4.81562 9.18671 4.81673 9.186 4.81997 9.186H5.92397C5.97939 9.186 6.03065 9.21258 6.06281 9.25644C6.06284 9.25648 6.06288 9.25653 6.06291 9.25658L7.35664 11.0362Z" fill="white" stroke="white" stroke-width="0.3"/>
</svg>
