<svg width="16" height="16" viewBox="0 0 16 16" fill="none" xmlns="http://www.w3.org/2000/svg">
<g clip-path="url(#clip0_4625_54629)">
<path d="M9.01712 1.89956V0.666678H10.0129V0H7.35469V0.666678H8.35044V1.90563C7.61395 1.94671 6.89513 2.10083 6.2085 2.36637C6.03681 2.43275 5.95149 2.6258 6.01794 2.79752C6.08452 2.96937 6.27753 3.05499 6.44909 2.98808C7.18247 2.70459 7.95691 2.56069 8.75087 2.56069C12.2723 2.56069 15.1372 5.4256 15.1372 8.9471C15.1372 12.4684 12.2723 15.3333 8.75087 15.3333C5.47423 15.3333 2.76644 12.8526 2.40589 9.67076L4.27283 11.2112C4.41477 11.3284 4.62489 11.3082 4.74205 11.1661C4.85924 11.0242 4.83906 10.8141 4.69699 10.6969L2.24549 8.67412C2.15955 8.59193 1.89101 8.5182 1.7398 8.77358L0.236025 11.5737C0.14894 11.736 0.204907 11.9477 0.371928 12.0251C0.584793 12.1237 0.763209 12.0011 0.823258 11.8892L1.79064 10.0878C2.33754 13.4362 5.2502 16 8.75083 16C12.6398 16 15.8039 12.8361 15.8039 8.9471C15.8039 5.1473 12.7832 2.04013 9.01712 1.89956Z" fill="#016DEA"/>
<path d="M8.75082 7.41876C7.90821 7.41876 7.22266 8.10431 7.22266 8.94709C7.22266 9.7897 7.90821 10.4753 8.75082 10.4753C8.95216 10.4753 9.14435 10.4357 9.32055 10.3647L11.6019 12.904C11.7248 13.0409 11.9352 13.0525 12.0726 12.9291C12.2095 12.8062 12.2207 12.5954 12.0977 12.4584L9.8734 9.98258C10.125 9.71009 10.279 9.34631 10.279 8.94712C10.279 8.10431 9.59343 7.41876 8.75082 7.41876ZM8.75082 9.80857C8.27572 9.80857 7.88933 9.42219 7.88933 8.94709C7.88933 8.47199 8.27572 8.08544 8.75082 8.08544C9.22592 8.08544 9.61231 8.47199 9.61231 8.94709C9.61234 9.42219 9.22592 9.80857 8.75082 9.80857Z" fill="#016DEA"/>
</g>
<defs>
<clipPath id="clip0_4625_54629">
<rect width="16" height="16" fill="white"/>
</clipPath>
</defs>
</svg>
