<svg width="50" height="50" viewBox="0 0 50 50" fill="none" xmlns="http://www.w3.org/2000/svg">
<g clip-path="url(#clip0_6857_203774)">
<path d="M20.8984 1.79664C13.9453 5.42945 7.96875 8.7107 7.46094 9.17945C7.14844 9.49195 6.875 10.3513 6.875 11.1326C6.83594 12.4607 6.79688 12.4998 5.35156 12.4998C4.29688 12.4998 3.59375 12.7732 2.92969 13.4763L1.95312 14.4138V28.3201V42.1873H0.976562C0.0390625 42.1873 0 42.3044 0 44.3357C0 46.7966 0.703125 48.1638 2.38281 49.0623C4.02344 49.8826 45.9766 49.8826 47.6172 49.0623C49.2969 48.1638 50 46.7966 50 44.3357C50 42.3044 49.9609 42.1873 49.0234 42.1873H48.0469V28.3201V14.4138L47.0703 13.4763C46.4062 12.7732 45.7031 12.4998 44.6484 12.4998C43.2031 12.4998 43.1641 12.4607 43.125 11.0545C43.0859 9.25758 42.6953 8.94508 36.4453 5.66383C31.9141 3.28101 31.4844 3.12476 30.8984 3.7107C30.0781 4.53101 30.1562 4.57008 36.3672 7.85133C38.9844 9.21851 41.1719 10.5857 41.2891 10.8591C41.6406 11.6795 40.7031 12.3826 36.0547 14.8435L31.5625 17.1873L29.7656 15.156C25.7812 10.6638 25.1172 10.0388 24.6875 10.3123C23.75 10.8982 24.2969 11.992 26.9531 14.9998L29.6875 18.0857L28.0469 19.0623C25.3125 20.6638 24.4141 20.4294 16.6797 16.3279C9.375 12.4216 8.35938 11.7185 8.67188 10.8591C8.98438 10.156 23.8672 2.34351 24.9609 2.34351C25.4297 2.34351 26.5234 2.69508 27.4219 3.16383C28.8672 3.90601 29.0625 3.90601 29.6094 3.35914C30.3516 2.65601 30.1172 2.38258 27.9297 1.2107C25.7031 0.038826 24.0625 0.156013 20.8984 1.79664ZM9.76562 14.8435L11.1328 15.5857L8.59375 15.6248C7.10938 15.6248 5.82031 15.8201 5.54688 16.0935C5 16.6404 4.88281 39.2966 5.42969 40.156C5.625 40.5076 6.48438 40.6248 8.24219 40.5466C10.4297 40.4294 10.7422 40.3513 10.7422 39.6482C10.7422 38.9841 10.4297 38.8669 8.90625 38.7498L7.03125 38.6326V28.0857V17.5779H10.1562H13.2812V19.6091C13.3203 22.3826 14.4141 24.6873 16.2891 25.9373C19.0234 27.7341 25.2344 28.6326 29.0234 27.7732C29.8438 27.5779 30.4688 27.5388 30.3906 27.656C30.3125 27.8123 29.8438 28.7888 29.2969 29.8044C28.3984 31.5623 28.3984 31.7576 28.9453 32.7341C29.375 33.5544 29.8828 33.8279 31.0156 33.906C33.75 34.1404 34.8438 31.9529 33.2031 29.4919C32.0703 27.7732 32.2266 26.8748 33.8281 25.8591C35.5859 24.7263 36.6797 22.3044 36.7188 19.6091V17.5779H39.8438H42.9688V28.1248V38.6716L27.6562 38.7498C12.6172 38.8669 12.3047 38.8669 12.3047 39.6482C12.3047 40.4294 12.6172 40.4294 28.2812 40.5466C40.8203 40.6248 44.3359 40.5466 44.6094 40.156C45.1172 39.2966 45 16.6404 44.4531 16.0935C44.1797 15.8201 42.8906 15.6248 41.4062 15.6248L38.8672 15.5857L40.2344 14.8435C41.875 13.9451 44.4531 13.8279 45.5469 14.6091C46.25 15.156 46.2891 15.8201 46.4062 28.6716L46.5234 42.1873H25H3.47656L3.59375 28.6716C3.71094 15.8201 3.75 15.156 4.45312 14.6091C5.54688 13.8279 8.125 13.9451 9.76562 14.8435ZM19.4922 19.9998C24.0234 22.4216 25.8203 22.6169 28.6328 20.9763L30.4688 19.8826V22.6169V25.3513L29.0234 25.7419C25.7031 26.6794 19.8047 25.9373 17.3047 24.3357C16.7969 23.9841 16.0938 23.2029 15.7812 22.6169C15.2344 21.5232 15 17.9685 15.5078 17.9685C15.625 17.9685 17.4219 18.8669 19.4922 19.9998ZM19.6875 45.5076L20.9766 46.8748H25H29.0234L30.3125 45.5076L31.6016 44.1404H40C45.625 44.1404 48.4375 44.2576 48.4375 44.531C48.4375 45.3123 47.3047 47.1873 46.6797 47.4216C45.8203 47.7341 4.17969 47.7341 3.32031 47.4216C2.69531 47.1873 1.5625 45.3123 1.5625 44.531C1.5625 44.2576 4.375 44.1404 10 44.1404H18.3984L19.6875 45.5076Z" fill="#016DEA"/>
<path d="M9.25781 35.4297C9.10156 35.5469 8.98438 36.0156 8.98438 36.4062C8.98438 37.0703 9.49219 37.1094 17.1875 37.1094C24.9609 37.1094 25.3906 37.0703 25.3906 36.3672C25.3906 35.9766 25.1172 35.5078 24.7656 35.3906C23.9453 35.0781 9.57031 35.0781 9.25781 35.4297Z" fill="#016DEA"/>
</g>
<defs>
<clipPath id="clip0_6857_203774">
<rect width="50" height="50" fill="white"/>
</clipPath>
</defs>
</svg>
