<svg width="41" height="40" viewBox="0 0 41 40" fill="none" xmlns="http://www.w3.org/2000/svg">
<rect x="0.5" width="40" height="40" rx="20" fill="#F4F4F4"/>
<g clip-path="url(#clip0_8128_140636)">
<path d="M17.8744 12.0187C16.2181 12.2218 14.815 12.8593 13.74 13.903C12.8712 14.7437 12.3369 15.6874 12.0837 16.828C12.0244 17.103 12.015 17.2312 12.0181 17.8749C12.0181 18.5155 12.0275 18.6499 12.0869 18.9187C12.2431 19.6155 12.5181 20.2749 12.8837 20.8218L13.0806 21.1187L13.0275 21.4343C12.9494 21.8905 12.8244 22.3655 12.6681 22.8124C12.5119 23.253 12.4931 23.4593 12.59 23.6499C12.7087 23.878 12.9087 23.9999 13.1712 23.9999C13.5462 23.9999 14.4494 23.7124 15.1775 23.3593C15.6837 23.1155 15.7681 23.0999 15.7962 23.2468C15.9087 23.8062 16.1306 24.3905 16.4056 24.8562C17.8962 27.3812 21.4462 28.4468 24.4244 27.2624L24.6181 27.1843L24.94 27.3562C25.6244 27.7187 26.5587 28.0187 26.9244 27.9937C27.1525 27.978 27.3056 27.8812 27.4056 27.6874C27.5025 27.4999 27.4837 27.3249 27.3306 26.8624C27.1869 26.4405 27.0494 25.8655 27.0119 25.5562L26.99 25.3812L27.1869 25.0905C27.4462 24.703 27.6056 24.378 27.7494 23.9405C27.9556 23.3249 27.9837 23.1312 27.9837 22.3905C27.9837 21.8155 27.9744 21.6937 27.9119 21.4062C27.7712 20.7843 27.4681 20.0968 27.1025 19.5874C26.7462 19.0843 26.1244 18.4905 25.5869 18.1437L25.3525 17.9874L25.3337 17.5968C25.2712 16.2437 24.7056 15.0187 23.6744 13.9812C22.6931 12.9999 21.44 12.3655 19.9369 12.0905C19.6431 12.0374 19.4306 12.0218 18.7806 12.0155C18.3431 12.0093 17.9337 12.0124 17.8744 12.0187ZM19.7962 12.6374C20.4837 12.7655 21.0212 12.9374 21.5775 13.1999C23.2494 13.9937 24.3994 15.4093 24.7056 17.0468C24.7869 17.4687 24.7869 18.303 24.7056 18.703C24.2306 21.1124 22.0275 22.9062 19.2337 23.1593C18.1681 23.2562 16.8837 23.0468 15.9525 22.6249C15.6244 22.478 15.6462 22.4749 15.1525 22.7312C14.5962 23.0187 14.1619 23.1937 13.6587 23.3312C13.2306 23.4468 13.1306 23.4593 13.1056 23.3937C13.0962 23.3687 13.1525 23.1624 13.2275 22.9312C13.3962 22.4343 13.5087 21.9905 13.5931 21.4905C13.6806 20.9655 13.6806 20.9468 13.5119 20.7187C13.1806 20.2655 12.9494 19.8187 12.7869 19.3124C12.6087 18.7499 12.5775 18.5405 12.5775 17.8593C12.5775 17.1593 12.6275 16.8499 12.8275 16.2968C13.1994 15.2624 13.9681 14.3124 14.9681 13.6405C15.7369 13.1249 16.8056 12.7374 17.8431 12.5937C18.1775 12.5499 19.4712 12.578 19.7962 12.6374ZM25.6869 18.9249C25.9869 19.1624 26.4587 19.6655 26.6744 19.9843C27.0462 20.5312 27.29 21.128 27.3931 21.7468C27.4744 22.2374 27.4431 22.9249 27.3181 23.4062C27.1681 23.9874 26.9275 24.4905 26.565 24.9812C26.4775 25.0999 26.4056 25.228 26.4056 25.2687C26.4056 25.5843 26.5962 26.4593 26.7869 27.0249C26.8556 27.2343 26.9056 27.4155 26.8962 27.428C26.8462 27.478 26.0994 27.2562 25.6431 27.0593C25.4869 26.9905 25.2212 26.8562 25.0525 26.7593C24.8806 26.6624 24.7056 26.5843 24.6587 26.5843C24.615 26.5843 24.4306 26.6437 24.2556 26.7155C23.4962 27.0249 22.7494 27.1687 21.8744 27.1687C21.2119 27.1718 20.8681 27.1312 20.2962 26.9843C18.6931 26.5749 17.4337 25.6249 16.7525 24.3124C16.6462 24.1093 16.3931 23.4374 16.415 23.4187C16.4181 23.4124 16.5212 23.4374 16.64 23.4718C19.0931 24.1624 21.8212 23.528 23.5556 21.8593C23.9681 21.4624 24.1931 21.1968 24.4681 20.7812C24.8337 20.2218 25.1181 19.5312 25.2369 18.9124L25.2931 18.628L25.3869 18.6968C25.44 18.7312 25.5744 18.8343 25.6869 18.9249Z" fill="#AAA9AD"/>
<path d="M14.7556 16.5906C13.8243 16.9124 13.5493 18.1156 14.2462 18.8156C14.7743 19.3437 15.6243 19.3468 16.1493 18.8218C16.8525 18.1187 16.5712 16.9156 15.6306 16.5906C15.4025 16.5124 14.9837 16.5124 14.7556 16.5906ZM15.4837 17.1374C15.6462 17.2062 15.865 17.4249 15.9243 17.5781C15.9587 17.6749 15.9712 17.7781 15.9618 17.9187C15.9306 18.4124 15.465 18.7499 14.9993 18.6156C14.2962 18.4093 14.2243 17.4531 14.89 17.1531C15.0431 17.0843 15.3337 17.0749 15.4837 17.1374Z" fill="#AAA9AD"/>
<path d="M18.2235 16.5906C17.2892 16.9125 17.011 18.1125 17.7079 18.8094C18.3735 19.4719 19.4642 19.2906 19.8767 18.4531C19.9798 18.2406 19.9829 18.225 19.9829 17.8594C19.9829 17.5094 19.9767 17.4719 19.8923 17.2969C19.786 17.0812 19.5485 16.8156 19.361 16.7062C19.0548 16.5281 18.5548 16.475 18.2235 16.5906ZM18.9173 17.1312C19.0892 17.1812 19.3485 17.4406 19.3985 17.6125C19.536 18.0781 19.2704 18.5344 18.8048 18.6312C18.4329 18.7094 18.0298 18.4594 17.9204 18.0781C17.8548 17.8562 17.8767 17.6937 17.9985 17.4781C18.186 17.1531 18.536 17.0187 18.9173 17.1312Z" fill="#AAA9AD"/>
<path d="M21.6991 16.5875C20.9335 16.8531 20.5741 17.7062 20.9179 18.4531C21.021 18.6812 21.3179 18.9781 21.5429 19.0812C22.2272 19.3937 23.0179 19.1187 23.3429 18.4562C23.4366 18.2687 23.4522 18.2031 23.4616 17.9531C23.4804 17.5156 23.3866 17.2437 23.1147 16.9469C22.9585 16.7781 22.746 16.6437 22.5335 16.5812C22.3054 16.5156 21.9022 16.5187 21.6991 16.5875ZM22.3772 17.1312C22.5491 17.1812 22.746 17.3594 22.8304 17.5437C23.0054 17.9187 22.8647 18.3437 22.5054 18.5406C22.296 18.6531 22.1366 18.675 21.9241 18.6125C21.5397 18.5 21.2897 18.1031 21.3679 17.725C21.4647 17.2625 21.9241 16.9937 22.3772 17.1312Z" fill="#AAA9AD"/>
</g>
<defs>
<clipPath id="clip0_8128_140636">
<rect width="16" height="16" fill="white" transform="translate(12 12)"/>
</clipPath>
</defs>
</svg>
