<svg width="16" height="16" viewBox="0 0 16 16" fill="none" xmlns="http://www.w3.org/2000/svg">
<path d="M14 7.66667C14.0023 8.54658 13.7967 9.41459 13.4 10.2C12.9296 11.1412 12.2065 11.9328 11.3116 12.4862C10.4168 13.0396 9.3855 13.3329 8.33333 13.3333C7.45342 13.3356 6.58541 13.1301 5.8 12.7333L2 14L3.26667 10.2C2.86995 9.41459 2.66437 8.54658 2.66667 7.66667C2.66707 6.61451 2.96041 5.58324 3.51381 4.68837C4.06722 3.7935 4.85884 3.07038 5.8 2.6C6.58541 2.20329 7.45342 1.99771 8.33333 2H8.66667C10.0562 2.07666 11.3687 2.66318 12.3528 3.64724C13.3368 4.63131 13.9233 5.94377 14 7.33334V7.66667Z" stroke="#016DEA" stroke-linecap="round" stroke-linejoin="round"/>
<path d="M7.99935 8.33335C8.18344 8.33335 8.33268 8.18412 8.33268 8.00002C8.33268 7.81593 8.18344 7.66669 7.99935 7.66669C7.81525 7.66669 7.66602 7.81593 7.66602 8.00002C7.66602 8.18412 7.81525 8.33335 7.99935 8.33335Z" stroke="#016DEA" stroke-linecap="round" stroke-linejoin="round"/>
<path d="M10.3333 8.33335C10.5174 8.33335 10.6667 8.18412 10.6667 8.00002C10.6667 7.81593 10.5174 7.66669 10.3333 7.66669C10.1492 7.66669 10 7.81593 10 8.00002C10 8.18412 10.1492 8.33335 10.3333 8.33335Z" stroke="#016DEA" stroke-linecap="round" stroke-linejoin="round"/>
<path d="M5.66732 8.33335C5.85141 8.33335 6.00065 8.18412 6.00065 8.00002C6.00065 7.81593 5.85141 7.66669 5.66732 7.66669C5.48322 7.66669 5.33398 7.81593 5.33398 8.00002C5.33398 8.18412 5.48322 8.33335 5.66732 8.33335Z" stroke="#016DEA" stroke-linecap="round" stroke-linejoin="round"/>
</svg>
