<svg width="24" height="24" viewBox="0 0 24 24" fill="none" xmlns="http://www.w3.org/2000/svg">
<g clip-path="url(#clip0_22_6951)">
<path d="M10.0313 0.862404C6.69375 2.60615 3.825 4.18115 3.58125 4.40615C3.43125 4.55615 3.3 4.96865 3.3 5.34365C3.28125 5.98115 3.2625 5.9999 2.56875 5.9999C2.0625 5.9999 1.725 6.13115 1.40625 6.46865L0.9375 6.91865V13.5937V20.2499H0.46875C0.01875 20.2499 0 20.3062 0 21.2812C0 22.4624 0.3375 23.1187 1.14375 23.5499C1.93125 23.9437 22.0688 23.9437 22.8563 23.5499C23.6625 23.1187 24 22.4624 24 21.2812C24 20.3062 23.9813 20.2499 23.5313 20.2499H23.0625V13.5937V6.91865L22.5938 6.46865C22.275 6.13115 21.9375 5.9999 21.4313 5.9999C20.7375 5.9999 20.7188 5.98115 20.7 5.30615C20.6813 4.44365 20.4938 4.29365 17.4938 2.71865C15.3188 1.5749 15.1125 1.4999 14.8313 1.78115C14.4375 2.1749 14.475 2.19365 17.4563 3.76865C18.7125 4.4249 19.7625 5.08115 19.8188 5.2124C19.9875 5.60615 19.5375 5.94365 17.3063 7.1249L15.15 8.2499L14.2875 7.2749C12.375 5.11865 12.0563 4.81865 11.85 4.9499C11.4 5.23115 11.6625 5.75615 12.9375 7.1999L14.25 8.68115L13.4625 9.1499C12.15 9.91865 11.7188 9.80615 8.00625 7.8374C4.5 5.9624 4.0125 5.6249 4.1625 5.2124C4.3125 4.8749 11.4563 1.1249 11.9813 1.1249C12.2063 1.1249 12.7313 1.29365 13.1625 1.51865C13.8563 1.8749 13.95 1.8749 14.2125 1.6124C14.5688 1.2749 14.4563 1.14365 13.4063 0.581154C12.3375 0.0186538 11.55 0.0749038 10.0313 0.862404ZM4.6875 7.1249L5.34375 7.48115L4.125 7.4999C3.4125 7.4999 2.79375 7.59365 2.6625 7.7249C2.4 7.9874 2.34375 18.8624 2.60625 19.2749C2.7 19.4437 3.1125 19.4999 3.95625 19.4624C5.00625 19.4062 5.15625 19.3687 5.15625 19.0312C5.15625 18.7124 5.00625 18.6562 4.275 18.5999L3.375 18.5437V13.4812V8.4374H4.875H6.375V9.4124C6.39375 10.7437 6.91875 11.8499 7.81875 12.4499C9.13125 13.3124 12.1125 13.7437 13.9313 13.3312C14.325 13.2374 14.625 13.2187 14.5875 13.2749C14.55 13.3499 14.325 13.8187 14.0625 14.3062C13.6313 15.1499 13.6313 15.2437 13.8938 15.7124C14.1 16.1062 14.3438 16.2374 14.8875 16.2749C16.2 16.3874 16.725 15.3374 15.9375 14.1562C15.3938 13.3312 15.4688 12.8999 16.2375 12.4124C17.0813 11.8687 17.6063 10.7062 17.625 9.4124V8.4374H19.125H20.625V13.4999V18.5624L13.275 18.5999C6.05625 18.6562 5.90625 18.6562 5.90625 19.0312C5.90625 19.4062 6.05625 19.4062 13.575 19.4624C19.5938 19.4999 21.2813 19.4624 21.4125 19.2749C21.6563 18.8624 21.6 7.9874 21.3375 7.7249C21.2063 7.59365 20.5875 7.4999 19.875 7.4999L18.6563 7.48115L19.3125 7.1249C20.1 6.69365 21.3375 6.6374 21.8625 7.0124C22.2 7.2749 22.2188 7.59365 22.275 13.7624L22.3313 20.2499H12H1.66875L1.725 13.7624C1.78125 7.59365 1.8 7.2749 2.1375 7.0124C2.6625 6.6374 3.9 6.69365 4.6875 7.1249ZM9.35625 9.5999C11.5313 10.7624 12.3938 10.8562 13.7438 10.0687L14.625 9.54365V10.8562V12.1687L13.9313 12.3562C12.3375 12.8062 9.50625 12.4499 8.30625 11.6812C8.0625 11.5124 7.725 11.1374 7.575 10.8562C7.3125 10.3312 7.2 8.6249 7.44375 8.6249C7.5 8.6249 8.3625 9.05615 9.35625 9.5999ZM9.45 21.8437L10.0688 22.4999H12H13.9313L14.55 21.8437L15.1688 21.1874H19.2C21.9 21.1874 23.25 21.2437 23.25 21.3749C23.25 21.7499 22.7063 22.6499 22.4063 22.7624C21.9938 22.9124 2.00625 22.9124 1.59375 22.7624C1.29375 22.6499 0.75 21.7499 0.75 21.3749C0.75 21.2437 2.1 21.1874 4.8 21.1874H8.83125L9.45 21.8437Z" fill="white"/>
<path d="M4.44375 17.0063C4.36875 17.0625 4.3125 17.2875 4.3125 17.475C4.3125 17.7938 4.55625 17.8125 8.25 17.8125C11.9813 17.8125 12.1875 17.7938 12.1875 17.4563C12.1875 17.2688 12.0563 17.0438 11.8875 16.9875C11.4938 16.8375 4.59375 16.8375 4.44375 17.0063Z" fill="white"/>
</g>
<defs>
<clipPath id="clip0_22_6951">
<rect width="24" height="24" fill="white"/>
</clipPath>
</defs>
</svg>
