<svg width="24" height="24" viewBox="0 0 24 24" fill="none" xmlns="http://www.w3.org/2000/svg">
<g clip-path="url(#clip0_5783_177757)">
<path d="M11.8734 3.59531C11.8172 3.60469 11.7188 3.67031 11.6531 3.73594L11.5312 3.85781V5.65781V7.4625L11.6672 7.59844C11.775 7.70625 11.8453 7.73438 12 7.73438C12.1547 7.73438 12.225 7.70625 12.3328 7.59844L12.4688 7.4625V5.65781V3.85781L12.3469 3.73125C12.2766 3.66563 12.1969 3.60938 12.1594 3.60938C12.1266 3.60938 12.075 3.6 12.0375 3.59063C12.0047 3.58125 11.9297 3.58594 11.8734 3.59531Z" fill="white"/>
<path d="M4.64506 7.05012C4.39193 7.19074 4.33099 7.54699 4.52318 7.77199C4.74349 8.03449 5.16537 7.98762 5.32006 7.68762C5.53568 7.26574 5.06224 6.82043 4.64506 7.05012Z" fill="white"/>
<path d="M18.8011 7.10633C18.5246 7.33602 18.5855 7.76258 18.9136 7.90321C19.1246 7.99227 19.3355 7.94071 19.4761 7.77196C19.8511 7.32665 19.2464 6.72665 18.8011 7.10633Z" fill="white"/>
<path d="M5.87344 8.09531C5.81719 8.10469 5.71875 8.17031 5.65313 8.23594C5.55938 8.32969 5.53125 8.40469 5.53125 8.57344V8.78437L6.4125 9.66562C7.18594 10.4391 7.30781 10.5469 7.43906 10.5469C7.90781 10.5469 8.11875 10.1062 7.83281 9.72187C7.63125 9.44531 6.25313 8.10938 6.17344 8.10938C6.13594 8.10938 6.075 8.1 6.0375 8.09062C6.00469 8.08125 5.92969 8.08594 5.87344 8.09531Z" fill="white"/>
<path d="M17.8594 8.09531C17.7844 8.10938 17.4188 8.44219 16.8656 8.99531L15.9844 9.87188V10.0969C15.9844 10.2797 16.0078 10.3453 16.1203 10.4578C16.2281 10.5656 16.2984 10.5938 16.4578 10.5938C16.6594 10.5938 16.6734 10.5844 17.5641 9.68906L18.4688 8.78438V8.57344C18.4688 8.4 18.4406 8.32969 18.3469 8.23125C18.2766 8.16563 18.1969 8.10938 18.1594 8.10938C18.1266 8.10938 18.075 8.1 18.0375 8.09063C18.0047 8.08125 17.925 8.08594 17.8594 8.09531Z" fill="white"/>
<path d="M11.775 8.78926C11.6391 8.85019 11.5453 9.00957 10.7672 10.5799L9.91406 12.3049L8.03906 12.5721L6.16406 12.8439L6.0375 12.9846C5.93437 13.0924 5.90625 13.1721 5.90625 13.3314C5.90625 13.533 5.91094 13.5377 6.88125 14.4893C7.41562 15.0189 8.03437 15.6236 8.25469 15.8346L8.65781 16.2189L8.52656 16.983C8.45625 17.4002 8.31094 18.2439 8.20781 18.858C8.03437 19.8752 8.025 19.9924 8.08125 20.133C8.11875 20.2174 8.19844 20.3158 8.25469 20.3486C8.50781 20.4846 8.63906 20.433 10.35 19.5283L12.0047 18.6564L13.3266 19.3549C14.0531 19.7393 14.8031 20.1283 14.9859 20.2221C15.5156 20.4846 15.8344 20.4377 15.9375 20.0721C15.975 19.9268 15.9328 19.5986 15.6609 18.0705L15.3422 16.2424L16.7203 14.883L18.0984 13.5236L18.0937 13.308C18.0937 13.1346 18.0703 13.0689 17.9578 12.9658C17.8266 12.8439 17.7656 12.8299 15.9562 12.5721L14.0859 12.3049L13.2281 10.5799C12.4266 8.96269 12.3656 8.85019 12.2109 8.78457C12.0141 8.70488 11.9719 8.70488 11.775 8.78926ZM12.6891 11.7424C13.125 12.6096 13.3969 13.1018 13.4672 13.1486C13.5375 13.1955 14.1094 13.2986 15.0187 13.4299C15.8062 13.5471 16.4812 13.6408 16.5141 13.6408C16.5422 13.6408 16.0687 14.133 15.4547 14.733L14.3391 15.8205L14.3437 16.0314C14.3437 16.1486 14.4469 16.8518 14.5781 17.5971C14.7047 18.3471 14.8031 18.9658 14.7937 18.9752C14.7797 18.9846 14.1844 18.6846 13.4672 18.3049C12.2344 17.6533 12.1547 17.6158 11.9531 17.6393C11.7984 17.658 11.4 17.8455 10.4859 18.3283C9.79219 18.6939 9.22031 18.9846 9.21094 18.9752C9.19687 18.9658 9.29531 18.3471 9.42187 17.6064C9.55312 16.8658 9.65625 16.158 9.65625 16.0408L9.66094 15.8205L8.54531 14.733C7.93125 14.133 7.45781 13.6408 7.48594 13.6408C7.51875 13.6408 8.19375 13.5471 8.98125 13.4299C9.89062 13.2986 10.4625 13.1955 10.5328 13.1486C10.6031 13.1018 10.875 12.6096 11.3109 11.7424C11.6766 11.0064 11.9859 10.4064 12 10.4064C12.0141 10.4064 12.3234 11.0064 12.6891 11.7424Z" fill="white"/>
<path d="M3.15469 14.1048C2.95312 14.161 2.84531 14.311 2.47031 15.0845C2.26406 15.5157 2.09063 15.872 2.09063 15.8767C2.08594 15.8767 1.69688 15.9376 1.21875 16.0079C0.740625 16.0782 0.295313 16.1673 0.225 16.2001C0.05625 16.2845 0 16.4017 0 16.6501C0 16.847 0.0140625 16.8657 0.670313 17.5126L1.33594 18.1688L1.20938 18.9188C1.01719 20.0673 1.04063 20.2923 1.3875 20.386C1.60313 20.447 1.65938 20.4282 2.49844 19.9829C2.90625 19.7673 3.25781 19.5938 3.28594 19.5938C3.30938 19.5938 3.67031 19.772 4.08281 19.9923C4.66406 20.3017 4.875 20.3907 5.02031 20.3907C5.26875 20.3907 5.38594 20.3251 5.46094 20.1423C5.52656 19.9782 5.51719 19.9079 5.32969 18.8017L5.22656 18.1688L5.89219 17.5126C6.54844 16.8657 6.5625 16.847 6.5625 16.6501C6.5625 16.2235 6.46406 16.172 5.34375 16.0079C4.86563 15.9376 4.47656 15.8813 4.47188 15.8767C4.47188 15.872 4.28906 15.497 4.06875 15.047C3.67031 14.2267 3.61406 14.1517 3.35156 14.0954C3.3 14.0813 3.21094 14.086 3.15469 14.1048ZM3.51563 16.1767C3.79688 16.7438 3.86719 16.8001 4.41094 16.8704C4.65469 16.9032 4.88438 16.936 4.92656 16.9501C4.98281 16.9642 4.90313 17.072 4.6125 17.3579C4.22344 17.7423 4.21875 17.747 4.21875 17.9767C4.21875 18.1079 4.25156 18.3798 4.28906 18.5813C4.32656 18.7876 4.35 18.961 4.34063 18.9704C4.33125 18.9845 4.11563 18.886 3.8625 18.7548C3.60938 18.6235 3.34688 18.5157 3.28125 18.5157C3.21563 18.5157 2.95312 18.6235 2.7 18.7548C2.44688 18.886 2.23594 18.9845 2.22656 18.9751C2.21719 18.9704 2.24063 18.8017 2.27344 18.6095C2.31094 18.4173 2.33906 18.1407 2.33906 18.0001L2.34375 17.747L1.95 17.3579C1.65938 17.072 1.57969 16.9642 1.63594 16.9501C1.67813 16.936 1.90781 16.9032 2.15156 16.8704C2.69531 16.8001 2.76562 16.7438 3.04688 16.1767C3.15938 15.9423 3.26719 15.7501 3.28125 15.7501C3.29531 15.7501 3.40313 15.9423 3.51563 16.1767Z" fill="white"/>
<path d="M20.5922 14.1048C20.3906 14.161 20.2828 14.311 19.9078 15.0845C19.7016 15.5157 19.5281 15.872 19.5281 15.8767C19.5234 15.8813 19.1344 15.9376 18.6562 16.0079C17.5359 16.172 17.4375 16.2235 17.4375 16.6501C17.4375 16.847 17.4469 16.8657 18.1078 17.5079L18.7781 18.1642L18.6703 18.797C18.4828 19.9079 18.4734 19.9782 18.5391 20.1423C18.6141 20.3251 18.7313 20.3907 18.9797 20.3907C19.125 20.3907 19.3359 20.3017 19.9172 19.9923C20.3297 19.772 20.6906 19.5938 20.7141 19.5938C20.7422 19.5938 21.0938 19.7673 21.5016 19.9829C22.3406 20.4282 22.3969 20.447 22.6125 20.386C22.9594 20.2923 22.9828 20.0673 22.7906 18.9188L22.6641 18.1688L23.3297 17.5126C23.9859 16.8657 24 16.847 24 16.6501C24 16.4017 23.9438 16.2845 23.775 16.2001C23.7047 16.1673 23.2594 16.0782 22.7812 16.0079C22.3031 15.9376 21.9141 15.8767 21.9094 15.8767C21.9094 15.872 21.7266 15.497 21.5063 15.047C21.1078 14.2267 21.0516 14.1517 20.7891 14.0954C20.7375 14.0813 20.6484 14.086 20.5922 14.1048ZM20.9531 16.1767C21.2344 16.7438 21.3047 16.8001 21.8484 16.8704C22.0922 16.9032 22.3219 16.936 22.3641 16.9501C22.4203 16.9642 22.3406 17.072 22.05 17.3579L21.6562 17.747L21.6609 18.0001C21.6609 18.1407 21.6891 18.4173 21.7266 18.6095C21.7594 18.8017 21.7828 18.9704 21.7734 18.9751C21.7641 18.9845 21.5531 18.886 21.3 18.7548C21.0469 18.6235 20.7844 18.5157 20.7188 18.5157C20.6531 18.5157 20.3906 18.6235 20.1375 18.7548C19.8844 18.886 19.6688 18.9845 19.6594 18.9704C19.65 18.961 19.6734 18.7876 19.7109 18.5813C19.7484 18.3798 19.7812 18.1079 19.7812 17.9767C19.7812 17.747 19.7766 17.7423 19.3875 17.3579C19.0969 17.072 19.0172 16.9642 19.0734 16.9501C19.1156 16.936 19.3453 16.9032 19.5891 16.8704C20.1328 16.8001 20.2031 16.7438 20.4844 16.1767C20.5969 15.9423 20.7047 15.7501 20.7188 15.7501C20.7328 15.7501 20.8406 15.9423 20.9531 16.1767Z" fill="white"/>
</g>
<defs>
<clipPath id="clip0_5783_177757">
<rect width="24" height="24" fill="white"/>
</clipPath>
</defs>
</svg>
