<svg width="16" height="16" viewBox="0 0 16 16" fill="none" xmlns="http://www.w3.org/2000/svg">
<g clip-path="url(#clip0_9448_63887)">
<path d="M10.6267 0.331616C10.5642 0.409741 10.561 0.456616 10.561 0.990991V1.56912L10.6517 1.65974C10.7017 1.70974 10.7735 1.75037 10.811 1.75037C10.9017 1.75037 11.0485 1.66912 11.0735 1.60974C11.0829 1.58162 11.0923 1.29412 11.0923 0.972241C11.0923 0.400366 11.0892 0.384741 11.0204 0.319116C10.911 0.215991 10.711 0.225366 10.6267 0.331616Z" fill="#016DEA"/>
<path d="M8.15584 0.984731C8.02772 1.11911 8.05584 1.21911 8.34334 1.71911C8.48709 1.96911 8.63397 2.19723 8.66834 2.22536C8.82772 2.35661 9.09334 2.23473 9.09334 2.03161C9.09334 1.91911 8.59334 1.02536 8.49022 0.953481C8.38709 0.881606 8.24022 0.894106 8.15584 0.984731Z" fill="#016DEA"/>
<path d="M13.161 0.959729C13.0673 1.04098 12.561 1.93785 12.561 2.02535C12.561 2.06598 12.6017 2.14098 12.6517 2.19098C12.7579 2.29723 12.8954 2.30973 12.9954 2.22535C13.0985 2.13785 13.5923 1.25035 13.5923 1.15035C13.5923 0.950354 13.3142 0.828479 13.161 0.959729Z" fill="#016DEA"/>
<path d="M8.27041 3.19412C8.14854 3.35974 7.02979 5.41912 7.02979 5.48162C7.02979 5.50974 7.04541 5.56287 7.06416 5.60037C7.11729 5.69724 10.486 9.78162 10.6235 9.91287C10.7517 10.0379 10.8392 10.0566 10.9579 9.99099C10.9954 9.96912 11.6048 9.25037 12.3142 8.39099C13.0235 7.53162 13.8329 6.55037 14.1142 6.20974C14.5235 5.71287 14.6235 5.57224 14.6235 5.49724C14.6235 5.43474 14.4298 5.05349 14.0267 4.31912C13.6985 3.72224 13.4017 3.20349 13.3642 3.16287L13.3017 3.09412H10.8235H8.34541L8.27041 3.19412ZM10.2642 3.81912C10.2048 3.92849 10.0454 4.21599 9.91104 4.45974C9.77979 4.70662 9.66416 4.90662 9.65479 4.90662C9.64541 4.90662 9.48291 4.61599 9.28916 4.26599L8.94229 3.62537H9.65791H10.3735L10.2642 3.81912ZM12.6079 3.83474C12.5423 3.95349 12.386 4.24099 12.2548 4.47849C12.1235 4.71287 12.0079 4.89724 11.9954 4.88474C11.9642 4.85349 11.311 3.66599 11.311 3.64412C11.311 3.63162 11.6298 3.62537 12.0173 3.62537H12.7235L12.6079 3.83474ZM9.18604 5.20662C9.18604 5.21287 8.87041 5.21912 8.48291 5.21912C8.09541 5.21912 7.77979 5.20974 7.77979 5.20037C7.77979 5.18787 7.93604 4.89412 8.12979 4.54412L8.47666 3.90662L8.83291 4.55037C9.02666 4.90349 9.18604 5.19724 9.18604 5.20662ZM11.211 4.59724C11.386 4.91599 11.5298 5.18787 11.5298 5.19724C11.5298 5.20974 11.211 5.21912 10.8235 5.21912C10.436 5.21912 10.1235 5.20662 10.1298 5.19412C10.136 5.17849 10.2923 4.88474 10.4829 4.54099C10.7642 4.02537 10.8329 3.92224 10.861 3.96599C10.8798 3.99412 11.036 4.27849 11.211 4.59724ZM13.5517 4.57224L13.8985 5.20349L13.5423 5.21287C13.3454 5.21599 13.0267 5.21599 12.8298 5.21287L12.4704 5.20349L12.8204 4.56912C13.011 4.22224 13.1735 3.93787 13.1829 3.93787C13.1923 3.93787 13.3579 4.22224 13.5517 4.57224ZM9.83604 7.14724C10.0454 7.91287 10.211 8.54724 10.2048 8.55349C10.1985 8.55974 9.70791 7.97849 9.11729 7.25974C8.52354 6.54099 8.00166 5.90662 7.95479 5.85037L7.86729 5.75037H8.66104H9.45166L9.83604 7.14724ZM11.6423 5.80349C11.6329 5.83474 11.4579 6.47849 11.2485 7.23474C11.0423 7.99099 10.861 8.63474 10.8485 8.66912C10.8298 8.70974 10.7173 8.33474 10.4704 7.43787C10.2767 6.73162 10.0923 6.06287 10.061 5.95037L10.0017 5.75037H10.8298C11.6048 5.75037 11.6579 5.75349 11.6423 5.80349ZM13.6485 5.91912C13.2985 6.35662 11.4517 8.58787 11.4454 8.58162C11.4392 8.57537 12.161 5.90974 12.2017 5.78787C12.211 5.75974 12.4017 5.75037 12.9985 5.75037H13.786L13.6485 5.91912Z" fill="#016DEA"/>
<path d="M5.51147 8.92224C5.17397 8.99412 4.87397 9.14724 3.66772 9.84412L2.48647 10.5254L2.3771 10.3347C2.24585 10.0941 2.17085 10.0097 2.02397 9.93474C1.86772 9.85662 1.69272 9.83162 1.54585 9.87224C1.4771 9.89099 1.2021 10.0285 0.936474 10.1785C0.561474 10.3941 0.436474 10.4816 0.367724 10.5785C0.264599 10.7254 0.220849 10.9316 0.252099 11.1129C0.267724 11.1972 0.673974 11.9504 1.42085 13.2691C2.0521 14.3847 2.60835 15.3597 2.65835 15.4379C2.70835 15.516 2.79897 15.6129 2.86147 15.6566C2.96147 15.7254 3.0146 15.7347 3.23022 15.7347H3.48335L3.92085 15.4879C4.48647 15.1691 4.5146 15.1472 4.6146 14.9785C4.68022 14.866 4.69897 14.7941 4.69897 14.6441C4.7021 14.4722 4.68647 14.4254 4.5521 14.1754C4.43335 13.9597 4.40835 13.891 4.44272 13.8722C4.4646 13.8566 4.56772 13.7972 4.67085 13.7379L4.85835 13.6316L6.7021 14.1285C7.71772 14.4004 8.65835 14.6379 8.79585 14.6566C9.18335 14.7066 9.67397 14.6222 10.0115 14.4472C10.3646 14.266 15.3521 11.1597 15.4583 11.0566C15.6521 10.8691 15.7271 10.6691 15.7427 10.3129C15.7583 9.91287 15.6865 9.71599 15.4365 9.46287C15.2865 9.31287 15.224 9.27537 15.0302 9.21599C14.8427 9.15974 14.7552 9.15037 14.5177 9.16599C13.9615 9.19724 13.7958 9.27537 11.8552 10.4066C10.4646 11.2191 10.2333 11.3472 10.1021 11.3879L10.0365 11.4097L10.0958 11.2504C10.1677 11.0566 10.174 10.7222 10.1083 10.5285C10.0365 10.3285 9.8646 10.1097 9.6771 9.98474C9.5521 9.90037 9.42085 9.85662 9.09897 9.78162C8.55835 9.65662 8.1146 9.52224 7.2521 9.21599C6.8646 9.07849 6.46772 8.94724 6.37085 8.92224C6.15522 8.86599 5.77085 8.86599 5.51147 8.92224ZM7.04585 9.71287C7.88647 10.0129 8.41147 10.1754 8.94585 10.2941C9.33335 10.3816 9.45835 10.4504 9.55522 10.6191C9.69272 10.8629 9.60522 11.1941 9.37397 11.316C9.16147 11.4316 8.98022 11.4035 7.77397 11.066C7.4021 10.9597 7.07397 10.8754 7.04585 10.8754C6.95835 10.8754 6.81147 11.0472 6.81147 11.1504C6.81147 11.3285 6.88335 11.3691 7.46772 11.5347C8.78335 11.9066 9.39272 12.0254 9.81147 11.9879C10.2521 11.9472 10.4458 11.8535 12.1177 10.8785C12.9802 10.3785 13.774 9.92537 13.8833 9.87537C14.6646 9.52224 15.2177 9.68474 15.2177 10.266C15.2177 10.6379 15.3802 10.5129 12.5302 12.2722C11.1302 13.1347 9.89272 13.891 9.78022 13.9472C9.66772 14.0066 9.49897 14.0722 9.40522 14.0972C9.02085 14.1879 8.93335 14.1722 6.8521 13.6129C5.78647 13.3285 4.86772 13.0941 4.81147 13.0941C4.7396 13.0941 4.61147 13.1472 4.4271 13.2535C4.2396 13.3629 4.1396 13.4035 4.11772 13.3816C4.1021 13.366 3.78647 12.8222 3.42085 12.1754L2.75522 11.0004L3.0396 10.8316C5.40522 9.45037 5.51147 9.39724 5.99897 9.41912C6.2396 9.43162 6.3396 9.45974 7.04585 9.71287ZM1.77085 10.4004C1.79272 10.4129 2.34585 11.3722 2.99897 12.5285C4.1146 14.4972 4.18647 14.6347 4.14585 14.6972C4.09272 14.7785 3.31772 15.2191 3.2271 15.2191C3.19272 15.2191 3.14897 15.2004 3.13335 15.1785C3.03647 15.0597 0.780224 11.0285 0.780224 10.9754C0.780224 10.8941 0.817724 10.866 1.2771 10.6035C1.68647 10.3691 1.70835 10.3597 1.77085 10.4004Z" fill="#016DEA"/>
<path d="M1.35791 11.016C1.30479 11.0691 1.27979 11.1254 1.27979 11.2035C1.27979 11.3597 1.32666 11.4347 1.45791 11.4879C1.75166 11.6129 1.99854 11.2785 1.79229 11.0347C1.72354 10.9535 1.68916 10.9379 1.57354 10.9379C1.46729 10.9379 1.41416 10.9566 1.35791 11.016Z" fill="#016DEA"/>
</g>
<defs>
<clipPath id="clip0_9448_63887">
<rect width="16" height="16" fill="white"/>
</clipPath>
</defs>
</svg>
