<svg width="16" height="16" viewBox="0 0 16 16" fill="none" xmlns="http://www.w3.org/2000/svg">
<g clip-path="url(#clip0_4902_125858)">
<path d="M9.87167 0.312514C8.87167 0.49064 7.92792 0.981264 7.20604 1.70626C6.80604 2.10314 6.52167 2.50314 6.26854 3.01564C6.02792 3.50001 5.89354 3.90939 5.80604 4.41876C5.71542 4.95314 5.73729 5.85939 5.85292 6.34377C6.21542 7.86564 7.15604 9.06252 8.52792 9.75002C9.62792 10.3 11.0779 10.4094 12.2685 10.0281C13.7998 9.54064 14.9935 8.36564 15.5029 6.84377C15.8404 5.83126 15.8404 4.66251 15.4967 3.64376C14.9185 1.90939 13.4092 0.621889 11.6029 0.312514C11.1248 0.228139 10.3404 0.231264 9.87167 0.312514ZM11.0748 0.781264C13.081 0.943765 14.706 2.36876 15.1404 4.34376C15.2185 4.70001 15.2373 5.53751 15.1779 5.92189C15.0435 6.76251 14.6842 7.53751 14.131 8.17814C12.7154 9.81252 10.3435 10.2031 8.47479 9.10626C6.58729 7.99376 5.77792 5.64689 6.58104 3.61251C6.70604 3.29689 6.90604 2.93126 7.12167 2.62501C7.30292 2.36251 7.86229 1.80314 8.12479 1.62189C8.80604 1.14376 9.59667 0.846889 10.3685 0.784389C10.5342 0.768764 10.6717 0.756265 10.6748 0.753139C10.6779 0.753139 10.856 0.765639 11.0748 0.781264Z" fill="#016DEA"/>
<path d="M9.4992 1.69063C9.2367 1.77188 9.0617 2.025 9.0367 2.375C8.99295 2.99375 9.36483 3.5 9.85858 3.5C10.118 3.5 10.3148 3.35938 10.4305 3.09375C10.5055 2.925 10.493 2.49375 10.4086 2.27813C10.2461 1.85313 9.8367 1.59063 9.4992 1.69063ZM9.85545 2.37188C9.94295 2.525 9.9742 2.70313 9.9367 2.84688C9.90858 2.95 9.88983 2.97188 9.83358 2.9625C9.7992 2.95625 9.7242 2.89375 9.6742 2.81875C9.59295 2.70313 9.57733 2.65625 9.57733 2.4875C9.57733 2.24688 9.62733 2.1625 9.73045 2.22813C9.76795 2.25313 9.82108 2.31875 9.85545 2.37188Z" fill="#016DEA"/>
<path d="M11.6273 1.68748C11.3741 1.74686 11.1085 2.03748 11.0148 2.35311C10.921 2.66873 10.9679 3.06248 11.1273 3.28436C11.4085 3.68123 12.0804 3.50623 12.321 2.97186C12.4116 2.76873 12.4335 2.29998 12.3585 2.10623C12.2335 1.77498 11.946 1.60936 11.6273 1.68748ZM11.8366 2.25623C11.8835 2.30311 11.8866 2.59061 11.8398 2.70936C11.8023 2.81248 11.6585 2.96873 11.6023 2.96873C11.496 2.96873 11.4648 2.67498 11.546 2.47498C11.6023 2.34686 11.7085 2.21873 11.7648 2.21873C11.7835 2.21873 11.8148 2.23436 11.8366 2.25623Z" fill="#016DEA"/>
<path d="M7.48389 2.57187C7.39327 2.62187 7.33389 2.69062 7.27139 2.8125C7.19014 2.96875 7.18389 3.00625 7.19639 3.22187C7.21514 3.51875 7.32764 3.76875 7.53702 3.97813C7.72452 4.16562 7.90264 4.24687 8.11827 4.25C8.33077 4.25 8.46514 4.19063 8.58702 4.04375C8.91827 3.64062 8.66514 2.83125 8.12139 2.56875C7.92764 2.475 7.65577 2.475 7.48389 2.57187ZM7.96827 3.1125C8.18702 3.29688 8.29639 3.71875 8.12452 3.71875C8.03702 3.71875 7.84327 3.53438 7.77764 3.39062C7.71827 3.26562 7.69952 3.09062 7.74014 3.05313C7.78077 3.00937 7.87139 3.03437 7.96827 3.1125Z" fill="#016DEA"/>
<path d="M13.2969 2.59061C13.0938 2.70624 12.9219 2.89686 12.8156 3.12186C12.7469 3.27186 12.7344 3.34061 12.7344 3.58124C12.7344 3.83749 12.7438 3.87499 12.8219 3.99374C13.0469 4.33749 13.5437 4.33749 13.9 3.99061C14.1094 3.79061 14.225 3.53436 14.2437 3.24686C14.2594 2.97499 14.2219 2.82811 14.1 2.68124C13.925 2.47499 13.5688 2.43436 13.2969 2.59061ZM13.7188 3.16249C13.7188 3.40936 13.4781 3.74374 13.3219 3.71249C13.25 3.69999 13.2313 3.55936 13.2781 3.40311C13.325 3.24999 13.5375 3.03124 13.6406 3.03124C13.7125 3.03124 13.7188 3.04374 13.7188 3.16249Z" fill="#016DEA"/>
<path d="M8.8474 4.3C8.0224 4.52187 7.5849 5.34375 7.82553 6.23437C7.90053 6.51875 8.02865 6.7875 8.23178 7.09062C8.67865 7.75625 9.34428 8.3875 10.2787 9.02812C10.7068 9.32187 10.738 9.32187 11.1474 9.04375C11.913 8.525 12.7068 7.80625 13.0912 7.28437C13.3349 6.95312 13.5818 6.45312 13.6412 6.17187C13.7693 5.56562 13.638 5.05 13.263 4.675C12.9693 4.38125 12.6162 4.25 12.113 4.25C11.6224 4.25 11.3287 4.35 10.9224 4.65625L10.713 4.8125L10.5755 4.69062C10.4005 4.5375 10.063 4.35937 9.82553 4.29687C9.5974 4.2375 9.07553 4.2375 8.8474 4.3ZM12.488 4.82812C12.7818 4.9125 13.0443 5.175 13.1255 5.46875C13.3443 6.25937 12.5287 7.4125 10.9755 8.50625L10.7255 8.68125L10.4005 8.45C9.53803 7.83437 8.8599 7.15 8.55053 6.59062C8.2349 6.0125 8.2099 5.5375 8.47865 5.16562C8.68178 4.88125 8.9849 4.7625 9.4349 4.7875C9.64428 4.8 9.72553 4.82187 9.91928 4.91562C10.1474 5.03125 10.4037 5.2625 10.4787 5.42812C10.4943 5.46562 10.5537 5.51875 10.6099 5.54375C10.763 5.61875 10.8693 5.57187 11.0068 5.37187C11.163 5.14687 11.3193 5.0125 11.5568 4.9C11.8724 4.75 12.1287 4.73125 12.488 4.82812Z" fill="#016DEA"/>
<path d="M1.42188 7.79375C1.2625 7.8625 1.11875 8.00625 1.04375 8.17188C0.978125 8.30937 0.96875 8.375 0.96875 8.72187C0.96875 9.09062 0.971875 9.11875 1.04063 9.18125C1.1 9.2375 1.15 9.25 1.30625 9.25H1.5V9.55937V9.87187L1.275 9.99062C0.959375 10.1531 0.646875 10.4719 0.475 10.8C0.25 11.2375 0.25 11.225 0.25 13.2875C0.25 15.0844 0.25 15.125 0.3125 15.1875C0.371875 15.2469 0.415625 15.25 1.42188 15.25H2.46875V15.4313C2.46875 15.5812 2.48125 15.625 2.54063 15.6812L2.6125 15.75H4.49062H6.37188L6.43438 15.6687C6.5 15.5875 6.5 15.5531 6.5 14.25C6.5 12.8031 6.49375 12.7344 6.32812 12.5219C6.28438 12.4594 6.17188 12.375 6.08437 12.3281C5.925 12.25 5.92188 12.25 5.0875 12.25H4.25V11.85C4.25 11.3812 4.20938 11.1844 4.02813 10.8187C3.86875 10.4906 3.55 10.1594 3.24063 10L3.03125 9.89062V9.56875V9.25H3.19688C3.35 9.25 3.37188 9.24062 3.48438 9.125L3.60625 9H3.8625C4.10313 9 4.125 8.99375 4.18438 8.91875C4.24375 8.84375 4.25 8.79375 4.25 8.375C4.25 7.95625 4.24375 7.90625 4.18438 7.83125L4.12188 7.75H2.81875C1.81563 7.75312 1.49375 7.7625 1.42188 7.79375ZM3.71875 8.375V8.5H3.5375C3.36875 8.5 3.35 8.50625 3.23438 8.625L3.1125 8.75H2.30625H1.5V8.58437C1.5 8.41563 1.55625 8.31875 1.6875 8.27187C1.7125 8.2625 2.18125 8.25312 2.72813 8.25312L3.71875 8.25V8.375ZM2.5 9.5V9.75H2.26562H2.03125V9.5V9.25H2.26562H2.5V9.5ZM2.75 10.3594C2.95625 10.4313 3.16875 10.5781 3.34375 10.7719C3.42813 10.8656 3.5 10.9531 3.5 10.9656C3.5 10.9844 1.175 10.9781 1.03438 10.9594C0.9625 10.95 1.32812 10.575 1.50937 10.4719C1.89375 10.2562 2.34687 10.2156 2.75 10.3594ZM3.71875 11.875V12.25H3.375C3.15625 12.25 2.99375 12.2656 2.92813 12.2906C2.76562 12.3594 2.62188 12.5031 2.54375 12.6719C2.47187 12.825 2.46875 12.8469 2.46875 13.7875V14.75H1.60938H0.75V13.3156C0.75 12.5281 0.759375 11.7969 0.76875 11.6906L0.790625 11.5H2.25312H3.71875V11.875ZM5.89375 12.8531C5.95 12.9219 5.96875 12.9781 5.96875 13.0969V13.25H4.48438H3V13.0844C3 12.9156 3.05625 12.8219 3.1875 12.7719C3.2125 12.7625 3.81562 12.7562 4.525 12.7594L5.81875 12.7656L5.89375 12.8531ZM5.96875 14.5V15.25H4.48438H3V14.5V13.75H4.48438H5.96875V14.5Z" fill="#016DEA"/>
<path d="M13.725 10.0625C13.5281 10.1844 13.5 10.2719 13.5 10.7875V11.25H13.4062C13.1844 11.25 12.9187 11.4406 12.8094 11.6719C12.7562 11.7906 12.75 11.9125 12.75 13.7125C12.75 15.5844 12.75 15.625 12.8125 15.6875C12.8719 15.7469 12.9156 15.75 14.25 15.75C15.5844 15.75 15.6281 15.7469 15.6875 15.6875C15.75 15.625 15.75 15.5844 15.75 13.7188C15.75 11.6156 15.7562 11.6875 15.5531 11.4719C15.4344 11.3469 15.2406 11.2531 15.1031 11.25H15V10.7875C15 10.3844 14.9937 10.3156 14.9375 10.225C14.8187 10.0312 14.7219 10 14.25 10C13.8844 10 13.8156 10.0094 13.725 10.0625ZM14.5 10.875V11.25H14.25H14V10.875V10.5H14.25H14.5V10.875ZM15.0625 11.7844C15.1781 11.825 15.25 11.9625 15.25 12.1406V12.25H14.25H13.25V12.1437C13.25 11.9688 13.3125 11.8406 13.4187 11.7938C13.5437 11.7406 14.9062 11.7312 15.0625 11.7844ZM15.25 14V15.25H14.25H13.25V14V12.75H14.25H15.25V14Z" fill="#016DEA"/>
<path d="M10.55 10.9781C9.98125 11.2719 10 11.2406 10 11.9594C10 12.4781 9.99688 12.5 9.9375 12.5C9.90313 12.5 9.84688 12.5281 9.8125 12.5625C9.75313 12.6219 9.75 12.6656 9.75 13.5625C9.75 14.4781 9.75 14.5 9.6875 14.5C9.65313 14.5 9.59688 14.5281 9.5625 14.5625C9.50625 14.6187 9.5 14.6656 9.5 15.125C9.5 15.5844 9.50625 15.6313 9.5625 15.6875C9.62188 15.7469 9.66563 15.75 10.75 15.75C11.8344 15.75 11.8781 15.7469 11.9375 15.6875C11.9938 15.6313 12 15.5844 12 15.125C12 14.6656 11.9938 14.6187 11.9375 14.5625C11.9031 14.5281 11.8469 14.5 11.8125 14.5C11.75 14.5 11.75 14.4781 11.75 13.5625C11.75 12.6656 11.7469 12.6219 11.6875 12.5625C11.6531 12.5281 11.5969 12.5 11.5625 12.5C11.5031 12.5 11.5 12.4781 11.5 11.7312V10.9625L11.3938 10.8562C11.3031 10.7656 11.2688 10.75 11.1375 10.75C11.0094 10.7531 10.9125 10.7906 10.55 10.9781ZM11 11.9219V12.5H10.75H10.5V12.0469V11.5938L10.7437 11.4719C10.875 11.4031 10.9875 11.3469 10.9937 11.3438C10.9969 11.3438 11 11.6031 11 11.9219ZM11.25 13.75V14.5H10.75H10.25V13.75V13H10.75H11.25V13.75ZM11.5 15.125V15.25H10.75H10V15.125V15H10.75H11.5V15.125Z" fill="#016DEA"/>
<path d="M7.06229 11.8125C6.97479 11.9 6.97791 11.9844 7.12479 13.5781C7.19354 14.3281 7.24979 15.05 7.24979 15.1812C7.24979 15.4562 7.30604 15.5844 7.47479 15.6875C7.56541 15.7406 7.63416 15.75 7.99979 15.75C8.36541 15.75 8.43416 15.7406 8.52479 15.6875C8.69354 15.5844 8.74979 15.4562 8.74979 15.1812C8.74979 15.05 8.80604 14.3281 8.87479 13.5781C9.02166 11.9844 9.02479 11.9 8.93729 11.8125C8.87791 11.7531 8.83416 11.75 7.99979 11.75C7.16541 11.75 7.12166 11.7531 7.06229 11.8125ZM8.44979 12.35C8.44354 12.4062 8.40291 12.8531 8.35916 13.3438C8.31541 13.8344 8.27479 14.2937 8.26229 14.3656L8.24666 14.5H7.99979H7.75291L7.73729 14.3656C7.72479 14.2937 7.68416 13.8344 7.64041 13.3438C7.59666 12.8531 7.55604 12.4062 7.54979 12.35L7.53416 12.25H7.99979H8.46541L8.44979 12.35Z" fill="#016DEA"/>
</g>
<defs>
<clipPath id="clip0_4902_125858">
<rect width="16" height="16" fill="white"/>
</clipPath>
</defs>
</svg>
