<svg width="24" height="24" viewBox="0 0 24 24" fill="none" xmlns="http://www.w3.org/2000/svg">
<g clip-path="url(#clip0_22_7221)">
<path d="M3.19219 0.0468747C1.74375 0.351562 0.585938 1.41094 0.13125 2.85937C0.0375 3.16875 0.0234375 3.30469 0.0234375 3.98437C0.0234375 4.66406 0.0375 4.8 0.13125 5.10937C0.548438 6.43125 1.5375 7.42031 2.85938 7.8375C3.16875 7.93125 3.30469 7.94531 3.98438 7.94531C4.66406 7.94531 4.8 7.93125 5.10938 7.8375C6.42656 7.425 7.425 6.42656 7.8375 5.10937C7.93125 4.8 7.94531 4.66406 7.94531 3.98437C7.94531 3.30469 7.93125 3.16875 7.8375 2.85937C7.50469 1.80469 6.79219 0.932812 5.85938 0.45C5.19375 0.107812 4.9125 0.0374997 4.10156 0.0187497C3.71719 0.00937468 3.30469 0.0234372 3.19219 0.0468747ZM4.725 0.825C5.30156 0.946875 5.77031 1.21406 6.2625 1.70625C6.9375 2.38594 7.21875 3.05625 7.21875 3.98437C7.21875 4.9125 6.9375 5.57812 6.25781 6.2625C5.5875 6.93281 4.90781 7.22344 3.98438 7.22344C3.06563 7.22344 2.38125 6.93281 1.70625 6.2625C1.03125 5.58281 0.75 4.9125 0.75 3.98437C0.75 3.05625 1.03125 2.38594 1.70625 1.70625C2.55938 0.857812 3.52031 0.576562 4.725 0.825Z" fill="white"/>
<path d="M2.40938 1.97813C2.29688 2.02969 2.20312 2.20313 2.20312 2.34844C2.20312 2.49844 2.40938 2.67188 2.59688 2.67188H2.75625L2.775 3.08438C2.78906 3.45469 2.80313 3.525 2.93906 3.74063L3.08906 3.98438L2.93906 4.22813C2.80313 4.44375 2.78906 4.51406 2.775 4.88438L2.75625 5.29688H2.59688C2.19375 5.29688 2.0625 5.83125 2.42344 5.99531C2.49844 6.02813 3.02344 6.04688 3.98438 6.04688C4.94531 6.04688 5.47031 6.02813 5.54531 5.99531C5.66719 5.93906 5.76563 5.775 5.76563 5.62031C5.76563 5.48906 5.55938 5.29688 5.41406 5.29688C5.30156 5.29688 5.29688 5.2875 5.29688 4.97344C5.29688 4.62188 5.21719 4.34531 5.05781 4.125L4.95 3.98438L5.05781 3.84375C5.21719 3.62344 5.29688 3.34688 5.29688 2.99531C5.29688 2.68125 5.30156 2.67188 5.41406 2.67188C5.55938 2.67188 5.76563 2.47969 5.76563 2.34844C5.76563 2.19375 5.66719 2.02969 5.54531 1.97344C5.39531 1.90313 2.55 1.90781 2.40938 1.97813ZM4.54688 2.92969C4.54688 3.24375 4.45313 3.44063 4.26563 3.53906C4.09219 3.62813 3.97031 3.62813 3.79688 3.53906C3.58125 3.42656 3.51563 3.29531 3.51563 2.96719V2.67188H4.03125H4.54688V2.92969ZM4.26563 4.42969C4.45313 4.52813 4.54688 4.725 4.54688 5.03906V5.29688H4.03125H3.51563V5.01094C3.51563 4.67813 3.5625 4.575 3.76406 4.45313C3.94688 4.34063 4.08281 4.33594 4.26563 4.42969Z" fill="white"/>
<path d="M19.2234 0.0468747C18.0422 0.295312 16.9828 1.09687 16.4531 2.15156C16.1437 2.77031 16.0687 3.07969 16.0453 3.84375C16.0219 4.49062 16.0266 4.52812 16.125 4.65C16.2516 4.81406 16.5422 4.83281 16.6875 4.6875C16.7719 4.60312 16.7812 4.53281 16.7812 4.06406C16.7812 3.04687 17.0437 2.40469 17.7375 1.70625C18.225 1.22344 18.6141 0.99375 19.2047 0.839062C19.9594 0.646875 20.8266 0.745312 21.5297 1.11094C21.9937 1.35 22.65 2.00625 22.8891 2.47031C23.3766 3.40781 23.3766 4.57031 22.8891 5.49844C22.6453 5.96719 21.9891 6.62344 21.5297 6.85781C20.1703 7.56094 18.4547 7.21875 17.5266 6.06562C17.4281 5.93906 17.2922 5.77969 17.2312 5.70469C16.9406 5.36719 16.4391 5.75156 16.6453 6.15469C16.8844 6.60469 17.5922 7.24687 18.1875 7.54687C18.8578 7.88437 19.1391 7.94531 20.0156 7.94531C20.6953 7.94531 20.8312 7.93125 21.1406 7.8375C22.4531 7.425 23.4562 6.42187 23.8687 5.10937C23.9625 4.8 23.9766 4.66406 23.9766 3.98437C23.9766 3.30469 23.9625 3.16875 23.8687 2.85937C23.5359 1.80469 22.8234 0.932812 21.8906 0.45C21.225 0.107812 20.9437 0.0374997 20.1328 0.0187497C19.7484 0.00937468 19.3359 0.0234372 19.2234 0.0468747Z" fill="white"/>
<path d="M11.1093 1.10637C10.664 1.14855 9.89527 1.27512 9.40308 1.3923C8.71402 1.55637 8.55933 1.71105 8.74214 2.06262C8.84527 2.25949 9.00464 2.27355 9.54839 2.13293C10.425 1.91262 10.9171 1.85637 12 1.85637C13.0828 1.85637 13.5281 1.90793 14.4656 2.13762C15.0375 2.27355 15.1968 2.2548 15.2812 2.03918C15.4171 1.68762 15.2718 1.55168 14.5968 1.3923C14.3156 1.32199 13.875 1.23762 13.6171 1.19543C13.1671 1.12512 11.5406 1.06887 11.1093 1.10637Z" fill="white"/>
<path d="M19.7343 1.59378C19.6781 1.65003 19.6406 1.74846 19.6406 1.85159C19.6406 1.99221 19.6171 2.02503 19.4671 2.10471C19.0968 2.29221 18.8906 2.6344 18.8906 3.0469C18.8906 3.61409 19.1765 3.91878 20.0015 4.22346C20.339 4.35471 20.4843 4.49534 20.4843 4.6969C20.4843 4.8844 20.3859 5.03909 20.2031 5.13284C20.0062 5.23596 19.7953 5.21721 19.5093 5.08596C19.1906 4.94065 19.0312 4.93596 18.8953 5.08128C18.8156 5.16565 18.7921 5.23596 18.8062 5.3719C18.8203 5.53128 18.8484 5.57346 19.0406 5.70471C19.1625 5.7844 19.35 5.86409 19.4531 5.88284C19.6265 5.91096 19.6406 5.92503 19.6406 6.07034C19.6406 6.18284 19.6734 6.25315 19.7625 6.32346C20.025 6.52971 20.3296 6.39846 20.3765 6.06096C20.3953 5.91096 20.4281 5.8594 20.5031 5.84065C20.6812 5.79846 21.0093 5.47503 21.1218 5.23128C21.3468 4.74846 21.2203 4.12503 20.8359 3.81096C20.7421 3.73128 20.4843 3.59534 20.264 3.51096C19.6546 3.27659 19.5328 3.13128 19.7109 2.87346C19.8328 2.70003 20.0812 2.68596 20.3718 2.83128C20.5406 2.92034 20.6531 2.94846 20.7375 2.92503C20.8921 2.88753 21.0468 2.69534 21.0468 2.54065C21.0468 2.39534 20.7843 2.13753 20.5546 2.06253C20.4187 2.01565 20.3906 1.98753 20.3906 1.87971C20.3906 1.80471 20.3484 1.69221 20.2921 1.6219C20.1703 1.46721 19.8796 1.44846 19.7343 1.59378Z" fill="white"/>
<path d="M10.5094 6.45469C10.3875 6.50156 10.3125 6.74531 10.3125 7.0875V7.42969L9.89063 7.63125C9.65625 7.74375 9.34219 7.93125 9.18281 8.04375L8.90156 8.25469L8.60625 8.08594C8.27813 7.90312 8.03438 7.875 7.87969 8.00156C7.72969 8.13281 6.46875 10.3641 6.46875 10.5C6.47344 10.6969 6.58125 10.8281 6.88594 11.0062L7.18125 11.1797V12V12.8203L6.88594 12.9937C6.58125 13.1719 6.47344 13.3031 6.46875 13.5C6.46875 13.6359 7.72969 15.8672 7.87969 15.9937C8.03438 16.125 8.27813 16.0969 8.60625 15.9141L8.90156 15.7453L9.18281 15.9562C9.34219 16.0687 9.65625 16.2562 9.89063 16.3687L10.3125 16.5703V16.9125C10.3125 17.2687 10.3875 17.4984 10.5234 17.55C10.6266 17.5875 13.3734 17.5875 13.4766 17.55C13.6125 17.4984 13.6875 17.2687 13.6875 16.9125V16.5703L14.1094 16.3687C14.3438 16.2562 14.6578 16.0687 14.8172 15.9562L15.0984 15.7453L15.3938 15.9141C15.7219 16.0969 15.9656 16.125 16.1203 15.9937C16.2703 15.8672 17.5313 13.6359 17.5313 13.5C17.5266 13.3031 17.4188 13.1719 17.1141 12.9937L16.8188 12.8203V12V11.1797L17.1234 10.9969C17.5313 10.7531 17.6156 10.5656 17.4563 10.2516C17.1938 9.75 16.1953 8.07187 16.1156 8.00156C15.9656 7.875 15.7219 7.90312 15.3938 8.08594L15.0984 8.25469L14.8125 8.04375C14.6578 7.93125 14.3438 7.74375 14.1094 7.63125L13.6875 7.42969V7.0875C13.6875 6.73125 13.6125 6.50156 13.4766 6.45C13.3828 6.41719 10.5984 6.41719 10.5094 6.45469ZM12.9375 7.49531C12.9375 7.875 13.0266 8.025 13.3031 8.11406C13.6219 8.21719 14.2688 8.57344 14.5641 8.8125C14.9578 9.13125 15.0609 9.14531 15.4313 8.93906L15.7266 8.775L16.1906 9.57656C16.5844 10.2609 16.6406 10.3828 16.5797 10.425C16.5422 10.4531 16.4109 10.5328 16.2938 10.6031C16.0172 10.7672 15.9609 10.9078 16.0266 11.2453C16.0547 11.3859 16.0781 11.7234 16.0781 12C16.0781 12.2766 16.0547 12.6141 16.0266 12.7547C15.9609 13.0922 16.0172 13.2328 16.2938 13.3969C16.4109 13.4672 16.5422 13.5469 16.5797 13.575C16.6406 13.6172 16.5844 13.7391 16.1906 14.4234L15.7266 15.225L15.4406 15.0656C15.2859 14.9766 15.1031 14.9062 15.0375 14.9062C14.9625 14.9062 14.7938 15.0047 14.5969 15.1641C14.2688 15.4266 13.7531 15.7172 13.3453 15.8672C13.0172 15.9891 12.9375 16.1156 12.9375 16.5047V16.8281H12H11.0625V16.5047C11.0625 16.0922 10.9875 15.9984 10.4953 15.7969C10.0641 15.6234 9.68438 15.3984 9.375 15.1406C9.05625 14.8734 8.92969 14.8594 8.56875 15.0609L8.27344 15.225L7.80938 14.4234C7.41563 13.7437 7.35938 13.6172 7.42031 13.575C7.45781 13.5469 7.58906 13.4672 7.70625 13.3969C7.98281 13.2328 8.03906 13.0922 7.97344 12.7547C7.90781 12.4266 7.90781 11.5734 7.97344 11.2453C8.03906 10.9078 7.98281 10.7672 7.70625 10.6031C7.58906 10.5328 7.45781 10.4531 7.42031 10.425C7.35938 10.3828 7.41563 10.2562 7.80938 9.57656L8.27344 8.775L8.56875 8.93906C8.93906 9.14531 9.04219 9.13125 9.43594 8.8125C9.73125 8.57344 10.3781 8.21719 10.6969 8.11406C10.9734 8.025 11.0625 7.875 11.0625 7.49531V7.17187H12H12.9375V7.49531Z" fill="white"/>
<path d="M11.1656 9.04219C10.7203 9.17344 10.2797 9.41719 9.975 9.70313C9.75469 9.91406 9.70313 9.98906 9.70313 10.1156C9.70313 10.3781 9.99844 10.5703 10.2234 10.4531C10.2797 10.4203 10.4344 10.3078 10.5656 10.2C10.6969 10.0922 10.9406 9.94219 11.1094 9.86719C11.3953 9.73594 11.4469 9.72656 12 9.72656C12.5813 9.72656 12.5906 9.72656 12.9516 9.9C14.1891 10.4906 14.6484 11.8828 14.0156 13.125C13.8375 13.4719 13.3688 13.9031 12.9516 14.1C12.5906 14.2734 12.5813 14.2734 12 14.2734C11.4188 14.2734 11.4094 14.2734 11.0484 14.1C10.5469 13.8609 10.1391 13.4531 9.90469 12.9516C9.73594 12.6 9.72656 12.5625 9.70313 11.9625C9.675 11.2547 9.65156 11.2031 9.32344 11.2031C9.1875 11.2031 9.12656 11.2313 9.05156 11.325C8.96719 11.4328 8.95312 11.5172 8.95312 11.9625C8.95312 12.9047 9.20156 13.5141 9.84375 14.1563C10.4766 14.7891 11.0953 15.0469 12 15.0469C12.9047 15.0469 13.5234 14.7891 14.1563 14.1563C14.7891 13.5234 15.0469 12.9047 15.0469 12C15.0469 11.0953 14.7891 10.4766 14.1563 9.84375C13.7203 9.40781 13.3125 9.16406 12.7688 9.02813C12.3703 8.925 11.55 8.93438 11.1656 9.04219Z" fill="white"/>
<path d="M11.4938 10.5375C10.8328 10.7766 10.4109 11.4281 10.4625 12.1172C10.5094 12.6656 10.8375 13.1484 11.3391 13.3922C11.5641 13.5047 11.6578 13.5234 12 13.5234C12.3422 13.5234 12.4359 13.5047 12.6609 13.3922C12.9703 13.2422 13.2797 12.9281 13.4203 12.6187C13.5656 12.3047 13.5656 11.6906 13.4203 11.3812C13.275 11.0672 12.9328 10.7156 12.6422 10.5937C12.3047 10.4437 11.8219 10.425 11.4938 10.5375ZM12.2953 11.2687C12.5016 11.3531 12.7406 11.6344 12.7781 11.8359C12.8297 12.1172 12.7594 12.3328 12.5438 12.5437C12.2063 12.8812 11.7938 12.8812 11.4563 12.5437C11.1422 12.2297 11.1188 11.8219 11.4047 11.4984C11.6531 11.2172 11.9766 11.1328 12.2953 11.2687Z" fill="white"/>
<path d="M1.60313 8.8266C1.49063 8.94848 1.3125 9.61879 1.18594 10.4204C1.07344 11.1516 1.07344 12.8485 1.18594 13.5797C1.3125 14.3813 1.49063 15.0516 1.60313 15.1735C1.78594 15.3704 2.15625 15.2813 2.22188 15.0282C2.23594 14.9625 2.19844 14.7094 2.13281 14.4469C1.9125 13.575 1.85625 13.0829 1.85625 12C1.85625 10.9172 1.9125 10.425 2.13281 9.55317C2.19844 9.29067 2.23594 9.03754 2.22188 8.97192C2.15625 8.71879 1.78594 8.62973 1.60313 8.8266Z" fill="white"/>
<path d="M21.9046 8.78911C21.75 8.89692 21.7406 9.05629 21.8671 9.55317C22.0875 10.4204 22.1437 10.9172 22.1437 12C22.1437 13.0829 22.0875 13.5797 21.8671 14.4469C21.8015 14.7094 21.764 14.9625 21.7781 15.0282C21.8437 15.2813 22.214 15.3704 22.3968 15.1735C22.5093 15.0516 22.6875 14.3813 22.814 13.5797C22.9265 12.8485 22.9265 11.1516 22.814 10.4204C22.6875 9.61879 22.5093 8.94848 22.3968 8.82661C22.2796 8.70004 22.0546 8.68598 21.9046 8.78911Z" fill="white"/>
<path d="M3.19219 16.0781C1.74375 16.3828 0.585938 17.4422 0.13125 18.8906C0.0375 19.2 0.0234375 19.3359 0.0234375 20.0156C0.0234375 20.6953 0.0375 20.8312 0.13125 21.1406C0.548438 22.4625 1.5375 23.4516 2.85938 23.8687C3.16875 23.9625 3.30469 23.9766 3.98438 23.9766C4.66406 23.9766 4.8 23.9625 5.10938 23.8687C6.42656 23.4562 7.425 22.4578 7.8375 21.1406C7.93125 20.8312 7.94531 20.6953 7.94531 20.0156C7.94531 19.3359 7.93125 19.2 7.8375 18.8906C7.50469 17.8359 6.79219 16.9641 5.85938 16.4812C5.19375 16.1391 4.9125 16.0687 4.10156 16.05C3.71719 16.0406 3.30469 16.0547 3.19219 16.0781ZM4.725 16.8562C5.30156 16.9781 5.77031 17.2453 6.2625 17.7375C6.9375 18.4172 7.21875 19.0875 7.21875 20.0156C7.21875 20.9437 6.9375 21.6094 6.25781 22.2937C5.5875 22.9641 4.90781 23.2547 3.98438 23.2547C3.06563 23.2547 2.38125 22.9641 1.70625 22.2937C1.03125 21.6141 0.75 20.9437 0.75 20.0156C0.75 19.0875 1.03125 18.4172 1.70625 17.7375C2.55938 16.8891 3.52031 16.6078 4.725 16.8562Z" fill="white"/>
<path d="M3.51557 17.6484C2.79369 17.8547 2.30619 18.4547 2.25932 19.2C2.23119 19.6406 2.31088 19.95 2.54057 20.3062C2.81244 20.7281 2.82651 20.775 2.85463 21.4828L2.88276 22.1344L3.05619 22.2937L3.23432 22.4531H3.98432H4.73432L4.91244 22.2937L5.08588 22.1344L5.11401 21.4828C5.14682 20.7797 5.16557 20.7094 5.41401 20.3297C5.62963 20.0016 5.71869 19.7062 5.71869 19.3031C5.71869 19.0219 5.70463 18.9656 5.60151 18.8672C5.46557 18.7266 5.25932 18.7125 5.10463 18.8391C5.01557 18.9094 4.99213 18.9844 4.96869 19.275C4.94057 19.5844 4.91244 19.6734 4.71088 20.0062L4.48588 20.3906H3.98432H3.48276L3.25307 20.0016C3.04213 19.6453 3.02338 19.5937 3.02338 19.3031C3.02338 19.0359 3.04213 18.9656 3.16401 18.7875C3.25776 18.6562 3.39369 18.5391 3.56244 18.4547C3.79213 18.3375 3.85307 18.3234 4.10151 18.3516C4.34994 18.375 4.40619 18.3656 4.51401 18.2812C4.68276 18.1453 4.69213 17.8781 4.52807 17.7234C4.38276 17.5875 3.88119 17.55 3.51557 17.6484ZM4.35932 21.4219V21.7031H3.98432H3.60932V21.4219V21.1406H3.98432H4.35932V21.4219Z" fill="white"/>
<path d="M19.1438 16.0969C18.525 16.2375 17.9578 16.5234 17.4281 16.95C17.1047 17.2172 17.0625 17.2781 17.0625 17.4656C17.0625 17.6437 17.1375 17.7516 17.2969 17.8078C17.4844 17.8687 17.5828 17.8266 17.925 17.5359C18.9188 16.6875 20.3531 16.5328 21.5297 17.1422C21.9938 17.3812 22.65 18.0375 22.8891 18.5016C23.1328 18.9703 23.25 19.4625 23.25 20.0109C23.25 20.8922 22.9688 21.6 22.3688 22.2281L22.0078 22.6078L21.9797 22.2984C21.9469 21.9 21.7688 21.5953 21.45 21.3984L21.2203 21.2578H20.0156H18.8109L18.5813 21.3984C18.2625 21.5953 18.0844 21.9 18.0516 22.2984L18.0234 22.6078L17.6719 22.2375C17.0625 21.6 16.7813 20.8922 16.7813 20.0203C16.7813 19.7437 16.8141 19.4297 16.8703 19.2C16.9688 18.7922 16.95 18.6656 16.7719 18.5437C16.5094 18.3562 16.2609 18.5297 16.1391 18.9844C16.0734 19.2141 16.0547 19.4719 16.0547 20.0391C16.0547 20.6953 16.0688 20.8312 16.1625 21.1406C16.5797 22.4625 17.5688 23.4516 18.8906 23.8687C19.2 23.9625 19.3359 23.9766 20.0156 23.9766C20.6953 23.9766 20.8313 23.9625 21.1406 23.8687C22.4531 23.4562 23.4563 22.4531 23.8688 21.1406C23.9625 20.8312 23.9766 20.6953 23.9766 20.0156C23.9766 19.3359 23.9625 19.2 23.8688 18.8906C23.4563 17.5781 22.4719 16.5891 21.1641 16.1719C20.7469 16.0359 19.5938 15.9937 19.1438 16.0969ZM21.1125 22.1062C21.225 22.2234 21.2344 22.2609 21.2344 22.6406V23.0484L20.9484 23.1281C20.3438 23.3016 19.6875 23.3016 19.0828 23.1281L18.7969 23.0484V22.6406C18.7969 22.2609 18.8063 22.2234 18.9188 22.1062L19.0453 21.9844H20.0156H20.9859L21.1125 22.1062Z" fill="white"/>
<path d="M19.5797 17.7844C19.1391 17.9484 18.8109 18.3 18.6984 18.7266C18.5766 19.1766 18.7594 19.8094 19.0922 20.0906C19.3922 20.3438 19.5891 20.4141 20.0156 20.4141C20.3344 20.4141 20.4516 20.3906 20.6062 20.3109C20.9016 20.1516 21.0609 20.0016 21.2109 19.725C21.3375 19.5047 21.3516 19.4297 21.3516 19.0781C21.3516 18.7266 21.3375 18.6516 21.2109 18.4313C20.9672 17.9859 20.6016 17.7609 20.0859 17.7328C19.8797 17.7234 19.6922 17.7422 19.5797 17.7844ZM20.2922 18.5531C20.4703 18.6469 20.625 18.8953 20.625 19.0781C20.625 19.3688 20.3062 19.6875 20.0156 19.6875C19.725 19.6875 19.4062 19.3688 19.4062 19.0781C19.4062 18.7875 19.725 18.4688 20.0156 18.4688C20.0812 18.4688 20.2078 18.5063 20.2922 18.5531Z" fill="white"/>
<path d="M8.86875 21.7828C8.78906 21.8109 8.67188 22.05 8.67188 22.1719C8.67188 22.4344 9.17344 22.6172 10.4531 22.8141C11.1891 22.9266 12.7922 22.9266 13.5469 22.8141C14.2031 22.7156 15.0328 22.5188 15.1734 22.4297C15.3937 22.2844 15.3234 21.8344 15.0703 21.7688C15.0047 21.7547 14.7422 21.7922 14.4656 21.8625C13.5609 22.0875 13.0875 22.1438 12 22.1438C10.9172 22.1438 10.425 22.0875 9.55312 21.8672C9.08906 21.75 8.98125 21.7359 8.86875 21.7828Z" fill="white"/>
</g>
<defs>
<clipPath id="clip0_22_7221">
<rect width="24" height="24" fill="white"/>
</clipPath>
</defs>
</svg>
