<svg width="16" height="16" viewBox="0 0 16 16" fill="none" xmlns="http://www.w3.org/2000/svg">
<g clip-path="url(#clip0_5074_221425)">
<path d="M3.96841 0.296872C3.56216 0.387498 3.23716 0.543748 2.84653 0.840623C2.71528 0.937497 2.54028 1.04375 2.45278 1.07812C2.21841 1.1625 2.00278 1.3125 1.82153 1.50937C1.50903 1.85312 1.36841 2.30937 1.43091 2.76562C1.46216 2.975 1.50591 3.09375 1.70278 3.49375C1.83091 3.75625 1.93716 3.97812 1.93716 3.9875C1.93716 3.99375 1.89966 4 1.85278 4C1.71528 4.00312 1.49341 4.13437 1.38403 4.27812C1.16216 4.56562 1.16216 4.93437 1.38403 5.22187C1.50591 5.38125 1.71841 5.49687 1.89653 5.5H2.02466L2.09341 5.725C2.26841 6.29687 2.63091 6.78437 3.13403 7.11875L3.25278 7.19687L3.24341 7.50625L3.23403 7.81875L2.05591 8.30937C1.40591 8.58125 0.818409 8.84375 0.749659 8.89062C0.593409 8.99687 0.468409 9.15312 0.352784 9.37812L0.265284 9.54687L0.255909 11.4594C0.246534 13.3469 0.249659 13.375 0.312159 13.4375C0.371534 13.4969 0.412159 13.5 1.31216 13.5H2.24966V14.5625C2.24966 15.5844 2.25278 15.6281 2.31216 15.6875C2.37466 15.75 2.41528 15.75 7.99966 15.75C13.584 15.75 13.6247 15.75 13.6872 15.6875C13.7465 15.6281 13.7497 15.5844 13.7497 14.5625V13.5H14.6872C15.5872 13.5 15.6278 13.4969 15.6872 13.4375C15.7497 13.375 15.7528 13.3469 15.7434 11.4594L15.734 9.54687L15.6403 9.3625C15.5372 9.15937 15.3059 8.90625 15.1465 8.82187C15.0903 8.79375 14.534 8.55625 13.9059 8.29375L12.7653 7.81875L12.7559 7.5125L12.7497 7.20312L13.0059 7.01562C13.4278 6.70625 13.7465 6.24687 13.9059 5.725L13.9747 5.5H14.1028C14.2747 5.5 14.5215 5.35625 14.634 5.19687C14.8184 4.93125 14.8153 4.55 14.6247 4.2875C14.5309 4.15937 14.2622 4 14.134 4C14.0934 4 14.0622 3.99062 14.0622 3.97812C14.0622 3.96562 14.1247 3.80625 14.2028 3.625C14.409 3.13125 14.4465 2.95625 14.4309 2.54687C14.409 2.00625 14.2309 1.5875 13.8747 1.21875C13.6497 0.987497 13.4559 0.865623 12.9059 0.618748C12.1965 0.296872 12.0715 0.265622 11.5153 0.265622C11.1622 0.265622 10.9965 0.281247 10.8434 0.321873C10.5403 0.406247 10.1747 0.593747 9.87466 0.818748C9.72778 0.928123 9.54028 1.04375 9.45278 1.07812C9.21841 1.1625 9.00278 1.3125 8.82153 1.50937C8.47466 1.89062 8.34653 2.3875 8.45903 2.9375L8.47466 3.01562H8.04028C7.80278 3.01562 7.56841 3.025 7.51528 3.0375L7.42153 3.05625V2.63125C7.41841 2.25 7.40903 2.17812 7.33716 1.975C7.21841 1.64687 7.07778 1.425 6.83091 1.17812C6.64028 0.987497 6.56216 0.937497 6.10903 0.715623C5.83091 0.581247 5.46841 0.424997 5.30903 0.371873C5.04653 0.281247 4.96841 0.271873 4.59341 0.262498C4.30278 0.253122 4.10903 0.265622 3.96841 0.296872ZM4.96216 0.828122C5.18716 0.881248 6.00278 1.2375 6.22153 1.37812C6.52778 1.575 6.74653 1.87812 6.85903 2.26562C6.95903 2.60312 6.87153 3.21562 6.70591 3.33125C6.67153 3.35625 6.52153 3.46562 6.37466 3.57187C6.22778 3.68125 6.04028 3.79375 5.95278 3.82812C5.22153 4.1 4.79028 4.86562 4.94653 5.6125C4.97778 5.75625 5.07153 5.9875 5.21528 6.275C5.33716 6.51875 5.43716 6.725 5.43716 6.73437C5.43716 6.74375 5.35278 6.75 5.24966 6.75C4.79966 6.75 4.49966 7.05 4.49966 7.5C4.49966 7.74062 4.56841 7.90625 4.72153 8.05312C4.87466 8.2 5.02466 8.25 5.29341 8.25H5.52466L5.59341 8.475C5.75591 9.0125 6.11528 9.50312 6.57153 9.81875L6.75278 9.94062L6.74341 10.2437L6.73403 10.5469L4.87466 11.0625C3.56841 11.425 2.96841 11.6062 2.86216 11.6687C2.64028 11.7969 2.47466 11.9812 2.36528 12.2125C2.28091 12.3906 2.26216 12.4656 2.25591 12.7094L2.24341 13H1.49341H0.746534L0.755909 11.3812C0.765284 9.60625 0.762159 9.6375 0.962159 9.42812C1.07778 9.30312 1.14341 9.275 2.48403 8.71562C3.13716 8.44375 3.69028 8.19687 3.71216 8.16562C3.75278 8.10937 3.76841 6.99375 3.73091 6.89375C3.71841 6.86562 3.61216 6.77812 3.48716 6.7C2.96841 6.36562 2.65591 5.91562 2.54653 5.3375C2.49341 5.04687 2.44341 5 2.21216 5C1.88091 5 1.74028 4.8875 1.79341 4.66875C1.82153 4.56562 1.97778 4.5 2.20278 4.5C2.45278 4.5 2.49966 4.44375 2.49966 4.14062C2.49966 3.90937 2.49341 3.89687 2.26528 3.43437C1.97153 2.85 1.91841 2.65937 1.96841 2.39062C2.04028 2.00312 2.29028 1.7125 2.66528 1.57812C2.78403 1.53437 2.97466 1.42187 3.14341 1.29375C3.44341 1.06875 3.75591 0.903123 4.03091 0.831247C4.25591 0.771873 4.71528 0.768747 4.96216 0.828122ZM11.9622 0.828122C12.1872 0.881248 13.0028 1.2375 13.2215 1.37812C13.6372 1.64375 13.9059 2.13437 13.9059 2.625C13.9059 2.89375 13.8497 3.09375 13.659 3.52812C13.4778 3.9375 13.4528 4.0375 13.484 4.2375C13.5122 4.44062 13.584 4.5 13.7965 4.5C14.0215 4.5 14.1778 4.56562 14.2059 4.66875C14.259 4.8875 14.1184 5 13.7872 5C13.5528 5 13.509 5.04375 13.4465 5.35C13.3247 5.94375 13.0434 6.35 12.5122 6.7C12.3497 6.80625 12.259 6.8875 12.2465 6.9375C12.209 7.06875 12.2153 7.98125 12.2528 8.09062C12.2715 8.14375 12.3247 8.20937 12.3715 8.23125C12.4153 8.25625 12.9528 8.48125 13.5622 8.73437C14.8215 9.25937 14.9215 9.30312 15.0372 9.42812C15.2372 9.6375 15.234 9.60625 15.2434 11.3812L15.2528 13H14.5059H13.7559L13.7434 12.7125C13.7372 12.4656 13.7184 12.3906 13.634 12.2125C13.5247 11.9812 13.3153 11.7562 13.1122 11.6469C13.0403 11.6125 12.1465 11.3469 11.1247 11.0625L9.26528 10.5437L9.25591 10.2437L9.24653 9.94062L9.42778 9.81875C9.88403 9.50312 10.2434 9.0125 10.4059 8.475L10.4747 8.25H10.7059C10.9747 8.25 11.1247 8.2 11.2778 8.05312C11.4309 7.90625 11.4997 7.74062 11.4997 7.5C11.4997 7.05 11.1997 6.75 10.7497 6.75C10.6465 6.75 10.5622 6.74062 10.5622 6.72812C10.5622 6.71562 10.6247 6.55625 10.7028 6.375C10.909 5.88125 10.9465 5.70625 10.9309 5.29687C10.909 4.75625 10.7309 4.3375 10.3747 3.96875C10.159 3.74687 9.95278 3.6125 9.52153 3.41875C9.19653 3.275 9.17778 3.2625 9.10591 3.11875C8.97153 2.85312 8.92466 2.61562 8.96841 2.39062C9.04028 2.00312 9.29028 1.7125 9.66528 1.57812C9.78403 1.53437 9.97466 1.42187 10.1434 1.29375C10.4434 1.06875 10.7559 0.903123 11.0309 0.831247C11.2559 0.771873 11.7153 0.768747 11.9622 0.828122ZM8.50278 3.59062C8.76528 3.65937 9.55278 4.00937 9.75591 4.15C10.1559 4.425 10.4059 4.89687 10.4059 5.375C10.4059 5.5875 10.3434 5.88125 10.2684 6.025C10.2247 6.10625 10.2247 6.10625 10.084 5.82187C10.0059 5.66562 9.91841 5.53125 9.89028 5.51875C9.74341 5.4625 9.63716 5.5 9.34341 5.71875C8.82778 6.09687 8.49966 6.21875 7.99966 6.21875C7.49966 6.21875 7.17153 6.09687 6.65591 5.71875C6.35591 5.49687 6.23403 5.45625 6.09966 5.52812C6.07153 5.54375 5.98403 5.68437 5.90591 5.84062C5.83091 5.99687 5.75903 6.125 5.74966 6.125C5.71216 6.125 5.50278 5.64687 5.46841 5.48437C5.39341 5.15 5.55591 4.73125 5.84341 4.50312C6.05903 4.33437 6.25903 4.27187 6.55591 4.28437C6.92153 4.30312 7.21841 4.47187 7.46841 4.80625L7.54653 4.90937L7.75903 4.76562C7.87466 4.6875 7.96841 4.6125 7.96841 4.6C7.96841 4.55312 7.68716 4.225 7.55591 4.11562C7.48091 4.05312 7.32153 3.95625 7.20591 3.90312L6.99028 3.80312L7.14028 3.72812C7.51528 3.53437 8.07153 3.48125 8.50278 3.59062ZM6.89028 6.50312C7.25591 6.68125 7.55903 6.75 7.99966 6.75C8.56528 6.75 9.08403 6.5875 9.49028 6.27812L9.65591 6.15625L9.83091 6.50625L10.009 6.85937L9.99028 7.45312C9.97778 7.84687 9.95278 8.10937 9.92153 8.23437C9.76841 8.79375 9.37466 9.275 8.85903 9.52812C7.88716 10.0031 6.70591 9.59062 6.22153 8.60937C6.06528 8.29062 6.02778 8.1 6.00903 7.45312L5.99028 6.85937L6.16841 6.50625L6.34341 6.15312L6.49341 6.26562C6.57153 6.32812 6.75278 6.43437 6.89028 6.50312ZM5.49966 7.5V7.75H5.39028C5.22153 7.75 5.06841 7.675 5.04341 7.58125C4.99341 7.38125 5.12466 7.25312 5.38403 7.25H5.49966V7.5ZM10.8278 7.29375C10.9434 7.34375 10.9903 7.44375 10.9559 7.58125C10.9309 7.675 10.7778 7.75 10.609 7.75H10.4997V7.5V7.25H10.609C10.6715 7.25 10.7684 7.26875 10.8278 7.29375ZM7.49966 10.2156C7.77778 10.2781 8.41528 10.2531 8.69653 10.1687C8.74341 10.1531 8.74966 10.1781 8.74966 10.3812V10.6094L8.37466 10.9844L7.99966 11.3594L7.62466 10.9844L7.24966 10.6094V10.3812C7.24966 10.1781 7.25591 10.1531 7.30591 10.1687C7.33403 10.1781 7.42153 10.2 7.49966 10.2156ZM7.39028 11.5312C7.85591 11.9906 7.86528 12 7.99966 12C8.13403 12 8.14341 11.9906 8.61216 11.525L9.09028 11.0531L10.6934 11.4969C11.5747 11.7406 12.4184 11.9781 12.5715 12.0219C12.8903 12.1156 13.0497 12.2375 13.1622 12.4625C13.234 12.6094 13.234 12.6187 13.2434 13.9281L13.2528 15.25H12.5028H11.7497V14.25V13.25H11.4997H11.2497V14.25V15.25H7.99966H4.74966V14.25V13.25H4.49966H4.24966V14.25V15.25H3.49653H2.74653L2.75591 13.9312C2.76528 12.6187 2.76528 12.6094 2.83716 12.4625C2.94966 12.2312 3.11216 12.1156 3.44653 12.0187C4.03403 11.8469 6.83091 11.0687 6.87466 11.0656C6.89966 11.0656 7.13091 11.2719 7.39028 11.5312Z" fill="#016DEA"/>
</g>
<defs>
<clipPath id="clip0_5074_221425">
<rect width="16" height="16" fill="white"/>
</clipPath>
</defs>
</svg>
