<svg width="16" height="16" viewBox="0 0 16 16" fill="none" xmlns="http://www.w3.org/2000/svg">
<g clip-path="url(#clip0_4749_92360)">
<path d="M14.8838 16H1.11602C0.955952 16 0.826172 15.8702 0.826172 15.7102V3.04349C0.826172 2.92495 0.898344 2.81843 1.00841 2.77437L7.89232 0.0206639C7.98159 -0.014915 8.08282 -0.00411813 8.16245 0.0497212C8.24216 0.103633 8.28984 0.193559 8.28984 0.289788V5.80394L14.7763 3.20921C14.8656 3.17364 14.9668 3.18436 15.0464 3.23827C15.1261 3.29218 15.1738 3.38211 15.1738 3.47834V15.7102C15.1737 15.8702 15.0439 16 14.8838 16ZM8.28977 15.4203H14.594V3.90645L8.28977 6.42827V15.4203ZM1.40587 15.4203H7.71007V0.717894L1.40587 3.23972V15.4203ZM13.3863 14.6253C13.2262 14.6253 13.0964 14.4955 13.0964 14.3354V11.7541H11.7317V14.3354C11.7317 14.4955 11.6019 14.6253 11.4419 14.6253C11.2818 14.6253 11.152 14.4955 11.152 14.3354V11.7541H9.78735V14.3354C9.78735 14.4955 9.65757 14.6253 9.4975 14.6253C9.33743 14.6253 9.20765 14.4955 9.20765 14.3354V7.57238C9.20765 7.41231 9.33743 7.28253 9.4975 7.28253C9.65757 7.28253 9.78735 7.41231 9.78735 7.57238V8.66829H11.152V6.65457C11.152 6.4945 11.2818 6.36472 11.4419 6.36472C11.6019 6.36472 11.7317 6.4945 11.7317 6.65457V8.66829H13.0964V5.96009C13.0964 5.80003 13.2262 5.67025 13.3863 5.67025C13.5463 5.67025 13.6761 5.80003 13.6761 5.96009V14.3354C13.6761 14.4955 13.5463 14.6253 13.3863 14.6253ZM11.7317 11.1744H13.0964V9.24799H11.7317V11.1744ZM9.78735 11.1744H11.152V9.24799H9.78735V11.1744ZM6.50235 14.6253C6.34228 14.6253 6.2125 14.4955 6.2125 14.3354V11.739H4.84782V14.3354C4.84782 14.4955 4.71804 14.6253 4.55797 14.6253C4.3979 14.6253 4.26812 14.4955 4.26812 14.3354V11.739H2.90344V14.3354C2.90344 14.4955 2.77366 14.6253 2.6136 14.6253C2.45353 14.6253 2.32375 14.4955 2.32375 14.3354V4.46853C2.32375 4.30847 2.45353 4.17869 2.6136 4.17869C2.77366 4.17869 2.90344 4.30847 2.90344 4.46853V6.14719H4.26812V3.5508C4.26812 3.39073 4.3979 3.26095 4.55797 3.26095C4.71804 3.26095 4.84782 3.39073 4.84782 3.5508V6.14719H6.2125V2.85625C6.2125 2.69618 6.34228 2.5664 6.50235 2.5664C6.66242 2.5664 6.7922 2.69618 6.7922 2.85625V14.3354C6.7922 14.4955 6.66242 14.6253 6.50235 14.6253ZM4.84782 11.1593H6.2125V9.23292H4.84782V11.1593ZM2.90344 11.1593H4.26812V9.23292H2.90344V11.1593ZM4.84782 8.65322H6.2125V6.72689H4.84782V8.65322ZM2.90344 8.65322H4.26812V6.72689H2.90344V8.65322Z" fill="#016DEA"/>
</g>
<defs>
<clipPath id="clip0_4749_92360">
<rect width="16" height="16" fill="white"/>
</clipPath>
</defs>
</svg>
