<svg width="16" height="16" viewBox="0 0 16 16" fill="none" xmlns="http://www.w3.org/2000/svg">
<g clip-path="url(#clip0_4746_89396)">
<path d="M11.8274 5.72342L8.61163 2.9076C8.44117 2.76009 8.22482 2.67814 7.99864 2.67814C7.77246 2.67814 7.55611 2.76009 7.38565 2.9076L6.2449 3.9074C6.17934 3.66482 6.14328 3.40914 6.14328 3.14362C6.14328 2.50113 6.34652 1.89797 6.71366 1.44888C7.06113 1.02274 7.52005 0.786724 7.99864 0.786724C9.02138 0.786724 9.854 1.84225 9.854 3.14362C9.854 3.35997 10.031 3.53698 10.2474 3.53698C10.4637 3.53698 10.6407 3.35997 10.6407 3.14362C10.6407 1.40955 9.45408 0 7.99864 0C7.27748 0 6.60548 0.337636 6.10395 0.950625C5.62208 1.54067 5.35656 2.31756 5.35656 3.14362C5.35656 3.6091 5.44179 4.05818 5.60241 4.47121L4.17319 5.72342C3.81589 6.03811 3.60938 6.49047 3.60938 6.96579V14.0266C3.60938 15.1149 4.49444 16 5.58274 16H10.4178C11.5061 16 12.3912 15.1149 12.3912 14.0266V6.96579C12.3912 6.49047 12.1847 6.03811 11.8274 5.72342ZM11.6045 14.0266C11.6045 14.6822 11.0734 15.2133 10.4178 15.2133H5.57946C4.92386 15.2133 4.39282 14.6822 4.39282 14.0266V6.96579C4.39282 6.71666 4.501 6.47736 4.68784 6.31346L5.98266 5.17927C6.022 5.23171 6.06133 5.28416 6.10067 5.33661C6.6022 5.9496 7.2742 6.28724 7.99536 6.28724C8.21171 6.28724 8.38872 6.11022 8.38872 5.89387C8.38872 5.67753 8.21171 5.50051 7.99536 5.50051C7.51349 5.50051 7.05785 5.26449 6.71038 4.83835C6.66449 4.77935 6.61859 4.72034 6.57598 4.65806L7.9003 3.49764C7.93308 3.46814 7.96914 3.46159 7.99536 3.46159C8.02158 3.46159 8.05764 3.46814 8.09042 3.49764L11.3062 6.31346C11.493 6.47736 11.6012 6.71666 11.6012 6.96579V14.0266H11.6045Z" fill="#016DEA"/>
<path d="M8.43169 9.94878H7.5663C7.26144 9.94878 7.01231 9.69965 7.01231 9.39479C7.01231 9.08994 7.26144 8.84081 7.5663 8.84081H9.09057C9.30692 8.84081 9.48393 8.6638 9.48393 8.44745C9.48393 8.2311 9.30692 8.05409 9.09057 8.05409H8.39236V7.54272C8.39236 7.32637 8.21534 7.14935 7.99899 7.14935C7.78264 7.14935 7.60563 7.32637 7.60563 7.54272V8.05409H7.5663C6.82546 8.05409 6.22559 8.65724 6.22559 9.39479C6.22559 10.1356 6.82874 10.7355 7.5663 10.7355H8.43169C8.73655 10.7355 8.98568 10.9846 8.98568 11.2895C8.98568 11.5943 8.73655 11.8435 8.43169 11.8435H6.87791C6.66156 11.8435 6.48455 12.0205 6.48455 12.2368C6.48455 12.4532 6.66156 12.6302 6.87791 12.6302H7.60563V13.1514C7.60563 13.3678 7.78264 13.5448 7.99899 13.5448C8.21534 13.5448 8.39236 13.3678 8.39236 13.1514V12.6302H8.43825C8.44153 12.6302 8.4448 12.6302 8.44808 12.6302C9.17908 12.6204 9.7724 12.0238 9.7724 11.2895C9.7724 10.5487 9.16925 9.94878 8.43169 9.94878Z" fill="#016DEA"/>
</g>
<defs>
<clipPath id="clip0_4746_89396">
<rect width="16" height="16" fill="white"/>
</clipPath>
</defs>
</svg>
