<svg width="17" height="16" viewBox="0 0 17 16" fill="none" xmlns="http://www.w3.org/2000/svg">
<g clip-path="url(#clip0_4615_55630)">
<path d="M13.0939 0.5V1L13.6282 1.00625L14.1626 1.01562L13.1189 2.00313L12.0782 2.99062L11.8439 2.7875C11.3595 2.375 10.8314 2.0875 10.2345 1.9125C9.77199 1.77812 9.422 1.7375 8.88137 1.75937C8.03762 1.79375 7.30325 2.04375 6.62824 2.525C6.18762 2.84062 5.69699 3.36562 5.46887 3.76875L5.39387 3.89687L5.03449 3.91875C4.37199 3.95625 3.76887 4.11875 3.25324 4.39062C1.21574 5.47812 0.415745 7.95312 1.44387 10.0156C2.04699 11.225 3.20012 12.0687 4.57199 12.2969L4.68762 12.3156V12.9531V13.5938H3.96887H3.25012V14.0938V14.5938H3.96887H4.68762V15.2969V16H5.20324H5.71887V15.2969V14.5938H6.48449H7.25012V14.0938V13.5938H6.48449H5.71887V12.9531C5.71887 12.6 5.72199 12.3125 5.72824 12.3125C5.79387 12.3125 6.16887 12.2281 6.39074 12.1656C7.35637 11.8875 8.19699 11.2562 8.75637 10.3937L8.897 10.1781L9.20637 10.1656C10.0876 10.1312 10.897 9.84687 11.5939 9.325C12.7126 8.4875 13.3251 7.2 13.2689 5.79688C13.2439 5.14375 13.1189 4.64375 12.8407 4.08125C12.7751 3.94687 12.7189 3.825 12.7189 3.8125C12.7189 3.8 13.2314 3.3 13.8595 2.70625L15.0001 1.62187V2.21562V2.8125H15.5001H16.0001V1.40625V0H14.547H13.0939V0.5ZM9.55949 2.79688C10.0751 2.88125 10.4814 3.04688 10.9064 3.34688C11.5407 3.79375 11.972 4.43125 12.1782 5.21562C12.2782 5.59375 12.2907 6.21875 12.2064 6.60312C11.9251 7.89687 10.9001 8.88125 9.597 9.10938C9.45325 9.13438 9.32825 9.15 9.31887 9.14375C9.31262 9.13438 9.32825 9 9.35637 8.84687C9.42512 8.475 9.42512 7.81563 9.3595 7.41562C9.13449 6.1 8.29699 4.96562 7.10012 4.3625C6.97512 4.3 6.79387 4.21875 6.69387 4.18437C6.59699 4.14687 6.50637 4.10938 6.49387 4.09688C6.47824 4.08437 6.56262 3.97188 6.68137 3.84375C7.44387 3.00937 8.49699 2.625 9.55949 2.79688ZM4.95949 5.00625C4.85324 5.43437 4.83449 6.20937 4.91887 6.6875C5.15637 8.02187 6.01574 9.15937 7.23762 9.75312C7.37512 9.81875 7.56262 9.9 7.65324 9.93125L7.81574 9.98438L7.64387 10.1937C7.00012 10.975 5.92825 11.4094 4.89387 11.3063C3.66262 11.1875 2.57199 10.325 2.17512 9.15312C1.55949 7.33437 2.70012 5.3625 4.59387 4.98438C4.70637 4.9625 4.83762 4.94063 4.88762 4.94063C4.96262 4.9375 4.97199 4.94687 4.95949 5.00625ZM6.31887 5.12813C7.62824 5.6375 8.45637 6.88125 8.397 8.25C8.38449 8.55625 8.30325 9.0625 8.26574 9.0625C8.22824 9.0625 7.772 8.88438 7.64074 8.82188C6.85012 8.42812 6.22199 7.6625 5.98137 6.79688C5.84699 6.31875 5.84387 5.6375 5.97199 5.14687C6.00637 5.01562 6.02512 5.01562 6.31887 5.12813Z" fill="#016DEA"/>
</g>
<defs>
<clipPath id="clip0_4615_55630">
<rect width="16" height="16" fill="white" transform="translate(0.5)"/>
</clipPath>
</defs>
</svg>
