<svg width="29" height="29" viewBox="0 0 29 29" fill="none" xmlns="http://www.w3.org/2000/svg">
<path d="M14 7H6C5.46957 7 4.96086 7.21071 4.58579 7.58579C4.21071 7.96086 4 8.46957 4 9V25C4 25.5304 4.21071 26.0391 4.58579 26.4142C4.96086 26.7893 5.46957 27 6 27H18C18.5304 27 19.0391 26.7893 19.4142 26.4142C19.7893 26.0391 20 25.5304 20 25V13L14 7Z" stroke="#016DEA" stroke-width="1.5" stroke-linecap="round" stroke-linejoin="round"/>
<path d="M14 7V13H20" stroke="#016DEA" stroke-width="1.5" stroke-linecap="round" stroke-linejoin="round"/>
<path d="M16 18H8" stroke="#016DEA" stroke-width="1.5" stroke-linecap="round" stroke-linejoin="round"/>
<path d="M16 22H8" stroke="#016DEA" stroke-width="1.5" stroke-linecap="round" stroke-linejoin="round"/>
<path d="M10 14H9H8" stroke="#016DEA" stroke-width="1.5" stroke-linecap="round" stroke-linejoin="round"/>
<circle cx="24" cy="5" r="5" fill="#0ACD5E"/>
<g clip-path="url(#clip0_2674_65792)">
<path d="M25.959 3.75897L23.209 6.50897L21.959 5.25897" stroke="white" stroke-linecap="round" stroke-linejoin="round"/>
</g>
<defs>
<clipPath id="clip0_2674_65792">
<rect width="6" height="6" fill="white" transform="translate(20.959 2.25897)"/>
</clipPath>
</defs>
</svg>
