<svg width="50" height="50" viewBox="0 0 50 50" fill="none" xmlns="http://www.w3.org/2000/svg">
<g clip-path="url(#clip0_6857_202475)">
<path d="M4.6875 17.1875H45.3125" stroke="#016DEA" stroke-width="2.08333" stroke-miterlimit="10" stroke-linecap="round" stroke-linejoin="round"/>
<path d="M9.57031 23.3398H21.2891" stroke="#016DEA" stroke-width="2.08333" stroke-miterlimit="10" stroke-linecap="round" stroke-linejoin="round"/>
<path d="M9.57031 29.1992H14.4531" stroke="#016DEA" stroke-width="2.08333" stroke-miterlimit="10" stroke-linecap="round" stroke-linejoin="round"/>
<path d="M35.5469 29.1992H40.4297" stroke="#016DEA" stroke-width="2.08333" stroke-miterlimit="10" stroke-linecap="round" stroke-linejoin="round"/>
<path d="M9.57031 35.0586H14.4531" stroke="#016DEA" stroke-width="2.08333" stroke-miterlimit="10" stroke-linecap="round" stroke-linejoin="round"/>
<path d="M35.5469 35.0586H40.4297" stroke="#016DEA" stroke-width="2.08333" stroke-miterlimit="10" stroke-linecap="round" stroke-linejoin="round"/>
<path d="M28.7109 23.3398H40.4297" stroke="#016DEA" stroke-width="2.08333" stroke-miterlimit="10" stroke-linecap="round" stroke-linejoin="round"/>
<path d="M14.0625 42.1875H4.6875V7.8125H45.3125V42.1875H35.9375" stroke="#016DEA" stroke-width="2.08333" stroke-miterlimit="10" stroke-linecap="round" stroke-linejoin="round"/>
<path d="M25 38.3782C26.4023 38.3782 27.5391 37.2414 27.5391 35.8391C27.5391 34.4368 26.4023 33.3 25 33.3C23.5977 33.3 22.4609 34.4368 22.4609 35.8391C22.4609 37.2414 23.5977 38.3782 25 38.3782Z" stroke="#016DEA" stroke-width="2.08333" stroke-linecap="round" stroke-linejoin="round"/>
<path d="M27.5391 33.3003V36.4741C27.5391 36.9791 27.7397 37.4635 28.0968 37.8206C28.454 38.1778 28.9383 38.3784 29.4434 38.3784C29.9484 38.3784 30.4328 38.1778 30.7899 37.8206C31.147 37.4635 31.3477 36.9791 31.3477 36.4741V35.8393C31.3476 34.4067 30.8628 33.0162 29.9723 31.894C29.0818 30.7717 27.8378 29.9838 26.4426 29.6582C25.0474 29.3326 23.5832 29.4885 22.2879 30.1006C20.9926 30.7128 19.9424 31.7451 19.3082 33.0297C18.674 34.3143 18.493 35.7757 18.7946 37.1762C19.0963 38.5767 19.8628 39.8341 20.9696 40.7437C22.0765 41.6533 23.4584 42.1618 24.8909 42.1864C26.3233 42.2111 27.722 41.7504 28.8594 40.8794" stroke="#016DEA" stroke-width="2.08333" stroke-linecap="round" stroke-linejoin="round"/>
</g>
<defs>
<clipPath id="clip0_6857_202475">
<rect width="50" height="50" fill="white"/>
</clipPath>
</defs>
</svg>
