<svg width="16" height="16" viewBox="0 0 16 16" fill="none" xmlns="http://www.w3.org/2000/svg">
<g clip-path="url(#clip0_4615_56285)">
<path d="M15.9268 9.87522C15.7973 9.68523 15.5383 9.63621 15.3483 9.76575L10.8123 12.8584L9.80493 11.5101C9.69928 11.3692 9.5113 11.304 9.33495 11.3627C9.11442 11.4361 8.99513 11.6744 9.06852 11.8949L9.893 14.3726C9.92416 14.4647 9.97498 14.5557 10.0439 14.6327C10.3167 14.9374 10.7849 14.9634 11.0897 14.6906L11.1435 14.6425L15.8606 10.42C16.0141 10.2828 16.0459 10.0498 15.9268 9.87522Z" fill="#016DEA"/>
<path d="M8.32317 13.202H0.830856V1.95155H11.8002V10.594C11.8002 10.8234 11.9863 11.0095 12.2157 11.0095C12.445 11.0095 12.6311 10.8234 12.6311 10.594V1.53612C12.6311 1.30674 12.445 1.1207 12.2157 1.1207H0.415428C0.186042 1.1207 0 1.30674 0 1.53612V13.6175C0 13.8468 0.186042 14.0329 0.415428 14.0329H8.32317C8.55255 14.0329 8.7386 13.8468 8.7386 13.6175C8.7386 13.388 8.55255 13.202 8.32317 13.202Z" fill="#016DEA"/>
<path d="M9.67164 3.72882H2.9584C2.72901 3.72882 2.54297 3.91486 2.54297 4.14425C2.54297 4.37363 2.72901 4.55968 2.9584 4.55968H9.67164C9.90103 4.55968 10.0871 4.37363 10.0871 4.14425C10.0871 3.91486 9.9011 3.72882 9.67164 3.72882Z" fill="#016DEA"/>
<path d="M9.67164 5.52451H2.9584C2.72901 5.52451 2.54297 5.71055 2.54297 5.93993C2.54297 6.16932 2.72901 6.35536 2.9584 6.35536H9.67164C9.90103 6.35536 10.0871 6.16932 10.0871 5.93993C10.0871 5.71055 9.9011 5.52451 9.67164 5.52451Z" fill="#016DEA"/>
<path d="M9.67164 7.32019H2.9584C2.72901 7.32019 2.54297 7.50623 2.54297 7.73562C2.54297 7.965 2.72901 8.15105 2.9584 8.15105H9.67164C9.90103 8.15105 10.0871 7.965 10.0871 7.73562C10.0871 7.50623 9.9011 7.32019 9.67164 7.32019Z" fill="#016DEA"/>
<path d="M10.0871 9.53124C10.0871 9.30186 9.90103 9.11581 9.67164 9.11581H2.9584C2.72901 9.11581 2.54297 9.30186 2.54297 9.53124C2.54297 9.76063 2.72901 9.94667 2.9584 9.94667H9.67164C9.9011 9.94667 10.0871 9.7607 10.0871 9.53124Z" fill="#016DEA"/>
<path d="M2.9584 10.8239C2.72901 10.8239 2.54297 11.01 2.54297 11.2393C2.54297 11.4687 2.72901 11.6548 2.9584 11.6548H6.31499C6.54437 11.6548 6.73041 11.4687 6.73041 11.2393C6.73041 11.01 6.54437 10.8239 6.31499 10.8239H2.9584Z" fill="#016DEA"/>
</g>
<defs>
<clipPath id="clip0_4615_56285">
<rect width="16" height="16" fill="white"/>
</clipPath>
</defs>
</svg>
