<svg width="24" height="24" viewBox="0 0 24 24" fill="none" xmlns="http://www.w3.org/2000/svg">
<g clip-path="url(#clip0_4907_92895)">
<path d="M14.9633 0.145311C14.8039 0.220312 14.6211 0.356249 14.5508 0.435936C14.3961 0.61875 14.2039 1.01719 14.2039 1.15781C14.2039 1.21406 14.1758 1.26562 14.1477 1.275C14.1008 1.29375 14.1102 1.38281 14.1758 1.66875C14.2648 2.03437 14.307 2.11406 14.6164 2.41875C14.6961 2.50312 14.7664 2.59219 14.7664 2.62031C14.7664 2.64844 14.4195 3.86719 13.993 5.32969C13.5664 6.79219 13.2102 8.01094 13.2055 8.02969C13.2008 8.05312 13.1117 7.95 13.0133 7.80469C12.6383 7.26562 12.0383 6.89062 11.3914 6.79219C11.0633 6.74062 11.0258 6.72656 10.7727 6.49219C10.3133 6.06562 9.76484 5.925 8.75703 5.97656C7.63672 6.03281 6.68984 6.32812 5.94922 6.84844C5.85078 6.92344 3.68984 5.59219 3.73672 5.48438C3.75078 5.44687 3.77422 5.26406 3.78828 5.08594C3.79766 4.90312 3.83047 4.74375 3.85391 4.72969C3.90078 4.70156 3.77422 4.05469 3.70391 3.94219C3.68984 3.91406 3.62422 3.90937 3.53984 3.93281C3.42734 3.96094 3.36172 3.94687 3.21172 3.84375C2.94922 3.66562 2.69609 3.59062 2.36797 3.59531C1.80078 3.60469 1.37422 3.87656 1.12109 4.38281C0.985156 4.66406 0.975781 4.71094 0.994531 5.07187C1.01797 5.46562 1.12109 5.76562 1.28516 5.90156C1.33672 5.94375 1.36016 6.04219 1.36016 6.19219V6.42188H2.01641C2.56016 6.42188 2.71016 6.40781 2.92578 6.32812L3.18359 6.22969L4.16797 6.84844C4.71172 7.18594 5.15703 7.48594 5.15703 7.50469C5.15703 7.52812 5.04922 7.67812 4.92266 7.8375C4.63203 8.20312 4.29922 8.86406 4.17734 9.32812C4.02266 9.94687 4.01328 10.2984 4.14453 11.1703C4.25703 11.9484 4.25703 11.9625 4.17266 12.1547C3.98984 12.5672 4.00859 13.1203 4.22422 13.5187C4.27578 13.6172 4.31328 13.7016 4.30391 13.7109C4.29453 13.7203 3.88203 13.8516 3.38047 14.0062C2.50391 14.2734 2.46641 14.2828 2.33984 14.2078C2.26953 14.1656 2.19922 14.0953 2.18516 14.0531C2.17109 13.9828 2.11016 13.9688 1.82422 13.9688C1.10234 13.9688 0.610156 14.2359 0.338281 14.7703C0.202344 15.0328 0.183594 15.1219 0.183594 15.4219C0.183594 16.2047 0.708594 16.7672 1.48203 16.8187C1.96484 16.8516 2.24609 16.7437 2.58359 16.4109C2.91172 16.0828 3.01953 15.7969 2.99141 15.3328L2.97734 15.0187L4.12109 14.6719C4.74922 14.4797 5.27422 14.3203 5.28359 14.3203C5.29766 14.3203 5.37266 14.4984 5.45703 14.7188C5.53672 14.9391 5.69141 15.2437 5.79922 15.3984C5.98203 15.6703 6.43203 16.1437 6.58203 16.2281C6.63828 16.2609 6.65703 16.3453 6.65703 16.5703C6.65703 16.8516 6.64766 16.875 6.55859 16.875C6.34297 16.875 5.29297 17.1141 4.78203 17.2781C4.48672 17.3766 4.22422 17.4516 4.20078 17.4422C4.17734 17.4375 4.12578 17.4609 4.08359 17.4984C4.04141 17.5359 3.88203 17.6297 3.72734 17.7141C3.02891 18.0797 2.51797 18.5953 2.28828 19.1625C2.18047 19.425 2.18047 19.4625 2.16641 21.5156C2.15703 22.6641 2.16641 23.6484 2.18047 23.7094C2.19453 23.7656 2.24609 23.8547 2.29766 23.9062C2.39141 24 2.48047 24 8.39141 24H14.3961L14.5086 23.8828L14.6258 23.7703V22.5375C14.6258 21.7828 14.6445 21.2344 14.6773 21.1172C14.7148 20.9812 14.7148 20.9297 14.6773 20.9156C14.6445 20.9062 14.6258 20.6859 14.6258 20.2734C14.6258 19.9266 14.6023 19.5328 14.5742 19.3969C14.3961 18.5578 13.6227 17.8172 12.4461 17.3672C11.907 17.1609 11.3211 16.9969 10.8664 16.9172L10.5008 16.8562V16.6125C10.5008 16.3641 10.5008 16.3641 10.7773 16.1531C11.2742 15.7734 11.6445 15.2953 11.982 14.6156C12.1508 14.2687 12.1695 14.2547 12.3477 14.2266C12.6102 14.1797 12.9664 13.9828 13.1305 13.7859C13.2055 13.6969 13.2758 13.6359 13.2945 13.6547C13.3133 13.6734 14.2273 15.2109 15.3289 17.0719L17.3305 20.4562L17.1992 20.6625C17.068 20.8687 16.9695 21.2156 16.9695 21.4688C16.9695 21.6 16.9648 21.6 16.8008 21.5531C16.707 21.5297 16.6273 21.5156 16.6227 21.525C16.5992 21.5531 16.407 22.2422 16.407 22.2891C16.407 22.3359 16.8992 22.5 17.0352 22.5C17.0727 22.5 17.1148 22.4391 17.1336 22.3594C17.1523 22.2844 17.1711 22.2187 17.1758 22.2187C17.1852 22.2187 17.3023 22.3312 17.443 22.4672C17.7523 22.7719 17.9867 22.8516 18.5023 22.8187C18.9523 22.7906 19.1773 22.6875 19.4727 22.3594C19.9086 21.8672 19.9508 21.1031 19.5617 20.5875C19.4586 20.4516 19.4492 20.4141 19.4961 20.3109C19.5289 20.2453 19.543 20.1844 19.5383 20.1797C19.5289 20.1703 19.3555 20.1 19.1492 20.0203C18.8211 19.8937 18.7695 19.8844 18.7227 19.9453C18.6852 19.9969 18.582 20.0156 18.3711 20.0156H18.0664L15.7086 16.0266C14.4148 13.8328 13.3648 12.0281 13.3789 12.0141C13.4023 11.9906 15.1086 11.9062 19.7727 11.7094C21.0242 11.6531 21.1461 11.6531 21.1648 11.7234C21.1789 11.7656 21.282 11.8922 21.3945 12.0047C21.6477 12.2578 22.3977 12.5953 22.4773 12.4922C22.5055 12.4594 22.6133 12.4172 22.7164 12.4031C22.9695 12.3609 23.3586 12.1312 23.5039 11.9391C23.9398 11.3672 23.9258 10.5891 23.4664 10.0453C23.3164 9.86719 22.8195 9.60937 22.6273 9.60937C22.5477 9.60937 22.4398 9.56719 22.3836 9.51562C22.2852 9.42187 22.2805 9.42187 22.168 9.50625C22.107 9.55781 21.943 9.65156 21.807 9.72187C21.4039 9.92812 21.207 10.1625 21.0008 10.7109C20.968 10.8047 20.8742 10.8141 17.3867 10.9594C15.418 11.0437 13.7023 11.1234 13.5805 11.1375L13.3508 11.1609L13.3836 10.7484C13.4117 10.4109 13.6133 9.67031 14.4945 6.65625C15.0805 4.63125 15.5773 2.93906 15.5914 2.89219C15.6055 2.84062 15.6617 2.8125 15.7461 2.8125C16.0227 2.8125 16.332 2.65781 16.5992 2.39531C16.932 2.05781 17.0398 1.77656 17.007 1.29375C16.9695 0.759375 16.7211 0.375 16.257 0.145311C16.0133 0.0187492 15.9195 0 15.6102 0C15.3008 0 15.207 0.0187492 14.9633 0.145311ZM15.8914 0.918749C16.0648 1.02187 16.1727 1.21875 16.1727 1.42969C16.1727 1.57031 16.1352 1.64062 15.9898 1.78594C15.8398 1.93594 15.7742 1.96875 15.6289 1.96875C15.1836 1.96875 14.9117 1.51875 15.118 1.125C15.2539 0.862499 15.6289 0.764061 15.8914 0.918749ZM2.70078 4.52812C2.85547 4.63125 2.95391 4.82812 2.95391 5.03906C2.95391 5.16094 2.91172 5.25 2.79453 5.38125C2.64922 5.54062 2.61172 5.55469 2.39141 5.55469C2.17109 5.55469 2.13359 5.54062 1.98828 5.38125C1.74453 5.11406 1.77266 4.8 2.05391 4.56094C2.20859 4.42969 2.52734 4.41562 2.70078 4.52812ZM9.87266 6.91406C9.97109 6.95625 10.182 7.12031 10.3367 7.28437L10.618 7.57969L11.0164 7.60781C12.0805 7.69219 12.7273 8.50312 12.6383 9.65625C12.6148 9.98437 12.4133 10.8422 12.3477 10.9172C12.3336 10.9312 12.268 10.8937 12.1977 10.8422C12.1273 10.7906 11.9961 10.7297 11.907 10.7109C11.3773 10.5984 10.7445 10.2516 10.2617 9.80625C9.92891 9.50156 9.76016 9.48281 9.40391 9.72187C8.75234 10.1531 6.98047 10.6734 6.00078 10.7203C5.37266 10.7484 5.27422 10.8 5.22266 11.1375C5.19922 11.2969 5.17109 11.3437 5.10547 11.3437C5.05391 11.3437 5.01641 11.3156 5.01641 11.2828C5.01641 11.2547 4.98359 11.0062 4.94609 10.7391C4.89453 10.3641 4.88516 10.1812 4.92734 9.94687C5.18984 8.28281 6.55859 7.06406 8.41484 6.84375C8.88828 6.7875 9.65703 6.825 9.87266 6.91406ZM22.6883 10.5234C22.8523 10.6078 22.9695 10.8141 22.9695 11.0156C22.9695 11.3437 22.7211 11.5781 22.3789 11.5781C22.1352 11.5781 21.8445 11.2875 21.8445 11.0391C21.8445 10.5937 22.2945 10.3172 22.6883 10.5234ZM10.0133 10.7297C10.3273 10.9781 10.693 11.1891 11.0867 11.3484L11.4148 11.4797V12.6703V13.8656L11.1805 14.325C10.7773 15.1266 10.1305 15.6891 9.36641 15.9094C8.87422 16.0547 8.59766 16.0781 8.20391 16.0125C7.38359 15.8672 6.68516 15.3422 6.32891 14.6016C6.11797 14.1656 6.09922 13.9828 6.09453 12.7453V11.5922L6.48359 11.5359C7.30391 11.4234 8.69141 11.0203 9.37578 10.6969C9.54453 10.6172 9.70391 10.5516 9.73203 10.5516C9.76016 10.5469 9.88672 10.6266 10.0133 10.7297ZM1.87578 14.9344C2.04922 15.0375 2.15703 15.2344 2.15703 15.4453C2.15703 15.5859 2.11953 15.6562 1.97422 15.8016C1.82422 15.9516 1.75859 15.9844 1.61328 15.9844C1.16797 15.9844 0.896094 15.5344 1.10234 15.1406C1.23828 14.8781 1.61328 14.7797 1.87578 14.9344ZM7.87578 16.8328C8.18047 16.9172 9.06172 16.9078 9.38984 16.8187L9.65703 16.7437V16.9594C9.65703 17.4703 9.46484 17.5781 8.57891 17.5781C7.68828 17.5781 7.50078 17.4703 7.50078 16.9547C7.50078 16.7625 7.51484 16.7297 7.58516 16.7531C7.62734 16.7672 7.75859 16.8 7.87578 16.8328ZM7.10703 18.1031C7.15859 18.15 7.30391 18.2344 7.43047 18.2906C7.65078 18.3891 7.72578 18.3984 8.57891 18.3984C9.43203 18.3984 9.50703 18.3937 9.72734 18.2906C9.85859 18.2297 10.0602 18.075 10.1867 17.9437L10.407 17.7047L10.8195 17.7891C12.2586 18.0703 13.2805 18.6281 13.6508 19.3266C13.7586 19.5187 13.7586 19.5562 13.7727 21.3422L13.7867 23.1562H13.0836H12.3758V22.2422V21.3281H11.9539H11.532V22.2422V23.1562H8.39141H5.25078V22.2422V21.3281H4.82891H4.40703V22.2422V23.1562H3.70391H2.99609L3.01016 21.3844C3.02422 19.6781 3.02891 19.6078 3.12734 19.3922C3.46016 18.675 4.74922 18.0281 6.39922 17.7516L6.77422 17.6906L6.89609 17.8547C6.96172 17.9484 7.06016 18.0609 7.10703 18.1031ZM18.7414 20.9766C19.0414 21.2297 19.0555 21.5906 18.7695 21.8391C18.343 22.2141 17.6961 21.7875 17.8742 21.2484C17.9914 20.8875 18.4602 20.7422 18.7414 20.9766Z" fill="white"/>
<path d="M12.8395 1.60302L12.4785 1.69677L12.5723 2.05302C12.6191 2.2499 12.6707 2.4374 12.6801 2.47021C12.6941 2.50771 12.8113 2.49365 13.102 2.41865C13.3223 2.3624 13.5098 2.31083 13.5145 2.29677C13.5191 2.28271 13.4816 2.0999 13.4348 1.88427C13.3316 1.44833 13.3691 1.4624 12.8395 1.60302Z" fill="white"/>
<path d="M11.2982 1.99219C10.9935 2.06719 10.8998 2.10938 10.9045 2.17031C10.9232 2.38125 11.0826 2.90625 11.1295 2.90625C11.2138 2.90625 11.8654 2.72813 11.8982 2.7C11.9263 2.66719 11.767 1.92656 11.7248 1.90313C11.7107 1.89375 11.5185 1.93594 11.2982 1.99219Z" fill="white"/>
<path d="M9.65678 2.40006C9.46459 2.45162 9.30053 2.4985 9.29115 2.50319C9.25365 2.54537 9.48803 3.33287 9.5349 3.31412C9.56303 3.30475 9.75053 3.25787 9.95209 3.211C10.149 3.16412 10.313 3.10319 10.313 3.07506C10.313 3.04694 10.2943 2.9485 10.2708 2.85944C10.2427 2.77037 10.2005 2.60631 10.1724 2.49381C10.1443 2.386 10.0974 2.29694 10.0646 2.30162C10.0318 2.30162 9.84897 2.3485 9.65678 2.40006Z" fill="white"/>
<path d="M8.12356 2.78426C7.91262 2.84051 7.72512 2.89676 7.71106 2.91551C7.66418 2.96238 7.83762 3.66082 7.90324 3.68894C7.95481 3.70769 8.65793 3.54363 8.70012 3.50144C8.71887 3.48269 8.54074 2.70457 8.51731 2.69051C8.51262 2.69051 8.33449 2.73269 8.12356 2.78426Z" fill="white"/>
<path d="M16.9413 2.96249C16.7632 3.09374 16.6085 3.20624 16.6038 3.21561C16.5616 3.24842 17.1288 3.9328 17.1757 3.90467C17.2038 3.88592 17.3538 3.77811 17.5085 3.66092C17.6632 3.54842 17.7991 3.4453 17.8038 3.44061C17.8226 3.43124 17.2976 2.71874 17.2741 2.71874C17.2694 2.71874 17.1194 2.82655 16.9413 2.96249Z" fill="white"/>
<path d="M6.44141 3.20156L6.06641 3.30469L6.16484 3.70313C6.22109 3.92344 6.28203 4.10156 6.31016 4.10156C6.46953 4.10156 7.12578 3.91406 7.11172 3.87188C7.10234 3.84375 7.05547 3.65625 7.00859 3.45469C6.96172 3.25781 6.90078 3.09375 6.87266 3.09844C6.84453 3.09844 6.65234 3.15 6.44141 3.20156Z" fill="white"/>
<path d="M4.81565 3.60937C4.63753 3.65625 4.48753 3.70312 4.47815 3.7125C4.46878 3.72187 4.50159 3.90469 4.55784 4.11562C4.62346 4.36875 4.67503 4.5 4.7219 4.5C4.8344 4.5 5.41096 4.35 5.45784 4.30781C5.48596 4.28437 5.46721 4.12031 5.41565 3.89062C5.31721 3.45937 5.33596 3.46875 4.81565 3.60937Z" fill="white"/>
<path d="M17.9203 4.30313C17.7609 4.425 17.6297 4.54219 17.625 4.56563C17.625 4.62188 18.0938 5.25 18.1359 5.25C18.1828 5.25 18.7969 4.78594 18.7969 4.75313C18.7969 4.69688 18.3 4.07813 18.2578 4.08281C18.2344 4.08281 18.0797 4.18125 17.9203 4.30313Z" fill="white"/>
<path d="M18.958 5.62974C18.7798 5.76568 18.6252 5.88287 18.6158 5.88755C18.6064 5.89693 18.7189 6.06099 18.8642 6.25787C19.033 6.48287 19.1502 6.60005 19.1877 6.5813C19.3564 6.47818 19.783 6.12662 19.783 6.08912C19.783 6.05162 19.4689 5.60162 19.3142 5.42349C19.3002 5.40474 19.1361 5.49849 18.958 5.62974Z" fill="white"/>
<path d="M19.95 6.98437C19.7812 7.11562 19.6406 7.2375 19.6406 7.26094C19.6406 7.31719 20.1047 7.92188 20.1516 7.92188C20.1703 7.92188 20.3297 7.81406 20.5031 7.6875C20.7141 7.52344 20.8031 7.42969 20.7797 7.3875C20.6906 7.2375 20.3156 6.75469 20.2922 6.75C20.2781 6.75 20.1234 6.85781 19.95 6.98437Z" fill="white"/>
<path d="M1.35938 7.66406V8.10938H1.78125H2.20313V7.66406V7.21875H1.78125H1.35938V7.66406Z" fill="white"/>
<path d="M20.9208 8.33437C20.7614 8.45625 20.6396 8.58281 20.6489 8.61094C20.6771 8.69531 21.113 9.27656 21.1458 9.28125C21.1927 9.28125 21.7974 8.8125 21.7974 8.77031C21.7974 8.69531 21.3239 8.10938 21.2677 8.11406C21.2349 8.11406 21.0802 8.2125 20.9208 8.33437Z" fill="white"/>
<path d="M1.35938 9.35156V9.79688H1.78125H2.20313V9.35156V8.90625H1.78125H1.35938V9.35156Z" fill="white"/>
<path d="M1.35938 11.0391V11.4844H1.78125H2.20313V11.0391V10.5937H1.78125H1.35938V11.0391Z" fill="white"/>
<path d="M1.35938 12.7266V13.1719H1.78125H2.20313V12.7266V12.2812H1.78125H1.35938V12.7266Z" fill="white"/>
<path d="M21.264 13.2937C21.1937 13.4859 21.1421 13.6546 21.1515 13.6593C21.2312 13.7155 21.8546 13.9265 21.8968 13.9124C21.9624 13.889 22.2249 13.2515 22.1827 13.214C22.1312 13.1718 21.5218 12.9374 21.4562 12.9374C21.4234 12.9374 21.339 13.0968 21.264 13.2937Z" fill="white"/>
<path d="M20.7471 14.6484C20.6674 14.8594 20.6299 15.0234 20.6534 15.0469C20.6956 15.0891 21.3096 15.3281 21.3753 15.3281C21.4081 15.3281 21.6565 14.7094 21.6565 14.6297C21.6565 14.6062 21.5159 14.5359 21.3424 14.4703C21.1643 14.4047 20.9909 14.3391 20.9534 14.325C20.8971 14.3016 20.8503 14.3812 20.7471 14.6484Z" fill="white"/>
<path d="M20.3027 15.8062C20.284 15.8671 20.2184 16.0312 20.1668 16.1765L20.0684 16.4437L20.4527 16.589C20.6637 16.6687 20.8512 16.7156 20.8699 16.6968C20.898 16.6687 21.1418 16.0593 21.1418 16.0124C21.1418 15.9937 20.4059 15.7031 20.3637 15.7031C20.3496 15.7031 20.3262 15.7499 20.3027 15.8062Z" fill="white"/>
<path d="M2.90625 16.7578L2.60156 17.0625L2.87344 17.3297L3.14062 17.6016L3.44531 17.2969L3.75 16.9922L3.47813 16.7203L3.20625 16.4531L2.90625 16.7578Z" fill="white"/>
<path d="M19.6793 17.4563C19.5246 17.8594 19.5246 17.8407 19.6324 17.8735C19.6746 17.8875 19.8527 17.9485 20.0262 18.0188L20.3402 18.136L20.4574 17.8219C20.5231 17.6485 20.5793 17.4797 20.5887 17.4469C20.5981 17.4047 20.4715 17.3344 20.2512 17.2454C20.059 17.1704 19.8809 17.1094 19.8527 17.1094C19.8293 17.1094 19.7496 17.2641 19.6793 17.4563Z" fill="white"/>
<path d="M19.1578 18.8156C19.0875 19.0031 19.0312 19.1766 19.0312 19.2C19.0312 19.2422 19.6687 19.5 19.7719 19.5C19.7953 19.5 19.875 19.3594 19.9406 19.1813C20.0578 18.8813 20.0859 18.75 20.0437 18.75C20.0297 18.75 19.8562 18.6891 19.6547 18.6141L19.2844 18.4781L19.1578 18.8156Z" fill="white"/>
<path d="M15.3047 21.1969C15.2625 21.3281 15.0938 21.9 15.0938 21.9187C15.0938 21.9375 15.6938 22.125 15.7547 22.125C15.7875 22.125 15.9891 21.5297 16.0031 21.3844C16.0078 21.3469 15.8953 21.2859 15.7266 21.2297C15.3938 21.1266 15.3328 21.1219 15.3047 21.1969Z" fill="white"/>
</g>
<defs>
<clipPath id="clip0_4907_92895">
<rect width="24" height="24" fill="white"/>
</clipPath>
</defs>
</svg>
