<svg width="24" height="24" viewBox="0 0 24 24" fill="none" xmlns="http://www.w3.org/2000/svg">
<g clip-path="url(#clip0_4907_92486)">
<path d="M2.91563 0.145311C2.59219 0.304688 2.42813 0.478125 2.26875 0.820312L2.15625 1.05469V4.22344V7.39687L1.32656 8.06719C0.867188 8.4375 0.445312 8.79375 0.389063 8.85469L0.28125 8.96719V15.8484V22.7297L0.384375 23.0016C0.515625 23.3672 0.91875 23.7656 1.28906 23.9016L1.55156 24H12H22.4484L22.7203 23.8969C23.0859 23.7656 23.4844 23.3625 23.6203 22.9922C23.7188 22.7297 23.7188 22.725 23.7188 15.8484V8.96719L23.6109 8.85469C23.5547 8.79375 23.1328 8.4375 22.6734 8.06719L21.8438 7.3875V4.22344V1.05469L21.7313 0.820312C21.5719 0.478125 21.4078 0.304688 21.0844 0.145311L20.7984 0H17.3438H13.8891L13.7625 0.121874C13.5891 0.299999 13.5891 0.637499 13.7625 0.810936L13.8844 0.932812L17.2219 0.946875C20.9625 0.960938 20.7563 0.942186 20.8547 1.29844C20.8875 1.41562 20.9062 2.98125 20.9062 5.95312L20.9016 10.4297L16.4906 13.7812C14.0625 15.6234 12.0422 17.1328 12 17.1328C11.9578 17.1328 9.9375 15.6234 7.50938 13.7812L3.09844 10.4297L3.09375 5.95312C3.09375 2.98125 3.1125 1.41562 3.14531 1.29844C3.24375 0.942186 3.0375 0.960938 6.77813 0.946875L10.1156 0.932812L10.2375 0.810936C10.4109 0.637499 10.4109 0.299999 10.2375 0.121874L10.1109 0H6.65625H3.20156L2.91563 0.145311ZM2.15625 9.21094V9.70781L1.86094 9.48281C1.69688 9.36094 1.55625 9.24375 1.54219 9.22969C1.52344 9.19687 2.0625 8.72344 2.12344 8.71875C2.14219 8.71875 2.15625 8.93906 2.15625 9.21094ZM22.1766 8.95312C22.3313 9.07969 22.4531 9.20156 22.4484 9.22031C22.4391 9.23906 22.3031 9.36094 22.1391 9.48281L21.8438 9.70781V9.21094C21.8438 8.93906 21.8578 8.71875 21.8719 8.71875C21.8859 8.71875 22.0266 8.82187 22.1766 8.95312ZM4.57031 12.7969C6.35156 14.1469 7.86094 15.2953 7.93125 15.3516L8.05313 15.4547L4.63594 18.8719L1.21875 22.2891V16.2703C1.21875 11.4656 1.23281 10.2609 1.27969 10.2984C1.30781 10.3219 2.79375 11.4469 4.57031 12.7969ZM22.7719 19.2656L22.7578 22.2656L19.35 18.8578L15.9422 15.4453L19.35 12.8578L22.7578 10.2703L22.7719 13.2656C22.7766 14.9156 22.7766 17.6156 22.7719 19.2656ZM10.3359 17.1797C11.1047 17.7656 11.7938 18.2672 11.8688 18.2906C11.9578 18.3234 12.0469 18.3234 12.1359 18.2906C12.2109 18.2625 12.7969 17.8453 13.4391 17.3578C14.0766 16.8703 14.7234 16.3781 14.8734 16.2656L15.1453 16.0641L18.6141 19.5281C20.5172 21.4312 22.0781 23.0062 22.0781 23.025C22.0781 23.0484 17.5453 23.0625 12 23.0625C6.45938 23.0625 1.92188 23.0484 1.92188 23.0297C1.92188 22.9594 8.83594 16.0781 8.8875 16.0969C8.91094 16.1062 9.56719 16.5937 10.3359 17.1797Z" fill="white"/>
<path d="M11.6531 0.121875C11.5547 0.220312 11.5312 0.290625 11.5312 0.46875C11.5312 0.646875 11.5547 0.717187 11.6531 0.815625C11.7516 0.914062 11.8219 0.9375 12 0.9375C12.1781 0.9375 12.2484 0.914062 12.3469 0.815625C12.4453 0.717187 12.4688 0.646875 12.4688 0.46875C12.4688 0.290625 12.4453 0.220312 12.3469 0.121875C12.2484 0.0234374 12.1781 -5.96046e-08 12 -5.96046e-08C11.8219 -5.96046e-08 11.7516 0.0234374 11.6531 0.121875Z" fill="white"/>
<path d="M7.3832 1.94536C6.58164 2.09536 5.91133 2.44224 5.30195 3.0188C3.60508 4.63599 3.60508 7.36411 5.30195 8.9813C5.81758 9.4688 6.30977 9.75474 7.01758 9.97036C7.38789 10.0829 7.50039 10.0969 8.15664 10.0969C8.81289 10.0969 8.92539 10.0829 9.2957 9.97036C10.0035 9.75474 10.4957 9.4688 11.0113 8.9813C13.0645 7.02192 12.5488 3.57661 10.0082 2.31099C9.21602 1.91255 8.25508 1.7813 7.3832 1.94536ZM9.12227 3.0188C10.0457 3.3188 10.8332 4.09692 11.1426 5.02974C11.2551 5.36724 11.2691 5.48442 11.2691 6.00005C11.2691 6.51567 11.2551 6.62817 11.1379 6.9563C11.0676 7.16255 10.9457 7.43911 10.866 7.57036L10.7207 7.81411L10.5004 7.53286C10.3176 7.28911 10.027 7.04067 9.59102 6.73599C9.50664 6.67974 9.50664 6.66567 9.57695 6.55786C9.68945 6.38442 9.79727 5.92036 9.79727 5.60161C9.79727 4.86567 9.4832 4.31255 8.8832 3.9938C8.67227 3.8813 8.60195 3.86724 8.15664 3.86724C7.73008 3.86724 7.63633 3.8813 7.45352 3.97974C6.83945 4.30317 6.51602 4.85161 6.51602 5.57349C6.51602 5.91099 6.61914 6.37974 6.73164 6.54849C6.82539 6.6938 6.81602 6.72192 6.64727 6.8063C6.38945 6.92817 6.01445 7.2563 5.79883 7.54224L5.59258 7.8188L5.44727 7.57505C5.21289 7.1813 5.0582 6.64692 5.03008 6.14067C4.9457 4.67349 5.93477 3.34692 7.40664 2.95317C7.89883 2.82192 8.59727 2.84536 9.12227 3.0188ZM8.53633 4.95474C8.72383 5.11411 8.81289 5.32505 8.81289 5.61099C8.81289 5.89224 8.6957 6.1313 8.48945 6.26724C8.04414 6.56255 7.50039 6.20161 7.50039 5.61099C7.50039 5.14224 7.76289 4.82817 8.15664 4.82817C8.33477 4.82817 8.41445 4.8563 8.53633 4.95474ZM8.83164 7.50474C9.21133 7.64536 9.57695 7.9313 9.79727 8.25942L9.98945 8.55005L9.74102 8.70005C9.60508 8.78442 9.31445 8.91567 9.09414 8.98599C8.75195 9.09849 8.6207 9.11724 8.15664 9.11724C7.69258 9.11724 7.56133 9.09849 7.21914 8.98599C6.99883 8.91567 6.7082 8.78442 6.57227 8.70005L6.32383 8.55005L6.51602 8.25942C6.79727 7.83755 7.28477 7.51411 7.7957 7.4063C8.06758 7.35005 8.53633 7.39224 8.83164 7.50474Z" fill="white"/>
<path d="M14.1188 1.97339C13.575 2.18433 13.2188 2.73745 13.2188 3.37495C13.2188 3.98433 13.5188 4.4812 14.0391 4.73433L14.2734 4.85151L16.5375 4.86558L18.8016 4.87964L19.0828 4.75308C19.4016 4.60776 19.6922 4.31714 19.8422 3.9937C19.9875 3.68433 19.9875 3.06558 19.8469 2.76089C19.6969 2.43745 19.4203 2.16089 19.1016 2.0062L18.8203 1.87495L16.5938 1.87964C14.4703 1.87964 14.3578 1.88433 14.1188 1.97339ZM18.6938 2.89683C18.8344 2.97651 18.9844 3.22495 18.9844 3.37495C18.9844 3.52495 18.8344 3.77339 18.6938 3.85308C18.6094 3.89995 18.1594 3.9187 16.7578 3.92808C15.7547 3.93745 14.8359 3.92808 14.7234 3.91401C14.2641 3.8437 14.0484 3.37964 14.325 3.05151C14.3906 2.97183 14.5125 2.88745 14.5922 2.86401C14.8359 2.78901 18.5625 2.82183 18.6938 2.89683Z" fill="white"/>
<path d="M13.3406 6.12187C13.2422 6.22031 13.2188 6.29062 13.2188 6.46875C13.2188 6.64687 13.2422 6.71719 13.3406 6.81562C13.4391 6.91406 13.5094 6.9375 13.6875 6.9375C13.8656 6.9375 13.9359 6.91406 14.0344 6.81562C14.1328 6.71719 14.1563 6.64687 14.1563 6.46875C14.1563 6.29062 14.1328 6.22031 14.0344 6.12187C13.9359 6.02344 13.8656 6 13.6875 6C13.5094 6 13.4391 6.02344 13.3406 6.12187Z" fill="white"/>
<path d="M15.2953 6.1125C15.1828 6.21094 15.1641 6.2625 15.1641 6.46875C15.1641 6.675 15.1828 6.72656 15.2953 6.825L15.4266 6.9375H17.3953H19.3688L19.5047 6.80156C19.6125 6.69375 19.6406 6.62344 19.6406 6.46875C19.6406 6.31406 19.6125 6.24375 19.5047 6.13594L19.3688 6H17.3953H15.4266L15.2953 6.1125Z" fill="white"/>
<path d="M13.3406 8.18437C13.2422 8.28281 13.2188 8.35312 13.2188 8.53125C13.2188 8.70937 13.2422 8.77969 13.3406 8.87812C13.4391 8.97656 13.5094 9 13.6875 9C13.8656 9 13.9359 8.97656 14.0344 8.87812C14.1328 8.77969 14.1563 8.70937 14.1563 8.53125C14.1563 8.35312 14.1328 8.28281 14.0344 8.18437C13.9359 8.08594 13.8656 8.0625 13.6875 8.0625C13.5094 8.0625 13.4391 8.08594 13.3406 8.18437Z" fill="white"/>
<path d="M15.2953 8.175C15.1828 8.27344 15.1641 8.325 15.1641 8.53125C15.1641 8.7375 15.1828 8.78906 15.2953 8.8875L15.4266 9H17.3953H19.3688L19.5047 8.86406C19.6125 8.75625 19.6406 8.68594 19.6406 8.53125C19.6406 8.37656 19.6125 8.30625 19.5047 8.19844L19.3688 8.0625H17.3953H15.4266L15.2953 8.175Z" fill="white"/>
<path d="M6.74982 11.0766C6.59044 11.1562 6.45919 11.4234 6.49669 11.6016C6.51075 11.6766 6.58575 11.7984 6.66075 11.8687L6.79669 12H11.9998H17.2029L17.3483 11.8687C17.4654 11.7656 17.4983 11.6953 17.5029 11.55C17.5076 11.3297 17.3904 11.1234 17.2217 11.0625C17.0295 10.9875 6.89513 11.0016 6.74982 11.0766Z" fill="white"/>
<path d="M9.24847 12.9843C9.05628 13.1015 8.9766 13.3546 9.06566 13.5702C9.2016 13.889 9.06566 13.8749 12 13.8749C14.9344 13.8749 14.7985 13.889 14.9344 13.5702C15.0235 13.3546 14.9438 13.1015 14.7516 12.9843C14.6063 12.8952 14.4938 12.8905 12 12.8905C9.50628 12.8905 9.39378 12.8952 9.24847 12.9843Z" fill="white"/>
</g>
<defs>
<clipPath id="clip0_4907_92486">
<rect width="24" height="24" fill="white"/>
</clipPath>
</defs>
</svg>
