<svg width="24" height="24" viewBox="0 0 24 24" fill="none" xmlns="http://www.w3.org/2000/svg">
<path d="M10.8988 0.591103C8.37219 1.03642 6.52063 3.03798 6.38938 5.46142C6.36125 5.96767 6.35656 5.98173 6.19719 6.15985C5.97219 6.41298 5.76594 6.87704 5.705 7.2661C5.50344 8.56454 6.55813 9.83954 7.83781 9.84423H8.05813L8.31594 10.2849C8.6675 10.8755 9.07531 11.377 9.49719 11.7239L9.84406 12.0145V12.3052C9.84406 12.9005 9.69875 12.9755 7.35031 13.5474C6.25344 13.8145 5.69094 14.002 5.05344 14.3208C3.2675 15.2208 2.17062 16.7208 1.70656 18.9239C1.58 19.5192 1.57062 19.7208 1.65031 19.8989C1.7675 20.1567 1.78625 20.1567 4.07844 20.1567H6.18781V21.6989V23.2364L6.30969 23.363L6.43625 23.4849H8.17531C10.1066 23.4849 10.0691 23.4895 10.1722 23.1802C10.2144 23.0583 10.2144 22.9739 10.1722 22.852C10.0738 22.5474 10.0691 22.5474 8.54563 22.5474H7.17219V19.477V16.4067H12.0003H16.8284V19.477V22.5474H15.455C13.9316 22.5474 13.9269 22.5474 13.8284 22.852C13.7863 22.9739 13.7863 23.0583 13.8284 23.1802C13.9316 23.4895 13.8941 23.4849 15.8253 23.4849H17.5644L17.6909 23.363L17.8128 23.2364V21.6989V20.1567H19.9222C22.2144 20.1567 22.2331 20.1567 22.3503 19.8989C22.43 19.7302 22.4206 19.5333 22.3175 19.027C21.7691 16.388 20.4378 14.8036 18.0519 13.9364C17.8081 13.852 17.0066 13.6317 16.2706 13.4489C14.3581 12.9802 14.1566 12.8724 14.1566 12.3099V12.0145L14.5034 11.7239C14.9253 11.377 15.3331 10.8755 15.6847 10.2849L15.9425 9.84423H16.1581C17.4378 9.84423 18.4972 8.56923 18.2956 7.2661C18.2347 6.87704 18.0284 6.41298 17.8034 6.15985C17.6441 5.98173 17.6394 5.96767 17.6113 5.46142C17.48 3.01454 15.6284 1.03173 13.0597 0.586416C12.5441 0.497353 11.4144 0.502041 10.8988 0.591103ZM12.5628 1.51923C14.1753 1.63173 15.6941 2.70517 16.3222 4.18173C16.4488 4.48173 16.6644 5.33485 16.6222 5.37704C16.6128 5.38642 16.4909 5.38173 16.355 5.36298L16.0972 5.33485L16.0034 4.92704C15.5253 2.93017 13.4347 1.69267 11.1894 2.08642C10.28 2.24579 9.57219 2.61142 8.94875 3.23954C8.61125 3.57704 8.50344 3.72704 8.30656 4.12079C8.16125 4.40673 8.03469 4.73954 7.98781 4.96454L7.90813 5.33485L7.65031 5.36298C7.50969 5.38173 7.38781 5.38642 7.37844 5.37704C7.36906 5.37235 7.40188 5.17548 7.44875 4.94579C7.83313 3.06142 9.48313 1.67392 11.5316 1.50517C11.7753 1.48642 12.0284 1.47704 12.0941 1.48173C12.1597 1.4911 12.3706 1.50517 12.5628 1.51923ZM12.9613 3.1411C14.0347 3.4786 14.7144 4.10673 15.0284 5.06298C15.1034 5.29267 15.1128 5.54579 15.1316 7.24735L15.1456 9.17861L15.0238 9.42704C14.6722 10.1255 14.1519 10.7583 13.5706 11.1895C13.4159 11.3067 13.2659 11.4474 13.2331 11.4989C13.1488 11.6489 13.1534 12.6286 13.2425 12.9239C13.3269 13.2099 13.6363 13.5755 13.9456 13.7583C14.3066 13.9645 14.7378 14.1052 15.8863 14.377C16.4956 14.5177 17.2363 14.7145 17.5316 14.813C19.2191 15.3614 20.2738 16.2989 20.9206 17.813C21.0613 18.1458 21.3284 19.0083 21.3284 19.1349C21.3284 19.1583 20.5363 19.1724 19.5706 19.1724H17.8128V17.4427V15.7083L17.7003 15.577L17.5878 15.4458H12.0003H6.41281L6.30031 15.577L6.18781 15.7083V17.4427V19.1724H4.43H2.6675L2.70031 18.9942C2.76594 18.6286 3.05187 17.8411 3.28156 17.4005C3.82531 16.3458 4.53312 15.6661 5.64406 15.1364C6.21594 14.8645 6.88625 14.6583 8.15656 14.3677C9.20656 14.1239 9.64719 13.9833 10.0175 13.777C10.3503 13.5849 10.6691 13.2192 10.7581 12.9239C10.8472 12.6286 10.8519 11.6536 10.7675 11.4989C10.7347 11.438 10.5847 11.302 10.43 11.1895C9.86281 10.7724 9.32844 10.1302 8.98156 9.43642L8.85969 9.19267V7.39735C8.85969 5.38642 8.88313 5.18017 9.16438 4.61298C9.35656 4.21923 9.74563 3.79735 10.1441 3.53954C10.4534 3.34267 11.0394 3.11298 11.405 3.04735C11.7941 2.97704 12.5863 3.0286 12.9613 3.1411ZM7.87531 7.59892V8.86923L7.70188 8.83642C7.14406 8.73329 6.65656 8.15204 6.65656 7.59423C6.65656 7.13485 7.03156 6.59579 7.4675 6.42704C7.90813 6.25829 7.87531 6.15517 7.87531 7.59892ZM16.4816 6.40829C16.8097 6.52079 17.1706 6.8911 17.2691 7.21923C17.3628 7.53329 17.3628 7.65517 17.2691 7.96454C17.1472 8.38173 16.73 8.75673 16.2988 8.83642L16.1253 8.86923V7.59892C16.1253 6.57704 16.1394 6.3286 16.1863 6.3286C16.2191 6.3286 16.355 6.3661 16.4816 6.40829Z" fill="white"/>
<path d="M11.6489 22.6597C11.438 22.8706 11.438 23.1612 11.6489 23.3722C11.8083 23.5315 12.1927 23.5315 12.3521 23.3722C12.4833 23.2362 12.5396 23.0628 12.4974 22.894C12.4786 22.8284 12.413 22.7206 12.3521 22.6597C12.1927 22.5003 11.8083 22.5003 11.6489 22.6597Z" fill="white"/>
</svg>
