<svg width="24" height="24" viewBox="0 0 24 24" fill="none" xmlns="http://www.w3.org/2000/svg">
<path d="M6.55874 4.67492C5.77593 4.92336 5.18061 5.5843 5.03999 6.36242C5.01186 6.5218 4.98843 7.24836 4.98843 8.0593V9.47492L4.58061 9.49367C4.26186 9.50773 4.10718 9.54055 3.9103 9.63898C3.59155 9.78898 3.28686 10.0843 3.11811 10.3984C3.00561 10.614 2.99624 10.6749 3.00093 11.1718V11.7109L3.80718 14.453C4.25718 15.9812 4.67905 17.3265 4.75874 17.4905C4.97436 17.9312 5.4853 18.4234 5.98218 18.6671C6.6853 19.014 6.32436 18.9999 13.1259 18.9999C17.3025 18.9999 19.3087 18.9859 19.5009 18.9484C20.3306 18.7984 21.0009 18.1749 21.2166 17.364C21.2869 17.0827 21.2962 16.6655 21.2962 12.7843C21.3009 10.1265 21.2822 8.41555 21.2541 8.26086C21.0994 7.42648 20.4056 6.71398 19.5759 6.53586C19.4072 6.50305 18.4275 6.4843 16.4916 6.4843C14.1525 6.4843 13.6322 6.47492 13.5291 6.41867C13.4447 6.37648 13.2947 6.16555 13.0837 5.79055C12.7087 5.12961 12.5259 4.92805 12.1416 4.74523L11.8556 4.6093L9.30093 4.61398C7.37436 4.61398 6.69936 4.62805 6.55874 4.67492ZM11.7244 5.80461C11.7759 5.84211 11.9541 6.1093 12.1181 6.39992C12.4744 7.03742 12.69 7.28117 13.0462 7.45461L13.3087 7.58586L16.3556 7.6093L19.4025 7.63273L19.6275 7.76398C19.8853 7.91398 20.0541 8.14836 20.1291 8.45305C20.1619 8.59836 20.1759 9.57805 20.1666 11.528L20.1525 14.3921L19.6931 12.8171C19.44 11.9499 19.1916 11.153 19.1353 11.0405C18.8587 10.464 18.2916 9.94367 17.6447 9.66242L17.2931 9.50773L11.7009 9.49367L6.10874 9.4843L6.1228 7.99367C6.13686 6.57336 6.14155 6.49836 6.23999 6.32023C6.36655 6.08586 6.55874 5.90305 6.76968 5.8093C7.01343 5.70148 11.5744 5.6968 11.7244 5.80461ZM17.2509 10.7452C17.5978 10.9093 17.8884 11.1624 18.0478 11.4343C18.2025 11.7015 19.7541 17.0312 19.7541 17.3077C19.7541 17.4718 19.7259 17.5374 19.5994 17.664C19.4775 17.7859 19.3931 17.8234 19.1869 17.8515C19.0509 17.8655 16.2244 17.8749 12.9103 17.8655L6.88686 17.8515L6.61968 17.7249C6.29624 17.5749 5.90718 17.2234 5.77593 16.9609C5.6353 16.689 4.0978 11.3687 4.0978 11.1577C4.0978 10.928 4.15874 10.8155 4.34624 10.703C4.49155 10.614 4.64155 10.6093 10.7306 10.6093H16.965L17.2509 10.7452Z" fill="white"/>
</svg>
