<svg width="24" height="24" viewBox="0 0 24 24" fill="none" xmlns="http://www.w3.org/2000/svg">
<path d="M10.8749 2.71863C10.1812 2.86394 9.30461 3.21082 9.09836 3.41707C8.9343 3.58113 8.96711 3.80144 9.23898 4.27019C9.37023 4.49988 9.51555 4.71082 9.56242 4.73426C9.70305 4.80926 9.91398 4.78582 10.0218 4.68738C10.1905 4.53269 10.1999 4.37801 10.064 4.10144L9.94211 3.85301L10.1859 3.75457C10.4671 3.63738 11.0296 3.49207 11.3812 3.44519L11.6249 3.41238V3.67488C11.6249 4.00301 11.7234 4.12488 11.9999 4.12488C12.2718 4.12488 12.3749 4.00301 12.3749 3.67957C12.3749 3.49207 12.3937 3.42176 12.4405 3.42176C12.628 3.42176 13.3265 3.58582 13.6687 3.70769L14.0624 3.85301L13.9687 4.03113C13.7624 4.43426 13.8984 4.75301 14.264 4.72488C14.4327 4.71082 14.4796 4.68269 14.6015 4.51394C14.6765 4.40613 14.7702 4.31707 14.8077 4.31707C14.8921 4.31238 15.9374 5.36238 15.9374 5.45144C15.9374 5.48894 15.8671 5.56863 15.778 5.62019C15.5812 5.74207 15.5015 5.94363 15.5718 6.14051C15.5952 6.22019 15.6562 6.30457 15.703 6.32801C15.8296 6.39363 16.0827 6.38426 16.2187 6.30457C16.2843 6.26707 16.3593 6.23894 16.3874 6.23426C16.4999 6.23426 16.7343 6.97957 16.8515 7.69676L16.8796 7.87488H16.5937C16.2421 7.87488 16.1249 7.96863 16.1249 8.24988C16.1249 8.52175 16.2468 8.62488 16.5702 8.62488C16.7577 8.62488 16.828 8.64363 16.828 8.6905C16.828 8.878 16.664 9.57644 16.5421 9.91863L16.3968 10.3124L16.2187 10.2186C15.8155 10.0124 15.4968 10.1483 15.5249 10.5139C15.539 10.6827 15.5671 10.7296 15.7359 10.8514C15.8437 10.9264 15.9327 11.0108 15.9327 11.0389C15.9421 11.1561 15.1593 11.9577 14.8218 12.178C14.7093 12.253 14.6999 12.2483 14.6296 12.1405C14.4468 11.8639 14.3671 11.803 14.1796 11.803C13.828 11.803 13.6734 12.1639 13.8796 12.4968C13.9312 12.5858 13.964 12.6749 13.9452 12.6983C13.9124 12.7593 13.1202 13.0124 12.8437 13.0499C12.7265 13.0686 12.5765 13.0921 12.5062 13.1061L12.3749 13.1343V12.8483C12.3749 12.4921 12.2812 12.3749 11.9999 12.3749C11.728 12.3749 11.6249 12.4968 11.6249 12.8202C11.6249 13.0077 11.6062 13.078 11.5593 13.078C11.3718 13.078 10.678 12.9139 10.3312 12.7921L9.94211 12.6468L10.064 12.403C10.1999 12.1218 10.1905 11.9718 10.0218 11.8124C9.91398 11.7093 9.70305 11.6905 9.56242 11.7655C9.51555 11.7936 9.42648 11.8968 9.37023 11.9999C9.3093 12.103 9.2343 12.1874 9.1968 12.1874C9.10773 12.1874 8.06242 11.1421 8.06711 11.0577C8.06711 11.0202 8.15617 10.9264 8.26398 10.8514C8.43273 10.7296 8.46086 10.6827 8.47492 10.5139C8.50305 10.1483 8.1843 10.0124 7.78117 10.2186L7.60305 10.3124L7.45773 9.91863C7.33586 9.57644 7.1718 8.878 7.1718 8.6905C7.1718 8.64363 7.24211 8.62488 7.42961 8.62488C7.75305 8.62488 7.87492 8.52175 7.87492 8.24988C7.87492 7.978 7.75305 7.87488 7.42961 7.87488C7.21398 7.87488 7.1718 7.86082 7.1718 7.79051C7.1718 7.60301 7.36398 6.81551 7.47648 6.51551L7.60305 6.18738L7.78117 6.28113C8.17023 6.47801 8.4843 6.35613 8.4843 6.00457C8.4843 5.78894 8.38117 5.68582 7.90773 5.41863C7.55617 5.22644 7.31711 5.19832 7.1718 5.34363C7.04523 5.47019 6.8343 5.90144 6.66555 6.38426C6.16867 7.79051 6.24836 9.33738 6.89055 10.6733C7.76242 12.5014 9.44055 13.6733 11.4749 13.8796C14.0062 14.1374 16.4577 12.5858 17.3202 10.1718C17.9109 8.50769 17.6812 6.59051 16.7155 5.13738C15.8812 3.88582 14.6015 3.01863 13.139 2.72332C12.5155 2.59207 11.4562 2.59207 10.8749 2.71863Z" fill="white"/>
<path d="M8.04855 4.22812C7.92668 4.32656 7.87043 4.52344 7.92668 4.6875C7.98761 4.85625 8.09543 4.92188 8.31574 4.92188C8.6298 4.92188 8.79855 4.49062 8.56418 4.275C8.4423 4.15781 8.17511 4.13437 8.04855 4.22812Z" fill="white"/>
<path d="M11.7187 5.71875C11.6297 5.80781 11.625 5.87344 11.625 7.13437V8.45625L12.4594 9.29062C13.2469 10.0781 13.3031 10.125 13.4672 10.125C13.7062 10.125 13.8094 10.0641 13.8703 9.88594C13.95 9.65156 13.8469 9.50156 13.0828 8.74219L12.375 8.03906V6.92812C12.375 5.87344 12.3703 5.80781 12.2812 5.71875C12.2203 5.65781 12.1266 5.625 12 5.625C11.8734 5.625 11.7797 5.65781 11.7187 5.71875Z" fill="white"/>
<path d="M11.7375 14.6906C11.6531 14.7562 11.6484 14.8406 11.625 16.2L11.6016 17.6391L11.3906 17.7C10.8281 17.8641 10.3359 18.4078 10.1438 19.0687C10.1297 19.1156 9.57656 19.125 7.49531 19.1156L4.86094 19.1016L4.80469 18.9047C4.66875 18.4453 4.28438 18.0141 3.79688 17.775C3.5625 17.6578 3.49219 17.6484 3 17.6484C2.49844 17.6484 2.44219 17.6578 2.17969 17.7844C1.81875 17.9625 1.4625 18.3187 1.28438 18.6797C1.15781 18.9422 1.14844 18.9984 1.14844 19.5C1.14844 20.0016 1.15781 20.0578 1.28438 20.3203C1.4625 20.6812 1.81875 21.0375 2.17969 21.2156C2.44219 21.3422 2.49844 21.3516 3 21.3516C3.49219 21.3516 3.5625 21.3422 3.79688 21.225C4.28438 20.9859 4.66875 20.5547 4.80469 20.0953L4.86094 19.8984H7.5H10.1391L10.1953 20.0953C10.3313 20.5547 10.7156 20.9859 11.2031 21.225C11.4375 21.3422 11.5078 21.3516 12 21.3516C12.4922 21.3516 12.5625 21.3422 12.7969 21.225C13.2844 20.9859 13.6688 20.5547 13.8047 20.0953L13.8609 19.8984H16.5H19.1391L19.1953 20.0953C19.3313 20.5547 19.7156 20.9859 20.2031 21.225C20.4375 21.3422 20.5078 21.3516 21 21.3516C21.5016 21.3516 21.5578 21.3422 21.8203 21.2156C22.1813 21.0375 22.5375 20.6812 22.7156 20.3203C22.8422 20.0578 22.8516 20.0016 22.8516 19.5C22.8516 18.9984 22.8422 18.9422 22.7156 18.6797C22.5375 18.3187 22.1813 17.9625 21.8203 17.7844C21.5578 17.6578 21.5016 17.6484 21 17.6484C20.5078 17.6484 20.4375 17.6578 20.2031 17.775C19.7156 18.0141 19.3313 18.4453 19.1953 18.9047L19.1391 19.1016L16.5047 19.1156C14.4234 19.125 13.8703 19.1156 13.8563 19.0687C13.6641 18.4078 13.1719 17.8641 12.6094 17.7L12.3984 17.6391L12.375 16.2C12.3516 14.8406 12.3469 14.7562 12.2625 14.6906C12.2109 14.6531 12.0938 14.625 12 14.625C11.9063 14.625 11.7891 14.6531 11.7375 14.6906ZM3.45938 18.5109C4.14844 18.8625 4.29375 19.7625 3.74531 20.2828C3.06094 20.9297 1.92656 20.4516 1.92188 19.5094C1.92188 19.0734 2.16094 18.6937 2.55469 18.5109C2.80781 18.3937 3.22969 18.3937 3.45938 18.5109ZM12.4594 18.5109C13.1484 18.8625 13.2938 19.7625 12.7453 20.2828C12.0609 20.9297 10.9266 20.4516 10.9219 19.5094C10.9219 19.0734 11.1609 18.6937 11.5547 18.5109C11.8078 18.3937 12.2297 18.3937 12.4594 18.5109ZM21.4594 18.5109C22.1484 18.8625 22.2938 19.7625 21.7453 20.2828C21.0609 20.9297 19.9266 20.4516 19.9219 19.5094C19.9219 19.0734 20.1609 18.6937 20.5547 18.5109C20.8078 18.3937 21.2297 18.3937 21.4594 18.5109Z" fill="white"/>
</svg>
