<svg width="16" height="17" viewBox="0 0 16 17" fill="none" xmlns="http://www.w3.org/2000/svg">
<g clip-path="url(#clip0_4783_75871)">
<path d="M2.26093 0.105706C1.17031 0.336956 0.267187 1.24945 0.0453124 2.34008C-0.0203125 2.65258 -0.0203125 3.23382 0.0453124 3.54632C0.226562 4.42757 0.860936 5.22132 1.67968 5.59007C2.35781 5.89944 3.21718 5.92757 3.92031 5.66195C4.63593 5.3932 5.2453 4.81195 5.54843 4.11507C5.93593 3.21507 5.85468 2.17445 5.3328 1.37445C4.90468 0.72133 4.2328 0.255706 3.48906 0.102581C3.18593 0.040081 2.55781 0.040081 2.26093 0.105706ZM3.51718 0.786955C4.4578 1.06195 5.12968 1.95883 5.12968 2.9432C5.12968 3.5557 4.91093 4.07757 4.46405 4.52132C4.0203 4.9682 3.49843 5.18695 2.88593 5.18695C1.87031 5.18695 0.964061 4.48382 0.710936 3.49632C0.639061 3.2057 0.632811 2.7182 0.701561 2.42758C0.914061 1.51508 1.73906 0.796329 2.66406 0.711955C2.93906 0.686955 3.27968 0.718205 3.51718 0.786955Z" fill="#016DEA"/>
<path d="M2.70547 1.14913C2.57109 1.22725 2.55859 1.31788 2.55859 2.19912C2.55859 3.08662 2.56172 3.10225 2.71484 3.24287C2.74297 3.26787 2.87109 3.38975 3.00234 3.51162C3.20859 3.71162 3.25547 3.73975 3.35547 3.73975C3.44609 3.73975 3.49609 3.71475 3.57734 3.6335C3.76172 3.44912 3.72109 3.28662 3.40547 2.97412L3.21484 2.78975V2.04287V1.296L3.12422 1.20538C3.04922 1.1335 3.00547 1.11475 2.89609 1.11475C2.82109 1.11475 2.73672 1.13038 2.70547 1.14913Z" fill="#016DEA"/>
<path d="M9.83358 4.33664C9.3617 4.38977 8.9617 4.58664 8.60233 4.94289C8.33045 5.21477 8.14295 5.52727 8.04295 5.88039C7.97108 6.12726 7.93983 7.55226 7.99608 7.93664C8.06795 8.42101 8.28983 8.84913 8.6492 9.18976C8.75545 9.28976 8.83983 9.37726 8.83358 9.38038C8.82733 9.38351 8.52108 9.45538 8.15233 9.53351C7.78358 9.61476 7.45545 9.68663 7.42733 9.69601C7.37421 9.71163 7.37108 9.63351 7.37108 8.35539V6.99914L7.28983 6.91476L7.20546 6.83351H5.99608H4.78671L4.70233 6.91476C4.58671 7.03351 4.58671 7.25851 4.70233 7.37726L4.78671 7.45851H5.76483H6.74608V9.64601V11.8335H5.68358H4.62109V10.9335C4.62109 10.0585 4.61796 10.0335 4.54609 9.88038C4.43984 9.65226 4.33046 9.53663 4.11484 9.43038C3.95234 9.34601 3.88984 9.33351 3.68671 9.33351C3.28984 9.33351 3.00859 9.50226 2.84296 9.83976L2.74609 10.0304V10.9335V11.8335H1.68359H0.621093V9.64601V7.45851H1.60234H2.58046L2.66484 7.37726C2.78046 7.25851 2.78046 7.03351 2.66484 6.91476L2.58046 6.83351H1.37109H0.161718L0.0773436 6.91476L-0.00390625 6.99914V9.64601V12.2929L0.0773436 12.3773L0.161718 12.4585H1.45234H2.74609V12.7554V13.0523H2.62734C2.40859 13.0523 2.21171 13.1429 2.02421 13.3304C1.82422 13.5335 1.74609 13.7179 1.74609 13.996V14.1772H0.952342H0.161718L0.0773436 14.2585L-0.00390625 14.3429V15.1147V15.8866L0.0773436 15.971L0.161718 16.0522H7.99608H15.8304L15.9148 15.971L15.9961 15.8866V13.2398V10.5929L15.9148 10.5085L15.8304 10.4273H14.8148H13.7992L13.6336 10.2429C13.4336 10.021 13.1929 9.85851 12.9273 9.75851C12.8179 9.71788 12.4179 9.61788 12.0367 9.53351L11.3398 9.38351L11.5367 9.19288C11.7648 8.97726 11.8992 8.78976 12.0304 8.50851C12.1898 8.17101 12.2148 7.97101 12.2148 7.03664C12.2148 6.06476 12.1898 5.88977 11.9992 5.50539C11.5898 4.68352 10.7523 4.23039 9.83358 4.33664ZM10.4804 5.02727C10.9492 5.14289 11.4148 5.63039 11.5242 6.11789C11.5398 6.19289 11.5492 6.25852 11.5429 6.26476C11.5367 6.27102 11.3742 6.18351 11.1836 6.07102C10.9898 5.95852 10.7992 5.85539 10.7586 5.84602C10.6304 5.81477 10.5367 5.85852 10.3398 6.04914C9.9742 6.40226 9.56795 6.55226 8.95858 6.55226H8.62108V6.43976C8.62108 6.23977 8.71795 5.90539 8.82733 5.71789C9.18358 5.12414 9.8117 4.86164 10.4804 5.02727ZM11.3961 6.96476L11.5586 7.05851V7.43976C11.5586 7.88351 11.5086 8.11476 11.3617 8.35851C11.0461 8.88038 10.4492 9.17413 9.88045 9.08351C9.30858 8.98976 8.8242 8.55226 8.67733 7.99289C8.6492 7.87414 8.6242 7.66476 8.6242 7.50226L8.62108 7.21789L9.0992 7.19914C9.3867 7.18664 9.6492 7.16164 9.7617 7.13039C10.0336 7.05539 10.3586 6.89601 10.5711 6.73351L10.7586 6.59289L10.9929 6.73039C11.1242 6.80851 11.3054 6.91476 11.3961 6.96476ZM9.96483 9.75538C10.0586 9.76476 10.2273 9.76163 10.3398 9.74601C10.4523 9.73038 10.5461 9.71788 10.5492 9.72101C10.5492 9.72101 10.4492 9.99601 10.3242 10.3304C10.2023 10.6648 10.0898 10.9241 10.0805 10.9054C10.0711 10.8898 9.97733 10.6523 9.8742 10.3773C9.7742 10.1054 9.6742 9.83976 9.65545 9.79288C9.62108 9.70538 9.6242 9.70538 9.70545 9.72101C9.75545 9.73038 9.87108 9.74601 9.96483 9.75538ZM3.86171 10.0366C3.89921 10.0648 3.94609 10.1366 3.96484 10.2023C3.98359 10.2741 3.99609 10.8398 3.99609 11.6835V13.0523H3.68359H3.37109V11.6835C3.37109 10.8398 3.38359 10.2741 3.40234 10.2023C3.44296 10.0585 3.53671 9.98976 3.68359 9.98976C3.74609 9.98976 3.82421 10.0116 3.86171 10.0366ZM9.43358 11.0835L9.8242 12.1304L9.94295 12.1898C10.0461 12.2398 10.0836 12.2429 10.1867 12.2116C10.2555 12.1898 10.3273 12.1429 10.3523 12.1054C10.3773 12.0679 10.5617 11.5929 10.7617 11.0523C10.9648 10.5116 11.1398 10.0585 11.1492 10.0429C11.1742 10.0148 12.5398 10.3116 12.6898 10.3773C12.7836 10.4179 12.7398 10.421 12.1648 10.4241L11.5367 10.4273L11.4523 10.5085L11.3711 10.5929V12.3835V14.1772H9.05858H6.74608V13.3179V12.4585H6.97733C7.18358 12.4585 7.21483 12.4491 7.28983 12.3773L7.37108 12.2929V11.3585V10.4241L7.48045 10.3804C7.60233 10.3273 8.9242 10.0241 8.99608 10.0335C9.02733 10.0366 9.17108 10.3835 9.43358 11.0835ZM15.3711 11.3648V11.6773H13.6836H11.9961V11.3648V11.0523H13.6836H15.3711V11.3648ZM15.3711 12.6148V12.9273H13.6836H11.9961V12.6148V12.3023H13.6836H15.3711V12.6148ZM6.08983 13.3179V14.1772H5.85546H5.62108V13.996C5.62108 13.7179 5.54296 13.5335 5.34296 13.3304C5.15546 13.1429 4.95858 13.0523 4.73983 13.0523H4.62109V12.7554V12.4585H5.35546H6.08983V13.3179ZM15.3711 13.8648V14.1772H13.6836H11.9961V13.8648V13.5523H13.6836H15.3711V13.8648ZM4.74296 13.7179C4.87733 13.7648 4.95858 13.8741 4.98358 14.0429L5.00546 14.1772H3.68359H2.36171L2.38359 14.0429C2.40859 13.8741 2.48984 13.7648 2.62421 13.7179C2.77109 13.6648 4.59609 13.6648 4.74296 13.7179ZM15.3711 15.1147V15.4272H7.99608H0.621093V15.1147V14.8022H7.99608H15.3711V15.1147Z" fill="#016DEA"/>
<path d="M3.45234 6.91475C3.38672 6.98037 3.37109 7.02725 3.37109 7.146C3.37109 7.35225 3.47734 7.4585 3.68359 7.4585C3.88984 7.4585 3.99609 7.35225 3.99609 7.146C3.99609 7.02725 3.98047 6.98037 3.91484 6.91475C3.84922 6.84912 3.80234 6.8335 3.68359 6.8335C3.56484 6.8335 3.51797 6.84912 3.45234 6.91475Z" fill="#016DEA"/>
</g>
<defs>
<clipPath id="clip0_4783_75871">
<rect width="16" height="16" fill="white" transform="translate(0 0.0532227)"/>
</clipPath>
</defs>
</svg>
