<svg width="17" height="17" viewBox="0 0 17 17" fill="none" xmlns="http://www.w3.org/2000/svg">
<g clip-path="url(#clip0_7767_100302)">
<path d="M14.0684 0.424006C12.9465 0.717756 12.1809 1.20838 11.7027 1.93338C11.5465 2.17088 11.5402 2.17713 11.4309 2.16151C11.2809 2.13963 8.93711 1.90526 8.51836 1.86776C7.82461 1.80838 7.24336 1.95838 6.72461 2.32713C6.64023 2.38651 5.29961 3.70526 3.74648 5.25213C1.74023 7.25526 0.883984 8.13026 0.780859 8.28026C0.490234 8.71463 0.365234 9.14588 0.365234 9.70213C0.365234 10.299 0.527734 10.774 0.883984 11.2396C1.03711 11.4365 5.28398 15.6803 5.47774 15.8271C5.64648 15.9553 5.99023 16.124 6.25586 16.2084C6.52773 16.2959 7.13086 16.3271 7.44649 16.274C8.01836 16.174 8.70899 15.7553 8.86836 15.4115C8.97774 15.1771 8.92774 14.8865 8.74648 14.699C8.49648 14.4334 8.12774 14.4365 7.80586 14.7053C7.72149 14.7771 7.57149 14.874 7.46836 14.9209C7.30899 14.9959 7.24961 15.0053 6.97461 15.0053C6.68711 15.0053 6.64648 14.9959 6.44336 14.9021C6.23711 14.8053 6.10898 14.6834 4.04961 12.6209C2.53086 11.1021 1.84961 10.4021 1.80273 10.3053C1.68086 10.0615 1.64336 9.91463 1.64336 9.69276C1.64648 9.45838 1.68398 9.30838 1.79648 9.08338C1.89336 8.89588 7.40899 3.40526 7.61836 3.28963C7.69649 3.24588 7.85274 3.18963 7.96524 3.16151C8.16211 3.11776 8.22774 3.12088 10.6184 3.36463C11.9652 3.50213 13.0715 3.61463 13.0746 3.61463C13.0777 3.61463 13.0871 3.72401 13.0996 3.85526C13.1121 3.98963 13.1277 4.12088 13.134 4.14901C13.1434 4.18651 13.0871 4.21776 12.8746 4.28338C12.5246 4.38963 11.9621 4.50526 11.5871 4.55213C11.4246 4.57088 11.2434 4.60838 11.1871 4.63651C10.984 4.73026 10.834 4.97713 10.834 5.21151C10.834 5.43963 10.9965 5.68651 11.2027 5.78026C11.3277 5.83338 11.3871 5.83963 11.6621 5.82401C11.9965 5.80213 12.6152 5.69276 13.0059 5.58338C13.1371 5.54588 13.2527 5.52088 13.259 5.53026C13.2652 5.53651 13.3371 6.16776 13.4152 6.93026C13.5684 8.42713 13.5746 8.63651 13.459 8.94276C13.3934 9.12088 13.3121 9.20526 11.7215 10.7865C10.2277 12.2678 10.0465 12.4584 10.0027 12.5928C9.86524 13.0021 10.1684 13.4271 10.5934 13.4271C10.9059 13.4271 10.7652 13.549 13.0152 11.3209C13.7371 10.6084 14.3277 9.99588 14.4027 9.88963C14.6809 9.47713 14.834 8.98963 14.834 8.50526C14.834 8.27401 14.5559 5.32088 14.509 5.05213C14.4965 4.98338 14.5184 4.95838 14.6402 4.88026C15.459 4.37088 16.0402 3.60213 16.259 2.73338C16.3309 2.44901 16.3371 2.37401 16.3277 1.88338L16.3184 1.34588L16.2121 1.13338C16.0746 0.849007 15.7996 0.577131 15.5277 0.449006C15.3277 0.352132 15.3027 0.349007 14.8652 0.342756C14.4527 0.333382 14.3809 0.342756 14.0684 0.424006ZM15.0246 1.64901C15.0871 1.71151 15.0902 1.73963 15.0746 2.00213C15.0434 2.50838 14.8434 2.98963 14.5277 3.30838C14.4496 3.39276 14.3746 3.45838 14.3652 3.45838C14.3527 3.45838 14.3309 3.32088 14.3152 3.15213C14.2777 2.78963 14.209 2.63651 14.034 2.51151C13.909 2.42401 13.8059 2.40213 13.2559 2.34276L13.0371 2.31776L13.2465 2.16776C13.5684 1.93651 14.0496 1.73338 14.5246 1.63026C14.8215 1.56776 14.9465 1.57088 15.0246 1.64901Z" fill="#016DEA"/>
<path d="M9.88047 6.14275C9.72734 6.18025 9.60859 6.25837 9.44609 6.424L9.29297 6.58025L9.18047 6.524C8.86172 6.3615 8.38672 6.299 8.03359 6.374C7.67422 6.45212 7.38672 6.61462 7.09297 6.9115C6.49922 7.51462 6.35859 8.27712 6.71172 9.0115C6.81172 9.22087 6.89609 9.33025 7.17734 9.624C7.36484 9.82087 7.53359 10.0177 7.55234 10.0646C7.65859 10.349 7.44297 10.6959 7.13359 10.7302C6.93359 10.7552 6.80234 10.6677 6.37422 10.2302C6.03359 9.88337 5.98984 9.82712 5.98984 9.73025C5.98984 9.65837 6.02109 9.5865 6.08359 9.50525C6.43359 9.06462 6.15547 8.45837 5.59922 8.45837C5.37734 8.45837 5.22422 8.5365 5.06172 8.73025C4.81484 9.024 4.70859 9.324 4.70859 9.7115C4.70859 10.0521 4.78672 10.3177 4.96172 10.5834L5.09297 10.7771L4.94922 10.9209C4.75859 11.1209 4.69922 11.249 4.69922 11.4615C4.70234 11.8271 4.96484 12.0834 5.33359 12.0834C5.52422 12.0834 5.63672 12.0302 5.86797 11.8302L6.04297 11.6802L6.16172 11.7615C6.46797 11.9709 7.02422 12.0709 7.43672 11.9927C8.00859 11.8802 8.53047 11.4271 8.76484 10.8396C8.83672 10.6521 8.84609 10.5896 8.84609 10.2396C8.84609 9.91462 8.83672 9.81775 8.77734 9.66462C8.66797 9.36775 8.52734 9.16462 8.17109 8.7865C7.80547 8.399 7.76172 8.30837 7.83047 8.07712C7.88047 7.91462 8.10234 7.69275 8.26797 7.64275C8.48359 7.58025 8.59297 7.63337 8.92109 7.96775C9.17422 8.22712 9.20859 8.27712 9.20859 8.37087C9.20859 8.44587 9.17734 8.51775 9.11484 8.599C8.94297 8.81462 8.91797 9.03962 9.03359 9.29275C9.13359 9.50212 9.30234 9.62087 9.53984 9.63962C9.88984 9.66775 10.1461 9.474 10.3586 9.02087C10.4555 8.81462 10.4711 8.749 10.4836 8.47087C10.4992 8.12712 10.4555 7.92087 10.3117 7.6365L10.2367 7.48337L10.3961 7.299C10.5836 7.08337 10.6461 6.949 10.6461 6.75525C10.6461 6.58025 10.5898 6.43962 10.4711 6.32087C10.3242 6.174 10.0711 6.099 9.88047 6.14275Z" fill="#016DEA"/>
</g>
<defs>
<clipPath id="clip0_7767_100302">
<rect width="16" height="16" fill="white" transform="translate(0.333984 0.333374)"/>
</clipPath>
</defs>
</svg>
