<svg width="16" height="16" viewBox="0 0 16 16" fill="none" xmlns="http://www.w3.org/2000/svg">
<path d="M12.3998 5.60001C10.4115 5.60001 8.7998 7.21176 8.7998 9.20001C8.7998 11.1883 10.4115 12.8 12.3998 12.8C14.3881 12.8 15.9998 11.1883 15.9998 9.20001C15.9998 7.21172 14.3881 5.60001 12.3998 5.60001ZM12.3998 12C10.8558 12 9.5998 10.744 9.5998 9.20001C9.5998 7.65601 10.8558 6.40001 12.3998 6.40001C13.9438 6.40001 15.1998 7.65601 15.1998 9.20001C15.1998 10.744 13.9438 12 12.3998 12Z" fill="#016DEA"/>
<path d="M14.2222 8.06719C14.0401 7.9456 13.7902 7.99332 13.6676 8.17813L12.4004 10.0789L11.1332 8.17813C11.0097 7.99332 10.7606 7.94532 10.5785 8.06719C10.395 8.18985 10.3449 8.43785 10.4676 8.62185L12.0676 11.0218C12.1417 11.1333 12.2668 11.2 12.4004 11.2C12.534 11.2 12.659 11.1333 12.7332 11.0218L14.3332 8.62185C14.4558 8.43788 14.406 8.18988 14.2222 8.06719Z" fill="#016DEA"/>
<path d="M12.4 4.80001C12.5349 4.80001 12.668 4.80829 12.8 4.82026V4.00001C12.8 3.73254 12.6664 3.48266 12.4437 3.33441L10.0437 1.73441C9.91225 1.64669 9.75784 1.60001 9.6 1.60001H3.2C3.04212 1.60001 2.88772 1.64666 2.75628 1.73441L0.356281 3.33441C0.133594 3.48266 0 3.73254 0 4.00001V13.6C0 14.0419 0.358125 14.4 0.8 14.4H12C12.4419 14.4 12.8 14.0419 12.8 13.6H0.8V4.40001H4.8V9.60001H8V4.40001H12V4.82029C12.132 4.80829 12.2651 4.80001 12.4 4.80001ZM4.8 3.60001H1.4L3.2 2.40001H4.8V3.60001ZM7.2 8.80001H5.6V4.40001H7.2V8.80001ZM7.2 3.60001H5.6V2.40001H7.2V3.60001ZM8 3.60001V2.40001H9.6L11.4 3.60001H8Z" fill="#016DEA"/>
</svg>
