<svg width="24" height="24" viewBox="0 0 24 24" fill="none" xmlns="http://www.w3.org/2000/svg">
<g clip-path="url(#clip0_22_7247)">
<path d="M18.7828 0.782704C18.7453 0.843642 18.5532 1.50927 18.5719 1.51864C18.5813 1.52333 18.8297 1.59833 19.125 1.6827C19.4203 1.76708 19.6782 1.85145 19.6969 1.8702C19.7157 1.88895 15.8485 3.45927 11.0953 5.36239C6.34691 7.2702 2.44691 8.84052 2.42816 8.85458C2.40003 8.87802 2.62972 9.5202 2.69066 9.5952C2.69534 9.59989 6.60003 8.03427 11.3672 6.12177C16.1391 4.20458 20.0438 2.64364 20.0532 2.64833C20.0578 2.65302 19.936 2.88739 19.7813 3.16395C19.6219 3.44052 19.5047 3.69364 19.5188 3.72645C19.5375 3.7827 20.1516 4.14833 20.175 4.11552C20.2032 4.0827 21.2766 2.1702 21.3469 2.02489C21.4407 1.84677 21.4125 1.6452 21.2907 1.5327C21.2203 1.46708 18.9797 0.749892 18.8532 0.749892C18.825 0.749892 18.7922 0.763954 18.7828 0.782704Z" fill="white"/>
<path d="M16.5938 5.71875C16.5 5.8125 16.5 5.87344 16.5 10.2187V14.625H15.1875H13.875V11.5312C13.875 8.49844 13.875 8.4375 13.7813 8.34375C13.6922 8.25469 13.6266 8.25 12 8.25C10.3734 8.25 10.3078 8.25469 10.2188 8.34375C10.125 8.4375 10.125 8.49844 10.125 11.5312V14.625H8.8125H7.5V12.8437C7.5 11.1234 7.49531 11.0578 7.40625 10.9687C7.31719 10.8797 7.25156 10.875 5.625 10.875C3.99844 10.875 3.93281 10.8797 3.84375 10.9687C3.75469 11.0578 3.75 11.1234 3.75 12.8437V14.625H2.25H0.75V15V15.375H12H23.25V15V14.625H21.75H20.25V10.2187C20.25 5.87344 20.25 5.8125 20.1563 5.71875C20.0672 5.62969 20.0016 5.625 18.375 5.625C16.7484 5.625 16.6828 5.62969 16.5938 5.71875ZM19.5 10.5V14.625H18.375H17.25V10.5V6.375H18.375H19.5V10.5ZM13.125 11.8125V14.625H12H10.875V11.8125V9H12H13.125V11.8125ZM6.75 13.125V14.625H5.625H4.5V13.125V11.625H5.625H6.75V13.125Z" fill="white"/>
<path d="M5.625 16.4484C5.625 16.7249 5.60625 16.8421 5.55 16.8937C5.5125 16.9359 5.46094 16.9687 5.4375 16.9687C5.35312 16.9687 5.05312 17.2687 4.96406 17.4421C4.90781 17.5593 4.875 17.7187 4.875 17.9062C4.875 18.1452 4.92187 18.2952 5.18906 18.9468C5.53594 19.7905 5.69062 20.0109 6.02344 20.1374C6.22969 20.2124 6.62344 20.2124 6.87187 20.1327C6.95156 20.1093 7.06406 20.1937 7.49531 20.6296C7.93125 21.0609 8.01562 21.1734 7.99219 21.253C7.9125 21.4968 7.9125 21.8952 7.9875 22.0968C8.11406 22.4296 8.30156 22.5655 9.11719 22.903C9.92344 23.2405 10.2516 23.3109 10.5703 23.203C10.7953 23.128 11.0437 22.9077 11.1609 22.678C11.2125 22.5796 11.2781 22.4999 11.3109 22.4952C11.3391 22.4905 11.6578 22.4905 12.0094 22.4905C12.7219 22.4859 12.7359 22.4905 12.9 22.7859C13.0594 23.0718 13.3125 23.2218 13.6828 23.2405C13.9734 23.2593 14.0391 23.2405 14.6484 22.9921C15.0094 22.8421 15.3797 22.6827 15.4734 22.6359C15.6891 22.528 15.9141 22.2749 15.9844 22.0546C16.0406 21.8859 16.0266 21.4593 15.9609 21.2437C15.9328 21.1593 15.9703 21.0984 16.2 20.8921C16.3547 20.7609 16.5984 20.5265 16.7437 20.3718C16.9687 20.1468 17.0344 20.1046 17.1187 20.1327C17.3391 20.1984 17.7609 20.2124 17.9297 20.1562C18.15 20.0859 18.4031 19.8609 18.5156 19.6452C18.5625 19.5515 18.7219 19.1812 18.8672 18.8202C19.0875 18.2859 19.1391 18.1171 19.1391 17.9015C19.1344 17.4984 18.9187 17.1515 18.5531 16.964C18.3609 16.8655 18.3562 16.8515 18.375 16.4155L18.3844 16.1249H17.9812H17.5781L17.5687 16.3687C17.5359 17.114 17.6906 17.4374 18.1875 17.6952C18.2578 17.7327 18.3281 17.803 18.3375 17.8499C18.3656 17.9437 17.8453 19.2468 17.7375 19.3546C17.6859 19.4109 17.6297 19.4109 17.3531 19.3593C17.0766 19.3077 16.9969 19.3124 16.7766 19.3734C16.5422 19.4437 16.4625 19.5093 15.9094 20.0718C15.3516 20.639 15.2906 20.7187 15.2391 20.9437C15.1875 21.1405 15.1875 21.2484 15.2391 21.4921C15.2906 21.7546 15.2906 21.8109 15.2297 21.8624C15.1359 21.9562 13.8844 22.453 13.7484 22.453C13.6687 22.453 13.6125 22.4062 13.5562 22.3077C13.4203 22.0593 13.2609 21.8905 13.0594 21.7874C12.8812 21.6937 12.7969 21.6843 11.9766 21.6843C11.1187 21.6843 11.0766 21.689 10.8797 21.8015C10.7531 21.8718 10.6125 22.0077 10.5047 22.1718C10.4062 22.3218 10.2937 22.4343 10.2375 22.4437C10.1109 22.4624 8.80781 21.914 8.72812 21.8109C8.69531 21.764 8.68594 21.6984 8.7 21.6562C8.76562 21.5109 8.775 21.0046 8.71875 20.8312C8.65312 20.6296 7.63125 19.5702 7.38281 19.439C7.14844 19.3218 6.90469 19.2984 6.60469 19.3593C6.36562 19.4109 6.31406 19.4109 6.25781 19.3546C6.14531 19.2421 5.62031 17.939 5.64375 17.8359C5.65781 17.7796 5.74687 17.6905 5.84531 17.639C6.27656 17.3952 6.42187 17.1093 6.42187 16.4999V16.078H6.02344H5.625V16.4484Z" fill="white"/>
<path d="M7.875 16.4155C7.875 17.1093 8.24531 18.0702 8.76563 18.7218C9.27188 19.364 10.1203 19.9218 10.9219 20.1421C11.3578 20.2593 12.6422 20.2593 13.0781 20.1421C13.8797 19.9218 14.7281 19.364 15.2344 18.7218C15.7547 18.0702 16.125 17.1093 16.125 16.4155V16.1249H15.7313H15.3422L15.3188 16.4624C15.2344 17.6905 14.2828 18.8812 13.0547 19.289C11.3156 19.8702 9.42188 18.9233 8.83125 17.1796C8.76094 16.9733 8.69531 16.6499 8.68125 16.4624L8.65781 16.1249H8.26875H7.875V16.4155Z" fill="white"/>
</g>
<defs>
<clipPath id="clip0_22_7247">
<rect width="24" height="24" fill="white"/>
</clipPath>
</defs>
</svg>
