<svg width="24" height="24" viewBox="0 0 24 24" fill="none" xmlns="http://www.w3.org/2000/svg">
<path d="M6.85316 2.60156C6.71722 2.63906 6.53909 2.70469 6.45941 2.74687C6.18284 2.8875 5.83128 3.27187 5.69066 3.57656C5.55941 3.85312 5.55472 3.90469 5.54066 4.64531L5.52659 5.42812L4.01722 5.44687C2.53597 5.46562 2.50316 5.47031 2.16566 5.5875C1.72034 5.74687 1.41097 5.94844 1.11097 6.28594C0.829719 6.59062 0.637532 6.94219 0.539094 7.31719C0.454719 7.62187 0.435969 10.5891 0.515657 10.7344C0.539094 10.7812 0.623469 10.8328 0.703157 10.8516L0.843782 10.8844V14.1984C0.843782 17.0906 0.853157 17.5453 0.918782 17.7703C1.07347 18.3047 1.46722 18.7266 2.00159 18.9469L2.27347 19.0547H7.56097H12.8532L12.9422 18.9422C13.0641 18.7922 13.0547 18.6 12.9235 18.4781L12.8157 18.375H7.65472C2.10003 18.375 2.31097 18.3844 1.96409 18.1359C1.88909 18.0844 1.76253 17.9297 1.68753 17.7984L1.54691 17.5547V14.3531C1.54691 12.5953 1.56097 11.1562 1.57972 11.1562C1.60316 11.1562 3.12191 11.6578 4.95472 12.2672L8.29691 13.3828V14.0531C8.29691 14.8266 8.34378 14.9812 8.62034 15.15C8.77972 15.2531 8.83597 15.2578 9.70316 15.2578C10.7625 15.2578 10.8657 15.2297 11.0532 14.8594C11.1469 14.6766 11.1563 14.5828 11.1563 14.0156V13.3828L11.9907 13.1062C12.4453 12.9562 12.8672 12.7875 12.9282 12.7359C13.0782 12.5953 13.0547 12.3469 12.8766 12.2156L12.7453 12.1219L11.9578 12.3844L11.1703 12.6422L11.1422 12.3937C11.1282 12.2531 11.0719 12.0656 11.0203 11.9812C10.8469 11.7047 10.7157 11.6719 9.69378 11.6719C8.87816 11.6719 8.77503 11.6812 8.63909 11.7656C8.42347 11.8969 8.32503 12.075 8.29691 12.3797L8.27347 12.6422L4.71097 11.4656L1.14847 10.2844V8.925V7.56562L1.32659 7.20937C1.58909 6.67031 2.02972 6.31875 2.58753 6.1875C2.71409 6.15937 5.32034 6.14062 9.73128 6.14062C16.5657 6.14062 16.6828 6.14062 16.9828 6.23437C17.7141 6.45937 18.2016 7.07344 18.2766 7.86094C18.3047 8.15156 18.3282 8.23125 18.4172 8.30156C18.5672 8.42344 18.7594 8.41406 18.8907 8.27344C18.9891 8.17031 18.9938 8.12812 18.9703 7.81875C18.8907 6.74062 18.2016 5.88281 17.1563 5.55C16.9407 5.48437 16.6547 5.46562 15.4125 5.44687L13.9219 5.42812V4.85156C13.9219 4.5375 13.8985 4.16719 13.875 4.03125C13.7625 3.42656 13.4063 2.9625 12.8532 2.70469L12.5391 2.55469L9.82034 2.54531C7.57972 2.53594 7.05941 2.54531 6.85316 2.60156ZM12.6844 3.39844C12.825 3.4875 12.9657 3.62812 13.0547 3.76875C13.1907 3.99375 13.1953 4.0125 13.2094 4.72031L13.2282 5.4375H12.8532H12.4782L12.4594 4.8C12.4453 4.19531 12.4407 4.15781 12.3328 4.07344C12.2297 3.98906 12.1125 3.98437 9.72659 3.98437C7.27503 3.98437 7.22816 3.98437 7.10628 4.08281C6.98441 4.17656 6.98441 4.18594 6.98441 4.80937V5.4375H6.58597H6.18753V4.86094C6.18753 4.17187 6.26253 3.87187 6.49691 3.60937C6.58597 3.51094 6.75003 3.38437 6.85784 3.33281C7.05003 3.23437 7.09691 3.23437 9.75472 3.24375L12.4547 3.25781L12.6844 3.39844ZM11.7657 5.0625V5.4375H9.70316H7.64066V5.0625V4.6875H9.70316H11.7657V5.0625ZM10.4532 13.4531V14.5781H9.70316H8.95316V13.4859C8.95316 12.8812 8.96722 12.375 8.98597 12.3609C9.00003 12.3422 9.33753 12.3281 9.73597 12.3281H10.4532V13.4531Z" fill="white"/>
<path d="M9.44446 13.1953C9.20071 13.4344 9.36477 13.8281 9.70696 13.8281C9.82883 13.8281 9.92258 13.7953 9.98352 13.7344C10.0445 13.6734 10.0773 13.5797 10.0773 13.4578C10.0773 13.1156 9.68352 12.9516 9.44446 13.1953Z" fill="white"/>
<path d="M14.0297 8.91094C13.8047 9.01875 13.6125 9.225 13.5141 9.45469C13.4625 9.58125 13.4531 10.6031 13.4531 15.1359V20.6625L13.5844 20.9109C13.6781 21.0938 13.7766 21.2016 13.9453 21.3047L14.1703 21.4453H18.4875H22.8047L23.0297 21.3141C23.1516 21.2437 23.3109 21.0938 23.3813 20.9906L23.5078 20.7937L23.5219 16.3641L23.5312 11.9297L21.975 10.3734L20.4141 8.8125H17.3203C14.2688 8.8125 14.2219 8.8125 14.0297 8.91094ZM19.9219 10.5703C19.9219 11.7703 19.9313 11.8219 20.1984 12.1078C20.4703 12.4031 20.5594 12.4219 21.7734 12.4219H22.875V16.4344C22.875 20.5641 22.875 20.5641 22.6922 20.7047C22.6359 20.7516 21.6609 20.7609 18.4828 20.7656H14.3531L14.2313 20.6203L14.1094 20.475L14.1188 15.0844L14.1328 9.69375L14.2641 9.58125L14.3953 9.46875H17.1609H19.9219V10.5703ZM21.4922 10.875L22.3828 11.7656H21.6188H20.85L20.7141 11.6297L20.5781 11.4937V10.7391C20.5781 10.3219 20.5828 9.98438 20.5922 9.98438C20.5969 9.98438 21.0047 10.3828 21.4922 10.875Z" fill="white"/>
<path d="M15.4319 10.65C15.2444 10.7437 15.2163 11.0719 15.3851 11.2125C15.4694 11.2875 15.6241 11.2969 17.0491 11.2969H18.6148L18.7273 11.1797C18.8679 11.0437 18.8773 10.8797 18.7554 10.7297L18.6663 10.6172L17.1007 10.6078C16.0319 10.6031 15.5069 10.6125 15.4319 10.65Z" fill="white"/>
<path d="M15.3853 12.361C15.2728 12.4547 15.2493 12.5766 15.2962 12.7594C15.3525 12.9703 15.5212 12.9938 17.1712 12.975L18.6665 12.961L18.7556 12.8485C18.8728 12.7078 18.8681 12.5578 18.7462 12.4032L18.6525 12.2813H17.0634C15.6243 12.2813 15.4697 12.2907 15.3853 12.361Z" fill="white"/>
<path d="M15.352 14.0625C15.3051 14.1141 15.2676 14.2219 15.2676 14.2969C15.2676 14.3719 15.3051 14.4797 15.352 14.5312C15.4363 14.625 15.4879 14.625 18.4785 14.625C21.4551 14.625 21.516 14.625 21.6098 14.5312C21.6613 14.4797 21.7035 14.3766 21.7035 14.2969C21.7035 14.2172 21.6613 14.1141 21.6098 14.0625C21.516 13.9688 21.4551 13.9688 18.4785 13.9688C15.4879 13.9688 15.4363 13.9688 15.352 14.0625Z" fill="white"/>
<path d="M15.4366 15.6562C15.2491 15.7312 15.2163 16.0875 15.3851 16.2281C15.4741 16.3078 15.6898 16.3125 18.4694 16.3125C21.4226 16.3125 21.4601 16.3125 21.5819 16.2141C21.7507 16.0828 21.7507 15.8391 21.5819 15.7078C21.4601 15.6094 21.4226 15.6094 18.4976 15.6141C16.871 15.6141 15.4929 15.6328 15.4366 15.6562Z" fill="white"/>
<path d="M15.3794 17.3812C15.2481 17.4844 15.2341 17.7328 15.3513 17.8594C15.4356 17.9531 15.4966 17.9531 18.4966 17.9531H21.5575L21.6278 17.85C21.7309 17.7047 21.7216 17.5031 21.6091 17.3906C21.5153 17.2969 21.4544 17.2969 18.4966 17.2969C15.6888 17.2969 15.4731 17.3016 15.3794 17.3812Z" fill="white"/>
<path d="M15.3522 19.0781C15.249 19.1953 15.249 19.4344 15.3568 19.5516C15.4318 19.6359 15.549 19.6406 18.4787 19.6406C21.4553 19.6406 21.5162 19.6406 21.61 19.5469C21.7225 19.4344 21.7318 19.2328 21.6287 19.0875L21.5584 18.9844H18.4975C15.4975 18.9844 15.4365 18.9844 15.3522 19.0781Z" fill="white"/>
</svg>
