<svg width="16" height="16" viewBox="0 0 16 16" fill="none" xmlns="http://www.w3.org/2000/svg">
<g clip-path="url(#clip0_5044_397975)">
<path d="M10.1906 13.2875C10.3688 13.1688 15.9062 8.58751 15.9531 8.52188C15.9781 8.48438 16 8.39376 16 8.31876C16 8.20626 15.9812 8.16563 15.8813 8.06563C15.7906 7.96876 10.5469 3.64376 10.2062 3.38126C10.1062 3.30626 9.95312 3.29063 9.82812 3.35001C9.66875 3.42188 9.60625 3.67501 9.70625 3.83751C9.73438 3.88438 10.9625 4.91251 12.4344 6.12501L15.1125 8.33126L12.4344 10.5313C10.9625 11.7438 9.73438 12.7719 9.70625 12.8188C9.64687 12.9156 9.64062 13.0594 9.69375 13.1719C9.76562 13.3344 10.0312 13.3969 10.1906 13.2875Z" fill="#016DEA"/>
<path d="M7.80976 13.3219C7.83164 13.3125 9.13789 12.2437 10.716 10.9469C12.4723 9.50311 13.6004 8.55311 13.6316 8.49061C13.7035 8.36561 13.7035 8.25623 13.6316 8.14998C13.5754 8.06248 7.89102 3.36873 7.79727 3.33123C7.65351 3.27811 7.44102 3.34998 7.36914 3.47811C7.33789 3.52811 7.32539 3.86561 7.31289 4.81248L7.29727 6.07811L6.95352 6.15311C6.65039 6.21873 6.52539 6.22811 5.89102 6.23123C5.10351 6.23436 4.81602 6.19998 4.26289 6.03123C3.36601 5.75623 2.68476 5.34061 1.98164 4.64061C1.52539 4.18748 1.16289 3.71873 0.86914 3.20623C0.759765 3.01873 0.625389 2.81561 0.569139 2.75623C0.472264 2.65311 0.459764 2.64998 0.30664 2.66248C0.178514 2.67498 0.128514 2.69686 0.0691395 2.76873L-0.00898552 2.85623L0.00976467 3.48436C0.0691395 5.56561 0.74414 7.29998 1.97226 8.53123C2.86601 9.42811 4.01914 10.0594 5.39414 10.4031C5.83789 10.5156 6.40664 10.6125 6.78164 10.6406C6.92851 10.65 7.10664 10.6656 7.17851 10.675L7.31289 10.6906V11.8625C7.31289 13.15 7.31914 13.2031 7.49726 13.2937C7.59101 13.3437 7.72539 13.3562 7.80976 13.3219ZM7.92539 10.0969C7.84102 10.0062 7.68476 9.96873 7.35977 9.96873C6.79102 9.96873 5.97226 9.84061 5.28789 9.64373C2.99414 8.98123 1.49726 7.45936 0.941014 5.22186C0.844139 4.84373 0.766014 4.40936 0.787889 4.39061C0.79414 4.38436 0.862889 4.45623 0.937889 4.55311C1.58164 5.37498 2.51602 6.08436 3.49101 6.48123C4.25352 6.79373 4.91914 6.91561 5.89102 6.91561C6.50039 6.91561 6.63164 6.90623 7.03164 6.83436C7.58789 6.73436 7.78789 6.67498 7.89726 6.58123L7.98477 6.50623L8.00039 5.45623L8.01602 4.40936L10.3848 6.35936C11.6879 7.43123 12.7566 8.31561 12.7598 8.32498C12.7629 8.33436 11.6973 9.22186 10.391 10.2969L8.01602 12.25L8.00039 11.2062C7.98477 10.2375 7.98164 10.1594 7.92539 10.0969Z" fill="#016DEA"/>
</g>
<defs>
<clipPath id="clip0_5044_397975">
<rect width="16" height="16" fill="white" transform="matrix(-1 0 0 -1 16 16)"/>
</clipPath>
</defs>
</svg>
