<svg width="24" height="24" viewBox="0 0 24 24" fill="none" xmlns="http://www.w3.org/2000/svg">
<g clip-path="url(#clip0_22_7037)">
<path d="M8.6812 0.356249C4.57495 1.5375 1.34995 4.8375 0.299951 8.925C-0.0937988 10.4437 -0.0937988 13.5562 0.299951 15.0562C0.581201 16.125 1.38745 17.925 2.0437 18.9375C2.24995 19.2562 2.32495 19.6875 2.28745 20.3812C2.2312 21.2812 2.2687 21.4312 2.77495 21.9375C3.2437 22.4062 3.5062 22.5 4.2187 22.5C4.9312 22.5 5.1937 22.4062 5.6437 21.9562C6.07495 21.5062 6.18745 21.2437 6.18745 20.55C6.18745 19.275 5.6062 18.6937 4.19995 18.5625L3.11245 18.4687L2.4187 17.1562C2.02495 16.425 1.57495 15.3375 1.42495 14.7187C1.04995 13.2937 1.04995 10.7062 1.4062 9.3C2.36245 5.625 5.4187 2.53125 9.18745 1.425C10.1062 1.14375 11.9999 1.05 14.1562 1.18125C14.8124 1.21875 15.0562 0.637499 14.5124 0.243749C14.0062 -0.131251 10.1437 -0.0562509 8.6812 0.356249Z" fill="white"/>
<path d="M18.3561 2.0438C17.9249 2.4938 17.8124 2.7563 17.8124 3.45005C17.8124 4.72505 18.3936 5.3063 19.7999 5.43755L20.8874 5.5313L21.5811 6.8438C21.9749 7.5563 22.4249 8.66255 22.5749 9.2813C22.9499 10.7063 22.9499 13.2938 22.5936 14.7001C21.6186 18.4313 18.4311 21.6001 14.6999 22.5938C13.6311 22.875 10.4811 23.0063 10.1249 22.7813C10.0124 22.7063 9.76864 22.725 9.56239 22.7813C9.01864 22.95 9.09364 23.6063 9.67489 23.8125C10.4249 24.1125 13.7811 24.0375 15.0561 23.7C19.2561 22.6125 22.6311 19.2376 23.6999 15.0751C24.0936 13.5563 24.0936 10.4438 23.6999 8.9438C23.4186 7.87505 22.6124 6.07505 21.9561 5.06255C21.7499 4.7438 21.6749 4.31255 21.7124 3.6188C21.7686 2.7188 21.7311 2.5688 21.2249 2.06255C20.7561 1.5938 20.4936 1.50005 19.7811 1.50005C19.0686 1.50005 18.8061 1.5938 18.3561 2.0438Z" fill="white"/>
<path d="M10.0688 3.4875C9.99375 3.5625 9.9375 3.88125 9.9375 4.2C9.9375 4.725 9.84375 4.81875 9.09375 5.08125C8.30625 5.3625 8.25 5.3625 7.95 5.04375C7.44375 4.48125 7.0875 4.6125 5.85 5.86875C4.6125 7.125 4.48125 7.44375 5.04375 7.95C5.3625 8.25 5.3625 8.30625 5.08125 9.09375C4.81875 9.84375 4.725 9.91875 4.125 9.975L3.46875 10.0313V12V13.9688L4.125 14.025C4.725 14.0813 4.81875 14.1563 5.08125 14.9063C5.3625 15.6938 5.3625 15.75 5.04375 16.05C4.48125 16.5563 4.6125 16.9125 5.86875 18.15C7.125 19.3875 7.44375 19.5188 7.95 18.9563C8.25 18.6375 8.30625 18.6375 9.09375 18.9188C9.84375 19.1813 9.91875 19.275 9.975 19.875L10.0313 20.5312H12H13.9688L14.025 19.875C14.0813 19.275 14.1563 19.1813 14.9063 18.9188C15.6938 18.6375 15.75 18.6375 16.05 18.9563C16.5563 19.5188 16.9125 19.3875 18.15 18.1313C19.3875 16.875 19.5188 16.5563 18.9563 16.05C18.6375 15.75 18.6375 15.6938 18.9188 14.9063C19.1813 14.1563 19.275 14.0813 19.875 14.025L20.5313 13.9688V12V10.0313L19.875 9.975C19.275 9.91875 19.1813 9.84375 18.9188 9.09375C18.6375 8.30625 18.6375 8.25 18.9563 7.95C19.5188 7.44375 19.3875 7.0875 18.1313 5.85C16.875 4.6125 16.5563 4.48125 16.05 5.04375C15.75 5.3625 15.6938 5.3625 14.9063 5.08125C14.1563 4.81875 14.0813 4.725 14.025 4.125L13.9688 3.46875L12.075 3.4125C11.0438 3.39375 10.1438 3.4125 10.0688 3.4875ZM12.975 5.08125C13.0313 5.60625 13.125 5.7 13.8375 5.90625C14.2688 6.0375 14.85 6.28125 15.0938 6.45C15.675 6.825 15.9188 6.825 16.35 6.43125C16.6875 6.13125 16.725 6.15 17.2875 6.7125C17.85 7.275 17.8688 7.3125 17.5688 7.65C17.175 8.08125 17.175 8.325 17.55 8.90625C17.7188 9.15 17.9625 9.73125 18.0938 10.1625C18.3 10.875 18.3938 10.9688 18.9188 11.025C19.4813 11.0813 19.5 11.1188 19.5 12C19.5 12.8813 19.4813 12.9188 18.9188 12.975C18.3938 13.0313 18.3 13.125 18.0938 13.8375C17.9625 14.2688 17.7188 14.85 17.55 15.0938C17.175 15.675 17.175 15.9188 17.5688 16.35C17.8688 16.6875 17.85 16.725 17.2875 17.2875C16.725 17.85 16.6875 17.8688 16.35 17.5688C15.9188 17.175 15.675 17.175 15.0938 17.55C14.85 17.7188 14.2688 17.9625 13.8375 18.0938C13.125 18.3 13.0313 18.3938 12.975 18.9188C12.9188 19.4813 12.8813 19.5 12 19.5C11.1188 19.5 11.0813 19.4813 11.025 18.9188C10.9688 18.3938 10.875 18.3 10.1625 18.0938C9.73125 17.9625 9.15 17.7188 8.90625 17.55C8.325 17.175 8.08125 17.175 7.65 17.5688C7.3125 17.8688 7.275 17.85 6.7125 17.2875C6.15 16.725 6.13125 16.6875 6.43125 16.35C6.825 15.9188 6.825 15.675 6.45 15.0938C6.28125 14.85 6.0375 14.2688 5.90625 13.8375C5.7 13.125 5.60625 13.0313 5.08125 12.975C4.51875 12.9188 4.5 12.8813 4.5 12C4.5 11.1188 4.51875 11.0813 5.08125 11.025C5.60625 10.9688 5.7 10.875 5.90625 10.1625C6.0375 9.73125 6.28125 9.15 6.45 8.90625C6.825 8.325 6.825 8.08125 6.43125 7.65C6.13125 7.3125 6.15 7.275 6.7125 6.7125C7.275 6.15 7.3125 6.13125 7.65 6.43125C8.08125 6.825 8.325 6.825 8.90625 6.45C9.15 6.28125 9.73125 6.0375 10.1625 5.90625C10.875 5.7 10.9688 5.60625 11.025 5.08125C11.0813 4.51875 11.1188 4.5 12 4.5C12.8813 4.5 12.9188 4.51875 12.975 5.08125Z" fill="white"/>
<path d="M10.575 8.26875C9.7687 8.49375 8.4937 9.825 8.24995 10.65C7.46245 13.5 9.26245 15.9375 12.1312 15.9375C13.05 15.9375 14.6062 15.1688 15.1125 14.4938C16.3312 12.8438 16.1812 10.5938 14.7562 9.1875C13.725 8.1375 12.1687 7.8 10.575 8.26875ZM13.275 9.54375C14.0812 9.95625 14.8125 11.1188 14.8125 12C14.8125 12.8625 14.1375 13.95 13.3125 14.4188C12.4125 14.925 11.5875 14.925 10.65 14.4C9.29995 13.6313 8.84995 12.0938 9.56245 10.6875C10.2562 9.3375 11.8875 8.83125 13.275 9.54375Z" fill="white"/>
</g>
<defs>
<clipPath id="clip0_22_7037">
<rect width="24" height="24" fill="white"/>
</clipPath>
</defs>
</svg>
