<svg width="16" height="16" viewBox="0 0 16 16" fill="none" xmlns="http://www.w3.org/2000/svg">
<path d="M9.86527 10.175V13.7175C9.86527 13.8182 9.8454 13.9179 9.8068 14.0109C9.7682 14.1038 9.71163 14.1883 9.64033 14.2593C9.56903 14.3304 9.4844 14.3867 9.39129 14.425C9.29819 14.4633 9.19844 14.4829 9.09777 14.4825H3.79527C3.59238 14.4825 3.3978 14.4019 3.25434 14.2585C3.11087 14.115 3.03027 13.9204 3.03027 13.7175V2.28252C3.03027 2.18206 3.05006 2.08258 3.08851 1.98977C3.12695 1.89695 3.1833 1.81262 3.25434 1.74158C3.3978 1.59812 3.59238 1.51752 3.79527 1.51752H9.09777C9.19844 1.51719 9.29819 1.53674 9.39129 1.57503C9.4844 1.61333 9.56903 1.66963 9.64033 1.7407C9.71163 1.81177 9.7682 1.89621 9.8068 1.98919C9.8454 2.08217 9.86527 2.18185 9.86527 2.28252V5.00002" stroke="#016DEA" stroke-width="0.75"/>
<path d="M5.19727 2.58502H6.71977" stroke="#016DEA" stroke-width="0.75" stroke-linecap="round"/>
<path d="M6.06738 13.3675H6.82738" stroke="#016DEA" stroke-width="0.75" stroke-linecap="round"/>
<path d="M7.66504 2.58502H7.69504" stroke="#016DEA" stroke-width="0.75" stroke-linecap="round"/>
<path d="M3.03027 12.34H9.86527" stroke="#016DEA" stroke-width="0.75"/>
<path d="M3.03027 3.6875H9.86527" stroke="#016DEA" stroke-width="0.75"/>
<path d="M6.21984 5.00002H12.4348C12.5767 5.00002 12.7128 5.05638 12.8131 5.15671C12.9135 5.25705 12.9698 5.39313 12.9698 5.53502V9.64002C12.9698 9.78191 12.9135 9.91799 12.8131 10.0183C12.7128 10.1187 12.5767 10.175 12.4348 10.175H5.99984C5.85795 10.175 5.72187 10.1187 5.62154 10.0183C5.52121 9.91799 5.46484 9.78191 5.46484 9.64002V5.75002C5.46484 5.6511 5.48441 5.55317 5.52241 5.46184C5.56041 5.37052 5.6161 5.28762 5.68628 5.21791C5.75645 5.1482 5.83972 5.09306 5.9313 5.05567C6.02287 5.01827 6.12093 4.99936 6.21984 5.00002Z" stroke="#016DEA" stroke-width="0.75"/>
<path d="M5.46973 6.10748H12.9697" stroke="#016DEA" stroke-width="0.75"/>
<path d="M5.46973 7.065H12.9697" stroke="#016DEA" stroke-width="0.75"/>
<path d="M11.5373 8.16748C11.4079 8.1682 11.2824 8.21122 11.1798 8.28998C11.1063 8.23374 11.0205 8.19581 10.9295 8.17932C10.8385 8.16282 10.7449 8.16824 10.6563 8.19513C10.5678 8.22202 10.487 8.26961 10.4205 8.33394C10.3541 8.39828 10.3039 8.47753 10.2741 8.56511C10.2444 8.6527 10.2359 8.74612 10.2494 8.83763C10.2629 8.92915 10.2981 9.01612 10.3519 9.09136C10.4057 9.1666 10.4767 9.22794 10.5589 9.27031C10.6411 9.31267 10.7323 9.33484 10.8248 9.33498C10.9539 9.33491 11.0791 9.29082 11.1798 9.20998C11.253 9.26686 11.3387 9.30544 11.4299 9.32251C11.521 9.33959 11.6149 9.33467 11.7037 9.30816C11.7925 9.28165 11.8738 9.23432 11.9406 9.1701C12.0075 9.10588 12.0581 9.02663 12.0881 8.93893C12.1182 8.85124 12.1269 8.75763 12.1135 8.66589C12.1002 8.57415 12.0651 8.48693 12.0112 8.41148C11.9573 8.33603 11.8862 8.27453 11.8038 8.23209C11.7214 8.18965 11.63 8.1675 11.5373 8.16748Z" stroke="#016DEA" stroke-width="0.75"/>
</svg>
