<svg width="20" height="20" viewBox="0 0 20 20" fill="none" xmlns="http://www.w3.org/2000/svg">
<g clip-path="url(#clip0_6857_199550)">
<g clip-path="url(#clip1_6857_199550)">
<path d="M0 14.8274C0.111407 14.5562 0.32054 14.4228 0.602477 14.3666C1.75906 14.1331 2.66497 13.4871 3.38277 12.5797C3.7077 12.1693 3.98231 11.7144 4.24422 11.2604C4.57453 10.6873 4.46263 10.3946 3.84696 10.1366C3.50492 9.99391 3.14871 9.88934 2.81352 9.73542C2.60635 9.64041 2.41632 9.51179 2.25111 9.35478C1.84017 8.96388 1.912 8.39952 2.40063 8.1039C2.7842 7.87229 3.18243 7.81561 3.609 8.01057C3.91097 8.14885 4.22907 8.24316 4.58626 8.1298C4.56231 7.77603 4.53739 7.42715 4.51687 7.07778C4.46801 6.18701 4.42647 5.29576 4.60629 4.41281C4.78024 3.55918 5.21316 2.83747 5.78535 2.20177C6.75674 1.12337 7.99883 0.592721 9.43051 0.478383C10.6003 0.384566 11.73 0.53262 12.7869 1.07109C14.0461 1.71314 14.9237 2.71043 15.3659 4.04341C15.5339 4.55109 15.5662 5.11839 15.5784 5.65979C15.596 6.44159 15.5457 7.22339 15.5076 8.00178C15.4993 8.17231 15.5696 8.20798 15.6937 8.17768C15.9462 8.12038 16.1949 8.0476 16.4384 7.95975C16.6041 7.89261 16.7818 7.86029 16.9606 7.86483C17.1393 7.86937 17.3151 7.91067 17.4772 7.98614C18.1178 8.27101 18.2365 8.92772 17.7215 9.40023C17.4083 9.68754 17.0228 9.83999 16.628 9.98169C16.377 10.0684 16.1335 10.1754 15.8999 10.3017C15.6302 10.4483 15.5437 10.6628 15.6678 10.9462C15.852 11.366 16.048 11.7881 16.2957 12.1727C16.8625 13.0522 17.5964 13.7661 18.5781 14.1761C18.8874 14.3056 19.2187 14.3857 19.5446 14.4692C19.9472 14.5748 20.1207 14.9769 19.9067 15.3366C19.72 15.6503 19.4254 15.8398 19.0956 15.9439C18.5957 16.1013 18.0826 16.218 17.572 16.3392C17.4455 16.3695 17.3609 16.3959 17.337 16.5444C17.3052 16.7423 17.2441 16.9353 17.1972 17.1308C17.1122 17.4831 16.9041 17.6561 16.5391 17.6292C16.242 17.6067 15.9483 17.5256 15.6512 17.5124C15.2553 17.4971 14.8588 17.5018 14.4634 17.5266C14.1243 17.5456 13.8281 17.7005 13.5452 17.8823C12.9486 18.2708 12.3623 18.6656 11.6665 18.861C10.5475 19.1762 9.41878 19.2485 8.3052 18.8767C7.87032 18.7301 7.48235 18.4418 7.07874 18.2082C6.83443 18.0685 6.61748 17.8867 6.36828 17.7641C5.66466 17.4171 4.92292 17.3732 4.16164 17.5344C3.93386 17.5856 3.70231 17.6183 3.46925 17.6321C3.1707 17.6453 2.96694 17.4743 2.89218 17.1821C2.83599 16.9617 2.78078 16.7423 2.74071 16.5176C2.71579 16.3793 2.64298 16.3343 2.51301 16.304C2.00777 16.1863 1.50155 16.0685 1.00511 15.921C0.565342 15.789 0.189587 15.5486 0 15.0971V14.8274ZM3.60167 16.9774C3.77416 16.9417 3.92563 16.9075 4.07808 16.8796C4.81591 16.7375 5.56204 16.6964 6.27691 16.9451C6.67416 17.0834 7.03721 17.336 7.39684 17.5632C7.85175 17.854 8.28028 18.2009 8.82119 18.3108C10.1727 18.585 11.4549 18.4574 12.6208 17.6341C12.995 17.3697 13.3942 17.1166 13.8184 16.9529C14.4482 16.7086 15.1215 16.7453 15.7846 16.8381C15.9649 16.8635 16.1442 16.8967 16.3221 16.9329C16.4623 16.9612 16.5347 16.9222 16.564 16.7707C16.605 16.5606 16.6734 16.3568 16.7267 16.1491C16.7985 15.8696 16.9808 15.7397 17.2642 15.6864C17.7162 15.6009 18.1652 15.4939 18.6094 15.3727C18.8165 15.3165 19.0091 15.2071 19.2079 15.1216C19.0149 15.0238 18.8332 14.9823 18.6592 14.9183C16.8449 14.2494 15.7113 12.911 15.0101 11.1632C14.8 10.6394 14.9344 10.1615 15.3927 9.82826C15.6659 9.62988 15.9967 9.50821 16.3074 9.36456C16.5664 9.24484 16.842 9.15982 17.0932 9.02692C17.2106 8.95889 17.2996 8.85081 17.3438 8.7225C17.3717 8.62966 17.0477 8.48698 16.8835 8.51093C16.8132 8.52319 16.7441 8.54133 16.6768 8.56516C16.541 8.61012 16.4081 8.66289 16.2723 8.70638C15.984 8.80068 15.6937 8.84906 15.3927 8.7699C14.9285 8.64872 14.8064 8.4733 14.8235 8.01155C14.8572 7.10075 14.8846 6.18995 14.8943 5.27866C14.9031 4.06784 14.3656 3.10817 13.4861 2.32686C12.5973 1.53675 11.534 1.18933 10.3589 1.13852C9.26291 1.08966 8.20894 1.25041 7.27322 1.85338C5.99106 2.67965 5.21609 3.8333 5.20046 5.3969C5.19117 6.30722 5.24932 7.21851 5.28548 8.12882C5.29867 8.47086 5.23955 8.60425 4.91901 8.72934C4.75621 8.79229 4.58494 8.83066 4.41084 8.84319C4.04632 8.86958 3.71015 8.74547 3.37055 8.62575C3.21279 8.57834 3.04457 8.57834 2.88681 8.62575C2.67084 8.68781 2.6508 8.83342 2.83795 8.94874C3.07797 9.08833 3.32764 9.21063 3.58506 9.31472C3.86993 9.43785 4.18021 9.51017 4.44944 9.66164C5.10567 10.0281 5.31773 10.5944 5.01869 11.2834C4.38836 12.738 3.42039 13.9107 1.97503 14.632C1.62029 14.8084 1.23476 14.9251 0.858029 15.0683C0.878437 15.0862 0.90016 15.1025 0.923017 15.1172C0.979209 15.1499 1.0354 15.1822 1.09404 15.21C1.60478 15.4405 2.15074 15.5832 2.70895 15.6322C3.15262 15.6776 3.35052 15.9151 3.43798 16.3104C3.48684 16.5308 3.54548 16.7487 3.60167 16.9774Z" fill="white"/>
</g>
</g>
<defs>
<clipPath id="clip0_6857_199550">
<rect width="20" height="18.6753" fill="white" transform="translate(0 0.452576)"/>
</clipPath>
<clipPath id="clip1_6857_199550">
<rect width="20" height="18.6753" fill="white" transform="translate(0 0.451843)"/>
</clipPath>
</defs>
</svg>
