<svg width="21" height="21" viewBox="0 0 21 21" fill="none" xmlns="http://www.w3.org/2000/svg">
<path d="M19.1145 6.1402C19.0156 5.74471 18.8139 5.38235 18.5301 5.08971C18.2462 4.79707 17.8902 4.58452 17.4979 4.47354C16.0645 4.12354 10.3312 4.12354 10.3312 4.12354C10.3312 4.12354 4.59787 4.12354 3.16454 4.50687C2.77224 4.61786 2.41619 4.8304 2.13233 5.12304C1.84847 5.41568 1.64686 5.77804 1.54787 6.17354C1.28555 7.62817 1.15724 9.10379 1.16454 10.5819C1.15519 12.0711 1.28351 13.558 1.54787 15.0235C1.657 15.4067 1.86313 15.7553 2.14633 16.0356C2.42952 16.3159 2.78022 16.5184 3.16454 16.6235C4.59787 17.0069 10.3312 17.0069 10.3312 17.0069C10.3312 17.0069 16.0645 17.0069 17.4979 16.6235C17.8902 16.5125 18.2462 16.3 18.5301 16.0074C18.8139 15.7147 19.0156 15.3524 19.1145 14.9569C19.3748 13.5132 19.5031 12.0488 19.4979 10.5819C19.5072 9.09266 19.3789 7.60578 19.1145 6.1402Z" fill="white"/>
<path d="M8.45703 13.3069L13.2487 10.5819L8.45703 7.85687V13.3069Z" fill="#016DEA" stroke="#016DEA" stroke-width="2" stroke-linecap="round" stroke-linejoin="round"/>
</svg>
