<svg width="21" height="21" viewBox="0 0 21 21" fill="none" xmlns="http://www.w3.org/2000/svg">
<path d="M10.498 0.78186C4.97541 0.78186 0.498047 5.25918 0.498047 10.7818C0.498047 15.0204 3.13179 18.6418 6.85196 20.0986C6.76142 19.3084 6.68735 18.0903 6.88488 17.2262C7.06595 16.4443 8.0536 12.255 8.0536 12.255C8.0536 12.255 7.75731 11.6542 7.75731 10.7735C7.75731 9.3826 8.56389 8.34558 9.568 8.34558C10.424 8.34558 10.8355 8.98755 10.8355 9.75297C10.8355 10.6089 10.2923 11.8929 10.0042 13.0863C9.76554 14.0821 10.5063 14.897 11.4857 14.897C13.2635 14.897 14.6297 13.0204 14.6297 10.3209C14.6297 7.92583 12.9096 6.25506 10.4487 6.25506C7.60093 6.25506 5.93015 8.38673 5.93015 10.5925C5.93015 11.4484 6.25936 12.3702 6.67089 12.8723C6.75319 12.971 6.76142 13.0616 6.73673 13.1603C6.66266 13.4731 6.48982 14.1562 6.45689 14.2961C6.41574 14.4772 6.30875 14.5184 6.11945 14.4278C4.86842 13.8435 4.08652 12.0246 4.08652 10.5513C4.08652 7.39908 6.37459 4.50199 10.6956 4.50199C14.1606 4.50199 16.8602 6.9711 16.8602 10.2797C16.8602 13.7282 14.6873 16.5019 11.675 16.5019C10.6627 16.5019 9.70792 15.9751 9.38694 15.3496C9.38694 15.3496 8.88488 17.2591 8.76142 17.7282C8.5392 18.6006 7.93015 19.687 7.51862 20.3537C8.45689 20.6418 9.44455 20.7981 10.4816 20.7981C16.0042 20.7981 20.4816 16.3208 20.4816 10.7982C20.498 5.25918 16.0207 0.78186 10.498 0.78186Z" fill="white"/>
</svg>
