<svg width="24" height="24" viewBox="0 0 24 24" fill="none" xmlns="http://www.w3.org/2000/svg">
<g clip-path="url(#clip0_22_7600)">
<path d="M9.90465 0.0703993C9.64215 0.150087 9.27184 0.389149 9.0984 0.590712C8.97653 0.726649 8.92497 0.750087 8.75622 0.750087C8.44684 0.750087 8.00153 0.871962 7.64997 1.05009C6.85309 1.44852 6.30934 2.12821 6.08903 2.99071C6.00934 3.31415 5.99997 3.5204 5.99997 5.49384C5.99997 6.67509 5.98122 7.64071 5.95778 7.64071C5.93903 7.64071 5.81715 7.72977 5.69528 7.83759C4.78122 8.64384 5.36247 10.1251 6.59059 10.1251H6.78278L6.83903 10.411C7.0734 11.5829 7.80934 12.7829 8.75153 13.5048L8.99997 13.697V14.2923V14.8876L8.7234 14.9438C8.29215 15.0329 8.10465 15.2016 7.83278 15.7407L7.60309 16.1954L6.01872 16.6782C5.14215 16.9454 4.29372 17.2266 4.12497 17.3016C3.49684 17.5923 3.04215 18.0751 2.77965 18.7313L2.6484 19.0548L2.63434 21.4313C2.62028 23.7704 2.62028 23.8079 2.71872 23.9063C2.84997 24.0376 3.14059 24.0329 3.26247 23.9017C3.34684 23.8079 3.35153 23.6813 3.37497 21.497L3.3984 19.1954L3.5484 18.8907C3.72184 18.5392 4.0359 18.2017 4.34997 18.0329C4.57028 17.9157 7.53278 16.9876 7.57028 17.0251C7.57965 17.0345 7.8984 18.5063 8.2734 20.297C8.6484 22.0876 8.98122 23.6345 9.00465 23.7282C9.05622 23.9345 9.1734 24.0095 9.40778 23.9907C9.52497 23.9813 9.60465 23.9392 9.67028 23.8501L9.76872 23.7188L9.26247 21.3188C8.9859 19.997 8.74684 18.8767 8.73747 18.8298C8.71872 18.7642 8.75622 18.7782 8.91559 18.8907C9.15465 19.0595 9.48278 19.1298 9.7734 19.0735C10.0312 19.0267 10.1343 18.9751 10.3968 18.7595C10.5047 18.6704 10.6031 18.6048 10.6078 18.6142C10.6172 18.6235 10.6781 18.7173 10.7437 18.8251L10.8656 19.0126L10.6828 21.2626C10.5843 22.4954 10.5 23.5735 10.5 23.6532C10.5 23.8735 10.6547 24.0095 10.8843 23.9907C11.2312 23.9673 11.2265 23.9767 11.3906 21.8907C11.4656 20.8735 11.5453 19.9126 11.5593 19.7579L11.5875 19.4767H12H12.4125L12.4406 19.7579C12.4547 19.9126 12.5343 20.8735 12.614 21.8907C12.7734 23.9767 12.7687 23.9673 13.1156 23.9907C13.3453 24.0095 13.5 23.8735 13.5 23.6532C13.5 23.5735 13.4156 22.4954 13.3172 21.2579L13.1343 19.0126L13.2562 18.8204C13.3265 18.7173 13.3828 18.6235 13.3922 18.6142C13.3968 18.6048 13.4953 18.6751 13.6078 18.7688C13.8843 18.9938 14.1187 19.0876 14.4375 19.0829C14.7375 19.0829 14.9109 19.0267 15.1218 18.8673C15.2437 18.7735 15.2672 18.7688 15.2531 18.8345C15.1547 19.2517 14.25 23.6157 14.25 23.6767C14.25 23.7188 14.2922 23.8079 14.3484 23.8782C14.4703 24.0376 14.7703 24.0517 14.8968 23.9063C14.9531 23.8407 15.1968 22.772 15.689 20.4329C16.0828 18.572 16.4109 17.0391 16.425 17.0251C16.4672 16.9829 19.4109 17.9063 19.65 18.0329C19.964 18.2063 20.2781 18.5392 20.4515 18.8907L20.6015 19.1954L20.625 21.497C20.6484 23.6813 20.6531 23.8079 20.7375 23.9017C20.8593 24.0329 21.15 24.0376 21.2812 23.9063C21.3703 23.8173 21.375 23.7517 21.375 21.5485C21.375 19.1579 21.3656 19.0313 21.1453 18.5438C21.0187 18.2579 20.6625 17.8126 20.4047 17.6157C20.0203 17.3251 19.7672 17.2266 18.0562 16.7063L16.4015 16.1954L16.1625 15.7407C15.8906 15.2016 15.6937 15.0329 15.2718 14.9438L15 14.8876V14.2923V13.697L15.2625 13.5001C15.8437 13.0454 16.4437 12.2954 16.7531 11.6157C16.9172 11.2641 17.1281 10.6079 17.1797 10.3079C17.2031 10.1391 17.2078 10.1391 17.4797 10.111C18.2203 10.0454 18.75 9.51102 18.75 8.83602C18.75 8.67665 18.7265 8.47509 18.6937 8.38602C18.6093 8.12821 18.3843 7.83759 18.1875 7.72509L18.0047 7.61727L17.9906 5.48446C17.9718 3.43134 17.9672 3.33759 17.864 3.00009C17.414 1.50009 16.2187 0.375087 14.7562 0.0750868C14.2687 -0.0280382 10.2187 -0.0327257 9.90465 0.0703993ZM14.1843 0.750087C15.6375 0.904774 16.8187 1.93134 17.1562 3.3329C17.2406 3.69384 17.25 3.88602 17.25 5.61102V7.50009H17.0203C16.8422 7.50009 16.7578 7.47196 16.6547 7.38759L16.5234 7.27509L16.5 6.15477L16.4765 5.03915L16.3218 4.72509C16.125 4.32665 15.7172 3.93759 15.3422 3.79696C14.8828 3.62352 14.6156 3.62821 13.5468 3.8204C12.2765 4.05009 11.714 4.05946 10.5843 3.84852C9.68903 3.68446 9.61872 3.67977 9.48278 3.77352C9.27184 3.92352 9.31403 4.3079 9.55309 4.40165C9.7734 4.48602 11.0156 4.69696 11.5172 4.72977C12.164 4.77665 12.8015 4.72509 13.739 4.55165C14.1656 4.47196 14.5875 4.40634 14.6765 4.40634C15.0234 4.40634 15.5203 4.75321 15.6703 5.10477C15.7031 5.17977 15.7312 5.66259 15.75 6.32821C15.7781 7.52352 15.7875 7.58915 16.0734 7.88915C16.3078 8.14227 16.5187 8.21727 17.1093 8.2454C17.4515 8.26415 17.6859 8.29696 17.7468 8.33915C18.0047 8.5079 18.075 8.89227 17.8968 9.11727C17.7234 9.34227 17.25 9.47352 17.25 9.2954C17.25 9.15946 17.0578 9.00009 16.8937 9.00009C16.6078 9.00009 16.5375 9.11259 16.4906 9.6704C16.4015 10.7485 15.9984 11.672 15.2859 12.436C13.9031 13.9126 11.7703 14.2923 9.97028 13.3782C8.55465 12.661 7.64528 11.2876 7.50465 9.66102C7.46247 9.11259 7.39215 9.00009 7.1109 9.00009C6.94684 9.00009 6.74997 9.15946 6.74997 9.29071C6.74997 9.39852 6.52497 9.4079 6.32809 9.30477C5.9109 9.08915 5.89215 8.56415 6.29528 8.33446C6.35153 8.30165 6.63278 8.26415 6.91403 8.2454C7.47653 8.21727 7.69684 8.14227 7.92653 7.88915C8.20778 7.58915 8.22184 7.52352 8.24997 6.30477C8.2734 5.14227 8.27809 5.10477 8.48903 4.8329C8.62497 4.66415 8.60622 4.38759 8.45622 4.2704C8.19372 4.06415 7.92653 4.21884 7.67809 4.72509L7.5234 5.03446L7.49997 6.15477L7.47653 7.27509L7.34528 7.38759C7.24215 7.47196 7.15778 7.50009 6.97965 7.50009H6.74528L6.75934 5.35321C6.7734 3.22977 6.7734 3.21102 6.88122 2.93915C7.12965 2.32509 7.70622 1.78602 8.3109 1.59852L8.60153 1.50946L8.61559 1.89384C8.62028 2.10009 8.63434 2.3204 8.6484 2.38134C8.68122 2.52665 8.95309 2.63915 9.11247 2.5829C9.30934 2.50321 9.37497 2.3579 9.37497 1.97821C9.37497 1.3079 9.73122 0.853212 10.3359 0.745399C10.6265 0.698524 13.7062 0.698524 14.1843 0.750087ZM10.1062 14.2782C10.7859 14.5313 11.1656 14.597 12 14.597C12.8343 14.597 13.214 14.5313 13.8937 14.2782C14.0718 14.2126 14.2218 14.1563 14.2312 14.1563C14.2406 14.1563 14.25 14.3813 14.25 14.6579V15.1548L14.0625 15.3282C13.8468 15.5251 13.8234 15.6704 13.9734 15.8626C14.1093 16.036 14.3203 16.022 14.7187 15.8157C15.1593 15.5813 15.2484 15.6188 15.5109 16.1251L15.7031 16.4907L15.2015 17.3673C14.7984 18.0798 14.6718 18.2579 14.5593 18.3048C14.4797 18.3376 14.3765 18.3517 14.325 18.3282C14.2734 18.3095 13.875 17.9954 13.4437 17.6251L12.6562 16.9501L12.9047 16.8188C13.3453 16.5798 13.4578 16.3548 13.2609 16.1063C13.1109 15.9141 12.9 15.9423 12.4078 16.2188L11.9953 16.4485L10.875 15.8298L9.75465 15.211L9.74997 14.6813C9.74997 14.3954 9.75934 14.1563 9.76872 14.1563C9.77809 14.1563 9.92809 14.2126 10.1062 14.2782ZM10.1906 16.3173C10.8 16.6548 11.2922 16.9501 11.2875 16.9688C11.2781 16.9876 10.9265 17.3016 10.5 17.6673C9.70309 18.347 9.59997 18.4032 9.37497 18.2813C9.32809 18.2579 9.06559 17.8454 8.79372 17.3673L8.29684 16.5001L8.47965 16.1345C8.66715 15.7595 8.7984 15.6423 8.98122 15.6798C9.03747 15.6938 9.58122 15.9798 10.1906 16.3173ZM12.3797 17.7048C12.7218 17.9954 12.75 18.0376 12.7265 18.1642C12.6703 18.4829 12.3422 18.7501 12 18.7501C11.6484 18.7501 11.2968 18.4595 11.2828 18.1501C11.2734 18.0282 11.3203 17.9673 11.625 17.7001C11.8172 17.5313 11.9812 17.3954 11.9906 17.3907C12 17.3907 12.1734 17.5313 12.3797 17.7048Z" fill="white"/>
<path d="M9.20153 6.60946C8.98591 6.69852 8.92966 7.04071 9.10778 7.20477C9.26247 7.35008 10.0875 7.52821 10.2656 7.45321C10.5187 7.35008 10.5656 6.96571 10.3453 6.82508C10.289 6.78758 10.0406 6.71258 9.79685 6.66102C9.29997 6.55321 9.34216 6.55321 9.20153 6.60946Z" fill="white"/>
<path d="M14.1187 6.67044C13.7906 6.75013 13.6547 6.80169 13.5891 6.88607C13.4297 7.08294 13.4953 7.37357 13.7203 7.45794C13.8141 7.49076 13.9687 7.47669 14.3297 7.40169C14.7234 7.31732 14.8312 7.27513 14.9062 7.18138C15.0656 6.97982 15.0234 6.74076 14.8078 6.63294C14.6484 6.54857 14.6578 6.54857 14.1187 6.67044Z" fill="white"/>
<path d="M9.47812 7.98292C9.39375 8.07667 9.375 8.14698 9.375 8.43292C9.375 8.73292 9.38906 8.78448 9.49687 8.8923C9.59531 8.99073 9.64687 9.0048 9.7875 8.98605C10.0453 8.94386 10.0969 8.85948 10.1156 8.46105C10.1344 8.1423 10.125 8.1048 10.0172 7.99698C9.85781 7.83761 9.61875 7.83292 9.47812 7.98292Z" fill="white"/>
<path d="M13.9922 7.99219C13.8891 8.09062 13.875 8.14687 13.875 8.4375C13.875 8.72812 13.8891 8.78437 13.9922 8.88281C14.0625 8.95781 14.1609 9 14.25 9C14.3391 9 14.4375 8.95781 14.5078 8.88281C14.6109 8.78437 14.625 8.72812 14.625 8.4375C14.625 8.14687 14.6109 8.09062 14.5078 7.99219C14.4375 7.91719 14.3391 7.875 14.25 7.875C14.1609 7.875 14.0625 7.91719 13.9922 7.99219Z" fill="white"/>
<path d="M10.2188 10.7344C10.125 10.8281 10.0969 11.0297 10.1531 11.1797C10.1953 11.2875 10.3969 11.3766 10.8609 11.4938C11.8688 11.7422 13.65 11.55 13.8234 11.175C13.8984 11.0063 13.8891 10.9031 13.7766 10.7625C13.6547 10.6078 13.5281 10.6078 13.0172 10.7438C12.4828 10.8891 11.4938 10.8891 10.95 10.7438C10.4906 10.6172 10.3406 10.6125 10.2188 10.7344Z" fill="white"/>
<path d="M5.90158 18.8391C5.83127 18.8906 5.76564 18.9937 5.75158 19.0687C5.72814 19.1719 5.69064 19.2141 5.58752 19.2328C5.16564 19.3172 4.78127 19.8609 4.78127 20.3625C4.78595 20.8594 4.98283 21.15 5.4797 21.3844L5.71408 21.4922L5.71877 22.1812C5.71877 22.7062 5.7047 22.875 5.66252 22.875C5.6297 22.875 5.48908 22.8234 5.35314 22.7578C5.02502 22.6031 4.86095 22.6078 4.73908 22.7625C4.63127 22.8984 4.61252 23.0625 4.68752 23.2078C4.75314 23.3297 5.1422 23.5219 5.47502 23.5969C5.67189 23.6391 5.74689 23.6766 5.76095 23.7469C5.78908 23.9156 5.91095 24 6.1172 24C6.34689 24 6.46877 23.8969 6.46877 23.7047C6.46877 23.6203 6.4922 23.5781 6.53908 23.5781C6.65158 23.5781 6.96095 23.4047 7.14845 23.2406C7.54689 22.8937 7.70158 22.2328 7.50002 21.7594C7.44377 21.6281 7.31252 21.4406 7.20939 21.3469C7.03127 21.1875 6.67033 21 6.53439 21C6.48283 21 6.46877 20.8969 6.46877 20.4844C6.46877 20.1984 6.47814 19.9687 6.4922 19.9687C6.50627 19.9687 6.6047 20.0109 6.71252 20.0672C6.92345 20.175 7.07345 20.1609 7.21877 20.0156C7.45783 19.7766 7.21408 19.3922 6.72658 19.2375C6.52033 19.1719 6.46877 19.1344 6.46877 19.0547C6.46877 18.8156 6.10314 18.6797 5.90158 18.8391Z" fill="white"/>
</g>
<defs>
<clipPath id="clip0_22_7600">
<rect width="24" height="24" fill="white"/>
</clipPath>
</defs>
</svg>
