<svg width="192" height="40" viewBox="0 0 192 40" fill="none" xmlns="http://www.w3.org/2000/svg">
<path d="M25.8417 27.5337C25.8417 28.6878 25.5794 29.7842 25.1054 30.7607L25.0597 30.8543C23.8372 33.292 21.301 34.9762 18.3797 34.9762C15.4512 34.9762 12.9222 33.292 11.6998 30.8543L11.6541 30.7607L0.772696 9.06172C-0.156142 7.20708 1.19621 5.02374 3.27767 5.02374H13.7091C14.7702 5.02374 15.7376 5.62116 16.2116 6.56647L18.3773 10.8852L25.103 24.3067C25.5794 25.2832 25.8417 26.3821 25.8417 27.5337Z" fill="url(#paint0_linear_17_111)"/>
<path d="M33.4873 5.02374C35.5688 5.02374 36.9211 7.20708 35.9899 9.06172L26.7256 27.5337L25.1013 30.7607C25.5778 29.7842 25.8376 28.6854 25.8376 27.5337C25.8376 26.3821 25.5753 25.2832 25.1013 24.3067L18.3781 10.8852L20.5437 6.56647C21.0178 5.62116 21.9875 5.02374 23.0463 5.02374H33.4873Z" fill="url(#paint1_linear_17_111)"/>
<rect x="42.049" width="149.52" height="40" rx="5.7601" fill="url(#paint2_linear_17_111)"/>
<path d="M60.1066 30.45C57.7466 30.45 55.6866 30.02 53.9266 29.16C52.1866 28.28 50.8466 27.02 49.9066 25.38C48.9666 23.72 48.4966 21.77 48.4966 19.53C48.4966 17.27 48.9666 15.32 49.9066 13.68C50.8466 12.04 52.1866 10.78 53.9266 9.9C55.6866 9.02 57.7466 8.58 60.1066 8.58C61.6466 8.58 63.0066 8.71 64.1866 8.97C65.3666 9.23 66.4566 9.65 67.4566 10.23V16.95C66.5966 16.31 65.6166 15.85 64.5166 15.57C63.4366 15.29 62.1766 15.15 60.7366 15.15C59.1766 15.15 57.9466 15.53 57.0466 16.29C56.1666 17.03 55.7266 18.11 55.7266 19.53C55.7266 20.95 56.1766 22.04 57.0766 22.8C57.9766 23.54 59.1966 23.91 60.7366 23.91C62.1366 23.91 63.3966 23.76 64.5166 23.46C65.6366 23.14 66.6966 22.66 67.6966 22.02V28.71C65.6766 29.87 63.1466 30.45 60.1066 30.45ZM80.7325 30.45C78.5925 30.45 76.6525 29.99 74.9125 29.07C73.1925 28.15 71.8325 26.87 70.8325 25.23C69.8325 23.57 69.3325 21.67 69.3325 19.53C69.3325 17.39 69.8325 15.49 70.8325 13.83C71.8325 12.17 73.1925 10.88 74.9125 9.96C76.6525 9.04 78.5925 8.58 80.7325 8.58C82.8525 8.58 84.7725 9.04 86.4925 9.96C88.2325 10.88 89.6025 12.17 90.6025 13.83C91.6025 15.49 92.1025 17.39 92.1025 19.53C92.1025 21.67 91.6025 23.57 90.6025 25.23C89.6025 26.87 88.2325 28.15 86.4925 29.07C84.7725 29.99 82.8525 30.45 80.7325 30.45ZM80.7325 23.76C81.9325 23.76 82.9225 23.38 83.7025 22.62C84.4825 21.86 84.8725 20.83 84.8725 19.53C84.8725 18.23 84.4825 17.2 83.7025 16.44C82.9225 15.68 81.9325 15.3 80.7325 15.3C79.5125 15.3 78.5125 15.68 77.7325 16.44C76.9525 17.2 76.5625 18.23 76.5625 19.53C76.5625 20.83 76.9525 21.86 77.7325 22.62C78.5325 23.38 79.5325 23.76 80.7325 23.76ZM95.1044 9.03H102.214V24.03H110.044V30H95.1044V9.03ZM112.454 9.03H119.564V24.03H127.394V30H112.454V9.03ZM129.364 9.03H144.904V15H136.474V16.83H142.444V22.2H136.474V24.03H144.904V30H129.364V9.03ZM158.485 30.45C156.125 30.45 154.065 30.02 152.305 29.16C150.565 28.28 149.225 27.02 148.285 25.38C147.345 23.72 146.875 21.77 146.875 19.53C146.875 17.27 147.345 15.32 148.285 13.68C149.225 12.04 150.565 10.78 152.305 9.9C154.065 9.02 156.125 8.58 158.485 8.58C160.045 8.58 161.405 8.71 162.565 8.97C163.725 9.23 164.815 9.65 165.835 10.23V16.89C164.975 16.25 163.995 15.79 162.895 15.51C161.815 15.23 160.555 15.09 159.115 15.09C157.575 15.09 156.345 15.48 155.425 16.26C154.525 17.02 154.075 18.11 154.075 19.53C154.075 21.07 154.445 22.24 155.185 23.04C155.925 23.82 157.125 24.21 158.785 24.21C159.385 24.21 159.905 24.13 160.345 23.97V21.99H158.035V17.91H166.585V28.68C164.525 29.86 161.825 30.45 158.485 30.45ZM169.571 9.03H185.111V15H176.681V16.83H182.651V22.2H176.681V24.03H185.111V30H169.571V9.03Z" fill="white"/>
<defs>
<linearGradient id="paint0_linear_17_111" x1="0.474313" y1="19.9999" x2="25.8411" y2="19.9999" gradientUnits="userSpaceOnUse">
<stop stop-color="#FA4001"/>
<stop offset="0.344077" stop-color="#CD0D14"/>
<stop offset="0.689254" stop-color="#A91D1E"/>
<stop offset="1" stop-color="#812924"/>
</linearGradient>
<linearGradient id="paint1_linear_17_111" x1="18.3784" y1="17.893" x2="36.2905" y2="17.893" gradientUnits="userSpaceOnUse">
<stop stop-color="#016DEA"/>
<stop offset="0.334096" stop-color="#005FCD"/>
<stop offset="0.634882" stop-color="#0052B1"/>
<stop offset="1" stop-color="#003B7E"/>
</linearGradient>
<linearGradient id="paint2_linear_17_111" x1="42.0521" y1="20.0012" x2="191.577" y2="20.0012" gradientUnits="userSpaceOnUse">
<stop stop-color="#016DEA"/>
<stop offset="0.334096" stop-color="#005FCD"/>
<stop offset="0.634882" stop-color="#0052B1"/>
<stop offset="1" stop-color="#003B7E"/>
</linearGradient>
</defs>
</svg>
