<svg width="195" height="40" viewBox="0 0 195 40" fill="none" xmlns="http://www.w3.org/2000/svg">
<path d="M25.652 27.5337C25.652 28.6878 25.3897 29.7842 24.9157 30.7607L24.87 30.8543C23.6475 33.292 21.1113 34.9762 18.19 34.9762C15.2615 34.9762 12.7325 33.292 11.5101 30.8543L11.4644 30.7607L0.582999 9.06172C-0.345839 7.20708 1.00651 5.02374 3.08797 5.02374H13.5194C14.5805 5.02374 15.5479 5.62116 16.0219 6.56647L18.1876 10.8852L24.9133 24.3067C25.3897 25.2832 25.652 26.3821 25.652 27.5337Z" fill="url(#paint0_linear_17_177)"/>
<path d="M33.2976 5.02374C35.3791 5.02374 36.7314 7.20708 35.8002 9.06172L26.5359 27.5337L24.9116 30.7607C25.3881 29.7842 25.6479 28.6854 25.6479 27.5337C25.6479 26.3821 25.3856 25.2832 24.9116 24.3067L18.1884 10.8852L20.354 6.56647C20.8281 5.62116 21.7978 5.02374 22.8566 5.02374H33.2976Z" fill="url(#paint1_linear_17_177)"/>
<rect x="41.8593" width="152.52" height="40" rx="5.7601" fill="url(#paint2_linear_17_177)"/>
<path d="M49.0006 9.03H64.5406V15H56.1106V16.83H62.0806V22.2H56.1106V24.03H64.5406V30H49.0006V9.03ZM74.3949 19.41L66.9849 9.03H75.0849L78.4449 13.74L81.8049 9.03H89.9349L82.4949 19.41L90.0849 30H81.9549L78.4449 25.08L74.9349 30H66.8049L74.3949 19.41ZM93.0748 9.03H103.155C105.755 9.03 107.815 9.68 109.335 10.98C110.855 12.28 111.615 14.17 111.615 16.65C111.615 19.13 110.855 21.02 109.335 22.32C107.815 23.62 105.755 24.27 103.155 24.27H100.185V30H93.0748V9.03ZM101.715 18.96C103.535 18.96 104.445 18.19 104.445 16.65C104.445 15.11 103.535 14.34 101.715 14.34H100.185V18.96H101.715ZM114.321 9.03H129.861V15H121.431V16.83H127.401V22.2H121.431V24.03H129.861V30H114.321V9.03ZM132.872 9.03H142.952C145.552 9.03 147.612 9.68 149.132 10.98C150.652 12.28 151.412 14.17 151.412 16.65C151.412 18.21 151.102 19.54 150.482 20.64C149.862 21.72 148.982 22.57 147.842 23.19L151.142 30H143.972L141.212 24.27H139.862V30H132.872V9.03ZM141.452 18.96C143.272 18.96 144.182 18.19 144.182 16.65C144.182 15.11 143.272 14.34 141.452 14.34H139.862V18.96H141.452ZM157.676 15H152.306V9.03H170.156V15H164.786V30H157.676V15ZM178.926 30.45C177.546 30.45 176.156 30.31 174.756 30.03C173.356 29.75 172.216 29.37 171.336 28.89V22.71C172.456 23.35 173.636 23.83 174.876 24.15C176.136 24.47 177.296 24.63 178.356 24.63C178.956 24.63 179.386 24.57 179.646 24.45C179.906 24.33 180.036 24.14 180.036 23.88C180.036 23.52 179.836 23.22 179.436 22.98C179.036 22.72 178.186 22.3 176.886 21.72C174.966 20.88 173.566 19.95 172.686 18.93C171.826 17.89 171.396 16.63 171.396 15.15C171.396 13.87 171.746 12.74 172.446 11.76C173.166 10.76 174.166 9.98 175.446 9.42C176.746 8.86 178.226 8.58 179.886 8.58C181.246 8.58 182.456 8.69 183.516 8.91C184.576 9.13 185.586 9.47 186.546 9.93V15.9C184.746 14.9 182.966 14.4 181.206 14.4C179.786 14.4 179.076 14.71 179.076 15.33C179.076 15.63 179.236 15.88 179.556 16.08C179.896 16.28 180.496 16.55 181.356 16.89L182.466 17.34C183.886 17.94 184.976 18.54 185.736 19.14C186.496 19.72 187.036 20.39 187.356 21.15C187.676 21.89 187.836 22.83 187.836 23.97C187.836 25.99 187.096 27.58 185.616 28.74C184.136 29.88 181.906 30.45 178.926 30.45Z" fill="white"/>
<defs>
<linearGradient id="paint0_linear_17_177" x1="0.284616" y1="19.9999" x2="25.6514" y2="19.9999" gradientUnits="userSpaceOnUse">
<stop stop-color="#FA4001"/>
<stop offset="0.344077" stop-color="#CD0D14"/>
<stop offset="0.689254" stop-color="#A91D1E"/>
<stop offset="1" stop-color="#812924"/>
</linearGradient>
<linearGradient id="paint1_linear_17_177" x1="18.1887" y1="17.893" x2="36.1008" y2="17.893" gradientUnits="userSpaceOnUse">
<stop stop-color="#016DEA"/>
<stop offset="0.334096" stop-color="#005FCD"/>
<stop offset="0.634882" stop-color="#0052B1"/>
<stop offset="1" stop-color="#003B7E"/>
</linearGradient>
<linearGradient id="paint2_linear_17_177" x1="41.8624" y1="20.0012" x2="194.388" y2="20.0012" gradientUnits="userSpaceOnUse">
<stop stop-color="#016DEA"/>
<stop offset="0.334096" stop-color="#005FCD"/>
<stop offset="0.634882" stop-color="#0052B1"/>
<stop offset="1" stop-color="#003B7E"/>
</linearGradient>
</defs>
</svg>
