<svg width="176" height="40" viewBox="0 0 176 40" fill="none" xmlns="http://www.w3.org/2000/svg">
<path d="M25.5571 27.5337C25.5571 28.6878 25.2948 29.7842 24.8208 30.7607L24.775 30.8543C23.5526 33.292 21.0164 34.9762 18.0951 34.9762C15.1666 34.9762 12.6376 33.292 11.4152 30.8543L11.3695 30.7607L0.48809 9.06172C-0.440749 7.20708 0.911601 5.02374 2.99307 5.02374H13.4244C14.4856 5.02374 15.453 5.62116 15.927 6.56647L18.0927 10.8852L24.8184 24.3067C25.2948 25.2832 25.5571 26.3821 25.5571 27.5337Z" fill="url(#paint0_linear_17_72)"/>
<path d="M33.2027 5.02374C35.2842 5.02374 36.6365 7.20708 35.7053 9.06172L26.441 27.5337L24.8167 30.7607C25.2931 29.7842 25.553 28.6854 25.553 27.5337C25.553 26.3821 25.2907 25.2832 24.8167 24.3067L18.0934 10.8852L20.2591 6.56647C20.7332 5.62116 21.7029 5.02374 22.7617 5.02374H33.2027Z" fill="url(#paint1_linear_17_72)"/>
<rect x="41.7644" width="133.52" height="40" rx="5.7601" fill="url(#paint2_linear_17_72)"/>
<path d="M48.7104 9.03H54.9804L61.2204 18.78V9.03H68.0304V30H61.7604L55.5204 20.22V30H48.7104V9.03ZM79.4264 9.03H86.1464L94.5464 30H87.2564L85.9064 26.34H79.6664L78.3164 30H71.0264L79.4264 9.03ZM84.3464 21.12L82.7864 16.29L81.2264 21.12H84.3464ZM98.13 15H92.76V9.03H110.61V15H105.24V30H98.13V15ZM113.152 9.03H120.262V30H113.152V9.03ZM134.651 30.45C132.511 30.45 130.571 29.99 128.831 29.07C127.111 28.15 125.751 26.87 124.751 25.23C123.751 23.57 123.251 21.67 123.251 19.53C123.251 17.39 123.751 15.49 124.751 13.83C125.751 12.17 127.111 10.88 128.831 9.96C130.571 9.04 132.511 8.58 134.651 8.58C136.771 8.58 138.691 9.04 140.411 9.96C142.151 10.88 143.521 12.17 144.521 13.83C145.521 15.49 146.021 17.39 146.021 19.53C146.021 21.67 145.521 23.57 144.521 25.23C143.521 26.87 142.151 28.15 140.411 29.07C138.691 29.99 136.771 30.45 134.651 30.45ZM134.651 23.76C135.851 23.76 136.841 23.38 137.621 22.62C138.401 21.86 138.791 20.83 138.791 19.53C138.791 18.23 138.401 17.2 137.621 16.44C136.841 15.68 135.851 15.3 134.651 15.3C133.431 15.3 132.431 15.68 131.651 16.44C130.871 17.2 130.481 18.23 130.481 19.53C130.481 20.83 130.871 21.86 131.651 22.62C132.451 23.38 133.451 23.76 134.651 23.76ZM149.023 9.03H155.293L161.533 18.78V9.03H168.343V30H162.073L155.833 20.22V30H149.023V9.03Z" fill="white"/>
<defs>
<linearGradient id="paint0_linear_17_72" x1="0.189706" y1="19.9999" x2="25.5565" y2="19.9999" gradientUnits="userSpaceOnUse">
<stop stop-color="#FA4001"/>
<stop offset="0.344077" stop-color="#CD0D14"/>
<stop offset="0.689254" stop-color="#A91D1E"/>
<stop offset="1" stop-color="#812924"/>
</linearGradient>
<linearGradient id="paint1_linear_17_72" x1="18.0938" y1="17.893" x2="36.0059" y2="17.893" gradientUnits="userSpaceOnUse">
<stop stop-color="#016DEA"/>
<stop offset="0.334096" stop-color="#005FCD"/>
<stop offset="0.634882" stop-color="#0052B1"/>
<stop offset="1" stop-color="#003B7E"/>
</linearGradient>
<linearGradient id="paint2_linear_17_72" x1="41.7671" y1="20.0012" x2="175.292" y2="20.0012" gradientUnits="userSpaceOnUse">
<stop stop-color="#016DEA"/>
<stop offset="0.334096" stop-color="#005FCD"/>
<stop offset="0.634882" stop-color="#0052B1"/>
<stop offset="1" stop-color="#003B7E"/>
</linearGradient>
</defs>
</svg>
