<svg width="176" height="40" viewBox="0 0 176 40" fill="none" xmlns="http://www.w3.org/2000/svg">
<path d="M25.4622 27.5337C25.4622 28.6878 25.1999 29.7842 24.7259 30.7607L24.6802 30.8543C23.4578 33.292 20.9215 34.9762 18.0002 34.9762C15.0717 34.9762 12.5427 33.292 11.3203 30.8543L11.2746 30.7607L0.39321 9.06172C-0.535628 7.20708 0.816722 5.02374 2.89819 5.02374H13.3296C14.3908 5.02374 15.3581 5.62116 15.8321 6.56647L17.9978 10.8852L24.7235 24.3067C25.1999 25.2832 25.4622 26.3821 25.4622 27.5337Z" fill="url(#paint0_linear_17_151)"/>
<path d="M33.1078 5.02374C35.1893 5.02374 36.5416 7.20708 35.6104 9.06172L26.3461 27.5337L24.7218 30.7607C25.1983 29.7842 25.4581 28.6854 25.4581 27.5337C25.4581 26.3821 25.1959 25.2832 24.7218 24.3067L17.9986 10.8852L20.1643 6.56647C20.6383 5.62116 21.608 5.02374 22.6668 5.02374H33.1078Z" fill="url(#paint1_linear_17_151)"/>
<rect x="41.6696" width="133.52" height="40" rx="5.7601" fill="url(#paint2_linear_17_151)"/>
<path d="M48.5862 9.03H64.1262V15H55.6962V16.83H61.6662V22.2H55.6962V24.03H64.1262V30H48.5862V9.03ZM66.3905 9.03H73.8305L78.1505 20.79L82.4705 9.03H89.9105L81.5105 30H74.7905L66.3905 9.03ZM92.9241 9.03H108.464V15H100.034V16.83H106.004V22.2H100.034V24.03H108.464V30H92.9241V9.03ZM111.475 9.03H117.745L123.985 18.78V9.03H130.795V30H124.525L118.285 20.22V30H111.475V9.03ZM138.711 15H133.341V9.03H151.191V15H145.821V30H138.711V15ZM159.961 30.45C158.581 30.45 157.191 30.31 155.791 30.03C154.391 29.75 153.251 29.37 152.371 28.89V22.71C153.491 23.35 154.671 23.83 155.911 24.15C157.171 24.47 158.331 24.63 159.391 24.63C159.991 24.63 160.421 24.57 160.681 24.45C160.941 24.33 161.071 24.14 161.071 23.88C161.071 23.52 160.871 23.22 160.471 22.98C160.071 22.72 159.221 22.3 157.921 21.72C156.001 20.88 154.601 19.95 153.721 18.93C152.861 17.89 152.431 16.63 152.431 15.15C152.431 13.87 152.781 12.74 153.481 11.76C154.201 10.76 155.201 9.98 156.481 9.42C157.781 8.86 159.261 8.58 160.921 8.58C162.281 8.58 163.491 8.69 164.551 8.91C165.611 9.13 166.621 9.47 167.581 9.93V15.9C165.781 14.9 164.001 14.4 162.241 14.4C160.821 14.4 160.111 14.71 160.111 15.33C160.111 15.63 160.271 15.88 160.591 16.08C160.931 16.28 161.531 16.55 162.391 16.89L163.501 17.34C164.921 17.94 166.011 18.54 166.771 19.14C167.531 19.72 168.071 20.39 168.391 21.15C168.711 21.89 168.871 22.83 168.871 23.97C168.871 25.99 168.131 27.58 166.651 28.74C165.171 29.88 162.941 30.45 159.961 30.45Z" fill="white"/>
<defs>
<linearGradient id="paint0_linear_17_151" x1="0.0948271" y1="19.9999" x2="25.4616" y2="19.9999" gradientUnits="userSpaceOnUse">
<stop stop-color="#FA4001"/>
<stop offset="0.344077" stop-color="#CD0D14"/>
<stop offset="0.689254" stop-color="#A91D1E"/>
<stop offset="1" stop-color="#812924"/>
</linearGradient>
<linearGradient id="paint1_linear_17_151" x1="17.9989" y1="17.893" x2="35.911" y2="17.893" gradientUnits="userSpaceOnUse">
<stop stop-color="#016DEA"/>
<stop offset="0.334096" stop-color="#005FCD"/>
<stop offset="0.634882" stop-color="#0052B1"/>
<stop offset="1" stop-color="#003B7E"/>
</linearGradient>
<linearGradient id="paint2_linear_17_151" x1="41.6722" y1="20.0012" x2="175.197" y2="20.0012" gradientUnits="userSpaceOnUse">
<stop stop-color="#016DEA"/>
<stop offset="0.334096" stop-color="#005FCD"/>
<stop offset="0.634882" stop-color="#0052B1"/>
<stop offset="1" stop-color="#003B7E"/>
</linearGradient>
</defs>
</svg>
