<svg width="159" height="40" viewBox="0 0 159 40" fill="none" xmlns="http://www.w3.org/2000/svg">
<path d="M25.3673 27.5337C25.3673 28.6878 25.1051 29.7842 24.631 30.7607L24.5853 30.8543C23.3629 33.292 20.8266 34.9762 17.9054 34.9762C14.9769 34.9762 12.4478 33.292 11.2254 30.8543L11.1797 30.7607L0.298331 9.06172C-0.630507 7.20708 0.721843 5.02374 2.80331 5.02374H13.2347C14.2959 5.02374 15.2632 5.62116 15.7373 6.56647L17.9029 10.8852L24.6286 24.3067C25.1051 25.2832 25.3673 26.3821 25.3673 27.5337Z" fill="url(#paint0_linear_17_138)"/>
<path d="M33.013 5.02374C35.0944 5.02374 36.4468 7.20708 35.5155 9.06172L26.2512 27.5337L24.6269 30.7607C25.1034 29.7842 25.3633 28.6854 25.3633 27.5337C25.3633 26.3821 25.101 25.2832 24.6269 24.3067L17.9037 10.8852L20.0694 6.56647C20.5434 5.62116 21.5132 5.02374 22.5719 5.02374H33.013Z" fill="url(#paint1_linear_17_138)"/>
<rect x="41.5747" width="116.52" height="40" rx="5.7601" fill="url(#paint2_linear_17_138)"/>
<path d="M48.6808 9.03H55.7908V24.03H63.6208V30H48.6808V9.03ZM73.391 9.03H80.111L88.511 30H81.221L79.871 26.34H73.631L72.281 30H64.991L73.391 9.03ZM78.311 21.12L76.751 16.29L75.191 21.12H78.311ZM91.5245 9.03H97.7945L104.035 18.78V9.03H110.845V30H104.575L98.3345 20.22V30H91.5245V9.03ZM125.451 30.45C123.091 30.45 121.031 30.02 119.271 29.16C117.531 28.28 116.191 27.02 115.251 25.38C114.311 23.72 113.841 21.77 113.841 19.53C113.841 17.27 114.311 15.32 115.251 13.68C116.191 12.04 117.531 10.78 119.271 9.9C121.031 9.02 123.091 8.58 125.451 8.58C126.991 8.58 128.351 8.71 129.531 8.97C130.711 9.23 131.801 9.65 132.801 10.23V16.95C131.941 16.31 130.961 15.85 129.861 15.57C128.781 15.29 127.521 15.15 126.081 15.15C124.521 15.15 123.291 15.53 122.391 16.29C121.511 17.03 121.071 18.11 121.071 19.53C121.071 20.95 121.521 22.04 122.421 22.8C123.321 23.54 124.541 23.91 126.081 23.91C127.481 23.91 128.741 23.76 129.861 23.46C130.981 23.14 132.041 22.66 133.041 22.02V28.71C131.021 29.87 128.491 30.45 125.451 30.45ZM136.038 9.03H151.578V15H143.148V16.83H149.118V22.2H143.148V24.03H151.578V30H136.038V9.03Z" fill="white"/>
<defs>
<linearGradient id="paint0_linear_17_138" x1="-5.20512e-05" y1="19.9999" x2="25.3667" y2="19.9999" gradientUnits="userSpaceOnUse">
<stop stop-color="#FA4001"/>
<stop offset="0.344077" stop-color="#CD0D14"/>
<stop offset="0.689254" stop-color="#A91D1E"/>
<stop offset="1" stop-color="#812924"/>
</linearGradient>
<linearGradient id="paint1_linear_17_138" x1="17.904" y1="17.893" x2="35.8161" y2="17.893" gradientUnits="userSpaceOnUse">
<stop stop-color="#016DEA"/>
<stop offset="0.334096" stop-color="#005FCD"/>
<stop offset="0.634882" stop-color="#0052B1"/>
<stop offset="1" stop-color="#003B7E"/>
</linearGradient>
<linearGradient id="paint2_linear_17_138" x1="41.5771" y1="20.0012" x2="158.101" y2="20.0012" gradientUnits="userSpaceOnUse">
<stop stop-color="#016DEA"/>
<stop offset="0.334096" stop-color="#005FCD"/>
<stop offset="0.634882" stop-color="#0052B1"/>
<stop offset="1" stop-color="#003B7E"/>
</linearGradient>
</defs>
</svg>
