<svg width="40" height="40" viewBox="0 0 40 40" fill="none" xmlns="http://www.w3.org/2000/svg">
<rect width="40" height="40" rx="20" fill="url(#paint0_linear_8649_41358)"/>
<path d="M26.4688 9.96875C26.3844 10.0531 26.375 10.1234 26.375 10.8125C26.375 11.5016 26.3844 11.5719 26.4688 11.6562C26.5297 11.7172 26.6234 11.75 26.75 11.75C26.8766 11.75 26.9703 11.7172 27.0312 11.6562C27.1156 11.5719 27.125 11.5016 27.125 10.8125C27.125 10.1234 27.1156 10.0531 27.0312 9.96875C26.9703 9.90781 26.8766 9.875 26.75 9.875C26.6234 9.875 26.5297 9.90781 26.4688 9.96875Z" fill="white"/>
<path d="M23.4688 10.7188C23.4031 10.7844 23.375 10.8734 23.375 11.0094C23.375 11.1969 23.3984 11.2297 23.8344 11.6656C24.2703 12.1016 24.3031 12.125 24.4906 12.125C24.6266 12.125 24.7156 12.0969 24.7812 12.0312C24.8469 11.9656 24.875 11.8766 24.875 11.7406C24.875 11.5531 24.8516 11.5203 24.4156 11.0844C23.9797 10.6484 23.9469 10.625 23.7594 10.625C23.6234 10.625 23.5344 10.6531 23.4688 10.7188Z" fill="white"/>
<path d="M29.0844 11.0844C28.6484 11.5203 28.625 11.5531 28.625 11.7406C28.625 11.8766 28.6531 11.9656 28.7188 12.0312C28.7844 12.0969 28.8734 12.125 29.0094 12.125C29.1969 12.125 29.2297 12.1016 29.6656 11.6656C30.1016 11.2297 30.125 11.1969 30.125 11.0094C30.125 10.8734 30.0969 10.7844 30.0312 10.7188C29.9656 10.6531 29.8766 10.625 29.7406 10.625C29.5531 10.625 29.5203 10.6484 29.0844 11.0844Z" fill="white"/>
<path d="M25.6953 12.5891C25.25 12.7062 24.9969 12.8234 24.6594 13.0812C23.8625 13.6812 23.4641 14.6656 23.375 16.25C23.3469 16.7 23.3188 17.1406 23.3047 17.2203L23.2766 17.375H16.1094C8.99844 17.375 8.9375 17.375 8.84375 17.4687C8.75 17.5625 8.75 17.6234 8.75 23.75C8.75 29.8766 8.75 29.9375 8.84375 30.0312C8.9375 30.125 8.99844 30.125 18.125 30.125C27.2516 30.125 27.3125 30.125 27.4062 30.0312C27.5 29.9375 27.5 29.8719 27.5047 26.4078V22.8828L27.7953 22.6953C28.1984 22.4328 28.4375 22.0953 28.6063 21.5562C28.6156 21.5141 28.9062 21.5 29.8438 21.5C31.0016 21.5 31.0672 21.4953 31.1562 21.4062C31.2453 21.3172 31.25 21.2516 31.25 20.3703V19.4328L31.0578 19.2594C30.7812 19.0109 30.6031 18.7344 30.4484 18.3078C30.2656 17.8109 30.1859 17.2906 30.1297 16.2734C30.0359 14.6797 29.6375 13.6812 28.8547 13.0906C28.2547 12.6359 27.7484 12.5 26.7313 12.5047C26.2156 12.5047 25.9344 12.5281 25.6953 12.5891ZM27.5328 13.3484C28.1328 13.4656 28.6719 13.8969 28.9531 14.4922C29.1781 14.9656 29.2812 15.4437 29.3281 16.2734C29.3516 16.6859 29.3844 17.1594 29.4031 17.3234C29.4453 17.7828 29.6375 18.5141 29.8156 18.9031L29.9797 19.25H29.5813C29.1078 19.25 29 19.3203 29 19.625C29 19.7516 29.0328 19.8453 29.0938 19.9062C29.1781 19.9906 29.2484 20 29.8438 20H30.5V20.375V20.75H26.75H23V20.375V20H25.5312C28.0016 20 28.0625 20 28.1562 19.9062C28.2172 19.8453 28.25 19.7516 28.25 19.625C28.25 19.4984 28.2172 19.4047 28.1562 19.3438C28.0672 19.2547 28.0016 19.25 25.7938 19.25H23.5203L23.6844 18.9031C23.8625 18.5141 24.0547 17.7828 24.0969 17.3234C24.1156 17.1594 24.1484 16.6859 24.1719 16.2734C24.2 15.8141 24.2516 15.3828 24.3078 15.1578C24.5469 14.2391 25.0063 13.6672 25.7188 13.4141C26.1031 13.2734 26.9891 13.2453 27.5328 13.3484ZM23.0703 18.2516C23 18.5469 22.7797 18.9125 22.5219 19.1703L22.25 19.4469V20.3703C22.25 21.0922 22.2641 21.3125 22.3156 21.3875C22.3719 21.4625 22.4563 21.4812 22.9016 21.5L23.4219 21.5234L21.0641 23.2906C19.7656 24.2656 18.6313 25.0906 18.5328 25.1328C18.3313 25.2172 17.9656 25.2266 17.7453 25.1469C17.5766 25.0906 10.0297 19.4469 9.81875 19.2219C9.64531 19.0344 9.55625 18.8047 9.51875 18.4344L9.48594 18.125H16.2969H23.1031L23.0703 18.2516ZM12.1016 21.9875C13.3672 22.9344 14.3984 23.7266 14.3984 23.75C14.3984 23.7734 13.3672 24.5656 12.1016 25.5125C10.8406 26.4594 9.73438 27.2844 9.65469 27.35L9.5 27.4625V23.75V20.0375L9.65469 20.15C9.73438 20.2156 10.8406 21.0406 12.1016 21.9875ZM24.9453 21.725C25.1375 22.3719 25.8125 22.9297 26.4781 22.9859L26.75 23.0141V25.2406V27.4625L26.6 27.35C26.5156 27.2844 25.4141 26.4594 24.1484 25.5125C22.8875 24.5656 21.8516 23.7734 21.8516 23.75C21.8516 23.6891 24.7906 21.4953 24.8422 21.5141C24.8703 21.5234 24.9172 21.6172 24.9453 21.725ZM27.7156 21.6266C27.5375 21.9688 27.1484 22.2031 26.75 22.2031C26.3516 22.2031 25.9625 21.9688 25.7844 21.6266L25.7141 21.5H26.75H27.7859L27.7156 21.6266ZM16.1516 25.0203C16.7047 25.4375 17.2578 25.8219 17.375 25.8781C17.6844 26.0187 18.5656 26.0187 18.875 25.8781C18.9922 25.8219 19.5453 25.4375 20.1078 25.0156L21.125 24.2562L23.6938 26.1781C25.1047 27.2375 26.3234 28.175 26.4078 28.2594C26.6047 28.4609 26.6938 28.6812 26.7313 29.0656L26.7641 29.375H18.125H9.48594L9.51875 29.0609C9.55625 28.6766 9.66875 28.4187 9.87969 28.2172C10.025 28.0812 15.0781 24.2703 15.1203 24.2656C15.1297 24.2656 15.5938 24.6078 16.1516 25.0203Z" fill="white"/>
<path d="M25.3821 14.7969C25.1524 14.9328 24.9274 15.9922 24.8899 17.0984C24.8618 17.9 24.8665 17.9281 24.9649 18.0265C25.0727 18.1344 25.3306 18.1578 25.4852 18.0781C25.6118 18.0125 25.6727 17.7453 25.6727 17.2812C25.6727 16.7609 25.7524 16.1281 25.8743 15.6875C26.0196 15.1437 26.029 14.9656 25.9118 14.8484C25.804 14.7406 25.5227 14.7172 25.3821 14.7969Z" fill="white"/>
<defs>
<linearGradient id="paint0_linear_8649_41358" x1="-8.20759e-05" y1="19.9999" x2="39.999" y2="19.9999" gradientUnits="userSpaceOnUse">
<stop stop-color="#FA4001"/>
<stop offset="0.333333" stop-color="#CD0D14"/>
<stop offset="0.666667" stop-color="#A91D1E"/>
<stop offset="1" stop-color="#812924"/>
</linearGradient>
</defs>
</svg>
