<svg width="17" height="16" viewBox="0 0 17 16" fill="none" xmlns="http://www.w3.org/2000/svg">
<path d="M4.50586 1.30081L2.50586 3.90244V13.0081C2.50586 13.3531 2.64634 13.684 2.89638 13.9279C3.14643 14.1719 3.48557 14.3089 3.83919 14.3089H13.1725C13.5261 14.3089 13.8653 14.1719 14.1153 13.9279C14.3654 13.684 14.5059 13.3531 14.5059 13.0081V3.90244L12.5059 1.30081H4.50586Z" stroke="#016DEA" stroke-linecap="round" stroke-linejoin="round"/>
<path d="M2.50586 3.90244H14.5059" stroke="#016DEA" stroke-linecap="round" stroke-linejoin="round"/>
<path d="M11.1732 5.50406C11.1732 6.19405 10.8922 6.85579 10.3921 7.34369C9.89203 7.83159 9.21375 8.10568 8.50651 8.10568C7.79927 8.10568 7.12099 7.83159 6.62089 7.34369C6.1208 6.85579 5.83984 6.19405 5.83984 5.50406" stroke="#016DEA" stroke-linecap="round" stroke-linejoin="round"/>
<path d="M6 11L11 11" stroke="#016DEA" stroke-linecap="round" stroke-linejoin="round"/>
<path d="M10 9.54166L11.4583 11L10 12.4583" stroke="#016DEA" stroke-linecap="round" stroke-linejoin="round"/>
</svg>
